<?xml version="1.0" encoding="UTF-8" standalone="no"?>
<!DOCTYPE svg PUBLIC "-//W3C//DTD SVG 1.1//EN"
 "http://www.w3.org/Graphics/SVG/1.1/DTD/svg11.dtd">
<!-- Generated by graphviz version 2.43.0 (0)
 -->
<!-- Title: UpdateObjects Pages: 1 -->
<!--zoomable 352 -->
<svg id="main" version="1.1" xmlns="http://www.w3.org/2000/svg" xmlns:xlink="http://www.w3.org/1999/xlink" xml:space="preserve" onload="init(evt)">
<style type="text/css"><![CDATA[
.edge:hover path { stroke: red; }
.edge:hover polygon { stroke: red; fill: red; }
]]></style>
<script type="text/javascript"><![CDATA[
var edges = document.getElementsByTagName('g');
if (edges && edges.length) {
  for (var i=0;i<edges.length;i++) {
    if (edges[i].id.substr(0,4)=='edge') {
      edges[i].setAttribute('class','edge');
    }
  }
}
]]></script>
        <defs>
                <circle id="rim" cx="0" cy="0" r="7"/>
                <circle id="rim2" cx="0" cy="0" r="3.5"/>
                <g id="zoomPlus">
                        <use xlink:href="#rim" fill="#404040">
                                <set attributeName="fill" to="#808080" begin="zoomplus.mouseover" end="zoomplus.mouseout"/>
                        </use>
                        <path d="M-4,0h8M0,-4v8" fill="none" stroke="white" stroke-width="1.5" pointer-events="none"/>
                </g>
                <g id="zoomMin">
                        <use xlink:href="#rim" fill="#404040">
                                <set attributeName="fill" to="#808080" begin="zoomminus.mouseover" end="zoomminus.mouseout"/>
                        </use>
                        <path d="M-4,0h8" fill="none" stroke="white" stroke-width="1.5" pointer-events="none"/>
                </g>
                <g id="dirArrow">
                        <path fill="none" stroke="white" stroke-width="1.5" d="M0,-3.0v7 M-2.5,-0.5L0,-3.0L2.5,-0.5"/>
                </g>
               <g id="resetDef">
                       <use xlink:href="#rim2" fill="#404040">
                               <set attributeName="fill" to="#808080" begin="reset.mouseover" end="reset.mouseout"/>
                       </use>
               </g>
        </defs>

<script type="text/javascript">
var viewWidth = 1139;
var viewHeight = 352;
var sectionId = 'dynsection-9';
</script>
<script xlink:href="../../svgpan.js"/>
<svg id="graph" class="graph">
<g id="viewport">
<title>UpdateObjects</title>
<!-- Node1 -->
<g id="node1" class="node">
<title>Node1</title>
<g id="a_node1"><a xlink:title="Iterate over all objects, and update the appropriately, using OnTick() or Component specific methods.">
<polygon fill="#999999" stroke="#666666" points="89,-324 0,-324 0,-305 89,-305 89,-324"/>
<text text-anchor="middle" x="44.5" y="-312" font-family="Helvetica,sans-Serif" font-size="10.00">UpdateObjects</text>
</a>
</g>
</g>
<!-- Node2 -->
<g id="node2" class="node">
<title>Node2</title>
<g id="a_node2"><a xlink:href="../../de/dfd/GameManagement_8cpp.html#abb664488d26ac602b11cc22de7243458" target="_top" xlink:title=" ">
<polygon fill="white" stroke="#666666" points="268,-343 125,-343 125,-324 268,-324 268,-343"/>
<text text-anchor="middle" x="196.5" y="-331" font-family="Helvetica,sans-Serif" font-size="10.00">HandleComponentUpdate</text>
</a>
</g>
</g>
<!-- Node1&#45;&gt;Node2 -->
<g id="edge1" class="edge">
<title>Node1&#45;&gt;Node2</title>
<path fill="none" stroke="#63b8ff" d="M89.29,-320.05C97.39,-321.07 106.09,-322.17 114.89,-323.29"/>
<polygon fill="#63b8ff" stroke="#63b8ff" points="114.48,-326.77 124.85,-324.55 115.36,-319.82 114.48,-326.77"/>
</g>
<!-- Node3 -->
<g id="node3" class="node">
<title>Node3</title>
<g id="a_node3"><a xlink:href="../../de/dfd/GameManagement_8cpp.html#a95ff1ee6a57e678376b2eae2ef499ab3" target="_top" xlink:title=" ">
<polygon fill="white" stroke="#666666" points="268,-306 125,-306 125,-287 268,-287 268,-306"/>
<text text-anchor="middle" x="196.5" y="-294" font-family="Helvetica,sans-Serif" font-size="10.00">WorkThroughFrameQueue</text>
</a>
</g>
</g>
<!-- Node1&#45;&gt;Node3 -->
<g id="edge2" class="edge">
<title>Node1&#45;&gt;Node3</title>
<path fill="none" stroke="#63b8ff" d="M89.29,-309.25C97.39,-308.27 106.09,-307.23 114.89,-306.17"/>
<polygon fill="#63b8ff" stroke="#63b8ff" points="115.33,-309.65 124.85,-304.98 114.5,-302.7 115.33,-309.65"/>
</g>
<!-- Node4 -->
<g id="node4" class="node">
<title>Node4</title>
<g id="a_node4"><a xlink:href="../../de/dfd/GameManagement_8cpp.html#ad487b4c14d5f4bf65d056f5c90ac4d72" target="_top" xlink:title=" ">
<polygon fill="white" stroke="#666666" points="444,-344 304,-344 304,-325 444,-325 444,-344"/>
<text text-anchor="middle" x="374" y="-332" font-family="Helvetica,sans-Serif" font-size="10.00">DestroyEnqueuedObjects</text>
</a>
</g>
</g>
<!-- Node3&#45;&gt;Node4 -->
<g id="edge3" class="edge">
<title>Node3&#45;&gt;Node4</title>
<path fill="none" stroke="#63b8ff" d="M241.79,-306.09C265.26,-311.17 294.28,-317.46 319.06,-322.82"/>
<polygon fill="#63b8ff" stroke="#63b8ff" points="318.52,-326.28 329.03,-324.98 320,-319.44 318.52,-326.28"/>
</g>
<!-- Node6 -->
<g id="node6" class="node">
<title>Node6</title>
<g id="a_node6"><a xlink:href="../../de/dfd/GameManagement_8cpp.html#a25053f13bc5fe6ea1caf5f343cbb30b8" target="_top" xlink:title=" ">
<polygon fill="white" stroke="#666666" points="622,-306 480,-306 480,-287 622,-287 622,-306"/>
<text text-anchor="middle" x="551" y="-294" font-family="Helvetica,sans-Serif" font-size="10.00">RegisterEnqueuedObjects</text>
</a>
</g>
</g>
<!-- Node3&#45;&gt;Node6 -->
<g id="edge5" class="edge">
<title>Node3&#45;&gt;Node6</title>
<path fill="none" stroke="#63b8ff" d="M268.41,-296.5C326.57,-296.5 408.89,-296.5 469.51,-296.5"/>
<polygon fill="#63b8ff" stroke="#63b8ff" points="469.81,-300 479.81,-296.5 469.81,-293 469.81,-300"/>
</g>
<!-- Node8 -->
<g id="node8" class="node">
<title>Node8</title>
<g id="a_node8"><a xlink:href="../../de/dfd/GameManagement_8cpp.html#a2877bc3a946eb46940e5cdedcaf4e3f6" target="_top" xlink:title=" ">
<polygon fill="white" stroke="#666666" points="436,-250 312,-250 312,-231 436,-231 436,-250"/>
<text text-anchor="middle" x="374" y="-238" font-family="Helvetica,sans-Serif" font-size="10.00">ResetGameIfRequired</text>
</a>
</g>
</g>
<!-- Node3&#45;&gt;Node8 -->
<g id="edge7" class="edge">
<title>Node3&#45;&gt;Node8</title>
<path fill="none" stroke="#63b8ff" d="M227.67,-286.87C256.85,-277.56 301.25,-263.4 333.29,-253.17"/>
<polygon fill="#63b8ff" stroke="#63b8ff" points="334.76,-256.38 343.22,-250 332.63,-249.71 334.76,-256.38"/>
</g>
<!-- Node5 -->
<g id="node5" class="node">
<title>Node5</title>
<g id="a_node5"><a xlink:href="../../de/dfd/GameManagement_8cpp.html#abc0ac24a5725e21af2dcc9eb0d0c40ae" target="_top" xlink:title="Immediately destroy a GameObject.">
<polygon fill="white" stroke="#666666" points="609,-344 493,-344 493,-325 609,-325 609,-344"/>
<text text-anchor="middle" x="551" y="-332" font-family="Helvetica,sans-Serif" font-size="10.00">DestroyGameObject</text>
</a>
</g>
</g>
<!-- Node4&#45;&gt;Node5 -->
<g id="edge4" class="edge">
<title>Node4&#45;&gt;Node5</title>
<path fill="none" stroke="#63b8ff" d="M444.16,-334.5C456.9,-334.5 470.19,-334.5 482.87,-334.5"/>
<polygon fill="#63b8ff" stroke="#63b8ff" points="482.88,-338 492.88,-334.5 482.88,-331 482.88,-338"/>
</g>
<!-- Node7 -->
<g id="node7" class="node">
<title>Node7</title>
<g id="a_node7"><a xlink:href="../../de/dfd/GameManagement_8cpp.html#a40f7d4339a01b155a82745c5bd8ead6a" target="_top" xlink:title="Directly register a gameobject. Will push the object into the GameObjects vector.">
<polygon fill="white" stroke="#666666" points="1131,-167 1013,-167 1013,-148 1131,-148 1131,-167"/>
<text text-anchor="middle" x="1072" y="-155" font-family="Helvetica,sans-Serif" font-size="10.00">RegisterGameObject</text>
</a>
</g>
</g>
<!-- Node6&#45;&gt;Node7 -->
<g id="edge6" class="edge">
<title>Node6&#45;&gt;Node7</title>
<path fill="none" stroke="#63b8ff" d="M588.8,-306.05C665.97,-323.95 848.24,-355.02 977,-287.5 1000.57,-275.14 1041.34,-208.77 1060.49,-175.93"/>
<polygon fill="#63b8ff" stroke="#63b8ff" points="1063.52,-177.68 1065.49,-167.27 1057.46,-174.18 1063.52,-177.68"/>
</g>
<!-- Node9 -->
<g id="node9" class="node">
<title>Node9</title>
<g id="a_node9"><a xlink:href="../../d1/d99/Lifecycle_8cpp.html#a7be4f604c1baeb7cac84122a7f2438cf" target="_top" xlink:title="Reset the game to the initial state.">
<polygon fill="white" stroke="#666666" points="588,-213 514,-213 514,-194 588,-194 588,-213"/>
<text text-anchor="middle" x="551" y="-201" font-family="Helvetica,sans-Serif" font-size="10.00">ResetGame</text>
</a>
</g>
</g>
<!-- Node8&#45;&gt;Node9 -->
<g id="edge8" class="edge">
<title>Node8&#45;&gt;Node9</title>
<path fill="none" stroke="#63b8ff" d="M420.07,-230.97C445.82,-225.53 478.03,-218.72 503.94,-213.24"/>
<polygon fill="#63b8ff" stroke="#63b8ff" points="504.84,-216.63 513.9,-211.13 503.39,-209.78 504.84,-216.63"/>
</g>
<!-- Node10 -->
<g id="node10" class="node">
<title>Node10</title>
<g id="a_node10"><a xlink:href="../../d9/dfa/Init_8cpp.html#aaa64e8fd06230fa14e507cef71a3217d" target="_top" xlink:title="Create the initial gameobjects required for the game.">
<polygon fill="white" stroke="#666666" points="801,-167 658,-167 658,-148 801,-148 801,-167"/>
<text text-anchor="middle" x="729.5" y="-155" font-family="Helvetica,sans-Serif" font-size="10.00">CreateInitialGameObjects</text>
</a>
</g>
</g>
<!-- Node9&#45;&gt;Node10 -->
<g id="edge9" class="edge">
<title>Node9&#45;&gt;Node10</title>
<path fill="none" stroke="#63b8ff" d="M588.14,-194.08C615.21,-187.03 652.46,-177.32 681.79,-169.67"/>
<polygon fill="#63b8ff" stroke="#63b8ff" points="683,-172.97 691.8,-167.07 681.24,-166.2 683,-172.97"/>
</g>
<!-- Node20 -->
<g id="node20" class="node">
<title>Node20</title>
<g id="a_node20"><a xlink:href="../../de/dfd/GameManagement_8cpp.html#ae5ee3f705fc506491ca2b0c7cf059c75" target="_top" xlink:title="Initialize all gameobjects and call the OnStart() methods.">
<polygon fill="white" stroke="#666666" points="771,-213 688,-213 688,-194 771,-194 771,-213"/>
<text text-anchor="middle" x="729.5" y="-201" font-family="Helvetica,sans-Serif" font-size="10.00">OnGameStart</text>
</a>
</g>
</g>
<!-- Node9&#45;&gt;Node20 -->
<g id="edge26" class="edge">
<title>Node9&#45;&gt;Node20</title>
<path fill="none" stroke="#63b8ff" d="M588.14,-203.5C613.92,-203.5 648.94,-203.5 677.55,-203.5"/>
<polygon fill="#63b8ff" stroke="#63b8ff" points="677.78,-207 687.78,-203.5 677.78,-200 677.78,-207"/>
</g>
<!-- Node11 -->
<g id="node11" class="node">
<title>Node11</title>
<g id="a_node11"><a xlink:href="../../d9/dfa/Init_8cpp.html#a3ff595c2af791c369e2318510062ce14" target="_top" xlink:title="Create the coffee meter bar.">
<polygon fill="white" stroke="#666666" points="961.5,-130 852.5,-130 852.5,-111 961.5,-111 961.5,-130"/>
<text text-anchor="middle" x="907" y="-118" font-family="Helvetica,sans-Serif" font-size="10.00">CreateCoffeeMeter</text>
</a>
</g>
</g>
<!-- Node10&#45;&gt;Node11 -->
<g id="edge10" class="edge">
<title>Node10&#45;&gt;Node11</title>
<path fill="none" stroke="#63b8ff" d="M775.7,-147.97C798.53,-143.16 826.45,-137.27 850.57,-132.19"/>
<polygon fill="#63b8ff" stroke="#63b8ff" points="851.59,-135.55 860.65,-130.06 850.15,-128.7 851.59,-135.55"/>
</g>
<!-- Node12 -->
<g id="node12" class="node">
<title>Node12</title>
<g id="a_node12"><a xlink:href="../../d9/dfa/Init_8cpp.html#a1bfb628b6cd503e396bae0796f2051c1" target="_top" xlink:title="Create the icon next to the coffee meter.">
<polygon fill="white" stroke="#666666" points="971.5,-278 842.5,-278 842.5,-259 971.5,-259 971.5,-278"/>
<text text-anchor="middle" x="907" y="-266" font-family="Helvetica,sans-Serif" font-size="10.00">CreateCoffeeMeterIcon</text>
</a>
</g>
</g>
<!-- Node10&#45;&gt;Node12 -->
<g id="edge12" class="edge">
<title>Node10&#45;&gt;Node12</title>
<path fill="none" stroke="#63b8ff" d="M769.79,-167.04C780.77,-171.09 792.12,-176.73 801,-184.5 826.15,-206.5 810.67,-229.93 837,-250.5 838.78,-251.89 840.66,-253.18 842.62,-254.37"/>
<polygon fill="#63b8ff" stroke="#63b8ff" points="841.1,-257.52 851.59,-258.96 844.29,-251.29 841.1,-257.52"/>
</g>
<!-- Node14 -->
<g id="node14" class="node">
<title>Node14</title>
<g id="a_node14"><a xlink:href="../../d9/dfa/Init_8cpp.html#a7577908172d93807ef67f163f851fe5e" target="_top" xlink:title="Create the floor and register it.">
<polygon fill="white" stroke="#666666" points="944,-93 870,-93 870,-74 944,-74 944,-93"/>
<text text-anchor="middle" x="907" y="-81" font-family="Helvetica,sans-Serif" font-size="10.00">CreateFloor</text>
</a>
</g>
</g>
<!-- Node10&#45;&gt;Node14 -->
<g id="edge15" class="edge">
<title>Node10&#45;&gt;Node14</title>
<path fill="none" stroke="#63b8ff" d="M745.85,-147.99C766.09,-135.78 803.11,-114.63 837,-101.5 844.31,-98.67 852.21,-96.14 859.98,-93.93"/>
<polygon fill="#63b8ff" stroke="#63b8ff" points="860.95,-97.3 869.69,-91.31 859.13,-90.54 860.95,-97.3"/>
</g>
<!-- Node15 -->
<g id="node15" class="node">
<title>Node15</title>
<g id="a_node15"><a xlink:href="../../d9/dfa/Init_8cpp.html#a8ad8206fa2846739c5e76ce97b6b2783" target="_top" xlink:title="Create the score counter and register it.">
<polygon fill="white" stroke="#666666" points="964,-56 850,-56 850,-37 964,-37 964,-56"/>
<text text-anchor="middle" x="907" y="-44" font-family="Helvetica,sans-Serif" font-size="10.00">CreateScoreCounter</text>
</a>
</g>
</g>
<!-- Node10&#45;&gt;Node15 -->
<g id="edge17" class="edge">
<title>Node10&#45;&gt;Node15</title>
<path fill="none" stroke="#63b8ff" d="M738.55,-147.99C755.04,-129.13 794.69,-86.88 837,-64.5 840.53,-62.63 844.27,-60.95 848.1,-59.43"/>
<polygon fill="#63b8ff" stroke="#63b8ff" points="849.52,-62.65 857.78,-56.01 847.18,-56.05 849.52,-62.65"/>
</g>
<!-- Node16 -->
<g id="node16" class="node">
<title>Node16</title>
<g id="a_node16"><a xlink:href="../../d9/dfa/Init_8cpp.html#ac07b948048071cbf70f69aa9d691a93f" target="_top" xlink:title="Set the window background to white.">
<polygon fill="white" stroke="#666666" points="977,-167 837,-167 837,-148 977,-148 977,-167"/>
<text text-anchor="middle" x="907" y="-155" font-family="Helvetica,sans-Serif" font-size="10.00">SetupWindowbackground</text>
</a>
</g>
</g>
<!-- Node10&#45;&gt;Node16 -->
<g id="edge19" class="edge">
<title>Node10&#45;&gt;Node16</title>
<path fill="none" stroke="#63b8ff" d="M801.12,-157.5C809.61,-157.5 818.32,-157.5 826.92,-157.5"/>
<polygon fill="#63b8ff" stroke="#63b8ff" points="826.95,-161 836.95,-157.5 826.95,-154 826.95,-161"/>
</g>
<!-- Node17 -->
<g id="node17" class="node">
<title>Node17</title>
<g id="a_node17"><a xlink:href="../../d9/dfa/Init_8cpp.html#a374cb6f303f72b5af970063ff1318f24" target="_top" xlink:title="Create the left wall and register it.">
<polygon fill="white" stroke="#666666" points="951,-19 863,-19 863,0 951,0 951,-19"/>
<text text-anchor="middle" x="907" y="-7" font-family="Helvetica,sans-Serif" font-size="10.00">SpawnLeftWall</text>
</a>
</g>
</g>
<!-- Node10&#45;&gt;Node17 -->
<g id="edge20" class="edge">
<title>Node10&#45;&gt;Node17</title>
<path fill="none" stroke="#63b8ff" d="M735.5,-147.92C748.64,-123.72 786.64,-59.77 837,-27.5 841.94,-24.33 847.42,-21.72 853.06,-19.57"/>
<polygon fill="#63b8ff" stroke="#63b8ff" points="854.28,-22.85 862.66,-16.36 852.07,-16.21 854.28,-22.85"/>
</g>
<!-- Node18 -->
<g id="node18" class="node">
<title>Node18</title>
<g id="a_node18"><a xlink:href="../../d9/dfa/Init_8cpp.html#aa021dfea28868af5fdc6eb97fdf11395" target="_top" xlink:title="Create the player and register it.">
<polygon fill="white" stroke="#666666" points="947,-241 867,-241 867,-222 947,-222 947,-241"/>
<text text-anchor="middle" x="907" y="-229" font-family="Helvetica,sans-Serif" font-size="10.00">SpawnPlayer</text>
</a>
</g>
</g>
<!-- Node10&#45;&gt;Node18 -->
<g id="edge22" class="edge">
<title>Node10&#45;&gt;Node18</title>
<path fill="none" stroke="#63b8ff" d="M761.23,-167.04C773.93,-171.55 788.56,-177.48 801,-184.5 818.66,-194.46 818.88,-203.41 837,-212.5 843.19,-215.61 849.96,-218.26 856.76,-220.51"/>
<polygon fill="#63b8ff" stroke="#63b8ff" points="856.1,-223.97 866.69,-223.53 858.14,-217.27 856.1,-223.97"/>
</g>
<!-- Node19 -->
<g id="node19" class="node">
<title>Node19</title>
<g id="a_node19"><a xlink:href="../../d9/dfa/Init_8cpp.html#a0e2d0321a787eb9a3b705489c8f2b86b" target="_top" xlink:title="Create the right wall and register it.">
<polygon fill="white" stroke="#666666" points="954.5,-204 859.5,-204 859.5,-185 954.5,-185 954.5,-204"/>
<text text-anchor="middle" x="907" y="-192" font-family="Helvetica,sans-Serif" font-size="10.00">SpawnRightWall</text>
</a>
</g>
</g>
<!-- Node10&#45;&gt;Node19 -->
<g id="edge24" class="edge">
<title>Node10&#45;&gt;Node19</title>
<path fill="none" stroke="#63b8ff" d="M775.7,-167.03C798.53,-171.84 826.45,-177.73 850.57,-182.81"/>
<polygon fill="#63b8ff" stroke="#63b8ff" points="850.15,-186.3 860.65,-184.94 851.59,-179.45 850.15,-186.3"/>
</g>
<!-- Node11&#45;&gt;Node7 -->
<g id="edge11" class="edge">
<title>Node11&#45;&gt;Node7</title>
<path fill="none" stroke="#63b8ff" d="M949.98,-130.03C971,-134.8 996.65,-140.62 1018.92,-145.68"/>
<polygon fill="#63b8ff" stroke="#63b8ff" points="1018.36,-149.14 1028.88,-147.94 1019.91,-142.31 1018.36,-149.14"/>
</g>
<!-- Node12&#45;&gt;Node7 -->
<g id="edge14" class="edge">
<title>Node12&#45;&gt;Node7</title>
<path fill="none" stroke="#63b8ff" d="M957.51,-258.99C964.28,-256.72 970.98,-253.93 977,-250.5 1011.04,-231.12 1041.46,-196.26 1057.97,-175.16"/>
<polygon fill="#63b8ff" stroke="#63b8ff" points="1060.87,-177.12 1064.16,-167.05 1055.31,-172.88 1060.87,-177.12"/>
</g>
<!-- Node13 -->
<g id="node13" class="node">
<title>Node13</title>
<g id="a_node13"><a xlink:href="../../d1/da9/AssetLoading_8cpp.html#a07739f40c13743b2dfceefb659d6d455" target="_top" xlink:title=" ">
<polygon fill="white" stroke="#666666" points="1113,-278 1031,-278 1031,-259 1113,-259 1113,-278"/>
<text text-anchor="middle" x="1072" y="-266" font-family="Helvetica,sans-Serif" font-size="10.00">GetAssetPath</text>
</a>
</g>
</g>
<!-- Node12&#45;&gt;Node13 -->
<g id="edge13" class="edge">
<title>Node12&#45;&gt;Node13</title>
<path fill="none" stroke="#63b8ff" d="M971.95,-268.5C988.04,-268.5 1005.09,-268.5 1020.42,-268.5"/>
<polygon fill="#63b8ff" stroke="#63b8ff" points="1020.73,-272 1030.73,-268.5 1020.73,-265 1020.73,-272"/>
</g>
<!-- Node14&#45;&gt;Node7 -->
<g id="edge16" class="edge">
<title>Node14&#45;&gt;Node7</title>
<path fill="none" stroke="#63b8ff" d="M944.09,-90.87C954.88,-93.62 966.61,-97.15 977,-101.5 1003.2,-112.46 1030.87,-129.72 1049.34,-142.19"/>
<polygon fill="#63b8ff" stroke="#63b8ff" points="1047.4,-145.1 1057.63,-147.87 1051.36,-139.33 1047.4,-145.1"/>
</g>
<!-- Node15&#45;&gt;Node7 -->
<g id="edge18" class="edge">
<title>Node15&#45;&gt;Node7</title>
<path fill="none" stroke="#63b8ff" d="M957.51,-56.01C964.28,-58.28 970.98,-61.07 977,-64.5 1011.04,-83.88 1041.46,-118.74 1057.97,-139.84"/>
<polygon fill="#63b8ff" stroke="#63b8ff" points="1055.31,-142.12 1064.16,-147.95 1060.87,-137.88 1055.31,-142.12"/>
</g>
<!-- Node17&#45;&gt;Node7 -->
<g id="edge21" class="edge">
<title>Node17&#45;&gt;Node7</title>
<path fill="none" stroke="#63b8ff" d="M951.21,-15.91C960.24,-18.54 969.34,-22.26 977,-27.5 1018.97,-56.21 1048.89,-110.09 1062.6,-138.64"/>
<polygon fill="#63b8ff" stroke="#63b8ff" points="1059.52,-140.32 1066.91,-147.92 1065.87,-137.37 1059.52,-140.32"/>
</g>
<!-- Node18&#45;&gt;Node7 -->
<g id="edge23" class="edge">
<title>Node18&#45;&gt;Node7</title>
<path fill="none" stroke="#63b8ff" d="M947.29,-222.59C957.16,-219.83 967.61,-216.46 977,-212.5 1002.9,-201.58 1030.42,-184.79 1048.95,-172.64"/>
<polygon fill="#63b8ff" stroke="#63b8ff" points="1050.89,-175.55 1057.27,-167.09 1047.01,-169.72 1050.89,-175.55"/>
</g>
<!-- Node19&#45;&gt;Node7 -->
<g id="edge25" class="edge">
<title>Node19&#45;&gt;Node7</title>
<path fill="none" stroke="#63b8ff" d="M949.98,-184.97C971,-180.2 996.65,-174.38 1018.92,-169.32"/>
<polygon fill="#63b8ff" stroke="#63b8ff" points="1019.91,-172.69 1028.88,-167.06 1018.36,-165.86 1019.91,-172.69"/>
</g>
</g>
</svg>
        <g id="navigator" transform="translate(0 0)" fill="#404254">
                <rect fill="#f2f5e9" fill-opacity="0.5" stroke="#606060" stroke-width=".5" x="0" y="0" width="60" height="60"/>
                <use id="zoomplus" xlink:href="#zoomPlus" x="17" y="9" onmousedown="handleZoom(evt,'in')"/>
                <use id="zoomminus" xlink:href="#zoomMin" x="42" y="9" onmousedown="handleZoom(evt,'out')"/>
                <use id="reset" xlink:href="#resetDef" x="30" y="36" onmousedown="handleReset()"/>
                <g id="arrowUp" xlink:href="#dirArrow" transform="translate(30 24)" onmousedown="handlePan(0,-1)">
                  <use xlink:href="#rim" fill="#404040">
                        <set attributeName="fill" to="#808080" begin="arrowUp.mouseover" end="arrowUp.mouseout"/>
                  </use>
                  <path fill="none" stroke="white" stroke-width="1.5" d="M0,-3.0v7 M-2.5,-0.5L0,-3.0L2.5,-0.5"/>
                </g>
                <g id="arrowRight" xlink:href="#dirArrow" transform="rotate(90) translate(36 -43)" onmousedown="handlePan(1,0)">
                  <use xlink:href="#rim" fill="#404040">
                        <set attributeName="fill" to="#808080" begin="arrowRight.mouseover" end="arrowRight.mouseout"/>
                  </use>
                  <path fill="none" stroke="white" stroke-width="1.5" d="M0,-3.0v7 M-2.5,-0.5L0,-3.0L2.5,-0.5"/>
                </g>
                <g id="arrowDown" xlink:href="#dirArrow" transform="rotate(180) translate(-30 -48)" onmousedown="handlePan(0,1)">
                  <use xlink:href="#rim" fill="#404040">
                        <set attributeName="fill" to="#808080" begin="arrowDown.mouseover" end="arrowDown.mouseout"/>
                  </use>
                  <path fill="none" stroke="white" stroke-width="1.5" d="M0,-3.0v7 M-2.5,-0.5L0,-3.0L2.5,-0.5"/>
                </g>
                <g id="arrowLeft" xlink:href="#dirArrow" transform="rotate(270) translate(-36 17)" onmousedown="handlePan(-1,0)">
                  <use xlink:href="#rim" fill="#404040">
                        <set attributeName="fill" to="#808080" begin="arrowLeft.mouseover" end="arrowLeft.mouseout"/>
                  </use>
                  <path fill="none" stroke="white" stroke-width="1.5" d="M0,-3.0v7 M-2.5,-0.5L0,-3.0L2.5,-0.5"/>
                </g>
        </g>
        <svg viewBox="0 0 15 15" width="100%" height="30px" preserveAspectRatio="xMaxYMin meet">
         <g id="arrow_out" transform="scale(0.3 0.3)">
          <a xlink:href="GameManagement_8hpp_a522912d67446895b0a03d01837b75a99_cgraph_org.svg" target="_base">
           <rect id="button" ry="5" rx="5" y="6" x="6" height="38" width="38"
                fill="#f2f5e9" fill-opacity="0.5" stroke="#606060" stroke-width="1.0"/>
           <path id="arrow"
             d="M 11.500037,31.436501 C 11.940474,20.09759 22.043105,11.32322 32.158766,21.979434 L 37.068811,17.246167 C 37.068811,17.246167 37.088388,32 37.088388,32 L 22.160133,31.978069 C 22.160133,31.978069 26.997745,27.140456 26.997745,27.140456 C 18.528582,18.264221 13.291696,25.230495 11.500037,31.436501 z"
             style="fill:#404040;"/>
          </a>
         </g>
        </svg>
</svg>
