<?xml version="1.0" encoding="UTF-8" standalone="no"?>
<!DOCTYPE svg PUBLIC "-//W3C//DTD SVG 1.1//EN"
 "http://www.w3.org/Graphics/SVG/1.1/DTD/svg11.dtd">
<!-- Generated by graphviz version 2.43.0 (0)
 -->
<!-- Title: game/behaviors/player/PlayerCollisionBehavior.cpp Pages: 1 -->
<!--zoomable 445 -->
<svg id="main" version="1.1" xmlns="http://www.w3.org/2000/svg" xmlns:xlink="http://www.w3.org/1999/xlink" xml:space="preserve" onload="init(evt)">
<style type="text/css"><![CDATA[
.edge:hover path { stroke: red; }
.edge:hover polygon { stroke: red; fill: red; }
]]></style>
<script type="text/javascript"><![CDATA[
var edges = document.getElementsByTagName('g');
if (edges && edges.length) {
  for (var i=0;i<edges.length;i++) {
    if (edges[i].id.substr(0,4)=='edge') {
      edges[i].setAttribute('class','edge');
    }
  }
}
]]></script>
        <defs>
                <circle id="rim" cx="0" cy="0" r="7"/>
                <circle id="rim2" cx="0" cy="0" r="3.5"/>
                <g id="zoomPlus">
                        <use xlink:href="#rim" fill="#404040">
                                <set attributeName="fill" to="#808080" begin="zoomplus.mouseover" end="zoomplus.mouseout"/>
                        </use>
                        <path d="M-4,0h8M0,-4v8" fill="none" stroke="white" stroke-width="1.5" pointer-events="none"/>
                </g>
                <g id="zoomMin">
                        <use xlink:href="#rim" fill="#404040">
                                <set attributeName="fill" to="#808080" begin="zoomminus.mouseover" end="zoomminus.mouseout"/>
                        </use>
                        <path d="M-4,0h8" fill="none" stroke="white" stroke-width="1.5" pointer-events="none"/>
                </g>
                <g id="dirArrow">
                        <path fill="none" stroke="white" stroke-width="1.5" d="M0,-3.0v7 M-2.5,-0.5L0,-3.0L2.5,-0.5"/>
                </g>
               <g id="resetDef">
                       <use xlink:href="#rim2" fill="#404040">
                               <set attributeName="fill" to="#808080" begin="reset.mouseover" end="reset.mouseout"/>
                       </use>
               </g>
        </defs>

<script type="text/javascript">
var viewWidth = 862;
var viewHeight = 445;
var sectionId = 'dynsection-0';
</script>
<script xlink:href="../../svgpan.js"/>
<svg id="graph" class="graph">
<g id="viewport">
<title>game/behaviors/player/PlayerCollisionBehavior.cpp</title>
<!-- Node1 -->
<g id="node1" class="node">
<title>Node1</title>
<g id="a_node1"><a xlink:title=" ">
<polygon fill="#999999" stroke="#666666" points="394.5,-437 239.5,-437 239.5,-407 394.5,-407 394.5,-437"/>
<text text-anchor="start" x="247.5" y="-425" font-family="Helvetica,sans-Serif" font-size="10.00">game/behaviors/player</text>
<text text-anchor="middle" x="317" y="-414" font-family="Helvetica,sans-Serif" font-size="10.00">/PlayerCollisionBehavior.cpp</text>
</a>
</g>
</g>
<!-- Node2 -->
<g id="node2" class="node">
<title>Node2</title>
<g id="a_node2"><a xlink:href="../../db/d9e/PlayerCollisionBehavior_8hpp.html" target="_top" xlink:title=" ">
<polygon fill="white" stroke="#666666" points="170.5,-371 17.5,-371 17.5,-352 170.5,-352 170.5,-371"/>
<text text-anchor="middle" x="94" y="-359" font-family="Helvetica,sans-Serif" font-size="10.00">PlayerCollisionBehavior.hpp</text>
</a>
</g>
</g>
<!-- Node1&#45;&gt;Node2 -->
<g id="edge1" class="edge">
<title>Node1&#45;&gt;Node2</title>
<path fill="none" stroke="#63b8ff" d="M263.59,-406.99C224.6,-396.76 172.47,-383.09 136.35,-373.61"/>
<polygon fill="#63b8ff" stroke="#63b8ff" points="137.17,-370.21 126.61,-371.05 135.39,-376.98 137.17,-370.21"/>
</g>
<!-- Node11 -->
<g id="node11" class="node">
<title>Node11</title>
<g id="a_node11"><a xlink:title=" ">
<polygon fill="#e0e0e0" stroke="#999999" points="337,-79.5 279,-79.5 279,-60.5 337,-60.5 337,-79.5"/>
<text text-anchor="middle" x="308" y="-67.5" font-family="Helvetica,sans-Serif" font-size="10.00">memory</text>
</a>
</g>
</g>
<!-- Node1&#45;&gt;Node11 -->
<g id="edge27" class="edge">
<title>Node1&#45;&gt;Node11</title>
<path fill="none" stroke="#63b8ff" d="M288.78,-406.96C255.31,-388.09 204,-351.15 204,-302 204,-302 204,-302 204,-184.5 204,-155.04 204.82,-144.18 223,-121 236.19,-104.17 256.74,-91.87 274.33,-83.67"/>
<polygon fill="#63b8ff" stroke="#63b8ff" points="275.98,-86.77 283.73,-79.54 273.16,-80.36 275.98,-86.77"/>
</g>
<!-- Node14 -->
<g id="node14" class="node">
<title>Node14</title>
<g id="a_node14"><a xlink:href="../../d7/dd0/GameManagement_8hpp.html" target="_top" xlink:title=" ">
<polygon fill="white" stroke="#666666" points="509,-195 315,-195 315,-176 509,-176 509,-195"/>
<text text-anchor="middle" x="412" y="-183" font-family="Helvetica,sans-Serif" font-size="10.00">../../../engine/GameManagement.hpp</text>
</a>
</g>
</g>
<!-- Node1&#45;&gt;Node14 -->
<g id="edge14" class="edge">
<title>Node1&#45;&gt;Node14</title>
<path fill="none" stroke="#63b8ff" d="M302.83,-406.78C279.62,-381.68 238.26,-328.22 261,-286 285.09,-241.28 339.04,-213.34 375.49,-198.84"/>
<polygon fill="#63b8ff" stroke="#63b8ff" points="377.17,-201.94 385.26,-195.1 374.67,-195.4 377.17,-201.94"/>
</g>
<!-- Node17 -->
<g id="node17" class="node">
<title>Node17</title>
<g id="a_node17"><a xlink:href="../../d5/d6d/GravityBehavior_8hpp.html" target="_top" xlink:title=" ">
<polygon fill="white" stroke="#666666" points="440,-316 270,-316 270,-286 440,-286 440,-316"/>
<text text-anchor="start" x="278" y="-304" font-family="Helvetica,sans-Serif" font-size="10.00">../../../engine/components</text>
<text text-anchor="middle" x="355" y="-293" font-family="Helvetica,sans-Serif" font-size="10.00">/behaviors/GravityBehavior.hpp</text>
</a>
</g>
</g>
<!-- Node1&#45;&gt;Node17 -->
<g id="edge20" class="edge">
<title>Node1&#45;&gt;Node17</title>
<path fill="none" stroke="#63b8ff" d="M320.8,-406.91C324.65,-392.91 330.88,-370.86 337,-352 339.79,-343.39 343.09,-334.04 346.09,-325.77"/>
<polygon fill="#63b8ff" stroke="#63b8ff" points="349.39,-326.95 349.56,-316.36 342.82,-324.53 349.39,-326.95"/>
</g>
<!-- Node18 -->
<g id="node18" class="node">
<title>Node18</title>
<g id="a_node18"><a xlink:href="../../d3/d67/Lifecycle_8hpp.html" target="_top" xlink:title=" ">
<polygon fill="white" stroke="#666666" points="444.5,-371 345.5,-371 345.5,-352 444.5,-352 444.5,-371"/>
<text text-anchor="middle" x="395" y="-359" font-family="Helvetica,sans-Serif" font-size="10.00">../../Lifecycle.hpp</text>
</a>
</g>
</g>
<!-- Node1&#45;&gt;Node18 -->
<g id="edge22" class="edge">
<title>Node1&#45;&gt;Node18</title>
<path fill="none" stroke="#63b8ff" d="M335.88,-406.84C347.78,-397.91 363.12,-386.41 375.2,-377.35"/>
<polygon fill="#63b8ff" stroke="#63b8ff" points="377.41,-380.07 383.31,-371.27 373.21,-374.47 377.41,-380.07"/>
</g>
<!-- Node19 -->
<g id="node19" class="node">
<title>Node19</title>
<g id="a_node19"><a xlink:href="../../d4/d09/CoffeeMeterBehavior_8hpp.html" target="_top" xlink:title=" ">
<polygon fill="white" stroke="#666666" points="605.5,-316 458.5,-316 458.5,-286 605.5,-286 605.5,-316"/>
<text text-anchor="start" x="466.5" y="-304" font-family="Helvetica,sans-Serif" font-size="10.00">../coffeeMeter/CoffeeMeter</text>
<text text-anchor="middle" x="532" y="-293" font-family="Helvetica,sans-Serif" font-size="10.00">Behavior.hpp</text>
</a>
</g>
</g>
<!-- Node1&#45;&gt;Node19 -->
<g id="edge23" class="edge">
<title>Node1&#45;&gt;Node19</title>
<path fill="none" stroke="#63b8ff" d="M369.48,-406.92C395.9,-398.6 427.79,-386.61 454,-371 475.83,-358 497.19,-338.49 512.03,-323.52"/>
<polygon fill="#63b8ff" stroke="#63b8ff" points="514.71,-325.79 519.16,-316.17 509.68,-320.91 514.71,-325.79"/>
</g>
<!-- Node20 -->
<g id="node20" class="node">
<title>Node20</title>
<g id="a_node20"><a xlink:href="../../dd/da3/PlayerBehavior_8hpp.html" target="_top" xlink:title=" ">
<polygon fill="white" stroke="#666666" points="665.5,-371 554.5,-371 554.5,-352 665.5,-352 665.5,-371"/>
<text text-anchor="middle" x="610" y="-359" font-family="Helvetica,sans-Serif" font-size="10.00">PlayerBehavior.hpp</text>
</a>
</g>
</g>
<!-- Node1&#45;&gt;Node20 -->
<g id="edge25" class="edge">
<title>Node1&#45;&gt;Node20</title>
<path fill="none" stroke="#63b8ff" d="M387.18,-406.99C439.39,-396.56 509.54,-382.56 557.08,-373.07"/>
<polygon fill="#63b8ff" stroke="#63b8ff" points="558.04,-376.44 567.16,-371.05 556.67,-369.58 558.04,-376.44"/>
</g>
<!-- Node3 -->
<g id="node3" class="node">
<title>Node3</title>
<g id="a_node3"><a xlink:href="../../dc/d19/CollisionBehavior_8hpp.html" target="_top" xlink:title=" ">
<polygon fill="white" stroke="#666666" points="176,-316 0,-316 0,-286 176,-286 176,-316"/>
<text text-anchor="start" x="8" y="-304" font-family="Helvetica,sans-Serif" font-size="10.00">../../../engine/components</text>
<text text-anchor="middle" x="88" y="-293" font-family="Helvetica,sans-Serif" font-size="10.00">/behaviors/CollisionBehavior.hpp</text>
</a>
</g>
</g>
<!-- Node2&#45;&gt;Node3 -->
<g id="edge2" class="edge">
<title>Node2&#45;&gt;Node3</title>
<path fill="none" stroke="#63b8ff" d="M93.11,-351.87C92.42,-345.11 91.42,-335.35 90.49,-326.26"/>
<polygon fill="#63b8ff" stroke="#63b8ff" points="93.95,-325.71 89.45,-316.11 86.99,-326.42 93.95,-325.71"/>
</g>
<!-- Node4 -->
<g id="node4" class="node">
<title>Node4</title>
<g id="a_node4"><a xlink:href="../../d4/d8e/Behavior_8hpp.html" target="_top" xlink:title=" ">
<polygon fill="white" stroke="#666666" points="572,-250 492,-250 492,-231 572,-231 572,-250"/>
<text text-anchor="middle" x="532" y="-238" font-family="Helvetica,sans-Serif" font-size="10.00">Behavior.hpp</text>
</a>
</g>
</g>
<!-- Node3&#45;&gt;Node4 -->
<g id="edge3" class="edge">
<title>Node3&#45;&gt;Node4</title>
<path fill="none" stroke="#63b8ff" d="M176.25,-288.37C267.79,-276.31 407.71,-257.88 481.85,-248.11"/>
<polygon fill="#63b8ff" stroke="#63b8ff" points="482.4,-251.57 491.86,-246.79 481.49,-244.63 482.4,-251.57"/>
</g>
<!-- Node3&#45;&gt;Node11 -->
<g id="edge13" class="edge">
<title>Node3&#45;&gt;Node11</title>
<path fill="none" stroke="#63b8ff" d="M92.49,-285.88C103.71,-252.7 136.01,-169.01 190,-121 212.5,-100.99 244.2,-88.16 269.07,-80.51"/>
<polygon fill="#63b8ff" stroke="#63b8ff" points="270.3,-83.8 278.92,-77.64 268.34,-77.08 270.3,-83.8"/>
</g>
<!-- Node5 -->
<g id="node5" class="node">
<title>Node5</title>
<g id="a_node5"><a xlink:href="../../d2/d69/GameObjectComponent_8hpp.html" target="_top" xlink:title=" ">
<polygon fill="white" stroke="#666666" points="694,-195 530,-195 530,-176 694,-176 694,-195"/>
<text text-anchor="middle" x="612" y="-183" font-family="Helvetica,sans-Serif" font-size="10.00">../GameObjectComponent.hpp</text>
</a>
</g>
</g>
<!-- Node4&#45;&gt;Node5 -->
<g id="edge4" class="edge">
<title>Node4&#45;&gt;Node5</title>
<path fill="none" stroke="#63b8ff" d="M544.85,-230.98C557.14,-222.84 575.91,-210.41 590.48,-200.76"/>
<polygon fill="#63b8ff" stroke="#63b8ff" points="592.51,-203.61 598.91,-195.17 588.64,-197.78 592.51,-203.61"/>
</g>
<!-- Node6 -->
<g id="node6" class="node">
<title>Node6</title>
<g id="a_node6"><a xlink:title=" ">
<polygon fill="#e0e0e0" stroke="#999999" points="736.5,-140 683.5,-140 683.5,-121 736.5,-121 736.5,-140"/>
<text text-anchor="middle" x="710" y="-128" font-family="Helvetica,sans-Serif" font-size="10.00">cstddef</text>
</a>
</g>
</g>
<!-- Node5&#45;&gt;Node6 -->
<g id="edge5" class="edge">
<title>Node5&#45;&gt;Node6</title>
<path fill="none" stroke="#63b8ff" d="M627.75,-175.98C643.23,-167.61 667.09,-154.7 685.14,-144.95"/>
<polygon fill="#63b8ff" stroke="#63b8ff" points="686.84,-148.01 693.97,-140.17 683.51,-141.85 686.84,-148.01"/>
</g>
<!-- Node7 -->
<g id="node7" class="node">
<title>Node7</title>
<g id="a_node7"><a xlink:href="../../d4/db5/GameObject_8hpp.html" target="_top" xlink:title=" ">
<polygon fill="white" stroke="#666666" points="665.5,-140 558.5,-140 558.5,-121 665.5,-121 665.5,-140"/>
<text text-anchor="middle" x="612" y="-128" font-family="Helvetica,sans-Serif" font-size="10.00">../GameObject.hpp</text>
</a>
</g>
</g>
<!-- Node5&#45;&gt;Node7 -->
<g id="edge6" class="edge">
<title>Node5&#45;&gt;Node7</title>
<path fill="none" stroke="#63b8ff" d="M612,-175.75C612,-168.8 612,-158.85 612,-150.13"/>
<polygon fill="#63b8ff" stroke="#63b8ff" points="615.5,-150.09 612,-140.09 608.5,-150.09 615.5,-150.09"/>
</g>
<!-- Node8 -->
<g id="node8" class="node">
<title>Node8</title>
<g id="a_node8"><a xlink:href="../../d9/d4a/Vector2_8hpp.html" target="_top" xlink:title=" ">
<polygon fill="white" stroke="#666666" points="854,-79.5 780,-79.5 780,-60.5 854,-60.5 854,-79.5"/>
<text text-anchor="middle" x="817" y="-67.5" font-family="Helvetica,sans-Serif" font-size="10.00">Vector2.hpp</text>
</a>
</g>
</g>
<!-- Node7&#45;&gt;Node8 -->
<g id="edge7" class="edge">
<title>Node7&#45;&gt;Node8</title>
<path fill="none" stroke="#63b8ff" d="M643.44,-120.93C675.55,-112.12 726.84,-97.9 771,-85 773.78,-84.19 776.65,-83.34 779.54,-82.48"/>
<polygon fill="#63b8ff" stroke="#63b8ff" points="780.73,-85.77 789.3,-79.54 778.72,-79.07 780.73,-85.77"/>
</g>
<!-- Node9 -->
<g id="node9" class="node">
<title>Node9</title>
<g id="a_node9"><a xlink:href="../../d4/d71/ComponentNotFoundException_8hpp.html" target="_top" xlink:title=" ">
<polygon fill="white" stroke="#666666" points="700,-85 524,-85 524,-55 700,-55 700,-85"/>
<text text-anchor="start" x="532" y="-73" font-family="Helvetica,sans-Serif" font-size="10.00">exceptions/ComponentNotFound</text>
<text text-anchor="middle" x="612" y="-62" font-family="Helvetica,sans-Serif" font-size="10.00">Exception.hpp</text>
</a>
</g>
</g>
<!-- Node7&#45;&gt;Node9 -->
<g id="edge8" class="edge">
<title>Node7&#45;&gt;Node9</title>
<path fill="none" stroke="#63b8ff" d="M612,-120.87C612,-114.11 612,-104.35 612,-95.26"/>
<polygon fill="#63b8ff" stroke="#63b8ff" points="615.5,-95.11 612,-85.11 608.5,-95.11 615.5,-95.11"/>
</g>
<!-- Node7&#45;&gt;Node11 -->
<g id="edge10" class="edge">
<title>Node7&#45;&gt;Node11</title>
<path fill="none" stroke="#63b8ff" d="M567.8,-120.99C508.42,-109.57 403.83,-89.44 347.16,-78.54"/>
<polygon fill="#63b8ff" stroke="#63b8ff" points="347.64,-75.06 337.15,-76.61 346.31,-81.94 347.64,-75.06"/>
</g>
<!-- Node12 -->
<g id="node12" class="node">
<title>Node12</title>
<g id="a_node12"><a xlink:title=" ">
<polygon fill="#e0e0e0" stroke="#999999" points="762,-79.5 718,-79.5 718,-60.5 762,-60.5 762,-79.5"/>
<text text-anchor="middle" x="740" y="-67.5" font-family="Helvetica,sans-Serif" font-size="10.00">string</text>
</a>
</g>
</g>
<!-- Node7&#45;&gt;Node12 -->
<g id="edge11" class="edge">
<title>Node7&#45;&gt;Node12</title>
<path fill="none" stroke="#63b8ff" d="M630.61,-120.99C652.04,-111.2 687.44,-95.02 712.15,-83.73"/>
<polygon fill="#63b8ff" stroke="#63b8ff" points="713.72,-86.86 721.37,-79.52 710.82,-80.49 713.72,-86.86"/>
</g>
<!-- Node13 -->
<g id="node13" class="node">
<title>Node13</title>
<g id="a_node13"><a xlink:title=" ">
<polygon fill="#e0e0e0" stroke="#999999" points="505.5,-79.5 458.5,-79.5 458.5,-60.5 505.5,-60.5 505.5,-79.5"/>
<text text-anchor="middle" x="482" y="-67.5" font-family="Helvetica,sans-Serif" font-size="10.00">vector</text>
</a>
</g>
</g>
<!-- Node7&#45;&gt;Node13 -->
<g id="edge12" class="edge">
<title>Node7&#45;&gt;Node13</title>
<path fill="none" stroke="#63b8ff" d="M593.1,-120.99C571.34,-111.2 535.38,-95.02 510.29,-83.73"/>
<polygon fill="#63b8ff" stroke="#63b8ff" points="511.48,-80.43 500.93,-79.52 508.61,-86.81 511.48,-80.43"/>
</g>
<!-- Node10 -->
<g id="node10" class="node">
<title>Node10</title>
<g id="a_node10"><a xlink:title=" ">
<polygon fill="#e0e0e0" stroke="#999999" points="644.5,-19 579.5,-19 579.5,0 644.5,0 644.5,-19"/>
<text text-anchor="middle" x="612" y="-7" font-family="Helvetica,sans-Serif" font-size="10.00">exception</text>
</a>
</g>
</g>
<!-- Node9&#45;&gt;Node10 -->
<g id="edge9" class="edge">
<title>Node9&#45;&gt;Node10</title>
<path fill="none" stroke="#63b8ff" d="M612,-54.84C612,-47.21 612,-37.7 612,-29.45"/>
<polygon fill="#63b8ff" stroke="#63b8ff" points="615.5,-29.27 612,-19.27 608.5,-29.27 615.5,-29.27"/>
</g>
<!-- Node14&#45;&gt;Node7 -->
<g id="edge15" class="edge">
<title>Node14&#45;&gt;Node7</title>
<path fill="none" stroke="#63b8ff" d="M444.13,-175.98C478.15,-166.97 532,-152.7 569.5,-142.76"/>
<polygon fill="#63b8ff" stroke="#63b8ff" points="570.84,-146.03 579.61,-140.08 569.05,-139.26 570.84,-146.03"/>
</g>
<!-- Node14&#45;&gt;Node11 -->
<g id="edge18" class="edge">
<title>Node14&#45;&gt;Node11</title>
<path fill="none" stroke="#63b8ff" d="M431.24,-175.9C454.58,-164.27 488.94,-142.49 473,-121 444.31,-82.33 386.52,-72.51 347.53,-70.56"/>
<polygon fill="#63b8ff" stroke="#63b8ff" points="347.19,-67.05 337.07,-70.2 346.95,-74.04 347.19,-67.05"/>
</g>
<!-- Node14&#45;&gt;Node13 -->
<g id="edge19" class="edge">
<title>Node14&#45;&gt;Node13</title>
<path fill="none" stroke="#63b8ff" d="M452.62,-175.99C472.32,-169.59 494.22,-158.61 506,-140 516.34,-123.67 505.87,-102.33 495.69,-87.74"/>
<polygon fill="#63b8ff" stroke="#63b8ff" points="498.4,-85.51 489.59,-79.62 492.81,-89.72 498.4,-85.51"/>
</g>
<!-- Node15 -->
<g id="node15" class="node">
<title>Node15</title>
<g id="a_node15"><a xlink:title=" ">
<polygon fill="#e0e0e0" stroke="#999999" points="338,-140 232,-140 232,-121 338,-121 338,-140"/>
<text text-anchor="middle" x="285" y="-128" font-family="Helvetica,sans-Serif" font-size="10.00">SDL3/SDL_pixels.h</text>
</a>
</g>
</g>
<!-- Node14&#45;&gt;Node15 -->
<g id="edge16" class="edge">
<title>Node14&#45;&gt;Node15</title>
<path fill="none" stroke="#63b8ff" d="M391.6,-175.98C370.98,-167.38 338.89,-153.99 315.31,-144.15"/>
<polygon fill="#63b8ff" stroke="#63b8ff" points="316.35,-140.79 305.78,-140.17 313.66,-147.25 316.35,-140.79"/>
</g>
<!-- Node16 -->
<g id="node16" class="node">
<title>Node16</title>
<g id="a_node16"><a xlink:title=" ">
<polygon fill="#e0e0e0" stroke="#999999" points="464,-140 356,-140 356,-121 464,-121 464,-140"/>
<text text-anchor="middle" x="410" y="-128" font-family="Helvetica,sans-Serif" font-size="10.00">SDL3/SDL_render.h</text>
</a>
</g>
</g>
<!-- Node14&#45;&gt;Node16 -->
<g id="edge17" class="edge">
<title>Node14&#45;&gt;Node16</title>
<path fill="none" stroke="#63b8ff" d="M411.67,-175.75C411.41,-168.8 411.03,-158.85 410.7,-150.13"/>
<polygon fill="#63b8ff" stroke="#63b8ff" points="414.2,-149.95 410.32,-140.09 407.2,-150.21 414.2,-149.95"/>
</g>
<!-- Node17&#45;&gt;Node4 -->
<g id="edge21" class="edge">
<title>Node17&#45;&gt;Node4</title>
<path fill="none" stroke="#63b8ff" d="M397.4,-285.99C427.68,-275.98 467.95,-262.67 496.53,-253.22"/>
<polygon fill="#63b8ff" stroke="#63b8ff" points="497.72,-256.52 506.12,-250.05 495.53,-249.87 497.72,-256.52"/>
</g>
<!-- Node19&#45;&gt;Node4 -->
<g id="edge24" class="edge">
<title>Node19&#45;&gt;Node4</title>
<path fill="none" stroke="#63b8ff" d="M532,-285.84C532,-278.21 532,-268.7 532,-260.45"/>
<polygon fill="#63b8ff" stroke="#63b8ff" points="535.5,-260.27 532,-250.27 528.5,-260.27 535.5,-260.27"/>
</g>
<!-- Node20&#45;&gt;Node4 -->
<g id="edge26" class="edge">
<title>Node20&#45;&gt;Node4</title>
<path fill="none" stroke="#63b8ff" d="M613.52,-351.95C618.95,-337.29 627.52,-306.91 615,-286 606.03,-271.01 590.09,-260.78 574.57,-253.95"/>
<polygon fill="#63b8ff" stroke="#63b8ff" points="575.6,-250.6 565.02,-250.13 573,-257.1 575.6,-250.6"/>
</g>
</g>
</svg>
        <g id="navigator" transform="translate(0 0)" fill="#404254">
                <rect fill="#f2f5e9" fill-opacity="0.5" stroke="#606060" stroke-width=".5" x="0" y="0" width="60" height="60"/>
                <use id="zoomplus" xlink:href="#zoomPlus" x="17" y="9" onmousedown="handleZoom(evt,'in')"/>
                <use id="zoomminus" xlink:href="#zoomMin" x="42" y="9" onmousedown="handleZoom(evt,'out')"/>
                <use id="reset" xlink:href="#resetDef" x="30" y="36" onmousedown="handleReset()"/>
                <g id="arrowUp" xlink:href="#dirArrow" transform="translate(30 24)" onmousedown="handlePan(0,-1)">
                  <use xlink:href="#rim" fill="#404040">
                        <set attributeName="fill" to="#808080" begin="arrowUp.mouseover" end="arrowUp.mouseout"/>
                  </use>
                  <path fill="none" stroke="white" stroke-width="1.5" d="M0,-3.0v7 M-2.5,-0.5L0,-3.0L2.5,-0.5"/>
                </g>
                <g id="arrowRight" xlink:href="#dirArrow" transform="rotate(90) translate(36 -43)" onmousedown="handlePan(1,0)">
                  <use xlink:href="#rim" fill="#404040">
                        <set attributeName="fill" to="#808080" begin="arrowRight.mouseover" end="arrowRight.mouseout"/>
                  </use>
                  <path fill="none" stroke="white" stroke-width="1.5" d="M0,-3.0v7 M-2.5,-0.5L0,-3.0L2.5,-0.5"/>
                </g>
                <g id="arrowDown" xlink:href="#dirArrow" transform="rotate(180) translate(-30 -48)" onmousedown="handlePan(0,1)">
                  <use xlink:href="#rim" fill="#404040">
                        <set attributeName="fill" to="#808080" begin="arrowDown.mouseover" end="arrowDown.mouseout"/>
                  </use>
                  <path fill="none" stroke="white" stroke-width="1.5" d="M0,-3.0v7 M-2.5,-0.5L0,-3.0L2.5,-0.5"/>
                </g>
                <g id="arrowLeft" xlink:href="#dirArrow" transform="rotate(270) translate(-36 17)" onmousedown="handlePan(-1,0)">
                  <use xlink:href="#rim" fill="#404040">
                        <set attributeName="fill" to="#808080" begin="arrowLeft.mouseover" end="arrowLeft.mouseout"/>
                  </use>
                  <path fill="none" stroke="white" stroke-width="1.5" d="M0,-3.0v7 M-2.5,-0.5L0,-3.0L2.5,-0.5"/>
                </g>
        </g>
        <svg viewBox="0 0 15 15" width="100%" height="30px" preserveAspectRatio="xMaxYMin meet">
         <g id="arrow_out" transform="scale(0.3 0.3)">
          <a xlink:href="PlayerCollisionBehavior_8cpp__incl_org.svg" target="_base">
           <rect id="button" ry="5" rx="5" y="6" x="6" height="38" width="38"
                fill="#f2f5e9" fill-opacity="0.5" stroke="#606060" stroke-width="1.0"/>
           <path id="arrow"
             d="M 11.500037,31.436501 C 11.940474,20.09759 22.043105,11.32322 32.158766,21.979434 L 37.068811,17.246167 C 37.068811,17.246167 37.088388,32 37.088388,32 L 22.160133,31.978069 C 22.160133,31.978069 26.997745,27.140456 26.997745,27.140456 C 18.528582,18.264221 13.291696,25.230495 11.500037,31.436501 z"
             style="fill:#404040;"/>
          </a>
         </g>
        </svg>
</svg>
