<?xml version="1.0" encoding="UTF-8" standalone="no"?>
<!DOCTYPE svg PUBLIC "-//W3C//DTD SVG 1.1//EN"
 "http://www.w3.org/Graphics/SVG/1.1/DTD/svg11.dtd">
<!-- Generated by graphviz version 2.43.0 (0)
 -->
<!-- Title: RectangleRenderer::OnStart Pages: 1 -->
<svg width="298pt" height="64pt"
 viewBox="0.00 0.00 298.00 64.00" xmlns="http://www.w3.org/2000/svg" xmlns:xlink="http://www.w3.org/1999/xlink">
<g id="graph0" class="graph" transform="scale(1 1) rotate(0) translate(4 60)">
<title>RectangleRenderer::OnStart</title>
<!-- Node1 -->
<g id="node1" class="node">
<title>Node1</title>
<g id="a_node1"><a xlink:title=" ">
<polygon fill="#999999" stroke="#666666" points="116,-42.5 0,-42.5 0,-12.5 116,-12.5 116,-42.5"/>
<text text-anchor="start" x="8" y="-30.5" font-family="Helvetica,sans-Serif" font-size="10.00">RectangleRenderer::</text>
<text text-anchor="middle" x="58" y="-19.5" font-family="Helvetica,sans-Serif" font-size="10.00">OnStart</text>
</a>
</g>
</g>
<!-- Node2 -->
<g id="node2" class="node">
<title>Node2</title>
<g id="a_node2"><a xlink:href="../../de/d1c/classGameObject.html#a42b10b3fba8be162e913bd8191a22adb" target="_top" xlink:title=" ">
<polygon fill="white" stroke="#666666" points="290,-56 152,-56 152,-37 290,-37 290,-56"/>
<text text-anchor="middle" x="221" y="-44" font-family="Helvetica,sans-Serif" font-size="10.00">GameObject::getPosition</text>
</a>
</g>
</g>
<!-- Node1&#45;&gt;Node2 -->
<g id="edge1" class="edge">
<title>Node1&#45;&gt;Node2</title>
<path fill="none" stroke="#63b8ff" d="M116.22,-34.25C124.53,-35.23 133.21,-36.26 141.85,-37.28"/>
<polygon fill="#63b8ff" stroke="#63b8ff" points="141.61,-40.77 151.95,-38.47 142.43,-33.82 141.61,-40.77"/>
</g>
<!-- Node3 -->
<g id="node3" class="node">
<title>Node3</title>
<g id="a_node3"><a xlink:href="../../de/d1c/classGameObject.html#ac5a8d55bc377ba17093f3070ad4cb1e7" target="_top" xlink:title=" ">
<polygon fill="white" stroke="#666666" points="283.5,-19 158.5,-19 158.5,0 283.5,0 283.5,-19"/>
<text text-anchor="middle" x="221" y="-7" font-family="Helvetica,sans-Serif" font-size="10.00">GameObject::getScale</text>
</a>
</g>
</g>
<!-- Node1&#45;&gt;Node3 -->
<g id="edge2" class="edge">
<title>Node1&#45;&gt;Node3</title>
<path fill="none" stroke="#63b8ff" d="M116.22,-21.1C126.56,-19.95 137.46,-18.73 148.16,-17.53"/>
<polygon fill="#63b8ff" stroke="#63b8ff" points="148.78,-20.98 158.33,-16.4 148,-14.03 148.78,-20.98"/>
</g>
</g>
</svg>
