<?xml version="1.0" encoding="UTF-8" standalone="no"?>
<!DOCTYPE svg PUBLIC "-//W3C//DTD SVG 1.1//EN"
 "http://www.w3.org/Graphics/SVG/1.1/DTD/svg11.dtd">
<!-- Generated by graphviz version 2.43.0 (0)
 -->
<!-- Title: EnemyBehavior Pages: 1 -->
<svg width="203pt" height="353pt"
 viewBox="0.00 0.00 203.00 353.00" xmlns="http://www.w3.org/2000/svg" xmlns:xlink="http://www.w3.org/1999/xlink">
<g id="graph0" class="graph" transform="scale(1 1) rotate(0) translate(4 349)">
<title>EnemyBehavior</title>
<!-- Node1 -->
<g id="node1" class="node">
<title>Node1</title>
<g id="a_node1"><a xlink:title=" ">
<polygon fill="#999999" stroke="#666666" points="27.5,-0.5 27.5,-68.5 167.5,-68.5 167.5,-0.5 27.5,-0.5"/>
<text text-anchor="middle" x="97.5" y="-56.5" font-family="Helvetica,sans-Serif" font-size="10.00">EnemyBehavior</text>
<polyline fill="none" stroke="#666666" points="27.5,-49.5 167.5,-49.5 "/>
<text text-anchor="middle" x="97.5" y="-37.5" font-family="Helvetica,sans-Serif" font-size="10.00"> </text>
<polyline fill="none" stroke="#666666" points="27.5,-30.5 167.5,-30.5 "/>
<text text-anchor="start" x="35.5" y="-18.5" font-family="Helvetica,sans-Serif" font-size="10.00">+ void OnTick() override</text>
<text text-anchor="start" x="35.5" y="-7.5" font-family="Helvetica,sans-Serif" font-size="10.00">+ void OnStart() override</text>
</a>
</g>
</g>
<!-- Node2 -->
<g id="node2" class="node">
<title>Node2</title>
<g id="a_node2"><a xlink:href="../../df/dc1/classBehavior.html" target="_top" xlink:title="An abstract gameobject behavior.">
<polygon fill="white" stroke="#666666" points="67.5,-105.5 67.5,-162.5 127.5,-162.5 127.5,-105.5 67.5,-105.5"/>
<text text-anchor="middle" x="97.5" y="-150.5" font-family="Helvetica,sans-Serif" font-size="10.00">Behavior</text>
<polyline fill="none" stroke="#666666" points="67.5,-143.5 127.5,-143.5 "/>
<text text-anchor="middle" x="97.5" y="-131.5" font-family="Helvetica,sans-Serif" font-size="10.00"> </text>
<polyline fill="none" stroke="#666666" points="67.5,-124.5 127.5,-124.5 "/>
<text text-anchor="middle" x="97.5" y="-112.5" font-family="Helvetica,sans-Serif" font-size="10.00"> </text>
</a>
</g>
</g>
<!-- Node2&#45;&gt;Node1 -->
<g id="edge1" class="edge">
<title>Node2&#45;&gt;Node1</title>
<path fill="none" stroke="#63b8ff" d="M97.5,-95.06C97.5,-86.39 97.5,-77.24 97.5,-68.79"/>
<polygon fill="none" stroke="#63b8ff" points="94,-95.32 97.5,-105.32 101,-95.32 94,-95.32"/>
</g>
<!-- Node3 -->
<g id="node3" class="node">
<title>Node3</title>
<g id="a_node3"><a xlink:href="../../d9/df7/classGameObjectComponent.html" target="_top" xlink:title="An abstract gameobject component.">
<polygon fill="white" stroke="#666666" points="0,-199.5 0,-344.5 195,-344.5 195,-199.5 0,-199.5"/>
<text text-anchor="middle" x="97.5" y="-332.5" font-family="Helvetica,sans-Serif" font-size="10.00">GameObjectComponent</text>
<polyline fill="none" stroke="#666666" points="0,-325.5 195,-325.5 "/>
<text text-anchor="start" x="8" y="-313.5" font-family="Helvetica,sans-Serif" font-size="10.00"># bool enabled</text>
<text text-anchor="start" x="8" y="-302.5" font-family="Helvetica,sans-Serif" font-size="10.00"># GameObject * parent</text>
<polyline fill="none" stroke="#666666" points="0,-295.5 195,-295.5 "/>
<text text-anchor="start" x="8" y="-283.5" font-family="Helvetica,sans-Serif" font-size="10.00">+ bool getEnabled() const</text>
<text text-anchor="start" x="8" y="-272.5" font-family="Helvetica,sans-Serif" font-size="10.00">+ void setEnabled(bool</text>
<text text-anchor="start" x="8" y="-261.5" font-family="Helvetica,sans-Serif" font-size="10.00"> value)</text>
<text text-anchor="start" x="8" y="-250.5" font-family="Helvetica,sans-Serif" font-size="10.00">+ void setParent(GameObject</text>
<text text-anchor="start" x="8" y="-239.5" font-family="Helvetica,sans-Serif" font-size="10.00"> *value)</text>
<text text-anchor="start" x="8" y="-228.5" font-family="Helvetica,sans-Serif" font-size="10.00">+ virtual ~GameObjectComponent()</text>
<text text-anchor="start" x="8" y="-217.5" font-family="Helvetica,sans-Serif" font-size="10.00">+ virtual void OnTick()=0</text>
<text text-anchor="start" x="8" y="-206.5" font-family="Helvetica,sans-Serif" font-size="10.00">+ virtual void OnStart()=0</text>
</a>
</g>
</g>
<!-- Node3&#45;&gt;Node2 -->
<g id="edge2" class="edge">
<title>Node3&#45;&gt;Node2</title>
<path fill="none" stroke="#63b8ff" d="M97.5,-189.39C97.5,-179.86 97.5,-170.71 97.5,-162.71"/>
<polygon fill="none" stroke="#63b8ff" points="94,-189.42 97.5,-199.42 101,-189.42 94,-189.42"/>
</g>
</g>
</svg>
