<?xml version="1.0" encoding="UTF-8" standalone="no"?>
<!DOCTYPE svg PUBLIC "-//W3C//DTD SVG 1.1//EN"
 "http://www.w3.org/Graphics/SVG/1.1/DTD/svg11.dtd">
<!-- Generated by graphviz version 2.43.0 (0)
 -->
<!-- Title: GetRandomInt Pages: 1 -->
<!--zoomable 136 -->

<svg id="main" version="1.1" xmlns="http://www.w3.org/2000/svg" xmlns:xlink="http://www.w3.org/1999/xlink" xml:space="preserve" onload="init(evt)">

<style type="text/css"><![CDATA[
.node, .edge {opacity: 0.7;}
.node.selected, .edge.selected {opacity: 1;}
.edge:hover path { stroke: red; }
.edge:hover polygon { stroke: red; fill: red; }
]]></style>

<defs>
  <circle id="rim" cx="0" cy="0" r="7"/>
  <circle id="rim2" cx="0" cy="0" r="3.5"/>
  <g id="zoomPlus">
    <use xlink:href="#rim" fill="#404040"><set attributeName="fill" to="#808080" begin="zoomplus.mouseover" end="zoomplus.mouseout"/></use>
    <path d="M-4,0h8M0,-4v8" fill="none" stroke="white" stroke-width="1.5" pointer-events="none"/>
  </g>
  <g id="zoomMin">
    <use xlink:href="#rim" fill="#404040"><set attributeName="fill" to="#808080" begin="zoomminus.mouseover" end="zoomminus.mouseout"/></use>
    <path d="M-4,0h8" fill="none" stroke="white" stroke-width="1.5" pointer-events="none"/>
  </g>
  <g id="arrowUp" transform="translate(30 24)">
    <use xlink:href="#rim"/>
    <path pointer-events="none" fill="none" stroke="white" stroke-width="1.5" d="M0,-3.0v7 M-2.5,-0.5L0,-3.0L2.5,-0.5"/>
  </g>
  <g id="arrowRight" transform="rotate(90) translate(36 -43)">
    <use xlink:href="#rim"/>
    <path pointer-events="none" fill="none" stroke="white" stroke-width="1.5" d="M0,-3.0v7 M-2.5,-0.5L0,-3.0L2.5,-0.5"/>
  </g>
  <g id="arrowDown" transform="rotate(180) translate(-30 -48)">
    <use xlink:href="#rim"/>
    <path pointer-events="none" fill="none" stroke="white" stroke-width="1.5" d="M0,-3.0v7 M-2.5,-0.5L0,-3.0L2.5,-0.5"/>
  </g>
  <g id="arrowLeft" transform="rotate(270) translate(-36 17)">
    <use xlink:href="#rim"/>
    <path pointer-events="none" fill="none" stroke="white" stroke-width="1.5" d="M0,-3.0v7 M-2.5,-0.5L0,-3.0L2.5,-0.5"/>
  </g>
  <g id="resetDef">
    <use xlink:href="#rim2" fill="#404040"><set attributeName="fill" to="#808080" begin="reset.mouseover" end="reset.mouseout"/></use>
  </g>
</defs>
<script type="application/ecmascript">
var viewWidth = 622;
var viewHeight = 136;
var sectionId = 'dynsection-2';
</script>
<script type="application/ecmascript" xlink:href="../../svg.min.js"/>
<svg id="graph" class="graph">
<g id="viewport">
<title>GetRandomInt</title>
<!-- Node1 -->
<g id="Node000001" class="node">
<title>Node1</title>
<g id="a_Node000001"><a xlink:title="Generate a random integer in bounds.">
<polygon fill="#999999" stroke="#666666" points="614,-23.52 527,-23.52 527,-4.52 614,-4.52 614,-23.52"/>
<text text-anchor="middle" x="570.5" y="-11.52" font-family="Helvetica,sans-Serif" font-size="10.00">GetRandomInt</text>
</a>
</g>
</g>
<!-- Node2 -->
<g id="Node000002" class="node">
<title>Node2</title>
<g id="a_Node000002"><a xlink:href="../../d4/d63/RandomNumberGenerator_8cpp.html#ab41bae80bddaf892520d0c17bcfc873b" target="_top" xlink:title="Generate a random float between 0 and 1.">
<polygon fill="white" stroke="#666666" points="491,-60.52 336,-60.52 336,-41.52 491,-41.52 491,-60.52"/>
<text text-anchor="middle" x="413.5" y="-48.52" font-family="Helvetica,sans-Serif" font-size="10.00">GetRandomNormalizedFloat</text>
</a>
</g>
</g>
<!-- Node1&#45;&gt;Node2 -->
<g id="edge1_Node000001_Node000002" class="edge">
<title>Node1&#45;&gt;Node2</title>
<g id="a_edge1_Node000001_Node000002"><a xlink:title=" ">
<path fill="none" stroke="#63b8ff" d="M519.83,-25.87C498.74,-30.91 474.47,-36.7 454.55,-41.46"/>
<polygon fill="#63b8ff" stroke="#63b8ff" points="520.67,-29.27 529.58,-23.54 519.04,-22.46 520.67,-29.27"/>
</a>
</g>
</g>
<!-- Node4 -->
<g id="Node000004" class="node">
<title>Node4</title>
<g id="a_Node000004"><a xlink:href="../../d1/d21/classGameManagerBehavior.html#a432014bfe65aa92c7f74b7e6e88c475a" target="_top" xlink:title=" ">
<polygon fill="white" stroke="#666666" points="132,-66.02 0,-66.02 0,-36.02 132,-36.02 132,-66.02"/>
<text text-anchor="start" x="8" y="-54.02" font-family="Helvetica,sans-Serif" font-size="10.00">GameManagerBehavior</text>
<text text-anchor="middle" x="66" y="-43.02" font-family="Helvetica,sans-Serif" font-size="10.00">::OnTick</text>
</a>
</g>
</g>
<!-- Node1&#45;&gt;Node4 -->
<g id="edge8_Node000001_Node000004" class="edge">
<title>Node1&#45;&gt;Node4</title>
<g id="a_edge8_Node000001_Node000004"><a xlink:title=" ">
<path fill="none" stroke="#63b8ff" d="M516.92,-8.21C439.72,-1 291.49,7.89 168,-14.02 144.28,-18.22 118.82,-27.59 99.4,-35.84"/>
<polygon fill="#63b8ff" stroke="#63b8ff" points="516.59,-11.7 526.88,-9.17 517.26,-4.73 516.59,-11.7"/>
</a>
</g>
</g>
<!-- Node3 -->
<g id="Node000003" class="node">
<title>Node3</title>
<g id="a_Node000003"><a xlink:href="../../d1/d21/classGameManagerBehavior.html#a03f055b9130a3014a32bf722ba48eebf" target="_top" xlink:title="Return the velocity of an object at the current time.">
<polygon fill="white" stroke="#666666" points="300,-128.02 168,-128.02 168,-98.02 300,-98.02 300,-128.02"/>
<text text-anchor="start" x="176" y="-116.02" font-family="Helvetica,sans-Serif" font-size="10.00">GameManagerBehavior</text>
<text text-anchor="middle" x="234" y="-105.02" font-family="Helvetica,sans-Serif" font-size="10.00">::GetObjectVelocity</text>
</a>
</g>
</g>
<!-- Node2&#45;&gt;Node3 -->
<g id="edge2_Node000002_Node000003" class="edge">
<title>Node2&#45;&gt;Node3</title>
<g id="a_edge2_Node000002_Node000003"><a xlink:title=" ">
<path fill="none" stroke="#63b8ff" d="M375.62,-63.9C347.29,-73.79 308.09,-87.49 278.28,-97.9"/>
<polygon fill="#63b8ff" stroke="#63b8ff" points="376.87,-67.17 385.15,-60.57 374.56,-60.56 376.87,-67.17"/>
</a>
</g>
</g>
<!-- Node5 -->
<g id="Node000005" class="node">
<title>Node5</title>
<g id="a_Node000005"><a xlink:href="../../d5/dda/ObjectSpawning_8cpp.html#ad8f89b5d9076607112a750cc140f07ec" target="_top" xlink:title="Spawn a new coffee object.">
<polygon fill="white" stroke="#666666" points="274,-79.52 194,-79.52 194,-60.52 274,-60.52 274,-79.52"/>
<text text-anchor="middle" x="234" y="-67.52" font-family="Helvetica,sans-Serif" font-size="10.00">SpawnCoffee</text>
</a>
</g>
</g>
<!-- Node2&#45;&gt;Node5 -->
<g id="edge4_Node000002_Node000005" class="edge">
<title>Node2&#45;&gt;Node5</title>
<g id="a_edge4_Node000002_Node000005"><a xlink:title=" ">
<path fill="none" stroke="#63b8ff" d="M325.95,-60.28C307.91,-62.21 289.75,-64.16 274.45,-65.79"/>
<polygon fill="#63b8ff" stroke="#63b8ff" points="326.37,-63.76 335.94,-59.21 325.62,-56.8 326.37,-63.76"/>
</a>
</g>
</g>
<!-- Node6 -->
<g id="Node000006" class="node">
<title>Node6</title>
<g id="a_Node000006"><a xlink:href="../../d5/dda/ObjectSpawning_8cpp.html#abb03ee227a4d9759be2916f379f21c86" target="_top" xlink:title="Spawn a new enemy.">
<polygon fill="white" stroke="#666666" points="275.5,-42.52 192.5,-42.52 192.5,-23.52 275.5,-23.52 275.5,-42.52"/>
<text text-anchor="middle" x="234" y="-30.52" font-family="Helvetica,sans-Serif" font-size="10.00">SpawnEnemy</text>
</a>
</g>
</g>
<!-- Node2&#45;&gt;Node6 -->
<g id="edge6_Node000002_Node000006" class="edge">
<title>Node2&#45;&gt;Node6</title>
<g id="a_edge6_Node000002_Node000006"><a xlink:title=" ">
<path fill="none" stroke="#63b8ff" d="M325.72,-42.22C308.33,-40.45 290.83,-38.68 275.9,-37.16"/>
<polygon fill="#63b8ff" stroke="#63b8ff" points="325.63,-45.72 335.94,-43.25 326.34,-38.76 325.63,-45.72"/>
</a>
</g>
</g>
<!-- Node3&#45;&gt;Node4 -->
<g id="edge3_Node000003_Node000004" class="edge">
<title>Node3&#45;&gt;Node4</title>
<g id="a_edge3_Node000003_Node000004"><a xlink:title=" ">
<path fill="none" stroke="#63b8ff" d="M182.62,-94.45C177.68,-92.62 172.74,-90.78 168,-89.02 147.81,-81.49 125.38,-73.06 106.79,-66.05"/>
<polygon fill="#63b8ff" stroke="#63b8ff" points="181.48,-97.76 192.07,-97.95 183.91,-91.19 181.48,-97.76"/>
</a>
</g>
</g>
<!-- Node5&#45;&gt;Node4 -->
<g id="edge5_Node000005_Node000004" class="edge">
<title>Node5&#45;&gt;Node4</title>
<g id="a_edge5_Node000005_Node000004"><a xlink:title=" ">
<path fill="none" stroke="#63b8ff" d="M183.38,-64.34C167.25,-62.49 149.1,-60.41 132.01,-58.46"/>
<polygon fill="#63b8ff" stroke="#63b8ff" points="183.33,-67.85 193.66,-65.51 184.12,-60.9 183.33,-67.85"/>
</a>
</g>
</g>
<!-- Node6&#45;&gt;Node4 -->
<g id="edge7_Node000006_Node000004" class="edge">
<title>Node6&#45;&gt;Node4</title>
<g id="a_edge7_Node000006_Node000004"><a xlink:title=" ">
<path fill="none" stroke="#63b8ff" d="M182.29,-38.52C166.45,-40.23 148.76,-42.15 132.09,-43.96"/>
<polygon fill="#63b8ff" stroke="#63b8ff" points="182.83,-41.98 192.39,-37.42 182.07,-35.02 182.83,-41.98"/>
</a>
</g>
</g>
</g>
</svg>

<g id="navigator" transform="translate(0 0)" fill="#404254">
  <rect fill="#f2f5e9" fill-opacity="0.5" stroke="#606060" stroke-width=".5" x="0" y="0" width="60" height="60"/>
  <use id="zoomplus" xlink:href="#zoomPlus" x="17" y="9" onmousedown="handleZoom(evt,'in')"/>
  <use id="zoomminus" xlink:href="#zoomMin" x="42" y="9" onmousedown="handleZoom(evt,'out')"/>
  <use id="reset" xlink:href="#resetDef" x="30" y="36" onmousedown="handleReset()"/>
   <use id="arrowup" xlink:href="#arrowUp" x="0" y="0" onmousedown="handlePan(0,-1)"/>
  <use id="arrowright" xlink:href="#arrowRight" x="0" y="0" onmousedown="handlePan(1,0)"/>
  <use id="arrowdown" xlink:href="#arrowDown" x="0" y="0" onmousedown="handlePan(0,1)"/>
  <use id="arrowleft" xlink:href="#arrowLeft" x="0" y="0" onmousedown="handlePan(-1,0)"/>
</g>
<svg viewBox="0 0 15 15" width="100%" height="30px" preserveAspectRatio="xMaxYMin meet">
 <g id="arrow_out" transform="scale(0.3 0.3)">
  <a xlink:href="RandomNumberGenerator_8hpp_ab3b4d2c18f8ed2adbded9e672d49418a_icgraph_org.svg" target="_base">
   <rect id="button" ry="5" rx="5" y="6" x="6" height="38" width="38"
        fill="#f2f5e9" fill-opacity="0.5" stroke="#606060" stroke-width="1.0"/>
   <path id="arrow"
     d="M 11.500037,31.436501 C 11.940474,20.09759 22.043105,11.32322 32.158766,21.979434 L 37.068811,17.246167 C 37.068811,17.246167 37.088388,32 37.088388,32 L 22.160133,31.978069 C 22.160133,31.978069 26.997745,27.140456 26.997745,27.140456 C 18.528582,18.264221 13.291696,25.230495 11.500037,31.436501 z"
     style="fill:#404040;"/>
  </a>
 </g>
</svg>

<style type='text/css'>
<![CDATA[
[data-mouse-over-selected='false'] { opacity: 0.7; }
[data-mouse-over-selected='true']  { opacity: 1.0; }
]]>
</style>
<script type="application/ecmascript"><![CDATA[
document.addEventListener('DOMContentLoaded', (event) => {
  highlightEdges();
  highlightAdjacentNodes();
});
]]></script>
</svg>
