<?xml version="1.0" encoding="UTF-8" standalone="no"?>
<!DOCTYPE svg PUBLIC "-//W3C//DTD SVG 1.1//EN"
 "http://www.w3.org/Graphics/SVG/1.1/DTD/svg11.dtd">
<!-- Generated by graphviz version 2.43.0 (0)
 -->
<!-- Title: GetDeltaTime Pages: 1 -->
<svg width="409pt" height="268pt"
 viewBox="0.00 0.00 409.00 268.00" xmlns="http://www.w3.org/2000/svg" xmlns:xlink="http://www.w3.org/1999/xlink">
<g id="graph0" class="graph" transform="scale(1 1) rotate(0) translate(4 264)">
<title>GetDeltaTime</title>
<!-- Node1 -->
<g id="node1" class="node">
<title>Node1</title>
<g id="a_node1"><a xlink:title="Return the time it took to render the last frame in milliseconds.">
<polygon fill="#999999" stroke="#666666" points="401,-144.5 316,-144.5 316,-125.5 401,-125.5 401,-144.5"/>
<text text-anchor="middle" x="358.5" y="-132.5" font-family="Helvetica,sans-Serif" font-size="10.00">GetDeltaTime</text>
</a>
</g>
</g>
<!-- Node2 -->
<g id="node2" class="node">
<title>Node2</title>
<g id="a_node2"><a xlink:href="../../d9/df0/classCollisionBehavior.html#ac109e777e29c737c0454464e611a7449" target="_top" xlink:title="Check if this components parent will collide with the other object next frame.">
<polygon fill="white" stroke="#666666" points="266,-260 158,-260 158,-230 266,-230 266,-260"/>
<text text-anchor="start" x="166" y="-248" font-family="Helvetica,sans-Serif" font-size="10.00">CollisionBehavior::</text>
<text text-anchor="middle" x="212" y="-237" font-family="Helvetica,sans-Serif" font-size="10.00">CheckForCollision</text>
</a>
</g>
</g>
<!-- Node1&#45;&gt;Node2 -->
<g id="edge1" class="edge">
<title>Node1&#45;&gt;Node2</title>
<path fill="none" stroke="#63b8ff" d="M345.5,-152.91C331.74,-172.19 307.53,-202.54 280,-221 274.97,-224.37 269.41,-227.33 263.71,-229.91"/>
<polygon fill="#63b8ff" stroke="#63b8ff" points="348.38,-154.89 351.21,-144.68 342.63,-150.9 348.38,-154.89"/>
</g>
<!-- Node4 -->
<g id="node4" class="node">
<title>Node4</title>
<g id="a_node4"><a xlink:href="../../d8/d05/classGravityBehavior.html#aa007d1996c5a1c0840f3957c724a4dee" target="_top" xlink:title=" ">
<polygon fill="white" stroke="#666666" points="280,-211.5 144,-211.5 144,-192.5 280,-192.5 280,-211.5"/>
<text text-anchor="middle" x="212" y="-199.5" font-family="Helvetica,sans-Serif" font-size="10.00">GravityBehavior::OnTick</text>
</a>
</g>
</g>
<!-- Node1&#45;&gt;Node4 -->
<g id="edge3" class="edge">
<title>Node1&#45;&gt;Node4</title>
<path fill="none" stroke="#63b8ff" d="M336.12,-150.51C321.03,-160.87 300.03,-174.17 280,-183 271.7,-186.66 262.52,-189.81 253.68,-192.43"/>
<polygon fill="#63b8ff" stroke="#63b8ff" points="338.5,-153.11 344.68,-144.5 334.48,-147.38 338.5,-153.11"/>
</g>
<!-- Node5 -->
<g id="node5" class="node">
<title>Node5</title>
<g id="a_node5"><a xlink:href="../../dd/df8/classKinematicBehavior.html#a05b908feb480544ba5df204f4ea23f55" target="_top" xlink:title=" ">
<polygon fill="white" stroke="#666666" points="270,-174 154,-174 154,-144 270,-144 270,-174"/>
<text text-anchor="start" x="162" y="-162" font-family="Helvetica,sans-Serif" font-size="10.00">KinematicBehavior::</text>
<text text-anchor="middle" x="212" y="-151" font-family="Helvetica,sans-Serif" font-size="10.00">OnTick</text>
</a>
</g>
</g>
<!-- Node1&#45;&gt;Node5 -->
<g id="edge4" class="edge">
<title>Node1&#45;&gt;Node5</title>
<path fill="none" stroke="#63b8ff" d="M305.75,-143.59C294.16,-145.52 281.81,-147.57 270.02,-149.53"/>
<polygon fill="#63b8ff" stroke="#63b8ff" points="306.41,-147.03 315.7,-141.94 305.27,-140.13 306.41,-147.03"/>
</g>
<!-- Node6 -->
<g id="node6" class="node">
<title>Node6</title>
<g id="a_node6"><a xlink:href="../../d4/dd8/classCoffeeMeterBehavior.html#ad649e271bb71e75dc7ffa5a3d458aa81" target="_top" xlink:title=" ">
<polygon fill="white" stroke="#666666" points="272,-126 152,-126 152,-96 272,-96 272,-126"/>
<text text-anchor="start" x="160" y="-114" font-family="Helvetica,sans-Serif" font-size="10.00">CoffeeMeterBehavior</text>
<text text-anchor="middle" x="212" y="-103" font-family="Helvetica,sans-Serif" font-size="10.00">::OnTick</text>
</a>
</g>
</g>
<!-- Node1&#45;&gt;Node6 -->
<g id="edge5" class="edge">
<title>Node1&#45;&gt;Node6</title>
<path fill="none" stroke="#63b8ff" d="M305.56,-126.37C294.73,-124.57 283.24,-122.67 272.17,-120.83"/>
<polygon fill="#63b8ff" stroke="#63b8ff" points="305.27,-129.87 315.7,-128.06 306.41,-122.97 305.27,-129.87"/>
</g>
<!-- Node7 -->
<g id="node7" class="node">
<title>Node7</title>
<g id="a_node7"><a xlink:href="../../d1/d21/classGameManagerBehavior.html#a432014bfe65aa92c7f74b7e6e88c475a" target="_top" xlink:title=" ">
<polygon fill="white" stroke="#666666" points="278,-78 146,-78 146,-48 278,-48 278,-78"/>
<text text-anchor="start" x="154" y="-66" font-family="Helvetica,sans-Serif" font-size="10.00">GameManagerBehavior</text>
<text text-anchor="middle" x="212" y="-55" font-family="Helvetica,sans-Serif" font-size="10.00">::OnTick</text>
</a>
</g>
</g>
<!-- Node1&#45;&gt;Node7 -->
<g id="edge6" class="edge">
<title>Node1&#45;&gt;Node7</title>
<path fill="none" stroke="#63b8ff" d="M335.37,-119.55C320.24,-109.43 299.48,-96.39 280,-87 273.32,-83.78 266.09,-80.75 258.94,-78"/>
<polygon fill="#63b8ff" stroke="#63b8ff" points="333.76,-122.69 344,-125.42 337.7,-116.9 333.76,-122.69"/>
</g>
<!-- Node8 -->
<g id="node8" class="node">
<title>Node8</title>
<g id="a_node8"><a xlink:href="../../db/d44/classScoreCounterBehavior.html#a33d6680553208e93fc39a4edc9946232" target="_top" xlink:title=" ">
<polygon fill="white" stroke="#666666" points="274.5,-30 149.5,-30 149.5,0 274.5,0 274.5,-30"/>
<text text-anchor="start" x="157.5" y="-18" font-family="Helvetica,sans-Serif" font-size="10.00">ScoreCounterBehavior</text>
<text text-anchor="middle" x="212" y="-7" font-family="Helvetica,sans-Serif" font-size="10.00">::OnTick</text>
</a>
</g>
</g>
<!-- Node1&#45;&gt;Node8 -->
<g id="edge7" class="edge">
<title>Node1&#45;&gt;Node8</title>
<path fill="none" stroke="#63b8ff" d="M346.98,-116.58C333.86,-95.13 309.53,-59.98 280,-39 275.27,-35.64 270.01,-32.7 264.59,-30.14"/>
<polygon fill="#63b8ff" stroke="#63b8ff" points="344.08,-118.55 352.2,-125.37 350.1,-114.98 344.08,-118.55"/>
</g>
<!-- Node3 -->
<g id="node3" class="node">
<title>Node3</title>
<g id="a_node3"><a xlink:href="../../d9/df0/classCollisionBehavior.html#a687307bfe48808fb9b86434874368af8" target="_top" xlink:title=" ">
<polygon fill="white" stroke="#666666" points="108,-260 0,-260 0,-230 108,-230 108,-260"/>
<text text-anchor="start" x="8" y="-248" font-family="Helvetica,sans-Serif" font-size="10.00">CollisionBehavior::</text>
<text text-anchor="middle" x="54" y="-237" font-family="Helvetica,sans-Serif" font-size="10.00">OnTick</text>
</a>
</g>
</g>
<!-- Node2&#45;&gt;Node3 -->
<g id="edge2" class="edge">
<title>Node2&#45;&gt;Node3</title>
<path fill="none" stroke="#63b8ff" d="M147.41,-245C134.32,-245 120.67,-245 108.01,-245"/>
<polygon fill="#63b8ff" stroke="#63b8ff" points="147.75,-248.5 157.75,-245 147.75,-241.5 147.75,-248.5"/>
</g>
</g>
</svg>
