<?xml version="1.0" encoding="UTF-8" standalone="no"?>
<!DOCTYPE svg PUBLIC "-//W3C//DTD SVG 1.1//EN"
 "http://www.w3.org/Graphics/SVG/1.1/DTD/svg11.dtd">
<!-- Generated by graphviz version 2.43.0 (0)
 -->
<!-- Title: GetDeltaTime Pages: 1 -->
<svg width="409pt" height="172pt"
 viewBox="0.00 0.00 409.00 172.00" xmlns="http://www.w3.org/2000/svg" xmlns:xlink="http://www.w3.org/1999/xlink">

<svg id="main" version="1.1" xmlns="http://www.w3.org/2000/svg" xmlns:xlink="http://www.w3.org/1999/xlink" xml:space="preserve">

<style type="text/css"><![CDATA[
.node, .edge {opacity: 0.7;}
.node.selected, .edge.selected {opacity: 1;}
.edge:hover path { stroke: red; }
.edge:hover polygon { stroke: red; fill: red; }
]]></style>
<script type="application/ecmascript" xlink:href="../../svg.min.js"/>
<svg id="graph" class="graph">
<g id="graph0" class="graph" transform="scale(1 1) rotate(0) translate(4 168)">
<title>GetDeltaTime</title>
<!-- Node1 -->
<g id="Node000001" class="node">
<title>Node1</title>
<g id="a_Node000001"><a xlink:title="Return the time it took to render the last frame in milliseconds.">
<polygon fill="#999999" stroke="#666666" points="401,-88.5 316,-88.5 316,-69.5 401,-69.5 401,-88.5"/>
<text text-anchor="middle" x="358.5" y="-76.5" font-family="Helvetica,sans-Serif" font-size="10.00">GetDeltaTime</text>
</a>
</g>
</g>
<!-- Node2 -->
<g id="Node000002" class="node">
<title>Node2</title>
<g id="a_Node000002"><a xlink:href="../../d9/df0/classCollisionBehavior.html#ac109e777e29c737c0454464e611a7449" target="_top" xlink:title="Check if this components parent will collide with the other object next frame.">
<polygon fill="white" stroke="#666666" points="266,-164 158,-164 158,-134 266,-134 266,-164"/>
<text text-anchor="start" x="166" y="-152" font-family="Helvetica,sans-Serif" font-size="10.00">CollisionBehavior::</text>
<text text-anchor="middle" x="212" y="-141" font-family="Helvetica,sans-Serif" font-size="10.00">CheckForCollision</text>
</a>
</g>
</g>
<!-- Node1&#45;&gt;Node2 -->
<g id="edge1_Node000001_Node000002" class="edge">
<title>Node1&#45;&gt;Node2</title>
<g id="a_edge1_Node000001_Node000002"><a xlink:title=" ">
<path fill="none" stroke="#63b8ff" d="M334.73,-94.09C319.61,-103.71 299.11,-116.01 280,-125 273.29,-128.16 266.05,-131.15 258.89,-133.89"/>
<polygon fill="#63b8ff" stroke="#63b8ff" points="336.88,-96.87 343.38,-88.5 333.08,-90.99 336.88,-96.87"/>
</a>
</g>
</g>
<!-- Node4 -->
<g id="Node000004" class="node">
<title>Node4</title>
<g id="a_Node000004"><a xlink:href="../../d4/dd8/classCoffeeMeterBehavior.html#ad649e271bb71e75dc7ffa5a3d458aa81" target="_top" xlink:title=" ">
<polygon fill="white" stroke="#666666" points="272,-116 152,-116 152,-86 272,-86 272,-116"/>
<text text-anchor="start" x="160" y="-104" font-family="Helvetica,sans-Serif" font-size="10.00">CoffeeMeterBehavior</text>
<text text-anchor="middle" x="212" y="-93" font-family="Helvetica,sans-Serif" font-size="10.00">::OnTick</text>
</a>
</g>
</g>
<!-- Node1&#45;&gt;Node4 -->
<g id="edge3_Node000001_Node000004" class="edge">
<title>Node1&#45;&gt;Node4</title>
<g id="a_edge3_Node000001_Node000004"><a xlink:title=" ">
<path fill="none" stroke="#63b8ff" d="M305.56,-86.91C294.73,-88.56 283.24,-90.31 272.17,-91.99"/>
<polygon fill="#63b8ff" stroke="#63b8ff" points="306.35,-90.33 315.7,-85.36 305.29,-83.41 306.35,-90.33"/>
</a>
</g>
</g>
<!-- Node5 -->
<g id="Node000005" class="node">
<title>Node5</title>
<g id="a_Node000005"><a xlink:href="../../d8/d05/classGravityBehavior.html#aa007d1996c5a1c0840f3957c724a4dee" target="_top" xlink:title=" ">
<polygon fill="white" stroke="#666666" points="280,-67.5 144,-67.5 144,-48.5 280,-48.5 280,-67.5"/>
<text text-anchor="middle" x="212" y="-55.5" font-family="Helvetica,sans-Serif" font-size="10.00">GravityBehavior::OnTick</text>
</a>
</g>
</g>
<!-- Node1&#45;&gt;Node5 -->
<g id="edge4_Node000001_Node000005" class="edge">
<title>Node1&#45;&gt;Node5</title>
<g id="a_edge4_Node000001_Node000005"><a xlink:title=" ">
<path fill="none" stroke="#63b8ff" d="M305.59,-71.46C296.76,-70.17 287.5,-68.83 278.39,-67.5"/>
<polygon fill="#63b8ff" stroke="#63b8ff" points="305.31,-74.95 315.7,-72.93 306.31,-68.02 305.31,-74.95"/>
</a>
</g>
</g>
<!-- Node6 -->
<g id="Node000006" class="node">
<title>Node6</title>
<g id="a_Node000006"><a xlink:href="../../dd/df8/classKinematicBehavior.html#a05b908feb480544ba5df204f4ea23f55" target="_top" xlink:title=" ">
<polygon fill="white" stroke="#666666" points="270,-30 154,-30 154,0 270,0 270,-30"/>
<text text-anchor="start" x="162" y="-18" font-family="Helvetica,sans-Serif" font-size="10.00">KinematicBehavior::</text>
<text text-anchor="middle" x="212" y="-7" font-family="Helvetica,sans-Serif" font-size="10.00">OnTick</text>
</a>
</g>
</g>
<!-- Node1&#45;&gt;Node6 -->
<g id="edge5_Node000001_Node000006" class="edge">
<title>Node1&#45;&gt;Node6</title>
<g id="a_edge5_Node000001_Node000006"><a xlink:title=" ">
<path fill="none" stroke="#63b8ff" d="M330.83,-64.68C316.04,-56.96 297.21,-47.52 280,-40 272.15,-36.57 263.66,-33.18 255.45,-30.04"/>
<polygon fill="#63b8ff" stroke="#63b8ff" points="329.43,-67.89 339.91,-69.46 332.69,-61.7 329.43,-67.89"/>
</a>
</g>
</g>
<!-- Node3 -->
<g id="Node000003" class="node">
<title>Node3</title>
<g id="a_Node000003"><a xlink:href="../../d9/df0/classCollisionBehavior.html#a687307bfe48808fb9b86434874368af8" target="_top" xlink:title=" ">
<polygon fill="white" stroke="#666666" points="108,-164 0,-164 0,-134 108,-134 108,-164"/>
<text text-anchor="start" x="8" y="-152" font-family="Helvetica,sans-Serif" font-size="10.00">CollisionBehavior::</text>
<text text-anchor="middle" x="54" y="-141" font-family="Helvetica,sans-Serif" font-size="10.00">OnTick</text>
</a>
</g>
</g>
<!-- Node2&#45;&gt;Node3 -->
<g id="edge2_Node000002_Node000003" class="edge">
<title>Node2&#45;&gt;Node3</title>
<g id="a_edge2_Node000002_Node000003"><a xlink:title=" ">
<path fill="none" stroke="#63b8ff" d="M147.41,-149C134.32,-149 120.67,-149 108.01,-149"/>
<polygon fill="#63b8ff" stroke="#63b8ff" points="147.75,-152.5 157.75,-149 147.75,-145.5 147.75,-152.5"/>
</a>
</g>
</g>
</g>
</svg>
</svg>

<style type='text/css'>
<![CDATA[
[data-mouse-over-selected='false'] { opacity: 0.7; }
[data-mouse-over-selected='true']  { opacity: 1.0; }
]]>
</style>
<script type="application/ecmascript"><![CDATA[
document.addEventListener('DOMContentLoaded', (event) => {
  highlightEdges();
  highlightAdjacentNodes();
});
]]></script>
</svg>
