<?xml version="1.0" encoding="UTF-8" standalone="no"?>
<!DOCTYPE svg PUBLIC "-//W3C//DTD SVG 1.1//EN"
 "http://www.w3.org/Graphics/SVG/1.1/DTD/svg11.dtd">
<!-- Generated by graphviz version 2.43.0 (0)
 -->
<!-- Title: RectangleRenderer Pages: 1 -->
<svg width="199pt" height="1313pt"
 viewBox="0.00 0.00 199.00 1313.00" xmlns="http://www.w3.org/2000/svg" xmlns:xlink="http://www.w3.org/1999/xlink">
<g id="graph0" class="graph" transform="scale(1 1) rotate(0) translate(4 1309)">
<title>RectangleRenderer</title>
<!-- Node1 -->
<g id="Node000001" class="node">
<title>Node1</title>
<g id="a_Node000001"><a xlink:title="A renderer for simple rectangles.">
<polygon fill="#999999" stroke="transparent" points="166.5,-268 24.5,-268 24.5,0 166.5,0 166.5,-268"/>
<text text-anchor="start" x="48.5" y="-256" font-family="Helvetica,sans-Serif" font-size="10.00">RectangleRenderer</text>
<text text-anchor="start" x="28.5" y="-241" font-family="Helvetica,sans-Serif" font-size="10.00">#</text>
<text text-anchor="start" x="41.5" y="-241" font-family="Helvetica,sans-Serif" font-size="10.00">std::shared_ptr&lt; SDL</text>
<text text-anchor="start" x="41.5" y="-230" font-family="Helvetica,sans-Serif" font-size="10.00">_FRect &gt; renderable</text>
<text text-anchor="start" x="28.5" y="-215" font-family="Helvetica,sans-Serif" font-size="10.00">#</text>
<text text-anchor="start" x="41.5" y="-215" font-family="Helvetica,sans-Serif" font-size="10.00">std::shared_ptr&lt; Vector2</text>
<text text-anchor="start" x="41.5" y="-204" font-family="Helvetica,sans-Serif" font-size="10.00"> &gt; size</text>
<text text-anchor="start" x="28.5" y="-189" font-family="Helvetica,sans-Serif" font-size="10.00">#</text>
<text text-anchor="start" x="41.5" y="-189" font-family="Helvetica,sans-Serif" font-size="10.00">std::shared_ptr&lt; SDL</text>
<text text-anchor="start" x="41.5" y="-178" font-family="Helvetica,sans-Serif" font-size="10.00">_Color &gt; color</text>
<text text-anchor="start" x="28.5" y="-163" font-family="Helvetica,sans-Serif" font-size="10.00">+</text>
<text text-anchor="start" x="41.5" y="-163" font-family="Helvetica,sans-Serif" font-size="10.00">RectangleRenderer</text>
<text text-anchor="start" x="41.5" y="-152" font-family="Helvetica,sans-Serif" font-size="10.00">(float width, float</text>
<text text-anchor="start" x="41.5" y="-141" font-family="Helvetica,sans-Serif" font-size="10.00"> height)</text>
<text text-anchor="start" x="28.5" y="-126" font-family="Helvetica,sans-Serif" font-size="10.00">+</text>
<text text-anchor="start" x="41.5" y="-126" font-family="Helvetica,sans-Serif" font-size="10.00">~RectangleRenderer()</text>
<text text-anchor="start" x="28.5" y="-111" font-family="Helvetica,sans-Serif" font-size="10.00">+</text>
<text text-anchor="start" x="41.5" y="-111" font-family="Helvetica,sans-Serif" font-size="10.00">void setColor(Uint8</text>
<text text-anchor="start" x="41.5" y="-100" font-family="Helvetica,sans-Serif" font-size="10.00"> r, Uint8 g, Uint8 b,</text>
<text text-anchor="start" x="41.5" y="-89" font-family="Helvetica,sans-Serif" font-size="10.00"> Uint8 a)</text>
<text text-anchor="start" x="28.5" y="-74" font-family="Helvetica,sans-Serif" font-size="10.00">+</text>
<text text-anchor="start" x="41.5" y="-74" font-family="Helvetica,sans-Serif" font-size="10.00">void setSize(std::shared</text>
<text text-anchor="start" x="41.5" y="-63" font-family="Helvetica,sans-Serif" font-size="10.00">_ptr&lt; Vector2 &gt; value)</text>
<text text-anchor="start" x="28.5" y="-48" font-family="Helvetica,sans-Serif" font-size="10.00">+</text>
<text text-anchor="start" x="41.5" y="-48" font-family="Helvetica,sans-Serif" font-size="10.00">std::shared_ptr&lt; Vector2</text>
<text text-anchor="start" x="41.5" y="-37" font-family="Helvetica,sans-Serif" font-size="10.00"> &gt; getSize() const</text>
<text text-anchor="start" x="28.5" y="-22" font-family="Helvetica,sans-Serif" font-size="10.00">+</text>
<text text-anchor="start" x="41.5" y="-22" font-family="Helvetica,sans-Serif" font-size="10.00">void OnTick() override</text>
<text text-anchor="start" x="28.5" y="-7" font-family="Helvetica,sans-Serif" font-size="10.00">+</text>
<text text-anchor="start" x="41.5" y="-7" font-family="Helvetica,sans-Serif" font-size="10.00">void OnStart() override</text>
<polygon fill="#666666" stroke="#666666" points="24.5,-251 24.5,-251 166.5,-251 166.5,-251 24.5,-251"/>
<polygon fill="#666666" stroke="#666666" points="24.5,-173 24.5,-173 39.5,-173 39.5,-173 24.5,-173"/>
<polygon fill="#666666" stroke="#666666" points="39.5,-173 39.5,-173 166.5,-173 166.5,-173 39.5,-173"/>
<polygon fill="none" stroke="#666666" points="24.5,0 24.5,-268 166.5,-268 166.5,0 24.5,0"/>
</a>
</g>
</g>
<!-- Node2 -->
<g id="Node000002" class="node">
<title>Node2</title>
<g id="a_Node000002"><a xlink:href="../../d1/d52/classRenderer.html" target="_top" xlink:title="Abstract renderer component.">
<polygon fill="white" stroke="transparent" points="166.5,-395 24.5,-395 24.5,-305 166.5,-305 166.5,-395"/>
<text text-anchor="start" x="73" y="-383" font-family="Helvetica,sans-Serif" font-size="10.00">Renderer</text>
<text text-anchor="start" x="28.5" y="-368" font-family="Helvetica,sans-Serif" font-size="10.00">#</text>
<text text-anchor="start" x="41.5" y="-368" font-family="Helvetica,sans-Serif" font-size="10.00">SDL_Renderer * renderer</text>
<text text-anchor="start" x="28.5" y="-353" font-family="Helvetica,sans-Serif" font-size="10.00">+</text>
<text text-anchor="start" x="41.5" y="-353" font-family="Helvetica,sans-Serif" font-size="10.00">Renderer()</text>
<text text-anchor="start" x="28.5" y="-338" font-family="Helvetica,sans-Serif" font-size="10.00">+</text>
<text text-anchor="start" x="41.5" y="-338" font-family="Helvetica,sans-Serif" font-size="10.00">Renderer(SDL_Renderer</text>
<text text-anchor="start" x="41.5" y="-327" font-family="Helvetica,sans-Serif" font-size="10.00"> *renderer)</text>
<text text-anchor="start" x="28.5" y="-312" font-family="Helvetica,sans-Serif" font-size="10.00">+</text>
<text text-anchor="start" x="41.5" y="-312" font-family="Helvetica,sans-Serif" font-size="10.00">~Renderer()</text>
<polygon fill="#666666" stroke="#666666" points="24.5,-378 24.5,-378 166.5,-378 166.5,-378 24.5,-378"/>
<polygon fill="#666666" stroke="#666666" points="24.5,-363 24.5,-363 39.5,-363 39.5,-363 24.5,-363"/>
<polygon fill="#666666" stroke="#666666" points="39.5,-363 39.5,-363 166.5,-363 166.5,-363 39.5,-363"/>
<polygon fill="none" stroke="#666666" points="24.5,-305 24.5,-395 166.5,-395 166.5,-305 24.5,-305"/>
</a>
</g>
</g>
<!-- Node2&#45;&gt;Node1 -->
<g id="edge1_Node000001_Node000002" class="edge">
<title>Node2&#45;&gt;Node1</title>
<g id="a_edge1_Node000001_Node000002"><a xlink:title=" ">
<path fill="none" stroke="#63b8ff" d="M95.5,-294.65C95.5,-286.29 95.5,-277.35 95.5,-268.14"/>
<polygon fill="none" stroke="#63b8ff" points="92,-294.92 95.5,-304.92 99,-294.92 92,-294.92"/>
</a>
</g>
</g>
<!-- Node3 -->
<g id="Node000003" class="node">
<title>Node3</title>
<g id="a_Node000003"><a xlink:href="../../d9/df7/classGameObjectComponent.html" target="_top" xlink:title="An abstract gameobject component. Has an OnTick and OnStart method. Subclasses may be registered to a...">
<polygon fill="white" stroke="transparent" points="190,-578 1,-578 1,-432 190,-432 190,-578"/>
<text text-anchor="start" x="37" y="-566" font-family="Helvetica,sans-Serif" font-size="10.00">GameObjectComponent</text>
<text text-anchor="start" x="5.5" y="-551" font-family="Helvetica,sans-Serif" font-size="10.00">#</text>
<text text-anchor="start" x="18.5" y="-551" font-family="Helvetica,sans-Serif" font-size="10.00">bool enabled</text>
<text text-anchor="start" x="5.5" y="-536" font-family="Helvetica,sans-Serif" font-size="10.00">+</text>
<text text-anchor="start" x="18.5" y="-536" font-family="Helvetica,sans-Serif" font-size="10.00">bool getEnabled() const</text>
<text text-anchor="start" x="5.5" y="-521" font-family="Helvetica,sans-Serif" font-size="10.00">+</text>
<text text-anchor="start" x="18.5" y="-521" font-family="Helvetica,sans-Serif" font-size="10.00">void setEnabled(bool</text>
<text text-anchor="start" x="18.5" y="-510" font-family="Helvetica,sans-Serif" font-size="10.00"> value)</text>
<text text-anchor="start" x="5.5" y="-495" font-family="Helvetica,sans-Serif" font-size="10.00">+</text>
<text text-anchor="start" x="18.5" y="-495" font-family="Helvetica,sans-Serif" font-size="10.00">void setParent(GameObject</text>
<text text-anchor="start" x="18.5" y="-484" font-family="Helvetica,sans-Serif" font-size="10.00"> *value)</text>
<text text-anchor="start" x="5.5" y="-469" font-family="Helvetica,sans-Serif" font-size="10.00">+</text>
<text text-anchor="start" x="18.5" y="-469" font-family="Helvetica,sans-Serif" font-size="10.00">virtual ~GameObjectComponent()</text>
<text text-anchor="start" x="5.5" y="-454" font-family="Helvetica,sans-Serif" font-size="10.00">+</text>
<text text-anchor="start" x="18.5" y="-454" font-family="Helvetica,sans-Serif" font-size="10.00">virtual void OnTick()=0</text>
<text text-anchor="start" x="5.5" y="-439" font-family="Helvetica,sans-Serif" font-size="10.00">+</text>
<text text-anchor="start" x="18.5" y="-439" font-family="Helvetica,sans-Serif" font-size="10.00">virtual void OnStart()=0</text>
<polygon fill="#666666" stroke="#666666" points="1.5,-561 1.5,-561 190.5,-561 190.5,-561 1.5,-561"/>
<polygon fill="#666666" stroke="#666666" points="1.5,-546 1.5,-546 16.5,-546 16.5,-546 1.5,-546"/>
<polygon fill="#666666" stroke="#666666" points="16.5,-546 16.5,-546 190.5,-546 190.5,-546 16.5,-546"/>
<polygon fill="none" stroke="#666666" points="1,-432 1,-578 190,-578 190,-432 1,-432"/>
</a>
</g>
</g>
<!-- Node3&#45;&gt;Node2 -->
<g id="edge2_Node000002_Node000003" class="edge">
<title>Node3&#45;&gt;Node2</title>
<g id="a_edge2_Node000002_Node000003"><a xlink:title=" ">
<path fill="none" stroke="#63b8ff" d="M95.5,-421.97C95.5,-412.75 95.5,-403.65 95.5,-395.19"/>
<polygon fill="none" stroke="#63b8ff" points="92,-421.98 95.5,-431.98 99,-421.98 92,-421.98"/>
</a>
</g>
</g>
<!-- Node4 -->
<g id="Node000004" class="node">
<title>Node4</title>
<g id="a_Node000004"><a xlink:href="../../de/d1c/classGameObject.html" target="_top" xlink:title="A GameObject that represents an individual object in the game.">
<polygon fill="white" stroke="transparent" points="191,-1305 0,-1305 0,-625 191,-625 191,-1305"/>
<text text-anchor="start" x="65.5" y="-1293" font-family="Helvetica,sans-Serif" font-size="10.00">GameObject</text>
<text text-anchor="start" x="4.5" y="-1278" font-family="Helvetica,sans-Serif" font-size="10.00">#</text>
<text text-anchor="start" x="17.5" y="-1278" font-family="Helvetica,sans-Serif" font-size="10.00">bool enabled</text>
<text text-anchor="start" x="4.5" y="-1263" font-family="Helvetica,sans-Serif" font-size="10.00">#</text>
<text text-anchor="start" x="17.5" y="-1263" font-family="Helvetica,sans-Serif" font-size="10.00">float weight</text>
<text text-anchor="start" x="4.5" y="-1248" font-family="Helvetica,sans-Serif" font-size="10.00">#</text>
<text text-anchor="start" x="17.5" y="-1248" font-family="Helvetica,sans-Serif" font-size="10.00">std::shared_ptr&lt; Vector2</text>
<text text-anchor="start" x="17.5" y="-1237" font-family="Helvetica,sans-Serif" font-size="10.00"> &gt; position</text>
<text text-anchor="start" x="4.5" y="-1222" font-family="Helvetica,sans-Serif" font-size="10.00">#</text>
<text text-anchor="start" x="17.5" y="-1222" font-family="Helvetica,sans-Serif" font-size="10.00">std::shared_ptr&lt; Vector2</text>
<text text-anchor="start" x="17.5" y="-1211" font-family="Helvetica,sans-Serif" font-size="10.00"> &gt; scale</text>
<text text-anchor="start" x="4.5" y="-1196" font-family="Helvetica,sans-Serif" font-size="10.00">#</text>
<text text-anchor="start" x="17.5" y="-1196" font-family="Helvetica,sans-Serif" font-size="10.00">std::shared_ptr&lt; Vector2</text>
<text text-anchor="start" x="17.5" y="-1185" font-family="Helvetica,sans-Serif" font-size="10.00"> &gt; velocity</text>
<text text-anchor="start" x="4.5" y="-1170" font-family="Helvetica,sans-Serif" font-size="10.00">#</text>
<text text-anchor="start" x="17.5" y="-1170" font-family="Helvetica,sans-Serif" font-size="10.00">std::string tag</text>
<text text-anchor="start" x="4.5" y="-1155" font-family="Helvetica,sans-Serif" font-size="10.00">#</text>
<text text-anchor="start" x="17.5" y="-1155" font-family="Helvetica,sans-Serif" font-size="10.00">std::vector&lt; std::shared</text>
<text text-anchor="start" x="17.5" y="-1144" font-family="Helvetica,sans-Serif" font-size="10.00">_ptr&lt; GameObjectComponent</text>
<text text-anchor="start" x="17.5" y="-1133" font-family="Helvetica,sans-Serif" font-size="10.00"> &gt; &gt; components</text>
<text text-anchor="start" x="4.5" y="-1118" font-family="Helvetica,sans-Serif" font-size="10.00">+</text>
<text text-anchor="start" x="17.5" y="-1118" font-family="Helvetica,sans-Serif" font-size="10.00">const std::string getTag</text>
<text text-anchor="start" x="17.5" y="-1107" font-family="Helvetica,sans-Serif" font-size="10.00">() const</text>
<text text-anchor="start" x="4.5" y="-1092" font-family="Helvetica,sans-Serif" font-size="10.00">+</text>
<text text-anchor="start" x="17.5" y="-1092" font-family="Helvetica,sans-Serif" font-size="10.00">void setTag(std::string</text>
<text text-anchor="start" x="17.5" y="-1081" font-family="Helvetica,sans-Serif" font-size="10.00"> value)</text>
<text text-anchor="start" x="4.5" y="-1066" font-family="Helvetica,sans-Serif" font-size="10.00">+</text>
<text text-anchor="start" x="17.5" y="-1066" font-family="Helvetica,sans-Serif" font-size="10.00">bool getEnabled() const</text>
<text text-anchor="start" x="4.5" y="-1051" font-family="Helvetica,sans-Serif" font-size="10.00">+</text>
<text text-anchor="start" x="17.5" y="-1051" font-family="Helvetica,sans-Serif" font-size="10.00">void setEnabled(bool</text>
<text text-anchor="start" x="17.5" y="-1040" font-family="Helvetica,sans-Serif" font-size="10.00"> value)</text>
<text text-anchor="start" x="4.5" y="-1025" font-family="Helvetica,sans-Serif" font-size="10.00">+</text>
<text text-anchor="start" x="17.5" y="-1025" font-family="Helvetica,sans-Serif" font-size="10.00">const std::vector&lt;</text>
<text text-anchor="start" x="17.5" y="-1014" font-family="Helvetica,sans-Serif" font-size="10.00"> std::shared_ptr&lt; GameObject</text>
<text text-anchor="start" x="17.5" y="-1003" font-family="Helvetica,sans-Serif" font-size="10.00">Component &gt; &gt; &amp; getComponents</text>
<text text-anchor="start" x="17.5" y="-992" font-family="Helvetica,sans-Serif" font-size="10.00">() const</text>
<text text-anchor="start" x="4.5" y="-977" font-family="Helvetica,sans-Serif" font-size="10.00">+</text>
<text text-anchor="start" x="17.5" y="-977" font-family="Helvetica,sans-Serif" font-size="10.00">float getWeight() const</text>
<text text-anchor="start" x="4.5" y="-962" font-family="Helvetica,sans-Serif" font-size="10.00">+</text>
<text text-anchor="start" x="17.5" y="-962" font-family="Helvetica,sans-Serif" font-size="10.00">void setWeight(float</text>
<text text-anchor="start" x="17.5" y="-951" font-family="Helvetica,sans-Serif" font-size="10.00"> value)</text>
<text text-anchor="start" x="4.5" y="-936" font-family="Helvetica,sans-Serif" font-size="10.00">+</text>
<text text-anchor="start" x="17.5" y="-936" font-family="Helvetica,sans-Serif" font-size="10.00">std::shared_ptr&lt; Vector2</text>
<text text-anchor="start" x="17.5" y="-925" font-family="Helvetica,sans-Serif" font-size="10.00"> &gt; getPosition() const</text>
<text text-anchor="start" x="4.5" y="-910" font-family="Helvetica,sans-Serif" font-size="10.00">+</text>
<text text-anchor="start" x="17.5" y="-910" font-family="Helvetica,sans-Serif" font-size="10.00">void setPosition(std</text>
<text text-anchor="start" x="17.5" y="-899" font-family="Helvetica,sans-Serif" font-size="10.00">::shared_ptr&lt; Vector2</text>
<text text-anchor="start" x="17.5" y="-888" font-family="Helvetica,sans-Serif" font-size="10.00"> &gt; value)</text>
<text text-anchor="start" x="4.5" y="-873" font-family="Helvetica,sans-Serif" font-size="10.00">+</text>
<text text-anchor="start" x="17.5" y="-873" font-family="Helvetica,sans-Serif" font-size="10.00">std::shared_ptr&lt; Vector2</text>
<text text-anchor="start" x="17.5" y="-862" font-family="Helvetica,sans-Serif" font-size="10.00"> &gt; getScale() const</text>
<text text-anchor="start" x="4.5" y="-847" font-family="Helvetica,sans-Serif" font-size="10.00">+</text>
<text text-anchor="start" x="17.5" y="-847" font-family="Helvetica,sans-Serif" font-size="10.00">void setScale(std::</text>
<text text-anchor="start" x="17.5" y="-836" font-family="Helvetica,sans-Serif" font-size="10.00">shared_ptr&lt; Vector2</text>
<text text-anchor="start" x="17.5" y="-825" font-family="Helvetica,sans-Serif" font-size="10.00"> &gt; value)</text>
<text text-anchor="start" x="4.5" y="-810" font-family="Helvetica,sans-Serif" font-size="10.00">+</text>
<text text-anchor="start" x="17.5" y="-810" font-family="Helvetica,sans-Serif" font-size="10.00">std::shared_ptr&lt; Vector2</text>
<text text-anchor="start" x="17.5" y="-799" font-family="Helvetica,sans-Serif" font-size="10.00"> &gt; getVelocity() const</text>
<text text-anchor="start" x="4.5" y="-784" font-family="Helvetica,sans-Serif" font-size="10.00">+</text>
<text text-anchor="start" x="17.5" y="-784" font-family="Helvetica,sans-Serif" font-size="10.00">void setVelocity(std</text>
<text text-anchor="start" x="17.5" y="-773" font-family="Helvetica,sans-Serif" font-size="10.00">::shared_ptr&lt; Vector2</text>
<text text-anchor="start" x="17.5" y="-762" font-family="Helvetica,sans-Serif" font-size="10.00"> &gt; value)</text>
<text text-anchor="start" x="4.5" y="-747" font-family="Helvetica,sans-Serif" font-size="10.00">+</text>
<text text-anchor="start" x="17.5" y="-747" font-family="Helvetica,sans-Serif" font-size="10.00">GameObject()</text>
<text text-anchor="start" x="4.5" y="-732" font-family="Helvetica,sans-Serif" font-size="10.00">+</text>
<text text-anchor="start" x="17.5" y="-732" font-family="Helvetica,sans-Serif" font-size="10.00">virtual ~GameObject()</text>
<text text-anchor="start" x="4.5" y="-717" font-family="Helvetica,sans-Serif" font-size="10.00">+</text>
<text text-anchor="start" x="17.5" y="-717" font-family="Helvetica,sans-Serif" font-size="10.00">void RegisterComponent</text>
<text text-anchor="start" x="17.5" y="-706" font-family="Helvetica,sans-Serif" font-size="10.00">(std::shared_ptr&lt; GameObject</text>
<text text-anchor="start" x="17.5" y="-695" font-family="Helvetica,sans-Serif" font-size="10.00">Component &gt; component)</text>
<text text-anchor="start" x="4.5" y="-680" font-family="Helvetica,sans-Serif" font-size="10.00">+</text>
<text text-anchor="start" x="17.5" y="-680" font-family="Helvetica,sans-Serif" font-size="10.00">void RemoveComponent</text>
<text text-anchor="start" x="17.5" y="-669" font-family="Helvetica,sans-Serif" font-size="10.00">(std::shared_ptr&lt; GameObject</text>
<text text-anchor="start" x="17.5" y="-658" font-family="Helvetica,sans-Serif" font-size="10.00">Component &gt; component)</text>
<text text-anchor="start" x="4.5" y="-643" font-family="Helvetica,sans-Serif" font-size="10.00">+</text>
<text text-anchor="start" x="17.5" y="-643" font-family="Helvetica,sans-Serif" font-size="10.00">std::shared_ptr&lt; T</text>
<text text-anchor="start" x="17.5" y="-632" font-family="Helvetica,sans-Serif" font-size="10.00"> &gt; GetFirstComponent()</text>
<polygon fill="#666666" stroke="#666666" points="0.5,-1288 0.5,-1288 191.5,-1288 191.5,-1288 0.5,-1288"/>
<polygon fill="#666666" stroke="#666666" points="0.5,-1128 0.5,-1128 15.5,-1128 15.5,-1128 0.5,-1128"/>
<polygon fill="#666666" stroke="#666666" points="15.5,-1128 15.5,-1128 191.5,-1128 191.5,-1128 15.5,-1128"/>
<polygon fill="none" stroke="#666666" points="0,-625 0,-1305 191,-1305 191,-625 0,-625"/>
</a>
</g>
</g>
<!-- Node4&#45;&gt;Node3 -->
<g id="edge3_Node000003_Node000004" class="edge">
<title>Node4&#45;&gt;Node3</title>
<g id="a_edge3_Node000003_Node000004"><a xlink:title=" ">
<path fill="none" stroke="#63b8ff" d="M95.5,-624.84C95.5,-612.83 95.5,-601.35 95.5,-590.59"/>
<polygon fill="none" stroke="#63b8ff" points="95.5,-590.3 91.5,-584.3 95.5,-578.3 99.5,-584.3 95.5,-590.3"/>
</a>
</g>
<text text-anchor="middle" x="117" y="-599" font-family="Helvetica,sans-Serif" font-size="10.00" fill="grey"> #parent</text>
</g>
</g>
</svg>
