<?xml version="1.0" encoding="UTF-8" standalone="no"?>
<!DOCTYPE svg PUBLIC "-//W3C//DTD SVG 1.1//EN"
 "http://www.w3.org/Graphics/SVG/1.1/DTD/svg11.dtd">
<!-- Generated by graphviz version 2.43.0 (0)
 -->
<!-- Title: GameObject::getScale Pages: 1 -->
<svg width="309pt" height="258pt"
 viewBox="0.00 0.00 309.00 258.00" xmlns="http://www.w3.org/2000/svg" xmlns:xlink="http://www.w3.org/1999/xlink">
<g id="graph0" class="graph" transform="scale(1 1) rotate(0) translate(4 254)">
<title>GameObject::getScale</title>
<!-- Node1 -->
<g id="node1" class="node">
<title>Node1</title>
<g id="a_node1"><a xlink:title=" ">
<polygon fill="#999999" stroke="#666666" points="301,-131.5 176,-131.5 176,-112.5 301,-112.5 301,-131.5"/>
<text text-anchor="middle" x="238.5" y="-119.5" font-family="Helvetica,sans-Serif" font-size="10.00">GameObject::getScale</text>
</a>
</g>
</g>
<!-- Node2 -->
<g id="node2" class="node">
<title>Node2</title>
<g id="a_node2"><a xlink:href="../../d9/df0/classCollisionBehavior.html#a8a037ad8f82ae70b8251e6f9f62008f5" target="_top" xlink:title="Check whether the point defined by the vector2 is inside the collider of this components parent.">
<polygon fill="white" stroke="#666666" points="128,-250 12,-250 12,-220 128,-220 128,-250"/>
<text text-anchor="start" x="20" y="-238" font-family="Helvetica,sans-Serif" font-size="10.00">CollisionBehavior::</text>
<text text-anchor="middle" x="70" y="-227" font-family="Helvetica,sans-Serif" font-size="10.00">IsPointInsideCollider</text>
</a>
</g>
</g>
<!-- Node1&#45;&gt;Node2 -->
<g id="edge1" class="edge">
<title>Node1&#45;&gt;Node2</title>
<path fill="none" stroke="#63b8ff" d="M222.58,-139.33C204.73,-159.12 173.08,-191.29 140,-211 134.33,-214.38 128.12,-217.37 121.82,-220"/>
<polygon fill="#63b8ff" stroke="#63b8ff" points="225.35,-141.49 229.35,-131.68 220.11,-136.85 225.35,-141.49"/>
</g>
<!-- Node3 -->
<g id="node3" class="node">
<title>Node3</title>
<g id="a_node3"><a xlink:href="../../d0/d0f/classRectangleRenderer.html#ac51ca99297c7e6082053161594dbc513" target="_top" xlink:title=" ">
<polygon fill="white" stroke="#666666" points="128,-202 12,-202 12,-172 128,-172 128,-202"/>
<text text-anchor="start" x="20" y="-190" font-family="Helvetica,sans-Serif" font-size="10.00">RectangleRenderer::</text>
<text text-anchor="middle" x="70" y="-179" font-family="Helvetica,sans-Serif" font-size="10.00">OnStart</text>
</a>
</g>
</g>
<!-- Node1&#45;&gt;Node3 -->
<g id="edge2" class="edge">
<title>Node1&#45;&gt;Node3</title>
<path fill="none" stroke="#63b8ff" d="M206.59,-135.59C187.52,-143.83 162.48,-154.37 140,-163 132.18,-166 123.81,-169.05 115.69,-171.92"/>
<polygon fill="#63b8ff" stroke="#63b8ff" points="208.19,-138.71 215.97,-131.51 205.41,-132.29 208.19,-138.71"/>
</g>
<!-- Node4 -->
<g id="node4" class="node">
<title>Node4</title>
<g id="a_node4"><a xlink:href="../../d1/dff/classTextureRenderer.html#ae69b12fb84b6fd016cd82b671444503e" target="_top" xlink:title=" ">
<polygon fill="white" stroke="#666666" points="140,-153.5 0,-153.5 0,-134.5 140,-134.5 140,-153.5"/>
<text text-anchor="middle" x="70" y="-141.5" font-family="Helvetica,sans-Serif" font-size="10.00">TextureRenderer::OnStart</text>
</a>
</g>
</g>
<!-- Node1&#45;&gt;Node4 -->
<g id="edge3" class="edge">
<title>Node1&#45;&gt;Node4</title>
<path fill="none" stroke="#63b8ff" d="M166,-131.45C157.42,-132.58 148.67,-133.74 140.13,-134.87"/>
<polygon fill="#63b8ff" stroke="#63b8ff" points="166.52,-134.91 175.97,-130.13 165.6,-127.97 166.52,-134.91"/>
</g>
<!-- Node5 -->
<g id="node5" class="node">
<title>Node5</title>
<g id="a_node5"><a xlink:href="../../d0/d0f/classRectangleRenderer.html#a74ae4a700b8af1eccc8c845cefc22d6e" target="_top" xlink:title=" ">
<polygon fill="white" stroke="#666666" points="128,-116 12,-116 12,-86 128,-86 128,-116"/>
<text text-anchor="start" x="20" y="-104" font-family="Helvetica,sans-Serif" font-size="10.00">RectangleRenderer::</text>
<text text-anchor="middle" x="70" y="-93" font-family="Helvetica,sans-Serif" font-size="10.00">OnTick</text>
</a>
</g>
</g>
<!-- Node1&#45;&gt;Node5 -->
<g id="edge4" class="edge">
<title>Node1&#45;&gt;Node5</title>
<path fill="none" stroke="#63b8ff" d="M165.94,-112.97C153.31,-111.38 140.31,-109.74 128.14,-108.21"/>
<polygon fill="#63b8ff" stroke="#63b8ff" points="165.62,-116.46 175.97,-114.24 166.49,-109.52 165.62,-116.46"/>
</g>
<!-- Node6 -->
<g id="node6" class="node">
<title>Node6</title>
<g id="a_node6"><a xlink:href="../../d1/dff/classTextureRenderer.html#a90fb55b10b8b9e342b4ef226e92f42c3" target="_top" xlink:title=" ">
<polygon fill="white" stroke="#666666" points="138.5,-67.5 1.5,-67.5 1.5,-48.5 138.5,-48.5 138.5,-67.5"/>
<text text-anchor="middle" x="70" y="-55.5" font-family="Helvetica,sans-Serif" font-size="10.00">TextureRenderer::OnTick</text>
</a>
</g>
</g>
<!-- Node1&#45;&gt;Node6 -->
<g id="edge5" class="edge">
<title>Node1&#45;&gt;Node6</title>
<path fill="none" stroke="#63b8ff" d="M210.1,-107.88C190.83,-98.33 164.27,-85.87 140,-77 130.43,-73.5 119.91,-70.29 110.04,-67.55"/>
<polygon fill="#63b8ff" stroke="#63b8ff" points="208.68,-111.09 219.19,-112.45 211.82,-104.83 208.68,-111.09"/>
</g>
<!-- Node7 -->
<g id="node7" class="node">
<title>Node7</title>
<g id="a_node7"><a xlink:href="../../d4/dd8/classCoffeeMeterBehavior.html#ad649e271bb71e75dc7ffa5a3d458aa81" target="_top" xlink:title=" ">
<polygon fill="white" stroke="#666666" points="130,-30 10,-30 10,0 130,0 130,-30"/>
<text text-anchor="start" x="18" y="-18" font-family="Helvetica,sans-Serif" font-size="10.00">CoffeeMeterBehavior</text>
<text text-anchor="middle" x="70" y="-7" font-family="Helvetica,sans-Serif" font-size="10.00">::OnTick</text>
</a>
</g>
</g>
<!-- Node1&#45;&gt;Node7 -->
<g id="edge6" class="edge">
<title>Node1&#45;&gt;Node7</title>
<path fill="none" stroke="#63b8ff" d="M220.91,-104.83C202.56,-86.65 171.4,-58.12 140,-40 133.6,-36.31 126.56,-33 119.49,-30.1"/>
<polygon fill="#63b8ff" stroke="#63b8ff" points="218.87,-107.75 228.4,-112.38 223.84,-102.82 218.87,-107.75"/>
</g>
</g>
</svg>
