<?xml version="1.0" encoding="UTF-8" standalone="no"?>
<!DOCTYPE svg PUBLIC "-//W3C//DTD SVG 1.1//EN"
 "http://www.w3.org/Graphics/SVG/1.1/DTD/svg11.dtd">
<!-- Generated by graphviz version 2.43.0 (0)
 -->
<!-- Title: engine/components/renderers/TextureRenderer.cpp Pages: 1 -->
<svg width="820pt" height="379pt"
 viewBox="0.00 0.00 820.00 379.00" xmlns="http://www.w3.org/2000/svg" xmlns:xlink="http://www.w3.org/1999/xlink">
<g id="graph0" class="graph" transform="scale(1 1) rotate(0) translate(4 375)">
<title>engine/components/renderers/TextureRenderer.cpp</title>
<!-- Node1 -->
<g id="Node000001" class="node">
<title>Node1</title>
<g id="a_Node000001"><a xlink:title=" ">
<polygon fill="#999999" stroke="#666666" points="491,-371 329,-371 329,-341 491,-341 491,-371"/>
<text text-anchor="start" x="337" y="-359" font-family="Helvetica,sans-Serif" font-size="10.00">engine/components/renderers</text>
<text text-anchor="middle" x="410" y="-348" font-family="Helvetica,sans-Serif" font-size="10.00">/TextureRenderer.cpp</text>
</a>
</g>
</g>
<!-- Node2 -->
<g id="Node000002" class="node">
<title>Node2</title>
<g id="a_Node000002"><a xlink:href="../../d6/d02/TextureRenderer_8hpp.html" target="_top" xlink:title=" ">
<polygon fill="white" stroke="#666666" points="278.5,-305 161.5,-305 161.5,-286 278.5,-286 278.5,-305"/>
<text text-anchor="middle" x="220" y="-293" font-family="Helvetica,sans-Serif" font-size="10.00">TextureRenderer.hpp</text>
</a>
</g>
</g>
<!-- Node1&#45;&gt;Node2 -->
<g id="edge1_Node000001_Node000002" class="edge">
<title>Node1&#45;&gt;Node2</title>
<g id="a_edge1_Node000001_Node000002"><a xlink:title=" ">
<path fill="none" stroke="#63b8ff" d="M364.49,-340.99C331.84,-330.94 288.37,-317.55 257.67,-308.1"/>
<polygon fill="#63b8ff" stroke="#63b8ff" points="258.37,-304.65 247.78,-305.05 256.31,-311.34 258.37,-304.65"/>
</a>
</g>
</g>
<!-- Node13 -->
<g id="Node000013" class="node">
<title>Node13</title>
<g id="a_Node000013"><a xlink:title=" ">
<polygon fill="#e0e0e0" stroke="#999999" points="364,-195 256,-195 256,-176 364,-176 364,-195"/>
<text text-anchor="middle" x="310" y="-183" font-family="Helvetica,sans-Serif" font-size="10.00">SDL3/SDL_render.h</text>
</a>
</g>
</g>
<!-- Node1&#45;&gt;Node13 -->
<g id="edge19_Node000001_Node000013" class="edge">
<title>Node1&#45;&gt;Node13</title>
<g id="a_edge19_Node000001_Node000013"><a xlink:title=" ">
<path fill="none" stroke="#63b8ff" d="M400.57,-340.68C394.1,-330.74 385.37,-317.16 378,-305 356.57,-269.67 332.82,-227.54 319.82,-204.24"/>
<polygon fill="#63b8ff" stroke="#63b8ff" points="322.72,-202.25 314.81,-195.21 316.61,-205.65 322.72,-202.25"/>
</a>
</g>
</g>
<!-- Node15 -->
<g id="Node000015" class="node">
<title>Node15</title>
<g id="a_Node000015"><a xlink:href="../../d6/d76/AssetLoading_8hpp.html" target="_top" xlink:title=" ">
<polygon fill="white" stroke="#666666" points="493.5,-250 372.5,-250 372.5,-231 493.5,-231 493.5,-250"/>
<text text-anchor="middle" x="433" y="-238" font-family="Helvetica,sans-Serif" font-size="10.00">../../AssetLoading.hpp</text>
</a>
</g>
</g>
<!-- Node1&#45;&gt;Node15 -->
<g id="edge16_Node000001_Node000015" class="edge">
<title>Node1&#45;&gt;Node15</title>
<g id="a_edge16_Node000001_Node000015"><a xlink:title=" ">
<path fill="none" stroke="#63b8ff" d="M398.46,-340.78C388.5,-326.69 376.89,-304.57 385,-286 390.27,-273.92 400.63,-263.65 410.37,-256.03"/>
<polygon fill="#63b8ff" stroke="#63b8ff" points="412.59,-258.74 418.63,-250.04 408.48,-253.07 412.59,-258.74"/>
</a>
</g>
</g>
<!-- Node16 -->
<g id="Node000016" class="node">
<title>Node16</title>
<g id="a_Node000016"><a xlink:title=" ">
<polygon fill="#e0e0e0" stroke="#999999" points="518.5,-305 393.5,-305 393.5,-286 518.5,-286 518.5,-305"/>
<text text-anchor="middle" x="456" y="-293" font-family="Helvetica,sans-Serif" font-size="10.00">SDL3/SDL_oldnames.h</text>
</a>
</g>
</g>
<!-- Node1&#45;&gt;Node16 -->
<g id="edge18_Node000001_Node000016" class="edge">
<title>Node1&#45;&gt;Node16</title>
<g id="a_edge18_Node000001_Node000016"><a xlink:title=" ">
<path fill="none" stroke="#63b8ff" d="M421.14,-340.84C427.68,-332.52 435.98,-321.96 442.84,-313.23"/>
<polygon fill="#63b8ff" stroke="#63b8ff" points="445.68,-315.29 449.11,-305.27 440.17,-310.96 445.68,-315.29"/>
</a>
</g>
</g>
<!-- Node17 -->
<g id="Node000017" class="node">
<title>Node17</title>
<g id="a_Node000017"><a xlink:title=" ">
<polygon fill="#e0e0e0" stroke="#999999" points="649.5,-305 536.5,-305 536.5,-286 649.5,-286 649.5,-305"/>
<text text-anchor="middle" x="593" y="-293" font-family="Helvetica,sans-Serif" font-size="10.00">SDL3/SDL_surface.h</text>
</a>
</g>
</g>
<!-- Node1&#45;&gt;Node17 -->
<g id="edge20_Node000001_Node000017" class="edge">
<title>Node1&#45;&gt;Node17</title>
<g id="a_edge20_Node000001_Node000017"><a xlink:title=" ">
<path fill="none" stroke="#63b8ff" d="M453.83,-340.99C485.14,-330.98 526.78,-317.67 556.33,-308.22"/>
<polygon fill="#63b8ff" stroke="#63b8ff" points="557.78,-311.43 566.24,-305.05 555.65,-304.76 557.78,-311.43"/>
</a>
</g>
</g>
<!-- Node18 -->
<g id="Node000018" class="node">
<title>Node18</title>
<g id="a_Node000018"><a xlink:title=" ">
<polygon fill="#e0e0e0" stroke="#999999" points="812,-305 668,-305 668,-286 812,-286 812,-305"/>
<text text-anchor="middle" x="740" y="-293" font-family="Helvetica,sans-Serif" font-size="10.00">SDL3_image/SDL_image.h</text>
</a>
</g>
</g>
<!-- Node1&#45;&gt;Node18 -->
<g id="edge21_Node000001_Node000018" class="edge">
<title>Node1&#45;&gt;Node18</title>
<g id="a_edge21_Node000001_Node000018"><a xlink:title=" ">
<path fill="none" stroke="#63b8ff" d="M489.04,-340.99C548.34,-330.48 628.18,-316.32 681.73,-306.83"/>
<polygon fill="#63b8ff" stroke="#63b8ff" points="682.51,-310.25 691.75,-305.05 681.29,-303.35 682.51,-310.25"/>
</a>
</g>
</g>
<!-- Node3 -->
<g id="Node000003" class="node">
<title>Node3</title>
<g id="a_Node000003"><a xlink:href="../../dd/db8/Renderer_8hpp.html" target="_top" xlink:title=" ">
<polygon fill="white" stroke="#666666" points="260.5,-250 179.5,-250 179.5,-231 260.5,-231 260.5,-250"/>
<text text-anchor="middle" x="220" y="-238" font-family="Helvetica,sans-Serif" font-size="10.00">Renderer.hpp</text>
</a>
</g>
</g>
<!-- Node2&#45;&gt;Node3 -->
<g id="edge2_Node000002_Node000003" class="edge">
<title>Node2&#45;&gt;Node3</title>
<g id="a_edge2_Node000002_Node000003"><a xlink:title=" ">
<path fill="none" stroke="#63b8ff" d="M220,-285.75C220,-278.8 220,-268.85 220,-260.13"/>
<polygon fill="#63b8ff" stroke="#63b8ff" points="223.5,-260.09 220,-250.09 216.5,-260.09 223.5,-260.09"/>
</a>
</g>
</g>
<!-- Node10 -->
<g id="Node000010" class="node">
<title>Node10</title>
<g id="a_Node000010"><a xlink:title=" ">
<polygon fill="#e0e0e0" stroke="#999999" points="58,-79.5 0,-79.5 0,-60.5 58,-60.5 58,-79.5"/>
<text text-anchor="middle" x="29" y="-67.5" font-family="Helvetica,sans-Serif" font-size="10.00">memory</text>
</a>
</g>
</g>
<!-- Node2&#45;&gt;Node10 -->
<g id="edge15_Node000002_Node000010" class="edge">
<title>Node2&#45;&gt;Node10</title>
<g id="a_edge15_Node000002_Node000010"><a xlink:title=" ">
<path fill="none" stroke="#63b8ff" d="M163.97,-285.97C122.36,-278.46 70.42,-266.19 56,-250 15.63,-204.69 20.8,-125.89 25.78,-89.9"/>
<polygon fill="#63b8ff" stroke="#63b8ff" points="29.27,-90.23 27.33,-79.82 22.35,-89.17 29.27,-90.23"/>
</a>
</g>
</g>
<!-- Node2&#45;&gt;Node13 -->
<g id="edge14_Node000002_Node000013" class="edge">
<title>Node2&#45;&gt;Node13</title>
<g id="a_edge14_Node000002_Node000013"><a xlink:title=" ">
<path fill="none" stroke="#63b8ff" d="M231.56,-285.77C242.28,-277.33 258.28,-263.83 270,-250 282.08,-235.74 293.18,-217.52 300.61,-204.26"/>
<polygon fill="#63b8ff" stroke="#63b8ff" points="303.81,-205.69 305.53,-195.24 297.67,-202.34 303.81,-205.69"/>
</a>
</g>
</g>
<!-- Node14 -->
<g id="Node000014" class="node">
<title>Node14</title>
<g id="a_Node000014"><a xlink:title=" ">
<polygon fill="#e0e0e0" stroke="#999999" points="161,-250 65,-250 65,-231 161,-231 161,-250"/>
<text text-anchor="middle" x="113" y="-238" font-family="Helvetica,sans-Serif" font-size="10.00">SDL3/SDL_rect.h</text>
</a>
</g>
</g>
<!-- Node2&#45;&gt;Node14 -->
<g id="edge13_Node000002_Node000014" class="edge">
<title>Node2&#45;&gt;Node14</title>
<g id="a_edge13_Node000002_Node000014"><a xlink:title=" ">
<path fill="none" stroke="#63b8ff" d="M202.81,-285.98C185.75,-277.54 159.37,-264.47 139.6,-254.68"/>
<polygon fill="#63b8ff" stroke="#63b8ff" points="141.02,-251.47 130.5,-250.17 137.91,-257.75 141.02,-251.47"/>
</a>
</g>
</g>
<!-- Node4 -->
<g id="Node000004" class="node">
<title>Node4</title>
<g id="a_Node000004"><a xlink:href="../../d2/d69/GameObjectComponent_8hpp.html" target="_top" xlink:title=" ">
<polygon fill="white" stroke="#666666" points="238,-195 74,-195 74,-176 238,-176 238,-195"/>
<text text-anchor="middle" x="156" y="-183" font-family="Helvetica,sans-Serif" font-size="10.00">../GameObjectComponent.hpp</text>
</a>
</g>
</g>
<!-- Node3&#45;&gt;Node4 -->
<g id="edge3_Node000003_Node000004" class="edge">
<title>Node3&#45;&gt;Node4</title>
<g id="a_edge3_Node000003_Node000004"><a xlink:title=" ">
<path fill="none" stroke="#63b8ff" d="M209.72,-230.98C200.16,-223.07 185.72,-211.11 174.22,-201.58"/>
<polygon fill="#63b8ff" stroke="#63b8ff" points="176.4,-198.85 166.47,-195.17 171.94,-204.24 176.4,-198.85"/>
</a>
</g>
</g>
<!-- Node3&#45;&gt;Node13 -->
<g id="edge12_Node000003_Node000013" class="edge">
<title>Node3&#45;&gt;Node13</title>
<g id="a_edge12_Node000003_Node000013"><a xlink:title=" ">
<path fill="none" stroke="#63b8ff" d="M234.46,-230.98C248.42,-222.77 269.79,-210.18 286.25,-200.49"/>
<polygon fill="#63b8ff" stroke="#63b8ff" points="288.44,-203.26 295.28,-195.17 284.88,-197.23 288.44,-203.26"/>
</a>
</g>
</g>
<!-- Node5 -->
<g id="Node000005" class="node">
<title>Node5</title>
<g id="a_Node000005"><a xlink:title=" ">
<polygon fill="#e0e0e0" stroke="#999999" points="110.5,-140 57.5,-140 57.5,-121 110.5,-121 110.5,-140"/>
<text text-anchor="middle" x="84" y="-128" font-family="Helvetica,sans-Serif" font-size="10.00">cstddef</text>
</a>
</g>
</g>
<!-- Node4&#45;&gt;Node5 -->
<g id="edge4_Node000004_Node000005" class="edge">
<title>Node4&#45;&gt;Node5</title>
<g id="a_edge4_Node000004_Node000005"><a xlink:title=" ">
<path fill="none" stroke="#63b8ff" d="M144.43,-175.98C133.58,-168 117.12,-155.88 104.12,-146.31"/>
<polygon fill="#63b8ff" stroke="#63b8ff" points="105.91,-143.28 95.78,-140.17 101.76,-148.92 105.91,-143.28"/>
</a>
</g>
</g>
<!-- Node6 -->
<g id="Node000006" class="node">
<title>Node6</title>
<g id="a_Node000006"><a xlink:href="../../d4/db5/GameObject_8hpp.html" target="_top" xlink:title=" ">
<polygon fill="white" stroke="#666666" points="235.5,-140 128.5,-140 128.5,-121 235.5,-121 235.5,-140"/>
<text text-anchor="middle" x="182" y="-128" font-family="Helvetica,sans-Serif" font-size="10.00">../GameObject.hpp</text>
</a>
</g>
</g>
<!-- Node4&#45;&gt;Node6 -->
<g id="edge5_Node000004_Node000006" class="edge">
<title>Node4&#45;&gt;Node6</title>
<g id="a_edge5_Node000004_Node000006"><a xlink:title=" ">
<path fill="none" stroke="#63b8ff" d="M160.29,-175.75C163.81,-168.57 168.91,-158.18 173.28,-149.27"/>
<polygon fill="#63b8ff" stroke="#63b8ff" points="176.52,-150.61 177.79,-140.09 170.24,-147.53 176.52,-150.61"/>
</a>
</g>
</g>
<!-- Node7 -->
<g id="Node000007" class="node">
<title>Node7</title>
<g id="a_Node000007"><a xlink:href="../../d9/d4a/Vector2_8hpp.html" target="_top" xlink:title=" ">
<polygon fill="white" stroke="#666666" points="216,-79.5 142,-79.5 142,-60.5 216,-60.5 216,-79.5"/>
<text text-anchor="middle" x="179" y="-67.5" font-family="Helvetica,sans-Serif" font-size="10.00">Vector2.hpp</text>
</a>
</g>
</g>
<!-- Node6&#45;&gt;Node7 -->
<g id="edge6_Node000006_Node000007" class="edge">
<title>Node6&#45;&gt;Node7</title>
<g id="a_edge6_Node000006_Node000007"><a xlink:title=" ">
<path fill="none" stroke="#63b8ff" d="M181.56,-120.87C181.14,-112.75 180.5,-100.31 179.97,-89.89"/>
<polygon fill="#63b8ff" stroke="#63b8ff" points="183.45,-89.47 179.44,-79.67 176.46,-89.83 183.45,-89.47"/>
</a>
</g>
</g>
<!-- Node8 -->
<g id="Node000008" class="node">
<title>Node8</title>
<g id="a_Node000008"><a xlink:href="../../d4/d71/ComponentNotFoundException_8hpp.html" target="_top" xlink:title=" ">
<polygon fill="white" stroke="#666666" points="410,-85 234,-85 234,-55 410,-55 410,-85"/>
<text text-anchor="start" x="242" y="-73" font-family="Helvetica,sans-Serif" font-size="10.00">exceptions/ComponentNotFound</text>
<text text-anchor="middle" x="322" y="-62" font-family="Helvetica,sans-Serif" font-size="10.00">Exception.hpp</text>
</a>
</g>
</g>
<!-- Node6&#45;&gt;Node8 -->
<g id="edge7_Node000006_Node000008" class="edge">
<title>Node6&#45;&gt;Node8</title>
<g id="a_edge7_Node000006_Node000008"><a xlink:title=" ">
<path fill="none" stroke="#63b8ff" d="M202.36,-120.99C222.33,-112.65 253.41,-99.66 278.89,-89.02"/>
<polygon fill="#63b8ff" stroke="#63b8ff" points="280.46,-92.15 288.34,-85.06 277.77,-85.69 280.46,-92.15"/>
</a>
</g>
</g>
<!-- Node6&#45;&gt;Node10 -->
<g id="edge9_Node000006_Node000010" class="edge">
<title>Node6&#45;&gt;Node10</title>
<g id="a_edge9_Node000006_Node000010"><a xlink:title=" ">
<path fill="none" stroke="#63b8ff" d="M159.75,-120.99C133.69,-111.03 90.32,-94.45 60.73,-83.13"/>
<polygon fill="#63b8ff" stroke="#63b8ff" points="61.86,-79.82 51.27,-79.52 59.36,-86.36 61.86,-79.82"/>
</a>
</g>
</g>
<!-- Node11 -->
<g id="Node000011" class="node">
<title>Node11</title>
<g id="a_Node000011"><a xlink:title=" ">
<polygon fill="#e0e0e0" stroke="#999999" points="472,-79.5 428,-79.5 428,-60.5 472,-60.5 472,-79.5"/>
<text text-anchor="middle" x="450" y="-67.5" font-family="Helvetica,sans-Serif" font-size="10.00">string</text>
</a>
</g>
</g>
<!-- Node6&#45;&gt;Node11 -->
<g id="edge10_Node000006_Node000011" class="edge">
<title>Node6&#45;&gt;Node11</title>
<g id="a_edge10_Node000006_Node000011"><a xlink:title=" ">
<path fill="none" stroke="#63b8ff" d="M235.6,-123.15C284.23,-116.53 357.5,-104.35 419,-85 420.44,-84.55 421.91,-84.04 423.38,-83.5"/>
<polygon fill="#63b8ff" stroke="#63b8ff" points="424.98,-86.63 432.91,-79.6 422.33,-80.15 424.98,-86.63"/>
</a>
</g>
</g>
<!-- Node12 -->
<g id="Node000012" class="node">
<title>Node12</title>
<g id="a_Node000012"><a xlink:title=" ">
<polygon fill="#e0e0e0" stroke="#999999" points="123.5,-79.5 76.5,-79.5 76.5,-60.5 123.5,-60.5 123.5,-79.5"/>
<text text-anchor="middle" x="100" y="-67.5" font-family="Helvetica,sans-Serif" font-size="10.00">vector</text>
</a>
</g>
</g>
<!-- Node6&#45;&gt;Node12 -->
<g id="edge11_Node000006_Node000012" class="edge">
<title>Node6&#45;&gt;Node12</title>
<g id="a_edge11_Node000006_Node000012"><a xlink:title=" ">
<path fill="none" stroke="#63b8ff" d="M169.9,-120.87C156.94,-111.62 136.14,-96.78 120.6,-85.69"/>
<polygon fill="#63b8ff" stroke="#63b8ff" points="122.32,-82.63 112.15,-79.67 118.26,-88.32 122.32,-82.63"/>
</a>
</g>
</g>
<!-- Node9 -->
<g id="Node000009" class="node">
<title>Node9</title>
<g id="a_Node000009"><a xlink:title=" ">
<polygon fill="#e0e0e0" stroke="#999999" points="354.5,-19 289.5,-19 289.5,0 354.5,0 354.5,-19"/>
<text text-anchor="middle" x="322" y="-7" font-family="Helvetica,sans-Serif" font-size="10.00">exception</text>
</a>
</g>
</g>
<!-- Node8&#45;&gt;Node9 -->
<g id="edge8_Node000008_Node000009" class="edge">
<title>Node8&#45;&gt;Node9</title>
<g id="a_edge8_Node000008_Node000009"><a xlink:title=" ">
<path fill="none" stroke="#63b8ff" d="M322,-54.84C322,-47.21 322,-37.7 322,-29.45"/>
<polygon fill="#63b8ff" stroke="#63b8ff" points="325.5,-29.27 322,-19.27 318.5,-29.27 325.5,-29.27"/>
</a>
</g>
</g>
<!-- Node15&#45;&gt;Node11 -->
<g id="edge17_Node000015_Node000011" class="edge">
<title>Node15&#45;&gt;Node11</title>
<g id="a_edge17_Node000015_Node000011"><a xlink:title=" ">
<path fill="none" stroke="#63b8ff" d="M433.87,-230.91C436.49,-204.89 444.4,-126.47 448.08,-90.01"/>
<polygon fill="#63b8ff" stroke="#63b8ff" points="451.59,-90.07 449.11,-79.77 444.63,-89.37 451.59,-90.07"/>
</a>
</g>
</g>
</g>
</svg>
