<?xml version="1.0" encoding="UTF-8" standalone="no"?>
<!DOCTYPE svg PUBLIC "-//W3C//DTD SVG 1.1//EN"
 "http://www.w3.org/Graphics/SVG/1.1/DTD/svg11.dtd">
<!-- Generated by graphviz version 2.43.0 (0)
 -->
<!-- Title: engine/GameManagement.cpp Pages: 1 -->
<!--zoomable 269 -->
<svg id="main" version="1.1" xmlns="http://www.w3.org/2000/svg" xmlns:xlink="http://www.w3.org/1999/xlink" xml:space="preserve" onload="init(evt)">
<style type="text/css"><![CDATA[
.edge:hover path { stroke: red; }
.edge:hover polygon { stroke: red; fill: red; }
]]></style>
<script type="text/javascript"><![CDATA[
var edges = document.getElementsByTagName('g');
if (edges && edges.length) {
  for (var i=0;i<edges.length;i++) {
    if (edges[i].id.substr(0,4)=='edge') {
      edges[i].setAttribute('class','edge');
    }
  }
}
]]></script>
        <defs>
                <circle id="rim" cx="0" cy="0" r="7"/>
                <circle id="rim2" cx="0" cy="0" r="3.5"/>
                <g id="zoomPlus">
                        <use xlink:href="#rim" fill="#404040">
                                <set attributeName="fill" to="#808080" begin="zoomplus.mouseover" end="zoomplus.mouseout"/>
                        </use>
                        <path d="M-4,0h8M0,-4v8" fill="none" stroke="white" stroke-width="1.5" pointer-events="none"/>
                </g>
                <g id="zoomMin">
                        <use xlink:href="#rim" fill="#404040">
                                <set attributeName="fill" to="#808080" begin="zoomminus.mouseover" end="zoomminus.mouseout"/>
                        </use>
                        <path d="M-4,0h8" fill="none" stroke="white" stroke-width="1.5" pointer-events="none"/>
                </g>
                <g id="dirArrow">
                        <path fill="none" stroke="white" stroke-width="1.5" d="M0,-3.0v7 M-2.5,-0.5L0,-3.0L2.5,-0.5"/>
                </g>
               <g id="resetDef">
                       <use xlink:href="#rim2" fill="#404040">
                               <set attributeName="fill" to="#808080" begin="reset.mouseover" end="reset.mouseout"/>
                       </use>
               </g>
        </defs>

<script type="text/javascript">
var viewWidth = 981;
var viewHeight = 269;
var sectionId = 'dynsection-0';
</script>
<script xlink:href="../../svgpan.js"/>
<svg id="graph" class="graph">
<g id="viewport">
<title>engine/GameManagement.cpp</title>
<!-- Node1 -->
<g id="node1" class="node">
<title>Node1</title>
<g id="a_node1"><a xlink:title=" ">
<polygon fill="#999999" stroke="#666666" points="677.5,-261 510.5,-261 510.5,-242 677.5,-242 677.5,-261"/>
<text text-anchor="middle" x="594" y="-249" font-family="Helvetica,sans-Serif" font-size="10.00">engine/GameManagement.cpp</text>
</a>
</g>
</g>
<!-- Node2 -->
<g id="node2" class="node">
<title>Node2</title>
<g id="a_node2"><a xlink:href="../../d7/dd0/GameManagement_8hpp.html" target="_top" xlink:title=" ">
<polygon fill="white" stroke="#666666" points="612.5,-206 481.5,-206 481.5,-187 612.5,-187 612.5,-206"/>
<text text-anchor="middle" x="547" y="-194" font-family="Helvetica,sans-Serif" font-size="10.00">GameManagement.hpp</text>
</a>
</g>
</g>
<!-- Node1&#45;&gt;Node2 -->
<g id="edge1" class="edge">
<title>Node1&#45;&gt;Node2</title>
<path fill="none" stroke="#63b8ff" d="M586.24,-241.75C579.53,-234.18 569.66,-223.05 561.49,-213.84"/>
<polygon fill="#63b8ff" stroke="#63b8ff" points="563.87,-211.25 554.62,-206.09 558.63,-215.89 563.87,-211.25"/>
</g>
<!-- Node3 -->
<g id="node3" class="node">
<title>Node3</title>
<g id="a_node3"><a xlink:href="../../d4/db5/GameObject_8hpp.html" target="_top" xlink:title=" ">
<polygon fill="white" stroke="#666666" points="264,-145.5 166,-145.5 166,-126.5 264,-126.5 264,-145.5"/>
<text text-anchor="middle" x="215" y="-133.5" font-family="Helvetica,sans-Serif" font-size="10.00">GameObject.hpp</text>
</a>
</g>
</g>
<!-- Node1&#45;&gt;Node3 -->
<g id="edge14" class="edge">
<title>Node1&#45;&gt;Node3</title>
<path fill="none" stroke="#63b8ff" d="M553.25,-242C515.55,-233.82 458.08,-220.59 409,-206 350.65,-188.66 284.09,-163.86 246.06,-149.19"/>
<polygon fill="#63b8ff" stroke="#63b8ff" points="247.16,-145.87 236.57,-145.52 244.63,-152.4 247.16,-145.87"/>
</g>
<!-- Node7 -->
<g id="node7" class="node">
<title>Node7</title>
<g id="a_node7"><a xlink:title=" ">
<polygon fill="#e0e0e0" stroke="#999999" points="510,-79.5 452,-79.5 452,-60.5 510,-60.5 510,-79.5"/>
<text text-anchor="middle" x="481" y="-67.5" font-family="Helvetica,sans-Serif" font-size="10.00">memory</text>
</a>
</g>
</g>
<!-- Node1&#45;&gt;Node7 -->
<g id="edge23" class="edge">
<title>Node1&#45;&gt;Node7</title>
<path fill="none" stroke="#63b8ff" d="M528.66,-241.93C507.01,-235.63 485.12,-224.75 472,-206 447.28,-170.67 462.64,-116.6 473.31,-88.83"/>
<polygon fill="#63b8ff" stroke="#63b8ff" points="476.55,-90.15 477.07,-79.57 470.06,-87.51 476.55,-90.15"/>
</g>
<!-- Node10 -->
<g id="node10" class="node">
<title>Node10</title>
<g id="a_node10"><a xlink:title=" ">
<polygon fill="#e0e0e0" stroke="#999999" points="672,-145.5 566,-145.5 566,-126.5 672,-126.5 672,-145.5"/>
<text text-anchor="middle" x="619" y="-133.5" font-family="Helvetica,sans-Serif" font-size="10.00">SDL3/SDL_pixels.h</text>
</a>
</g>
</g>
<!-- Node1&#45;&gt;Node10 -->
<g id="edge20" class="edge">
<title>Node1&#45;&gt;Node10</title>
<path fill="none" stroke="#63b8ff" d="M601.15,-241.97C607.77,-233.48 617.15,-219.75 621,-206 625.64,-189.43 624.44,-169.73 622.5,-155.64"/>
<polygon fill="#63b8ff" stroke="#63b8ff" points="625.94,-155 620.88,-145.7 619.03,-156.13 625.94,-155"/>
</g>
<!-- Node11 -->
<g id="node11" class="node">
<title>Node11</title>
<g id="a_node11"><a xlink:title=" ">
<polygon fill="#e0e0e0" stroke="#999999" points="798,-145.5 690,-145.5 690,-126.5 798,-126.5 798,-145.5"/>
<text text-anchor="middle" x="744" y="-133.5" font-family="Helvetica,sans-Serif" font-size="10.00">SDL3/SDL_render.h</text>
</a>
</g>
</g>
<!-- Node1&#45;&gt;Node11 -->
<g id="edge21" class="edge">
<title>Node1&#45;&gt;Node11</title>
<path fill="none" stroke="#63b8ff" d="M605.27,-241.97C630.68,-222.74 692.68,-175.83 724.48,-151.77"/>
<polygon fill="#63b8ff" stroke="#63b8ff" points="726.73,-154.46 732.59,-145.63 722.51,-148.87 726.73,-154.46"/>
</g>
<!-- Node12 -->
<g id="node12" class="node">
<title>Node12</title>
<g id="a_node12"><a xlink:href="../../d3/d67/Lifecycle_8hpp.html" target="_top" xlink:title=" ">
<polygon fill="white" stroke="#666666" points="828.5,-206 707.5,-206 707.5,-187 828.5,-187 828.5,-206"/>
<text text-anchor="middle" x="768" y="-194" font-family="Helvetica,sans-Serif" font-size="10.00">../game/Lifecycle.hpp</text>
</a>
</g>
</g>
<!-- Node1&#45;&gt;Node12 -->
<g id="edge13" class="edge">
<title>Node1&#45;&gt;Node12</title>
<path fill="none" stroke="#63b8ff" d="M621.96,-241.98C651.3,-233.05 697.6,-218.94 730.19,-209.02"/>
<polygon fill="#63b8ff" stroke="#63b8ff" points="731.28,-212.34 739.82,-206.08 729.24,-205.65 731.28,-212.34"/>
</g>
<!-- Node13 -->
<g id="node13" class="node">
<title>Node13</title>
<g id="a_node13"><a xlink:href="../../d2/d69/GameObjectComponent_8hpp.html" target="_top" xlink:title=" ">
<polygon fill="white" stroke="#666666" points="324,-206 106,-206 106,-187 324,-187 324,-206"/>
<text text-anchor="middle" x="215" y="-194" font-family="Helvetica,sans-Serif" font-size="10.00">components/GameObjectComponent.hpp</text>
</a>
</g>
</g>
<!-- Node1&#45;&gt;Node13 -->
<g id="edge15" class="edge">
<title>Node1&#45;&gt;Node13</title>
<path fill="none" stroke="#63b8ff" d="M533.11,-241.98C465.8,-232.57 357.5,-217.43 286.28,-207.47"/>
<polygon fill="#63b8ff" stroke="#63b8ff" points="286.44,-203.96 276.06,-206.04 285.47,-210.89 286.44,-203.96"/>
</g>
<!-- Node15 -->
<g id="node15" class="node">
<title>Node15</title>
<g id="a_node15"><a xlink:href="../../de/d8a/GameObjectNotFoundException_8hpp.html" target="_top" xlink:title=" ">
<polygon fill="white" stroke="#666666" points="433.5,-151 282.5,-151 282.5,-121 433.5,-121 433.5,-151"/>
<text text-anchor="start" x="290.5" y="-139" font-family="Helvetica,sans-Serif" font-size="10.00">exceptions/GameObjectNot</text>
<text text-anchor="middle" x="358" y="-128" font-family="Helvetica,sans-Serif" font-size="10.00">FoundException.hpp</text>
</a>
</g>
</g>
<!-- Node1&#45;&gt;Node15 -->
<g id="edge18" class="edge">
<title>Node1&#45;&gt;Node15</title>
<path fill="none" stroke="#63b8ff" d="M544.82,-241.98C513.28,-235.19 472.18,-223.81 439,-206 415.99,-193.65 393.69,-173.9 378.34,-158.69"/>
<polygon fill="#63b8ff" stroke="#63b8ff" points="380.49,-155.88 370.98,-151.21 375.5,-160.79 380.49,-155.88"/>
</g>
<!-- Node16 -->
<g id="node16" class="node">
<title>Node16</title>
<g id="a_node16"><a xlink:title=" ">
<polygon fill="#e0e0e0" stroke="#999999" points="907,-206 847,-206 847,-187 907,-187 907,-206"/>
<text text-anchor="middle" x="877" y="-194" font-family="Helvetica,sans-Serif" font-size="10.00">iostream</text>
</a>
</g>
</g>
<!-- Node1&#45;&gt;Node16 -->
<g id="edge22" class="edge">
<title>Node1&#45;&gt;Node16</title>
<path fill="none" stroke="#63b8ff" d="M643.63,-241.96C690.78,-233.73 763.93,-220.67 836.55,-206.24"/>
<polygon fill="#63b8ff" stroke="#63b8ff" points="837.67,-209.58 846.79,-204.19 836.3,-202.72 837.67,-209.58"/>
</g>
<!-- Node17 -->
<g id="node17" class="node">
<title>Node17</title>
<g id="a_node17"><a xlink:title=" ">
<polygon fill="#e0e0e0" stroke="#999999" points="972.5,-206 925.5,-206 925.5,-187 972.5,-187 972.5,-206"/>
<text text-anchor="middle" x="949" y="-194" font-family="Helvetica,sans-Serif" font-size="10.00">queue</text>
</a>
</g>
</g>
<!-- Node1&#45;&gt;Node17 -->
<g id="edge24" class="edge">
<title>Node1&#45;&gt;Node17</title>
<path fill="none" stroke="#63b8ff" d="M674.48,-241.97C737.52,-234.7 827.54,-222.99 915.41,-205.9"/>
<polygon fill="#63b8ff" stroke="#63b8ff" points="916.15,-209.32 925.28,-203.96 914.79,-202.46 916.15,-209.32"/>
</g>
<!-- Node2&#45;&gt;Node3 -->
<g id="edge2" class="edge">
<title>Node2&#45;&gt;Node3</title>
<path fill="none" stroke="#63b8ff" d="M486.09,-186.96C430.4,-178.83 345.87,-165.69 273,-151 268.24,-150.04 263.27,-148.96 258.34,-147.84"/>
<polygon fill="#63b8ff" stroke="#63b8ff" points="258.87,-144.37 248.33,-145.5 257.28,-151.19 258.87,-144.37"/>
</g>
<!-- Node2&#45;&gt;Node7 -->
<g id="edge11" class="edge">
<title>Node2&#45;&gt;Node7</title>
<path fill="none" stroke="#63b8ff" d="M543.6,-186.56C538.07,-172.33 526.48,-143.84 514,-121 507.79,-109.64 499.82,-97.5 493.26,-88.03"/>
<polygon fill="#63b8ff" stroke="#63b8ff" points="495.92,-85.73 487.3,-79.58 490.2,-89.77 495.92,-85.73"/>
</g>
<!-- Node9 -->
<g id="node9" class="node">
<title>Node9</title>
<g id="a_node9"><a xlink:title=" ">
<polygon fill="#e0e0e0" stroke="#999999" points="433.5,-79.5 386.5,-79.5 386.5,-60.5 433.5,-60.5 433.5,-79.5"/>
<text text-anchor="middle" x="410" y="-67.5" font-family="Helvetica,sans-Serif" font-size="10.00">vector</text>
</a>
</g>
</g>
<!-- Node2&#45;&gt;Node9 -->
<g id="edge12" class="edge">
<title>Node2&#45;&gt;Node9</title>
<path fill="none" stroke="#63b8ff" d="M537.58,-186.94C514.8,-166.24 456.45,-113.21 427.22,-86.65"/>
<polygon fill="#63b8ff" stroke="#63b8ff" points="429.24,-83.75 419.48,-79.62 424.53,-88.93 429.24,-83.75"/>
</g>
<!-- Node2&#45;&gt;Node10 -->
<g id="edge9" class="edge">
<title>Node2&#45;&gt;Node10</title>
<path fill="none" stroke="#63b8ff" d="M557.62,-186.87C568.9,-177.71 586.92,-163.06 600.53,-152.01"/>
<polygon fill="#63b8ff" stroke="#63b8ff" points="602.78,-154.69 608.33,-145.67 598.36,-149.26 602.78,-154.69"/>
</g>
<!-- Node2&#45;&gt;Node11 -->
<g id="edge10" class="edge">
<title>Node2&#45;&gt;Node11</title>
<path fill="none" stroke="#63b8ff" d="M575.65,-186.99C609.93,-176.81 667.48,-159.72 705.6,-148.4"/>
<polygon fill="#63b8ff" stroke="#63b8ff" points="706.73,-151.72 715.32,-145.52 704.74,-145.01 706.73,-151.72"/>
</g>
<!-- Node4 -->
<g id="node4" class="node">
<title>Node4</title>
<g id="a_node4"><a xlink:href="../../d9/d4a/Vector2_8hpp.html" target="_top" xlink:title=" ">
<polygon fill="white" stroke="#666666" points="74,-79.5 0,-79.5 0,-60.5 74,-60.5 74,-79.5"/>
<text text-anchor="middle" x="37" y="-67.5" font-family="Helvetica,sans-Serif" font-size="10.00">Vector2.hpp</text>
</a>
</g>
</g>
<!-- Node3&#45;&gt;Node4 -->
<g id="edge3" class="edge">
<title>Node3&#45;&gt;Node4</title>
<path fill="none" stroke="#63b8ff" d="M190.99,-126.37C159.99,-115.22 105.84,-95.75 70.71,-83.12"/>
<polygon fill="#63b8ff" stroke="#63b8ff" points="71.5,-79.69 60.91,-79.6 69.14,-86.27 71.5,-79.69"/>
</g>
<!-- Node5 -->
<g id="node5" class="node">
<title>Node5</title>
<g id="a_node5"><a xlink:href="../../d4/d71/ComponentNotFoundException_8hpp.html" target="_top" xlink:title=" ">
<polygon fill="white" stroke="#666666" points="268,-85 92,-85 92,-55 268,-55 268,-85"/>
<text text-anchor="start" x="100" y="-73" font-family="Helvetica,sans-Serif" font-size="10.00">exceptions/ComponentNotFound</text>
<text text-anchor="middle" x="180" y="-62" font-family="Helvetica,sans-Serif" font-size="10.00">Exception.hpp</text>
</a>
</g>
</g>
<!-- Node3&#45;&gt;Node5 -->
<g id="edge4" class="edge">
<title>Node3&#45;&gt;Node5</title>
<path fill="none" stroke="#63b8ff" d="M210.28,-126.37C205.79,-118.16 198.83,-105.44 192.72,-94.26"/>
<polygon fill="#63b8ff" stroke="#63b8ff" points="195.72,-92.45 187.85,-85.36 189.58,-95.81 195.72,-92.45"/>
</g>
<!-- Node3&#45;&gt;Node7 -->
<g id="edge6" class="edge">
<title>Node3&#45;&gt;Node7</title>
<path fill="none" stroke="#63b8ff" d="M249.62,-126.48C257.31,-124.64 265.42,-122.72 273,-121 347.89,-103.99 368.14,-106.02 442,-85 444.42,-84.31 446.91,-83.55 449.4,-82.75"/>
<polygon fill="#63b8ff" stroke="#63b8ff" points="450.55,-86.05 458.89,-79.52 448.3,-79.42 450.55,-86.05"/>
</g>
<!-- Node8 -->
<g id="node8" class="node">
<title>Node8</title>
<g id="a_node8"><a xlink:title=" ">
<polygon fill="#e0e0e0" stroke="#999999" points="330,-79.5 286,-79.5 286,-60.5 330,-60.5 330,-79.5"/>
<text text-anchor="middle" x="308" y="-67.5" font-family="Helvetica,sans-Serif" font-size="10.00">string</text>
</a>
</g>
</g>
<!-- Node3&#45;&gt;Node8 -->
<g id="edge7" class="edge">
<title>Node3&#45;&gt;Node8</title>
<path fill="none" stroke="#63b8ff" d="M227.54,-126.37C242.8,-115.87 268.77,-98 287.07,-85.4"/>
<polygon fill="#63b8ff" stroke="#63b8ff" points="289.11,-88.25 295.36,-79.7 285.14,-82.48 289.11,-88.25"/>
</g>
<!-- Node3&#45;&gt;Node9 -->
<g id="edge8" class="edge">
<title>Node3&#45;&gt;Node9</title>
<path fill="none" stroke="#63b8ff" d="M241.3,-126.37C276.32,-114.87 338.3,-94.53 376.59,-81.97"/>
<polygon fill="#63b8ff" stroke="#63b8ff" points="377.84,-85.24 386.25,-78.79 375.66,-78.59 377.84,-85.24"/>
</g>
<!-- Node6 -->
<g id="node6" class="node">
<title>Node6</title>
<g id="a_node6"><a xlink:title=" ">
<polygon fill="#e0e0e0" stroke="#999999" points="301.5,-19 236.5,-19 236.5,0 301.5,0 301.5,-19"/>
<text text-anchor="middle" x="269" y="-7" font-family="Helvetica,sans-Serif" font-size="10.00">exception</text>
</a>
</g>
</g>
<!-- Node5&#45;&gt;Node6 -->
<g id="edge5" class="edge">
<title>Node5&#45;&gt;Node6</title>
<path fill="none" stroke="#63b8ff" d="M201.54,-54.84C215.47,-45.68 233.53,-33.82 247.45,-24.66"/>
<polygon fill="#63b8ff" stroke="#63b8ff" points="249.49,-27.51 255.92,-19.09 245.65,-21.66 249.49,-27.51"/>
</g>
<!-- Node13&#45;&gt;Node3 -->
<g id="edge17" class="edge">
<title>Node13&#45;&gt;Node3</title>
<path fill="none" stroke="#63b8ff" d="M215,-186.87C215,-178.75 215,-166.31 215,-155.89"/>
<polygon fill="#63b8ff" stroke="#63b8ff" points="218.5,-155.67 215,-145.67 211.5,-155.67 218.5,-155.67"/>
</g>
<!-- Node14 -->
<g id="node14" class="node">
<title>Node14</title>
<g id="a_node14"><a xlink:title=" ">
<polygon fill="#e0e0e0" stroke="#999999" points="147.5,-145.5 94.5,-145.5 94.5,-126.5 147.5,-126.5 147.5,-145.5"/>
<text text-anchor="middle" x="121" y="-133.5" font-family="Helvetica,sans-Serif" font-size="10.00">cstddef</text>
</a>
</g>
</g>
<!-- Node13&#45;&gt;Node14 -->
<g id="edge16" class="edge">
<title>Node13&#45;&gt;Node14</title>
<path fill="none" stroke="#63b8ff" d="M201.13,-186.87C186,-177.45 161.54,-162.23 143.62,-151.08"/>
<polygon fill="#63b8ff" stroke="#63b8ff" points="145.27,-147.98 134.93,-145.67 141.57,-153.92 145.27,-147.98"/>
</g>
<!-- Node15&#45;&gt;Node6 -->
<g id="edge19" class="edge">
<title>Node15&#45;&gt;Node6</title>
<path fill="none" stroke="#63b8ff" d="M357.79,-120.97C356.88,-103.9 353.16,-74.88 339,-55 329.29,-41.37 313.98,-30.95 300.15,-23.63"/>
<polygon fill="#63b8ff" stroke="#63b8ff" points="301.41,-20.35 290.89,-19.05 298.31,-26.62 301.41,-20.35"/>
</g>
</g>
</svg>
        <g id="navigator" transform="translate(0 0)" fill="#404254">
                <rect fill="#f2f5e9" fill-opacity="0.5" stroke="#606060" stroke-width=".5" x="0" y="0" width="60" height="60"/>
                <use id="zoomplus" xlink:href="#zoomPlus" x="17" y="9" onmousedown="handleZoom(evt,'in')"/>
                <use id="zoomminus" xlink:href="#zoomMin" x="42" y="9" onmousedown="handleZoom(evt,'out')"/>
                <use id="reset" xlink:href="#resetDef" x="30" y="36" onmousedown="handleReset()"/>
                <g id="arrowUp" xlink:href="#dirArrow" transform="translate(30 24)" onmousedown="handlePan(0,-1)">
                  <use xlink:href="#rim" fill="#404040">
                        <set attributeName="fill" to="#808080" begin="arrowUp.mouseover" end="arrowUp.mouseout"/>
                  </use>
                  <path fill="none" stroke="white" stroke-width="1.5" d="M0,-3.0v7 M-2.5,-0.5L0,-3.0L2.5,-0.5"/>
                </g>
                <g id="arrowRight" xlink:href="#dirArrow" transform="rotate(90) translate(36 -43)" onmousedown="handlePan(1,0)">
                  <use xlink:href="#rim" fill="#404040">
                        <set attributeName="fill" to="#808080" begin="arrowRight.mouseover" end="arrowRight.mouseout"/>
                  </use>
                  <path fill="none" stroke="white" stroke-width="1.5" d="M0,-3.0v7 M-2.5,-0.5L0,-3.0L2.5,-0.5"/>
                </g>
                <g id="arrowDown" xlink:href="#dirArrow" transform="rotate(180) translate(-30 -48)" onmousedown="handlePan(0,1)">
                  <use xlink:href="#rim" fill="#404040">
                        <set attributeName="fill" to="#808080" begin="arrowDown.mouseover" end="arrowDown.mouseout"/>
                  </use>
                  <path fill="none" stroke="white" stroke-width="1.5" d="M0,-3.0v7 M-2.5,-0.5L0,-3.0L2.5,-0.5"/>
                </g>
                <g id="arrowLeft" xlink:href="#dirArrow" transform="rotate(270) translate(-36 17)" onmousedown="handlePan(-1,0)">
                  <use xlink:href="#rim" fill="#404040">
                        <set attributeName="fill" to="#808080" begin="arrowLeft.mouseover" end="arrowLeft.mouseout"/>
                  </use>
                  <path fill="none" stroke="white" stroke-width="1.5" d="M0,-3.0v7 M-2.5,-0.5L0,-3.0L2.5,-0.5"/>
                </g>
        </g>
        <svg viewBox="0 0 15 15" width="100%" height="30px" preserveAspectRatio="xMaxYMin meet">
         <g id="arrow_out" transform="scale(0.3 0.3)">
          <a xlink:href="GameManagement_8cpp__incl_org.svg" target="_base">
           <rect id="button" ry="5" rx="5" y="6" x="6" height="38" width="38"
                fill="#f2f5e9" fill-opacity="0.5" stroke="#606060" stroke-width="1.0"/>
           <path id="arrow"
             d="M 11.500037,31.436501 C 11.940474,20.09759 22.043105,11.32322 32.158766,21.979434 L 37.068811,17.246167 C 37.068811,17.246167 37.088388,32 37.088388,32 L 22.160133,31.978069 C 22.160133,31.978069 26.997745,27.140456 26.997745,27.140456 C 18.528582,18.264221 13.291696,25.230495 11.500037,31.436501 z"
             style="fill:#404040;"/>
          </a>
         </g>
        </svg>
</svg>
