<?xml version="1.0" encoding="UTF-8" standalone="no"?>
<!DOCTYPE svg PUBLIC "-//W3C//DTD SVG 1.1//EN"
 "http://www.w3.org/Graphics/SVG/1.1/DTD/svg11.dtd">
<!-- Generated by graphviz version 2.43.0 (0)
 -->
<!-- Title: ScoreCounterBehavior Pages: 1 -->
<svg width="203pt" height="375pt"
 viewBox="0.00 0.00 203.00 375.00" xmlns="http://www.w3.org/2000/svg" xmlns:xlink="http://www.w3.org/1999/xlink">
<g id="graph0" class="graph" transform="scale(1 1) rotate(0) translate(4 371)">
<title>ScoreCounterBehavior</title>
<!-- Node1 -->
<g id="node1" class="node">
<title>Node1</title>
<g id="a_node1"><a xlink:title=" ">
<polygon fill="#999999" stroke="#666666" points="35,-0.5 35,-90.5 160,-90.5 160,-0.5 35,-0.5"/>
<text text-anchor="middle" x="97.5" y="-78.5" font-family="Helvetica,sans-Serif" font-size="10.00">ScoreCounterBehavior</text>
<polyline fill="none" stroke="#666666" points="35,-71.5 160,-71.5 "/>
<text text-anchor="middle" x="97.5" y="-59.5" font-family="Helvetica,sans-Serif" font-size="10.00"> </text>
<polyline fill="none" stroke="#666666" points="35,-52.5 160,-52.5 "/>
<text text-anchor="start" x="43" y="-40.5" font-family="Helvetica,sans-Serif" font-size="10.00">+ virtual void OnTick</text>
<text text-anchor="start" x="43" y="-29.5" font-family="Helvetica,sans-Serif" font-size="10.00">() override</text>
<text text-anchor="start" x="43" y="-18.5" font-family="Helvetica,sans-Serif" font-size="10.00">+ virtual void OnStart</text>
<text text-anchor="start" x="43" y="-7.5" font-family="Helvetica,sans-Serif" font-size="10.00">() override</text>
</a>
</g>
</g>
<!-- Node2 -->
<g id="node2" class="node">
<title>Node2</title>
<g id="a_node2"><a xlink:href="../../df/dc1/classBehavior.html" target="_top" xlink:title="An abstract gameobject behavior.">
<polygon fill="white" stroke="#666666" points="67.5,-127.5 67.5,-184.5 127.5,-184.5 127.5,-127.5 67.5,-127.5"/>
<text text-anchor="middle" x="97.5" y="-172.5" font-family="Helvetica,sans-Serif" font-size="10.00">Behavior</text>
<polyline fill="none" stroke="#666666" points="67.5,-165.5 127.5,-165.5 "/>
<text text-anchor="middle" x="97.5" y="-153.5" font-family="Helvetica,sans-Serif" font-size="10.00"> </text>
<polyline fill="none" stroke="#666666" points="67.5,-146.5 127.5,-146.5 "/>
<text text-anchor="middle" x="97.5" y="-134.5" font-family="Helvetica,sans-Serif" font-size="10.00"> </text>
</a>
</g>
</g>
<!-- Node2&#45;&gt;Node1 -->
<g id="edge1" class="edge">
<title>Node2&#45;&gt;Node1</title>
<path fill="none" stroke="#63b8ff" d="M97.5,-117.21C97.5,-108.61 97.5,-99.39 97.5,-90.55"/>
<polygon fill="none" stroke="#63b8ff" points="94,-117.34 97.5,-127.34 101,-117.34 94,-117.34"/>
</g>
<!-- Node3 -->
<g id="node3" class="node">
<title>Node3</title>
<g id="a_node3"><a xlink:href="../../d9/df7/classGameObjectComponent.html" target="_top" xlink:title="An abstract gameobject component.">
<polygon fill="white" stroke="#666666" points="0,-221.5 0,-366.5 195,-366.5 195,-221.5 0,-221.5"/>
<text text-anchor="middle" x="97.5" y="-354.5" font-family="Helvetica,sans-Serif" font-size="10.00">GameObjectComponent</text>
<polyline fill="none" stroke="#666666" points="0,-347.5 195,-347.5 "/>
<text text-anchor="start" x="8" y="-335.5" font-family="Helvetica,sans-Serif" font-size="10.00"># bool enabled</text>
<text text-anchor="start" x="8" y="-324.5" font-family="Helvetica,sans-Serif" font-size="10.00"># GameObject * parent</text>
<polyline fill="none" stroke="#666666" points="0,-317.5 195,-317.5 "/>
<text text-anchor="start" x="8" y="-305.5" font-family="Helvetica,sans-Serif" font-size="10.00">+ bool getEnabled() const</text>
<text text-anchor="start" x="8" y="-294.5" font-family="Helvetica,sans-Serif" font-size="10.00">+ void setEnabled(bool</text>
<text text-anchor="start" x="8" y="-283.5" font-family="Helvetica,sans-Serif" font-size="10.00"> value)</text>
<text text-anchor="start" x="8" y="-272.5" font-family="Helvetica,sans-Serif" font-size="10.00">+ void setParent(GameObject</text>
<text text-anchor="start" x="8" y="-261.5" font-family="Helvetica,sans-Serif" font-size="10.00"> *value)</text>
<text text-anchor="start" x="8" y="-250.5" font-family="Helvetica,sans-Serif" font-size="10.00">+ virtual ~GameObjectComponent()</text>
<text text-anchor="start" x="8" y="-239.5" font-family="Helvetica,sans-Serif" font-size="10.00">+ virtual void OnTick()=0</text>
<text text-anchor="start" x="8" y="-228.5" font-family="Helvetica,sans-Serif" font-size="10.00">+ virtual void OnStart()=0</text>
</a>
</g>
</g>
<!-- Node3&#45;&gt;Node2 -->
<g id="edge2" class="edge">
<title>Node3&#45;&gt;Node2</title>
<path fill="none" stroke="#63b8ff" d="M97.5,-211.39C97.5,-201.86 97.5,-192.71 97.5,-184.71"/>
<polygon fill="none" stroke="#63b8ff" points="94,-211.42 97.5,-221.42 101,-211.42 94,-211.42"/>
</g>
</g>
</svg>
