<?xml version="1.0" encoding="UTF-8" standalone="no"?>
<!DOCTYPE svg PUBLIC "-//W3C//DTD SVG 1.1//EN"
 "http://www.w3.org/Graphics/SVG/1.1/DTD/svg11.dtd">
<!-- Generated by graphviz version 2.43.0 (0)
 -->
<!-- Title: engine/components/behaviors/CollisionBehavior.hpp Pages: 1 -->
<svg width="981pt" height="170pt"
 viewBox="0.00 0.00 980.50 170.00" xmlns="http://www.w3.org/2000/svg" xmlns:xlink="http://www.w3.org/1999/xlink">
<g id="graph0" class="graph" transform="scale(1 1) rotate(0) translate(4 166)">
<title>engine/components/behaviors/CollisionBehavior.hpp</title>
<!-- Node1 -->
<g id="node1" class="node">
<title>Node1</title>
<g id="a_node1"><a xlink:title=" ">
<polygon fill="#999999" stroke="#666666" points="431,-162 267,-162 267,-132 431,-132 431,-162"/>
<text text-anchor="start" x="275" y="-150" font-family="Helvetica,sans-Serif" font-size="10.00">engine/components/behaviors</text>
<text text-anchor="middle" x="349" y="-139" font-family="Helvetica,sans-Serif" font-size="10.00">/CollisionBehavior.hpp</text>
</a>
</g>
</g>
<!-- Node2 -->
<g id="node2" class="node">
<title>Node2</title>
<g id="a_node2"><a xlink:href="../../d5/d92/CollisionBehavior_8cpp.html" target="_top" xlink:title=" ">
<polygon fill="white" stroke="#666666" points="164,-96 0,-96 0,-66 164,-66 164,-96"/>
<text text-anchor="start" x="8" y="-84" font-family="Helvetica,sans-Serif" font-size="10.00">engine/components/behaviors</text>
<text text-anchor="middle" x="82" y="-73" font-family="Helvetica,sans-Serif" font-size="10.00">/CollisionBehavior.cpp</text>
</a>
</g>
</g>
<!-- Node1&#45;&gt;Node2 -->
<g id="edge1" class="edge">
<title>Node1&#45;&gt;Node2</title>
<path fill="none" stroke="#63b8ff" d="M280.51,-129.58C237.17,-119.19 181.73,-105.9 140.46,-96.01"/>
<polygon fill="#63b8ff" stroke="#63b8ff" points="279.87,-133.03 290.41,-131.95 281.5,-126.22 279.87,-133.03"/>
</g>
<!-- Node3 -->
<g id="node3" class="node">
<title>Node3</title>
<g id="a_node3"><a xlink:href="../../d3/d9f/CoffeeCollisionBehavior_8hpp.html" target="_top" xlink:title=" ">
<polygon fill="white" stroke="#666666" points="339.5,-96 182.5,-96 182.5,-66 339.5,-66 339.5,-96"/>
<text text-anchor="start" x="190.5" y="-84" font-family="Helvetica,sans-Serif" font-size="10.00">game/behaviors/coffee</text>
<text text-anchor="middle" x="261" y="-73" font-family="Helvetica,sans-Serif" font-size="10.00">/CoffeeCollisionBehavior.hpp</text>
</a>
</g>
</g>
<!-- Node1&#45;&gt;Node3 -->
<g id="edge2" class="edge">
<title>Node1&#45;&gt;Node3</title>
<path fill="none" stroke="#63b8ff" d="M321.16,-125.75C307.93,-116.13 292.43,-104.86 280.48,-96.16"/>
<polygon fill="#63b8ff" stroke="#63b8ff" points="319.32,-128.75 329.47,-131.8 323.44,-123.08 319.32,-128.75"/>
</g>
<!-- Node6 -->
<g id="node6" class="node">
<title>Node6</title>
<g id="a_node6"><a xlink:href="../../dc/d17/EnemyCollisionBehavior_8hpp.html" target="_top" xlink:title=" ">
<polygon fill="white" stroke="#666666" points="516.5,-96 357.5,-96 357.5,-66 516.5,-66 516.5,-96"/>
<text text-anchor="start" x="365.5" y="-84" font-family="Helvetica,sans-Serif" font-size="10.00">game/behaviors/enemy</text>
<text text-anchor="middle" x="437" y="-73" font-family="Helvetica,sans-Serif" font-size="10.00">/EnemyCollisionBehavior.hpp</text>
</a>
</g>
</g>
<!-- Node1&#45;&gt;Node6 -->
<g id="edge5" class="edge">
<title>Node1&#45;&gt;Node6</title>
<path fill="none" stroke="#63b8ff" d="M376.84,-125.75C390.07,-116.13 405.57,-104.86 417.52,-96.16"/>
<polygon fill="#63b8ff" stroke="#63b8ff" points="374.56,-123.08 368.53,-131.8 378.68,-128.75 374.56,-123.08"/>
</g>
<!-- Node8 -->
<g id="node8" class="node">
<title>Node8</title>
<g id="a_node8"><a xlink:href="../../db/d9e/PlayerCollisionBehavior_8hpp.html" target="_top" xlink:title=" ">
<polygon fill="white" stroke="#666666" points="743,-96 587,-96 587,-66 743,-66 743,-96"/>
<text text-anchor="start" x="595" y="-84" font-family="Helvetica,sans-Serif" font-size="10.00">game/behaviors/player</text>
<text text-anchor="middle" x="665" y="-73" font-family="Helvetica,sans-Serif" font-size="10.00">/PlayerCollisionBehavior.hpp</text>
</a>
</g>
</g>
<!-- Node1&#45;&gt;Node8 -->
<g id="edge8" class="edge">
<title>Node1&#45;&gt;Node8</title>
<path fill="none" stroke="#63b8ff" d="M428.44,-129.91C479.97,-119.47 546.46,-106.01 595.81,-96.01"/>
<polygon fill="#63b8ff" stroke="#63b8ff" points="427.45,-126.54 418.35,-131.95 428.84,-133.4 427.45,-126.54"/>
</g>
<!-- Node4 -->
<g id="node4" class="node">
<title>Node4</title>
<g id="a_node4"><a xlink:href="../../d0/d59/CoffeeCollisionBehavior_8cpp.html" target="_top" xlink:title=" ">
<polygon fill="white" stroke="#666666" points="158,-30 2,-30 2,0 158,0 158,-30"/>
<text text-anchor="start" x="10" y="-18" font-family="Helvetica,sans-Serif" font-size="10.00">game/behaviors/coffee</text>
<text text-anchor="middle" x="80" y="-7" font-family="Helvetica,sans-Serif" font-size="10.00">/CoffeeCollisionBehavior.cpp</text>
</a>
</g>
</g>
<!-- Node3&#45;&gt;Node4 -->
<g id="edge3" class="edge">
<title>Node3&#45;&gt;Node4</title>
<path fill="none" stroke="#63b8ff" d="M211.76,-62.59C182.82,-52.36 146.72,-39.59 119.63,-30.01"/>
<polygon fill="#63b8ff" stroke="#63b8ff" points="210.68,-65.92 221.28,-65.95 213.02,-59.32 210.68,-65.92"/>
</g>
<!-- Node5 -->
<g id="node5" class="node">
<title>Node5</title>
<g id="a_node5"><a xlink:href="../../df/d88/GameManagerBehavior_8cpp.html" target="_top" xlink:title=" ">
<polygon fill="white" stroke="#666666" points="345.5,-30 176.5,-30 176.5,0 345.5,0 345.5,-30"/>
<text text-anchor="start" x="184.5" y="-18" font-family="Helvetica,sans-Serif" font-size="10.00">game/behaviors/gameManager</text>
<text text-anchor="middle" x="261" y="-7" font-family="Helvetica,sans-Serif" font-size="10.00">/GameManagerBehavior.cpp</text>
</a>
</g>
</g>
<!-- Node3&#45;&gt;Node5 -->
<g id="edge4" class="edge">
<title>Node3&#45;&gt;Node5</title>
<path fill="none" stroke="#63b8ff" d="M261,-55.54C261,-46.96 261,-37.61 261,-30.16"/>
<polygon fill="#63b8ff" stroke="#63b8ff" points="257.5,-55.8 261,-65.8 264.5,-55.8 257.5,-55.8"/>
</g>
<!-- Node6&#45;&gt;Node5 -->
<g id="edge7" class="edge">
<title>Node6&#45;&gt;Node5</title>
<path fill="none" stroke="#63b8ff" d="M388.76,-62.46C360.68,-52.25 325.76,-39.55 299.53,-30.01"/>
<polygon fill="#63b8ff" stroke="#63b8ff" points="387.78,-65.83 398.38,-65.95 390.17,-59.25 387.78,-65.83"/>
</g>
<!-- Node7 -->
<g id="node7" class="node">
<title>Node7</title>
<g id="a_node7"><a xlink:href="../../dd/d3b/EnemyCollisionBehavior_8cpp.html" target="_top" xlink:title=" ">
<polygon fill="white" stroke="#666666" points="521,-30 363,-30 363,0 521,0 521,-30"/>
<text text-anchor="start" x="371" y="-18" font-family="Helvetica,sans-Serif" font-size="10.00">game/behaviors/enemy</text>
<text text-anchor="middle" x="442" y="-7" font-family="Helvetica,sans-Serif" font-size="10.00">/EnemyCollisionBehavior.cpp</text>
</a>
</g>
</g>
<!-- Node6&#45;&gt;Node7 -->
<g id="edge6" class="edge">
<title>Node6&#45;&gt;Node7</title>
<path fill="none" stroke="#63b8ff" d="M438.89,-55.83C439.56,-47.17 440.3,-37.7 440.89,-30.16"/>
<polygon fill="#63b8ff" stroke="#63b8ff" points="435.4,-55.55 438.11,-65.8 442.38,-56.1 435.4,-55.55"/>
</g>
<!-- Node9 -->
<g id="node9" class="node">
<title>Node9</title>
<g id="a_node9"><a xlink:href="../../d9/dfa/Init_8cpp.html" target="_top" xlink:title=" ">
<polygon fill="white" stroke="#666666" points="622.5,-24.5 539.5,-24.5 539.5,-5.5 622.5,-5.5 622.5,-24.5"/>
<text text-anchor="middle" x="581" y="-12.5" font-family="Helvetica,sans-Serif" font-size="10.00">game/Init.cpp</text>
</a>
</g>
</g>
<!-- Node8&#45;&gt;Node9 -->
<g id="edge9" class="edge">
<title>Node8&#45;&gt;Node9</title>
<path fill="none" stroke="#63b8ff" d="M638.21,-59.58C622.84,-47.87 604.33,-33.77 592.61,-24.84"/>
<polygon fill="#63b8ff" stroke="#63b8ff" points="636.28,-62.52 646.36,-65.8 640.52,-56.95 636.28,-62.52"/>
</g>
<!-- Node10 -->
<g id="node10" class="node">
<title>Node10</title>
<g id="a_node10"><a xlink:href="../../d9/d5f/PlayerCollisionBehavior_8cpp.html" target="_top" xlink:title=" ">
<polygon fill="white" stroke="#666666" points="795.5,-30 640.5,-30 640.5,0 795.5,0 795.5,-30"/>
<text text-anchor="start" x="648.5" y="-18" font-family="Helvetica,sans-Serif" font-size="10.00">game/behaviors/player</text>
<text text-anchor="middle" x="718" y="-7" font-family="Helvetica,sans-Serif" font-size="10.00">/PlayerCollisionBehavior.cpp</text>
</a>
</g>
</g>
<!-- Node8&#45;&gt;Node10 -->
<g id="edge10" class="edge">
<title>Node8&#45;&gt;Node10</title>
<path fill="none" stroke="#63b8ff" d="M683.15,-58.09C690.8,-48.85 699.48,-38.36 706.27,-30.16"/>
<polygon fill="#63b8ff" stroke="#63b8ff" points="680.44,-55.86 676.76,-65.8 685.84,-60.33 680.44,-55.86"/>
</g>
<!-- Node11 -->
<g id="node11" class="node">
<title>Node11</title>
<g id="a_node11"><a xlink:href="../../dd/d4b/PlayerKeyboardBehavior_8cpp.html" target="_top" xlink:title=" ">
<polygon fill="white" stroke="#666666" points="972.5,-30 813.5,-30 813.5,0 972.5,0 972.5,-30"/>
<text text-anchor="start" x="821.5" y="-18" font-family="Helvetica,sans-Serif" font-size="10.00">game/behaviors/player</text>
<text text-anchor="middle" x="893" y="-7" font-family="Helvetica,sans-Serif" font-size="10.00">/PlayerKeyboardBehavior.cpp</text>
</a>
</g>
</g>
<!-- Node8&#45;&gt;Node11 -->
<g id="edge11" class="edge">
<title>Node8&#45;&gt;Node11</title>
<path fill="none" stroke="#63b8ff" d="M725.13,-63.12C761.89,-52.8 808.36,-39.76 843.08,-30.01"/>
<polygon fill="#63b8ff" stroke="#63b8ff" points="723.72,-59.88 715.04,-65.95 725.61,-66.62 723.72,-59.88"/>
</g>
</g>
</svg>
