<?xml version="1.0" encoding="UTF-8" standalone="no"?>
<!DOCTYPE svg PUBLIC "-//W3C//DTD SVG 1.1//EN"
 "http://www.w3.org/Graphics/SVG/1.1/DTD/svg11.dtd">
<!-- Generated by graphviz version 2.43.0 (0)
 -->
<!-- Title: engine/components/behaviors/CollisionBehavior.hpp Pages: 1 -->
<svg width="976pt" height="170pt"
 viewBox="0.00 0.00 975.50 170.00" xmlns="http://www.w3.org/2000/svg" xmlns:xlink="http://www.w3.org/1999/xlink">
<g id="graph0" class="graph" transform="scale(1 1) rotate(0) translate(4 166)">
<title>engine/components/behaviors/CollisionBehavior.hpp</title>
<!-- Node1 -->
<g id="Node000001" class="node">
<title>Node1</title>
<g id="a_Node000001"><a xlink:title=" ">
<polygon fill="#999999" stroke="#666666" points="431,-162 267,-162 267,-132 431,-132 431,-162"/>
<text text-anchor="start" x="275" y="-150" font-family="Helvetica,sans-Serif" font-size="10.00">engine/components/behaviors</text>
<text text-anchor="middle" x="349" y="-139" font-family="Helvetica,sans-Serif" font-size="10.00">/CollisionBehavior.hpp</text>
</a>
</g>
</g>
<!-- Node2 -->
<g id="Node000002" class="node">
<title>Node2</title>
<g id="a_Node000002"><a xlink:href="../../d5/d92/CollisionBehavior_8cpp.html" target="_top" xlink:title=" ">
<polygon fill="white" stroke="#666666" points="164,-96 0,-96 0,-66 164,-66 164,-96"/>
<text text-anchor="start" x="8" y="-84" font-family="Helvetica,sans-Serif" font-size="10.00">engine/components/behaviors</text>
<text text-anchor="middle" x="82" y="-73" font-family="Helvetica,sans-Serif" font-size="10.00">/CollisionBehavior.cpp</text>
</a>
</g>
</g>
<!-- Node1&#45;&gt;Node2 -->
<g id="edge1_Node000001_Node000002" class="edge">
<title>Node1&#45;&gt;Node2</title>
<g id="a_edge1_Node000001_Node000002"><a xlink:title=" ">
<path fill="none" stroke="#63b8ff" d="M280.51,-129.58C237.17,-119.19 181.73,-105.9 140.46,-96.01"/>
<polygon fill="#63b8ff" stroke="#63b8ff" points="279.87,-133.03 290.41,-131.95 281.5,-126.22 279.87,-133.03"/>
</a>
</g>
</g>
<!-- Node3 -->
<g id="Node000003" class="node">
<title>Node3</title>
<g id="a_Node000003"><a xlink:href="../../d3/d9f/CoffeeCollisionBehavior_8hpp.html" target="_top" xlink:title=" ">
<polygon fill="white" stroke="#666666" points="339.5,-96 182.5,-96 182.5,-66 339.5,-66 339.5,-96"/>
<text text-anchor="start" x="190.5" y="-84" font-family="Helvetica,sans-Serif" font-size="10.00">game/behaviors/coffee</text>
<text text-anchor="middle" x="261" y="-73" font-family="Helvetica,sans-Serif" font-size="10.00">/CoffeeCollisionBehavior.hpp</text>
</a>
</g>
</g>
<!-- Node1&#45;&gt;Node3 -->
<g id="edge2_Node000001_Node000003" class="edge">
<title>Node1&#45;&gt;Node3</title>
<g id="a_edge2_Node000001_Node000003"><a xlink:title=" ">
<path fill="none" stroke="#63b8ff" d="M321.16,-125.75C307.93,-116.13 292.43,-104.86 280.48,-96.16"/>
<polygon fill="#63b8ff" stroke="#63b8ff" points="319.32,-128.75 329.47,-131.8 323.44,-123.08 319.32,-128.75"/>
</a>
</g>
</g>
<!-- Node6 -->
<g id="Node000006" class="node">
<title>Node6</title>
<g id="a_Node000006"><a xlink:href="../../dc/d17/EnemyCollisionBehavior_8hpp.html" target="_top" xlink:title=" ">
<polygon fill="white" stroke="#666666" points="516.5,-96 357.5,-96 357.5,-66 516.5,-66 516.5,-96"/>
<text text-anchor="start" x="365.5" y="-84" font-family="Helvetica,sans-Serif" font-size="10.00">game/behaviors/enemy</text>
<text text-anchor="middle" x="437" y="-73" font-family="Helvetica,sans-Serif" font-size="10.00">/EnemyCollisionBehavior.hpp</text>
</a>
</g>
</g>
<!-- Node1&#45;&gt;Node6 -->
<g id="edge5_Node000001_Node000006" class="edge">
<title>Node1&#45;&gt;Node6</title>
<g id="a_edge5_Node000001_Node000006"><a xlink:title=" ">
<path fill="none" stroke="#63b8ff" d="M376.84,-125.75C390.07,-116.13 405.57,-104.86 417.52,-96.16"/>
<polygon fill="#63b8ff" stroke="#63b8ff" points="374.56,-123.08 368.53,-131.8 378.68,-128.75 374.56,-123.08"/>
</a>
</g>
</g>
<!-- Node8 -->
<g id="Node000008" class="node">
<title>Node8</title>
<g id="a_Node000008"><a xlink:href="../../db/d9e/PlayerCollisionBehavior_8hpp.html" target="_top" xlink:title=" ">
<polygon fill="white" stroke="#666666" points="741,-96 585,-96 585,-66 741,-66 741,-96"/>
<text text-anchor="start" x="593" y="-84" font-family="Helvetica,sans-Serif" font-size="10.00">game/behaviors/player</text>
<text text-anchor="middle" x="663" y="-73" font-family="Helvetica,sans-Serif" font-size="10.00">/PlayerCollisionBehavior.hpp</text>
</a>
</g>
</g>
<!-- Node1&#45;&gt;Node8 -->
<g id="edge8_Node000001_Node000008" class="edge">
<title>Node1&#45;&gt;Node8</title>
<g id="a_edge8_Node000001_Node000008"><a xlink:title=" ">
<path fill="none" stroke="#63b8ff" d="M427.94,-129.91C479.15,-119.47 545.21,-106.01 594.25,-96.01"/>
<polygon fill="#63b8ff" stroke="#63b8ff" points="427.01,-126.53 417.91,-131.95 428.41,-133.39 427.01,-126.53"/>
</a>
</g>
</g>
<!-- Node4 -->
<g id="Node000004" class="node">
<title>Node4</title>
<g id="a_Node000004"><a xlink:href="../../d5/dda/ObjectSpawning_8cpp.html" target="_top" xlink:title=" ">
<polygon fill="white" stroke="#666666" points="340,-24.5 194,-24.5 194,-5.5 340,-5.5 340,-24.5"/>
<text text-anchor="middle" x="267" y="-12.5" font-family="Helvetica,sans-Serif" font-size="10.00">game/ObjectSpawning.cpp</text>
</a>
</g>
</g>
<!-- Node3&#45;&gt;Node4 -->
<g id="edge3_Node000003_Node000004" class="edge">
<title>Node3&#45;&gt;Node4</title>
<g id="a_edge3_Node000003_Node000004"><a xlink:title=" ">
<path fill="none" stroke="#63b8ff" d="M263.29,-55.6C264.3,-44.8 265.43,-32.78 266.17,-24.84"/>
<polygon fill="#63b8ff" stroke="#63b8ff" points="259.78,-55.51 262.33,-65.8 266.75,-56.17 259.78,-55.51"/>
</a>
</g>
</g>
<!-- Node5 -->
<g id="Node000005" class="node">
<title>Node5</title>
<g id="a_Node000005"><a xlink:href="../../d0/d59/CoffeeCollisionBehavior_8cpp.html" target="_top" xlink:title=" ">
<polygon fill="white" stroke="#666666" points="176,-30 20,-30 20,0 176,0 176,-30"/>
<text text-anchor="start" x="28" y="-18" font-family="Helvetica,sans-Serif" font-size="10.00">game/behaviors/coffee</text>
<text text-anchor="middle" x="98" y="-7" font-family="Helvetica,sans-Serif" font-size="10.00">/CoffeeCollisionBehavior.cpp</text>
</a>
</g>
</g>
<!-- Node3&#45;&gt;Node5 -->
<g id="edge4_Node000003_Node000005" class="edge">
<title>Node3&#45;&gt;Node5</title>
<g id="a_edge4_Node000003_Node000005"><a xlink:title=" ">
<path fill="none" stroke="#63b8ff" d="M215.64,-62.19C189.75,-52.02 157.77,-39.47 133.69,-30.01"/>
<polygon fill="#63b8ff" stroke="#63b8ff" points="214.64,-65.56 225.23,-65.95 217.2,-59.04 214.64,-65.56"/>
</a>
</g>
</g>
<!-- Node6&#45;&gt;Node4 -->
<g id="edge6_Node000006_Node000004" class="edge">
<title>Node6&#45;&gt;Node4</title>
<g id="a_edge6_Node000006_Node000004"><a xlink:title=" ">
<path fill="none" stroke="#63b8ff" d="M390.3,-62.42C357.55,-50.09 315.2,-34.15 289.62,-24.52"/>
<polygon fill="#63b8ff" stroke="#63b8ff" points="389.1,-65.71 399.69,-65.95 391.57,-59.16 389.1,-65.71"/>
</a>
</g>
</g>
<!-- Node7 -->
<g id="Node000007" class="node">
<title>Node7</title>
<g id="a_Node000007"><a xlink:href="../../dd/d3b/EnemyCollisionBehavior_8cpp.html" target="_top" xlink:title=" ">
<polygon fill="white" stroke="#666666" points="516,-30 358,-30 358,0 516,0 516,-30"/>
<text text-anchor="start" x="366" y="-18" font-family="Helvetica,sans-Serif" font-size="10.00">game/behaviors/enemy</text>
<text text-anchor="middle" x="437" y="-7" font-family="Helvetica,sans-Serif" font-size="10.00">/EnemyCollisionBehavior.cpp</text>
</a>
</g>
</g>
<!-- Node6&#45;&gt;Node7 -->
<g id="edge7_Node000006_Node000007" class="edge">
<title>Node6&#45;&gt;Node7</title>
<g id="a_edge7_Node000006_Node000007"><a xlink:title=" ">
<path fill="none" stroke="#63b8ff" d="M437,-55.54C437,-46.96 437,-37.61 437,-30.16"/>
<polygon fill="#63b8ff" stroke="#63b8ff" points="433.5,-55.8 437,-65.8 440.5,-55.8 433.5,-55.8"/>
</a>
</g>
</g>
<!-- Node9 -->
<g id="Node000009" class="node">
<title>Node9</title>
<g id="a_Node000009"><a xlink:href="../../d9/dfa/Init_8cpp.html" target="_top" xlink:title=" ">
<polygon fill="white" stroke="#666666" points="617.5,-24.5 534.5,-24.5 534.5,-5.5 617.5,-5.5 617.5,-24.5"/>
<text text-anchor="middle" x="576" y="-12.5" font-family="Helvetica,sans-Serif" font-size="10.00">game/Init.cpp</text>
</a>
</g>
</g>
<!-- Node8&#45;&gt;Node9 -->
<g id="edge9_Node000008_Node000009" class="edge">
<title>Node8&#45;&gt;Node9</title>
<g id="a_edge9_Node000008_Node000009"><a xlink:title=" ">
<path fill="none" stroke="#63b8ff" d="M635.2,-59.55C619.18,-47.76 599.88,-33.57 587.77,-24.66"/>
<polygon fill="#63b8ff" stroke="#63b8ff" points="633.56,-62.69 643.69,-65.8 637.71,-57.05 633.56,-62.69"/>
</a>
</g>
</g>
<!-- Node10 -->
<g id="Node000010" class="node">
<title>Node10</title>
<g id="a_Node000010"><a xlink:href="../../d9/d5f/PlayerCollisionBehavior_8cpp.html" target="_top" xlink:title=" ">
<polygon fill="white" stroke="#666666" points="790.5,-30 635.5,-30 635.5,0 790.5,0 790.5,-30"/>
<text text-anchor="start" x="643.5" y="-18" font-family="Helvetica,sans-Serif" font-size="10.00">game/behaviors/player</text>
<text text-anchor="middle" x="713" y="-7" font-family="Helvetica,sans-Serif" font-size="10.00">/PlayerCollisionBehavior.cpp</text>
</a>
</g>
</g>
<!-- Node8&#45;&gt;Node10 -->
<g id="edge10_Node000008_Node000010" class="edge">
<title>Node8&#45;&gt;Node10</title>
<g id="a_edge10_Node000008_Node000010"><a xlink:title=" ">
<path fill="none" stroke="#63b8ff" d="M680.34,-57.81C687.5,-48.64 695.6,-38.28 701.93,-30.16"/>
<polygon fill="#63b8ff" stroke="#63b8ff" points="677.5,-55.76 674.1,-65.8 683.01,-60.07 677.5,-55.76"/>
</a>
</g>
</g>
<!-- Node11 -->
<g id="Node000011" class="node">
<title>Node11</title>
<g id="a_Node000011"><a xlink:href="../../dd/d4b/PlayerKeyboardBehavior_8cpp.html" target="_top" xlink:title=" ">
<polygon fill="white" stroke="#666666" points="967.5,-30 808.5,-30 808.5,0 967.5,0 967.5,-30"/>
<text text-anchor="start" x="816.5" y="-18" font-family="Helvetica,sans-Serif" font-size="10.00">game/behaviors/player</text>
<text text-anchor="middle" x="888" y="-7" font-family="Helvetica,sans-Serif" font-size="10.00">/PlayerKeyboardBehavior.cpp</text>
</a>
</g>
</g>
<!-- Node8&#45;&gt;Node11 -->
<g id="edge11_Node000008_Node000011" class="edge">
<title>Node8&#45;&gt;Node11</title>
<g id="a_edge11_Node000008_Node000011"><a xlink:title=" ">
<path fill="none" stroke="#63b8ff" d="M722.34,-63.12C758.62,-52.8 804.47,-39.76 838.74,-30.01"/>
<polygon fill="#63b8ff" stroke="#63b8ff" points="721.04,-59.85 712.38,-65.95 722.95,-66.59 721.04,-59.85"/>
</a>
</g>
</g>
</g>
</svg>
