<?xml version="1.0" encoding="UTF-8" standalone="no"?>
<!DOCTYPE svg PUBLIC "-//W3C//DTD SVG 1.1//EN"
 "http://www.w3.org/Graphics/SVG/1.1/DTD/svg11.dtd">
<!-- Generated by graphviz version 2.43.0 (0)
 -->
<!-- Title: CoffeeBehavior::OnTick Pages: 1 -->
<svg width="333pt" height="64pt"
 viewBox="0.00 0.00 333.00 64.00" xmlns="http://www.w3.org/2000/svg" xmlns:xlink="http://www.w3.org/1999/xlink">
<g id="graph0" class="graph" transform="scale(1 1) rotate(0) translate(4 60)">
<title>CoffeeBehavior::OnTick</title>
<!-- Node1 -->
<g id="node1" class="node">
<title>Node1</title>
<g id="a_node1"><a xlink:title=" ">
<polygon fill="#999999" stroke="#666666" points="131,-37 0,-37 0,-18 131,-18 131,-37"/>
<text text-anchor="middle" x="65.5" y="-25" font-family="Helvetica,sans-Serif" font-size="10.00">CoffeeBehavior::OnTick</text>
</a>
</g>
</g>
<!-- Node2 -->
<g id="node2" class="node">
<title>Node2</title>
<g id="a_node2"><a xlink:href="../../de/dfd/GameManagement_8cpp.html#ad475f3a4eb85bdc508df4f2bef777063" target="_top" xlink:title="Enqueue the destruction of a gameobject.">
<polygon fill="white" stroke="#666666" points="325,-56 167,-56 167,-37 325,-37 325,-56"/>
<text text-anchor="middle" x="246" y="-44" font-family="Helvetica,sans-Serif" font-size="10.00">EnqueueDestroyGameObject</text>
</a>
</g>
</g>
<!-- Node1&#45;&gt;Node2 -->
<g id="edge1" class="edge">
<title>Node1&#45;&gt;Node2</title>
<path fill="none" stroke="#63b8ff" d="M131.19,-34.39C139.51,-35.27 148.14,-36.19 156.76,-37.11"/>
<polygon fill="#63b8ff" stroke="#63b8ff" points="156.53,-40.6 166.84,-38.18 157.27,-33.64 156.53,-40.6"/>
</g>
<!-- Node3 -->
<g id="node3" class="node">
<title>Node3</title>
<g id="a_node3"><a xlink:href="../../de/d1c/classGameObject.html#a42b10b3fba8be162e913bd8191a22adb" target="_top" xlink:title=" ">
<polygon fill="white" stroke="#666666" points="315,-19 177,-19 177,0 315,0 315,-19"/>
<text text-anchor="middle" x="246" y="-7" font-family="Helvetica,sans-Serif" font-size="10.00">GameObject::getPosition</text>
</a>
</g>
</g>
<!-- Node1&#45;&gt;Node3 -->
<g id="edge2" class="edge">
<title>Node1&#45;&gt;Node3</title>
<path fill="none" stroke="#63b8ff" d="M131.19,-20.98C142.69,-19.82 154.78,-18.6 166.61,-17.4"/>
<polygon fill="#63b8ff" stroke="#63b8ff" points="167.32,-20.85 176.92,-16.37 166.62,-13.89 167.32,-20.85"/>
</g>
</g>
</svg>
