<?xml version="1.0" encoding="UTF-8" standalone="no"?>
<!DOCTYPE svg PUBLIC "-//W3C//DTD SVG 1.1//EN"
 "http://www.w3.org/Graphics/SVG/1.1/DTD/svg11.dtd">
<!-- Generated by graphviz version 2.43.0 (0)
 -->
<!-- Title: engine/components/renderers/RectangleRenderer.cpp Pages: 1 -->
<svg width="551pt" height="379pt"
 viewBox="0.00 0.00 551.00 379.00" xmlns="http://www.w3.org/2000/svg" xmlns:xlink="http://www.w3.org/1999/xlink">
<g id="graph0" class="graph" transform="scale(1 1) rotate(0) translate(4 375)">
<title>engine/components/renderers/RectangleRenderer.cpp</title>
<!-- Node1 -->
<g id="Node000001" class="node">
<title>Node1</title>
<g id="a_Node000001"><a xlink:title=" ">
<polygon fill="#999999" stroke="#666666" points="319,-371 157,-371 157,-341 319,-341 319,-371"/>
<text text-anchor="start" x="165" y="-359" font-family="Helvetica,sans-Serif" font-size="10.00">engine/components/renderers</text>
<text text-anchor="middle" x="238" y="-348" font-family="Helvetica,sans-Serif" font-size="10.00">/RectangleRenderer.cpp</text>
</a>
</g>
</g>
<!-- Node2 -->
<g id="Node000002" class="node">
<title>Node2</title>
<g id="a_Node000002"><a xlink:href="../../dc/daa/RectangleRenderer_8hpp.html" target="_top" xlink:title=" ">
<polygon fill="white" stroke="#666666" points="303,-305 173,-305 173,-286 303,-286 303,-305"/>
<text text-anchor="middle" x="238" y="-293" font-family="Helvetica,sans-Serif" font-size="10.00">RectangleRenderer.hpp</text>
</a>
</g>
</g>
<!-- Node1&#45;&gt;Node2 -->
<g id="edge1_Node000001_Node000002" class="edge">
<title>Node1&#45;&gt;Node2</title>
<g id="a_edge1_Node000001_Node000002"><a xlink:title=" ">
<path fill="none" stroke="#63b8ff" d="M238,-340.84C238,-333.21 238,-323.7 238,-315.45"/>
<polygon fill="#63b8ff" stroke="#63b8ff" points="241.5,-315.27 238,-305.27 234.5,-315.27 241.5,-315.27"/>
</a>
</g>
</g>
<!-- Node10 -->
<g id="Node000010" class="node">
<title>Node10</title>
<g id="a_Node000010"><a xlink:title=" ">
<polygon fill="#e0e0e0" stroke="#999999" points="88,-79.5 30,-79.5 30,-60.5 88,-60.5 88,-79.5"/>
<text text-anchor="middle" x="59" y="-67.5" font-family="Helvetica,sans-Serif" font-size="10.00">memory</text>
</a>
</g>
</g>
<!-- Node1&#45;&gt;Node10 -->
<g id="edge21_Node000001_Node000010" class="edge">
<title>Node1&#45;&gt;Node10</title>
<g id="a_edge21_Node000001_Node000010"><a xlink:title=" ">
<path fill="none" stroke="#63b8ff" d="M156.76,-349.17C87.81,-339.27 0,-312.68 0,-241.5 0,-241.5 0,-241.5 0,-184.5 0,-146.24 26.72,-108.08 44.19,-87.21"/>
<polygon fill="#63b8ff" stroke="#63b8ff" points="46.88,-89.45 50.8,-79.61 41.59,-84.86 46.88,-89.45"/>
</a>
</g>
</g>
<!-- Node13 -->
<g id="Node000013" class="node">
<title>Node13</title>
<g id="a_Node000013"><a xlink:title=" ">
<polygon fill="#e0e0e0" stroke="#999999" points="209,-195 101,-195 101,-176 209,-176 209,-195"/>
<text text-anchor="middle" x="155" y="-183" font-family="Helvetica,sans-Serif" font-size="10.00">SDL3/SDL_render.h</text>
</a>
</g>
</g>
<!-- Node1&#45;&gt;Node13 -->
<g id="edge19_Node000001_Node000013" class="edge">
<title>Node1&#45;&gt;Node13</title>
<g id="a_edge19_Node000001_Node000013"><a xlink:title=" ">
<path fill="none" stroke="#63b8ff" d="M202.75,-340.96C167.85,-324.87 116.59,-294.81 95,-250 85.24,-229.74 106.92,-211.64 126.89,-200"/>
<polygon fill="#63b8ff" stroke="#63b8ff" points="128.73,-202.99 135.83,-195.12 125.37,-196.84 128.73,-202.99"/>
</a>
</g>
</g>
<!-- Node15 -->
<g id="Node000015" class="node">
<title>Node15</title>
<g id="a_Node000015"><a xlink:title=" ">
<polygon fill="#e0e0e0" stroke="#999999" points="543,-250 447,-250 447,-231 543,-231 543,-250"/>
<text text-anchor="middle" x="495" y="-238" font-family="Helvetica,sans-Serif" font-size="10.00">SDL3/SDL_rect.h</text>
</a>
</g>
</g>
<!-- Node1&#45;&gt;Node15 -->
<g id="edge18_Node000001_Node000015" class="edge">
<title>Node1&#45;&gt;Node15</title>
<g id="a_edge18_Node000001_Node000015"><a xlink:title=" ">
<path fill="none" stroke="#63b8ff" d="M257.58,-340.96C279.48,-325.76 316.43,-301.6 351,-286 382.58,-271.75 420,-260.34 448.79,-252.64"/>
<polygon fill="#63b8ff" stroke="#63b8ff" points="449.8,-255.99 458.58,-250.07 448.02,-249.22 449.8,-255.99"/>
</a>
</g>
</g>
<!-- Node16 -->
<g id="Node000016" class="node">
<title>Node16</title>
<g id="a_Node000016"><a xlink:title=" ">
<polygon fill="#e0e0e0" stroke="#999999" points="472.5,-305 359.5,-305 359.5,-286 472.5,-286 472.5,-305"/>
<text text-anchor="middle" x="416" y="-293" font-family="Helvetica,sans-Serif" font-size="10.00">SDL3/SDL_surface.h</text>
</a>
</g>
</g>
<!-- Node1&#45;&gt;Node16 -->
<g id="edge20_Node000001_Node000016" class="edge">
<title>Node1&#45;&gt;Node16</title>
<g id="a_edge20_Node000001_Node000016"><a xlink:title=" ">
<path fill="none" stroke="#63b8ff" d="M280.64,-340.99C311.09,-330.98 351.59,-317.67 380.33,-308.22"/>
<polygon fill="#63b8ff" stroke="#63b8ff" points="381.57,-311.5 389.97,-305.05 379.38,-304.85 381.57,-311.5"/>
</a>
</g>
</g>
<!-- Node3 -->
<g id="Node000003" class="node">
<title>Node3</title>
<g id="a_Node000003"><a xlink:href="../../d9/d4a/Vector2_8hpp.html" target="_top" xlink:title=" ">
<polygon fill="white" stroke="#666666" points="520,-79.5 428,-79.5 428,-60.5 520,-60.5 520,-79.5"/>
<text text-anchor="middle" x="474" y="-67.5" font-family="Helvetica,sans-Serif" font-size="10.00">../../Vector2.hpp</text>
</a>
</g>
</g>
<!-- Node2&#45;&gt;Node3 -->
<g id="edge2_Node000002_Node000003" class="edge">
<title>Node2&#45;&gt;Node3</title>
<g id="a_edge2_Node000002_Node000003"><a xlink:title=" ">
<path fill="none" stroke="#63b8ff" d="M276.25,-285.95C300.97,-279.1 332.9,-267.67 357,-250 415.34,-207.23 452.65,-125.87 467.15,-89.44"/>
<polygon fill="#63b8ff" stroke="#63b8ff" points="470.58,-90.26 470.91,-79.67 464.05,-87.75 470.58,-90.26"/>
</a>
</g>
</g>
<!-- Node4 -->
<g id="Node000004" class="node">
<title>Node4</title>
<g id="a_Node000004"><a xlink:href="../../dd/db8/Renderer_8hpp.html" target="_top" xlink:title=" ">
<polygon fill="white" stroke="#666666" points="347.5,-250 266.5,-250 266.5,-231 347.5,-231 347.5,-250"/>
<text text-anchor="middle" x="307" y="-238" font-family="Helvetica,sans-Serif" font-size="10.00">Renderer.hpp</text>
</a>
</g>
</g>
<!-- Node2&#45;&gt;Node4 -->
<g id="edge3_Node000002_Node000004" class="edge">
<title>Node2&#45;&gt;Node4</title>
<g id="a_edge3_Node000002_Node000004"><a xlink:title=" ">
<path fill="none" stroke="#63b8ff" d="M249.09,-285.98C259.49,-278 275.26,-265.88 287.72,-256.31"/>
<polygon fill="#63b8ff" stroke="#63b8ff" points="289.91,-259.04 295.71,-250.17 285.65,-253.49 289.91,-259.04"/>
</a>
</g>
</g>
<!-- Node2&#45;&gt;Node10 -->
<g id="edge17_Node000002_Node000010" class="edge">
<title>Node2&#45;&gt;Node10</title>
<g id="a_edge17_Node000002_Node000010"><a xlink:title=" ">
<path fill="none" stroke="#63b8ff" d="M172.77,-288.86C145.11,-283.15 114.76,-271.92 95,-250 54.01,-204.54 54.37,-125.82 57.03,-89.87"/>
<polygon fill="#63b8ff" stroke="#63b8ff" points="60.52,-90.08 57.92,-79.81 53.55,-89.46 60.52,-90.08"/>
</a>
</g>
</g>
<!-- Node2&#45;&gt;Node13 -->
<g id="edge16_Node000002_Node000013" class="edge">
<title>Node2&#45;&gt;Node13</title>
<g id="a_edge16_Node000002_Node000013"><a xlink:title=" ">
<path fill="none" stroke="#63b8ff" d="M237.24,-285.9C235.71,-272.9 231.29,-247.96 219,-231 209.61,-218.04 195.23,-207.55 182.48,-200.02"/>
<polygon fill="#63b8ff" stroke="#63b8ff" points="184.02,-196.87 173.58,-195.07 180.62,-202.99 184.02,-196.87"/>
</a>
</g>
</g>
<!-- Node14 -->
<g id="Node000014" class="node">
<title>Node14</title>
<g id="a_Node000014"><a xlink:title=" ">
<polygon fill="#e0e0e0" stroke="#999999" points="210,-250 104,-250 104,-231 210,-231 210,-250"/>
<text text-anchor="middle" x="157" y="-238" font-family="Helvetica,sans-Serif" font-size="10.00">SDL3/SDL_pixels.h</text>
</a>
</g>
</g>
<!-- Node2&#45;&gt;Node14 -->
<g id="edge14_Node000002_Node000014" class="edge">
<title>Node2&#45;&gt;Node14</title>
<g id="a_edge14_Node000002_Node000014"><a xlink:title=" ">
<path fill="none" stroke="#63b8ff" d="M224.99,-285.98C212.54,-277.84 193.54,-265.41 178.79,-255.76"/>
<polygon fill="#63b8ff" stroke="#63b8ff" points="180.54,-252.72 170.25,-250.17 176.7,-258.57 180.54,-252.72"/>
</a>
</g>
</g>
<!-- Node2&#45;&gt;Node15 -->
<g id="edge15_Node000002_Node000015" class="edge">
<title>Node2&#45;&gt;Node15</title>
<g id="a_edge15_Node000002_Node000015"><a xlink:title=" ">
<path fill="none" stroke="#63b8ff" d="M279.29,-285.98C323.93,-276.78 395.16,-262.09 443.45,-252.13"/>
<polygon fill="#63b8ff" stroke="#63b8ff" points="444.3,-255.53 453.38,-250.08 442.88,-248.67 444.3,-255.53"/>
</a>
</g>
</g>
<!-- Node5 -->
<g id="Node000005" class="node">
<title>Node5</title>
<g id="a_Node000005"><a xlink:href="../../d2/d69/GameObjectComponent_8hpp.html" target="_top" xlink:title=" ">
<polygon fill="white" stroke="#666666" points="391,-195 227,-195 227,-176 391,-176 391,-195"/>
<text text-anchor="middle" x="309" y="-183" font-family="Helvetica,sans-Serif" font-size="10.00">../GameObjectComponent.hpp</text>
</a>
</g>
</g>
<!-- Node4&#45;&gt;Node5 -->
<g id="edge4_Node000004_Node000005" class="edge">
<title>Node4&#45;&gt;Node5</title>
<g id="a_edge4_Node000004_Node000005"><a xlink:title=" ">
<path fill="none" stroke="#63b8ff" d="M307.33,-230.75C307.59,-223.8 307.97,-213.85 308.3,-205.13"/>
<polygon fill="#63b8ff" stroke="#63b8ff" points="311.8,-205.21 308.68,-195.09 304.8,-204.95 311.8,-205.21"/>
</a>
</g>
</g>
<!-- Node4&#45;&gt;Node13 -->
<g id="edge13_Node000004_Node000013" class="edge">
<title>Node4&#45;&gt;Node13</title>
<g id="a_edge13_Node000004_Node000013"><a xlink:title=" ">
<path fill="none" stroke="#63b8ff" d="M282.58,-230.98C257.28,-222.16 217.55,-208.31 189.14,-198.41"/>
<polygon fill="#63b8ff" stroke="#63b8ff" points="190.21,-195.07 179.61,-195.08 187.9,-201.68 190.21,-195.07"/>
</a>
</g>
</g>
<!-- Node6 -->
<g id="Node000006" class="node">
<title>Node6</title>
<g id="a_Node000006"><a xlink:title=" ">
<polygon fill="#e0e0e0" stroke="#999999" points="237.5,-140 184.5,-140 184.5,-121 237.5,-121 237.5,-140"/>
<text text-anchor="middle" x="211" y="-128" font-family="Helvetica,sans-Serif" font-size="10.00">cstddef</text>
</a>
</g>
</g>
<!-- Node5&#45;&gt;Node6 -->
<g id="edge5_Node000005_Node000006" class="edge">
<title>Node5&#45;&gt;Node6</title>
<g id="a_edge5_Node000005_Node000006"><a xlink:title=" ">
<path fill="none" stroke="#63b8ff" d="M293.25,-175.98C277.77,-167.61 253.91,-154.7 235.86,-144.95"/>
<polygon fill="#63b8ff" stroke="#63b8ff" points="237.49,-141.85 227.03,-140.17 234.16,-148.01 237.49,-141.85"/>
</a>
</g>
</g>
<!-- Node7 -->
<g id="Node000007" class="node">
<title>Node7</title>
<g id="a_Node000007"><a xlink:href="../../d4/db5/GameObject_8hpp.html" target="_top" xlink:title=" ">
<polygon fill="white" stroke="#666666" points="362.5,-140 255.5,-140 255.5,-121 362.5,-121 362.5,-140"/>
<text text-anchor="middle" x="309" y="-128" font-family="Helvetica,sans-Serif" font-size="10.00">../GameObject.hpp</text>
</a>
</g>
</g>
<!-- Node5&#45;&gt;Node7 -->
<g id="edge6_Node000005_Node000007" class="edge">
<title>Node5&#45;&gt;Node7</title>
<g id="a_edge6_Node000005_Node000007"><a xlink:title=" ">
<path fill="none" stroke="#63b8ff" d="M309,-175.75C309,-168.8 309,-158.85 309,-150.13"/>
<polygon fill="#63b8ff" stroke="#63b8ff" points="312.5,-150.09 309,-140.09 305.5,-150.09 312.5,-150.09"/>
</a>
</g>
</g>
<!-- Node7&#45;&gt;Node3 -->
<g id="edge7_Node000007_Node000003" class="edge">
<title>Node7&#45;&gt;Node3</title>
<g id="a_edge7_Node000007_Node000003"><a xlink:title=" ">
<path fill="none" stroke="#63b8ff" d="M332.99,-120.99C361.22,-110.99 408.28,-94.3 440.19,-82.99"/>
<polygon fill="#63b8ff" stroke="#63b8ff" points="441.72,-86.16 449.98,-79.52 439.38,-79.56 441.72,-86.16"/>
</a>
</g>
</g>
<!-- Node8 -->
<g id="Node000008" class="node">
<title>Node8</title>
<g id="a_Node000008"><a xlink:href="../../d4/d71/ComponentNotFoundException_8hpp.html" target="_top" xlink:title=" ">
<polygon fill="white" stroke="#666666" points="410,-85 234,-85 234,-55 410,-55 410,-85"/>
<text text-anchor="start" x="242" y="-73" font-family="Helvetica,sans-Serif" font-size="10.00">exceptions/ComponentNotFound</text>
<text text-anchor="middle" x="322" y="-62" font-family="Helvetica,sans-Serif" font-size="10.00">Exception.hpp</text>
</a>
</g>
</g>
<!-- Node7&#45;&gt;Node8 -->
<g id="edge8_Node000007_Node000008" class="edge">
<title>Node7&#45;&gt;Node8</title>
<g id="a_edge8_Node000007_Node000008"><a xlink:title=" ">
<path fill="none" stroke="#63b8ff" d="M310.92,-120.87C312.44,-114.03 314.64,-104.14 316.67,-94.97"/>
<polygon fill="#63b8ff" stroke="#63b8ff" points="320.11,-95.64 318.86,-85.11 313.28,-94.12 320.11,-95.64"/>
</a>
</g>
</g>
<!-- Node7&#45;&gt;Node10 -->
<g id="edge10_Node000007_Node000010" class="edge">
<title>Node7&#45;&gt;Node10</title>
<g id="a_edge10_Node000007_Node000010"><a xlink:title=" ">
<path fill="none" stroke="#63b8ff" d="M257.94,-120.95C214.68,-113.19 151.22,-100.59 97,-85 94.72,-84.34 92.38,-83.62 90.04,-82.85"/>
<polygon fill="#63b8ff" stroke="#63b8ff" points="91.12,-79.52 80.52,-79.55 88.82,-86.13 91.12,-79.52"/>
</a>
</g>
</g>
<!-- Node11 -->
<g id="Node000011" class="node">
<title>Node11</title>
<g id="a_Node000011"><a xlink:title=" ">
<polygon fill="#e0e0e0" stroke="#999999" points="150,-79.5 106,-79.5 106,-60.5 150,-60.5 150,-79.5"/>
<text text-anchor="middle" x="128" y="-67.5" font-family="Helvetica,sans-Serif" font-size="10.00">string</text>
</a>
</g>
</g>
<!-- Node7&#45;&gt;Node11 -->
<g id="edge11_Node000007_Node000011" class="edge">
<title>Node7&#45;&gt;Node11</title>
<g id="a_edge11_Node000007_Node000011"><a xlink:title=" ">
<path fill="none" stroke="#63b8ff" d="M275.51,-120.96C244.82,-112.82 198.33,-99.64 159,-85 157.79,-84.55 156.55,-84.07 155.31,-83.58"/>
<polygon fill="#63b8ff" stroke="#63b8ff" points="156.43,-80.25 145.86,-79.56 153.7,-86.69 156.43,-80.25"/>
</a>
</g>
</g>
<!-- Node12 -->
<g id="Node000012" class="node">
<title>Node12</title>
<g id="a_Node000012"><a xlink:title=" ">
<polygon fill="#e0e0e0" stroke="#999999" points="215.5,-79.5 168.5,-79.5 168.5,-60.5 215.5,-60.5 215.5,-79.5"/>
<text text-anchor="middle" x="192" y="-67.5" font-family="Helvetica,sans-Serif" font-size="10.00">vector</text>
</a>
</g>
</g>
<!-- Node7&#45;&gt;Node12 -->
<g id="edge12_Node000007_Node000012" class="edge">
<title>Node7&#45;&gt;Node12</title>
<g id="a_edge12_Node000007_Node000012"><a xlink:title=" ">
<path fill="none" stroke="#63b8ff" d="M291.99,-120.99C272.58,-111.29 240.61,-95.31 218.06,-84.03"/>
<polygon fill="#63b8ff" stroke="#63b8ff" points="219.54,-80.86 209.03,-79.52 216.41,-87.12 219.54,-80.86"/>
</a>
</g>
</g>
<!-- Node9 -->
<g id="Node000009" class="node">
<title>Node9</title>
<g id="a_Node000009"><a xlink:title=" ">
<polygon fill="#e0e0e0" stroke="#999999" points="354.5,-19 289.5,-19 289.5,0 354.5,0 354.5,-19"/>
<text text-anchor="middle" x="322" y="-7" font-family="Helvetica,sans-Serif" font-size="10.00">exception</text>
</a>
</g>
</g>
<!-- Node8&#45;&gt;Node9 -->
<g id="edge9_Node000008_Node000009" class="edge">
<title>Node8&#45;&gt;Node9</title>
<g id="a_edge9_Node000008_Node000009"><a xlink:title=" ">
<path fill="none" stroke="#63b8ff" d="M322,-54.84C322,-47.21 322,-37.7 322,-29.45"/>
<polygon fill="#63b8ff" stroke="#63b8ff" points="325.5,-29.27 322,-19.27 318.5,-29.27 325.5,-29.27"/>
</a>
</g>
</g>
</g>
</svg>
