<?xml version="1.0" encoding="UTF-8" standalone="no"?>
<!DOCTYPE svg PUBLIC "-//W3C//DTD SVG 1.1//EN"
 "http://www.w3.org/Graphics/SVG/1.1/DTD/svg11.dtd">
<!-- Generated by graphviz version 2.43.0 (0)
 -->
<!-- Title: PlayerCollisionBehavior::BeforeCollision Pages: 1 -->
<svg width="487pt" height="198pt"
 viewBox="0.00 0.00 487.00 198.00" xmlns="http://www.w3.org/2000/svg" xmlns:xlink="http://www.w3.org/1999/xlink">
<g id="graph0" class="graph" transform="scale(1 1) rotate(0) translate(4 194)">
<title>PlayerCollisionBehavior::BeforeCollision</title>
<!-- Node1 -->
<g id="Node000001" class="node">
<title>Node1</title>
<g id="a_Node000001"><a xlink:title="The action to be taken when the object will collide next frame.">
<polygon fill="#999999" stroke="#666666" points="133,-110 0,-110 0,-80 133,-80 133,-110"/>
<text text-anchor="start" x="8" y="-98" font-family="Helvetica,sans-Serif" font-size="10.00">PlayerCollisionBehavior</text>
<text text-anchor="middle" x="66.5" y="-87" font-family="Helvetica,sans-Serif" font-size="10.00">::BeforeCollision</text>
</a>
</g>
</g>
<!-- Node2 -->
<g id="Node000002" class="node">
<title>Node2</title>
<g id="a_Node000002"><a xlink:href="../../d9/df0/classCollisionBehavior.html#a0c34702a6be76c4f927fc4d943534563" target="_top" xlink:title=" ">
<polygon fill="white" stroke="#666666" points="302,-190 194,-190 194,-160 302,-160 302,-190"/>
<text text-anchor="start" x="202" y="-178" font-family="Helvetica,sans-Serif" font-size="10.00">CollisionBehavior::</text>
<text text-anchor="middle" x="248" y="-167" font-family="Helvetica,sans-Serif" font-size="10.00">CollisionBehavior</text>
</a>
</g>
</g>
<!-- Node1&#45;&gt;Node2 -->
<g id="edge1_Node000001_Node000002" class="edge">
<title>Node1&#45;&gt;Node2</title>
<g id="a_edge1_Node000001_Node000002"><a xlink:title=" ">
<path fill="none" stroke="#63b8ff" d="M91.41,-110.03C111.54,-122.24 141.4,-139.29 169,-151 173.77,-153.02 178.77,-154.96 183.83,-156.79"/>
<polygon fill="#63b8ff" stroke="#63b8ff" points="183.01,-160.21 193.61,-160.18 185.3,-153.6 183.01,-160.21"/>
</a>
</g>
</g>
<!-- Node3 -->
<g id="Node000003" class="node">
<title>Node3</title>
<g id="a_Node000003"><a xlink:href="../../d2/d41/ObjectManagement_8cpp.html#ad475f3a4eb85bdc508df4f2bef777063" target="_top" xlink:title="Enqueue the destruction of a gameobject.">
<polygon fill="white" stroke="#666666" points="327,-141.5 169,-141.5 169,-122.5 327,-122.5 327,-141.5"/>
<text text-anchor="middle" x="248" y="-129.5" font-family="Helvetica,sans-Serif" font-size="10.00">EnqueueDestroyGameObject</text>
</a>
</g>
</g>
<!-- Node1&#45;&gt;Node3 -->
<g id="edge2_Node000001_Node000003" class="edge">
<title>Node1&#45;&gt;Node3</title>
<g id="a_edge2_Node000001_Node000003"><a xlink:title=" ">
<path fill="none" stroke="#63b8ff" d="M133.07,-108.51C151.99,-112.42 172.47,-116.64 190.78,-120.41"/>
<polygon fill="#63b8ff" stroke="#63b8ff" points="190.2,-123.87 200.7,-122.46 191.61,-117.01 190.2,-123.87"/>
</a>
</g>
</g>
<!-- Node4 -->
<g id="Node000004" class="node">
<title>Node4</title>
<g id="a_Node000004"><a xlink:href="../../d1/d99/Lifecycle_8cpp.html#ad536aa20f0ce6646cd9226485b75fe7d" target="_top" xlink:title="Perform actions for player death.">
<polygon fill="white" stroke="#666666" points="282.5,-104.5 213.5,-104.5 213.5,-85.5 282.5,-85.5 282.5,-104.5"/>
<text text-anchor="middle" x="248" y="-92.5" font-family="Helvetica,sans-Serif" font-size="10.00">GameOver</text>
</a>
</g>
</g>
<!-- Node1&#45;&gt;Node4 -->
<g id="edge3_Node000001_Node000004" class="edge">
<title>Node1&#45;&gt;Node4</title>
<g id="a_edge3_Node000001_Node000004"><a xlink:title=" ">
<path fill="none" stroke="#63b8ff" d="M133.07,-95C156.37,-95 182.02,-95 203.08,-95"/>
<polygon fill="#63b8ff" stroke="#63b8ff" points="203.32,-98.5 213.32,-95 203.32,-91.5 203.32,-98.5"/>
</a>
</g>
</g>
<!-- Node6 -->
<g id="Node000006" class="node">
<title>Node6</title>
<g id="a_Node000006"><a xlink:href="../../d2/d41/ObjectManagement_8cpp.html#aac3242e5255470d798c2e0d2d69799b2" target="_top" xlink:title="Try to get a gameobject by tag.">
<polygon fill="white" stroke="#666666" points="310,-67.5 186,-67.5 186,-48.5 310,-48.5 310,-67.5"/>
<text text-anchor="middle" x="248" y="-55.5" font-family="Helvetica,sans-Serif" font-size="10.00">GetGameObjectByTag</text>
</a>
</g>
</g>
<!-- Node1&#45;&gt;Node6 -->
<g id="edge5_Node000001_Node000006" class="edge">
<title>Node1&#45;&gt;Node6</title>
<g id="a_edge5_Node000001_Node000006"><a xlink:title=" ">
<path fill="none" stroke="#63b8ff" d="M133.07,-81.49C151.99,-77.58 172.47,-73.36 190.78,-69.59"/>
<polygon fill="#63b8ff" stroke="#63b8ff" points="191.61,-72.99 200.7,-67.54 190.2,-66.13 191.61,-72.99"/>
</a>
</g>
</g>
<!-- Node7 -->
<g id="Node000007" class="node">
<title>Node7</title>
<g id="a_Node000007"><a xlink:href="../../d9/df7/classGameObjectComponent.html#adff0c3c42b08247174024aadcf5f0942" target="_top" xlink:title=" ">
<polygon fill="white" stroke="#666666" points="315,-30 181,-30 181,0 315,0 315,-30"/>
<text text-anchor="start" x="189" y="-18" font-family="Helvetica,sans-Serif" font-size="10.00">GameObjectComponent</text>
<text text-anchor="middle" x="248" y="-7" font-family="Helvetica,sans-Serif" font-size="10.00">::setEnabled</text>
</a>
</g>
</g>
<!-- Node1&#45;&gt;Node7 -->
<g id="edge6_Node000001_Node000007" class="edge">
<title>Node1&#45;&gt;Node7</title>
<g id="a_edge6_Node000001_Node000007"><a xlink:title=" ">
<path fill="none" stroke="#63b8ff" d="M92.3,-79.87C112.46,-67.98 141.9,-51.56 169,-40 174.36,-37.71 180.01,-35.51 185.71,-33.44"/>
<polygon fill="#63b8ff" stroke="#63b8ff" points="187.04,-36.68 195.31,-30.07 184.72,-30.08 187.04,-36.68"/>
</a>
</g>
</g>
<!-- Node5 -->
<g id="Node000005" class="node">
<title>Node5</title>
<g id="a_Node000005"><a xlink:href="../../de/dfd/GameManagement_8cpp.html#aed50a83106078c6c5b5321eb0734c42e" target="_top" xlink:title="Enqueue a reset of the game to be performed on the next frame.">
<polygon fill="white" stroke="#666666" points="479,-104.5 363,-104.5 363,-85.5 479,-85.5 479,-104.5"/>
<text text-anchor="middle" x="421" y="-92.5" font-family="Helvetica,sans-Serif" font-size="10.00">EnqueueGameReset</text>
</a>
</g>
</g>
<!-- Node4&#45;&gt;Node5 -->
<g id="edge4_Node000004_Node000005" class="edge">
<title>Node4&#45;&gt;Node5</title>
<g id="a_edge4_Node000004_Node000005"><a xlink:title=" ">
<path fill="none" stroke="#63b8ff" d="M282.78,-95C302.71,-95 328.65,-95 352.6,-95"/>
<polygon fill="#63b8ff" stroke="#63b8ff" points="352.71,-98.5 362.71,-95 352.71,-91.5 352.71,-98.5"/>
</a>
</g>
</g>
</g>
</svg>
