<?xml version="1.0" encoding="UTF-8" standalone="no"?>
<!DOCTYPE svg PUBLIC "-//W3C//DTD SVG 1.1//EN"
 "http://www.w3.org/Graphics/SVG/1.1/DTD/svg11.dtd">
<!-- Generated by graphviz version 2.43.0 (0)
 -->
<!-- Title: PlayerCollisionBehavior::BeforeCollision Pages: 1 -->
<svg width="507pt" height="347pt"
 viewBox="0.00 0.00 507.00 347.00" xmlns="http://www.w3.org/2000/svg" xmlns:xlink="http://www.w3.org/1999/xlink">
<g id="graph0" class="graph" transform="scale(1 1) rotate(0) translate(4 343)">
<title>PlayerCollisionBehavior::BeforeCollision</title>
<!-- Node1 -->
<g id="node1" class="node">
<title>Node1</title>
<g id="a_node1"><a xlink:title="The action to be taken when the object will collide next frame.">
<polygon fill="#999999" stroke="#666666" points="133,-184.5 0,-184.5 0,-154.5 133,-154.5 133,-184.5"/>
<text text-anchor="start" x="8" y="-172.5" font-family="Helvetica,sans-Serif" font-size="10.00">PlayerCollisionBehavior</text>
<text text-anchor="middle" x="66.5" y="-161.5" font-family="Helvetica,sans-Serif" font-size="10.00">::BeforeCollision</text>
</a>
</g>
</g>
<!-- Node2 -->
<g id="node2" class="node">
<title>Node2</title>
<g id="a_node2"><a xlink:href="../../de/dfd/GameManagement_8cpp.html#ad475f3a4eb85bdc508df4f2bef777063" target="_top" xlink:title="Enqueue the destruction of a gameobject.">
<polygon fill="white" stroke="#666666" points="337,-339 179,-339 179,-320 337,-320 337,-339"/>
<text text-anchor="middle" x="258" y="-327" font-family="Helvetica,sans-Serif" font-size="10.00">EnqueueDestroyGameObject</text>
</a>
</g>
</g>
<!-- Node1&#45;&gt;Node2 -->
<g id="edge1" class="edge">
<title>Node1&#45;&gt;Node2</title>
<path fill="none" stroke="#63b8ff" d="M73.8,-184.82C86.83,-214.44 119.7,-279.48 169,-311.5 171.45,-313.09 174.02,-314.55 176.67,-315.88"/>
<polygon fill="#63b8ff" stroke="#63b8ff" points="175.38,-319.14 185.95,-319.94 178.19,-312.72 175.38,-319.14"/>
</g>
<!-- Node3 -->
<g id="node3" class="node">
<title>Node3</title>
<g id="a_node3"><a xlink:href="../../d1/d99/Lifecycle_8cpp.html#ad536aa20f0ce6646cd9226485b75fe7d" target="_top" xlink:title="Perform actions for player death.">
<polygon fill="white" stroke="#666666" points="292.5,-302 223.5,-302 223.5,-283 292.5,-283 292.5,-302"/>
<text text-anchor="middle" x="258" y="-290" font-family="Helvetica,sans-Serif" font-size="10.00">GameOver</text>
</a>
</g>
</g>
<!-- Node1&#45;&gt;Node3 -->
<g id="edge2" class="edge">
<title>Node1&#45;&gt;Node3</title>
<path fill="none" stroke="#63b8ff" d="M77.7,-184.6C94.09,-207.61 128.6,-251.16 169,-273.5 182.45,-280.94 198.54,-285.46 213.27,-288.22"/>
<polygon fill="#63b8ff" stroke="#63b8ff" points="212.77,-291.68 223.2,-289.86 213.91,-284.77 212.77,-291.68"/>
</g>
<!-- Node5 -->
<g id="node5" class="node">
<title>Node5</title>
<g id="a_node5"><a xlink:href="../../d9/df0/classCollisionBehavior.html#a9f12b7818bb5e34ee88d3203da141f5e" target="_top" xlink:title=" ">
<polygon fill="white" stroke="#666666" points="312,-264.5 204,-264.5 204,-234.5 312,-234.5 312,-264.5"/>
<text text-anchor="start" x="212" y="-252.5" font-family="Helvetica,sans-Serif" font-size="10.00">CollisionBehavior::</text>
<text text-anchor="middle" x="258" y="-241.5" font-family="Helvetica,sans-Serif" font-size="10.00">getColliderSize</text>
</a>
</g>
</g>
<!-- Node1&#45;&gt;Node5 -->
<g id="edge4" class="edge">
<title>Node1&#45;&gt;Node5</title>
<path fill="none" stroke="#63b8ff" d="M90.91,-184.52C110.98,-196.88 141.02,-214.16 169,-225.5 177,-228.74 185.58,-231.69 194.13,-234.33"/>
<polygon fill="#63b8ff" stroke="#63b8ff" points="193.16,-237.69 203.74,-237.17 195.14,-230.98 193.16,-237.69"/>
</g>
<!-- Node6 -->
<g id="node6" class="node">
<title>Node6</title>
<g id="a_node6"><a xlink:href="../../de/d1c/classGameObject.html#add821214112e834e8c5800142fe31a0e" target="_top" xlink:title="Get the first component that matches the type T.">
<polygon fill="white" stroke="#666666" points="347,-216 169,-216 169,-197 347,-197 347,-216"/>
<text text-anchor="middle" x="258" y="-204" font-family="Helvetica,sans-Serif" font-size="10.00">GameObject::GetFirstComponent</text>
</a>
</g>
</g>
<!-- Node1&#45;&gt;Node6 -->
<g id="edge5" class="edge">
<title>Node1&#45;&gt;Node6</title>
<path fill="none" stroke="#63b8ff" d="M133.25,-182.34C154.38,-186.46 177.63,-191 198.23,-195.02"/>
<polygon fill="#63b8ff" stroke="#63b8ff" points="197.62,-198.47 208.1,-196.95 198.96,-191.6 197.62,-198.47"/>
</g>
<!-- Node7 -->
<g id="node7" class="node">
<title>Node7</title>
<g id="a_node7"><a xlink:href="../../de/dfd/GameManagement_8cpp.html#aac3242e5255470d798c2e0d2d69799b2" target="_top" xlink:title="Try to get a gameobject by tag.">
<polygon fill="white" stroke="#666666" points="320,-179 196,-179 196,-160 320,-160 320,-179"/>
<text text-anchor="middle" x="258" y="-167" font-family="Helvetica,sans-Serif" font-size="10.00">GetGameObjectByTag</text>
</a>
</g>
</g>
<!-- Node1&#45;&gt;Node7 -->
<g id="edge6" class="edge">
<title>Node1&#45;&gt;Node7</title>
<path fill="none" stroke="#63b8ff" d="M133.25,-169.5C150.22,-169.5 168.58,-169.5 185.82,-169.5"/>
<polygon fill="#63b8ff" stroke="#63b8ff" points="185.82,-173 195.82,-169.5 185.82,-166 185.82,-173"/>
</g>
<!-- Node8 -->
<g id="node8" class="node">
<title>Node8</title>
<g id="a_node8"><a xlink:href="../../de/d1c/classGameObject.html#a42b10b3fba8be162e913bd8191a22adb" target="_top" xlink:title=" ">
<polygon fill="white" stroke="#666666" points="327,-142 189,-142 189,-123 327,-123 327,-142"/>
<text text-anchor="middle" x="258" y="-130" font-family="Helvetica,sans-Serif" font-size="10.00">GameObject::getPosition</text>
</a>
</g>
</g>
<!-- Node1&#45;&gt;Node8 -->
<g id="edge7" class="edge">
<title>Node1&#45;&gt;Node8</title>
<path fill="none" stroke="#63b8ff" d="M133.25,-156.66C154.38,-152.54 177.63,-148 198.23,-143.98"/>
<polygon fill="#63b8ff" stroke="#63b8ff" points="198.96,-147.4 208.1,-142.05 197.62,-140.53 198.96,-147.4"/>
</g>
<!-- Node9 -->
<g id="node9" class="node">
<title>Node9</title>
<g id="a_node9"><a xlink:href="../../de/d1c/classGameObject.html#a950f34f2096bbc3b57cd3730d7e94698" target="_top" xlink:title=" ">
<polygon fill="white" stroke="#666666" points="327,-105 189,-105 189,-86 327,-86 327,-105"/>
<text text-anchor="middle" x="258" y="-93" font-family="Helvetica,sans-Serif" font-size="10.00">GameObject::getVelocity</text>
</a>
</g>
</g>
<!-- Node1&#45;&gt;Node9 -->
<g id="edge8" class="edge">
<title>Node1&#45;&gt;Node9</title>
<path fill="none" stroke="#63b8ff" d="M90.79,-154.39C110.81,-142.03 140.81,-124.94 169,-114.5 176.03,-111.9 183.52,-109.6 191.04,-107.59"/>
<polygon fill="#63b8ff" stroke="#63b8ff" points="192.08,-110.94 200.92,-105.11 190.37,-104.15 192.08,-110.94"/>
</g>
<!-- Node10 -->
<g id="node10" class="node">
<title>Node10</title>
<g id="a_node10"><a xlink:href="../../d9/df7/classGameObjectComponent.html#adff0c3c42b08247174024aadcf5f0942" target="_top" xlink:title=" ">
<polygon fill="white" stroke="#666666" points="325,-67.5 191,-67.5 191,-37.5 325,-37.5 325,-67.5"/>
<text text-anchor="start" x="199" y="-55.5" font-family="Helvetica,sans-Serif" font-size="10.00">GameObjectComponent</text>
<text text-anchor="middle" x="258" y="-44.5" font-family="Helvetica,sans-Serif" font-size="10.00">::setEnabled</text>
</a>
</g>
</g>
<!-- Node1&#45;&gt;Node10 -->
<g id="edge9" class="edge">
<title>Node1&#45;&gt;Node10</title>
<path fill="none" stroke="#63b8ff" d="M80.02,-154.46C97.76,-134.09 132.19,-97.92 169,-77.5 173.12,-75.21 177.47,-73.12 181.94,-71.21"/>
<polygon fill="#63b8ff" stroke="#63b8ff" points="183.24,-74.46 191.25,-67.53 180.66,-67.95 183.24,-74.46"/>
</g>
<!-- Node11 -->
<g id="node11" class="node">
<title>Node11</title>
<g id="a_node11"><a xlink:href="../../de/d1c/classGameObject.html#a42ab13377137db5ce2863718bb2093f0" target="_top" xlink:title=" ">
<polygon fill="white" stroke="#666666" points="326.5,-19 189.5,-19 189.5,0 326.5,0 326.5,-19"/>
<text text-anchor="middle" x="258" y="-7" font-family="Helvetica,sans-Serif" font-size="10.00">GameObject::setPosition</text>
</a>
</g>
</g>
<!-- Node1&#45;&gt;Node11 -->
<g id="edge10" class="edge">
<title>Node1&#45;&gt;Node11</title>
<path fill="none" stroke="#63b8ff" d="M73.86,-154.34C87,-125 120.05,-60.56 169,-28.5 172.36,-26.3 175.93,-24.35 179.64,-22.62"/>
<polygon fill="#63b8ff" stroke="#63b8ff" points="181.16,-25.78 189.1,-18.77 178.52,-19.3 181.16,-25.78"/>
</g>
<!-- Node4 -->
<g id="node4" class="node">
<title>Node4</title>
<g id="a_node4"><a xlink:href="../../de/dfd/GameManagement_8cpp.html#aed50a83106078c6c5b5321eb0734c42e" target="_top" xlink:title="Enqueue a reset of the game to be performed on the next frame.">
<polygon fill="white" stroke="#666666" points="499,-302 383,-302 383,-283 499,-283 499,-302"/>
<text text-anchor="middle" x="441" y="-290" font-family="Helvetica,sans-Serif" font-size="10.00">EnqueueGameReset</text>
</a>
</g>
</g>
<!-- Node3&#45;&gt;Node4 -->
<g id="edge3" class="edge">
<title>Node3&#45;&gt;Node4</title>
<path fill="none" stroke="#63b8ff" d="M292.62,-292.5C315.01,-292.5 345.22,-292.5 372.45,-292.5"/>
<polygon fill="#63b8ff" stroke="#63b8ff" points="372.72,-296 382.72,-292.5 372.72,-289 372.72,-296"/>
</g>
</g>
</svg>
