<?xml version="1.0" encoding="UTF-8" standalone="no"?>
<!DOCTYPE svg PUBLIC "-//W3C//DTD SVG 1.1//EN"
 "http://www.w3.org/Graphics/SVG/1.1/DTD/svg11.dtd">
<!-- Generated by graphviz version 2.43.0 (0)
 -->
<!-- Title: ResetGame Pages: 1 -->
<!--zoomable 286 -->

<svg id="main" version="1.1" xmlns="http://www.w3.org/2000/svg" xmlns:xlink="http://www.w3.org/1999/xlink" xml:space="preserve" onload="init(evt)">

<style type="text/css"><![CDATA[
.node, .edge {opacity: 0.7;}
.node.selected, .edge.selected {opacity: 1;}
.edge:hover path { stroke: red; }
.edge:hover polygon { stroke: red; fill: red; }
]]></style>

<defs>
  <circle id="rim" cx="0" cy="0" r="7"/>
  <circle id="rim2" cx="0" cy="0" r="3.5"/>
  <g id="zoomPlus">
    <use xlink:href="#rim" fill="#404040"><set attributeName="fill" to="#808080" begin="zoomplus.mouseover" end="zoomplus.mouseout"/></use>
    <path d="M-4,0h8M0,-4v8" fill="none" stroke="white" stroke-width="1.5" pointer-events="none"/>
  </g>
  <g id="zoomMin">
    <use xlink:href="#rim" fill="#404040"><set attributeName="fill" to="#808080" begin="zoomminus.mouseover" end="zoomminus.mouseout"/></use>
    <path d="M-4,0h8" fill="none" stroke="white" stroke-width="1.5" pointer-events="none"/>
  </g>
  <g id="arrowUp" transform="translate(30 24)">
    <use xlink:href="#rim"/>
    <path pointer-events="none" fill="none" stroke="white" stroke-width="1.5" d="M0,-3.0v7 M-2.5,-0.5L0,-3.0L2.5,-0.5"/>
  </g>
  <g id="arrowRight" transform="rotate(90) translate(36 -43)">
    <use xlink:href="#rim"/>
    <path pointer-events="none" fill="none" stroke="white" stroke-width="1.5" d="M0,-3.0v7 M-2.5,-0.5L0,-3.0L2.5,-0.5"/>
  </g>
  <g id="arrowDown" transform="rotate(180) translate(-30 -48)">
    <use xlink:href="#rim"/>
    <path pointer-events="none" fill="none" stroke="white" stroke-width="1.5" d="M0,-3.0v7 M-2.5,-0.5L0,-3.0L2.5,-0.5"/>
  </g>
  <g id="arrowLeft" transform="rotate(270) translate(-36 17)">
    <use xlink:href="#rim"/>
    <path pointer-events="none" fill="none" stroke="white" stroke-width="1.5" d="M0,-3.0v7 M-2.5,-0.5L0,-3.0L2.5,-0.5"/>
  </g>
  <g id="resetDef">
    <use xlink:href="#rim2" fill="#404040"><set attributeName="fill" to="#808080" begin="reset.mouseover" end="reset.mouseout"/></use>
  </g>
</defs>
<script type="application/ecmascript">
var viewWidth = 596;
var viewHeight = 286;
var sectionId = 'dynsection-5';
</script>
<script type="application/ecmascript" xlink:href="../../svg.min.js"/>
<svg id="graph" class="graph">
<g id="viewport">
<title>ResetGame</title>
<!-- Node1 -->
<g id="Node000001" class="node">
<title>Node1</title>
<g id="a_Node000001"><a xlink:title="Reset the game to the initial state.">
<polygon fill="#999999" stroke="#666666" points="74,-111 0,-111 0,-92 74,-92 74,-111"/>
<text text-anchor="middle" x="37" y="-99" font-family="Helvetica,sans-Serif" font-size="10.00">ResetGame</text>
</a>
</g>
</g>
<!-- Node2 -->
<g id="Node000002" class="node">
<title>Node2</title>
<g id="a_Node000002"><a xlink:href="../../d9/dfa/Init_8cpp.html#aaa64e8fd06230fa14e507cef71a3217d" target="_top" xlink:title="Create the initial gameobjects required for the game.">
<polygon fill="white" stroke="#666666" points="255.5,-148 112.5,-148 112.5,-129 255.5,-129 255.5,-148"/>
<text text-anchor="middle" x="184" y="-136" font-family="Helvetica,sans-Serif" font-size="10.00">CreateInitialGameObjects</text>
</a>
</g>
</g>
<!-- Node1&#45;&gt;Node2 -->
<g id="edge1_Node000001_Node000002" class="edge">
<title>Node1&#45;&gt;Node2</title>
<g id="a_edge1_Node000001_Node000002"><a xlink:title=" ">
<path fill="none" stroke="#63b8ff" d="M73.86,-111.09C85.39,-114.13 98.23,-117.49 110,-120.5 117.82,-122.5 126.13,-124.58 134.22,-126.59"/>
<polygon fill="#63b8ff" stroke="#63b8ff" points="133.4,-129.99 143.95,-129 135.08,-123.2 133.4,-129.99"/>
</a>
</g>
</g>
<!-- Node13 -->
<g id="Node000013" class="node">
<title>Node13</title>
<g id="a_Node000013"><a xlink:href="../../de/dfd/GameManagement_8cpp.html#ae5ee3f705fc506491ca2b0c7cf059c75" target="_top" xlink:title="Initialize all gameobjects and call the OnStart() methods.">
<polygon fill="white" stroke="#666666" points="225.5,-111 142.5,-111 142.5,-92 225.5,-92 225.5,-111"/>
<text text-anchor="middle" x="184" y="-99" font-family="Helvetica,sans-Serif" font-size="10.00">OnGameStart</text>
</a>
</g>
</g>
<!-- Node1&#45;&gt;Node13 -->
<g id="edge18_Node000001_Node000013" class="edge">
<title>Node1&#45;&gt;Node13</title>
<g id="a_edge18_Node000001_Node000013"><a xlink:title=" ">
<path fill="none" stroke="#63b8ff" d="M74.22,-101.5C91.78,-101.5 113.17,-101.5 132.32,-101.5"/>
<polygon fill="#63b8ff" stroke="#63b8ff" points="132.39,-105 142.39,-101.5 132.39,-98 132.39,-105"/>
</a>
</g>
</g>
<!-- Node14 -->
<g id="Node000014" class="node">
<title>Node14</title>
<g id="a_Node000014"><a xlink:href="../../d8/d38/Time_8cpp.html#ae55fb718253dda2137a189d792bda7b9" target="_top" xlink:title="Reset the time since the game has started.">
<polygon fill="white" stroke="#666666" points="258,-74 110,-74 110,-55 258,-55 258,-74"/>
<text text-anchor="middle" x="184" y="-62" font-family="Helvetica,sans-Serif" font-size="10.00">ResetTimeSinceGameStart</text>
</a>
</g>
</g>
<!-- Node1&#45;&gt;Node14 -->
<g id="edge19_Node000001_Node000014" class="edge">
<title>Node1&#45;&gt;Node14</title>
<g id="a_edge19_Node000001_Node000014"><a xlink:title=" ">
<path fill="none" stroke="#63b8ff" d="M74.22,-92.26C92.87,-87.5 115.85,-81.63 135.87,-76.53"/>
<polygon fill="#63b8ff" stroke="#63b8ff" points="136.91,-79.87 145.73,-74.01 135.18,-73.09 136.91,-79.87"/>
</a>
</g>
</g>
<!-- Node3 -->
<g id="Node000003" class="node">
<title>Node3</title>
<g id="a_Node000003"><a xlink:href="../../d9/dfa/Init_8cpp.html#a3ff595c2af791c369e2318510062ce14" target="_top" xlink:title="Create the coffee meter bar.">
<polygon fill="white" stroke="#666666" points="418.5,-241 309.5,-241 309.5,-222 418.5,-222 418.5,-241"/>
<text text-anchor="middle" x="364" y="-229" font-family="Helvetica,sans-Serif" font-size="10.00">CreateCoffeeMeter</text>
</a>
</g>
</g>
<!-- Node2&#45;&gt;Node3 -->
<g id="edge2_Node000002_Node000003" class="edge">
<title>Node2&#45;&gt;Node3</title>
<g id="a_edge2_Node000002_Node000003"><a xlink:title=" ">
<path fill="none" stroke="#63b8ff" d="M195.97,-148.02C214.78,-163.85 254.94,-195.64 294,-213.5 298.35,-215.49 302.95,-217.28 307.63,-218.9"/>
<polygon fill="#63b8ff" stroke="#63b8ff" points="306.72,-222.28 317.31,-221.98 308.84,-215.61 306.72,-222.28"/>
</a>
</g>
</g>
<!-- Node5 -->
<g id="Node000005" class="node">
<title>Node5</title>
<g id="a_Node000005"><a xlink:href="../../d9/dfa/Init_8cpp.html#a1bfb628b6cd503e396bae0796f2051c1" target="_top" xlink:title="Create the icon next to the coffee meter.">
<polygon fill="white" stroke="#666666" points="428.5,-278 299.5,-278 299.5,-259 428.5,-259 428.5,-278"/>
<text text-anchor="middle" x="364" y="-266" font-family="Helvetica,sans-Serif" font-size="10.00">CreateCoffeeMeterIcon</text>
</a>
</g>
</g>
<!-- Node2&#45;&gt;Node5 -->
<g id="edge4_Node000002_Node000005" class="edge">
<title>Node2&#45;&gt;Node5</title>
<g id="a_edge4_Node000002_Node000005"><a xlink:title=" ">
<path fill="none" stroke="#63b8ff" d="M191.63,-148.31C206.95,-170.2 247.1,-223.2 294,-250.5 297.03,-252.27 300.24,-253.86 303.55,-255.3"/>
<polygon fill="#63b8ff" stroke="#63b8ff" points="302.48,-258.64 313.07,-258.97 305,-252.11 302.48,-258.64"/>
</a>
</g>
</g>
<!-- Node7 -->
<g id="Node000007" class="node">
<title>Node7</title>
<g id="a_Node000007"><a xlink:href="../../d9/dfa/Init_8cpp.html#a7577908172d93807ef67f163f851fe5e" target="_top" xlink:title="Create the floor and register it.">
<polygon fill="white" stroke="#666666" points="401,-204 327,-204 327,-185 401,-185 401,-204"/>
<text text-anchor="middle" x="364" y="-192" font-family="Helvetica,sans-Serif" font-size="10.00">CreateFloor</text>
</a>
</g>
</g>
<!-- Node2&#45;&gt;Node7 -->
<g id="edge7_Node000002_Node000007" class="edge">
<title>Node2&#45;&gt;Node7</title>
<g id="a_edge7_Node000002_Node000007"><a xlink:title=" ">
<path fill="none" stroke="#63b8ff" d="M210.8,-148.15C232.76,-156.21 265.24,-167.75 294,-176.5 301.33,-178.73 309.15,-180.93 316.79,-182.99"/>
<polygon fill="#63b8ff" stroke="#63b8ff" points="316.12,-186.44 326.68,-185.61 317.91,-179.67 316.12,-186.44"/>
</a>
</g>
</g>
<!-- Node8 -->
<g id="Node000008" class="node">
<title>Node8</title>
<g id="a_Node000008"><a xlink:href="../../d9/dfa/Init_8cpp.html#a8ad8206fa2846739c5e76ce97b6b2783" target="_top" xlink:title="Create the score counter and register it.">
<polygon fill="white" stroke="#666666" points="421,-167 307,-167 307,-148 421,-148 421,-167"/>
<text text-anchor="middle" x="364" y="-155" font-family="Helvetica,sans-Serif" font-size="10.00">CreateScoreCounter</text>
</a>
</g>
</g>
<!-- Node2&#45;&gt;Node8 -->
<g id="edge9_Node000002_Node000008" class="edge">
<title>Node2&#45;&gt;Node8</title>
<g id="a_edge9_Node000002_Node000008"><a xlink:title=" ">
<path fill="none" stroke="#63b8ff" d="M255.61,-146.04C269.14,-147.48 283.27,-148.99 296.67,-150.42"/>
<polygon fill="#63b8ff" stroke="#63b8ff" points="296.43,-153.91 306.75,-151.5 297.17,-146.95 296.43,-153.91"/>
</a>
</g>
</g>
<!-- Node9 -->
<g id="Node000009" class="node">
<title>Node9</title>
<g id="a_Node000009"><a xlink:href="../../d9/dfa/Init_8cpp.html#ac07b948048071cbf70f69aa9d691a93f" target="_top" xlink:title="Set the window background to white.">
<polygon fill="white" stroke="#666666" points="434,-130 294,-130 294,-111 434,-111 434,-130"/>
<text text-anchor="middle" x="364" y="-118" font-family="Helvetica,sans-Serif" font-size="10.00">SetupWindowbackground</text>
</a>
</g>
</g>
<!-- Node2&#45;&gt;Node9 -->
<g id="edge11_Node000002_Node000009" class="edge">
<title>Node2&#45;&gt;Node9</title>
<g id="a_edge11_Node000002_Node000009"><a xlink:title=" ">
<path fill="none" stroke="#63b8ff" d="M255.61,-131.36C264.87,-130.42 274.42,-129.46 283.81,-128.51"/>
<polygon fill="#63b8ff" stroke="#63b8ff" points="284.34,-131.97 293.93,-127.48 283.63,-125.01 284.34,-131.97"/>
</a>
</g>
</g>
<!-- Node10 -->
<g id="Node000010" class="node">
<title>Node10</title>
<g id="a_Node000010"><a xlink:href="../../d9/dfa/Init_8cpp.html#a374cb6f303f72b5af970063ff1318f24" target="_top" xlink:title="Create the left wall and register it.">
<polygon fill="white" stroke="#666666" points="408,-93 320,-93 320,-74 408,-74 408,-93"/>
<text text-anchor="middle" x="364" y="-81" font-family="Helvetica,sans-Serif" font-size="10.00">SpawnLeftWall</text>
</a>
</g>
</g>
<!-- Node2&#45;&gt;Node10 -->
<g id="edge12_Node000002_Node000010" class="edge">
<title>Node2&#45;&gt;Node10</title>
<g id="a_edge12_Node000002_Node000010"><a xlink:title=" ">
<path fill="none" stroke="#63b8ff" d="M230.64,-128.9C239.81,-126.51 249.3,-123.7 258,-120.5 274.79,-114.32 277.3,-108.9 294,-102.5 300.24,-100.11 306.89,-97.88 313.52,-95.86"/>
<polygon fill="#63b8ff" stroke="#63b8ff" points="314.55,-99.21 323.16,-93.05 312.58,-92.49 314.55,-99.21"/>
</a>
</g>
</g>
<!-- Node11 -->
<g id="Node000011" class="node">
<title>Node11</title>
<g id="a_Node000011"><a xlink:href="../../d9/dfa/Init_8cpp.html#aa021dfea28868af5fdc6eb97fdf11395" target="_top" xlink:title="Create the player and register it.">
<polygon fill="white" stroke="#666666" points="404,-56 324,-56 324,-37 404,-37 404,-56"/>
<text text-anchor="middle" x="364" y="-44" font-family="Helvetica,sans-Serif" font-size="10.00">SpawnPlayer</text>
</a>
</g>
</g>
<!-- Node2&#45;&gt;Node11 -->
<g id="edge14_Node000002_Node000011" class="edge">
<title>Node2&#45;&gt;Node11</title>
<g id="a_edge14_Node000002_Node000011"><a xlink:title=" ">
<path fill="none" stroke="#63b8ff" d="M242.26,-128.89C247.84,-126.65 253.21,-123.9 258,-120.5 281.84,-103.61 270.39,-82.71 294,-65.5 300.01,-61.12 306.97,-57.75 314.12,-55.16"/>
<polygon fill="#63b8ff" stroke="#63b8ff" points="315.42,-58.42 323.91,-52.08 313.32,-51.74 315.42,-58.42"/>
</a>
</g>
</g>
<!-- Node12 -->
<g id="Node000012" class="node">
<title>Node12</title>
<g id="a_Node000012"><a xlink:href="../../d9/dfa/Init_8cpp.html#a0e2d0321a787eb9a3b705489c8f2b86b" target="_top" xlink:title="Create the right wall and register it.">
<polygon fill="white" stroke="#666666" points="411.5,-19 316.5,-19 316.5,0 411.5,0 411.5,-19"/>
<text text-anchor="middle" x="364" y="-7" font-family="Helvetica,sans-Serif" font-size="10.00">SpawnRightWall</text>
</a>
</g>
</g>
<!-- Node2&#45;&gt;Node12 -->
<g id="edge16_Node000002_Node000012" class="edge">
<title>Node2&#45;&gt;Node12</title>
<g id="a_edge16_Node000002_Node000012"><a xlink:title=" ">
<path fill="none" stroke="#63b8ff" d="M245.18,-128.86C249.82,-126.61 254.17,-123.86 258,-120.5 291.02,-91.56 261.38,-57.89 294,-28.5 297.83,-25.05 302.22,-22.23 306.9,-19.91"/>
<polygon fill="#63b8ff" stroke="#63b8ff" points="308.29,-23.12 316.18,-16.04 305.6,-16.66 308.29,-23.12"/>
</a>
</g>
</g>
<!-- Node4 -->
<g id="Node000004" class="node">
<title>Node4</title>
<g id="a_Node000004"><a xlink:href="../../de/dfd/GameManagement_8cpp.html#a40f7d4339a01b155a82745c5bd8ead6a" target="_top" xlink:title="Directly register a gameobject. Will push the object into the GameObjects vector.">
<polygon fill="white" stroke="#666666" points="588,-167 470,-167 470,-148 588,-148 588,-167"/>
<text text-anchor="middle" x="529" y="-155" font-family="Helvetica,sans-Serif" font-size="10.00">RegisterGameObject</text>
</a>
</g>
</g>
<!-- Node3&#45;&gt;Node4 -->
<g id="edge3_Node000003_Node000004" class="edge">
<title>Node3&#45;&gt;Node4</title>
<g id="a_edge3_Node000003_Node000004"><a xlink:title=" ">
<path fill="none" stroke="#63b8ff" d="M409.05,-222C417.47,-219.62 426.12,-216.8 434,-213.5 460.2,-202.54 487.87,-185.28 506.34,-172.81"/>
<polygon fill="#63b8ff" stroke="#63b8ff" points="508.36,-175.67 514.63,-167.13 504.4,-169.9 508.36,-175.67"/>
</a>
</g>
</g>
<!-- Node5&#45;&gt;Node4 -->
<g id="edge6_Node000005_Node000004" class="edge">
<title>Node5&#45;&gt;Node4</title>
<g id="a_edge6_Node000005_Node000004"><a xlink:title=" ">
<path fill="none" stroke="#63b8ff" d="M414.51,-258.99C421.28,-256.72 427.98,-253.93 434,-250.5 468.04,-231.12 498.46,-196.26 514.97,-175.16"/>
<polygon fill="#63b8ff" stroke="#63b8ff" points="517.87,-177.12 521.16,-167.05 512.31,-172.88 517.87,-177.12"/>
</a>
</g>
</g>
<!-- Node6 -->
<g id="Node000006" class="node">
<title>Node6</title>
<g id="a_Node000006"><a xlink:href="../../d1/da9/AssetLoading_8cpp.html#a07739f40c13743b2dfceefb659d6d455" target="_top" xlink:title="Return the correct asset path for the asset depending on the current environment.">
<polygon fill="white" stroke="#666666" points="570,-278 488,-278 488,-259 570,-259 570,-278"/>
<text text-anchor="middle" x="529" y="-266" font-family="Helvetica,sans-Serif" font-size="10.00">GetAssetPath</text>
</a>
</g>
</g>
<!-- Node5&#45;&gt;Node6 -->
<g id="edge5_Node000005_Node000006" class="edge">
<title>Node5&#45;&gt;Node6</title>
<g id="a_edge5_Node000005_Node000006"><a xlink:title=" ">
<path fill="none" stroke="#63b8ff" d="M428.95,-268.5C445.04,-268.5 462.09,-268.5 477.42,-268.5"/>
<polygon fill="#63b8ff" stroke="#63b8ff" points="477.73,-272 487.73,-268.5 477.73,-265 477.73,-272"/>
</a>
</g>
</g>
<!-- Node7&#45;&gt;Node4 -->
<g id="edge8_Node000007_Node000004" class="edge">
<title>Node7&#45;&gt;Node4</title>
<g id="a_edge8_Node000007_Node000004"><a xlink:title=" ">
<path fill="none" stroke="#63b8ff" d="M401.17,-186.29C423.18,-181.29 451.66,-174.83 476.05,-169.29"/>
<polygon fill="#63b8ff" stroke="#63b8ff" points="476.9,-172.69 485.87,-167.06 475.35,-165.86 476.9,-172.69"/>
</a>
</g>
</g>
<!-- Node8&#45;&gt;Node4 -->
<g id="edge10_Node000008_Node000004" class="edge">
<title>Node8&#45;&gt;Node4</title>
<g id="a_edge10_Node000008_Node000004"><a xlink:title=" ">
<path fill="none" stroke="#63b8ff" d="M421.1,-157.5C433.52,-157.5 446.82,-157.5 459.67,-157.5"/>
<polygon fill="#63b8ff" stroke="#63b8ff" points="459.86,-161 469.86,-157.5 459.86,-154 459.86,-161"/>
</a>
</g>
</g>
<!-- Node10&#45;&gt;Node4 -->
<g id="edge13_Node000010_Node000004" class="edge">
<title>Node10&#45;&gt;Node4</title>
<g id="a_edge13_Node000010_Node000004"><a xlink:title=" ">
<path fill="none" stroke="#63b8ff" d="M406.46,-93.03C415.68,-95.67 425.3,-98.83 434,-102.5 459.9,-113.42 487.42,-130.21 505.95,-142.36"/>
<polygon fill="#63b8ff" stroke="#63b8ff" points="504.01,-145.28 514.27,-147.91 507.89,-139.45 504.01,-145.28"/>
</a>
</g>
</g>
<!-- Node11&#45;&gt;Node4 -->
<g id="edge15_Node000011_Node000004" class="edge">
<title>Node11&#45;&gt;Node4</title>
<g id="a_edge15_Node000011_Node000004"><a xlink:title=" ">
<path fill="none" stroke="#63b8ff" d="M404.33,-53.66C414.41,-56.47 424.95,-60.3 434,-65.5 467.61,-84.82 497.98,-118.97 514.62,-139.79"/>
<polygon fill="#63b8ff" stroke="#63b8ff" points="511.98,-142.08 520.89,-147.81 517.49,-137.77 511.98,-142.08"/>
</a>
</g>
</g>
<!-- Node12&#45;&gt;Node4 -->
<g id="edge17_Node000012_Node000004" class="edge">
<title>Node12&#45;&gt;Node4</title>
<g id="a_edge17_Node000012_Node000004"><a xlink:title=" ">
<path fill="none" stroke="#63b8ff" d="M411.82,-17.78C419.64,-20.42 427.36,-23.91 434,-28.5 475.41,-57.13 505.39,-110.1 519.31,-138.44"/>
<polygon fill="#63b8ff" stroke="#63b8ff" points="516.24,-140.15 523.7,-147.67 522.56,-137.14 516.24,-140.15"/>
</a>
</g>
</g>
</g>
</svg>

<g id="navigator" transform="translate(0 0)" fill="#404254">
  <rect fill="#f2f5e9" fill-opacity="0.5" stroke="#606060" stroke-width=".5" x="0" y="0" width="60" height="60"/>
  <use id="zoomplus" xlink:href="#zoomPlus" x="17" y="9" onmousedown="handleZoom(evt,'in')"/>
  <use id="zoomminus" xlink:href="#zoomMin" x="42" y="9" onmousedown="handleZoom(evt,'out')"/>
  <use id="reset" xlink:href="#resetDef" x="30" y="36" onmousedown="handleReset()"/>
   <use id="arrowup" xlink:href="#arrowUp" x="0" y="0" onmousedown="handlePan(0,-1)"/>
  <use id="arrowright" xlink:href="#arrowRight" x="0" y="0" onmousedown="handlePan(1,0)"/>
  <use id="arrowdown" xlink:href="#arrowDown" x="0" y="0" onmousedown="handlePan(0,1)"/>
  <use id="arrowleft" xlink:href="#arrowLeft" x="0" y="0" onmousedown="handlePan(-1,0)"/>
</g>
<svg viewBox="0 0 15 15" width="100%" height="30px" preserveAspectRatio="xMaxYMin meet">
 <g id="arrow_out" transform="scale(0.3 0.3)">
  <a xlink:href="Lifecycle_8hpp_a7be4f604c1baeb7cac84122a7f2438cf_cgraph_org.svg" target="_base">
   <rect id="button" ry="5" rx="5" y="6" x="6" height="38" width="38"
        fill="#f2f5e9" fill-opacity="0.5" stroke="#606060" stroke-width="1.0"/>
   <path id="arrow"
     d="M 11.500037,31.436501 C 11.940474,20.09759 22.043105,11.32322 32.158766,21.979434 L 37.068811,17.246167 C 37.068811,17.246167 37.088388,32 37.088388,32 L 22.160133,31.978069 C 22.160133,31.978069 26.997745,27.140456 26.997745,27.140456 C 18.528582,18.264221 13.291696,25.230495 11.500037,31.436501 z"
     style="fill:#404040;"/>
  </a>
 </g>
</svg>

<style type='text/css'>
<![CDATA[
[data-mouse-over-selected='false'] { opacity: 0.7; }
[data-mouse-over-selected='true']  { opacity: 1.0; }
]]>
</style>
<script type="application/ecmascript"><![CDATA[
document.addEventListener('DOMContentLoaded', (event) => {
  highlightEdges();
  highlightAdjacentNodes();
});
]]></script>
</svg>
