<?xml version="1.0" encoding="UTF-8" standalone="no"?>
<!DOCTYPE svg PUBLIC "-//W3C//DTD SVG 1.1//EN"
 "http://www.w3.org/Graphics/SVG/1.1/DTD/svg11.dtd">
<!-- Generated by graphviz version 2.43.0 (0)
 -->
<!-- Title: engine/components/behaviors/CollisionBehavior.cpp Pages: 1 -->
<!--zoomable 379 -->

<svg id="main" version="1.1" xmlns="http://www.w3.org/2000/svg" xmlns:xlink="http://www.w3.org/1999/xlink" xml:space="preserve" onload="init(evt)">

<style type="text/css"><![CDATA[
.node, .edge {opacity: 0.7;}
.node.selected, .edge.selected {opacity: 1;}
.edge:hover path { stroke: red; }
.edge:hover polygon { stroke: red; fill: red; }
]]></style>

<defs>
  <circle id="rim" cx="0" cy="0" r="7"/>
  <circle id="rim2" cx="0" cy="0" r="3.5"/>
  <g id="zoomPlus">
    <use xlink:href="#rim" fill="#404040"><set attributeName="fill" to="#808080" begin="zoomplus.mouseover" end="zoomplus.mouseout"/></use>
    <path d="M-4,0h8M0,-4v8" fill="none" stroke="white" stroke-width="1.5" pointer-events="none"/>
  </g>
  <g id="zoomMin">
    <use xlink:href="#rim" fill="#404040"><set attributeName="fill" to="#808080" begin="zoomminus.mouseover" end="zoomminus.mouseout"/></use>
    <path d="M-4,0h8" fill="none" stroke="white" stroke-width="1.5" pointer-events="none"/>
  </g>
  <g id="arrowUp" transform="translate(30 24)">
    <use xlink:href="#rim"/>
    <path pointer-events="none" fill="none" stroke="white" stroke-width="1.5" d="M0,-3.0v7 M-2.5,-0.5L0,-3.0L2.5,-0.5"/>
  </g>
  <g id="arrowRight" transform="rotate(90) translate(36 -43)">
    <use xlink:href="#rim"/>
    <path pointer-events="none" fill="none" stroke="white" stroke-width="1.5" d="M0,-3.0v7 M-2.5,-0.5L0,-3.0L2.5,-0.5"/>
  </g>
  <g id="arrowDown" transform="rotate(180) translate(-30 -48)">
    <use xlink:href="#rim"/>
    <path pointer-events="none" fill="none" stroke="white" stroke-width="1.5" d="M0,-3.0v7 M-2.5,-0.5L0,-3.0L2.5,-0.5"/>
  </g>
  <g id="arrowLeft" transform="rotate(270) translate(-36 17)">
    <use xlink:href="#rim"/>
    <path pointer-events="none" fill="none" stroke="white" stroke-width="1.5" d="M0,-3.0v7 M-2.5,-0.5L0,-3.0L2.5,-0.5"/>
  </g>
  <g id="resetDef">
    <use xlink:href="#rim2" fill="#404040"><set attributeName="fill" to="#808080" begin="reset.mouseover" end="reset.mouseout"/></use>
  </g>
</defs>
<script type="application/ecmascript">
var viewWidth = 661;
var viewHeight = 379;
var sectionId = 'dynsection-0';
</script>
<script type="application/ecmascript" xlink:href="../../svg.min.js"/>
<svg id="graph" class="graph">
<g id="viewport">
<title>engine/components/behaviors/CollisionBehavior.cpp</title>
<!-- Node1 -->
<g id="Node000001" class="node">
<title>Node1</title>
<g id="a_Node000001"><a xlink:title=" ">
<polygon fill="#999999" stroke="#666666" points="562.5,-371 398.5,-371 398.5,-341 562.5,-341 562.5,-371"/>
<text text-anchor="start" x="406.5" y="-359" font-family="Helvetica,sans-Serif" font-size="10.00">engine/components/behaviors</text>
<text text-anchor="middle" x="480.5" y="-348" font-family="Helvetica,sans-Serif" font-size="10.00">/CollisionBehavior.cpp</text>
</a>
</g>
</g>
<!-- Node2 -->
<g id="Node000002" class="node">
<title>Node2</title>
<g id="a_Node000002"><a xlink:href="../../dc/d19/CollisionBehavior_8hpp.html" target="_top" xlink:title=" ">
<polygon fill="white" stroke="#666666" points="452.5,-305 330.5,-305 330.5,-286 452.5,-286 452.5,-305"/>
<text text-anchor="middle" x="391.5" y="-293" font-family="Helvetica,sans-Serif" font-size="10.00">CollisionBehavior.hpp</text>
</a>
</g>
</g>
<!-- Node1&#45;&gt;Node2 -->
<g id="edge1_Node000001_Node000002" class="edge">
<title>Node1&#45;&gt;Node2</title>
<g id="a_edge1_Node000001_Node000002"><a xlink:title=" ">
<path fill="none" stroke="#63b8ff" d="M458.96,-340.84C445.03,-331.68 426.97,-319.82 413.05,-310.66"/>
<polygon fill="#63b8ff" stroke="#63b8ff" points="414.85,-307.66 404.58,-305.09 411.01,-313.51 414.85,-307.66"/>
</a>
</g>
</g>
<!-- Node10 -->
<g id="Node000010" class="node">
<title>Node10</title>
<g id="a_Node000010"><a xlink:title=" ">
<polygon fill="#e0e0e0" stroke="#999999" points="471.5,-79.5 413.5,-79.5 413.5,-60.5 471.5,-60.5 471.5,-79.5"/>
<text text-anchor="middle" x="442.5" y="-67.5" font-family="Helvetica,sans-Serif" font-size="10.00">memory</text>
</a>
</g>
</g>
<!-- Node1&#45;&gt;Node10 -->
<g id="edge19_Node000001_Node000010" class="edge">
<title>Node1&#45;&gt;Node10</title>
<g id="a_edge19_Node000001_Node000010"><a xlink:title=" ">
<path fill="none" stroke="#63b8ff" d="M480.5,-340.67C480.5,-319.14 480.5,-277.17 480.5,-241.5 480.5,-241.5 480.5,-241.5 480.5,-184.5 480.5,-148.98 463.56,-110.29 452.3,-88.5"/>
<polygon fill="#63b8ff" stroke="#63b8ff" points="455.28,-86.66 447.47,-79.5 449.11,-89.97 455.28,-86.66"/>
</a>
</g>
</g>
<!-- Node13 -->
<g id="Node000013" class="node">
<title>Node13</title>
<g id="a_Node000013"><a xlink:href="../../d3/dfc/ObjectManagement_8hpp.html" target="_top" xlink:title=" ">
<polygon fill="white" stroke="#666666" points="232.5,-195 80.5,-195 80.5,-176 232.5,-176 232.5,-195"/>
<text text-anchor="middle" x="156.5" y="-183" font-family="Helvetica,sans-Serif" font-size="10.00">../../ObjectManagement.hpp</text>
</a>
</g>
</g>
<!-- Node1&#45;&gt;Node13 -->
<g id="edge13_Node000001_Node000013" class="edge">
<title>Node1&#45;&gt;Node13</title>
<g id="a_edge13_Node000001_Node000013"><a xlink:title=" ">
<path fill="none" stroke="#63b8ff" d="M420.23,-340.91C389.74,-332.59 352.69,-320.6 321.5,-305 262.93,-275.71 202.53,-226.57 173.76,-201.78"/>
<polygon fill="#63b8ff" stroke="#63b8ff" points="176.03,-199.13 166.19,-195.2 171.44,-204.4 176.03,-199.13"/>
</a>
</g>
</g>
<!-- Node14 -->
<g id="Node000014" class="node">
<title>Node14</title>
<g id="a_Node000014"><a xlink:href="../../d9/de7/Time_8hpp.html" target="_top" xlink:title=" ">
<polygon fill="white" stroke="#666666" points="588.5,-305 508.5,-305 508.5,-286 588.5,-286 588.5,-305"/>
<text text-anchor="middle" x="548.5" y="-293" font-family="Helvetica,sans-Serif" font-size="10.00">../../Time.hpp</text>
</a>
</g>
</g>
<!-- Node1&#45;&gt;Node14 -->
<g id="edge17_Node000001_Node000014" class="edge">
<title>Node1&#45;&gt;Node14</title>
<g id="a_edge17_Node000001_Node000014"><a xlink:title=" ">
<path fill="none" stroke="#63b8ff" d="M496.96,-340.84C507.13,-332.09 520.19,-320.85 530.62,-311.88"/>
<polygon fill="#63b8ff" stroke="#63b8ff" points="533.01,-314.44 538.31,-305.27 528.45,-309.13 533.01,-314.44"/>
</a>
</g>
</g>
<!-- Node15 -->
<g id="Node000015" class="node">
<title>Node15</title>
<g id="a_Node000015"><a xlink:title=" ">
<polygon fill="#e0e0e0" stroke="#999999" points="652.5,-305 606.5,-305 606.5,-286 652.5,-286 652.5,-305"/>
<text text-anchor="middle" x="629.5" y="-293" font-family="Helvetica,sans-Serif" font-size="10.00">cstdio</text>
</a>
</g>
</g>
<!-- Node1&#45;&gt;Node15 -->
<g id="edge18_Node000001_Node000015" class="edge">
<title>Node1&#45;&gt;Node15</title>
<g id="a_edge18_Node000001_Node000015"><a xlink:title=" ">
<path fill="none" stroke="#63b8ff" d="M516.19,-340.99C541.16,-331.18 574.2,-318.21 598.16,-308.81"/>
<polygon fill="#63b8ff" stroke="#63b8ff" points="599.47,-312.05 607.5,-305.14 596.91,-305.54 599.47,-312.05"/>
</a>
</g>
</g>
<!-- Node3 -->
<g id="Node000003" class="node">
<title>Node3</title>
<g id="a_Node000003"><a xlink:href="../../d4/d8e/Behavior_8hpp.html" target="_top" xlink:title=" ">
<polygon fill="white" stroke="#666666" points="402.5,-250 322.5,-250 322.5,-231 402.5,-231 402.5,-250"/>
<text text-anchor="middle" x="362.5" y="-238" font-family="Helvetica,sans-Serif" font-size="10.00">Behavior.hpp</text>
</a>
</g>
</g>
<!-- Node2&#45;&gt;Node3 -->
<g id="edge2_Node000002_Node000003" class="edge">
<title>Node2&#45;&gt;Node3</title>
<g id="a_edge2_Node000002_Node000003"><a xlink:title=" ">
<path fill="none" stroke="#63b8ff" d="M386.71,-285.75C382.74,-278.49 376.97,-267.95 372.07,-258.98"/>
<polygon fill="#63b8ff" stroke="#63b8ff" points="375.07,-257.18 367.2,-250.09 368.93,-260.54 375.07,-257.18"/>
</a>
</g>
</g>
<!-- Node2&#45;&gt;Node10 -->
<g id="edge12_Node000002_Node000010" class="edge">
<title>Node2&#45;&gt;Node10</title>
<g id="a_edge12_Node000002_Node000010"><a xlink:title=" ">
<path fill="none" stroke="#63b8ff" d="M396.04,-285.85C400.5,-277.04 407.25,-262.87 411.5,-250 430.15,-193.47 438.15,-122.99 441.07,-89.87"/>
<polygon fill="#63b8ff" stroke="#63b8ff" points="444.56,-90.04 441.9,-79.79 437.59,-89.47 444.56,-90.04"/>
</a>
</g>
</g>
<!-- Node4 -->
<g id="Node000004" class="node">
<title>Node4</title>
<g id="a_Node000004"><a xlink:href="../../d2/d69/GameObjectComponent_8hpp.html" target="_top" xlink:title=" ">
<polygon fill="white" stroke="#666666" points="414.5,-195 250.5,-195 250.5,-176 414.5,-176 414.5,-195"/>
<text text-anchor="middle" x="332.5" y="-183" font-family="Helvetica,sans-Serif" font-size="10.00">../GameObjectComponent.hpp</text>
</a>
</g>
</g>
<!-- Node3&#45;&gt;Node4 -->
<g id="edge3_Node000003_Node000004" class="edge">
<title>Node3&#45;&gt;Node4</title>
<g id="a_edge3_Node000003_Node000004"><a xlink:title=" ">
<path fill="none" stroke="#63b8ff" d="M357.55,-230.75C353.44,-223.49 347.47,-212.95 342.4,-203.98"/>
<polygon fill="#63b8ff" stroke="#63b8ff" points="345.33,-202.07 337.36,-195.09 339.24,-205.52 345.33,-202.07"/>
</a>
</g>
</g>
<!-- Node5 -->
<g id="Node000005" class="node">
<title>Node5</title>
<g id="a_Node000005"><a xlink:title=" ">
<polygon fill="#e0e0e0" stroke="#999999" points="384,-140 331,-140 331,-121 384,-121 384,-140"/>
<text text-anchor="middle" x="357.5" y="-128" font-family="Helvetica,sans-Serif" font-size="10.00">cstddef</text>
</a>
</g>
</g>
<!-- Node4&#45;&gt;Node5 -->
<g id="edge4_Node000004_Node000005" class="edge">
<title>Node4&#45;&gt;Node5</title>
<g id="a_edge4_Node000004_Node000005"><a xlink:title=" ">
<path fill="none" stroke="#63b8ff" d="M336.63,-175.75C340.01,-168.57 344.92,-158.18 349.12,-149.27"/>
<polygon fill="#63b8ff" stroke="#63b8ff" points="352.35,-150.63 353.45,-140.09 346.02,-147.64 352.35,-150.63"/>
</a>
</g>
</g>
<!-- Node6 -->
<g id="Node000006" class="node">
<title>Node6</title>
<g id="a_Node000006"><a xlink:href="../../d4/db5/GameObject_8hpp.html" target="_top" xlink:title=" ">
<polygon fill="white" stroke="#666666" points="274,-140 167,-140 167,-121 274,-121 274,-140"/>
<text text-anchor="middle" x="220.5" y="-128" font-family="Helvetica,sans-Serif" font-size="10.00">../GameObject.hpp</text>
</a>
</g>
</g>
<!-- Node4&#45;&gt;Node6 -->
<g id="edge5_Node000004_Node000006" class="edge">
<title>Node4&#45;&gt;Node6</title>
<g id="a_edge5_Node000004_Node000006"><a xlink:title=" ">
<path fill="none" stroke="#63b8ff" d="M314.51,-175.98C296.57,-167.5 268.78,-154.35 248.07,-144.54"/>
<polygon fill="#63b8ff" stroke="#63b8ff" points="249.36,-141.28 238.82,-140.17 246.36,-147.61 249.36,-141.28"/>
</a>
</g>
</g>
<!-- Node7 -->
<g id="Node000007" class="node">
<title>Node7</title>
<g id="a_Node000007"><a xlink:href="../../d9/d4a/Vector2_8hpp.html" target="_top" xlink:title=" ">
<polygon fill="white" stroke="#666666" points="139.5,-79.5 65.5,-79.5 65.5,-60.5 139.5,-60.5 139.5,-79.5"/>
<text text-anchor="middle" x="102.5" y="-67.5" font-family="Helvetica,sans-Serif" font-size="10.00">Vector2.hpp</text>
</a>
</g>
</g>
<!-- Node6&#45;&gt;Node7 -->
<g id="edge6_Node000006_Node000007" class="edge">
<title>Node6&#45;&gt;Node7</title>
<g id="a_edge6_Node000006_Node000007"><a xlink:title=" ">
<path fill="none" stroke="#63b8ff" d="M203.34,-120.99C183.77,-111.29 151.53,-95.31 128.78,-84.03"/>
<polygon fill="#63b8ff" stroke="#63b8ff" points="130.19,-80.82 119.68,-79.52 127.08,-87.09 130.19,-80.82"/>
</a>
</g>
</g>
<!-- Node8 -->
<g id="Node000008" class="node">
<title>Node8</title>
<g id="a_Node000008"><a xlink:href="../../d4/d71/ComponentNotFoundException_8hpp.html" target="_top" xlink:title=" ">
<polygon fill="white" stroke="#666666" points="333.5,-85 157.5,-85 157.5,-55 333.5,-55 333.5,-85"/>
<text text-anchor="start" x="165.5" y="-73" font-family="Helvetica,sans-Serif" font-size="10.00">exceptions/ComponentNotFound</text>
<text text-anchor="middle" x="245.5" y="-62" font-family="Helvetica,sans-Serif" font-size="10.00">Exception.hpp</text>
</a>
</g>
</g>
<!-- Node6&#45;&gt;Node8 -->
<g id="edge7_Node000006_Node000008" class="edge">
<title>Node6&#45;&gt;Node8</title>
<g id="a_edge7_Node000006_Node000008"><a xlink:title=" ">
<path fill="none" stroke="#63b8ff" d="M224.19,-120.87C227.17,-113.89 231.52,-103.71 235.51,-94.38"/>
<polygon fill="#63b8ff" stroke="#63b8ff" points="238.76,-95.69 239.47,-85.11 232.32,-92.93 238.76,-95.69"/>
</a>
</g>
</g>
<!-- Node6&#45;&gt;Node10 -->
<g id="edge9_Node000006_Node000010" class="edge">
<title>Node6&#45;&gt;Node10</title>
<g id="a_edge9_Node000006_Node000010"><a xlink:title=" ">
<path fill="none" stroke="#63b8ff" d="M261.79,-120.95C299.33,-112.84 356.08,-99.72 404.5,-85 406.63,-84.35 408.82,-83.65 411.01,-82.92"/>
<polygon fill="#63b8ff" stroke="#63b8ff" points="412.26,-86.19 420.54,-79.58 409.95,-79.58 412.26,-86.19"/>
</a>
</g>
</g>
<!-- Node11 -->
<g id="Node000011" class="node">
<title>Node11</title>
<g id="a_Node000011"><a xlink:title=" ">
<polygon fill="#e0e0e0" stroke="#999999" points="395.5,-79.5 351.5,-79.5 351.5,-60.5 395.5,-60.5 395.5,-79.5"/>
<text text-anchor="middle" x="373.5" y="-67.5" font-family="Helvetica,sans-Serif" font-size="10.00">string</text>
</a>
</g>
</g>
<!-- Node6&#45;&gt;Node11 -->
<g id="edge10_Node000006_Node000011" class="edge">
<title>Node6&#45;&gt;Node11</title>
<g id="a_edge10_Node000006_Node000011"><a xlink:title=" ">
<path fill="none" stroke="#63b8ff" d="M245.94,-120.84C270.77,-112.24 309.51,-98.44 342.5,-85 343.67,-84.52 344.86,-84.03 346.06,-83.52"/>
<polygon fill="#63b8ff" stroke="#63b8ff" points="347.47,-86.72 355.24,-79.52 344.67,-80.31 347.47,-86.72"/>
</a>
</g>
</g>
<!-- Node12 -->
<g id="Node000012" class="node">
<title>Node12</title>
<g id="a_Node000012"><a xlink:title=" ">
<polygon fill="#e0e0e0" stroke="#999999" points="47,-79.5 0,-79.5 0,-60.5 47,-60.5 47,-79.5"/>
<text text-anchor="middle" x="23.5" y="-67.5" font-family="Helvetica,sans-Serif" font-size="10.00">vector</text>
</a>
</g>
</g>
<!-- Node6&#45;&gt;Node12 -->
<g id="edge11_Node000006_Node000012" class="edge">
<title>Node6&#45;&gt;Node12</title>
<g id="a_edge11_Node000006_Node000012"><a xlink:title=" ">
<path fill="none" stroke="#63b8ff" d="M183.26,-120.93C149.73,-112.86 99.3,-99.81 56.5,-85 55.07,-84.5 53.61,-83.98 52.14,-83.43"/>
<polygon fill="#63b8ff" stroke="#63b8ff" points="53.11,-80.04 42.52,-79.59 50.52,-86.55 53.11,-80.04"/>
</a>
</g>
</g>
<!-- Node9 -->
<g id="Node000009" class="node">
<title>Node9</title>
<g id="a_Node000009"><a xlink:title=" ">
<polygon fill="#e0e0e0" stroke="#999999" points="278,-19 213,-19 213,0 278,0 278,-19"/>
<text text-anchor="middle" x="245.5" y="-7" font-family="Helvetica,sans-Serif" font-size="10.00">exception</text>
</a>
</g>
</g>
<!-- Node8&#45;&gt;Node9 -->
<g id="edge8_Node000008_Node000009" class="edge">
<title>Node8&#45;&gt;Node9</title>
<g id="a_edge8_Node000008_Node000009"><a xlink:title=" ">
<path fill="none" stroke="#63b8ff" d="M245.5,-54.84C245.5,-47.21 245.5,-37.7 245.5,-29.45"/>
<polygon fill="#63b8ff" stroke="#63b8ff" points="249,-29.27 245.5,-19.27 242,-29.27 249,-29.27"/>
</a>
</g>
</g>
<!-- Node13&#45;&gt;Node6 -->
<g id="edge14_Node000013_Node000006" class="edge">
<title>Node13&#45;&gt;Node6</title>
<g id="a_edge14_Node000013_Node000006"><a xlink:title=" ">
<path fill="none" stroke="#63b8ff" d="M166.78,-175.98C176.34,-168.07 190.78,-156.11 202.28,-146.58"/>
<polygon fill="#63b8ff" stroke="#63b8ff" points="204.56,-149.24 210.03,-140.17 200.1,-143.85 204.56,-149.24"/>
</a>
</g>
</g>
<!-- Node13&#45;&gt;Node10 -->
<g id="edge15_Node000013_Node000010" class="edge">
<title>Node13&#45;&gt;Node10</title>
<g id="a_edge15_Node000013_Node000010"><a xlink:title=" ">
<path fill="none" stroke="#63b8ff" d="M183.38,-175.99C209.12,-167.61 248.9,-154.06 282.5,-140 300.29,-132.56 303.92,-128.91 321.5,-121 351.56,-107.48 386.39,-93.23 410.95,-83.42"/>
<polygon fill="#63b8ff" stroke="#63b8ff" points="412.47,-86.58 420.47,-79.63 409.88,-80.08 412.47,-86.58"/>
</a>
</g>
</g>
<!-- Node13&#45;&gt;Node12 -->
<g id="edge16_Node000013_Node000012" class="edge">
<title>Node13&#45;&gt;Node12</title>
<g id="a_edge16_Node000013_Node000012"><a xlink:title=" ">
<path fill="none" stroke="#63b8ff" d="M146.5,-175.97C124.17,-156.91 69.94,-110.63 41.54,-86.39"/>
<polygon fill="#63b8ff" stroke="#63b8ff" points="43.49,-83.46 33.61,-79.63 38.95,-88.78 43.49,-83.46"/>
</a>
</g>
</g>
</g>
</svg>

<g id="navigator" transform="translate(0 0)" fill="#404254">
  <rect fill="#f2f5e9" fill-opacity="0.5" stroke="#606060" stroke-width=".5" x="0" y="0" width="60" height="60"/>
  <use id="zoomplus" xlink:href="#zoomPlus" x="17" y="9" onmousedown="handleZoom(evt,'in')"/>
  <use id="zoomminus" xlink:href="#zoomMin" x="42" y="9" onmousedown="handleZoom(evt,'out')"/>
  <use id="reset" xlink:href="#resetDef" x="30" y="36" onmousedown="handleReset()"/>
   <use id="arrowup" xlink:href="#arrowUp" x="0" y="0" onmousedown="handlePan(0,-1)"/>
  <use id="arrowright" xlink:href="#arrowRight" x="0" y="0" onmousedown="handlePan(1,0)"/>
  <use id="arrowdown" xlink:href="#arrowDown" x="0" y="0" onmousedown="handlePan(0,1)"/>
  <use id="arrowleft" xlink:href="#arrowLeft" x="0" y="0" onmousedown="handlePan(-1,0)"/>
</g>
<svg viewBox="0 0 15 15" width="100%" height="30px" preserveAspectRatio="xMaxYMin meet">
 <g id="arrow_out" transform="scale(0.3 0.3)">
  <a xlink:href="CollisionBehavior_8cpp__incl_org.svg" target="_base">
   <rect id="button" ry="5" rx="5" y="6" x="6" height="38" width="38"
        fill="#f2f5e9" fill-opacity="0.5" stroke="#606060" stroke-width="1.0"/>
   <path id="arrow"
     d="M 11.500037,31.436501 C 11.940474,20.09759 22.043105,11.32322 32.158766,21.979434 L 37.068811,17.246167 C 37.068811,17.246167 37.088388,32 37.088388,32 L 22.160133,31.978069 C 22.160133,31.978069 26.997745,27.140456 26.997745,27.140456 C 18.528582,18.264221 13.291696,25.230495 11.500037,31.436501 z"
     style="fill:#404040;"/>
  </a>
 </g>
</svg>

<style type='text/css'>
<![CDATA[
[data-mouse-over-selected='false'] { opacity: 0.7; }
[data-mouse-over-selected='true']  { opacity: 1.0; }
]]>
</style>
<script type="application/ecmascript"><![CDATA[
document.addEventListener('DOMContentLoaded', (event) => {
  highlightEdges();
  highlightAdjacentNodes();
});
]]></script>
</svg>
