<?xml version="1.0" encoding="UTF-8" standalone="no"?>
<!DOCTYPE svg PUBLIC "-//W3C//DTD SVG 1.1//EN"
 "http://www.w3.org/Graphics/SVG/1.1/DTD/svg11.dtd">
<!-- Generated by graphviz version 2.43.0 (0)
 -->
<!-- Title: PlayerCollisionBehavior Pages: 1 -->
<svg width="197pt" height="680pt"
 viewBox="0.00 0.00 197.00 680.00" xmlns="http://www.w3.org/2000/svg" xmlns:xlink="http://www.w3.org/1999/xlink">
<g id="graph0" class="graph" transform="scale(1 1) rotate(0) translate(4 676)">
<title>PlayerCollisionBehavior</title>
<!-- Node1 -->
<g id="Node000001" class="node">
<title>Node1</title>
<g id="a_Node000001"><a xlink:title="The players collision behavior.">
<polygon fill="#999999" stroke="transparent" points="179.5,-112 9.5,-112 9.5,0 179.5,0 179.5,-112"/>
<text text-anchor="start" x="36" y="-100" font-family="Helvetica,sans-Serif" font-size="10.00">PlayerCollisionBehavior</text>
<text text-anchor="start" x="92.5" y="-85" font-family="Helvetica,sans-Serif" font-size="10.00"> </text>
<text text-anchor="start" x="13.5" y="-70" font-family="Helvetica,sans-Serif" font-size="10.00">+</text>
<text text-anchor="start" x="26.5" y="-70" font-family="Helvetica,sans-Serif" font-size="10.00">PlayerCollisionBehavior()</text>
<text text-anchor="start" x="13.5" y="-55" font-family="Helvetica,sans-Serif" font-size="10.00">+</text>
<text text-anchor="start" x="26.5" y="-55" font-family="Helvetica,sans-Serif" font-size="10.00">PlayerCollisionBehavior</text>
<text text-anchor="start" x="26.5" y="-44" font-family="Helvetica,sans-Serif" font-size="10.00">(int x, int y)</text>
<text text-anchor="start" x="13.5" y="-29" font-family="Helvetica,sans-Serif" font-size="10.00">+</text>
<text text-anchor="start" x="26.5" y="-29" font-family="Helvetica,sans-Serif" font-size="10.00">virtual void BeforeCollision</text>
<text text-anchor="start" x="26.5" y="-18" font-family="Helvetica,sans-Serif" font-size="10.00">(std::shared_ptr&lt; GameObject</text>
<text text-anchor="start" x="26.5" y="-7" font-family="Helvetica,sans-Serif" font-size="10.00"> &gt; other) override</text>
<polygon fill="#666666" stroke="#666666" points="9.5,-95 9.5,-95 179.5,-95 179.5,-95 9.5,-95"/>
<polygon fill="#666666" stroke="#666666" points="9.5,-80 9.5,-80 179.5,-80 179.5,-80 9.5,-80"/>
<polygon fill="none" stroke="#666666" points="9.5,0 9.5,-112 179.5,-112 179.5,0 9.5,0"/>
</a>
</g>
</g>
<!-- Node2 -->
<g id="Node000002" class="node">
<title>Node2</title>
<g id="a_Node000002"><a xlink:href="../../d9/df0/classCollisionBehavior.html" target="_top" xlink:title="Controlls collision of an object with other objects that also have this or a child component.">
<polygon fill="white" stroke="transparent" points="179.5,-390 9.5,-390 9.5,-148 179.5,-148 179.5,-390"/>
<text text-anchor="start" x="51.5" y="-378" font-family="Helvetica,sans-Serif" font-size="10.00">CollisionBehavior</text>
<text text-anchor="start" x="13.5" y="-363" font-family="Helvetica,sans-Serif" font-size="10.00">#</text>
<text text-anchor="start" x="26.5" y="-363" font-family="Helvetica,sans-Serif" font-size="10.00">std::shared_ptr&lt; Vector2</text>
<text text-anchor="start" x="26.5" y="-352" font-family="Helvetica,sans-Serif" font-size="10.00"> &gt; colliderSize</text>
<text text-anchor="start" x="13.5" y="-337" font-family="Helvetica,sans-Serif" font-size="10.00">+</text>
<text text-anchor="start" x="26.5" y="-337" font-family="Helvetica,sans-Serif" font-size="10.00">bool IsPointInsideCollider</text>
<text text-anchor="start" x="26.5" y="-326" font-family="Helvetica,sans-Serif" font-size="10.00">(Vector2 position)</text>
<text text-anchor="start" x="13.5" y="-311" font-family="Helvetica,sans-Serif" font-size="10.00">+</text>
<text text-anchor="start" x="26.5" y="-311" font-family="Helvetica,sans-Serif" font-size="10.00">void OnTick() override</text>
<text text-anchor="start" x="13.5" y="-296" font-family="Helvetica,sans-Serif" font-size="10.00">+</text>
<text text-anchor="start" x="26.5" y="-296" font-family="Helvetica,sans-Serif" font-size="10.00">void OnStart() override</text>
<text text-anchor="start" x="13.5" y="-281" font-family="Helvetica,sans-Serif" font-size="10.00">+</text>
<text text-anchor="start" x="26.5" y="-281" font-family="Helvetica,sans-Serif" font-size="10.00">const std::shared_ptr</text>
<text text-anchor="start" x="26.5" y="-270" font-family="Helvetica,sans-Serif" font-size="10.00">&lt; Vector2 &gt; getColliderSize()</text>
<text text-anchor="start" x="13.5" y="-255" font-family="Helvetica,sans-Serif" font-size="10.00">+</text>
<text text-anchor="start" x="26.5" y="-255" font-family="Helvetica,sans-Serif" font-size="10.00">virtual void BeforeCollision</text>
<text text-anchor="start" x="26.5" y="-244" font-family="Helvetica,sans-Serif" font-size="10.00">(std::shared_ptr&lt; GameObject</text>
<text text-anchor="start" x="26.5" y="-233" font-family="Helvetica,sans-Serif" font-size="10.00"> &gt; other)</text>
<text text-anchor="start" x="13.5" y="-218" font-family="Helvetica,sans-Serif" font-size="10.00">+</text>
<text text-anchor="start" x="26.5" y="-218" font-family="Helvetica,sans-Serif" font-size="10.00">CollisionBehavior()</text>
<text text-anchor="start" x="13.5" y="-203" font-family="Helvetica,sans-Serif" font-size="10.00">+</text>
<text text-anchor="start" x="26.5" y="-203" font-family="Helvetica,sans-Serif" font-size="10.00">CollisionBehavior</text>
<text text-anchor="start" x="26.5" y="-192" font-family="Helvetica,sans-Serif" font-size="10.00">(int x, int y)</text>
<text text-anchor="start" x="13.5" y="-177" font-family="Helvetica,sans-Serif" font-size="10.00">#</text>
<text text-anchor="start" x="26.5" y="-177" font-family="Helvetica,sans-Serif" font-size="10.00">bool CheckForCollision</text>
<text text-anchor="start" x="26.5" y="-166" font-family="Helvetica,sans-Serif" font-size="10.00">(std::shared_ptr&lt; GameObject</text>
<text text-anchor="start" x="26.5" y="-155" font-family="Helvetica,sans-Serif" font-size="10.00"> &gt; other)</text>
<polygon fill="#666666" stroke="#666666" points="9.5,-373 9.5,-373 179.5,-373 179.5,-373 9.5,-373"/>
<polygon fill="#666666" stroke="#666666" points="9.5,-347 9.5,-347 24.5,-347 24.5,-347 9.5,-347"/>
<polygon fill="#666666" stroke="#666666" points="24.5,-347 24.5,-347 179.5,-347 179.5,-347 24.5,-347"/>
<polygon fill="none" stroke="#666666" points="9.5,-148 9.5,-390 179.5,-390 179.5,-148 9.5,-148"/>
</a>
</g>
</g>
<!-- Node2&#45;&gt;Node1 -->
<g id="edge1_Node000001_Node000002" class="edge">
<title>Node2&#45;&gt;Node1</title>
<g id="a_edge1_Node000001_Node000002"><a xlink:title=" ">
<path fill="none" stroke="#63b8ff" d="M94.5,-137.61C94.5,-128.75 94.5,-120.14 94.5,-112.04"/>
<polygon fill="none" stroke="#63b8ff" points="91,-137.71 94.5,-147.71 98,-137.71 91,-137.71"/>
</a>
</g>
</g>
<!-- Node3 -->
<g id="Node000003" class="node">
<title>Node3</title>
<g id="a_Node000003"><a xlink:href="../../df/dc1/classBehavior.html" target="_top" xlink:title="An abstract gameobject behavior.">
<polygon fill="white" stroke="transparent" points="121.5,-475 67.5,-475 67.5,-426 121.5,-426 121.5,-475"/>
<text text-anchor="start" x="72.5" y="-462.5" font-family="Helvetica,sans-Serif" font-size="10.00">Behavior</text>
<text text-anchor="start" x="92.5" y="-447.5" font-family="Helvetica,sans-Serif" font-size="10.00"> </text>
<text text-anchor="start" x="92.5" y="-432.5" font-family="Helvetica,sans-Serif" font-size="10.00"> </text>
<polygon fill="#666666" stroke="#666666" points="67.5,-457.5 67.5,-457.5 121.5,-457.5 121.5,-457.5 67.5,-457.5"/>
<polygon fill="#666666" stroke="#666666" points="67.5,-442.5 67.5,-442.5 121.5,-442.5 121.5,-442.5 67.5,-442.5"/>
<polygon fill="none" stroke="#666666" points="67.5,-426 67.5,-475 121.5,-475 121.5,-426 67.5,-426"/>
</a>
</g>
</g>
<!-- Node3&#45;&gt;Node2 -->
<g id="edge2_Node000002_Node000003" class="edge">
<title>Node3&#45;&gt;Node2</title>
<g id="a_edge2_Node000002_Node000003"><a xlink:title=" ">
<path fill="none" stroke="#63b8ff" d="M94.5,-415.44C94.5,-407.75 94.5,-399.17 94.5,-390.11"/>
<polygon fill="none" stroke="#63b8ff" points="91,-415.66 94.5,-425.66 98,-415.66 91,-415.66"/>
</a>
</g>
</g>
<!-- Node4 -->
<g id="Node000004" class="node">
<title>Node4</title>
<g id="a_Node000004"><a xlink:href="../../d9/df7/classGameObjectComponent.html" target="_top" xlink:title="An abstract gameobject component.">
<polygon fill="white" stroke="transparent" points="189,-672 0,-672 0,-511 189,-511 189,-672"/>
<text text-anchor="start" x="36" y="-659.5" font-family="Helvetica,sans-Serif" font-size="10.00">GameObjectComponent</text>
<text text-anchor="start" x="4.5" y="-644.5" font-family="Helvetica,sans-Serif" font-size="10.00">#</text>
<text text-anchor="start" x="17.5" y="-644.5" font-family="Helvetica,sans-Serif" font-size="10.00">bool enabled</text>
<text text-anchor="start" x="4.5" y="-629.5" font-family="Helvetica,sans-Serif" font-size="10.00">#</text>
<text text-anchor="start" x="17.5" y="-629.5" font-family="Helvetica,sans-Serif" font-size="10.00">GameObject * parent</text>
<text text-anchor="start" x="4.5" y="-614.5" font-family="Helvetica,sans-Serif" font-size="10.00">+</text>
<text text-anchor="start" x="17.5" y="-614.5" font-family="Helvetica,sans-Serif" font-size="10.00">bool getEnabled() const</text>
<text text-anchor="start" x="4.5" y="-599.5" font-family="Helvetica,sans-Serif" font-size="10.00">+</text>
<text text-anchor="start" x="17.5" y="-599.5" font-family="Helvetica,sans-Serif" font-size="10.00">void setEnabled(bool</text>
<text text-anchor="start" x="17.5" y="-588.5" font-family="Helvetica,sans-Serif" font-size="10.00"> value)</text>
<text text-anchor="start" x="4.5" y="-573.5" font-family="Helvetica,sans-Serif" font-size="10.00">+</text>
<text text-anchor="start" x="17.5" y="-573.5" font-family="Helvetica,sans-Serif" font-size="10.00">void setParent(GameObject</text>
<text text-anchor="start" x="17.5" y="-562.5" font-family="Helvetica,sans-Serif" font-size="10.00"> *value)</text>
<text text-anchor="start" x="4.5" y="-547.5" font-family="Helvetica,sans-Serif" font-size="10.00">+</text>
<text text-anchor="start" x="17.5" y="-547.5" font-family="Helvetica,sans-Serif" font-size="10.00">virtual ~GameObjectComponent()</text>
<text text-anchor="start" x="4.5" y="-532.5" font-family="Helvetica,sans-Serif" font-size="10.00">+</text>
<text text-anchor="start" x="17.5" y="-532.5" font-family="Helvetica,sans-Serif" font-size="10.00">virtual void OnTick()=0</text>
<text text-anchor="start" x="4.5" y="-517.5" font-family="Helvetica,sans-Serif" font-size="10.00">+</text>
<text text-anchor="start" x="17.5" y="-517.5" font-family="Helvetica,sans-Serif" font-size="10.00">virtual void OnStart()=0</text>
<polygon fill="#666666" stroke="#666666" points="0.5,-654.5 0.5,-654.5 189.5,-654.5 189.5,-654.5 0.5,-654.5"/>
<polygon fill="#666666" stroke="#666666" points="0.5,-624.5 0.5,-624.5 15.5,-624.5 15.5,-624.5 0.5,-624.5"/>
<polygon fill="#666666" stroke="#666666" points="15.5,-624.5 15.5,-624.5 189.5,-624.5 189.5,-624.5 15.5,-624.5"/>
<polygon fill="none" stroke="#666666" points="0,-511 0,-672 189,-672 189,-511 0,-511"/>
</a>
</g>
</g>
<!-- Node4&#45;&gt;Node3 -->
<g id="edge3_Node000003_Node000004" class="edge">
<title>Node4&#45;&gt;Node3</title>
<g id="a_edge3_Node000003_Node000004"><a xlink:title=" ">
<path fill="none" stroke="#63b8ff" d="M94.5,-500.64C94.5,-491.4 94.5,-482.68 94.5,-475.22"/>
<polygon fill="none" stroke="#63b8ff" points="91,-500.85 94.5,-510.85 98,-500.85 91,-500.85"/>
</a>
</g>
</g>
</g>
</svg>
