<?xml version="1.0" encoding="UTF-8" standalone="no"?>
<!DOCTYPE svg PUBLIC "-//W3C//DTD SVG 1.1//EN"
 "http://www.w3.org/Graphics/SVG/1.1/DTD/svg11.dtd">
<!-- Generated by graphviz version 2.43.0 (0)
 -->
<!-- Title: engine/components/behaviors/Behavior.hpp Pages: 1 -->
<!--zoomable 236 -->
<svg id="main" version="1.1" xmlns="http://www.w3.org/2000/svg" xmlns:xlink="http://www.w3.org/1999/xlink" xml:space="preserve" onload="init(evt)">
<style type="text/css"><![CDATA[
.edge:hover path { stroke: red; }
.edge:hover polygon { stroke: red; fill: red; }
]]></style>
<script type="text/javascript"><![CDATA[
var edges = document.getElementsByTagName('g');
if (edges && edges.length) {
  for (var i=0;i<edges.length;i++) {
    if (edges[i].id.substr(0,4)=='edge') {
      edges[i].setAttribute('class','edge');
    }
  }
}
]]></script>
        <defs>
                <circle id="rim" cx="0" cy="0" r="7"/>
                <circle id="rim2" cx="0" cy="0" r="3.5"/>
                <g id="zoomPlus">
                        <use xlink:href="#rim" fill="#404040">
                                <set attributeName="fill" to="#808080" begin="zoomplus.mouseover" end="zoomplus.mouseout"/>
                        </use>
                        <path d="M-4,0h8M0,-4v8" fill="none" stroke="white" stroke-width="1.5" pointer-events="none"/>
                </g>
                <g id="zoomMin">
                        <use xlink:href="#rim" fill="#404040">
                                <set attributeName="fill" to="#808080" begin="zoomminus.mouseover" end="zoomminus.mouseout"/>
                        </use>
                        <path d="M-4,0h8" fill="none" stroke="white" stroke-width="1.5" pointer-events="none"/>
                </g>
                <g id="dirArrow">
                        <path fill="none" stroke="white" stroke-width="1.5" d="M0,-3.0v7 M-2.5,-0.5L0,-3.0L2.5,-0.5"/>
                </g>
               <g id="resetDef">
                       <use xlink:href="#rim2" fill="#404040">
                               <set attributeName="fill" to="#808080" begin="reset.mouseover" end="reset.mouseout"/>
                       </use>
               </g>
        </defs>

<script type="text/javascript">
var viewWidth = 2715;
var viewHeight = 236;
var sectionId = 'dynsection-1';
</script>
<script xlink:href="../../svgpan.js"/>
<svg id="graph" class="graph">
<g id="viewport">
<title>engine/components/behaviors/Behavior.hpp</title>
<!-- Node1 -->
<g id="node1" class="node">
<title>Node1</title>
<g id="a_node1"><a xlink:title=" ">
<polygon fill="#999999" stroke="#666666" points="1459.5,-228 1295.5,-228 1295.5,-198 1459.5,-198 1459.5,-228"/>
<text text-anchor="start" x="1303.5" y="-216" font-family="Helvetica,sans-Serif" font-size="10.00">engine/components/behaviors</text>
<text text-anchor="middle" x="1377.5" y="-205" font-family="Helvetica,sans-Serif" font-size="10.00">/Behavior.hpp</text>
</a>
</g>
</g>
<!-- Node2 -->
<g id="node2" class="node">
<title>Node2</title>
<g id="a_node2"><a xlink:href="../../d2/daf/Behavior_8cpp.html" target="_top" xlink:title=" ">
<polygon fill="white" stroke="#666666" points="907.5,-162 743.5,-162 743.5,-132 907.5,-132 907.5,-162"/>
<text text-anchor="start" x="751.5" y="-150" font-family="Helvetica,sans-Serif" font-size="10.00">engine/components/behaviors</text>
<text text-anchor="middle" x="825.5" y="-139" font-family="Helvetica,sans-Serif" font-size="10.00">/Behavior.cpp</text>
</a>
</g>
</g>
<!-- Node1&#45;&gt;Node2 -->
<g id="edge1" class="edge">
<title>Node1&#45;&gt;Node2</title>
<path fill="none" stroke="#63b8ff" d="M1285.29,-202.86C1193.1,-193.5 1047.33,-178.07 921.5,-162 916.99,-161.42 912.36,-160.81 907.69,-160.18"/>
<polygon fill="#63b8ff" stroke="#63b8ff" points="1285.13,-206.36 1295.43,-203.89 1285.84,-199.4 1285.13,-206.36"/>
</g>
<!-- Node3 -->
<g id="node3" class="node">
<title>Node3</title>
<g id="a_node3"><a xlink:href="../../dc/d19/CollisionBehavior_8hpp.html" target="_top" xlink:title=" ">
<polygon fill="white" stroke="#666666" points="1822.5,-162 1658.5,-162 1658.5,-132 1822.5,-132 1822.5,-162"/>
<text text-anchor="start" x="1666.5" y="-150" font-family="Helvetica,sans-Serif" font-size="10.00">engine/components/behaviors</text>
<text text-anchor="middle" x="1740.5" y="-139" font-family="Helvetica,sans-Serif" font-size="10.00">/CollisionBehavior.hpp</text>
</a>
</g>
</g>
<!-- Node1&#45;&gt;Node3 -->
<g id="edge2" class="edge">
<title>Node1&#45;&gt;Node3</title>
<path fill="none" stroke="#63b8ff" d="M1467.28,-196.17C1526.68,-185.7 1603.85,-172.09 1661.02,-162.01"/>
<polygon fill="#63b8ff" stroke="#63b8ff" points="1466.4,-192.77 1457.16,-197.95 1467.62,-199.67 1466.4,-192.77"/>
</g>
<!-- Node14 -->
<g id="node14" class="node">
<title>Node14</title>
<g id="a_node14"><a xlink:href="../../d5/d6d/GravityBehavior_8hpp.html" target="_top" xlink:title=" ">
<polygon fill="white" stroke="#666666" points="311.5,-96 147.5,-96 147.5,-66 311.5,-66 311.5,-96"/>
<text text-anchor="start" x="155.5" y="-84" font-family="Helvetica,sans-Serif" font-size="10.00">engine/components/behaviors</text>
<text text-anchor="middle" x="229.5" y="-73" font-family="Helvetica,sans-Serif" font-size="10.00">/GravityBehavior.hpp</text>
</a>
</g>
</g>
<!-- Node1&#45;&gt;Node14 -->
<g id="edge14" class="edge">
<title>Node1&#45;&gt;Node14</title>
<path fill="none" stroke="#63b8ff" d="M1285.37,-205.26C1188.59,-197.25 1043.36,-182.38 991.5,-162 970.15,-153.61 971.14,-139.62 949.5,-132 817.45,-85.48 459.74,-110.66 320.5,-96 317.64,-95.7 314.73,-95.37 311.79,-95.02"/>
<polygon fill="#63b8ff" stroke="#63b8ff" points="1285.2,-208.75 1295.46,-206.08 1285.77,-201.78 1285.2,-208.75"/>
</g>
<!-- Node16 -->
<g id="node16" class="node">
<title>Node16</title>
<g id="a_node16"><a xlink:href="../../de/dfb/KeyboardHandlerBehavior_8hpp.html" target="_top" xlink:title=" ">
<polygon fill="white" stroke="#666666" points="1168,-162 1001,-162 1001,-132 1168,-132 1168,-162"/>
<text text-anchor="start" x="1009" y="-150" font-family="Helvetica,sans-Serif" font-size="10.00">engine/components/behaviors</text>
<text text-anchor="middle" x="1084.5" y="-139" font-family="Helvetica,sans-Serif" font-size="10.00">/KeyboardHandlerBehavior.hpp</text>
</a>
</g>
</g>
<!-- Node1&#45;&gt;Node16 -->
<g id="edge19" class="edge">
<title>Node1&#45;&gt;Node16</title>
<path fill="none" stroke="#63b8ff" d="M1303.24,-195.78C1255.54,-185.36 1194.22,-171.97 1148.65,-162.01"/>
<polygon fill="#63b8ff" stroke="#63b8ff" points="1302.68,-199.24 1313.2,-197.95 1304.18,-192.4 1302.68,-199.24"/>
</g>
<!-- Node21 -->
<g id="node21" class="node">
<title>Node21</title>
<g id="a_node21"><a xlink:href="../../dc/da8/KinematicBehavior_8hpp.html" target="_top" xlink:title=" ">
<polygon fill="white" stroke="#666666" points="2357.5,-96 2193.5,-96 2193.5,-66 2357.5,-66 2357.5,-96"/>
<text text-anchor="start" x="2201.5" y="-84" font-family="Helvetica,sans-Serif" font-size="10.00">engine/components/behaviors</text>
<text text-anchor="middle" x="2275.5" y="-73" font-family="Helvetica,sans-Serif" font-size="10.00">/KinematicBehavior.hpp</text>
</a>
</g>
</g>
<!-- Node1&#45;&gt;Node21 -->
<g id="edge27" class="edge">
<title>Node1&#45;&gt;Node21</title>
<path fill="none" stroke="#63b8ff" d="M1469.84,-203.7C1561.74,-195 1706.69,-180.09 1831.5,-162 1964.63,-142.7 2118.97,-113.29 2206.14,-96.02"/>
<polygon fill="#63b8ff" stroke="#63b8ff" points="1469.36,-200.23 1459.73,-204.65 1470.02,-207.2 1469.36,-200.23"/>
</g>
<!-- Node23 -->
<g id="node23" class="node">
<title>Node23</title>
<g id="a_node23"><a xlink:href="../../db/d99/CoffeeBehavior_8hpp.html" target="_top" xlink:title=" ">
<polygon fill="white" stroke="#666666" points="2503.5,-162 2375.5,-162 2375.5,-132 2503.5,-132 2503.5,-162"/>
<text text-anchor="start" x="2383.5" y="-150" font-family="Helvetica,sans-Serif" font-size="10.00">game/behaviors/coffee</text>
<text text-anchor="middle" x="2439.5" y="-139" font-family="Helvetica,sans-Serif" font-size="10.00">/CoffeeBehavior.hpp</text>
</a>
</g>
</g>
<!-- Node1&#45;&gt;Node23 -->
<g id="edge31" class="edge">
<title>Node1&#45;&gt;Node23</title>
<path fill="none" stroke="#63b8ff" d="M1469.63,-206.45C1680.66,-193.73 2194.72,-162.75 2375.41,-151.86"/>
<polygon fill="#63b8ff" stroke="#63b8ff" points="1469.28,-202.96 1459.51,-207.06 1469.7,-209.95 1469.28,-202.96"/>
</g>
<!-- Node25 -->
<g id="node25" class="node">
<title>Node25</title>
<g id="a_node25"><a xlink:href="../../d4/d09/CoffeeMeterBehavior_8hpp.html" target="_top" xlink:title=" ">
<polygon fill="white" stroke="#666666" points="1453,-96 1296,-96 1296,-66 1453,-66 1453,-96"/>
<text text-anchor="start" x="1304" y="-84" font-family="Helvetica,sans-Serif" font-size="10.00">game/behaviors/coffeeMeter</text>
<text text-anchor="middle" x="1374.5" y="-73" font-family="Helvetica,sans-Serif" font-size="10.00">/CoffeeMeterBehavior.hpp</text>
</a>
</g>
</g>
<!-- Node1&#45;&gt;Node25 -->
<g id="edge34" class="edge">
<title>Node1&#45;&gt;Node25</title>
<path fill="none" stroke="#63b8ff" d="M1376.94,-187.68C1376.32,-160.7 1375.33,-118.11 1374.83,-96.14"/>
<polygon fill="#63b8ff" stroke="#63b8ff" points="1373.44,-187.92 1377.17,-197.84 1380.44,-187.76 1373.44,-187.92"/>
</g>
<!-- Node27 -->
<g id="node27" class="node">
<title>Node27</title>
<g id="a_node27"><a xlink:href="../../de/d48/EnemyBehavior_8hpp.html" target="_top" xlink:title=" ">
<polygon fill="white" stroke="#666666" points="2691.5,-162 2559.5,-162 2559.5,-132 2691.5,-132 2691.5,-162"/>
<text text-anchor="start" x="2567.5" y="-150" font-family="Helvetica,sans-Serif" font-size="10.00">game/behaviors/enemy</text>
<text text-anchor="middle" x="2625.5" y="-139" font-family="Helvetica,sans-Serif" font-size="10.00">/EnemyBehavior.hpp</text>
</a>
</g>
</g>
<!-- Node1&#45;&gt;Node27 -->
<g id="edge39" class="edge">
<title>Node1&#45;&gt;Node27</title>
<path fill="none" stroke="#63b8ff" d="M1469.67,-210.41C1663.17,-206.54 2125.83,-194.42 2512.5,-162 2527.67,-160.73 2543.93,-158.96 2559.27,-157.1"/>
<polygon fill="#63b8ff" stroke="#63b8ff" points="1469.47,-206.92 1459.54,-210.61 1469.61,-213.92 1469.47,-206.92"/>
</g>
<!-- Node29 -->
<g id="node29" class="node">
<title>Node29</title>
<g id="a_node29"><a xlink:href="../../d2/d74/GameManagerBehavior_8hpp.html" target="_top" xlink:title=" ">
<polygon fill="white" stroke="#666666" points="1640,-96 1471,-96 1471,-66 1640,-66 1640,-96"/>
<text text-anchor="start" x="1479" y="-84" font-family="Helvetica,sans-Serif" font-size="10.00">game/behaviors/gameManager</text>
<text text-anchor="middle" x="1555.5" y="-73" font-family="Helvetica,sans-Serif" font-size="10.00">/GameManagerBehavior.hpp</text>
</a>
</g>
</g>
<!-- Node1&#45;&gt;Node29 -->
<g id="edge42" class="edge">
<title>Node1&#45;&gt;Node29</title>
<path fill="none" stroke="#63b8ff" d="M1405.09,-191.85C1441.43,-165.31 1504.45,-119.28 1536.14,-96.14"/>
<polygon fill="#63b8ff" stroke="#63b8ff" points="1402.9,-189.12 1396.89,-197.84 1407.03,-194.77 1402.9,-189.12"/>
</g>
<!-- Node30 -->
<g id="node30" class="node">
<title>Node30</title>
<g id="a_node30"><a xlink:href="../../dd/da3/PlayerBehavior_8hpp.html" target="_top" xlink:title=" ">
<polygon fill="white" stroke="#666666" points="129,-96 0,-96 0,-66 129,-66 129,-96"/>
<text text-anchor="start" x="8" y="-84" font-family="Helvetica,sans-Serif" font-size="10.00">game/behaviors/player</text>
<text text-anchor="middle" x="64.5" y="-73" font-family="Helvetica,sans-Serif" font-size="10.00">/PlayerBehavior.hpp</text>
</a>
</g>
</g>
<!-- Node1&#45;&gt;Node30 -->
<g id="edge45" class="edge">
<title>Node1&#45;&gt;Node30</title>
<path fill="none" stroke="#63b8ff" d="M1285.13,-207.81C1177.64,-201.79 1007.47,-188.38 949.5,-162 931.46,-153.79 934.82,-139.57 916.5,-132 756.56,-65.87 310.4,-116.14 138.5,-96 135.51,-95.65 132.47,-95.25 129.39,-94.81"/>
<polygon fill="#63b8ff" stroke="#63b8ff" points="1285.16,-211.31 1295.33,-208.37 1285.54,-204.32 1285.16,-211.31"/>
</g>
<!-- Node32 -->
<g id="node32" class="node">
<title>Node32</title>
<g id="a_node32"><a xlink:href="../../d9/de4/ScoreCounterBehavior_8hpp.html" target="_top" xlink:title=" ">
<polygon fill="white" stroke="#666666" points="1349,-162 1186,-162 1186,-132 1349,-132 1349,-162"/>
<text text-anchor="start" x="1194" y="-150" font-family="Helvetica,sans-Serif" font-size="10.00">game/behaviors/scoreCounter</text>
<text text-anchor="middle" x="1267.5" y="-139" font-family="Helvetica,sans-Serif" font-size="10.00">/ScoreCounterBehavior.hpp</text>
</a>
</g>
</g>
<!-- Node1&#45;&gt;Node32 -->
<g id="edge50" class="edge">
<title>Node1&#45;&gt;Node32</title>
<path fill="none" stroke="#63b8ff" d="M1344.32,-192.69C1327.34,-182.82 1307.05,-171.01 1291.58,-162.01"/>
<polygon fill="#63b8ff" stroke="#63b8ff" points="1342.96,-195.95 1353.36,-197.95 1346.48,-189.9 1342.96,-195.95"/>
</g>
<!-- Node4 -->
<g id="node4" class="node">
<title>Node4</title>
<g id="a_node4"><a xlink:href="../../d5/d92/CollisionBehavior_8cpp.html" target="_top" xlink:title=" ">
<polygon fill="white" stroke="#666666" points="1822.5,-96 1658.5,-96 1658.5,-66 1822.5,-66 1822.5,-96"/>
<text text-anchor="start" x="1666.5" y="-84" font-family="Helvetica,sans-Serif" font-size="10.00">engine/components/behaviors</text>
<text text-anchor="middle" x="1740.5" y="-73" font-family="Helvetica,sans-Serif" font-size="10.00">/CollisionBehavior.cpp</text>
</a>
</g>
</g>
<!-- Node3&#45;&gt;Node4 -->
<g id="edge3" class="edge">
<title>Node3&#45;&gt;Node4</title>
<path fill="none" stroke="#63b8ff" d="M1740.5,-121.54C1740.5,-112.96 1740.5,-103.61 1740.5,-96.16"/>
<polygon fill="#63b8ff" stroke="#63b8ff" points="1737,-121.8 1740.5,-131.8 1744,-121.8 1737,-121.8"/>
</g>
<!-- Node5 -->
<g id="node5" class="node">
<title>Node5</title>
<g id="a_node5"><a xlink:href="../../d3/d9f/CoffeeCollisionBehavior_8hpp.html" target="_top" xlink:title=" ">
<polygon fill="white" stroke="#666666" points="1998,-96 1841,-96 1841,-66 1998,-66 1998,-96"/>
<text text-anchor="start" x="1849" y="-84" font-family="Helvetica,sans-Serif" font-size="10.00">game/behaviors/coffee</text>
<text text-anchor="middle" x="1919.5" y="-73" font-family="Helvetica,sans-Serif" font-size="10.00">/CoffeeCollisionBehavior.hpp</text>
</a>
</g>
</g>
<!-- Node3&#45;&gt;Node5 -->
<g id="edge4" class="edge">
<title>Node3&#45;&gt;Node5</title>
<path fill="none" stroke="#63b8ff" d="M1789.57,-128.46C1818.12,-118.25 1853.63,-105.55 1880.31,-96.01"/>
<polygon fill="#63b8ff" stroke="#63b8ff" points="1788.02,-125.29 1779.78,-131.95 1790.38,-131.88 1788.02,-125.29"/>
</g>
<!-- Node8 -->
<g id="node8" class="node">
<title>Node8</title>
<g id="a_node8"><a xlink:href="../../dc/d17/EnemyCollisionBehavior_8hpp.html" target="_top" xlink:title=" ">
<polygon fill="white" stroke="#666666" points="2175,-96 2016,-96 2016,-66 2175,-66 2175,-96"/>
<text text-anchor="start" x="2024" y="-84" font-family="Helvetica,sans-Serif" font-size="10.00">game/behaviors/enemy</text>
<text text-anchor="middle" x="2095.5" y="-73" font-family="Helvetica,sans-Serif" font-size="10.00">/EnemyCollisionBehavior.hpp</text>
</a>
</g>
</g>
<!-- Node3&#45;&gt;Node8 -->
<g id="edge7" class="edge">
<title>Node3&#45;&gt;Node8</title>
<path fill="none" stroke="#63b8ff" d="M1828.31,-130.17C1886.39,-119.7 1961.87,-106.09 2017.78,-96.01"/>
<polygon fill="#63b8ff" stroke="#63b8ff" points="1827.63,-126.74 1818.41,-131.95 1828.87,-133.63 1827.63,-126.74"/>
</g>
<!-- Node10 -->
<g id="node10" class="node">
<title>Node10</title>
<g id="a_node10"><a xlink:href="../../db/d9e/PlayerCollisionBehavior_8hpp.html" target="_top" xlink:title=" ">
<polygon fill="white" stroke="#666666" points="1025.5,-96 869.5,-96 869.5,-66 1025.5,-66 1025.5,-96"/>
<text text-anchor="start" x="877.5" y="-84" font-family="Helvetica,sans-Serif" font-size="10.00">game/behaviors/player</text>
<text text-anchor="middle" x="947.5" y="-73" font-family="Helvetica,sans-Serif" font-size="10.00">/PlayerCollisionBehavior.hpp</text>
</a>
</g>
</g>
<!-- Node3&#45;&gt;Node10 -->
<g id="edge10" class="edge">
<title>Node3&#45;&gt;Node10</title>
<path fill="none" stroke="#63b8ff" d="M1648.18,-142.08C1513.11,-135.76 1253.84,-121.36 1034.5,-96 1031.61,-95.67 1028.67,-95.3 1025.71,-94.92"/>
<polygon fill="#63b8ff" stroke="#63b8ff" points="1648.33,-145.59 1658.48,-142.56 1648.65,-138.6 1648.33,-145.59"/>
</g>
<!-- Node6 -->
<g id="node6" class="node">
<title>Node6</title>
<g id="a_node6"><a xlink:href="../../d0/d59/CoffeeCollisionBehavior_8cpp.html" target="_top" xlink:title=" ">
<polygon fill="white" stroke="#666666" points="1812.5,-30 1656.5,-30 1656.5,0 1812.5,0 1812.5,-30"/>
<text text-anchor="start" x="1664.5" y="-18" font-family="Helvetica,sans-Serif" font-size="10.00">game/behaviors/coffee</text>
<text text-anchor="middle" x="1734.5" y="-7" font-family="Helvetica,sans-Serif" font-size="10.00">/CoffeeCollisionBehavior.cpp</text>
</a>
</g>
</g>
<!-- Node5&#45;&gt;Node6 -->
<g id="edge5" class="edge">
<title>Node5&#45;&gt;Node6</title>
<path fill="none" stroke="#63b8ff" d="M1869.17,-62.59C1839.6,-52.36 1802.7,-39.59 1775,-30.01"/>
<polygon fill="#63b8ff" stroke="#63b8ff" points="1868.31,-65.99 1878.9,-65.95 1870.59,-59.38 1868.31,-65.99"/>
</g>
<!-- Node7 -->
<g id="node7" class="node">
<title>Node7</title>
<g id="a_node7"><a xlink:href="../../df/d88/GameManagerBehavior_8cpp.html" target="_top" xlink:title=" ">
<polygon fill="white" stroke="#666666" points="2270,-30 2101,-30 2101,0 2270,0 2270,-30"/>
<text text-anchor="start" x="2109" y="-18" font-family="Helvetica,sans-Serif" font-size="10.00">game/behaviors/gameManager</text>
<text text-anchor="middle" x="2185.5" y="-7" font-family="Helvetica,sans-Serif" font-size="10.00">/GameManagerBehavior.cpp</text>
</a>
</g>
</g>
<!-- Node5&#45;&gt;Node7 -->
<g id="edge6" class="edge">
<title>Node5&#45;&gt;Node7</title>
<path fill="none" stroke="#63b8ff" d="M1987.73,-63.58C2030.92,-53.19 2086.15,-39.9 2127.26,-30.01"/>
<polygon fill="#63b8ff" stroke="#63b8ff" points="1986.78,-60.21 1977.87,-65.95 1988.42,-67.02 1986.78,-60.21"/>
</g>
<!-- Node8&#45;&gt;Node7 -->
<g id="edge9" class="edge">
<title>Node8&#45;&gt;Node7</title>
<path fill="none" stroke="#63b8ff" d="M2123.97,-59.75C2137.51,-50.13 2153.36,-38.86 2165.58,-30.16"/>
<polygon fill="#63b8ff" stroke="#63b8ff" points="2121.6,-57.15 2115.47,-65.8 2125.65,-62.85 2121.6,-57.15"/>
</g>
<!-- Node9 -->
<g id="node9" class="node">
<title>Node9</title>
<g id="a_node9"><a xlink:href="../../dd/d3b/EnemyCollisionBehavior_8cpp.html" target="_top" xlink:title=" ">
<polygon fill="white" stroke="#666666" points="2083.5,-30 1925.5,-30 1925.5,0 2083.5,0 2083.5,-30"/>
<text text-anchor="start" x="1933.5" y="-18" font-family="Helvetica,sans-Serif" font-size="10.00">game/behaviors/enemy</text>
<text text-anchor="middle" x="2004.5" y="-7" font-family="Helvetica,sans-Serif" font-size="10.00">/EnemyCollisionBehavior.cpp</text>
</a>
</g>
</g>
<!-- Node8&#45;&gt;Node9 -->
<g id="edge8" class="edge">
<title>Node8&#45;&gt;Node9</title>
<path fill="none" stroke="#63b8ff" d="M2067.1,-60.03C2053.33,-50.34 2037.12,-38.94 2024.64,-30.16"/>
<polygon fill="#63b8ff" stroke="#63b8ff" points="2065.11,-62.91 2075.3,-65.8 2069.14,-57.18 2065.11,-62.91"/>
</g>
<!-- Node11 -->
<g id="node11" class="node">
<title>Node11</title>
<g id="a_node11"><a xlink:href="../../d9/dfa/Init_8cpp.html" target="_top" xlink:title=" ">
<polygon fill="white" stroke="#666666" points="1230,-24.5 1147,-24.5 1147,-5.5 1230,-5.5 1230,-24.5"/>
<text text-anchor="middle" x="1188.5" y="-12.5" font-family="Helvetica,sans-Serif" font-size="10.00">game/Init.cpp</text>
</a>
</g>
</g>
<!-- Node10&#45;&gt;Node11 -->
<g id="edge11" class="edge">
<title>Node10&#45;&gt;Node11</title>
<path fill="none" stroke="#63b8ff" d="M1011.7,-63.29C1048.54,-53.65 1095.65,-41.25 1137.5,-30 1143.97,-28.26 1150.9,-26.37 1157.5,-24.57"/>
<polygon fill="#63b8ff" stroke="#63b8ff" points="1010.38,-60.01 1001.59,-65.93 1012.15,-66.78 1010.38,-60.01"/>
</g>
<!-- Node12 -->
<g id="node12" class="node">
<title>Node12</title>
<g id="a_node12"><a xlink:href="../../d9/d5f/PlayerCollisionBehavior_8cpp.html" target="_top" xlink:title=" ">
<polygon fill="white" stroke="#666666" points="903,-30 748,-30 748,0 903,0 903,-30"/>
<text text-anchor="start" x="756" y="-18" font-family="Helvetica,sans-Serif" font-size="10.00">game/behaviors/player</text>
<text text-anchor="middle" x="825.5" y="-7" font-family="Helvetica,sans-Serif" font-size="10.00">/PlayerCollisionBehavior.cpp</text>
</a>
</g>
</g>
<!-- Node10&#45;&gt;Node12 -->
<g id="edge12" class="edge">
<title>Node10&#45;&gt;Node12</title>
<path fill="none" stroke="#63b8ff" d="M911.74,-61.24C892.7,-51.25 869.68,-39.18 852.21,-30.01"/>
<polygon fill="#63b8ff" stroke="#63b8ff" points="910.25,-64.41 920.73,-65.95 913.5,-58.21 910.25,-64.41"/>
</g>
<!-- Node13 -->
<g id="node13" class="node">
<title>Node13</title>
<g id="a_node13"><a xlink:href="../../dd/d4b/PlayerKeyboardBehavior_8cpp.html" target="_top" xlink:title=" ">
<polygon fill="white" stroke="#666666" points="579,-30 420,-30 420,0 579,0 579,-30"/>
<text text-anchor="start" x="428" y="-18" font-family="Helvetica,sans-Serif" font-size="10.00">game/behaviors/player</text>
<text text-anchor="middle" x="499.5" y="-7" font-family="Helvetica,sans-Serif" font-size="10.00">/PlayerKeyboardBehavior.cpp</text>
</a>
</g>
</g>
<!-- Node10&#45;&gt;Node13 -->
<g id="edge13" class="edge">
<title>Node10&#45;&gt;Node13</title>
<path fill="none" stroke="#63b8ff" d="M859.35,-66C756.33,-50.71 649.99,-36.14 579.28,-26.62"/>
<polygon fill="#63b8ff" stroke="#63b8ff" points="858.9,-69.47 869.3,-67.48 859.93,-62.54 858.9,-69.47"/>
</g>
<!-- Node14&#45;&gt;Node11 -->
<g id="edge16" class="edge">
<title>Node14&#45;&gt;Node11</title>
<path fill="none" stroke="#63b8ff" d="M321.76,-65.96C683.97,-31.32 781.69,-85.95 1137.5,-30 1145.48,-28.74 1154,-26.7 1161.75,-24.55"/>
<polygon fill="#63b8ff" stroke="#63b8ff" points="321.4,-62.48 311.79,-66.93 322.08,-69.45 321.4,-62.48"/>
</g>
<!-- Node14&#45;&gt;Node12 -->
<g id="edge17" class="edge">
<title>Node14&#45;&gt;Node12</title>
<path fill="none" stroke="#63b8ff" d="M322.13,-65.84C479.07,-46.24 650.8,-30.64 747.92,-22.37"/>
<polygon fill="#63b8ff" stroke="#63b8ff" points="321.3,-62.41 311.81,-67.13 322.17,-69.36 321.3,-62.41"/>
</g>
<!-- Node14&#45;&gt;Node13 -->
<g id="edge18" class="edge">
<title>Node14&#45;&gt;Node13</title>
<path fill="none" stroke="#63b8ff" d="M298.48,-63.65C342.35,-53.25 398.57,-39.93 440.39,-30.01"/>
<polygon fill="#63b8ff" stroke="#63b8ff" points="297.68,-60.24 288.75,-65.95 299.29,-67.05 297.68,-60.24"/>
</g>
<!-- Node15 -->
<g id="node15" class="node">
<title>Node15</title>
<g id="a_node15"><a xlink:href="../../d5/d54/GravityBehavior_8cpp.html" target="_top" xlink:title=" ">
<polygon fill="white" stroke="#666666" points="311.5,-30 147.5,-30 147.5,0 311.5,0 311.5,-30"/>
<text text-anchor="start" x="155.5" y="-18" font-family="Helvetica,sans-Serif" font-size="10.00">engine/components/behaviors</text>
<text text-anchor="middle" x="229.5" y="-7" font-family="Helvetica,sans-Serif" font-size="10.00">/GravityBehavior.cpp</text>
</a>
</g>
</g>
<!-- Node14&#45;&gt;Node15 -->
<g id="edge15" class="edge">
<title>Node14&#45;&gt;Node15</title>
<path fill="none" stroke="#63b8ff" d="M229.5,-55.54C229.5,-46.96 229.5,-37.61 229.5,-30.16"/>
<polygon fill="#63b8ff" stroke="#63b8ff" points="226,-55.8 229.5,-65.8 233,-55.8 226,-55.8"/>
</g>
<!-- Node17 -->
<g id="node17" class="node">
<title>Node17</title>
<g id="a_node17"><a xlink:href="../../d2/d3b/KeyboardHandling_8cpp.html" target="_top" xlink:title=" ">
<polygon fill="white" stroke="#666666" points="491.5,-90.5 329.5,-90.5 329.5,-71.5 491.5,-71.5 491.5,-90.5"/>
<text text-anchor="middle" x="410.5" y="-78.5" font-family="Helvetica,sans-Serif" font-size="10.00">engine/KeyboardHandling.cpp</text>
</a>
</g>
</g>
<!-- Node16&#45;&gt;Node17 -->
<g id="edge20" class="edge">
<title>Node16&#45;&gt;Node17</title>
<path fill="none" stroke="#63b8ff" d="M990.82,-132.37C989.71,-132.24 988.6,-132.12 987.5,-132 771.74,-108.48 716.12,-120.7 500.5,-96 487.62,-94.52 473.75,-92.56 460.86,-90.57"/>
<polygon fill="#63b8ff" stroke="#63b8ff" points="990.61,-135.87 1000.95,-133.56 991.43,-128.92 990.61,-135.87"/>
</g>
<!-- Node18 -->
<g id="node18" class="node">
<title>Node18</title>
<g id="a_node18"><a xlink:href="../../da/d20/GameManagerKeyboardHandler_8hpp.html" target="_top" xlink:title=" ">
<polygon fill="white" stroke="#666666" points="1239.5,-96 1043.5,-96 1043.5,-66 1239.5,-66 1239.5,-96"/>
<text text-anchor="start" x="1051.5" y="-84" font-family="Helvetica,sans-Serif" font-size="10.00">game/behaviors/gameManager</text>
<text text-anchor="middle" x="1141.5" y="-73" font-family="Helvetica,sans-Serif" font-size="10.00">/GameManagerKeyboardHandler.hpp</text>
</a>
</g>
</g>
<!-- Node16&#45;&gt;Node18 -->
<g id="edge21" class="edge">
<title>Node16&#45;&gt;Node18</title>
<path fill="none" stroke="#63b8ff" d="M1104.02,-124.09C1112.24,-114.85 1121.59,-104.36 1128.89,-96.16"/>
<polygon fill="#63b8ff" stroke="#63b8ff" points="1101.19,-122 1097.15,-131.8 1106.41,-126.66 1101.19,-122"/>
</g>
<!-- Node20 -->
<g id="node20" class="node">
<title>Node20</title>
<g id="a_node20"><a xlink:href="../../d0/dd8/PlayerKeyboardBehavior_8hpp.html" target="_top" xlink:title=" ">
<polygon fill="white" stroke="#666666" points="669.5,-96 509.5,-96 509.5,-66 669.5,-66 669.5,-96"/>
<text text-anchor="start" x="517.5" y="-84" font-family="Helvetica,sans-Serif" font-size="10.00">game/behaviors/player</text>
<text text-anchor="middle" x="589.5" y="-73" font-family="Helvetica,sans-Serif" font-size="10.00">/PlayerKeyboardBehavior.hpp</text>
</a>
</g>
</g>
<!-- Node16&#45;&gt;Node20 -->
<g id="edge24" class="edge">
<title>Node16&#45;&gt;Node20</title>
<path fill="none" stroke="#63b8ff" d="M990.81,-132.43C989.7,-132.29 988.6,-132.14 987.5,-132 850.4,-114.12 815.49,-114.75 678.5,-96 675.56,-95.6 672.56,-95.18 669.53,-94.74"/>
<polygon fill="#63b8ff" stroke="#63b8ff" points="990.54,-135.93 1000.92,-133.79 991.47,-128.99 990.54,-135.93"/>
</g>
<!-- Node18&#45;&gt;Node11 -->
<g id="edge22" class="edge">
<title>Node18&#45;&gt;Node11</title>
<path fill="none" stroke="#63b8ff" d="M1157.94,-57.61C1166.23,-46.32 1175.81,-33.28 1182,-24.84"/>
<polygon fill="#63b8ff" stroke="#63b8ff" points="1155.03,-55.66 1151.93,-65.8 1160.67,-59.81 1155.03,-55.66"/>
</g>
<!-- Node19 -->
<g id="node19" class="node">
<title>Node19</title>
<g id="a_node19"><a xlink:href="../../d8/d23/GameManagerKeyboardHandler_8cpp.html" target="_top" xlink:title=" ">
<polygon fill="white" stroke="#666666" points="1129,-30 934,-30 934,0 1129,0 1129,-30"/>
<text text-anchor="start" x="942" y="-18" font-family="Helvetica,sans-Serif" font-size="10.00">game/behaviors/gameManager</text>
<text text-anchor="middle" x="1031.5" y="-7" font-family="Helvetica,sans-Serif" font-size="10.00">/GameManagerKeyboardHandler.cpp</text>
</a>
</g>
</g>
<!-- Node18&#45;&gt;Node19 -->
<g id="edge23" class="edge">
<title>Node18&#45;&gt;Node19</title>
<path fill="none" stroke="#63b8ff" d="M1108.32,-60.69C1091.34,-50.82 1071.05,-39.01 1055.58,-30.01"/>
<polygon fill="#63b8ff" stroke="#63b8ff" points="1106.96,-63.95 1117.36,-65.95 1110.48,-57.9 1106.96,-63.95"/>
</g>
<!-- Node20&#45;&gt;Node11 -->
<g id="edge25" class="edge">
<title>Node20&#45;&gt;Node11</title>
<path fill="none" stroke="#63b8ff" d="M679.65,-65.94C883.51,-42.81 939.18,-64.67 1137.5,-30 1145.28,-28.64 1153.59,-26.61 1161.19,-24.52"/>
<polygon fill="#63b8ff" stroke="#63b8ff" points="679.04,-62.49 669.51,-67.11 679.85,-69.44 679.04,-62.49"/>
</g>
<!-- Node20&#45;&gt;Node13 -->
<g id="edge26" class="edge">
<title>Node20&#45;&gt;Node13</title>
<path fill="none" stroke="#63b8ff" d="M561.03,-59.75C547.49,-50.13 531.64,-38.86 519.42,-30.16"/>
<polygon fill="#63b8ff" stroke="#63b8ff" points="559.35,-62.85 569.53,-65.8 563.4,-57.15 559.35,-62.85"/>
</g>
<!-- Node21&#45;&gt;Node7 -->
<g id="edge30" class="edge">
<title>Node21&#45;&gt;Node7</title>
<path fill="none" stroke="#63b8ff" d="M2247.03,-59.75C2233.49,-50.13 2217.64,-38.86 2205.42,-30.16"/>
<polygon fill="#63b8ff" stroke="#63b8ff" points="2245.35,-62.85 2255.53,-65.8 2249.4,-57.15 2245.35,-62.85"/>
</g>
<!-- Node21&#45;&gt;Node11 -->
<g id="edge29" class="edge">
<title>Node21&#45;&gt;Node11</title>
<path fill="none" stroke="#63b8ff" d="M2183.17,-65.95C1785.64,-28.24 1681.56,-65.68 1287.5,-30 1268.66,-28.29 1247.91,-25.5 1230.3,-22.86"/>
<polygon fill="#63b8ff" stroke="#63b8ff" points="2182.92,-69.45 2193.21,-66.92 2183.59,-62.48 2182.92,-69.45"/>
</g>
<!-- Node22 -->
<g id="node22" class="node">
<title>Node22</title>
<g id="a_node22"><a xlink:href="../../d6/d11/KinematicBehavior_8cpp.html" target="_top" xlink:title=" ">
<polygon fill="white" stroke="#666666" points="2452.5,-30 2288.5,-30 2288.5,0 2452.5,0 2452.5,-30"/>
<text text-anchor="start" x="2296.5" y="-18" font-family="Helvetica,sans-Serif" font-size="10.00">engine/components/behaviors</text>
<text text-anchor="middle" x="2370.5" y="-7" font-family="Helvetica,sans-Serif" font-size="10.00">/KinematicBehavior.cpp</text>
</a>
</g>
</g>
<!-- Node21&#45;&gt;Node22 -->
<g id="edge28" class="edge">
<title>Node21&#45;&gt;Node22</title>
<path fill="none" stroke="#63b8ff" d="M2305.15,-60.03C2319.52,-50.34 2336.45,-38.94 2349.48,-30.16"/>
<polygon fill="#63b8ff" stroke="#63b8ff" points="2302.92,-57.31 2296.58,-65.8 2306.83,-63.11 2302.92,-57.31"/>
</g>
<!-- Node23&#45;&gt;Node7 -->
<g id="edge33" class="edge">
<title>Node23&#45;&gt;Node7</title>
<path fill="none" stroke="#63b8ff" d="M2476.83,-126.79C2503.14,-110.77 2530.71,-87.21 2512.5,-66 2511.5,-64.84 2366.78,-43.05 2270.23,-28.62"/>
<polygon fill="#63b8ff" stroke="#63b8ff" points="2474.9,-123.87 2468.02,-131.93 2478.42,-129.92 2474.9,-123.87"/>
</g>
<!-- Node24 -->
<g id="node24" class="node">
<title>Node24</title>
<g id="a_node24"><a xlink:href="../../d0/d19/CoffeeBehavior_8cpp.html" target="_top" xlink:title=" ">
<polygon fill="white" stroke="#666666" points="2503.5,-96 2375.5,-96 2375.5,-66 2503.5,-66 2503.5,-96"/>
<text text-anchor="start" x="2383.5" y="-84" font-family="Helvetica,sans-Serif" font-size="10.00">game/behaviors/coffee</text>
<text text-anchor="middle" x="2439.5" y="-73" font-family="Helvetica,sans-Serif" font-size="10.00">/CoffeeBehavior.cpp</text>
</a>
</g>
</g>
<!-- Node23&#45;&gt;Node24 -->
<g id="edge32" class="edge">
<title>Node23&#45;&gt;Node24</title>
<path fill="none" stroke="#63b8ff" d="M2439.5,-121.54C2439.5,-112.96 2439.5,-103.61 2439.5,-96.16"/>
<polygon fill="#63b8ff" stroke="#63b8ff" points="2436,-121.8 2439.5,-131.8 2443,-121.8 2436,-121.8"/>
</g>
<!-- Node25&#45;&gt;Node6 -->
<g id="edge36" class="edge">
<title>Node25&#45;&gt;Node6</title>
<path fill="none" stroke="#63b8ff" d="M1463.15,-64.24C1522.36,-53.71 1599.52,-40 1656.42,-29.88"/>
<polygon fill="#63b8ff" stroke="#63b8ff" points="1462.29,-60.84 1453.06,-66.03 1463.52,-67.73 1462.29,-60.84"/>
</g>
<!-- Node25&#45;&gt;Node11 -->
<g id="edge35" class="edge">
<title>Node25&#45;&gt;Node11</title>
<path fill="none" stroke="#63b8ff" d="M1323.86,-62.58C1287.97,-50.23 1241.36,-34.19 1213.25,-24.52"/>
<polygon fill="#63b8ff" stroke="#63b8ff" points="1323.09,-66.01 1333.68,-65.95 1325.36,-59.39 1323.09,-66.01"/>
</g>
<!-- Node25&#45;&gt;Node12 -->
<g id="edge38" class="edge">
<title>Node25&#45;&gt;Node12</title>
<path fill="none" stroke="#63b8ff" d="M1285.96,-70.16C1155.03,-55.62 925.06,-30.07 924.5,-30 917.53,-29.12 910.28,-28.17 903.02,-27.19"/>
<polygon fill="#63b8ff" stroke="#63b8ff" points="1285.65,-73.65 1295.98,-71.28 1286.43,-66.69 1285.65,-73.65"/>
</g>
<!-- Node26 -->
<g id="node26" class="node">
<title>Node26</title>
<g id="a_node26"><a xlink:href="../../d7/d47/CoffeeMeterBehavior_8cpp.html" target="_top" xlink:title=" ">
<polygon fill="white" stroke="#666666" points="1453,-30 1296,-30 1296,0 1453,0 1453,-30"/>
<text text-anchor="start" x="1304" y="-18" font-family="Helvetica,sans-Serif" font-size="10.00">game/behaviors/coffeeMeter</text>
<text text-anchor="middle" x="1374.5" y="-7" font-family="Helvetica,sans-Serif" font-size="10.00">/CoffeeMeterBehavior.cpp</text>
</a>
</g>
</g>
<!-- Node25&#45;&gt;Node26 -->
<g id="edge37" class="edge">
<title>Node25&#45;&gt;Node26</title>
<path fill="none" stroke="#63b8ff" d="M1374.5,-55.54C1374.5,-46.96 1374.5,-37.61 1374.5,-30.16"/>
<polygon fill="#63b8ff" stroke="#63b8ff" points="1371,-55.8 1374.5,-65.8 1378,-55.8 1371,-55.8"/>
</g>
<!-- Node27&#45;&gt;Node7 -->
<g id="edge41" class="edge">
<title>Node27&#45;&gt;Node7</title>
<path fill="none" stroke="#63b8ff" d="M2663.48,-126.96C2690.83,-110.82 2719.79,-87.01 2700.5,-66 2668.75,-31.42 2326.13,-35.46 2279.5,-30 2276.39,-29.64 2273.22,-29.25 2270.02,-28.84"/>
<polygon fill="#63b8ff" stroke="#63b8ff" points="2661.69,-123.95 2654.72,-131.92 2665.14,-130.04 2661.69,-123.95"/>
</g>
<!-- Node28 -->
<g id="node28" class="node">
<title>Node28</title>
<g id="a_node28"><a xlink:href="../../da/dd4/EnemyBehavior_8cpp.html" target="_top" xlink:title=" ">
<polygon fill="white" stroke="#666666" points="2691.5,-96 2559.5,-96 2559.5,-66 2691.5,-66 2691.5,-96"/>
<text text-anchor="start" x="2567.5" y="-84" font-family="Helvetica,sans-Serif" font-size="10.00">game/behaviors/enemy</text>
<text text-anchor="middle" x="2625.5" y="-73" font-family="Helvetica,sans-Serif" font-size="10.00">/EnemyBehavior.cpp</text>
</a>
</g>
</g>
<!-- Node27&#45;&gt;Node28 -->
<g id="edge40" class="edge">
<title>Node27&#45;&gt;Node28</title>
<path fill="none" stroke="#63b8ff" d="M2625.5,-121.54C2625.5,-112.96 2625.5,-103.61 2625.5,-96.16"/>
<polygon fill="#63b8ff" stroke="#63b8ff" points="2622,-121.8 2625.5,-131.8 2629,-121.8 2622,-121.8"/>
</g>
<!-- Node29&#45;&gt;Node7 -->
<g id="edge44" class="edge">
<title>Node29&#45;&gt;Node7</title>
<path fill="none" stroke="#63b8ff" d="M1650.14,-65.99C1847.46,-43.74 1899.53,-52.34 2092.5,-30 2095.26,-29.68 2098.06,-29.34 2100.89,-28.99"/>
<polygon fill="#63b8ff" stroke="#63b8ff" points="1649.55,-62.53 1640.02,-67.14 1650.35,-69.49 1649.55,-62.53"/>
</g>
<!-- Node29&#45;&gt;Node11 -->
<g id="edge43" class="edge">
<title>Node29&#45;&gt;Node11</title>
<path fill="none" stroke="#63b8ff" d="M1465.04,-64.22C1390.07,-51.15 1286.92,-33.16 1230.16,-23.26"/>
<polygon fill="#63b8ff" stroke="#63b8ff" points="1464.51,-67.68 1474.96,-65.95 1465.71,-60.79 1464.51,-67.68"/>
</g>
<!-- Node30&#45;&gt;Node11 -->
<g id="edge46" class="edge">
<title>Node30&#45;&gt;Node11</title>
<path fill="none" stroke="#63b8ff" d="M139.56,-66.02C581.84,-17.78 701.66,-96.75 1137.5,-30 1145.58,-28.76 1154.2,-26.69 1162.02,-24.52"/>
<polygon fill="#63b8ff" stroke="#63b8ff" points="138.94,-62.57 129.39,-67.15 139.71,-69.53 138.94,-62.57"/>
</g>
<!-- Node30&#45;&gt;Node12 -->
<g id="edge48" class="edge">
<title>Node30&#45;&gt;Node12</title>
<path fill="none" stroke="#63b8ff" d="M138.96,-66.08C271.53,-49.8 597.85,-29.46 747.95,-20.52"/>
<polygon fill="#63b8ff" stroke="#63b8ff" points="138.48,-62.62 129,-67.35 139.37,-69.56 138.48,-62.62"/>
</g>
<!-- Node30&#45;&gt;Node13 -->
<g id="edge49" class="edge">
<title>Node30&#45;&gt;Node13</title>
<path fill="none" stroke="#63b8ff" d="M138.99,-65.97C241.9,-49.28 348.77,-34.97 419.75,-25.9"/>
<polygon fill="#63b8ff" stroke="#63b8ff" points="138.35,-62.53 129.04,-67.6 139.47,-69.44 138.35,-62.53"/>
</g>
<!-- Node31 -->
<g id="node31" class="node">
<title>Node31</title>
<g id="a_node31"><a xlink:href="../../d8/dea/PlayerBehavior_8cpp.html" target="_top" xlink:title=" ">
<polygon fill="white" stroke="#666666" points="129,-30 0,-30 0,0 129,0 129,-30"/>
<text text-anchor="start" x="8" y="-18" font-family="Helvetica,sans-Serif" font-size="10.00">game/behaviors/player</text>
<text text-anchor="middle" x="64.5" y="-7" font-family="Helvetica,sans-Serif" font-size="10.00">/PlayerBehavior.cpp</text>
</a>
</g>
</g>
<!-- Node30&#45;&gt;Node31 -->
<g id="edge47" class="edge">
<title>Node30&#45;&gt;Node31</title>
<path fill="none" stroke="#63b8ff" d="M64.5,-55.54C64.5,-46.96 64.5,-37.61 64.5,-30.16"/>
<polygon fill="#63b8ff" stroke="#63b8ff" points="61,-55.8 64.5,-65.8 68,-55.8 61,-55.8"/>
</g>
<!-- Node32&#45;&gt;Node11 -->
<g id="edge51" class="edge">
<title>Node32&#45;&gt;Node11</title>
<path fill="none" stroke="#63b8ff" d="M1265.79,-121.88C1263.68,-105.15 1258.98,-82.92 1248.5,-66 1237.29,-47.9 1217.26,-33.2 1203.45,-24.53"/>
<polygon fill="#63b8ff" stroke="#63b8ff" points="1262.32,-122.38 1266.83,-131.97 1269.29,-121.66 1262.32,-122.38"/>
</g>
<!-- Node33 -->
<g id="node33" class="node">
<title>Node33</title>
<g id="a_node33"><a xlink:href="../../dc/dda/ScoreCounterBehavior_8cpp.html" target="_top" xlink:title=" ">
<polygon fill="white" stroke="#666666" points="851,-96 688,-96 688,-66 851,-66 851,-96"/>
<text text-anchor="start" x="696" y="-84" font-family="Helvetica,sans-Serif" font-size="10.00">game/behaviors/scoreCounter</text>
<text text-anchor="middle" x="769.5" y="-73" font-family="Helvetica,sans-Serif" font-size="10.00">/ScoreCounterBehavior.cpp</text>
</a>
</g>
</g>
<!-- Node32&#45;&gt;Node33 -->
<g id="edge52" class="edge">
<title>Node32&#45;&gt;Node33</title>
<path fill="none" stroke="#63b8ff" d="M1175.36,-131.88C1034.66,-113.31 997.32,-114.31 860.5,-96 857.49,-95.6 854.43,-95.18 851.33,-94.74"/>
<polygon fill="#63b8ff" stroke="#63b8ff" points="1175.3,-135.41 1185.67,-133.26 1176.22,-128.47 1175.3,-135.41"/>
</g>
</g>
</svg>
        <g id="navigator" transform="translate(0 0)" fill="#404254">
                <rect fill="#f2f5e9" fill-opacity="0.5" stroke="#606060" stroke-width=".5" x="0" y="0" width="60" height="60"/>
                <use id="zoomplus" xlink:href="#zoomPlus" x="17" y="9" onmousedown="handleZoom(evt,'in')"/>
                <use id="zoomminus" xlink:href="#zoomMin" x="42" y="9" onmousedown="handleZoom(evt,'out')"/>
                <use id="reset" xlink:href="#resetDef" x="30" y="36" onmousedown="handleReset()"/>
                <g id="arrowUp" xlink:href="#dirArrow" transform="translate(30 24)" onmousedown="handlePan(0,-1)">
                  <use xlink:href="#rim" fill="#404040">
                        <set attributeName="fill" to="#808080" begin="arrowUp.mouseover" end="arrowUp.mouseout"/>
                  </use>
                  <path fill="none" stroke="white" stroke-width="1.5" d="M0,-3.0v7 M-2.5,-0.5L0,-3.0L2.5,-0.5"/>
                </g>
                <g id="arrowRight" xlink:href="#dirArrow" transform="rotate(90) translate(36 -43)" onmousedown="handlePan(1,0)">
                  <use xlink:href="#rim" fill="#404040">
                        <set attributeName="fill" to="#808080" begin="arrowRight.mouseover" end="arrowRight.mouseout"/>
                  </use>
                  <path fill="none" stroke="white" stroke-width="1.5" d="M0,-3.0v7 M-2.5,-0.5L0,-3.0L2.5,-0.5"/>
                </g>
                <g id="arrowDown" xlink:href="#dirArrow" transform="rotate(180) translate(-30 -48)" onmousedown="handlePan(0,1)">
                  <use xlink:href="#rim" fill="#404040">
                        <set attributeName="fill" to="#808080" begin="arrowDown.mouseover" end="arrowDown.mouseout"/>
                  </use>
                  <path fill="none" stroke="white" stroke-width="1.5" d="M0,-3.0v7 M-2.5,-0.5L0,-3.0L2.5,-0.5"/>
                </g>
                <g id="arrowLeft" xlink:href="#dirArrow" transform="rotate(270) translate(-36 17)" onmousedown="handlePan(-1,0)">
                  <use xlink:href="#rim" fill="#404040">
                        <set attributeName="fill" to="#808080" begin="arrowLeft.mouseover" end="arrowLeft.mouseout"/>
                  </use>
                  <path fill="none" stroke="white" stroke-width="1.5" d="M0,-3.0v7 M-2.5,-0.5L0,-3.0L2.5,-0.5"/>
                </g>
        </g>
        <svg viewBox="0 0 15 15" width="100%" height="30px" preserveAspectRatio="xMaxYMin meet">
         <g id="arrow_out" transform="scale(0.3 0.3)">
          <a xlink:href="Behavior_8hpp__dep__incl_org.svg" target="_base">
           <rect id="button" ry="5" rx="5" y="6" x="6" height="38" width="38"
                fill="#f2f5e9" fill-opacity="0.5" stroke="#606060" stroke-width="1.0"/>
           <path id="arrow"
             d="M 11.500037,31.436501 C 11.940474,20.09759 22.043105,11.32322 32.158766,21.979434 L 37.068811,17.246167 C 37.068811,17.246167 37.088388,32 37.088388,32 L 22.160133,31.978069 C 22.160133,31.978069 26.997745,27.140456 26.997745,27.140456 C 18.528582,18.264221 13.291696,25.230495 11.500037,31.436501 z"
             style="fill:#404040;"/>
          </a>
         </g>
        </svg>
</svg>
