<?xml version="1.0" encoding="UTF-8" standalone="no"?>
<!DOCTYPE svg PUBLIC "-//W3C//DTD SVG 1.1//EN"
 "http://www.w3.org/Graphics/SVG/1.1/DTD/svg11.dtd">
<!-- Generated by graphviz version 2.43.0 (0)
 -->
<!-- Title: engine/components/behaviors/Behavior.hpp Pages: 1 -->
<svg width="2715pt" height="236pt"
 viewBox="0.00 0.00 2714.91 236.00" xmlns="http://www.w3.org/2000/svg" xmlns:xlink="http://www.w3.org/1999/xlink">
<g id="graph0" class="graph" transform="scale(1 1) rotate(0) translate(4 232)">
<title>engine/components/behaviors/Behavior.hpp</title>
<!-- Node1 -->
<g id="Node000001" class="node">
<title>Node1</title>
<g id="a_Node000001"><a xlink:title=" ">
<polygon fill="#999999" stroke="#666666" points="1459.5,-228 1295.5,-228 1295.5,-198 1459.5,-198 1459.5,-228"/>
<text text-anchor="start" x="1303.5" y="-216" font-family="Helvetica,sans-Serif" font-size="10.00">engine/components/behaviors</text>
<text text-anchor="middle" x="1377.5" y="-205" font-family="Helvetica,sans-Serif" font-size="10.00">/Behavior.hpp</text>
</a>
</g>
</g>
<!-- Node2 -->
<g id="Node000002" class="node">
<title>Node2</title>
<g id="a_Node000002"><a xlink:href="../../d2/daf/Behavior_8cpp.html" target="_top" xlink:title=" ">
<polygon fill="white" stroke="#666666" points="907.5,-162 743.5,-162 743.5,-132 907.5,-132 907.5,-162"/>
<text text-anchor="start" x="751.5" y="-150" font-family="Helvetica,sans-Serif" font-size="10.00">engine/components/behaviors</text>
<text text-anchor="middle" x="825.5" y="-139" font-family="Helvetica,sans-Serif" font-size="10.00">/Behavior.cpp</text>
</a>
</g>
</g>
<!-- Node1&#45;&gt;Node2 -->
<g id="edge1_Node000001_Node000002" class="edge">
<title>Node1&#45;&gt;Node2</title>
<g id="a_edge1_Node000001_Node000002"><a xlink:title=" ">
<path fill="none" stroke="#63b8ff" d="M1285.29,-202.86C1193.1,-193.5 1047.33,-178.07 921.5,-162 916.99,-161.42 912.36,-160.81 907.69,-160.18"/>
<polygon fill="#63b8ff" stroke="#63b8ff" points="1285.13,-206.36 1295.43,-203.89 1285.84,-199.4 1285.13,-206.36"/>
</a>
</g>
</g>
<!-- Node3 -->
<g id="Node000003" class="node">
<title>Node3</title>
<g id="a_Node000003"><a xlink:href="../../dc/d19/CollisionBehavior_8hpp.html" target="_top" xlink:title=" ">
<polygon fill="white" stroke="#666666" points="1822.5,-162 1658.5,-162 1658.5,-132 1822.5,-132 1822.5,-162"/>
<text text-anchor="start" x="1666.5" y="-150" font-family="Helvetica,sans-Serif" font-size="10.00">engine/components/behaviors</text>
<text text-anchor="middle" x="1740.5" y="-139" font-family="Helvetica,sans-Serif" font-size="10.00">/CollisionBehavior.hpp</text>
</a>
</g>
</g>
<!-- Node1&#45;&gt;Node3 -->
<g id="edge2_Node000001_Node000003" class="edge">
<title>Node1&#45;&gt;Node3</title>
<g id="a_edge2_Node000001_Node000003"><a xlink:title=" ">
<path fill="none" stroke="#63b8ff" d="M1467.28,-196.17C1526.68,-185.7 1603.85,-172.09 1661.02,-162.01"/>
<polygon fill="#63b8ff" stroke="#63b8ff" points="1466.4,-192.77 1457.16,-197.95 1467.62,-199.67 1466.4,-192.77"/>
</a>
</g>
</g>
<!-- Node14 -->
<g id="Node000014" class="node">
<title>Node14</title>
<g id="a_Node000014"><a xlink:href="../../d5/d6d/GravityBehavior_8hpp.html" target="_top" xlink:title=" ">
<polygon fill="white" stroke="#666666" points="311.5,-96 147.5,-96 147.5,-66 311.5,-66 311.5,-96"/>
<text text-anchor="start" x="155.5" y="-84" font-family="Helvetica,sans-Serif" font-size="10.00">engine/components/behaviors</text>
<text text-anchor="middle" x="229.5" y="-73" font-family="Helvetica,sans-Serif" font-size="10.00">/GravityBehavior.hpp</text>
</a>
</g>
</g>
<!-- Node1&#45;&gt;Node14 -->
<g id="edge14_Node000001_Node000014" class="edge">
<title>Node1&#45;&gt;Node14</title>
<g id="a_edge14_Node000001_Node000014"><a xlink:title=" ">
<path fill="none" stroke="#63b8ff" d="M1285.37,-205.26C1188.59,-197.25 1043.36,-182.38 991.5,-162 970.15,-153.61 971.14,-139.62 949.5,-132 817.45,-85.48 459.74,-110.66 320.5,-96 317.64,-95.7 314.73,-95.37 311.79,-95.02"/>
<polygon fill="#63b8ff" stroke="#63b8ff" points="1285.2,-208.75 1295.46,-206.08 1285.77,-201.78 1285.2,-208.75"/>
</a>
</g>
</g>
<!-- Node16 -->
<g id="Node000016" class="node">
<title>Node16</title>
<g id="a_Node000016"><a xlink:href="../../de/dfb/KeyboardHandlerBehavior_8hpp.html" target="_top" xlink:title=" ">
<polygon fill="white" stroke="#666666" points="1168,-162 1001,-162 1001,-132 1168,-132 1168,-162"/>
<text text-anchor="start" x="1009" y="-150" font-family="Helvetica,sans-Serif" font-size="10.00">engine/components/behaviors</text>
<text text-anchor="middle" x="1084.5" y="-139" font-family="Helvetica,sans-Serif" font-size="10.00">/KeyboardHandlerBehavior.hpp</text>
</a>
</g>
</g>
<!-- Node1&#45;&gt;Node16 -->
<g id="edge19_Node000001_Node000016" class="edge">
<title>Node1&#45;&gt;Node16</title>
<g id="a_edge19_Node000001_Node000016"><a xlink:title=" ">
<path fill="none" stroke="#63b8ff" d="M1303.24,-195.78C1255.54,-185.36 1194.22,-171.97 1148.65,-162.01"/>
<polygon fill="#63b8ff" stroke="#63b8ff" points="1302.68,-199.24 1313.2,-197.95 1304.18,-192.4 1302.68,-199.24"/>
</a>
</g>
</g>
<!-- Node21 -->
<g id="Node000021" class="node">
<title>Node21</title>
<g id="a_Node000021"><a xlink:href="../../dc/da8/KinematicBehavior_8hpp.html" target="_top" xlink:title=" ">
<polygon fill="white" stroke="#666666" points="2357.5,-96 2193.5,-96 2193.5,-66 2357.5,-66 2357.5,-96"/>
<text text-anchor="start" x="2201.5" y="-84" font-family="Helvetica,sans-Serif" font-size="10.00">engine/components/behaviors</text>
<text text-anchor="middle" x="2275.5" y="-73" font-family="Helvetica,sans-Serif" font-size="10.00">/KinematicBehavior.hpp</text>
</a>
</g>
</g>
<!-- Node1&#45;&gt;Node21 -->
<g id="edge27_Node000001_Node000021" class="edge">
<title>Node1&#45;&gt;Node21</title>
<g id="a_edge27_Node000001_Node000021"><a xlink:title=" ">
<path fill="none" stroke="#63b8ff" d="M1469.84,-203.7C1561.74,-195 1706.69,-180.09 1831.5,-162 1964.63,-142.7 2118.97,-113.29 2206.14,-96.02"/>
<polygon fill="#63b8ff" stroke="#63b8ff" points="1469.36,-200.23 1459.73,-204.65 1470.02,-207.2 1469.36,-200.23"/>
</a>
</g>
</g>
<!-- Node23 -->
<g id="Node000023" class="node">
<title>Node23</title>
<g id="a_Node000023"><a xlink:href="../../db/d99/CoffeeBehavior_8hpp.html" target="_top" xlink:title=" ">
<polygon fill="white" stroke="#666666" points="2503.5,-162 2375.5,-162 2375.5,-132 2503.5,-132 2503.5,-162"/>
<text text-anchor="start" x="2383.5" y="-150" font-family="Helvetica,sans-Serif" font-size="10.00">game/behaviors/coffee</text>
<text text-anchor="middle" x="2439.5" y="-139" font-family="Helvetica,sans-Serif" font-size="10.00">/CoffeeBehavior.hpp</text>
</a>
</g>
</g>
<!-- Node1&#45;&gt;Node23 -->
<g id="edge31_Node000001_Node000023" class="edge">
<title>Node1&#45;&gt;Node23</title>
<g id="a_edge31_Node000001_Node000023"><a xlink:title=" ">
<path fill="none" stroke="#63b8ff" d="M1469.63,-206.45C1680.66,-193.73 2194.72,-162.75 2375.41,-151.86"/>
<polygon fill="#63b8ff" stroke="#63b8ff" points="1469.28,-202.96 1459.51,-207.06 1469.7,-209.95 1469.28,-202.96"/>
</a>
</g>
</g>
<!-- Node25 -->
<g id="Node000025" class="node">
<title>Node25</title>
<g id="a_Node000025"><a xlink:href="../../d4/d09/CoffeeMeterBehavior_8hpp.html" target="_top" xlink:title=" ">
<polygon fill="white" stroke="#666666" points="1453,-96 1296,-96 1296,-66 1453,-66 1453,-96"/>
<text text-anchor="start" x="1304" y="-84" font-family="Helvetica,sans-Serif" font-size="10.00">game/behaviors/coffeeMeter</text>
<text text-anchor="middle" x="1374.5" y="-73" font-family="Helvetica,sans-Serif" font-size="10.00">/CoffeeMeterBehavior.hpp</text>
</a>
</g>
</g>
<!-- Node1&#45;&gt;Node25 -->
<g id="edge34_Node000001_Node000025" class="edge">
<title>Node1&#45;&gt;Node25</title>
<g id="a_edge34_Node000001_Node000025"><a xlink:title=" ">
<path fill="none" stroke="#63b8ff" d="M1376.94,-187.68C1376.32,-160.7 1375.33,-118.11 1374.83,-96.14"/>
<polygon fill="#63b8ff" stroke="#63b8ff" points="1373.44,-187.92 1377.17,-197.84 1380.44,-187.76 1373.44,-187.92"/>
</a>
</g>
</g>
<!-- Node27 -->
<g id="Node000027" class="node">
<title>Node27</title>
<g id="a_Node000027"><a xlink:href="../../de/d48/EnemyBehavior_8hpp.html" target="_top" xlink:title=" ">
<polygon fill="white" stroke="#666666" points="2691.5,-162 2559.5,-162 2559.5,-132 2691.5,-132 2691.5,-162"/>
<text text-anchor="start" x="2567.5" y="-150" font-family="Helvetica,sans-Serif" font-size="10.00">game/behaviors/enemy</text>
<text text-anchor="middle" x="2625.5" y="-139" font-family="Helvetica,sans-Serif" font-size="10.00">/EnemyBehavior.hpp</text>
</a>
</g>
</g>
<!-- Node1&#45;&gt;Node27 -->
<g id="edge39_Node000001_Node000027" class="edge">
<title>Node1&#45;&gt;Node27</title>
<g id="a_edge39_Node000001_Node000027"><a xlink:title=" ">
<path fill="none" stroke="#63b8ff" d="M1469.67,-210.41C1663.17,-206.54 2125.83,-194.42 2512.5,-162 2527.67,-160.73 2543.93,-158.96 2559.27,-157.1"/>
<polygon fill="#63b8ff" stroke="#63b8ff" points="1469.47,-206.92 1459.54,-210.61 1469.61,-213.92 1469.47,-206.92"/>
</a>
</g>
</g>
<!-- Node29 -->
<g id="Node000029" class="node">
<title>Node29</title>
<g id="a_Node000029"><a xlink:href="../../d2/d74/GameManagerBehavior_8hpp.html" target="_top" xlink:title=" ">
<polygon fill="white" stroke="#666666" points="1640,-96 1471,-96 1471,-66 1640,-66 1640,-96"/>
<text text-anchor="start" x="1479" y="-84" font-family="Helvetica,sans-Serif" font-size="10.00">game/behaviors/gameManager</text>
<text text-anchor="middle" x="1555.5" y="-73" font-family="Helvetica,sans-Serif" font-size="10.00">/GameManagerBehavior.hpp</text>
</a>
</g>
</g>
<!-- Node1&#45;&gt;Node29 -->
<g id="edge42_Node000001_Node000029" class="edge">
<title>Node1&#45;&gt;Node29</title>
<g id="a_edge42_Node000001_Node000029"><a xlink:title=" ">
<path fill="none" stroke="#63b8ff" d="M1405.09,-191.85C1441.43,-165.31 1504.45,-119.28 1536.14,-96.14"/>
<polygon fill="#63b8ff" stroke="#63b8ff" points="1402.9,-189.12 1396.89,-197.84 1407.03,-194.77 1402.9,-189.12"/>
</a>
</g>
</g>
<!-- Node30 -->
<g id="Node000030" class="node">
<title>Node30</title>
<g id="a_Node000030"><a xlink:href="../../dd/da3/PlayerBehavior_8hpp.html" target="_top" xlink:title=" ">
<polygon fill="white" stroke="#666666" points="129,-96 0,-96 0,-66 129,-66 129,-96"/>
<text text-anchor="start" x="8" y="-84" font-family="Helvetica,sans-Serif" font-size="10.00">game/behaviors/player</text>
<text text-anchor="middle" x="64.5" y="-73" font-family="Helvetica,sans-Serif" font-size="10.00">/PlayerBehavior.hpp</text>
</a>
</g>
</g>
<!-- Node1&#45;&gt;Node30 -->
<g id="edge45_Node000001_Node000030" class="edge">
<title>Node1&#45;&gt;Node30</title>
<g id="a_edge45_Node000001_Node000030"><a xlink:title=" ">
<path fill="none" stroke="#63b8ff" d="M1285.13,-207.81C1177.64,-201.79 1007.47,-188.38 949.5,-162 931.46,-153.79 934.82,-139.57 916.5,-132 756.56,-65.87 310.4,-116.14 138.5,-96 135.51,-95.65 132.47,-95.25 129.39,-94.81"/>
<polygon fill="#63b8ff" stroke="#63b8ff" points="1285.16,-211.31 1295.33,-208.37 1285.54,-204.32 1285.16,-211.31"/>
</a>
</g>
</g>
<!-- Node32 -->
<g id="Node000032" class="node">
<title>Node32</title>
<g id="a_Node000032"><a xlink:href="../../d9/de4/ScoreCounterBehavior_8hpp.html" target="_top" xlink:title=" ">
<polygon fill="white" stroke="#666666" points="1349,-162 1186,-162 1186,-132 1349,-132 1349,-162"/>
<text text-anchor="start" x="1194" y="-150" font-family="Helvetica,sans-Serif" font-size="10.00">game/behaviors/scoreCounter</text>
<text text-anchor="middle" x="1267.5" y="-139" font-family="Helvetica,sans-Serif" font-size="10.00">/ScoreCounterBehavior.hpp</text>
</a>
</g>
</g>
<!-- Node1&#45;&gt;Node32 -->
<g id="edge50_Node000001_Node000032" class="edge">
<title>Node1&#45;&gt;Node32</title>
<g id="a_edge50_Node000001_Node000032"><a xlink:title=" ">
<path fill="none" stroke="#63b8ff" d="M1344.32,-192.69C1327.34,-182.82 1307.05,-171.01 1291.58,-162.01"/>
<polygon fill="#63b8ff" stroke="#63b8ff" points="1342.96,-195.95 1353.36,-197.95 1346.48,-189.9 1342.96,-195.95"/>
</a>
</g>
</g>
<!-- Node4 -->
<g id="Node000004" class="node">
<title>Node4</title>
<g id="a_Node000004"><a xlink:href="../../d5/d92/CollisionBehavior_8cpp.html" target="_top" xlink:title=" ">
<polygon fill="white" stroke="#666666" points="1822.5,-96 1658.5,-96 1658.5,-66 1822.5,-66 1822.5,-96"/>
<text text-anchor="start" x="1666.5" y="-84" font-family="Helvetica,sans-Serif" font-size="10.00">engine/components/behaviors</text>
<text text-anchor="middle" x="1740.5" y="-73" font-family="Helvetica,sans-Serif" font-size="10.00">/CollisionBehavior.cpp</text>
</a>
</g>
</g>
<!-- Node3&#45;&gt;Node4 -->
<g id="edge3_Node000003_Node000004" class="edge">
<title>Node3&#45;&gt;Node4</title>
<g id="a_edge3_Node000003_Node000004"><a xlink:title=" ">
<path fill="none" stroke="#63b8ff" d="M1740.5,-121.54C1740.5,-112.96 1740.5,-103.61 1740.5,-96.16"/>
<polygon fill="#63b8ff" stroke="#63b8ff" points="1737,-121.8 1740.5,-131.8 1744,-121.8 1737,-121.8"/>
</a>
</g>
</g>
<!-- Node5 -->
<g id="Node000005" class="node">
<title>Node5</title>
<g id="a_Node000005"><a xlink:href="../../d3/d9f/CoffeeCollisionBehavior_8hpp.html" target="_top" xlink:title=" ">
<polygon fill="white" stroke="#666666" points="1998,-96 1841,-96 1841,-66 1998,-66 1998,-96"/>
<text text-anchor="start" x="1849" y="-84" font-family="Helvetica,sans-Serif" font-size="10.00">game/behaviors/coffee</text>
<text text-anchor="middle" x="1919.5" y="-73" font-family="Helvetica,sans-Serif" font-size="10.00">/CoffeeCollisionBehavior.hpp</text>
</a>
</g>
</g>
<!-- Node3&#45;&gt;Node5 -->
<g id="edge4_Node000003_Node000005" class="edge">
<title>Node3&#45;&gt;Node5</title>
<g id="a_edge4_Node000003_Node000005"><a xlink:title=" ">
<path fill="none" stroke="#63b8ff" d="M1789.57,-128.46C1818.12,-118.25 1853.63,-105.55 1880.31,-96.01"/>
<polygon fill="#63b8ff" stroke="#63b8ff" points="1788.02,-125.29 1779.78,-131.95 1790.38,-131.88 1788.02,-125.29"/>
</a>
</g>
</g>
<!-- Node8 -->
<g id="Node000008" class="node">
<title>Node8</title>
<g id="a_Node000008"><a xlink:href="../../dc/d17/EnemyCollisionBehavior_8hpp.html" target="_top" xlink:title=" ">
<polygon fill="white" stroke="#666666" points="2175,-96 2016,-96 2016,-66 2175,-66 2175,-96"/>
<text text-anchor="start" x="2024" y="-84" font-family="Helvetica,sans-Serif" font-size="10.00">game/behaviors/enemy</text>
<text text-anchor="middle" x="2095.5" y="-73" font-family="Helvetica,sans-Serif" font-size="10.00">/EnemyCollisionBehavior.hpp</text>
</a>
</g>
</g>
<!-- Node3&#45;&gt;Node8 -->
<g id="edge7_Node000003_Node000008" class="edge">
<title>Node3&#45;&gt;Node8</title>
<g id="a_edge7_Node000003_Node000008"><a xlink:title=" ">
<path fill="none" stroke="#63b8ff" d="M1828.31,-130.17C1886.39,-119.7 1961.87,-106.09 2017.78,-96.01"/>
<polygon fill="#63b8ff" stroke="#63b8ff" points="1827.63,-126.74 1818.41,-131.95 1828.87,-133.63 1827.63,-126.74"/>
</a>
</g>
</g>
<!-- Node10 -->
<g id="Node000010" class="node">
<title>Node10</title>
<g id="a_Node000010"><a xlink:href="../../db/d9e/PlayerCollisionBehavior_8hpp.html" target="_top" xlink:title=" ">
<polygon fill="white" stroke="#666666" points="1025.5,-96 869.5,-96 869.5,-66 1025.5,-66 1025.5,-96"/>
<text text-anchor="start" x="877.5" y="-84" font-family="Helvetica,sans-Serif" font-size="10.00">game/behaviors/player</text>
<text text-anchor="middle" x="947.5" y="-73" font-family="Helvetica,sans-Serif" font-size="10.00">/PlayerCollisionBehavior.hpp</text>
</a>
</g>
</g>
<!-- Node3&#45;&gt;Node10 -->
<g id="edge10_Node000003_Node000010" class="edge">
<title>Node3&#45;&gt;Node10</title>
<g id="a_edge10_Node000003_Node000010"><a xlink:title=" ">
<path fill="none" stroke="#63b8ff" d="M1648.18,-142.08C1513.11,-135.76 1253.84,-121.36 1034.5,-96 1031.61,-95.67 1028.67,-95.3 1025.71,-94.92"/>
<polygon fill="#63b8ff" stroke="#63b8ff" points="1648.33,-145.59 1658.48,-142.56 1648.65,-138.6 1648.33,-145.59"/>
</a>
</g>
</g>
<!-- Node6 -->
<g id="Node000006" class="node">
<title>Node6</title>
<g id="a_Node000006"><a xlink:href="../../d0/d59/CoffeeCollisionBehavior_8cpp.html" target="_top" xlink:title=" ">
<polygon fill="white" stroke="#666666" points="1812.5,-30 1656.5,-30 1656.5,0 1812.5,0 1812.5,-30"/>
<text text-anchor="start" x="1664.5" y="-18" font-family="Helvetica,sans-Serif" font-size="10.00">game/behaviors/coffee</text>
<text text-anchor="middle" x="1734.5" y="-7" font-family="Helvetica,sans-Serif" font-size="10.00">/CoffeeCollisionBehavior.cpp</text>
</a>
</g>
</g>
<!-- Node5&#45;&gt;Node6 -->
<g id="edge5_Node000005_Node000006" class="edge">
<title>Node5&#45;&gt;Node6</title>
<g id="a_edge5_Node000005_Node000006"><a xlink:title=" ">
<path fill="none" stroke="#63b8ff" d="M1869.17,-62.59C1839.6,-52.36 1802.7,-39.59 1775,-30.01"/>
<polygon fill="#63b8ff" stroke="#63b8ff" points="1868.31,-65.99 1878.9,-65.95 1870.59,-59.38 1868.31,-65.99"/>
</a>
</g>
</g>
<!-- Node7 -->
<g id="Node000007" class="node">
<title>Node7</title>
<g id="a_Node000007"><a xlink:href="../../df/d88/GameManagerBehavior_8cpp.html" target="_top" xlink:title=" ">
<polygon fill="white" stroke="#666666" points="2270,-30 2101,-30 2101,0 2270,0 2270,-30"/>
<text text-anchor="start" x="2109" y="-18" font-family="Helvetica,sans-Serif" font-size="10.00">game/behaviors/gameManager</text>
<text text-anchor="middle" x="2185.5" y="-7" font-family="Helvetica,sans-Serif" font-size="10.00">/GameManagerBehavior.cpp</text>
</a>
</g>
</g>
<!-- Node5&#45;&gt;Node7 -->
<g id="edge6_Node000005_Node000007" class="edge">
<title>Node5&#45;&gt;Node7</title>
<g id="a_edge6_Node000005_Node000007"><a xlink:title=" ">
<path fill="none" stroke="#63b8ff" d="M1987.73,-63.58C2030.92,-53.19 2086.15,-39.9 2127.26,-30.01"/>
<polygon fill="#63b8ff" stroke="#63b8ff" points="1986.78,-60.21 1977.87,-65.95 1988.42,-67.02 1986.78,-60.21"/>
</a>
</g>
</g>
<!-- Node8&#45;&gt;Node7 -->
<g id="edge9_Node000008_Node000007" class="edge">
<title>Node8&#45;&gt;Node7</title>
<g id="a_edge9_Node000008_Node000007"><a xlink:title=" ">
<path fill="none" stroke="#63b8ff" d="M2123.97,-59.75C2137.51,-50.13 2153.36,-38.86 2165.58,-30.16"/>
<polygon fill="#63b8ff" stroke="#63b8ff" points="2121.6,-57.15 2115.47,-65.8 2125.65,-62.85 2121.6,-57.15"/>
</a>
</g>
</g>
<!-- Node9 -->
<g id="Node000009" class="node">
<title>Node9</title>
<g id="a_Node000009"><a xlink:href="../../dd/d3b/EnemyCollisionBehavior_8cpp.html" target="_top" xlink:title=" ">
<polygon fill="white" stroke="#666666" points="2083.5,-30 1925.5,-30 1925.5,0 2083.5,0 2083.5,-30"/>
<text text-anchor="start" x="1933.5" y="-18" font-family="Helvetica,sans-Serif" font-size="10.00">game/behaviors/enemy</text>
<text text-anchor="middle" x="2004.5" y="-7" font-family="Helvetica,sans-Serif" font-size="10.00">/EnemyCollisionBehavior.cpp</text>
</a>
</g>
</g>
<!-- Node8&#45;&gt;Node9 -->
<g id="edge8_Node000008_Node000009" class="edge">
<title>Node8&#45;&gt;Node9</title>
<g id="a_edge8_Node000008_Node000009"><a xlink:title=" ">
<path fill="none" stroke="#63b8ff" d="M2067.1,-60.03C2053.33,-50.34 2037.12,-38.94 2024.64,-30.16"/>
<polygon fill="#63b8ff" stroke="#63b8ff" points="2065.11,-62.91 2075.3,-65.8 2069.14,-57.18 2065.11,-62.91"/>
</a>
</g>
</g>
<!-- Node11 -->
<g id="Node000011" class="node">
<title>Node11</title>
<g id="a_Node000011"><a xlink:href="../../d9/dfa/Init_8cpp.html" target="_top" xlink:title=" ">
<polygon fill="white" stroke="#666666" points="1230,-24.5 1147,-24.5 1147,-5.5 1230,-5.5 1230,-24.5"/>
<text text-anchor="middle" x="1188.5" y="-12.5" font-family="Helvetica,sans-Serif" font-size="10.00">game/Init.cpp</text>
</a>
</g>
</g>
<!-- Node10&#45;&gt;Node11 -->
<g id="edge11_Node000010_Node000011" class="edge">
<title>Node10&#45;&gt;Node11</title>
<g id="a_edge11_Node000010_Node000011"><a xlink:title=" ">
<path fill="none" stroke="#63b8ff" d="M1011.7,-63.29C1048.54,-53.65 1095.65,-41.25 1137.5,-30 1143.97,-28.26 1150.9,-26.37 1157.5,-24.57"/>
<polygon fill="#63b8ff" stroke="#63b8ff" points="1010.38,-60.01 1001.59,-65.93 1012.15,-66.78 1010.38,-60.01"/>
</a>
</g>
</g>
<!-- Node12 -->
<g id="Node000012" class="node">
<title>Node12</title>
<g id="a_Node000012"><a xlink:href="../../d9/d5f/PlayerCollisionBehavior_8cpp.html" target="_top" xlink:title=" ">
<polygon fill="white" stroke="#666666" points="903,-30 748,-30 748,0 903,0 903,-30"/>
<text text-anchor="start" x="756" y="-18" font-family="Helvetica,sans-Serif" font-size="10.00">game/behaviors/player</text>
<text text-anchor="middle" x="825.5" y="-7" font-family="Helvetica,sans-Serif" font-size="10.00">/PlayerCollisionBehavior.cpp</text>
</a>
</g>
</g>
<!-- Node10&#45;&gt;Node12 -->
<g id="edge12_Node000010_Node000012" class="edge">
<title>Node10&#45;&gt;Node12</title>
<g id="a_edge12_Node000010_Node000012"><a xlink:title=" ">
<path fill="none" stroke="#63b8ff" d="M911.74,-61.24C892.7,-51.25 869.68,-39.18 852.21,-30.01"/>
<polygon fill="#63b8ff" stroke="#63b8ff" points="910.25,-64.41 920.73,-65.95 913.5,-58.21 910.25,-64.41"/>
</a>
</g>
</g>
<!-- Node13 -->
<g id="Node000013" class="node">
<title>Node13</title>
<g id="a_Node000013"><a xlink:href="../../dd/d4b/PlayerKeyboardBehavior_8cpp.html" target="_top" xlink:title=" ">
<polygon fill="white" stroke="#666666" points="579,-30 420,-30 420,0 579,0 579,-30"/>
<text text-anchor="start" x="428" y="-18" font-family="Helvetica,sans-Serif" font-size="10.00">game/behaviors/player</text>
<text text-anchor="middle" x="499.5" y="-7" font-family="Helvetica,sans-Serif" font-size="10.00">/PlayerKeyboardBehavior.cpp</text>
</a>
</g>
</g>
<!-- Node10&#45;&gt;Node13 -->
<g id="edge13_Node000010_Node000013" class="edge">
<title>Node10&#45;&gt;Node13</title>
<g id="a_edge13_Node000010_Node000013"><a xlink:title=" ">
<path fill="none" stroke="#63b8ff" d="M859.35,-66C756.33,-50.71 649.99,-36.14 579.28,-26.62"/>
<polygon fill="#63b8ff" stroke="#63b8ff" points="858.9,-69.47 869.3,-67.48 859.93,-62.54 858.9,-69.47"/>
</a>
</g>
</g>
<!-- Node14&#45;&gt;Node11 -->
<g id="edge16_Node000014_Node000011" class="edge">
<title>Node14&#45;&gt;Node11</title>
<g id="a_edge16_Node000014_Node000011"><a xlink:title=" ">
<path fill="none" stroke="#63b8ff" d="M321.76,-65.96C683.97,-31.32 781.69,-85.95 1137.5,-30 1145.48,-28.74 1154,-26.7 1161.75,-24.55"/>
<polygon fill="#63b8ff" stroke="#63b8ff" points="321.4,-62.48 311.79,-66.93 322.08,-69.45 321.4,-62.48"/>
</a>
</g>
</g>
<!-- Node14&#45;&gt;Node12 -->
<g id="edge17_Node000014_Node000012" class="edge">
<title>Node14&#45;&gt;Node12</title>
<g id="a_edge17_Node000014_Node000012"><a xlink:title=" ">
<path fill="none" stroke="#63b8ff" d="M322.13,-65.84C479.07,-46.24 650.8,-30.64 747.92,-22.37"/>
<polygon fill="#63b8ff" stroke="#63b8ff" points="321.3,-62.41 311.81,-67.13 322.17,-69.36 321.3,-62.41"/>
</a>
</g>
</g>
<!-- Node14&#45;&gt;Node13 -->
<g id="edge18_Node000014_Node000013" class="edge">
<title>Node14&#45;&gt;Node13</title>
<g id="a_edge18_Node000014_Node000013"><a xlink:title=" ">
<path fill="none" stroke="#63b8ff" d="M298.48,-63.65C342.35,-53.25 398.57,-39.93 440.39,-30.01"/>
<polygon fill="#63b8ff" stroke="#63b8ff" points="297.68,-60.24 288.75,-65.95 299.29,-67.05 297.68,-60.24"/>
</a>
</g>
</g>
<!-- Node15 -->
<g id="Node000015" class="node">
<title>Node15</title>
<g id="a_Node000015"><a xlink:href="../../d5/d54/GravityBehavior_8cpp.html" target="_top" xlink:title=" ">
<polygon fill="white" stroke="#666666" points="311.5,-30 147.5,-30 147.5,0 311.5,0 311.5,-30"/>
<text text-anchor="start" x="155.5" y="-18" font-family="Helvetica,sans-Serif" font-size="10.00">engine/components/behaviors</text>
<text text-anchor="middle" x="229.5" y="-7" font-family="Helvetica,sans-Serif" font-size="10.00">/GravityBehavior.cpp</text>
</a>
</g>
</g>
<!-- Node14&#45;&gt;Node15 -->
<g id="edge15_Node000014_Node000015" class="edge">
<title>Node14&#45;&gt;Node15</title>
<g id="a_edge15_Node000014_Node000015"><a xlink:title=" ">
<path fill="none" stroke="#63b8ff" d="M229.5,-55.54C229.5,-46.96 229.5,-37.61 229.5,-30.16"/>
<polygon fill="#63b8ff" stroke="#63b8ff" points="226,-55.8 229.5,-65.8 233,-55.8 226,-55.8"/>
</a>
</g>
</g>
<!-- Node17 -->
<g id="Node000017" class="node">
<title>Node17</title>
<g id="a_Node000017"><a xlink:href="../../d2/d3b/KeyboardHandling_8cpp.html" target="_top" xlink:title=" ">
<polygon fill="white" stroke="#666666" points="491.5,-90.5 329.5,-90.5 329.5,-71.5 491.5,-71.5 491.5,-90.5"/>
<text text-anchor="middle" x="410.5" y="-78.5" font-family="Helvetica,sans-Serif" font-size="10.00">engine/KeyboardHandling.cpp</text>
</a>
</g>
</g>
<!-- Node16&#45;&gt;Node17 -->
<g id="edge20_Node000016_Node000017" class="edge">
<title>Node16&#45;&gt;Node17</title>
<g id="a_edge20_Node000016_Node000017"><a xlink:title=" ">
<path fill="none" stroke="#63b8ff" d="M990.82,-132.37C989.71,-132.24 988.6,-132.12 987.5,-132 771.74,-108.48 716.12,-120.7 500.5,-96 487.62,-94.52 473.75,-92.56 460.86,-90.57"/>
<polygon fill="#63b8ff" stroke="#63b8ff" points="990.61,-135.87 1000.95,-133.56 991.43,-128.92 990.61,-135.87"/>
</a>
</g>
</g>
<!-- Node18 -->
<g id="Node000018" class="node">
<title>Node18</title>
<g id="a_Node000018"><a xlink:href="../../da/d20/GameManagerKeyboardHandler_8hpp.html" target="_top" xlink:title=" ">
<polygon fill="white" stroke="#666666" points="1239.5,-96 1043.5,-96 1043.5,-66 1239.5,-66 1239.5,-96"/>
<text text-anchor="start" x="1051.5" y="-84" font-family="Helvetica,sans-Serif" font-size="10.00">game/behaviors/gameManager</text>
<text text-anchor="middle" x="1141.5" y="-73" font-family="Helvetica,sans-Serif" font-size="10.00">/GameManagerKeyboardHandler.hpp</text>
</a>
</g>
</g>
<!-- Node16&#45;&gt;Node18 -->
<g id="edge21_Node000016_Node000018" class="edge">
<title>Node16&#45;&gt;Node18</title>
<g id="a_edge21_Node000016_Node000018"><a xlink:title=" ">
<path fill="none" stroke="#63b8ff" d="M1104.02,-124.09C1112.24,-114.85 1121.59,-104.36 1128.89,-96.16"/>
<polygon fill="#63b8ff" stroke="#63b8ff" points="1101.19,-122 1097.15,-131.8 1106.41,-126.66 1101.19,-122"/>
</a>
</g>
</g>
<!-- Node20 -->
<g id="Node000020" class="node">
<title>Node20</title>
<g id="a_Node000020"><a xlink:href="../../d0/dd8/PlayerKeyboardBehavior_8hpp.html" target="_top" xlink:title=" ">
<polygon fill="white" stroke="#666666" points="669.5,-96 509.5,-96 509.5,-66 669.5,-66 669.5,-96"/>
<text text-anchor="start" x="517.5" y="-84" font-family="Helvetica,sans-Serif" font-size="10.00">game/behaviors/player</text>
<text text-anchor="middle" x="589.5" y="-73" font-family="Helvetica,sans-Serif" font-size="10.00">/PlayerKeyboardBehavior.hpp</text>
</a>
</g>
</g>
<!-- Node16&#45;&gt;Node20 -->
<g id="edge24_Node000016_Node000020" class="edge">
<title>Node16&#45;&gt;Node20</title>
<g id="a_edge24_Node000016_Node000020"><a xlink:title=" ">
<path fill="none" stroke="#63b8ff" d="M990.81,-132.43C989.7,-132.29 988.6,-132.14 987.5,-132 850.4,-114.12 815.49,-114.75 678.5,-96 675.56,-95.6 672.56,-95.18 669.53,-94.74"/>
<polygon fill="#63b8ff" stroke="#63b8ff" points="990.54,-135.93 1000.92,-133.79 991.47,-128.99 990.54,-135.93"/>
</a>
</g>
</g>
<!-- Node18&#45;&gt;Node11 -->
<g id="edge22_Node000018_Node000011" class="edge">
<title>Node18&#45;&gt;Node11</title>
<g id="a_edge22_Node000018_Node000011"><a xlink:title=" ">
<path fill="none" stroke="#63b8ff" d="M1157.94,-57.61C1166.23,-46.32 1175.81,-33.28 1182,-24.84"/>
<polygon fill="#63b8ff" stroke="#63b8ff" points="1155.03,-55.66 1151.93,-65.8 1160.67,-59.81 1155.03,-55.66"/>
</a>
</g>
</g>
<!-- Node19 -->
<g id="Node000019" class="node">
<title>Node19</title>
<g id="a_Node000019"><a xlink:href="../../d8/d23/GameManagerKeyboardHandler_8cpp.html" target="_top" xlink:title=" ">
<polygon fill="white" stroke="#666666" points="1129,-30 934,-30 934,0 1129,0 1129,-30"/>
<text text-anchor="start" x="942" y="-18" font-family="Helvetica,sans-Serif" font-size="10.00">game/behaviors/gameManager</text>
<text text-anchor="middle" x="1031.5" y="-7" font-family="Helvetica,sans-Serif" font-size="10.00">/GameManagerKeyboardHandler.cpp</text>
</a>
</g>
</g>
<!-- Node18&#45;&gt;Node19 -->
<g id="edge23_Node000018_Node000019" class="edge">
<title>Node18&#45;&gt;Node19</title>
<g id="a_edge23_Node000018_Node000019"><a xlink:title=" ">
<path fill="none" stroke="#63b8ff" d="M1108.32,-60.69C1091.34,-50.82 1071.05,-39.01 1055.58,-30.01"/>
<polygon fill="#63b8ff" stroke="#63b8ff" points="1106.96,-63.95 1117.36,-65.95 1110.48,-57.9 1106.96,-63.95"/>
</a>
</g>
</g>
<!-- Node20&#45;&gt;Node11 -->
<g id="edge25_Node000020_Node000011" class="edge">
<title>Node20&#45;&gt;Node11</title>
<g id="a_edge25_Node000020_Node000011"><a xlink:title=" ">
<path fill="none" stroke="#63b8ff" d="M679.65,-65.94C883.51,-42.81 939.18,-64.67 1137.5,-30 1145.28,-28.64 1153.59,-26.61 1161.19,-24.52"/>
<polygon fill="#63b8ff" stroke="#63b8ff" points="679.04,-62.49 669.51,-67.11 679.85,-69.44 679.04,-62.49"/>
</a>
</g>
</g>
<!-- Node20&#45;&gt;Node13 -->
<g id="edge26_Node000020_Node000013" class="edge">
<title>Node20&#45;&gt;Node13</title>
<g id="a_edge26_Node000020_Node000013"><a xlink:title=" ">
<path fill="none" stroke="#63b8ff" d="M561.03,-59.75C547.49,-50.13 531.64,-38.86 519.42,-30.16"/>
<polygon fill="#63b8ff" stroke="#63b8ff" points="559.35,-62.85 569.53,-65.8 563.4,-57.15 559.35,-62.85"/>
</a>
</g>
</g>
<!-- Node21&#45;&gt;Node7 -->
<g id="edge30_Node000021_Node000007" class="edge">
<title>Node21&#45;&gt;Node7</title>
<g id="a_edge30_Node000021_Node000007"><a xlink:title=" ">
<path fill="none" stroke="#63b8ff" d="M2247.03,-59.75C2233.49,-50.13 2217.64,-38.86 2205.42,-30.16"/>
<polygon fill="#63b8ff" stroke="#63b8ff" points="2245.35,-62.85 2255.53,-65.8 2249.4,-57.15 2245.35,-62.85"/>
</a>
</g>
</g>
<!-- Node21&#45;&gt;Node11 -->
<g id="edge29_Node000021_Node000011" class="edge">
<title>Node21&#45;&gt;Node11</title>
<g id="a_edge29_Node000021_Node000011"><a xlink:title=" ">
<path fill="none" stroke="#63b8ff" d="M2183.17,-65.95C1785.64,-28.24 1681.56,-65.68 1287.5,-30 1268.66,-28.29 1247.91,-25.5 1230.3,-22.86"/>
<polygon fill="#63b8ff" stroke="#63b8ff" points="2182.92,-69.45 2193.21,-66.92 2183.59,-62.48 2182.92,-69.45"/>
</a>
</g>
</g>
<!-- Node22 -->
<g id="Node000022" class="node">
<title>Node22</title>
<g id="a_Node000022"><a xlink:href="../../d6/d11/KinematicBehavior_8cpp.html" target="_top" xlink:title=" ">
<polygon fill="white" stroke="#666666" points="2452.5,-30 2288.5,-30 2288.5,0 2452.5,0 2452.5,-30"/>
<text text-anchor="start" x="2296.5" y="-18" font-family="Helvetica,sans-Serif" font-size="10.00">engine/components/behaviors</text>
<text text-anchor="middle" x="2370.5" y="-7" font-family="Helvetica,sans-Serif" font-size="10.00">/KinematicBehavior.cpp</text>
</a>
</g>
</g>
<!-- Node21&#45;&gt;Node22 -->
<g id="edge28_Node000021_Node000022" class="edge">
<title>Node21&#45;&gt;Node22</title>
<g id="a_edge28_Node000021_Node000022"><a xlink:title=" ">
<path fill="none" stroke="#63b8ff" d="M2305.15,-60.03C2319.52,-50.34 2336.45,-38.94 2349.48,-30.16"/>
<polygon fill="#63b8ff" stroke="#63b8ff" points="2302.92,-57.31 2296.58,-65.8 2306.83,-63.11 2302.92,-57.31"/>
</a>
</g>
</g>
<!-- Node23&#45;&gt;Node7 -->
<g id="edge33_Node000023_Node000007" class="edge">
<title>Node23&#45;&gt;Node7</title>
<g id="a_edge33_Node000023_Node000007"><a xlink:title=" ">
<path fill="none" stroke="#63b8ff" d="M2476.83,-126.79C2503.14,-110.77 2530.71,-87.21 2512.5,-66 2511.5,-64.84 2366.78,-43.05 2270.23,-28.62"/>
<polygon fill="#63b8ff" stroke="#63b8ff" points="2474.9,-123.87 2468.02,-131.93 2478.42,-129.92 2474.9,-123.87"/>
</a>
</g>
</g>
<!-- Node24 -->
<g id="Node000024" class="node">
<title>Node24</title>
<g id="a_Node000024"><a xlink:href="../../d0/d19/CoffeeBehavior_8cpp.html" target="_top" xlink:title=" ">
<polygon fill="white" stroke="#666666" points="2503.5,-96 2375.5,-96 2375.5,-66 2503.5,-66 2503.5,-96"/>
<text text-anchor="start" x="2383.5" y="-84" font-family="Helvetica,sans-Serif" font-size="10.00">game/behaviors/coffee</text>
<text text-anchor="middle" x="2439.5" y="-73" font-family="Helvetica,sans-Serif" font-size="10.00">/CoffeeBehavior.cpp</text>
</a>
</g>
</g>
<!-- Node23&#45;&gt;Node24 -->
<g id="edge32_Node000023_Node000024" class="edge">
<title>Node23&#45;&gt;Node24</title>
<g id="a_edge32_Node000023_Node000024"><a xlink:title=" ">
<path fill="none" stroke="#63b8ff" d="M2439.5,-121.54C2439.5,-112.96 2439.5,-103.61 2439.5,-96.16"/>
<polygon fill="#63b8ff" stroke="#63b8ff" points="2436,-121.8 2439.5,-131.8 2443,-121.8 2436,-121.8"/>
</a>
</g>
</g>
<!-- Node25&#45;&gt;Node6 -->
<g id="edge36_Node000025_Node000006" class="edge">
<title>Node25&#45;&gt;Node6</title>
<g id="a_edge36_Node000025_Node000006"><a xlink:title=" ">
<path fill="none" stroke="#63b8ff" d="M1463.15,-64.24C1522.36,-53.71 1599.52,-40 1656.42,-29.88"/>
<polygon fill="#63b8ff" stroke="#63b8ff" points="1462.29,-60.84 1453.06,-66.03 1463.52,-67.73 1462.29,-60.84"/>
</a>
</g>
</g>
<!-- Node25&#45;&gt;Node11 -->
<g id="edge35_Node000025_Node000011" class="edge">
<title>Node25&#45;&gt;Node11</title>
<g id="a_edge35_Node000025_Node000011"><a xlink:title=" ">
<path fill="none" stroke="#63b8ff" d="M1323.86,-62.58C1287.97,-50.23 1241.36,-34.19 1213.25,-24.52"/>
<polygon fill="#63b8ff" stroke="#63b8ff" points="1323.09,-66.01 1333.68,-65.95 1325.36,-59.39 1323.09,-66.01"/>
</a>
</g>
</g>
<!-- Node25&#45;&gt;Node12 -->
<g id="edge38_Node000025_Node000012" class="edge">
<title>Node25&#45;&gt;Node12</title>
<g id="a_edge38_Node000025_Node000012"><a xlink:title=" ">
<path fill="none" stroke="#63b8ff" d="M1285.96,-70.16C1155.03,-55.62 925.06,-30.07 924.5,-30 917.53,-29.12 910.28,-28.17 903.02,-27.19"/>
<polygon fill="#63b8ff" stroke="#63b8ff" points="1285.65,-73.65 1295.98,-71.28 1286.43,-66.69 1285.65,-73.65"/>
</a>
</g>
</g>
<!-- Node26 -->
<g id="Node000026" class="node">
<title>Node26</title>
<g id="a_Node000026"><a xlink:href="../../d7/d47/CoffeeMeterBehavior_8cpp.html" target="_top" xlink:title=" ">
<polygon fill="white" stroke="#666666" points="1453,-30 1296,-30 1296,0 1453,0 1453,-30"/>
<text text-anchor="start" x="1304" y="-18" font-family="Helvetica,sans-Serif" font-size="10.00">game/behaviors/coffeeMeter</text>
<text text-anchor="middle" x="1374.5" y="-7" font-family="Helvetica,sans-Serif" font-size="10.00">/CoffeeMeterBehavior.cpp</text>
</a>
</g>
</g>
<!-- Node25&#45;&gt;Node26 -->
<g id="edge37_Node000025_Node000026" class="edge">
<title>Node25&#45;&gt;Node26</title>
<g id="a_edge37_Node000025_Node000026"><a xlink:title=" ">
<path fill="none" stroke="#63b8ff" d="M1374.5,-55.54C1374.5,-46.96 1374.5,-37.61 1374.5,-30.16"/>
<polygon fill="#63b8ff" stroke="#63b8ff" points="1371,-55.8 1374.5,-65.8 1378,-55.8 1371,-55.8"/>
</a>
</g>
</g>
<!-- Node27&#45;&gt;Node7 -->
<g id="edge41_Node000027_Node000007" class="edge">
<title>Node27&#45;&gt;Node7</title>
<g id="a_edge41_Node000027_Node000007"><a xlink:title=" ">
<path fill="none" stroke="#63b8ff" d="M2663.48,-126.96C2690.83,-110.82 2719.79,-87.01 2700.5,-66 2668.75,-31.42 2326.13,-35.46 2279.5,-30 2276.39,-29.64 2273.22,-29.25 2270.02,-28.84"/>
<polygon fill="#63b8ff" stroke="#63b8ff" points="2661.69,-123.95 2654.72,-131.92 2665.14,-130.04 2661.69,-123.95"/>
</a>
</g>
</g>
<!-- Node28 -->
<g id="Node000028" class="node">
<title>Node28</title>
<g id="a_Node000028"><a xlink:href="../../da/dd4/EnemyBehavior_8cpp.html" target="_top" xlink:title=" ">
<polygon fill="white" stroke="#666666" points="2691.5,-96 2559.5,-96 2559.5,-66 2691.5,-66 2691.5,-96"/>
<text text-anchor="start" x="2567.5" y="-84" font-family="Helvetica,sans-Serif" font-size="10.00">game/behaviors/enemy</text>
<text text-anchor="middle" x="2625.5" y="-73" font-family="Helvetica,sans-Serif" font-size="10.00">/EnemyBehavior.cpp</text>
</a>
</g>
</g>
<!-- Node27&#45;&gt;Node28 -->
<g id="edge40_Node000027_Node000028" class="edge">
<title>Node27&#45;&gt;Node28</title>
<g id="a_edge40_Node000027_Node000028"><a xlink:title=" ">
<path fill="none" stroke="#63b8ff" d="M2625.5,-121.54C2625.5,-112.96 2625.5,-103.61 2625.5,-96.16"/>
<polygon fill="#63b8ff" stroke="#63b8ff" points="2622,-121.8 2625.5,-131.8 2629,-121.8 2622,-121.8"/>
</a>
</g>
</g>
<!-- Node29&#45;&gt;Node7 -->
<g id="edge44_Node000029_Node000007" class="edge">
<title>Node29&#45;&gt;Node7</title>
<g id="a_edge44_Node000029_Node000007"><a xlink:title=" ">
<path fill="none" stroke="#63b8ff" d="M1650.14,-65.99C1847.46,-43.74 1899.53,-52.34 2092.5,-30 2095.26,-29.68 2098.06,-29.34 2100.89,-28.99"/>
<polygon fill="#63b8ff" stroke="#63b8ff" points="1649.55,-62.53 1640.02,-67.14 1650.35,-69.49 1649.55,-62.53"/>
</a>
</g>
</g>
<!-- Node29&#45;&gt;Node11 -->
<g id="edge43_Node000029_Node000011" class="edge">
<title>Node29&#45;&gt;Node11</title>
<g id="a_edge43_Node000029_Node000011"><a xlink:title=" ">
<path fill="none" stroke="#63b8ff" d="M1465.04,-64.22C1390.07,-51.15 1286.92,-33.16 1230.16,-23.26"/>
<polygon fill="#63b8ff" stroke="#63b8ff" points="1464.51,-67.68 1474.96,-65.95 1465.71,-60.79 1464.51,-67.68"/>
</a>
</g>
</g>
<!-- Node30&#45;&gt;Node11 -->
<g id="edge46_Node000030_Node000011" class="edge">
<title>Node30&#45;&gt;Node11</title>
<g id="a_edge46_Node000030_Node000011"><a xlink:title=" ">
<path fill="none" stroke="#63b8ff" d="M139.56,-66.02C581.84,-17.78 701.66,-96.75 1137.5,-30 1145.58,-28.76 1154.2,-26.69 1162.02,-24.52"/>
<polygon fill="#63b8ff" stroke="#63b8ff" points="138.94,-62.57 129.39,-67.15 139.71,-69.53 138.94,-62.57"/>
</a>
</g>
</g>
<!-- Node30&#45;&gt;Node12 -->
<g id="edge48_Node000030_Node000012" class="edge">
<title>Node30&#45;&gt;Node12</title>
<g id="a_edge48_Node000030_Node000012"><a xlink:title=" ">
<path fill="none" stroke="#63b8ff" d="M138.96,-66.08C271.53,-49.8 597.85,-29.46 747.95,-20.52"/>
<polygon fill="#63b8ff" stroke="#63b8ff" points="138.48,-62.62 129,-67.35 139.37,-69.56 138.48,-62.62"/>
</a>
</g>
</g>
<!-- Node30&#45;&gt;Node13 -->
<g id="edge49_Node000030_Node000013" class="edge">
<title>Node30&#45;&gt;Node13</title>
<g id="a_edge49_Node000030_Node000013"><a xlink:title=" ">
<path fill="none" stroke="#63b8ff" d="M138.99,-65.97C241.9,-49.28 348.77,-34.97 419.75,-25.9"/>
<polygon fill="#63b8ff" stroke="#63b8ff" points="138.35,-62.53 129.04,-67.6 139.47,-69.44 138.35,-62.53"/>
</a>
</g>
</g>
<!-- Node31 -->
<g id="Node000031" class="node">
<title>Node31</title>
<g id="a_Node000031"><a xlink:href="../../d8/dea/PlayerBehavior_8cpp.html" target="_top" xlink:title=" ">
<polygon fill="white" stroke="#666666" points="129,-30 0,-30 0,0 129,0 129,-30"/>
<text text-anchor="start" x="8" y="-18" font-family="Helvetica,sans-Serif" font-size="10.00">game/behaviors/player</text>
<text text-anchor="middle" x="64.5" y="-7" font-family="Helvetica,sans-Serif" font-size="10.00">/PlayerBehavior.cpp</text>
</a>
</g>
</g>
<!-- Node30&#45;&gt;Node31 -->
<g id="edge47_Node000030_Node000031" class="edge">
<title>Node30&#45;&gt;Node31</title>
<g id="a_edge47_Node000030_Node000031"><a xlink:title=" ">
<path fill="none" stroke="#63b8ff" d="M64.5,-55.54C64.5,-46.96 64.5,-37.61 64.5,-30.16"/>
<polygon fill="#63b8ff" stroke="#63b8ff" points="61,-55.8 64.5,-65.8 68,-55.8 61,-55.8"/>
</a>
</g>
</g>
<!-- Node32&#45;&gt;Node11 -->
<g id="edge51_Node000032_Node000011" class="edge">
<title>Node32&#45;&gt;Node11</title>
<g id="a_edge51_Node000032_Node000011"><a xlink:title=" ">
<path fill="none" stroke="#63b8ff" d="M1265.79,-121.88C1263.68,-105.15 1258.98,-82.92 1248.5,-66 1237.29,-47.9 1217.26,-33.2 1203.45,-24.53"/>
<polygon fill="#63b8ff" stroke="#63b8ff" points="1262.32,-122.38 1266.83,-131.97 1269.29,-121.66 1262.32,-122.38"/>
</a>
</g>
</g>
<!-- Node33 -->
<g id="Node000033" class="node">
<title>Node33</title>
<g id="a_Node000033"><a xlink:href="../../dc/dda/ScoreCounterBehavior_8cpp.html" target="_top" xlink:title=" ">
<polygon fill="white" stroke="#666666" points="851,-96 688,-96 688,-66 851,-66 851,-96"/>
<text text-anchor="start" x="696" y="-84" font-family="Helvetica,sans-Serif" font-size="10.00">game/behaviors/scoreCounter</text>
<text text-anchor="middle" x="769.5" y="-73" font-family="Helvetica,sans-Serif" font-size="10.00">/ScoreCounterBehavior.cpp</text>
</a>
</g>
</g>
<!-- Node32&#45;&gt;Node33 -->
<g id="edge52_Node000032_Node000033" class="edge">
<title>Node32&#45;&gt;Node33</title>
<g id="a_edge52_Node000032_Node000033"><a xlink:title=" ">
<path fill="none" stroke="#63b8ff" d="M1175.36,-131.88C1034.66,-113.31 997.32,-114.31 860.5,-96 857.49,-95.6 854.43,-95.18 851.33,-94.74"/>
<polygon fill="#63b8ff" stroke="#63b8ff" points="1175.3,-135.41 1185.67,-133.26 1176.22,-128.47 1175.3,-135.41"/>
</a>
</g>
</g>
</g>
</svg>
