<?xml version="1.0" encoding="UTF-8" standalone="no"?>
<!DOCTYPE svg PUBLIC "-//W3C//DTD SVG 1.1//EN"
 "http://www.w3.org/Graphics/SVG/1.1/DTD/svg11.dtd">
<!-- Generated by graphviz version 2.43.0 (0)
 -->
<!-- Title: RegisterGameObject Pages: 1 -->
<!--zoomable 277 -->

<svg id="main" version="1.1" xmlns="http://www.w3.org/2000/svg" xmlns:xlink="http://www.w3.org/1999/xlink" xml:space="preserve" onload="init(evt)">

<style type="text/css"><![CDATA[
.node, .edge {opacity: 0.7;}
.node.selected, .edge.selected {opacity: 1;}
.edge:hover path { stroke: red; }
.edge:hover polygon { stroke: red; fill: red; }
]]></style>

<defs>
  <circle id="rim" cx="0" cy="0" r="7"/>
  <circle id="rim2" cx="0" cy="0" r="3.5"/>
  <g id="zoomPlus">
    <use xlink:href="#rim" fill="#404040"><set attributeName="fill" to="#808080" begin="zoomplus.mouseover" end="zoomplus.mouseout"/></use>
    <path d="M-4,0h8M0,-4v8" fill="none" stroke="white" stroke-width="1.5" pointer-events="none"/>
  </g>
  <g id="zoomMin">
    <use xlink:href="#rim" fill="#404040"><set attributeName="fill" to="#808080" begin="zoomminus.mouseover" end="zoomminus.mouseout"/></use>
    <path d="M-4,0h8" fill="none" stroke="white" stroke-width="1.5" pointer-events="none"/>
  </g>
  <g id="arrowUp" transform="translate(30 24)">
    <use xlink:href="#rim"/>
    <path pointer-events="none" fill="none" stroke="white" stroke-width="1.5" d="M0,-3.0v7 M-2.5,-0.5L0,-3.0L2.5,-0.5"/>
  </g>
  <g id="arrowRight" transform="rotate(90) translate(36 -43)">
    <use xlink:href="#rim"/>
    <path pointer-events="none" fill="none" stroke="white" stroke-width="1.5" d="M0,-3.0v7 M-2.5,-0.5L0,-3.0L2.5,-0.5"/>
  </g>
  <g id="arrowDown" transform="rotate(180) translate(-30 -48)">
    <use xlink:href="#rim"/>
    <path pointer-events="none" fill="none" stroke="white" stroke-width="1.5" d="M0,-3.0v7 M-2.5,-0.5L0,-3.0L2.5,-0.5"/>
  </g>
  <g id="arrowLeft" transform="rotate(270) translate(-36 17)">
    <use xlink:href="#rim"/>
    <path pointer-events="none" fill="none" stroke="white" stroke-width="1.5" d="M0,-3.0v7 M-2.5,-0.5L0,-3.0L2.5,-0.5"/>
  </g>
  <g id="resetDef">
    <use xlink:href="#rim2" fill="#404040"><set attributeName="fill" to="#808080" begin="reset.mouseover" end="reset.mouseout"/></use>
  </g>
</defs>
<script type="application/ecmascript">
var viewWidth = 1307;
var viewHeight = 277;
var sectionId = 'dynsection-8';
</script>
<script type="application/ecmascript" xlink:href="../../svg.min.js"/>
<svg id="graph" class="graph">
<g id="viewport">
<title>RegisterGameObject</title>
<!-- Node1 -->
<g id="Node000001" class="node">
<title>Node1</title>
<g id="a_Node000001"><a xlink:title="Directly register a gameobject. Will push the object into the GameObjects vector.">
<polygon fill="#999999" stroke="#666666" points="1299,-138.68 1181,-138.68 1181,-119.68 1299,-119.68 1299,-138.68"/>
<text text-anchor="middle" x="1240" y="-126.68" font-family="Helvetica,sans-Serif" font-size="10.00">RegisterGameObject</text>
</a>
</g>
</g>
<!-- Node2 -->
<g id="Node000002" class="node">
<title>Node2</title>
<g id="a_Node000002"><a xlink:href="../../d9/dfa/Init_8cpp.html#a3ff595c2af791c369e2318510062ce14" target="_top" xlink:title="Create the coffee meter bar.">
<polygon fill="white" stroke="#666666" points="1135,-268.68 1026,-268.68 1026,-249.68 1135,-249.68 1135,-268.68"/>
<text text-anchor="middle" x="1080.5" y="-256.68" font-family="Helvetica,sans-Serif" font-size="10.00">CreateCoffeeMeter</text>
</a>
</g>
</g>
<!-- Node1&#45;&gt;Node2 -->
<g id="edge1_Node000001_Node000002" class="edge">
<title>Node1&#45;&gt;Node2</title>
<g id="a_edge1_Node000001_Node000002"><a xlink:title=" ">
<path fill="none" stroke="#63b8ff" d="M1228.33,-147.81C1213.07,-172.79 1182.63,-216.83 1145,-241.18 1139.71,-244.61 1133.76,-247.39 1127.68,-249.65"/>
<polygon fill="#63b8ff" stroke="#63b8ff" points="1231.49,-149.34 1233.59,-138.96 1225.48,-145.77 1231.49,-149.34"/>
</a>
</g>
</g>
<!-- Node12 -->
<g id="Node000012" class="node">
<title>Node12</title>
<g id="a_Node000012"><a xlink:href="../../d9/dfa/Init_8cpp.html#a1bfb628b6cd503e396bae0796f2051c1" target="_top" xlink:title="Create the icon next to the coffee meter.">
<polygon fill="white" stroke="#666666" points="1145,-231.68 1016,-231.68 1016,-212.68 1145,-212.68 1145,-231.68"/>
<text text-anchor="middle" x="1080.5" y="-219.68" font-family="Helvetica,sans-Serif" font-size="10.00">CreateCoffeeMeterIcon</text>
</a>
</g>
</g>
<!-- Node1&#45;&gt;Node12 -->
<g id="edge12_Node000001_Node000012" class="edge">
<title>Node1&#45;&gt;Node12</title>
<g id="a_edge12_Node000001_Node000012"><a xlink:title=" ">
<path fill="none" stroke="#63b8ff" d="M1222.51,-145.79C1204.79,-162.74 1175.11,-188.7 1145,-204.18 1138.48,-207.54 1131.25,-210.34 1124.07,-212.65"/>
<polygon fill="#63b8ff" stroke="#63b8ff" points="1225.05,-148.19 1229.76,-138.7 1220.16,-143.18 1225.05,-148.19"/>
</a>
</g>
</g>
<!-- Node13 -->
<g id="Node000013" class="node">
<title>Node13</title>
<g id="a_Node000013"><a xlink:href="../../d9/dfa/Init_8cpp.html#a7577908172d93807ef67f163f851fe5e" target="_top" xlink:title="Create the floor and register it.">
<polygon fill="white" stroke="#666666" points="1117.5,-194.68 1043.5,-194.68 1043.5,-175.68 1117.5,-175.68 1117.5,-194.68"/>
<text text-anchor="middle" x="1080.5" y="-182.68" font-family="Helvetica,sans-Serif" font-size="10.00">CreateFloor</text>
</a>
</g>
</g>
<!-- Node1&#45;&gt;Node13 -->
<g id="edge14_Node000001_Node000013" class="edge">
<title>Node1&#45;&gt;Node13</title>
<g id="a_edge14_Node000001_Node000013"><a xlink:title=" ">
<path fill="none" stroke="#63b8ff" d="M1207.73,-142.81C1189.6,-150.47 1166.22,-159.91 1145,-167.18 1136.22,-170.19 1126.64,-173.1 1117.64,-175.67"/>
<polygon fill="#63b8ff" stroke="#63b8ff" points="1209.39,-145.91 1217.22,-138.77 1206.65,-139.47 1209.39,-145.91"/>
</a>
</g>
</g>
<!-- Node14 -->
<g id="Node000014" class="node">
<title>Node14</title>
<g id="a_Node000014"><a xlink:href="../../d9/dfa/Init_8cpp.html#a8ad8206fa2846739c5e76ce97b6b2783" target="_top" xlink:title="Create the score counter and register it.">
<polygon fill="white" stroke="#666666" points="1137.5,-157.68 1023.5,-157.68 1023.5,-138.68 1137.5,-138.68 1137.5,-157.68"/>
<text text-anchor="middle" x="1080.5" y="-145.68" font-family="Helvetica,sans-Serif" font-size="10.00">CreateScoreCounter</text>
</a>
</g>
</g>
<!-- Node1&#45;&gt;Node14 -->
<g id="edge16_Node000001_Node000014" class="edge">
<title>Node1&#45;&gt;Node14</title>
<g id="a_edge16_Node000001_Node000014"><a xlink:title=" ">
<path fill="none" stroke="#63b8ff" d="M1170.75,-137.42C1159.69,-138.75 1148.35,-140.12 1137.63,-141.41"/>
<polygon fill="#63b8ff" stroke="#63b8ff" points="1171.29,-140.88 1180.8,-136.2 1170.45,-133.93 1171.29,-140.88"/>
</a>
</g>
</g>
<!-- Node15 -->
<g id="Node000015" class="node">
<title>Node15</title>
<g id="a_Node000015"><a xlink:href="../../de/dfd/GameManagement_8cpp.html#a25053f13bc5fe6ea1caf5f343cbb30b8" target="_top" xlink:title=" ">
<polygon fill="white" stroke="#666666" points="979.5,-35.68 837.5,-35.68 837.5,-16.68 979.5,-16.68 979.5,-35.68"/>
<text text-anchor="middle" x="908.5" y="-23.68" font-family="Helvetica,sans-Serif" font-size="10.00">RegisterEnqueuedObjects</text>
</a>
</g>
</g>
<!-- Node1&#45;&gt;Node15 -->
<g id="edge18_Node000001_Node000015" class="edge">
<title>Node1&#45;&gt;Node15</title>
<g id="a_edge18_Node000001_Node000015"><a xlink:title=" ">
<path fill="none" stroke="#63b8ff" d="M1229.97,-110.7C1215.96,-84.41 1186.24,-37.3 1145,-18.18 1077.64,13.04 987.42,-4.03 940.61,-16.61"/>
<polygon fill="#63b8ff" stroke="#63b8ff" points="1226.88,-112.35 1234.56,-119.65 1233.11,-109.16 1226.88,-112.35"/>
</a>
</g>
</g>
<!-- Node16 -->
<g id="Node000016" class="node">
<title>Node16</title>
<g id="a_Node000016"><a xlink:href="../../d9/dfa/Init_8cpp.html#a374cb6f303f72b5af970063ff1318f24" target="_top" xlink:title="Create the left wall and register it.">
<polygon fill="white" stroke="#666666" points="1124.5,-120.68 1036.5,-120.68 1036.5,-101.68 1124.5,-101.68 1124.5,-120.68"/>
<text text-anchor="middle" x="1080.5" y="-108.68" font-family="Helvetica,sans-Serif" font-size="10.00">SpawnLeftWall</text>
</a>
</g>
</g>
<!-- Node1&#45;&gt;Node16 -->
<g id="edge20_Node000001_Node000016" class="edge">
<title>Node1&#45;&gt;Node16</title>
<g id="a_edge20_Node000001_Node000016"><a xlink:title=" ">
<path fill="none" stroke="#63b8ff" d="M1170.65,-121.37C1155.05,-119.59 1138.89,-117.74 1124.69,-116.12"/>
<polygon fill="#63b8ff" stroke="#63b8ff" points="1170.47,-124.87 1180.8,-122.53 1171.26,-117.92 1170.47,-124.87"/>
</a>
</g>
</g>
<!-- Node17 -->
<g id="Node000017" class="node">
<title>Node17</title>
<g id="a_Node000017"><a xlink:href="../../d9/dfa/Init_8cpp.html#aa021dfea28868af5fdc6eb97fdf11395" target="_top" xlink:title="Create the player and register it.">
<polygon fill="white" stroke="#666666" points="1120.5,-83.68 1040.5,-83.68 1040.5,-64.68 1120.5,-64.68 1120.5,-83.68"/>
<text text-anchor="middle" x="1080.5" y="-71.68" font-family="Helvetica,sans-Serif" font-size="10.00">SpawnPlayer</text>
</a>
</g>
</g>
<!-- Node1&#45;&gt;Node17 -->
<g id="edge22_Node000001_Node000017" class="edge">
<title>Node1&#45;&gt;Node17</title>
<g id="a_edge22_Node000001_Node000017"><a xlink:title=" ">
<path fill="none" stroke="#63b8ff" d="M1206.17,-115.92C1188.22,-108.84 1165.52,-100.17 1145,-93.18 1135.41,-89.92 1124.92,-86.65 1115.26,-83.77"/>
<polygon fill="#63b8ff" stroke="#63b8ff" points="1205.03,-119.23 1215.61,-119.67 1207.61,-112.72 1205.03,-119.23"/>
</a>
</g>
</g>
<!-- Node18 -->
<g id="Node000018" class="node">
<title>Node18</title>
<g id="a_Node000018"><a xlink:href="../../d9/dfa/Init_8cpp.html#a0e2d0321a787eb9a3b705489c8f2b86b" target="_top" xlink:title="Create the right wall and register it.">
<polygon fill="white" stroke="#666666" points="1128,-46.68 1033,-46.68 1033,-27.68 1128,-27.68 1128,-46.68"/>
<text text-anchor="middle" x="1080.5" y="-34.68" font-family="Helvetica,sans-Serif" font-size="10.00">SpawnRightWall</text>
</a>
</g>
</g>
<!-- Node1&#45;&gt;Node18 -->
<g id="edge24_Node000001_Node000018" class="edge">
<title>Node1&#45;&gt;Node18</title>
<g id="a_edge24_Node000001_Node000018"><a xlink:title=" ">
<path fill="none" stroke="#63b8ff" d="M1221.8,-112.6C1203.92,-96.18 1174.47,-71.36 1145,-56.18 1137.74,-52.44 1129.62,-49.32 1121.68,-46.75"/>
<polygon fill="#63b8ff" stroke="#63b8ff" points="1219.47,-115.21 1229.16,-119.49 1224.25,-110.1 1219.47,-115.21"/>
</a>
</g>
</g>
<!-- Node3 -->
<g id="Node000003" class="node">
<title>Node3</title>
<g id="a_Node000003"><a xlink:href="../../d9/dfa/Init_8cpp.html#aaa64e8fd06230fa14e507cef71a3217d" target="_top" xlink:title="Create the initial gameobjects required for the game.">
<polygon fill="white" stroke="#666666" points="980,-138.68 837,-138.68 837,-119.68 980,-119.68 980,-138.68"/>
<text text-anchor="middle" x="908.5" y="-126.68" font-family="Helvetica,sans-Serif" font-size="10.00">CreateInitialGameObjects</text>
</a>
</g>
</g>
<!-- Node2&#45;&gt;Node3 -->
<g id="edge2_Node000002_Node000003" class="edge">
<title>Node2&#45;&gt;Node3</title>
<g id="a_edge2_Node000002_Node000003"><a xlink:title=" ">
<path fill="none" stroke="#63b8ff" d="M1024.81,-245.8C1021.76,-244.41 1018.8,-242.87 1016,-241.18 970.07,-213.44 930.9,-160.68 915.96,-138.93"/>
<polygon fill="#63b8ff" stroke="#63b8ff" points="1023.59,-249.09 1034.18,-249.58 1026.21,-242.6 1023.59,-249.09"/>
</a>
</g>
</g>
<!-- Node4 -->
<g id="Node000004" class="node">
<title>Node4</title>
<g id="a_Node000004"><a xlink:href="../../d1/d99/Lifecycle_8cpp.html#af0000b43ed614b94179e358d523c9245" target="_top" xlink:title="Initialize the game to the default state.">
<polygon fill="white" stroke="#666666" points="673,-138.68 585,-138.68 585,-119.68 673,-119.68 673,-138.68"/>
<text text-anchor="middle" x="629" y="-126.68" font-family="Helvetica,sans-Serif" font-size="10.00">InitializeGame</text>
</a>
</g>
</g>
<!-- Node3&#45;&gt;Node4 -->
<g id="edge3_Node000003_Node000004" class="edge">
<title>Node3&#45;&gt;Node4</title>
<g id="a_edge3_Node000003_Node000004"><a xlink:title=" ">
<path fill="none" stroke="#63b8ff" d="M826.59,-129.18C776.52,-129.18 714.21,-129.18 673.33,-129.18"/>
<polygon fill="#63b8ff" stroke="#63b8ff" points="826.76,-132.68 836.76,-129.18 826.76,-125.68 826.76,-132.68"/>
</a>
</g>
</g>
<!-- Node6 -->
<g id="Node000006" class="node">
<title>Node6</title>
<g id="a_Node000006"><a xlink:href="../../d1/d99/Lifecycle_8cpp.html#a7be4f604c1baeb7cac84122a7f2438cf" target="_top" xlink:title="Reset the game to the initial state.">
<polygon fill="white" stroke="#666666" points="801,-100.68 727,-100.68 727,-81.68 801,-81.68 801,-100.68"/>
<text text-anchor="middle" x="764" y="-88.68" font-family="Helvetica,sans-Serif" font-size="10.00">ResetGame</text>
</a>
</g>
</g>
<!-- Node3&#45;&gt;Node6 -->
<g id="edge5_Node000003_Node000006" class="edge">
<title>Node3&#45;&gt;Node6</title>
<g id="a_edge5_Node000003_Node000006"><a xlink:title=" ">
<path fill="none" stroke="#63b8ff" d="M861.85,-117.01C842.14,-111.75 819.43,-105.7 800.95,-100.77"/>
<polygon fill="#63b8ff" stroke="#63b8ff" points="860.98,-120.4 871.54,-119.59 862.78,-113.64 860.98,-120.4"/>
</a>
</g>
</g>
<!-- Node5 -->
<g id="Node000005" class="node">
<title>Node5</title>
<g id="a_Node000005"><a xlink:href="../../df/d0a/main_8cpp.html#ae66f6b31b5ad750f1fe042a706a4e3d4" target="_top" xlink:title="Entry point of the program.">
<polygon fill="white" stroke="#666666" points="41,-119.68 0,-119.68 0,-100.68 41,-100.68 41,-119.68"/>
<text text-anchor="middle" x="20.5" y="-107.68" font-family="Helvetica,sans-Serif" font-size="10.00">main</text>
</a>
</g>
</g>
<!-- Node4&#45;&gt;Node5 -->
<g id="edge4_Node000004_Node000005" class="edge">
<title>Node4&#45;&gt;Node5</title>
<g id="a_edge4_Node000004_Node000005"><a xlink:title=" ">
<path fill="none" stroke="#63b8ff" d="M574.69,-129.18C511.26,-129.18 402.16,-129.18 308.5,-129.18 308.5,-129.18 308.5,-129.18 203,-129.18 143.75,-129.18 74.22,-119.04 41.04,-113.58"/>
<polygon fill="#63b8ff" stroke="#63b8ff" points="574.85,-132.68 584.85,-129.18 574.85,-125.68 574.85,-132.68"/>
</a>
</g>
</g>
<!-- Node7 -->
<g id="Node000007" class="node">
<title>Node7</title>
<g id="a_Node000007"><a xlink:href="../../de/dfd/GameManagement_8cpp.html#a2877bc3a946eb46940e5cdedcaf4e3f6" target="_top" xlink:title=" ">
<polygon fill="white" stroke="#666666" points="691,-100.68 567,-100.68 567,-81.68 691,-81.68 691,-100.68"/>
<text text-anchor="middle" x="629" y="-88.68" font-family="Helvetica,sans-Serif" font-size="10.00">ResetGameIfRequired</text>
</a>
</g>
</g>
<!-- Node6&#45;&gt;Node7 -->
<g id="edge6_Node000006_Node000007" class="edge">
<title>Node6&#45;&gt;Node7</title>
<g id="a_edge6_Node000006_Node000007"><a xlink:title=" ">
<path fill="none" stroke="#63b8ff" d="M716.54,-91.18C708.32,-91.18 699.66,-91.18 691.11,-91.18"/>
<polygon fill="#63b8ff" stroke="#63b8ff" points="716.66,-94.68 726.66,-91.18 716.66,-87.68 716.66,-94.68"/>
</a>
</g>
</g>
<!-- Node8 -->
<g id="Node000008" class="node">
<title>Node8</title>
<g id="a_Node000008"><a xlink:href="../../de/dfd/GameManagement_8cpp.html#a95ff1ee6a57e678376b2eae2ef499ab3" target="_top" xlink:title=" ">
<polygon fill="white" stroke="#666666" points="531,-100.68 388,-100.68 388,-81.68 531,-81.68 531,-100.68"/>
<text text-anchor="middle" x="459.5" y="-88.68" font-family="Helvetica,sans-Serif" font-size="10.00">WorkThroughFrameQueue</text>
</a>
</g>
</g>
<!-- Node7&#45;&gt;Node8 -->
<g id="edge7_Node000007_Node000008" class="edge">
<title>Node7&#45;&gt;Node8</title>
<g id="a_edge7_Node000007_Node000008"><a xlink:title=" ">
<path fill="none" stroke="#63b8ff" d="M556.49,-91.18C548.14,-91.18 539.61,-91.18 531.27,-91.18"/>
<polygon fill="#63b8ff" stroke="#63b8ff" points="556.58,-94.68 566.58,-91.18 556.58,-87.68 556.58,-94.68"/>
</a>
</g>
</g>
<!-- Node9 -->
<g id="Node000009" class="node">
<title>Node9</title>
<g id="a_Node000009"><a xlink:href="../../de/dfd/GameManagement_8cpp.html#a522912d67446895b0a03d01837b75a99" target="_top" xlink:title="Iterate over all objects, and update the appropriately, using OnTick() or Component specific methods.">
<polygon fill="white" stroke="#666666" points="352,-100.68 263,-100.68 263,-81.68 352,-81.68 352,-100.68"/>
<text text-anchor="middle" x="307.5" y="-88.68" font-family="Helvetica,sans-Serif" font-size="10.00">UpdateObjects</text>
</a>
</g>
</g>
<!-- Node8&#45;&gt;Node9 -->
<g id="edge8_Node000008_Node000009" class="edge">
<title>Node8&#45;&gt;Node9</title>
<g id="a_edge8_Node000008_Node000009"><a xlink:title=" ">
<path fill="none" stroke="#63b8ff" d="M377.63,-91.18C368.9,-91.18 360.28,-91.18 352.24,-91.18"/>
<polygon fill="#63b8ff" stroke="#63b8ff" points="377.89,-94.68 387.89,-91.18 377.89,-87.68 377.89,-94.68"/>
</a>
</g>
</g>
<!-- Node10 -->
<g id="Node000010" class="node">
<title>Node10</title>
<g id="a_Node000010"><a xlink:href="../../df/d0a/main_8cpp.html#ae8fa368bbea5177612cd2cf333448c66" target="_top" xlink:title="Executed every frame.">
<polygon fill="white" stroke="#666666" points="227,-100.68 181,-100.68 181,-81.68 227,-81.68 227,-100.68"/>
<text text-anchor="middle" x="204" y="-88.68" font-family="Helvetica,sans-Serif" font-size="10.00">frame</text>
</a>
</g>
</g>
<!-- Node9&#45;&gt;Node10 -->
<g id="edge9_Node000009_Node000010" class="edge">
<title>Node9&#45;&gt;Node10</title>
<g id="a_edge9_Node000009_Node000010"><a xlink:title=" ">
<path fill="none" stroke="#63b8ff" d="M252.66,-91.18C243.62,-91.18 234.71,-91.18 227.08,-91.18"/>
<polygon fill="#63b8ff" stroke="#63b8ff" points="252.87,-94.68 262.87,-91.18 252.87,-87.68 252.87,-94.68"/>
</a>
</g>
</g>
<!-- Node11 -->
<g id="Node000011" class="node">
<title>Node11</title>
<g id="a_Node000011"><a xlink:href="../../df/d0a/main_8cpp.html#abfbee20b241e7d5bbbef9ab36fb201a4" target="_top" xlink:title="The main game loop, runs until QuitGame is set to true.">
<polygon fill="white" stroke="#666666" points="145,-100.68 77,-100.68 77,-81.68 145,-81.68 145,-100.68"/>
<text text-anchor="middle" x="111" y="-88.68" font-family="Helvetica,sans-Serif" font-size="10.00">gameLoop</text>
</a>
</g>
</g>
<!-- Node10&#45;&gt;Node11 -->
<g id="edge10_Node000010_Node000011" class="edge">
<title>Node10&#45;&gt;Node11</title>
<g id="a_edge10_Node000010_Node000011"><a xlink:title=" ">
<path fill="none" stroke="#63b8ff" d="M170.87,-91.18C162.55,-91.18 153.58,-91.18 145.2,-91.18"/>
<polygon fill="#63b8ff" stroke="#63b8ff" points="170.97,-94.68 180.97,-91.18 170.97,-87.68 170.97,-94.68"/>
</a>
</g>
</g>
<!-- Node11&#45;&gt;Node5 -->
<g id="edge11_Node000011_Node000005" class="edge">
<title>Node11&#45;&gt;Node5</title>
<g id="a_edge11_Node000011_Node000005"><a xlink:title=" ">
<path fill="none" stroke="#63b8ff" d="M66.8,-100.46C57.85,-102.38 48.85,-104.31 41.25,-105.94"/>
<polygon fill="#63b8ff" stroke="#63b8ff" points="67.75,-103.83 76.79,-98.31 66.28,-96.99 67.75,-103.83"/>
</a>
</g>
</g>
<!-- Node12&#45;&gt;Node3 -->
<g id="edge13_Node000012_Node000003" class="edge">
<title>Node12&#45;&gt;Node3</title>
<g id="a_edge13_Node000012_Node000003"><a xlink:title=" ">
<path fill="none" stroke="#63b8ff" d="M1028.58,-209.42C1024.25,-207.84 1020.01,-206.09 1016,-204.18 978.03,-186.08 939.02,-154.69 920.52,-138.88"/>
<polygon fill="#63b8ff" stroke="#63b8ff" points="1027.51,-212.76 1038.1,-212.64 1029.75,-206.12 1027.51,-212.76"/>
</a>
</g>
</g>
<!-- Node13&#45;&gt;Node3 -->
<g id="edge15_Node000013_Node000003" class="edge">
<title>Node13&#45;&gt;Node3</title>
<g id="a_edge15_Node000013_Node000003"><a xlink:title=" ">
<path fill="none" stroke="#63b8ff" d="M1034.45,-172.81C1028.23,-170.99 1021.94,-169.08 1016,-167.18 987.95,-158.21 956.21,-146.71 934.73,-138.72"/>
<polygon fill="#63b8ff" stroke="#63b8ff" points="1033.53,-176.19 1044.11,-175.6 1035.47,-169.47 1033.53,-176.19"/>
</a>
</g>
</g>
<!-- Node14&#45;&gt;Node3 -->
<g id="edge17_Node000014_Node000003" class="edge">
<title>Node14&#45;&gt;Node3</title>
<g id="a_edge17_Node000014_Node000003"><a xlink:title=" ">
<path fill="none" stroke="#63b8ff" d="M1013.14,-140.77C1002.31,-139.56 991.06,-138.3 980.13,-137.08"/>
<polygon fill="#63b8ff" stroke="#63b8ff" points="1013.04,-144.28 1023.36,-141.91 1013.82,-137.32 1013.04,-144.28"/>
</a>
</g>
</g>
<!-- Node15&#45;&gt;Node8 -->
<g id="edge19_Node000015_Node000008" class="edge">
<title>Node15&#45;&gt;Node8</title>
<g id="a_edge19_Node000015_Node000008"><a xlink:title=" ">
<path fill="none" stroke="#63b8ff" d="M827.36,-36.55C758.3,-45.65 655.97,-59.53 567,-73.18 550.04,-75.79 531.6,-78.83 514.9,-81.66"/>
<polygon fill="#63b8ff" stroke="#63b8ff" points="827.85,-40.01 837.31,-35.24 826.94,-33.07 827.85,-40.01"/>
</a>
</g>
</g>
<!-- Node16&#45;&gt;Node3 -->
<g id="edge21_Node000016_Node000003" class="edge">
<title>Node16&#45;&gt;Node3</title>
<g id="a_edge21_Node000016_Node000003"><a xlink:title=" ">
<path fill="none" stroke="#63b8ff" d="M1025.88,-116.86C1011.38,-118.4 995.45,-120.08 980.17,-121.7"/>
<polygon fill="#63b8ff" stroke="#63b8ff" points="1026.59,-120.31 1036.16,-115.77 1025.85,-113.34 1026.59,-120.31"/>
</a>
</g>
</g>
<!-- Node17&#45;&gt;Node3 -->
<g id="edge23_Node000017_Node000003" class="edge">
<title>Node17&#45;&gt;Node3</title>
<g id="a_edge23_Node000017_Node000003"><a xlink:title=" ">
<path fill="none" stroke="#63b8ff" d="M1036.79,-86.74C1029.83,-88.85 1022.7,-91.05 1016,-93.18 989.03,-101.77 958.45,-112.18 937,-119.59"/>
<polygon fill="#63b8ff" stroke="#63b8ff" points="1038.23,-89.96 1046.8,-83.73 1036.22,-83.25 1038.23,-89.96"/>
</a>
</g>
</g>
<!-- Node18&#45;&gt;Node3 -->
<g id="edge25_Node000018_Node000003" class="edge">
<title>Node18&#45;&gt;Node3</title>
<g id="a_edge25_Node000018_Node000003"><a xlink:title=" ">
<path fill="none" stroke="#63b8ff" d="M1030.75,-50.07C1025.68,-51.91 1020.68,-53.95 1016,-56.18 978.58,-74.06 939.63,-104.22 920.9,-119.58"/>
<polygon fill="#63b8ff" stroke="#63b8ff" points="1032.15,-53.29 1040.5,-46.77 1029.91,-46.66 1032.15,-53.29"/>
</a>
</g>
</g>
</g>
</svg>

<g id="navigator" transform="translate(0 0)" fill="#404254">
  <rect fill="#f2f5e9" fill-opacity="0.5" stroke="#606060" stroke-width=".5" x="0" y="0" width="60" height="60"/>
  <use id="zoomplus" xlink:href="#zoomPlus" x="17" y="9" onmousedown="handleZoom(evt,'in')"/>
  <use id="zoomminus" xlink:href="#zoomMin" x="42" y="9" onmousedown="handleZoom(evt,'out')"/>
  <use id="reset" xlink:href="#resetDef" x="30" y="36" onmousedown="handleReset()"/>
   <use id="arrowup" xlink:href="#arrowUp" x="0" y="0" onmousedown="handlePan(0,-1)"/>
  <use id="arrowright" xlink:href="#arrowRight" x="0" y="0" onmousedown="handlePan(1,0)"/>
  <use id="arrowdown" xlink:href="#arrowDown" x="0" y="0" onmousedown="handlePan(0,1)"/>
  <use id="arrowleft" xlink:href="#arrowLeft" x="0" y="0" onmousedown="handlePan(-1,0)"/>
</g>
<svg viewBox="0 0 15 15" width="100%" height="30px" preserveAspectRatio="xMaxYMin meet">
 <g id="arrow_out" transform="scale(0.3 0.3)">
  <a xlink:href="GameManagement_8hpp_a40f7d4339a01b155a82745c5bd8ead6a_icgraph_org.svg" target="_base">
   <rect id="button" ry="5" rx="5" y="6" x="6" height="38" width="38"
        fill="#f2f5e9" fill-opacity="0.5" stroke="#606060" stroke-width="1.0"/>
   <path id="arrow"
     d="M 11.500037,31.436501 C 11.940474,20.09759 22.043105,11.32322 32.158766,21.979434 L 37.068811,17.246167 C 37.068811,17.246167 37.088388,32 37.088388,32 L 22.160133,31.978069 C 22.160133,31.978069 26.997745,27.140456 26.997745,27.140456 C 18.528582,18.264221 13.291696,25.230495 11.500037,31.436501 z"
     style="fill:#404040;"/>
  </a>
 </g>
</svg>

<style type='text/css'>
<![CDATA[
[data-mouse-over-selected='false'] { opacity: 0.7; }
[data-mouse-over-selected='true']  { opacity: 1.0; }
]]>
</style>
<script type="application/ecmascript"><![CDATA[
document.addEventListener('DOMContentLoaded', (event) => {
  highlightEdges();
  highlightAdjacentNodes();
});
]]></script>
</svg>
