<?xml version="1.0" encoding="UTF-8" standalone="no"?>
<!DOCTYPE svg PUBLIC "-//W3C//DTD SVG 1.1//EN"
 "http://www.w3.org/Graphics/SVG/1.1/DTD/svg11.dtd">
<!-- Generated by graphviz version 2.43.0 (0)
 -->
<!-- Title: GameObjectComponent::setEnabled Pages: 1 -->
<svg width="315pt" height="86pt"
 viewBox="0.00 0.00 315.00 86.00" xmlns="http://www.w3.org/2000/svg" xmlns:xlink="http://www.w3.org/1999/xlink">
<g id="graph0" class="graph" transform="scale(1 1) rotate(0) translate(4 82)">
<title>GameObjectComponent::setEnabled</title>
<!-- Node1 -->
<g id="node1" class="node">
<title>Node1</title>
<g id="a_node1"><a xlink:title=" ">
<polygon fill="#999999" stroke="#666666" points="307,-54 173,-54 173,-24 307,-24 307,-54"/>
<text text-anchor="start" x="181" y="-42" font-family="Helvetica,sans-Serif" font-size="10.00">GameObjectComponent</text>
<text text-anchor="middle" x="240" y="-31" font-family="Helvetica,sans-Serif" font-size="10.00">::setEnabled</text>
</a>
</g>
</g>
<!-- Node2 -->
<g id="node2" class="node">
<title>Node2</title>
<g id="a_node2"><a xlink:href="../../d0/d31/classPlayerCollisionBehavior.html#a37d78c9ec93b470831ce124b74423ff5" target="_top" xlink:title="The action to be taken when the object will collide next frame.">
<polygon fill="white" stroke="#666666" points="135,-78 2,-78 2,-48 135,-48 135,-78"/>
<text text-anchor="start" x="10" y="-66" font-family="Helvetica,sans-Serif" font-size="10.00">PlayerCollisionBehavior</text>
<text text-anchor="middle" x="68.5" y="-55" font-family="Helvetica,sans-Serif" font-size="10.00">::BeforeCollision</text>
</a>
</g>
</g>
<!-- Node1&#45;&gt;Node2 -->
<g id="edge1" class="edge">
<title>Node1&#45;&gt;Node2</title>
<path fill="none" stroke="#63b8ff" d="M162.96,-49.77C153.65,-51.09 144.2,-52.42 135.06,-53.72"/>
<polygon fill="#63b8ff" stroke="#63b8ff" points="163.57,-53.22 172.98,-48.35 162.59,-46.28 163.57,-53.22"/>
</g>
<!-- Node3 -->
<g id="node3" class="node">
<title>Node3</title>
<g id="a_node3"><a xlink:href="../../d9/d2c/classPlayerKeyboardBehavior.html#a33cb56185fe7c59308dfe6cf05776adf" target="_top" xlink:title="Called when a key is pressed (or held) down.">
<polygon fill="white" stroke="#666666" points="137,-30 0,-30 0,0 137,0 137,-30"/>
<text text-anchor="start" x="8" y="-18" font-family="Helvetica,sans-Serif" font-size="10.00">PlayerKeyboardBehavior</text>
<text text-anchor="middle" x="68.5" y="-7" font-family="Helvetica,sans-Serif" font-size="10.00">::OnKeyDown</text>
</a>
</g>
</g>
<!-- Node1&#45;&gt;Node3 -->
<g id="edge2" class="edge">
<title>Node1&#45;&gt;Node3</title>
<path fill="none" stroke="#63b8ff" d="M162.92,-28.23C154.29,-27.01 145.53,-25.77 137.01,-24.56"/>
<polygon fill="#63b8ff" stroke="#63b8ff" points="162.59,-31.72 172.98,-29.65 163.57,-24.78 162.59,-31.72"/>
</g>
</g>
</svg>
