<?xml version="1.0" encoding="UTF-8" standalone="no"?>
<!DOCTYPE svg PUBLIC "-//W3C//DTD SVG 1.1//EN"
 "http://www.w3.org/Graphics/SVG/1.1/DTD/svg11.dtd">
<!-- Generated by graphviz version 2.43.0 (0)
 -->
<!-- Title: Renderer Pages: 1 -->
<!--zoomable 700 -->

<svg id="main" version="1.1" xmlns="http://www.w3.org/2000/svg" xmlns:xlink="http://www.w3.org/1999/xlink" xml:space="preserve" onload="init(evt)">

<style type="text/css"><![CDATA[
.node, .edge {opacity: 0.7;}
.node.selected, .edge.selected {opacity: 1;}
.edge:hover path { stroke: red; }
.edge:hover polygon { stroke: red; fill: red; }
]]></style>

<defs>
  <circle id="rim" cx="0" cy="0" r="7"/>
  <circle id="rim2" cx="0" cy="0" r="3.5"/>
  <g id="zoomPlus">
    <use xlink:href="#rim" fill="#404040"><set attributeName="fill" to="#808080" begin="zoomplus.mouseover" end="zoomplus.mouseout"/></use>
    <path d="M-4,0h8M0,-4v8" fill="none" stroke="white" stroke-width="1.5" pointer-events="none"/>
  </g>
  <g id="zoomMin">
    <use xlink:href="#rim" fill="#404040"><set attributeName="fill" to="#808080" begin="zoomminus.mouseover" end="zoomminus.mouseout"/></use>
    <path d="M-4,0h8" fill="none" stroke="white" stroke-width="1.5" pointer-events="none"/>
  </g>
  <g id="arrowUp" transform="translate(30 24)">
    <use xlink:href="#rim"/>
    <path pointer-events="none" fill="none" stroke="white" stroke-width="1.5" d="M0,-3.0v7 M-2.5,-0.5L0,-3.0L2.5,-0.5"/>
  </g>
  <g id="arrowRight" transform="rotate(90) translate(36 -43)">
    <use xlink:href="#rim"/>
    <path pointer-events="none" fill="none" stroke="white" stroke-width="1.5" d="M0,-3.0v7 M-2.5,-0.5L0,-3.0L2.5,-0.5"/>
  </g>
  <g id="arrowDown" transform="rotate(180) translate(-30 -48)">
    <use xlink:href="#rim"/>
    <path pointer-events="none" fill="none" stroke="white" stroke-width="1.5" d="M0,-3.0v7 M-2.5,-0.5L0,-3.0L2.5,-0.5"/>
  </g>
  <g id="arrowLeft" transform="rotate(270) translate(-36 17)">
    <use xlink:href="#rim"/>
    <path pointer-events="none" fill="none" stroke="white" stroke-width="1.5" d="M0,-3.0v7 M-2.5,-0.5L0,-3.0L2.5,-0.5"/>
  </g>
  <g id="resetDef">
    <use xlink:href="#rim2" fill="#404040"><set attributeName="fill" to="#808080" begin="reset.mouseover" end="reset.mouseout"/></use>
  </g>
</defs>
<script type="application/ecmascript">
var viewWidth = 494;
var viewHeight = 700;
var sectionId = 'dynsection-0';
</script>
<script type="application/ecmascript" xlink:href="../../svg.min.js"/>
<svg id="graph" class="graph">
<g id="viewport">
<title>Renderer</title>
<!-- Node1 -->
<g id="Node000001" class="node">
<title>Node1</title>
<g id="a_Node000001"><a xlink:title="Abstract renderer component.">
<polygon fill="#999999" stroke="transparent" points="320,-495 178,-495 178,-405 320,-405 320,-495"/>
<text text-anchor="start" x="226.5" y="-483" font-family="Helvetica,sans-Serif" font-size="10.00">Renderer</text>
<text text-anchor="start" x="182" y="-468" font-family="Helvetica,sans-Serif" font-size="10.00">#</text>
<text text-anchor="start" x="195" y="-468" font-family="Helvetica,sans-Serif" font-size="10.00">SDL_Renderer * renderer</text>
<text text-anchor="start" x="182" y="-453" font-family="Helvetica,sans-Serif" font-size="10.00">+</text>
<text text-anchor="start" x="195" y="-453" font-family="Helvetica,sans-Serif" font-size="10.00">Renderer()</text>
<text text-anchor="start" x="182" y="-438" font-family="Helvetica,sans-Serif" font-size="10.00">+</text>
<text text-anchor="start" x="195" y="-438" font-family="Helvetica,sans-Serif" font-size="10.00">Renderer(SDL_Renderer</text>
<text text-anchor="start" x="195" y="-427" font-family="Helvetica,sans-Serif" font-size="10.00"> *renderer)</text>
<text text-anchor="start" x="182" y="-412" font-family="Helvetica,sans-Serif" font-size="10.00">+</text>
<text text-anchor="start" x="195" y="-412" font-family="Helvetica,sans-Serif" font-size="10.00">~Renderer()</text>
<polygon fill="#666666" stroke="#666666" points="178,-478 178,-478 320,-478 320,-478 178,-478"/>
<polygon fill="#666666" stroke="#666666" points="178,-463 178,-463 193,-463 193,-463 178,-463"/>
<polygon fill="#666666" stroke="#666666" points="193,-463 193,-463 320,-463 320,-463 193,-463"/>
<polygon fill="none" stroke="#666666" points="178,-405 178,-495 320,-495 320,-405 178,-405"/>
</a>
</g>
</g>
<!-- Node3 -->
<g id="Node000003" class="node">
<title>Node3</title>
<g id="a_Node000003"><a xlink:href="../../dd/d7f/classFontRenderer.html" target="_top" xlink:title="A component to render text to the screen on a GameObject.">
<polygon fill="white" stroke="transparent" points="160,-369 0,-369 0,0 160,0 160,-369"/>
<text text-anchor="start" x="47" y="-356.5" font-family="Helvetica,sans-Serif" font-size="10.00">FontRenderer</text>
<text text-anchor="start" x="4" y="-341.5" font-family="Helvetica,sans-Serif" font-size="10.00">#</text>
<text text-anchor="start" x="17" y="-341.5" font-family="Helvetica,sans-Serif" font-size="10.00">std::string text</text>
<text text-anchor="start" x="4" y="-326.5" font-family="Helvetica,sans-Serif" font-size="10.00">#</text>
<text text-anchor="start" x="17" y="-326.5" font-family="Helvetica,sans-Serif" font-size="10.00">SDL_Surface * surface</text>
<text text-anchor="start" x="4" y="-311.5" font-family="Helvetica,sans-Serif" font-size="10.00">#</text>
<text text-anchor="start" x="17" y="-311.5" font-family="Helvetica,sans-Serif" font-size="10.00">SDL_Texture * texture</text>
<text text-anchor="start" x="4" y="-296.5" font-family="Helvetica,sans-Serif" font-size="10.00">#</text>
<text text-anchor="start" x="17" y="-296.5" font-family="Helvetica,sans-Serif" font-size="10.00">TTF_Font * font</text>
<text text-anchor="start" x="4" y="-281.5" font-family="Helvetica,sans-Serif" font-size="10.00">#</text>
<text text-anchor="start" x="17" y="-281.5" font-family="Helvetica,sans-Serif" font-size="10.00">std::shared_ptr&lt; Vector2</text>
<text text-anchor="start" x="17" y="-270.5" font-family="Helvetica,sans-Serif" font-size="10.00"> &gt; size</text>
<text text-anchor="start" x="4" y="-255.5" font-family="Helvetica,sans-Serif" font-size="10.00">#</text>
<text text-anchor="start" x="17" y="-255.5" font-family="Helvetica,sans-Serif" font-size="10.00">std::shared_ptr&lt; SDL</text>
<text text-anchor="start" x="17" y="-244.5" font-family="Helvetica,sans-Serif" font-size="10.00">_FRect &gt; renderable</text>
<text text-anchor="start" x="4" y="-229.5" font-family="Helvetica,sans-Serif" font-size="10.00">#</text>
<text text-anchor="start" x="17" y="-229.5" font-family="Helvetica,sans-Serif" font-size="10.00">std::shared_ptr&lt; SDL</text>
<text text-anchor="start" x="17" y="-218.5" font-family="Helvetica,sans-Serif" font-size="10.00">_Color &gt; color</text>
<text text-anchor="start" x="4" y="-203.5" font-family="Helvetica,sans-Serif" font-size="10.00">+</text>
<text text-anchor="start" x="17" y="-203.5" font-family="Helvetica,sans-Serif" font-size="10.00">FontRenderer(std::</text>
<text text-anchor="start" x="17" y="-192.5" font-family="Helvetica,sans-Serif" font-size="10.00">string pathToFont, float size)</text>
<text text-anchor="start" x="4" y="-177.5" font-family="Helvetica,sans-Serif" font-size="10.00">+</text>
<text text-anchor="start" x="17" y="-177.5" font-family="Helvetica,sans-Serif" font-size="10.00">~FontRenderer()</text>
<text text-anchor="start" x="4" y="-162.5" font-family="Helvetica,sans-Serif" font-size="10.00">+</text>
<text text-anchor="start" x="17" y="-162.5" font-family="Helvetica,sans-Serif" font-size="10.00">void setText(std::string</text>
<text text-anchor="start" x="17" y="-151.5" font-family="Helvetica,sans-Serif" font-size="10.00"> value)</text>
<text text-anchor="start" x="4" y="-136.5" font-family="Helvetica,sans-Serif" font-size="10.00">+</text>
<text text-anchor="start" x="17" y="-136.5" font-family="Helvetica,sans-Serif" font-size="10.00">std::string getText</text>
<text text-anchor="start" x="17" y="-125.5" font-family="Helvetica,sans-Serif" font-size="10.00">() const</text>
<text text-anchor="start" x="4" y="-110.5" font-family="Helvetica,sans-Serif" font-size="10.00">+</text>
<text text-anchor="start" x="17" y="-110.5" font-family="Helvetica,sans-Serif" font-size="10.00">void setSize(std::shared</text>
<text text-anchor="start" x="17" y="-99.5" font-family="Helvetica,sans-Serif" font-size="10.00">_ptr&lt; Vector2 &gt; value)</text>
<text text-anchor="start" x="4" y="-84.5" font-family="Helvetica,sans-Serif" font-size="10.00">+</text>
<text text-anchor="start" x="17" y="-84.5" font-family="Helvetica,sans-Serif" font-size="10.00">std::shared_ptr&lt; Vector2</text>
<text text-anchor="start" x="17" y="-73.5" font-family="Helvetica,sans-Serif" font-size="10.00"> &gt; getSize() const</text>
<text text-anchor="start" x="4" y="-58.5" font-family="Helvetica,sans-Serif" font-size="10.00">+</text>
<text text-anchor="start" x="17" y="-58.5" font-family="Helvetica,sans-Serif" font-size="10.00">void setColor(Uint8</text>
<text text-anchor="start" x="17" y="-47.5" font-family="Helvetica,sans-Serif" font-size="10.00"> r, Uint8 g, Uint8 b,</text>
<text text-anchor="start" x="17" y="-36.5" font-family="Helvetica,sans-Serif" font-size="10.00"> Uint8 a)</text>
<text text-anchor="start" x="4" y="-21.5" font-family="Helvetica,sans-Serif" font-size="10.00">+</text>
<text text-anchor="start" x="17" y="-21.5" font-family="Helvetica,sans-Serif" font-size="10.00">void OnTick() override</text>
<text text-anchor="start" x="4" y="-6.5" font-family="Helvetica,sans-Serif" font-size="10.00">+</text>
<text text-anchor="start" x="17" y="-6.5" font-family="Helvetica,sans-Serif" font-size="10.00">void OnStart() override</text>
<polygon fill="#666666" stroke="#666666" points="0,-351.5 0,-351.5 160,-351.5 160,-351.5 0,-351.5"/>
<polygon fill="#666666" stroke="#666666" points="0,-213.5 0,-213.5 15,-213.5 15,-213.5 0,-213.5"/>
<polygon fill="#666666" stroke="#666666" points="15,-213.5 15,-213.5 160,-213.5 160,-213.5 15,-213.5"/>
<polygon fill="none" stroke="#666666" points="0,0 0,-369 160,-369 160,0 0,0"/>
</a>
</g>
</g>
<!-- Node1&#45;&gt;Node3 -->
<g id="edge2_Node000001_Node000003" class="edge">
<title>Node1&#45;&gt;Node3</title>
<g id="a_edge2_Node000001_Node000003"><a xlink:title=" ">
<path fill="none" stroke="#63b8ff" d="M192.53,-397.43C184.11,-388.39 175.94,-378.75 169,-369 166.02,-364.82 163.1,-360.52 160.23,-356.13"/>
<polygon fill="none" stroke="#63b8ff" points="190.2,-400.05 199.64,-404.86 195.25,-395.21 190.2,-400.05"/>
</a>
</g>
</g>
<!-- Node4 -->
<g id="Node000004" class="node">
<title>Node4</title>
<g id="a_Node000004"><a xlink:href="../../d0/d0f/classRectangleRenderer.html" target="_top" xlink:title="A renderer for simple rectangles.">
<polygon fill="white" stroke="transparent" points="320,-318.5 178,-318.5 178,-50.5 320,-50.5 320,-318.5"/>
<text text-anchor="start" x="202" y="-306.5" font-family="Helvetica,sans-Serif" font-size="10.00">RectangleRenderer</text>
<text text-anchor="start" x="182" y="-291.5" font-family="Helvetica,sans-Serif" font-size="10.00">#</text>
<text text-anchor="start" x="195" y="-291.5" font-family="Helvetica,sans-Serif" font-size="10.00">std::shared_ptr&lt; SDL</text>
<text text-anchor="start" x="195" y="-280.5" font-family="Helvetica,sans-Serif" font-size="10.00">_FRect &gt; renderable</text>
<text text-anchor="start" x="182" y="-265.5" font-family="Helvetica,sans-Serif" font-size="10.00">#</text>
<text text-anchor="start" x="195" y="-265.5" font-family="Helvetica,sans-Serif" font-size="10.00">std::shared_ptr&lt; Vector2</text>
<text text-anchor="start" x="195" y="-254.5" font-family="Helvetica,sans-Serif" font-size="10.00"> &gt; size</text>
<text text-anchor="start" x="182" y="-239.5" font-family="Helvetica,sans-Serif" font-size="10.00">#</text>
<text text-anchor="start" x="195" y="-239.5" font-family="Helvetica,sans-Serif" font-size="10.00">std::shared_ptr&lt; SDL</text>
<text text-anchor="start" x="195" y="-228.5" font-family="Helvetica,sans-Serif" font-size="10.00">_Color &gt; color</text>
<text text-anchor="start" x="182" y="-213.5" font-family="Helvetica,sans-Serif" font-size="10.00">+</text>
<text text-anchor="start" x="195" y="-213.5" font-family="Helvetica,sans-Serif" font-size="10.00">RectangleRenderer</text>
<text text-anchor="start" x="195" y="-202.5" font-family="Helvetica,sans-Serif" font-size="10.00">(float width, float</text>
<text text-anchor="start" x="195" y="-191.5" font-family="Helvetica,sans-Serif" font-size="10.00"> height)</text>
<text text-anchor="start" x="182" y="-176.5" font-family="Helvetica,sans-Serif" font-size="10.00">+</text>
<text text-anchor="start" x="195" y="-176.5" font-family="Helvetica,sans-Serif" font-size="10.00">~RectangleRenderer()</text>
<text text-anchor="start" x="182" y="-161.5" font-family="Helvetica,sans-Serif" font-size="10.00">+</text>
<text text-anchor="start" x="195" y="-161.5" font-family="Helvetica,sans-Serif" font-size="10.00">void setColor(Uint8</text>
<text text-anchor="start" x="195" y="-150.5" font-family="Helvetica,sans-Serif" font-size="10.00"> r, Uint8 g, Uint8 b,</text>
<text text-anchor="start" x="195" y="-139.5" font-family="Helvetica,sans-Serif" font-size="10.00"> Uint8 a)</text>
<text text-anchor="start" x="182" y="-124.5" font-family="Helvetica,sans-Serif" font-size="10.00">+</text>
<text text-anchor="start" x="195" y="-124.5" font-family="Helvetica,sans-Serif" font-size="10.00">void setSize(std::shared</text>
<text text-anchor="start" x="195" y="-113.5" font-family="Helvetica,sans-Serif" font-size="10.00">_ptr&lt; Vector2 &gt; value)</text>
<text text-anchor="start" x="182" y="-98.5" font-family="Helvetica,sans-Serif" font-size="10.00">+</text>
<text text-anchor="start" x="195" y="-98.5" font-family="Helvetica,sans-Serif" font-size="10.00">std::shared_ptr&lt; Vector2</text>
<text text-anchor="start" x="195" y="-87.5" font-family="Helvetica,sans-Serif" font-size="10.00"> &gt; getSize() const</text>
<text text-anchor="start" x="182" y="-72.5" font-family="Helvetica,sans-Serif" font-size="10.00">+</text>
<text text-anchor="start" x="195" y="-72.5" font-family="Helvetica,sans-Serif" font-size="10.00">void OnTick() override</text>
<text text-anchor="start" x="182" y="-57.5" font-family="Helvetica,sans-Serif" font-size="10.00">+</text>
<text text-anchor="start" x="195" y="-57.5" font-family="Helvetica,sans-Serif" font-size="10.00">void OnStart() override</text>
<polygon fill="#666666" stroke="#666666" points="178,-301.5 178,-301.5 320,-301.5 320,-301.5 178,-301.5"/>
<polygon fill="#666666" stroke="#666666" points="178,-223.5 178,-223.5 193,-223.5 193,-223.5 178,-223.5"/>
<polygon fill="#666666" stroke="#666666" points="193,-223.5 193,-223.5 320,-223.5 320,-223.5 193,-223.5"/>
<polygon fill="none" stroke="#666666" points="178,-50.5 178,-318.5 320,-318.5 320,-50.5 178,-50.5"/>
</a>
</g>
</g>
<!-- Node1&#45;&gt;Node4 -->
<g id="edge3_Node000001_Node000004" class="edge">
<title>Node1&#45;&gt;Node4</title>
<g id="a_edge3_Node000001_Node000004"><a xlink:title=" ">
<path fill="none" stroke="#63b8ff" d="M249,-394.69C249,-372.46 249,-345.66 249,-318.77"/>
<polygon fill="none" stroke="#63b8ff" points="245.5,-394.9 249,-404.9 252.5,-394.9 245.5,-394.9"/>
</a>
</g>
</g>
<!-- Node5 -->
<g id="Node000005" class="node">
<title>Node5</title>
<g id="a_Node000005"><a xlink:href="../../d1/dff/classTextureRenderer.html" target="_top" xlink:title="A renderer for textures.">
<polygon fill="white" stroke="transparent" points="486,-294.5 338,-294.5 338,-74.5 486,-74.5 486,-294.5"/>
<text text-anchor="start" x="371.5" y="-282.5" font-family="Helvetica,sans-Serif" font-size="10.00">TextureRenderer</text>
<text text-anchor="start" x="342" y="-267.5" font-family="Helvetica,sans-Serif" font-size="10.00">#</text>
<text text-anchor="start" x="355" y="-267.5" font-family="Helvetica,sans-Serif" font-size="10.00">std::shared_ptr&lt; SDL</text>
<text text-anchor="start" x="355" y="-256.5" font-family="Helvetica,sans-Serif" font-size="10.00">_FRect &gt; renderable</text>
<text text-anchor="start" x="342" y="-241.5" font-family="Helvetica,sans-Serif" font-size="10.00">#</text>
<text text-anchor="start" x="355" y="-241.5" font-family="Helvetica,sans-Serif" font-size="10.00">SDL_Texture * texture</text>
<text text-anchor="start" x="342" y="-226.5" font-family="Helvetica,sans-Serif" font-size="10.00">#</text>
<text text-anchor="start" x="355" y="-226.5" font-family="Helvetica,sans-Serif" font-size="10.00">std::shared_ptr&lt; Vector2</text>
<text text-anchor="start" x="355" y="-215.5" font-family="Helvetica,sans-Serif" font-size="10.00"> &gt; size</text>
<text text-anchor="start" x="342" y="-200.5" font-family="Helvetica,sans-Serif" font-size="10.00">+</text>
<text text-anchor="start" x="355" y="-200.5" font-family="Helvetica,sans-Serif" font-size="10.00">TextureRenderer(float</text>
<text text-anchor="start" x="355" y="-189.5" font-family="Helvetica,sans-Serif" font-size="10.00"> width, float height,</text>
<text text-anchor="start" x="355" y="-178.5" font-family="Helvetica,sans-Serif" font-size="10.00"> std::string pathToTexture)</text>
<text text-anchor="start" x="342" y="-163.5" font-family="Helvetica,sans-Serif" font-size="10.00">+</text>
<text text-anchor="start" x="355" y="-163.5" font-family="Helvetica,sans-Serif" font-size="10.00">~TextureRenderer()</text>
<text text-anchor="start" x="342" y="-148.5" font-family="Helvetica,sans-Serif" font-size="10.00">+</text>
<text text-anchor="start" x="355" y="-148.5" font-family="Helvetica,sans-Serif" font-size="10.00">void setSize(std::shared</text>
<text text-anchor="start" x="355" y="-137.5" font-family="Helvetica,sans-Serif" font-size="10.00">_ptr&lt; Vector2 &gt; value)</text>
<text text-anchor="start" x="342" y="-122.5" font-family="Helvetica,sans-Serif" font-size="10.00">+</text>
<text text-anchor="start" x="355" y="-122.5" font-family="Helvetica,sans-Serif" font-size="10.00">std::shared_ptr&lt; Vector2</text>
<text text-anchor="start" x="355" y="-111.5" font-family="Helvetica,sans-Serif" font-size="10.00"> &gt; getSize() const</text>
<text text-anchor="start" x="342" y="-96.5" font-family="Helvetica,sans-Serif" font-size="10.00">+</text>
<text text-anchor="start" x="355" y="-96.5" font-family="Helvetica,sans-Serif" font-size="10.00">void OnTick() override</text>
<text text-anchor="start" x="342" y="-81.5" font-family="Helvetica,sans-Serif" font-size="10.00">+</text>
<text text-anchor="start" x="355" y="-81.5" font-family="Helvetica,sans-Serif" font-size="10.00">void OnStart() override</text>
<polygon fill="#666666" stroke="#666666" points="338,-277.5 338,-277.5 486,-277.5 486,-277.5 338,-277.5"/>
<polygon fill="#666666" stroke="#666666" points="338,-210.5 338,-210.5 353,-210.5 353,-210.5 338,-210.5"/>
<polygon fill="#666666" stroke="#666666" points="353,-210.5 353,-210.5 486,-210.5 486,-210.5 353,-210.5"/>
<polygon fill="none" stroke="#666666" points="338,-74.5 338,-294.5 486,-294.5 486,-74.5 338,-74.5"/>
</a>
</g>
</g>
<!-- Node1&#45;&gt;Node5 -->
<g id="edge4_Node000001_Node000005" class="edge">
<title>Node1&#45;&gt;Node5</title>
<g id="a_edge4_Node000001_Node000005"><a xlink:title=" ">
<path fill="none" stroke="#63b8ff" d="M306.02,-397.24C314.3,-388.29 322.28,-378.72 329,-369 344.71,-346.28 358.63,-320.11 370.37,-294.78"/>
<polygon fill="none" stroke="#63b8ff" points="303.38,-394.94 299.02,-404.6 308.45,-399.77 303.38,-394.94"/>
</a>
</g>
</g>
<!-- Node2 -->
<g id="Node000002" class="node">
<title>Node2</title>
<g id="a_Node000002"><a xlink:href="../../d9/df7/classGameObjectComponent.html" target="_top" xlink:title="An abstract gameobject component. Has an OnTick and OnStart method. Subclasses may be registered to a...">
<polygon fill="white" stroke="transparent" points="343.5,-692 154.5,-692 154.5,-531 343.5,-531 343.5,-692"/>
<text text-anchor="start" x="190.5" y="-679.5" font-family="Helvetica,sans-Serif" font-size="10.00">GameObjectComponent</text>
<text text-anchor="start" x="159" y="-664.5" font-family="Helvetica,sans-Serif" font-size="10.00">#</text>
<text text-anchor="start" x="172" y="-664.5" font-family="Helvetica,sans-Serif" font-size="10.00">bool enabled</text>
<text text-anchor="start" x="159" y="-649.5" font-family="Helvetica,sans-Serif" font-size="10.00">#</text>
<text text-anchor="start" x="172" y="-649.5" font-family="Helvetica,sans-Serif" font-size="10.00">GameObject * parent</text>
<text text-anchor="start" x="159" y="-634.5" font-family="Helvetica,sans-Serif" font-size="10.00">+</text>
<text text-anchor="start" x="172" y="-634.5" font-family="Helvetica,sans-Serif" font-size="10.00">bool getEnabled() const</text>
<text text-anchor="start" x="159" y="-619.5" font-family="Helvetica,sans-Serif" font-size="10.00">+</text>
<text text-anchor="start" x="172" y="-619.5" font-family="Helvetica,sans-Serif" font-size="10.00">void setEnabled(bool</text>
<text text-anchor="start" x="172" y="-608.5" font-family="Helvetica,sans-Serif" font-size="10.00"> value)</text>
<text text-anchor="start" x="159" y="-593.5" font-family="Helvetica,sans-Serif" font-size="10.00">+</text>
<text text-anchor="start" x="172" y="-593.5" font-family="Helvetica,sans-Serif" font-size="10.00">void setParent(GameObject</text>
<text text-anchor="start" x="172" y="-582.5" font-family="Helvetica,sans-Serif" font-size="10.00"> *value)</text>
<text text-anchor="start" x="159" y="-567.5" font-family="Helvetica,sans-Serif" font-size="10.00">+</text>
<text text-anchor="start" x="172" y="-567.5" font-family="Helvetica,sans-Serif" font-size="10.00">virtual ~GameObjectComponent()</text>
<text text-anchor="start" x="159" y="-552.5" font-family="Helvetica,sans-Serif" font-size="10.00">+</text>
<text text-anchor="start" x="172" y="-552.5" font-family="Helvetica,sans-Serif" font-size="10.00">virtual void OnTick()=0</text>
<text text-anchor="start" x="159" y="-537.5" font-family="Helvetica,sans-Serif" font-size="10.00">+</text>
<text text-anchor="start" x="172" y="-537.5" font-family="Helvetica,sans-Serif" font-size="10.00">virtual void OnStart()=0</text>
<polygon fill="#666666" stroke="#666666" points="155,-674.5 155,-674.5 344,-674.5 344,-674.5 155,-674.5"/>
<polygon fill="#666666" stroke="#666666" points="155,-644.5 155,-644.5 170,-644.5 170,-644.5 155,-644.5"/>
<polygon fill="#666666" stroke="#666666" points="170,-644.5 170,-644.5 344,-644.5 344,-644.5 170,-644.5"/>
<polygon fill="none" stroke="#666666" points="154.5,-531 154.5,-692 343.5,-692 343.5,-531 154.5,-531"/>
</a>
</g>
</g>
<!-- Node2&#45;&gt;Node1 -->
<g id="edge1_Node000001_Node000002" class="edge">
<title>Node2&#45;&gt;Node1</title>
<g id="a_edge1_Node000001_Node000002"><a xlink:title=" ">
<path fill="none" stroke="#63b8ff" d="M249,-520.68C249,-511.8 249,-503.1 249,-495.01"/>
<polygon fill="none" stroke="#63b8ff" points="245.5,-520.75 249,-530.75 252.5,-520.75 245.5,-520.75"/>
</a>
</g>
</g>
</g>
</svg>

<g id="navigator" transform="translate(0 0)" fill="#404254">
  <rect fill="#f2f5e9" fill-opacity="0.5" stroke="#606060" stroke-width=".5" x="0" y="0" width="60" height="60"/>
  <use id="zoomplus" xlink:href="#zoomPlus" x="17" y="9" onmousedown="handleZoom(evt,'in')"/>
  <use id="zoomminus" xlink:href="#zoomMin" x="42" y="9" onmousedown="handleZoom(evt,'out')"/>
  <use id="reset" xlink:href="#resetDef" x="30" y="36" onmousedown="handleReset()"/>
   <use id="arrowup" xlink:href="#arrowUp" x="0" y="0" onmousedown="handlePan(0,-1)"/>
  <use id="arrowright" xlink:href="#arrowRight" x="0" y="0" onmousedown="handlePan(1,0)"/>
  <use id="arrowdown" xlink:href="#arrowDown" x="0" y="0" onmousedown="handlePan(0,1)"/>
  <use id="arrowleft" xlink:href="#arrowLeft" x="0" y="0" onmousedown="handlePan(-1,0)"/>
</g>
<svg viewBox="0 0 15 15" width="100%" height="30px" preserveAspectRatio="xMaxYMin meet">
 <g id="arrow_out" transform="scale(0.3 0.3)">
  <a xlink:href="classRenderer__inherit__graph_org.svg" target="_base">
   <rect id="button" ry="5" rx="5" y="6" x="6" height="38" width="38"
        fill="#f2f5e9" fill-opacity="0.5" stroke="#606060" stroke-width="1.0"/>
   <path id="arrow"
     d="M 11.500037,31.436501 C 11.940474,20.09759 22.043105,11.32322 32.158766,21.979434 L 37.068811,17.246167 C 37.068811,17.246167 37.088388,32 37.088388,32 L 22.160133,31.978069 C 22.160133,31.978069 26.997745,27.140456 26.997745,27.140456 C 18.528582,18.264221 13.291696,25.230495 11.500037,31.436501 z"
     style="fill:#404040;"/>
  </a>
 </g>
</svg>

<style type='text/css'>
<![CDATA[
[data-mouse-over-selected='false'] { opacity: 0.7; }
[data-mouse-over-selected='true']  { opacity: 1.0; }
]]>
</style>
<script type="application/ecmascript"><![CDATA[
document.addEventListener('DOMContentLoaded', (event) => {
  highlightEdges();
  highlightAdjacentNodes();
});
]]></script>
</svg>
