<?xml version="1.0" encoding="UTF-8" standalone="no"?>
<!DOCTYPE svg PUBLIC "-//W3C//DTD SVG 1.1//EN"
 "http://www.w3.org/Graphics/SVG/1.1/DTD/svg11.dtd">
<!-- Generated by graphviz version 2.43.0 (0)
 -->
<!-- Title: SpawnPlayer Pages: 1 -->
<!--zoomable 65 -->
<svg id="main" version="1.1" xmlns="http://www.w3.org/2000/svg" xmlns:xlink="http://www.w3.org/1999/xlink" xml:space="preserve" onload="init(evt)">
<style type="text/css"><![CDATA[
.edge:hover path { stroke: red; }
.edge:hover polygon { stroke: red; fill: red; }
]]></style>
<script type="text/javascript"><![CDATA[
var edges = document.getElementsByTagName('g');
if (edges && edges.length) {
  for (var i=0;i<edges.length;i++) {
    if (edges[i].id.substr(0,4)=='edge') {
      edges[i].setAttribute('class','edge');
    }
  }
}
]]></script>
        <defs>
                <circle id="rim" cx="0" cy="0" r="7"/>
                <circle id="rim2" cx="0" cy="0" r="3.5"/>
                <g id="zoomPlus">
                        <use xlink:href="#rim" fill="#404040">
                                <set attributeName="fill" to="#808080" begin="zoomplus.mouseover" end="zoomplus.mouseout"/>
                        </use>
                        <path d="M-4,0h8M0,-4v8" fill="none" stroke="white" stroke-width="1.5" pointer-events="none"/>
                </g>
                <g id="zoomMin">
                        <use xlink:href="#rim" fill="#404040">
                                <set attributeName="fill" to="#808080" begin="zoomminus.mouseover" end="zoomminus.mouseout"/>
                        </use>
                        <path d="M-4,0h8" fill="none" stroke="white" stroke-width="1.5" pointer-events="none"/>
                </g>
                <g id="dirArrow">
                        <path fill="none" stroke="white" stroke-width="1.5" d="M0,-3.0v7 M-2.5,-0.5L0,-3.0L2.5,-0.5"/>
                </g>
               <g id="resetDef">
                       <use xlink:href="#rim2" fill="#404040">
                               <set attributeName="fill" to="#808080" begin="reset.mouseover" end="reset.mouseout"/>
                       </use>
               </g>
        </defs>

<script type="text/javascript">
var viewWidth = 1104;
var viewHeight = 65;
var sectionId = 'dynsection-16';
</script>
<script xlink:href="../../svgpan.js"/>
<svg id="graph" class="graph">
<g id="viewport">
<title>SpawnPlayer</title>
<!-- Node1 -->
<g id="node1" class="node">
<title>Node1</title>
<g id="a_node1"><a xlink:title="Create the player and register it.">
<polygon fill="#999999" stroke="#666666" points="1096,-38 1016,-38 1016,-19 1096,-19 1096,-38"/>
<text text-anchor="middle" x="1056" y="-26" font-family="Helvetica,sans-Serif" font-size="10.00">SpawnPlayer</text>
</a>
</g>
</g>
<!-- Node2 -->
<g id="node2" class="node">
<title>Node2</title>
<g id="a_node2"><a xlink:href="../../d9/dfa/Init_8cpp.html#aaa64e8fd06230fa14e507cef71a3217d" target="_top" xlink:title="Create the initial gameobjects required for the game.">
<polygon fill="white" stroke="#666666" points="980,-38 837,-38 837,-19 980,-19 980,-38"/>
<text text-anchor="middle" x="908.5" y="-26" font-family="Helvetica,sans-Serif" font-size="10.00">CreateInitialGameObjects</text>
</a>
</g>
</g>
<!-- Node1&#45;&gt;Node2 -->
<g id="edge1" class="edge">
<title>Node1&#45;&gt;Node2</title>
<path fill="none" stroke="#63b8ff" d="M1005.5,-28.5C997.29,-28.5 988.63,-28.5 980.02,-28.5"/>
<polygon fill="#63b8ff" stroke="#63b8ff" points="1005.63,-32 1015.63,-28.5 1005.63,-25 1005.63,-32"/>
</g>
<!-- Node3 -->
<g id="node3" class="node">
<title>Node3</title>
<g id="a_node3"><a xlink:href="../../d1/d99/Lifecycle_8cpp.html#af0000b43ed614b94179e358d523c9245" target="_top" xlink:title="Initialize the game to the default state.">
<polygon fill="white" stroke="#666666" points="673,-57 585,-57 585,-38 673,-38 673,-57"/>
<text text-anchor="middle" x="629" y="-45" font-family="Helvetica,sans-Serif" font-size="10.00">InitializeGame</text>
</a>
</g>
</g>
<!-- Node2&#45;&gt;Node3 -->
<g id="edge2" class="edge">
<title>Node2&#45;&gt;Node3</title>
<path fill="none" stroke="#63b8ff" d="M826.59,-34.04C776.52,-37.47 714.21,-41.73 673.33,-44.53"/>
<polygon fill="#63b8ff" stroke="#63b8ff" points="827.02,-37.52 836.76,-33.34 826.54,-30.54 827.02,-37.52"/>
</g>
<!-- Node5 -->
<g id="node5" class="node">
<title>Node5</title>
<g id="a_node5"><a xlink:href="../../d1/d99/Lifecycle_8cpp.html#a7be4f604c1baeb7cac84122a7f2438cf" target="_top" xlink:title="Reset the game to the initial state.">
<polygon fill="white" stroke="#666666" points="801,-19 727,-19 727,0 801,0 801,-19"/>
<text text-anchor="middle" x="764" y="-7" font-family="Helvetica,sans-Serif" font-size="10.00">ResetGame</text>
</a>
</g>
</g>
<!-- Node2&#45;&gt;Node5 -->
<g id="edge4" class="edge">
<title>Node2&#45;&gt;Node5</title>
<path fill="none" stroke="#63b8ff" d="M826.61,-17.71C817.75,-16.53 809.09,-15.38 801.2,-14.33"/>
<polygon fill="#63b8ff" stroke="#63b8ff" points="826.29,-21.2 836.67,-19.06 827.22,-14.26 826.29,-21.2"/>
</g>
<!-- Node4 -->
<g id="node4" class="node">
<title>Node4</title>
<g id="a_node4"><a xlink:href="../../df/d0a/main_8cpp.html#ae66f6b31b5ad750f1fe042a706a4e3d4" target="_top" xlink:title="Entry point of the program.">
<polygon fill="white" stroke="#666666" points="41,-38 0,-38 0,-19 41,-19 41,-38"/>
<text text-anchor="middle" x="20.5" y="-26" font-family="Helvetica,sans-Serif" font-size="10.00">main</text>
</a>
</g>
</g>
<!-- Node3&#45;&gt;Node4 -->
<g id="edge3" class="edge">
<title>Node3&#45;&gt;Node4</title>
<path fill="none" stroke="#63b8ff" d="M574.69,-47.5C511.26,-47.5 402.16,-47.5 308.5,-47.5 308.5,-47.5 308.5,-47.5 203,-47.5 143.75,-47.5 74.22,-37.36 41.04,-31.9"/>
<polygon fill="#63b8ff" stroke="#63b8ff" points="574.85,-51 584.85,-47.5 574.85,-44 574.85,-51"/>
</g>
<!-- Node6 -->
<g id="node6" class="node">
<title>Node6</title>
<g id="a_node6"><a xlink:href="../../de/dfd/GameManagement_8cpp.html#a2877bc3a946eb46940e5cdedcaf4e3f6" target="_top" xlink:title=" ">
<polygon fill="white" stroke="#666666" points="691,-19 567,-19 567,0 691,0 691,-19"/>
<text text-anchor="middle" x="629" y="-7" font-family="Helvetica,sans-Serif" font-size="10.00">ResetGameIfRequired</text>
</a>
</g>
</g>
<!-- Node5&#45;&gt;Node6 -->
<g id="edge5" class="edge">
<title>Node5&#45;&gt;Node6</title>
<path fill="none" stroke="#63b8ff" d="M716.54,-9.5C708.32,-9.5 699.66,-9.5 691.11,-9.5"/>
<polygon fill="#63b8ff" stroke="#63b8ff" points="716.66,-13 726.66,-9.5 716.66,-6 716.66,-13"/>
</g>
<!-- Node7 -->
<g id="node7" class="node">
<title>Node7</title>
<g id="a_node7"><a xlink:href="../../de/dfd/GameManagement_8cpp.html#a95ff1ee6a57e678376b2eae2ef499ab3" target="_top" xlink:title=" ">
<polygon fill="white" stroke="#666666" points="531,-19 388,-19 388,0 531,0 531,-19"/>
<text text-anchor="middle" x="459.5" y="-7" font-family="Helvetica,sans-Serif" font-size="10.00">WorkThroughFrameQueue</text>
</a>
</g>
</g>
<!-- Node6&#45;&gt;Node7 -->
<g id="edge6" class="edge">
<title>Node6&#45;&gt;Node7</title>
<path fill="none" stroke="#63b8ff" d="M556.49,-9.5C548.14,-9.5 539.61,-9.5 531.27,-9.5"/>
<polygon fill="#63b8ff" stroke="#63b8ff" points="556.58,-13 566.58,-9.5 556.58,-6 556.58,-13"/>
</g>
<!-- Node8 -->
<g id="node8" class="node">
<title>Node8</title>
<g id="a_node8"><a xlink:href="../../de/dfd/GameManagement_8cpp.html#a522912d67446895b0a03d01837b75a99" target="_top" xlink:title="Iterate over all objects, and update the appropriately, using OnTick() or Component specific methods.">
<polygon fill="white" stroke="#666666" points="352,-19 263,-19 263,0 352,0 352,-19"/>
<text text-anchor="middle" x="307.5" y="-7" font-family="Helvetica,sans-Serif" font-size="10.00">UpdateObjects</text>
</a>
</g>
</g>
<!-- Node7&#45;&gt;Node8 -->
<g id="edge7" class="edge">
<title>Node7&#45;&gt;Node8</title>
<path fill="none" stroke="#63b8ff" d="M377.63,-9.5C368.9,-9.5 360.28,-9.5 352.24,-9.5"/>
<polygon fill="#63b8ff" stroke="#63b8ff" points="377.89,-13 387.89,-9.5 377.89,-6 377.89,-13"/>
</g>
<!-- Node9 -->
<g id="node9" class="node">
<title>Node9</title>
<g id="a_node9"><a xlink:href="../../df/d0a/main_8cpp.html#ae8fa368bbea5177612cd2cf333448c66" target="_top" xlink:title="Executed every frame.">
<polygon fill="white" stroke="#666666" points="227,-19 181,-19 181,0 227,0 227,-19"/>
<text text-anchor="middle" x="204" y="-7" font-family="Helvetica,sans-Serif" font-size="10.00">frame</text>
</a>
</g>
</g>
<!-- Node8&#45;&gt;Node9 -->
<g id="edge8" class="edge">
<title>Node8&#45;&gt;Node9</title>
<path fill="none" stroke="#63b8ff" d="M252.66,-9.5C243.62,-9.5 234.71,-9.5 227.08,-9.5"/>
<polygon fill="#63b8ff" stroke="#63b8ff" points="252.87,-13 262.87,-9.5 252.87,-6 252.87,-13"/>
</g>
<!-- Node10 -->
<g id="node10" class="node">
<title>Node10</title>
<g id="a_node10"><a xlink:href="../../df/d0a/main_8cpp.html#abfbee20b241e7d5bbbef9ab36fb201a4" target="_top" xlink:title="The main game loop, runs until an exit event is sensed, and QuitGame is set to true.">
<polygon fill="white" stroke="#666666" points="145,-19 77,-19 77,0 145,0 145,-19"/>
<text text-anchor="middle" x="111" y="-7" font-family="Helvetica,sans-Serif" font-size="10.00">gameLoop</text>
</a>
</g>
</g>
<!-- Node9&#45;&gt;Node10 -->
<g id="edge9" class="edge">
<title>Node9&#45;&gt;Node10</title>
<path fill="none" stroke="#63b8ff" d="M170.87,-9.5C162.55,-9.5 153.58,-9.5 145.2,-9.5"/>
<polygon fill="#63b8ff" stroke="#63b8ff" points="170.97,-13 180.97,-9.5 170.97,-6 170.97,-13"/>
</g>
<!-- Node10&#45;&gt;Node4 -->
<g id="edge10" class="edge">
<title>Node10&#45;&gt;Node4</title>
<path fill="none" stroke="#63b8ff" d="M66.8,-18.78C57.85,-20.7 48.85,-22.63 41.25,-24.26"/>
<polygon fill="#63b8ff" stroke="#63b8ff" points="67.75,-22.15 76.79,-16.63 66.28,-15.31 67.75,-22.15"/>
</g>
</g>
</svg>
        <g id="navigator" transform="translate(0 0)" fill="#404254">
                <rect fill="#f2f5e9" fill-opacity="0.5" stroke="#606060" stroke-width=".5" x="0" y="0" width="60" height="60"/>
                <use id="zoomplus" xlink:href="#zoomPlus" x="17" y="9" onmousedown="handleZoom(evt,'in')"/>
                <use id="zoomminus" xlink:href="#zoomMin" x="42" y="9" onmousedown="handleZoom(evt,'out')"/>
                <use id="reset" xlink:href="#resetDef" x="30" y="36" onmousedown="handleReset()"/>
                <g id="arrowUp" xlink:href="#dirArrow" transform="translate(30 24)" onmousedown="handlePan(0,-1)">
                  <use xlink:href="#rim" fill="#404040">
                        <set attributeName="fill" to="#808080" begin="arrowUp.mouseover" end="arrowUp.mouseout"/>
                  </use>
                  <path fill="none" stroke="white" stroke-width="1.5" d="M0,-3.0v7 M-2.5,-0.5L0,-3.0L2.5,-0.5"/>
                </g>
                <g id="arrowRight" xlink:href="#dirArrow" transform="rotate(90) translate(36 -43)" onmousedown="handlePan(1,0)">
                  <use xlink:href="#rim" fill="#404040">
                        <set attributeName="fill" to="#808080" begin="arrowRight.mouseover" end="arrowRight.mouseout"/>
                  </use>
                  <path fill="none" stroke="white" stroke-width="1.5" d="M0,-3.0v7 M-2.5,-0.5L0,-3.0L2.5,-0.5"/>
                </g>
                <g id="arrowDown" xlink:href="#dirArrow" transform="rotate(180) translate(-30 -48)" onmousedown="handlePan(0,1)">
                  <use xlink:href="#rim" fill="#404040">
                        <set attributeName="fill" to="#808080" begin="arrowDown.mouseover" end="arrowDown.mouseout"/>
                  </use>
                  <path fill="none" stroke="white" stroke-width="1.5" d="M0,-3.0v7 M-2.5,-0.5L0,-3.0L2.5,-0.5"/>
                </g>
                <g id="arrowLeft" xlink:href="#dirArrow" transform="rotate(270) translate(-36 17)" onmousedown="handlePan(-1,0)">
                  <use xlink:href="#rim" fill="#404040">
                        <set attributeName="fill" to="#808080" begin="arrowLeft.mouseover" end="arrowLeft.mouseout"/>
                  </use>
                  <path fill="none" stroke="white" stroke-width="1.5" d="M0,-3.0v7 M-2.5,-0.5L0,-3.0L2.5,-0.5"/>
                </g>
        </g>
        <svg viewBox="0 0 15 15" width="100%" height="30px" preserveAspectRatio="xMaxYMin meet">
         <g id="arrow_out" transform="scale(0.3 0.3)">
          <a xlink:href="Init_8cpp_aa021dfea28868af5fdc6eb97fdf11395_icgraph_org.svg" target="_base">
           <rect id="button" ry="5" rx="5" y="6" x="6" height="38" width="38"
                fill="#f2f5e9" fill-opacity="0.5" stroke="#606060" stroke-width="1.0"/>
           <path id="arrow"
             d="M 11.500037,31.436501 C 11.940474,20.09759 22.043105,11.32322 32.158766,21.979434 L 37.068811,17.246167 C 37.068811,17.246167 37.088388,32 37.088388,32 L 22.160133,31.978069 C 22.160133,31.978069 26.997745,27.140456 26.997745,27.140456 C 18.528582,18.264221 13.291696,25.230495 11.500037,31.436501 z"
             style="fill:#404040;"/>
          </a>
         </g>
        </svg>
</svg>
