<?xml version="1.0" encoding="UTF-8" standalone="no"?>
<!DOCTYPE svg PUBLIC "-//W3C//DTD SVG 1.1//EN"
 "http://www.w3.org/Graphics/SVG/1.1/DTD/svg11.dtd">
<!-- Generated by graphviz version 2.43.0 (0)
 -->
<!-- Title: CreateInitialGameObjects Pages: 1 -->
<!--zoomable 325 -->

<svg id="main" version="1.1" xmlns="http://www.w3.org/2000/svg" xmlns:xlink="http://www.w3.org/1999/xlink" xml:space="preserve" onload="init(evt)">

<style type="text/css"><![CDATA[
.node, .edge {opacity: 0.7;}
.node.selected, .edge.selected {opacity: 1;}
.edge:hover path { stroke: red; }
.edge:hover polygon { stroke: red; fill: red; }
]]></style>

<defs>
  <circle id="rim" cx="0" cy="0" r="7"/>
  <circle id="rim2" cx="0" cy="0" r="3.5"/>
  <g id="zoomPlus">
    <use xlink:href="#rim" fill="#404040"><set attributeName="fill" to="#808080" begin="zoomplus.mouseover" end="zoomplus.mouseout"/></use>
    <path d="M-4,0h8M0,-4v8" fill="none" stroke="white" stroke-width="1.5" pointer-events="none"/>
  </g>
  <g id="zoomMin">
    <use xlink:href="#rim" fill="#404040"><set attributeName="fill" to="#808080" begin="zoomminus.mouseover" end="zoomminus.mouseout"/></use>
    <path d="M-4,0h8" fill="none" stroke="white" stroke-width="1.5" pointer-events="none"/>
  </g>
  <g id="arrowUp" transform="translate(30 24)">
    <use xlink:href="#rim"/>
    <path pointer-events="none" fill="none" stroke="white" stroke-width="1.5" d="M0,-3.0v7 M-2.5,-0.5L0,-3.0L2.5,-0.5"/>
  </g>
  <g id="arrowRight" transform="rotate(90) translate(36 -43)">
    <use xlink:href="#rim"/>
    <path pointer-events="none" fill="none" stroke="white" stroke-width="1.5" d="M0,-3.0v7 M-2.5,-0.5L0,-3.0L2.5,-0.5"/>
  </g>
  <g id="arrowDown" transform="rotate(180) translate(-30 -48)">
    <use xlink:href="#rim"/>
    <path pointer-events="none" fill="none" stroke="white" stroke-width="1.5" d="M0,-3.0v7 M-2.5,-0.5L0,-3.0L2.5,-0.5"/>
  </g>
  <g id="arrowLeft" transform="rotate(270) translate(-36 17)">
    <use xlink:href="#rim"/>
    <path pointer-events="none" fill="none" stroke="white" stroke-width="1.5" d="M0,-3.0v7 M-2.5,-0.5L0,-3.0L2.5,-0.5"/>
  </g>
  <g id="resetDef">
    <use xlink:href="#rim2" fill="#404040"><set attributeName="fill" to="#808080" begin="reset.mouseover" end="reset.mouseout"/></use>
  </g>
</defs>
<script type="application/ecmascript">
var viewWidth = 523;
var viewHeight = 325;
var sectionId = 'dynsection-8';
</script>
<script type="application/ecmascript" xlink:href="../../svg.min.js"/>
<svg id="graph" class="graph">
<g id="viewport">
<title>CreateInitialGameObjects</title>
<!-- Node1 -->
<g id="Node000001" class="node">
<title>Node1</title>
<g id="a_Node000001"><a xlink:title="Create the initial gameobjects required for the game.">
<polygon fill="#999999" stroke="#666666" points="143,-167 0,-167 0,-148 143,-148 143,-167"/>
<text text-anchor="middle" x="71.5" y="-155" font-family="Helvetica,sans-Serif" font-size="10.00">CreateInitialGameObjects</text>
</a>
</g>
</g>
<!-- Node2 -->
<g id="Node000002" class="node">
<title>Node2</title>
<g id="a_Node000002"><a xlink:href="../../d9/dfa/Init_8cpp.html#a3ff595c2af791c369e2318510062ce14" target="_top" xlink:title="Create the coffee meter bar.">
<polygon fill="white" stroke="#666666" points="303.5,-317 194.5,-317 194.5,-298 303.5,-298 303.5,-317"/>
<text text-anchor="middle" x="249" y="-305" font-family="Helvetica,sans-Serif" font-size="10.00">CreateCoffeeMeter</text>
</a>
</g>
</g>
<!-- Node1&#45;&gt;Node2 -->
<g id="edge1_Node000001_Node000002" class="edge">
<title>Node1&#45;&gt;Node2</title>
<g id="a_edge1_Node000001_Node000002"><a xlink:title=" ">
<path fill="none" stroke="#63b8ff" d="M78.14,-167.23C92.19,-190.64 131.07,-250.58 179,-283.5 185.18,-287.75 192.19,-291.31 199.31,-294.28"/>
<polygon fill="#63b8ff" stroke="#63b8ff" points="198.43,-297.69 209.02,-297.98 200.92,-291.15 198.43,-297.69"/>
</a>
</g>
</g>
<!-- Node3 -->
<g id="Node000003" class="node">
<title>Node3</title>
<g id="a_Node000003"><a xlink:href="../../d2/d41/ObjectManagement_8cpp.html#a9f8d0a459a7758c8b2d0b72cdd8adad0" target="_top" xlink:title="Enqueue an object to be registered on the next frame.">
<polygon fill="white" stroke="#666666" points="515,-185 355,-185 355,-166 515,-166 515,-185"/>
<text text-anchor="middle" x="435" y="-173" font-family="Helvetica,sans-Serif" font-size="10.00">EnqueueRegisterGameObject</text>
</a>
</g>
</g>
<!-- Node1&#45;&gt;Node3 -->
<g id="edge9_Node000001_Node000003" class="edge">
<title>Node1&#45;&gt;Node3</title>
<g id="a_edge9_Node000001_Node000003"><a xlink:title=" ">
<path fill="none" stroke="#63b8ff" d="M79.42,-167.03C94.67,-187.13 133.49,-233.43 179,-250.5 237.26,-272.36 259.36,-268.23 319,-250.5 357.53,-239.05 395.19,-210.14 416.42,-191.75"/>
<polygon fill="#63b8ff" stroke="#63b8ff" points="418.81,-194.3 423.96,-185.04 414.16,-189.07 418.81,-194.3"/>
</a>
</g>
</g>
<!-- Node4 -->
<g id="Node000004" class="node">
<title>Node4</title>
<g id="a_Node000004"><a xlink:href="../../d9/dfa/Init_8cpp.html#a1bfb628b6cd503e396bae0796f2051c1" target="_top" xlink:title="Create the icon next to the coffee meter.">
<polygon fill="white" stroke="#666666" points="313.5,-241 184.5,-241 184.5,-222 313.5,-222 313.5,-241"/>
<text text-anchor="middle" x="249" y="-229" font-family="Helvetica,sans-Serif" font-size="10.00">CreateCoffeeMeterIcon</text>
</a>
</g>
</g>
<!-- Node1&#45;&gt;Node4 -->
<g id="edge3_Node000001_Node000004" class="edge">
<title>Node1&#45;&gt;Node4</title>
<g id="a_edge3_Node000001_Node000004"><a xlink:title=" ">
<path fill="none" stroke="#63b8ff" d="M87.85,-167.01C108.09,-179.22 145.11,-200.37 179,-213.5 184.19,-215.51 189.7,-217.37 195.23,-219.07"/>
<polygon fill="#63b8ff" stroke="#63b8ff" points="194.61,-222.54 205.19,-221.96 196.56,-215.81 194.61,-222.54"/>
</a>
</g>
</g>
<!-- Node5 -->
<g id="Node000005" class="node">
<title>Node5</title>
<g id="a_Node000005"><a xlink:href="../../d9/dfa/Init_8cpp.html#a7577908172d93807ef67f163f851fe5e" target="_top" xlink:title="Create the floor and register it.">
<polygon fill="white" stroke="#666666" points="286,-204 212,-204 212,-185 286,-185 286,-204"/>
<text text-anchor="middle" x="249" y="-192" font-family="Helvetica,sans-Serif" font-size="10.00">CreateFloor</text>
</a>
</g>
</g>
<!-- Node1&#45;&gt;Node5 -->
<g id="edge5_Node000001_Node000005" class="edge">
<title>Node1&#45;&gt;Node5</title>
<g id="a_edge5_Node000001_Node000005"><a xlink:title=" ">
<path fill="none" stroke="#63b8ff" d="M117.7,-167.03C143.52,-172.47 175.83,-179.28 201.81,-184.76"/>
<polygon fill="#63b8ff" stroke="#63b8ff" points="201.29,-188.23 211.8,-186.87 202.73,-181.38 201.29,-188.23"/>
</a>
</g>
</g>
<!-- Node6 -->
<g id="Node000006" class="node">
<title>Node6</title>
<g id="a_Node000006"><a xlink:href="../../d9/dfa/Init_8cpp.html#a8ad8206fa2846739c5e76ce97b6b2783" target="_top" xlink:title="Create the score counter and register it.">
<polygon fill="white" stroke="#666666" points="306,-167 192,-167 192,-148 306,-148 306,-167"/>
<text text-anchor="middle" x="249" y="-155" font-family="Helvetica,sans-Serif" font-size="10.00">CreateScoreCounter</text>
</a>
</g>
</g>
<!-- Node1&#45;&gt;Node6 -->
<g id="edge7_Node000001_Node000006" class="edge">
<title>Node1&#45;&gt;Node6</title>
<g id="a_edge7_Node000001_Node000006"><a xlink:title=" ">
<path fill="none" stroke="#63b8ff" d="M143.12,-157.5C155.77,-157.5 168.92,-157.5 181.45,-157.5"/>
<polygon fill="#63b8ff" stroke="#63b8ff" points="181.81,-161 191.81,-157.5 181.81,-154 181.81,-161"/>
</a>
</g>
</g>
<!-- Node7 -->
<g id="Node000007" class="node">
<title>Node7</title>
<g id="a_Node000007"><a xlink:href="../../d9/dfa/Init_8cpp.html#ac07b948048071cbf70f69aa9d691a93f" target="_top" xlink:title="Set the window background to white.">
<polygon fill="white" stroke="#666666" points="319,-130 179,-130 179,-111 319,-111 319,-130"/>
<text text-anchor="middle" x="249" y="-118" font-family="Helvetica,sans-Serif" font-size="10.00">SetupWindowbackground</text>
</a>
</g>
</g>
<!-- Node1&#45;&gt;Node7 -->
<g id="edge10_Node000001_Node000007" class="edge">
<title>Node1&#45;&gt;Node7</title>
<g id="a_edge10_Node000001_Node000007"><a xlink:title=" ">
<path fill="none" stroke="#63b8ff" d="M117.7,-147.97C140.53,-143.16 168.45,-137.27 192.57,-132.19"/>
<polygon fill="#63b8ff" stroke="#63b8ff" points="193.59,-135.55 202.65,-130.06 192.15,-128.7 193.59,-135.55"/>
</a>
</g>
</g>
<!-- Node8 -->
<g id="Node000008" class="node">
<title>Node8</title>
<g id="a_Node000008"><a xlink:href="../../d9/dfa/Init_8cpp.html#a374cb6f303f72b5af970063ff1318f24" target="_top" xlink:title="Create the left wall and register it.">
<polygon fill="white" stroke="#666666" points="293,-93 205,-93 205,-74 293,-74 293,-93"/>
<text text-anchor="middle" x="249" y="-81" font-family="Helvetica,sans-Serif" font-size="10.00">SpawnLeftWall</text>
</a>
</g>
</g>
<!-- Node1&#45;&gt;Node8 -->
<g id="edge11_Node000001_Node000008" class="edge">
<title>Node1&#45;&gt;Node8</title>
<g id="a_edge11_Node000001_Node000008"><a xlink:title=" ">
<path fill="none" stroke="#63b8ff" d="M88.61,-147.83C109.05,-135.88 145.66,-115.53 179,-102.5 185,-100.15 191.4,-97.98 197.79,-96"/>
<polygon fill="#63b8ff" stroke="#63b8ff" points="199.16,-99.25 207.77,-93.06 197.19,-92.53 199.16,-99.25"/>
</a>
</g>
</g>
<!-- Node9 -->
<g id="Node000009" class="node">
<title>Node9</title>
<g id="a_Node000009"><a xlink:href="../../d9/dfa/Init_8cpp.html#aa021dfea28868af5fdc6eb97fdf11395" target="_top" xlink:title="Create the player and register it.">
<polygon fill="white" stroke="#666666" points="289,-56 209,-56 209,-37 289,-37 289,-56"/>
<text text-anchor="middle" x="249" y="-44" font-family="Helvetica,sans-Serif" font-size="10.00">SpawnPlayer</text>
</a>
</g>
</g>
<!-- Node1&#45;&gt;Node9 -->
<g id="edge13_Node000001_Node000009" class="edge">
<title>Node1&#45;&gt;Node9</title>
<g id="a_edge13_Node000001_Node000009"><a xlink:title=" ">
<path fill="none" stroke="#63b8ff" d="M80.86,-147.85C97.59,-129.15 137.19,-87.83 179,-65.5 185.19,-62.2 192,-59.43 198.86,-57.11"/>
<polygon fill="#63b8ff" stroke="#63b8ff" points="200.34,-60.32 208.88,-54.05 198.29,-53.63 200.34,-60.32"/>
</a>
</g>
</g>
<!-- Node10 -->
<g id="Node000010" class="node">
<title>Node10</title>
<g id="a_Node000010"><a xlink:href="../../d9/dfa/Init_8cpp.html#a0e2d0321a787eb9a3b705489c8f2b86b" target="_top" xlink:title="Create the right wall and register it.">
<polygon fill="white" stroke="#666666" points="296.5,-19 201.5,-19 201.5,0 296.5,0 296.5,-19"/>
<text text-anchor="middle" x="249" y="-7" font-family="Helvetica,sans-Serif" font-size="10.00">SpawnRightWall</text>
</a>
</g>
</g>
<!-- Node1&#45;&gt;Node10 -->
<g id="edge15_Node000001_Node000010" class="edge">
<title>Node1&#45;&gt;Node10</title>
<g id="a_edge15_Node000001_Node000010"><a xlink:title=" ">
<path fill="none" stroke="#63b8ff" d="M77.74,-147.68C91.17,-123.5 129.27,-60.7 179,-28.5 183.03,-25.89 187.4,-23.64 191.94,-21.7"/>
<polygon fill="#63b8ff" stroke="#63b8ff" points="193.29,-24.93 201.41,-18.12 190.82,-18.38 193.29,-24.93"/>
</a>
</g>
</g>
<!-- Node2&#45;&gt;Node3 -->
<g id="edge2_Node000002_Node000003" class="edge">
<title>Node2&#45;&gt;Node3</title>
<g id="a_edge2_Node000002_Node000003"><a xlink:title=" ">
<path fill="none" stroke="#63b8ff" d="M286.74,-297.89C297.55,-294.24 309.13,-289.48 319,-283.5 360.32,-258.49 399.28,-216.69 419.53,-193.1"/>
<polygon fill="#63b8ff" stroke="#63b8ff" points="422.34,-195.19 426.11,-185.29 416.99,-190.68 422.34,-195.19"/>
</a>
</g>
</g>
<!-- Node4&#45;&gt;Node3 -->
<g id="edge4_Node000004_Node000003" class="edge">
<title>Node4&#45;&gt;Node3</title>
<g id="a_edge4_Node000004_Node000003"><a xlink:title=" ">
<path fill="none" stroke="#63b8ff" d="M288.44,-221.94C298.43,-219.33 309.15,-216.41 319,-213.5 345.35,-205.72 374.76,-195.98 397.24,-188.31"/>
<polygon fill="#63b8ff" stroke="#63b8ff" points="398.41,-191.61 406.74,-185.06 396.14,-184.99 398.41,-191.61"/>
</a>
</g>
</g>
<!-- Node5&#45;&gt;Node3 -->
<g id="edge6_Node000005_Node000003" class="edge">
<title>Node5&#45;&gt;Node3</title>
<g id="a_edge6_Node000005_Node000003"><a xlink:title=" ">
<path fill="none" stroke="#63b8ff" d="M286.35,-190.75C303.18,-189.01 323.99,-186.86 344.63,-184.73"/>
<polygon fill="#63b8ff" stroke="#63b8ff" points="345.14,-188.19 354.73,-183.69 344.42,-181.23 345.14,-188.19"/>
</a>
</g>
</g>
<!-- Node6&#45;&gt;Node3 -->
<g id="edge8_Node000006_Node000003" class="edge">
<title>Node6&#45;&gt;Node3</title>
<g id="a_edge8_Node000006_Node000003"><a xlink:title=" ">
<path fill="none" stroke="#63b8ff" d="M306.21,-163C318.42,-164.19 331.63,-165.49 344.76,-166.77"/>
<polygon fill="#63b8ff" stroke="#63b8ff" points="344.48,-170.26 354.77,-167.75 345.16,-163.29 344.48,-170.26"/>
</a>
</g>
</g>
<!-- Node8&#45;&gt;Node3 -->
<g id="edge12_Node000008_Node000003" class="edge">
<title>Node8&#45;&gt;Node3</title>
<g id="a_edge12_Node000008_Node000003"><a xlink:title=" ">
<path fill="none" stroke="#63b8ff" d="M292.29,-93.01C301.28,-95.62 310.59,-98.77 319,-102.5 354.31,-118.15 391.37,-143.54 413.58,-159.88"/>
<polygon fill="#63b8ff" stroke="#63b8ff" points="411.49,-162.69 421.6,-165.86 415.68,-157.07 411.49,-162.69"/>
</a>
</g>
</g>
<!-- Node9&#45;&gt;Node3 -->
<g id="edge14_Node000009_Node000003" class="edge">
<title>Node9&#45;&gt;Node3</title>
<g id="a_edge14_Node000009_Node000003"><a xlink:title=" ">
<path fill="none" stroke="#63b8ff" d="M289.29,-53.73C299.37,-56.54 309.92,-60.35 319,-65.5 361.81,-89.78 400.72,-133.53 420.43,-157.9"/>
<polygon fill="#63b8ff" stroke="#63b8ff" points="417.84,-160.26 426.8,-165.93 423.33,-155.91 417.84,-160.26"/>
</a>
</g>
</g>
<!-- Node10&#45;&gt;Node3 -->
<g id="edge16_Node000010_Node000003" class="edge">
<title>Node10&#45;&gt;Node3</title>
<g id="a_edge16_Node000010_Node000003"><a xlink:title=" ">
<path fill="none" stroke="#63b8ff" d="M296.69,-17.97C304.52,-20.59 312.28,-24.02 319,-28.5 369.61,-62.23 407.82,-125.51 424.61,-156.89"/>
<polygon fill="#63b8ff" stroke="#63b8ff" points="421.57,-158.63 429.3,-165.88 427.78,-155.39 421.57,-158.63"/>
</a>
</g>
</g>
</g>
</svg>

<g id="navigator" transform="translate(0 0)" fill="#404254">
  <rect fill="#f2f5e9" fill-opacity="0.5" stroke="#606060" stroke-width=".5" x="0" y="0" width="60" height="60"/>
  <use id="zoomplus" xlink:href="#zoomPlus" x="17" y="9" onmousedown="handleZoom(evt,'in')"/>
  <use id="zoomminus" xlink:href="#zoomMin" x="42" y="9" onmousedown="handleZoom(evt,'out')"/>
  <use id="reset" xlink:href="#resetDef" x="30" y="36" onmousedown="handleReset()"/>
   <use id="arrowup" xlink:href="#arrowUp" x="0" y="0" onmousedown="handlePan(0,-1)"/>
  <use id="arrowright" xlink:href="#arrowRight" x="0" y="0" onmousedown="handlePan(1,0)"/>
  <use id="arrowdown" xlink:href="#arrowDown" x="0" y="0" onmousedown="handlePan(0,1)"/>
  <use id="arrowleft" xlink:href="#arrowLeft" x="0" y="0" onmousedown="handlePan(-1,0)"/>
</g>
<svg viewBox="0 0 15 15" width="100%" height="30px" preserveAspectRatio="xMaxYMin meet">
 <g id="arrow_out" transform="scale(0.3 0.3)">
  <a xlink:href="Init_8cpp_aaa64e8fd06230fa14e507cef71a3217d_cgraph_org.svg" target="_base">
   <rect id="button" ry="5" rx="5" y="6" x="6" height="38" width="38"
        fill="#f2f5e9" fill-opacity="0.5" stroke="#606060" stroke-width="1.0"/>
   <path id="arrow"
     d="M 11.500037,31.436501 C 11.940474,20.09759 22.043105,11.32322 32.158766,21.979434 L 37.068811,17.246167 C 37.068811,17.246167 37.088388,32 37.088388,32 L 22.160133,31.978069 C 22.160133,31.978069 26.997745,27.140456 26.997745,27.140456 C 18.528582,18.264221 13.291696,25.230495 11.500037,31.436501 z"
     style="fill:#404040;"/>
  </a>
 </g>
</svg>

<style type='text/css'>
<![CDATA[
[data-mouse-over-selected='false'] { opacity: 0.7; }
[data-mouse-over-selected='true']  { opacity: 1.0; }
]]>
</style>
<script type="application/ecmascript"><![CDATA[
document.addEventListener('DOMContentLoaded', (event) => {
  highlightEdges();
  highlightAdjacentNodes();
});
]]></script>
</svg>
