<?xml version="1.0" encoding="UTF-8" standalone="no"?>
<!DOCTYPE svg PUBLIC "-//W3C//DTD SVG 1.1//EN"
 "http://www.w3.org/Graphics/SVG/1.1/DTD/svg11.dtd">
<!-- Generated by graphviz version 2.43.0 (0)
 -->
<!-- Title: engine/GameManagement.cpp Pages: 1 -->
<!--zoomable 258 -->

<svg id="main" version="1.1" xmlns="http://www.w3.org/2000/svg" xmlns:xlink="http://www.w3.org/1999/xlink" xml:space="preserve" onload="init(evt)">

<style type="text/css"><![CDATA[
.node, .edge {opacity: 0.7;}
.node.selected, .edge.selected {opacity: 1;}
.edge:hover path { stroke: red; }
.edge:hover polygon { stroke: red; fill: red; }
]]></style>

<defs>
  <circle id="rim" cx="0" cy="0" r="7"/>
  <circle id="rim2" cx="0" cy="0" r="3.5"/>
  <g id="zoomPlus">
    <use xlink:href="#rim" fill="#404040"><set attributeName="fill" to="#808080" begin="zoomplus.mouseover" end="zoomplus.mouseout"/></use>
    <path d="M-4,0h8M0,-4v8" fill="none" stroke="white" stroke-width="1.5" pointer-events="none"/>
  </g>
  <g id="zoomMin">
    <use xlink:href="#rim" fill="#404040"><set attributeName="fill" to="#808080" begin="zoomminus.mouseover" end="zoomminus.mouseout"/></use>
    <path d="M-4,0h8" fill="none" stroke="white" stroke-width="1.5" pointer-events="none"/>
  </g>
  <g id="arrowUp" transform="translate(30 24)">
    <use xlink:href="#rim"/>
    <path pointer-events="none" fill="none" stroke="white" stroke-width="1.5" d="M0,-3.0v7 M-2.5,-0.5L0,-3.0L2.5,-0.5"/>
  </g>
  <g id="arrowRight" transform="rotate(90) translate(36 -43)">
    <use xlink:href="#rim"/>
    <path pointer-events="none" fill="none" stroke="white" stroke-width="1.5" d="M0,-3.0v7 M-2.5,-0.5L0,-3.0L2.5,-0.5"/>
  </g>
  <g id="arrowDown" transform="rotate(180) translate(-30 -48)">
    <use xlink:href="#rim"/>
    <path pointer-events="none" fill="none" stroke="white" stroke-width="1.5" d="M0,-3.0v7 M-2.5,-0.5L0,-3.0L2.5,-0.5"/>
  </g>
  <g id="arrowLeft" transform="rotate(270) translate(-36 17)">
    <use xlink:href="#rim"/>
    <path pointer-events="none" fill="none" stroke="white" stroke-width="1.5" d="M0,-3.0v7 M-2.5,-0.5L0,-3.0L2.5,-0.5"/>
  </g>
  <g id="resetDef">
    <use xlink:href="#rim2" fill="#404040"><set attributeName="fill" to="#808080" begin="reset.mouseover" end="reset.mouseout"/></use>
  </g>
</defs>
<script type="application/ecmascript">
var viewWidth = 775;
var viewHeight = 258;
var sectionId = 'dynsection-0';
</script>
<script type="application/ecmascript" xlink:href="../../svg.min.js"/>
<svg id="graph" class="graph">
<g id="viewport">
<title>engine/GameManagement.cpp</title>
<!-- Node1 -->
<g id="Node000001" class="node">
<title>Node1</title>
<g id="a_Node000001"><a xlink:title=" ">
<polygon fill="#999999" stroke="#666666" points="308.5,-250 141.5,-250 141.5,-231 308.5,-231 308.5,-250"/>
<text text-anchor="middle" x="225" y="-238" font-family="Helvetica,sans-Serif" font-size="10.00">engine/GameManagement.cpp</text>
</a>
</g>
</g>
<!-- Node2 -->
<g id="Node000002" class="node">
<title>Node2</title>
<g id="a_Node000002"><a xlink:href="../../d7/dd0/GameManagement_8hpp.html" target="_top" xlink:title=" ">
<polygon fill="white" stroke="#666666" points="196.5,-195 65.5,-195 65.5,-176 196.5,-176 196.5,-195"/>
<text text-anchor="middle" x="131" y="-183" font-family="Helvetica,sans-Serif" font-size="10.00">GameManagement.hpp</text>
</a>
</g>
</g>
<!-- Node1&#45;&gt;Node2 -->
<g id="edge1_Node000001_Node000002" class="edge">
<title>Node1&#45;&gt;Node2</title>
<g id="a_edge1_Node000001_Node000002"><a xlink:title=" ">
<path fill="none" stroke="#63b8ff" d="M209.9,-230.98C195.18,-222.69 172.58,-209.94 155.33,-200.22"/>
<polygon fill="#63b8ff" stroke="#63b8ff" points="156.81,-197.03 146.38,-195.17 153.37,-203.13 156.81,-197.03"/>
</a>
</g>
</g>
<!-- Node3 -->
<g id="Node000003" class="node">
<title>Node3</title>
<g id="a_Node000003"><a xlink:title=" ">
<polygon fill="#e0e0e0" stroke="#999999" points="106,-140 0,-140 0,-121 106,-121 106,-140"/>
<text text-anchor="middle" x="53" y="-128" font-family="Helvetica,sans-Serif" font-size="10.00">SDL3/SDL_pixels.h</text>
</a>
</g>
</g>
<!-- Node1&#45;&gt;Node3 -->
<g id="edge15_Node000001_Node000003" class="edge">
<title>Node1&#45;&gt;Node3</title>
<g id="a_edge15_Node000001_Node000003"><a xlink:title=" ">
<path fill="none" stroke="#63b8ff" d="M162.82,-230.92C120.42,-223.69 69.6,-211.81 56,-195 46.03,-182.68 46.3,-164.2 48.46,-150.35"/>
<polygon fill="#63b8ff" stroke="#63b8ff" points="51.92,-150.93 50.44,-140.44 45.05,-149.56 51.92,-150.93"/>
</a>
</g>
</g>
<!-- Node4 -->
<g id="Node000004" class="node">
<title>Node4</title>
<g id="a_Node000004"><a xlink:title=" ">
<polygon fill="#e0e0e0" stroke="#999999" points="248,-140 140,-140 140,-121 248,-121 248,-140"/>
<text text-anchor="middle" x="194" y="-128" font-family="Helvetica,sans-Serif" font-size="10.00">SDL3/SDL_render.h</text>
</a>
</g>
</g>
<!-- Node1&#45;&gt;Node4 -->
<g id="edge16_Node000001_Node000004" class="edge">
<title>Node1&#45;&gt;Node4</title>
<g id="a_edge16_Node000001_Node000004"><a xlink:title=" ">
<path fill="none" stroke="#63b8ff" d="M222.46,-230.66C217.42,-213.09 206.04,-173.45 199.3,-149.95"/>
<polygon fill="#63b8ff" stroke="#63b8ff" points="202.61,-148.8 196.49,-140.16 195.88,-150.74 202.61,-148.8"/>
</a>
</g>
</g>
<!-- Node5 -->
<g id="Node000005" class="node">
<title>Node5</title>
<g id="a_Node000005"><a xlink:href="../../d3/d67/Lifecycle_8hpp.html" target="_top" xlink:title=" ">
<polygon fill="white" stroke="#666666" points="374.5,-195 253.5,-195 253.5,-176 374.5,-176 374.5,-195"/>
<text text-anchor="middle" x="314" y="-183" font-family="Helvetica,sans-Serif" font-size="10.00">../game/Lifecycle.hpp</text>
</a>
</g>
</g>
<!-- Node1&#45;&gt;Node5 -->
<g id="edge4_Node000001_Node000005" class="edge">
<title>Node1&#45;&gt;Node5</title>
<g id="a_edge4_Node000001_Node000005"><a xlink:title=" ">
<path fill="none" stroke="#63b8ff" d="M239.3,-230.98C253.1,-222.77 274.24,-210.18 290.51,-200.49"/>
<polygon fill="#63b8ff" stroke="#63b8ff" points="292.64,-203.29 299.44,-195.17 289.06,-197.28 292.64,-203.29"/>
</a>
</g>
</g>
<!-- Node6 -->
<g id="Node000006" class="node">
<title>Node6</title>
<g id="a_Node000006"><a xlink:href="../../d3/dfc/ObjectManagement_8hpp.html" target="_top" xlink:title=" ">
<polygon fill="white" stroke="#666666" points="527,-195 393,-195 393,-176 527,-176 527,-195"/>
<text text-anchor="middle" x="460" y="-183" font-family="Helvetica,sans-Serif" font-size="10.00">ObjectManagement.hpp</text>
</a>
</g>
</g>
<!-- Node1&#45;&gt;Node6 -->
<g id="edge5_Node000001_Node000006" class="edge">
<title>Node1&#45;&gt;Node6</title>
<g id="a_edge5_Node000001_Node000006"><a xlink:title=" ">
<path fill="none" stroke="#63b8ff" d="M262.76,-230.98C303.32,-221.84 367.89,-207.27 412.03,-197.32"/>
<polygon fill="#63b8ff" stroke="#63b8ff" points="412.96,-200.7 421.95,-195.08 411.42,-193.87 412.96,-200.7"/>
</a>
</g>
</g>
<!-- Node2&#45;&gt;Node3 -->
<g id="edge2_Node000002_Node000003" class="edge">
<title>Node2&#45;&gt;Node3</title>
<g id="a_edge2_Node000002_Node000003"><a xlink:title=" ">
<path fill="none" stroke="#63b8ff" d="M118.47,-175.98C106.6,-167.92 88.54,-155.65 74.39,-146.03"/>
<polygon fill="#63b8ff" stroke="#63b8ff" points="76,-142.9 65.76,-140.17 72.06,-148.69 76,-142.9"/>
</a>
</g>
</g>
<!-- Node2&#45;&gt;Node4 -->
<g id="edge3_Node000002_Node000004" class="edge">
<title>Node2&#45;&gt;Node4</title>
<g id="a_edge3_Node000002_Node000004"><a xlink:title=" ">
<path fill="none" stroke="#63b8ff" d="M141.12,-175.98C150.44,-168.15 164.47,-156.34 175.74,-146.86"/>
<polygon fill="#63b8ff" stroke="#63b8ff" points="178.29,-149.29 183.69,-140.17 173.79,-143.93 178.29,-149.29"/>
</a>
</g>
</g>
<!-- Node7 -->
<g id="Node000007" class="node">
<title>Node7</title>
<g id="a_Node000007"><a xlink:href="../../d4/db5/GameObject_8hpp.html" target="_top" xlink:title=" ">
<polygon fill="white" stroke="#666666" points="509,-140 411,-140 411,-121 509,-121 509,-140"/>
<text text-anchor="middle" x="460" y="-128" font-family="Helvetica,sans-Serif" font-size="10.00">GameObject.hpp</text>
</a>
</g>
</g>
<!-- Node6&#45;&gt;Node7 -->
<g id="edge6_Node000006_Node000007" class="edge">
<title>Node6&#45;&gt;Node7</title>
<g id="a_edge6_Node000006_Node000007"><a xlink:title=" ">
<path fill="none" stroke="#63b8ff" d="M460,-175.75C460,-168.8 460,-158.85 460,-150.13"/>
<polygon fill="#63b8ff" stroke="#63b8ff" points="463.5,-150.09 460,-140.09 456.5,-150.09 463.5,-150.09"/>
</a>
</g>
</g>
<!-- Node11 -->
<g id="Node000011" class="node">
<title>Node11</title>
<g id="a_Node000011"><a xlink:title=" ">
<polygon fill="#e0e0e0" stroke="#999999" points="767,-79.5 709,-79.5 709,-60.5 767,-60.5 767,-79.5"/>
<text text-anchor="middle" x="738" y="-67.5" font-family="Helvetica,sans-Serif" font-size="10.00">memory</text>
</a>
</g>
</g>
<!-- Node6&#45;&gt;Node11 -->
<g id="edge13_Node000006_Node000011" class="edge">
<title>Node6&#45;&gt;Node11</title>
<g id="a_edge13_Node000006_Node000011"><a xlink:title=" ">
<path fill="none" stroke="#63b8ff" d="M480.9,-175.97C529.5,-156.13 650.32,-106.8 707.32,-83.53"/>
<polygon fill="#63b8ff" stroke="#63b8ff" points="708.93,-86.65 716.86,-79.63 706.28,-80.17 708.93,-86.65"/>
</a>
</g>
</g>
<!-- Node13 -->
<g id="Node000013" class="node">
<title>Node13</title>
<g id="a_Node000013"><a xlink:title=" ">
<polygon fill="#e0e0e0" stroke="#999999" points="342.5,-79.5 295.5,-79.5 295.5,-60.5 342.5,-60.5 342.5,-79.5"/>
<text text-anchor="middle" x="319" y="-67.5" font-family="Helvetica,sans-Serif" font-size="10.00">vector</text>
</a>
</g>
</g>
<!-- Node6&#45;&gt;Node13 -->
<g id="edge14_Node000006_Node000013" class="edge">
<title>Node6&#45;&gt;Node13</title>
<g id="a_edge14_Node000006_Node000013"><a xlink:title=" ">
<path fill="none" stroke="#63b8ff" d="M448.34,-175.77C436.56,-166.89 417.87,-152.67 402,-140 379.31,-121.87 353.67,-100.41 336.97,-86.29"/>
<polygon fill="#63b8ff" stroke="#63b8ff" points="339.01,-83.42 329.12,-79.63 334.48,-88.76 339.01,-83.42"/>
</a>
</g>
</g>
<!-- Node8 -->
<g id="Node000008" class="node">
<title>Node8</title>
<g id="a_Node000008"><a xlink:href="../../d9/d4a/Vector2_8hpp.html" target="_top" xlink:title=" ">
<polygon fill="white" stroke="#666666" points="497,-79.5 423,-79.5 423,-60.5 497,-60.5 497,-79.5"/>
<text text-anchor="middle" x="460" y="-67.5" font-family="Helvetica,sans-Serif" font-size="10.00">Vector2.hpp</text>
</a>
</g>
</g>
<!-- Node7&#45;&gt;Node8 -->
<g id="edge7_Node000007_Node000008" class="edge">
<title>Node7&#45;&gt;Node8</title>
<g id="a_edge7_Node000007_Node000008"><a xlink:title=" ">
<path fill="none" stroke="#63b8ff" d="M460,-120.87C460,-112.75 460,-100.31 460,-89.89"/>
<polygon fill="#63b8ff" stroke="#63b8ff" points="463.5,-89.67 460,-79.67 456.5,-89.67 463.5,-89.67"/>
</a>
</g>
</g>
<!-- Node9 -->
<g id="Node000009" class="node">
<title>Node9</title>
<g id="a_Node000009"><a xlink:href="../../d4/d71/ComponentNotFoundException_8hpp.html" target="_top" xlink:title=" ">
<polygon fill="white" stroke="#666666" points="691,-85 515,-85 515,-55 691,-55 691,-85"/>
<text text-anchor="start" x="523" y="-73" font-family="Helvetica,sans-Serif" font-size="10.00">exceptions/ComponentNotFound</text>
<text text-anchor="middle" x="603" y="-62" font-family="Helvetica,sans-Serif" font-size="10.00">Exception.hpp</text>
</a>
</g>
</g>
<!-- Node7&#45;&gt;Node9 -->
<g id="edge8_Node000007_Node000009" class="edge">
<title>Node7&#45;&gt;Node9</title>
<g id="a_edge8_Node000007_Node000009"><a xlink:title=" ">
<path fill="none" stroke="#63b8ff" d="M480.79,-120.99C501.28,-112.61 533.22,-99.55 559.31,-88.87"/>
<polygon fill="#63b8ff" stroke="#63b8ff" points="560.69,-92.09 568.62,-85.06 558.04,-85.61 560.69,-92.09"/>
</a>
</g>
</g>
<!-- Node7&#45;&gt;Node11 -->
<g id="edge10_Node000007_Node000011" class="edge">
<title>Node7&#45;&gt;Node11</title>
<g id="a_edge10_Node000007_Node000011"><a xlink:title=" ">
<path fill="none" stroke="#63b8ff" d="M509.27,-122.86C558.18,-115.7 635.03,-102.85 700,-85 702.29,-84.37 704.63,-83.67 706.98,-82.91"/>
<polygon fill="#63b8ff" stroke="#63b8ff" points="708.18,-86.2 716.5,-79.64 705.91,-79.58 708.18,-86.2"/>
</a>
</g>
</g>
<!-- Node12 -->
<g id="Node000012" class="node">
<title>Node12</title>
<g id="a_Node000012"><a xlink:title=" ">
<polygon fill="#e0e0e0" stroke="#999999" points="405,-79.5 361,-79.5 361,-60.5 405,-60.5 405,-79.5"/>
<text text-anchor="middle" x="383" y="-67.5" font-family="Helvetica,sans-Serif" font-size="10.00">string</text>
</a>
</g>
</g>
<!-- Node7&#45;&gt;Node12 -->
<g id="edge11_Node000007_Node000012" class="edge">
<title>Node7&#45;&gt;Node12</title>
<g id="a_edge11_Node000007_Node000012"><a xlink:title=" ">
<path fill="none" stroke="#63b8ff" d="M448.64,-120.87C436.58,-111.71 417.3,-97.06 402.75,-86.01"/>
<polygon fill="#63b8ff" stroke="#63b8ff" points="404.49,-82.93 394.41,-79.67 400.25,-88.5 404.49,-82.93"/>
</a>
</g>
</g>
<!-- Node7&#45;&gt;Node13 -->
<g id="edge12_Node000007_Node000013" class="edge">
<title>Node7&#45;&gt;Node13</title>
<g id="a_edge12_Node000007_Node000013"><a xlink:title=" ">
<path fill="none" stroke="#63b8ff" d="M438.86,-120.87C417.07,-111.95 382.12,-97.6 352,-85 350.84,-84.51 349.65,-84.02 348.46,-83.51"/>
<polygon fill="#63b8ff" stroke="#63b8ff" points="349.8,-80.28 339.23,-79.62 347.08,-86.73 349.8,-80.28"/>
</a>
</g>
</g>
<!-- Node10 -->
<g id="Node000010" class="node">
<title>Node10</title>
<g id="a_Node000010"><a xlink:title=" ">
<polygon fill="#e0e0e0" stroke="#999999" points="635.5,-19 570.5,-19 570.5,0 635.5,0 635.5,-19"/>
<text text-anchor="middle" x="603" y="-7" font-family="Helvetica,sans-Serif" font-size="10.00">exception</text>
</a>
</g>
</g>
<!-- Node9&#45;&gt;Node10 -->
<g id="edge9_Node000009_Node000010" class="edge">
<title>Node9&#45;&gt;Node10</title>
<g id="a_edge9_Node000009_Node000010"><a xlink:title=" ">
<path fill="none" stroke="#63b8ff" d="M603,-54.84C603,-47.21 603,-37.7 603,-29.45"/>
<polygon fill="#63b8ff" stroke="#63b8ff" points="606.5,-29.27 603,-19.27 599.5,-29.27 606.5,-29.27"/>
</a>
</g>
</g>
</g>
</svg>

<g id="navigator" transform="translate(0 0)" fill="#404254">
  <rect fill="#f2f5e9" fill-opacity="0.5" stroke="#606060" stroke-width=".5" x="0" y="0" width="60" height="60"/>
  <use id="zoomplus" xlink:href="#zoomPlus" x="17" y="9" onmousedown="handleZoom(evt,'in')"/>
  <use id="zoomminus" xlink:href="#zoomMin" x="42" y="9" onmousedown="handleZoom(evt,'out')"/>
  <use id="reset" xlink:href="#resetDef" x="30" y="36" onmousedown="handleReset()"/>
   <use id="arrowup" xlink:href="#arrowUp" x="0" y="0" onmousedown="handlePan(0,-1)"/>
  <use id="arrowright" xlink:href="#arrowRight" x="0" y="0" onmousedown="handlePan(1,0)"/>
  <use id="arrowdown" xlink:href="#arrowDown" x="0" y="0" onmousedown="handlePan(0,1)"/>
  <use id="arrowleft" xlink:href="#arrowLeft" x="0" y="0" onmousedown="handlePan(-1,0)"/>
</g>
<svg viewBox="0 0 15 15" width="100%" height="30px" preserveAspectRatio="xMaxYMin meet">
 <g id="arrow_out" transform="scale(0.3 0.3)">
  <a xlink:href="GameManagement_8cpp__incl_org.svg" target="_base">
   <rect id="button" ry="5" rx="5" y="6" x="6" height="38" width="38"
        fill="#f2f5e9" fill-opacity="0.5" stroke="#606060" stroke-width="1.0"/>
   <path id="arrow"
     d="M 11.500037,31.436501 C 11.940474,20.09759 22.043105,11.32322 32.158766,21.979434 L 37.068811,17.246167 C 37.068811,17.246167 37.088388,32 37.088388,32 L 22.160133,31.978069 C 22.160133,31.978069 26.997745,27.140456 26.997745,27.140456 C 18.528582,18.264221 13.291696,25.230495 11.500037,31.436501 z"
     style="fill:#404040;"/>
  </a>
 </g>
</svg>

<style type='text/css'>
<![CDATA[
[data-mouse-over-selected='false'] { opacity: 0.7; }
[data-mouse-over-selected='true']  { opacity: 1.0; }
]]>
</style>
<script type="application/ecmascript"><![CDATA[
document.addEventListener('DOMContentLoaded', (event) => {
  highlightEdges();
  highlightAdjacentNodes();
});
]]></script>
</svg>
