<?xml version="1.0" encoding="UTF-8" standalone="no"?>
<!DOCTYPE svg PUBLIC "-//W3C//DTD SVG 1.1//EN"
 "http://www.w3.org/Graphics/SVG/1.1/DTD/svg11.dtd">
<!-- Generated by graphviz version 2.43.0 (0)
 -->
<!-- Title: game/Lifecycle.hpp Pages: 1 -->
<!--zoomable 93 -->
<svg id="main" version="1.1" xmlns="http://www.w3.org/2000/svg" xmlns:xlink="http://www.w3.org/1999/xlink" xml:space="preserve" onload="init(evt)">
<style type="text/css"><![CDATA[
.edge:hover path { stroke: red; }
.edge:hover polygon { stroke: red; fill: red; }
]]></style>
<script type="text/javascript"><![CDATA[
var edges = document.getElementsByTagName('g');
if (edges && edges.length) {
  for (var i=0;i<edges.length;i++) {
    if (edges[i].id.substr(0,4)=='edge') {
      edges[i].setAttribute('class','edge');
    }
  }
}
]]></script>
        <defs>
                <circle id="rim" cx="0" cy="0" r="7"/>
                <circle id="rim2" cx="0" cy="0" r="3.5"/>
                <g id="zoomPlus">
                        <use xlink:href="#rim" fill="#404040">
                                <set attributeName="fill" to="#808080" begin="zoomplus.mouseover" end="zoomplus.mouseout"/>
                        </use>
                        <path d="M-4,0h8M0,-4v8" fill="none" stroke="white" stroke-width="1.5" pointer-events="none"/>
                </g>
                <g id="zoomMin">
                        <use xlink:href="#rim" fill="#404040">
                                <set attributeName="fill" to="#808080" begin="zoomminus.mouseover" end="zoomminus.mouseout"/>
                        </use>
                        <path d="M-4,0h8" fill="none" stroke="white" stroke-width="1.5" pointer-events="none"/>
                </g>
                <g id="dirArrow">
                        <path fill="none" stroke="white" stroke-width="1.5" d="M0,-3.0v7 M-2.5,-0.5L0,-3.0L2.5,-0.5"/>
                </g>
               <g id="resetDef">
                       <use xlink:href="#rim2" fill="#404040">
                               <set attributeName="fill" to="#808080" begin="reset.mouseover" end="reset.mouseout"/>
                       </use>
               </g>
        </defs>

<script type="text/javascript">
var viewWidth = 1085;
var viewHeight = 93;
var sectionId = 'dynsection-0';
</script>
<script xlink:href="../../svgpan.js"/>
<svg id="graph" class="graph">
<g id="viewport">
<title>game/Lifecycle.hpp</title>
<!-- Node1 -->
<g id="node1" class="node">
<title>Node1</title>
<g id="a_node1"><a xlink:title=" ">
<polygon fill="#999999" stroke="#666666" points="623.5,-85 511.5,-85 511.5,-66 623.5,-66 623.5,-85"/>
<text text-anchor="middle" x="567.5" y="-73" font-family="Helvetica,sans-Serif" font-size="10.00">game/Lifecycle.hpp</text>
</a>
</g>
</g>
<!-- Node2 -->
<g id="node2" class="node">
<title>Node2</title>
<g id="a_node2"><a xlink:href="../../de/dfd/GameManagement_8cpp.html" target="_top" xlink:title=" ">
<polygon fill="white" stroke="#666666" points="167,-24.5 0,-24.5 0,-5.5 167,-5.5 167,-24.5"/>
<text text-anchor="middle" x="83.5" y="-12.5" font-family="Helvetica,sans-Serif" font-size="10.00">engine/GameManagement.cpp</text>
</a>
</g>
</g>
<!-- Node1&#45;&gt;Node2 -->
<g id="edge1" class="edge">
<title>Node1&#45;&gt;Node2</title>
<path fill="none" stroke="#63b8ff" d="M501.1,-67.74C423.06,-59.61 289.7,-45.17 175.5,-30 163.17,-28.36 149.93,-26.44 137.45,-24.56"/>
<polygon fill="#63b8ff" stroke="#63b8ff" points="500.96,-71.24 511.27,-68.79 501.68,-64.28 500.96,-71.24"/>
</g>
<!-- Node3 -->
<g id="node3" class="node">
<title>Node3</title>
<g id="a_node3"><a xlink:href="../../d1/d99/Lifecycle_8cpp.html" target="_top" xlink:title=" ">
<polygon fill="white" stroke="#666666" points="296,-24.5 185,-24.5 185,-5.5 296,-5.5 296,-24.5"/>
<text text-anchor="middle" x="240.5" y="-12.5" font-family="Helvetica,sans-Serif" font-size="10.00">game/Lifecycle.cpp</text>
</a>
</g>
</g>
<!-- Node1&#45;&gt;Node3 -->
<g id="edge2" class="edge">
<title>Node1&#45;&gt;Node3</title>
<path fill="none" stroke="#63b8ff" d="M503.22,-64.39C450.1,-55.84 372.75,-42.95 305.5,-30 296.89,-28.34 287.66,-26.43 278.94,-24.57"/>
<polygon fill="#63b8ff" stroke="#63b8ff" points="502.75,-67.86 513.18,-65.99 503.86,-60.95 502.75,-67.86"/>
</g>
<!-- Node4 -->
<g id="node4" class="node">
<title>Node4</title>
<g id="a_node4"><a xlink:href="../../d0/d59/CoffeeCollisionBehavior_8cpp.html" target="_top" xlink:title=" ">
<polygon fill="white" stroke="#666666" points="470.5,-30 314.5,-30 314.5,0 470.5,0 470.5,-30"/>
<text text-anchor="start" x="322.5" y="-18" font-family="Helvetica,sans-Serif" font-size="10.00">game/behaviors/coffee</text>
<text text-anchor="middle" x="392.5" y="-7" font-family="Helvetica,sans-Serif" font-size="10.00">/CoffeeCollisionBehavior.cpp</text>
</a>
</g>
</g>
<!-- Node1&#45;&gt;Node4 -->
<g id="edge3" class="edge">
<title>Node1&#45;&gt;Node4</title>
<path fill="none" stroke="#63b8ff" d="M532.22,-62.71C504.02,-53.28 464.42,-40.04 434.57,-30.06"/>
<polygon fill="#63b8ff" stroke="#63b8ff" points="531.46,-66.14 542.05,-65.99 533.68,-59.5 531.46,-66.14"/>
</g>
<!-- Node5 -->
<g id="node5" class="node">
<title>Node5</title>
<g id="a_node5"><a xlink:href="../../d7/d47/CoffeeMeterBehavior_8cpp.html" target="_top" xlink:title=" ">
<polygon fill="white" stroke="#666666" points="646,-30 489,-30 489,0 646,0 646,-30"/>
<text text-anchor="start" x="497" y="-18" font-family="Helvetica,sans-Serif" font-size="10.00">game/behaviors/coffeeMeter</text>
<text text-anchor="middle" x="567.5" y="-7" font-family="Helvetica,sans-Serif" font-size="10.00">/CoffeeMeterBehavior.cpp</text>
</a>
</g>
</g>
<!-- Node1&#45;&gt;Node5 -->
<g id="edge4" class="edge">
<title>Node1&#45;&gt;Node5</title>
<path fill="none" stroke="#63b8ff" d="M567.5,-55.65C567.5,-47.36 567.5,-37.78 567.5,-30.11"/>
<polygon fill="#63b8ff" stroke="#63b8ff" points="564,-55.87 567.5,-65.87 571,-55.87 564,-55.87"/>
</g>
<!-- Node6 -->
<g id="node6" class="node">
<title>Node6</title>
<g id="a_node6"><a xlink:href="../../dd/d3b/EnemyCollisionBehavior_8cpp.html" target="_top" xlink:title=" ">
<polygon fill="white" stroke="#666666" points="822.5,-30 664.5,-30 664.5,0 822.5,0 822.5,-30"/>
<text text-anchor="start" x="672.5" y="-18" font-family="Helvetica,sans-Serif" font-size="10.00">game/behaviors/enemy</text>
<text text-anchor="middle" x="743.5" y="-7" font-family="Helvetica,sans-Serif" font-size="10.00">/EnemyCollisionBehavior.cpp</text>
</a>
</g>
</g>
<!-- Node1&#45;&gt;Node6 -->
<g id="edge5" class="edge">
<title>Node1&#45;&gt;Node6</title>
<path fill="none" stroke="#63b8ff" d="M602.61,-62.83C630.99,-53.4 671.04,-40.09 701.19,-30.06"/>
<polygon fill="#63b8ff" stroke="#63b8ff" points="601.48,-59.52 593.09,-65.99 603.69,-66.16 601.48,-59.52"/>
</g>
<!-- Node7 -->
<g id="node7" class="node">
<title>Node7</title>
<g id="a_node7"><a xlink:href="../../d9/d5f/PlayerCollisionBehavior_8cpp.html" target="_top" xlink:title=" ">
<polygon fill="white" stroke="#666666" points="996,-30 841,-30 841,0 996,0 996,-30"/>
<text text-anchor="start" x="849" y="-18" font-family="Helvetica,sans-Serif" font-size="10.00">game/behaviors/player</text>
<text text-anchor="middle" x="918.5" y="-7" font-family="Helvetica,sans-Serif" font-size="10.00">/PlayerCollisionBehavior.cpp</text>
</a>
</g>
</g>
<!-- Node1&#45;&gt;Node7 -->
<g id="edge6" class="edge">
<title>Node1&#45;&gt;Node7</title>
<path fill="none" stroke="#63b8ff" d="M628.44,-64.34C687.35,-54.53 776.83,-39.61 840.82,-28.95"/>
<polygon fill="#63b8ff" stroke="#63b8ff" points="627.83,-60.9 618.54,-65.99 628.98,-67.8 627.83,-60.9"/>
</g>
<!-- Node8 -->
<g id="node8" class="node">
<title>Node8</title>
<g id="a_node8"><a xlink:href="../../df/d0a/main_8cpp.html" target="_top" xlink:title=" ">
<polygon fill="white" stroke="#666666" points="1076.5,-24.5 1014.5,-24.5 1014.5,-5.5 1076.5,-5.5 1076.5,-24.5"/>
<text text-anchor="middle" x="1045.5" y="-12.5" font-family="Helvetica,sans-Serif" font-size="10.00">main.cpp</text>
</a>
</g>
</g>
<!-- Node1&#45;&gt;Node8 -->
<g id="edge7" class="edge">
<title>Node1&#45;&gt;Node8</title>
<path fill="none" stroke="#63b8ff" d="M634.03,-72.6C720.55,-69.03 875.91,-58.84 1005.5,-30 1011.68,-28.63 1018.22,-26.59 1024.18,-24.5"/>
<polygon fill="#63b8ff" stroke="#63b8ff" points="633.68,-69.11 623.83,-73 633.96,-76.11 633.68,-69.11"/>
</g>
</g>
</svg>
        <g id="navigator" transform="translate(0 0)" fill="#404254">
                <rect fill="#f2f5e9" fill-opacity="0.5" stroke="#606060" stroke-width=".5" x="0" y="0" width="60" height="60"/>
                <use id="zoomplus" xlink:href="#zoomPlus" x="17" y="9" onmousedown="handleZoom(evt,'in')"/>
                <use id="zoomminus" xlink:href="#zoomMin" x="42" y="9" onmousedown="handleZoom(evt,'out')"/>
                <use id="reset" xlink:href="#resetDef" x="30" y="36" onmousedown="handleReset()"/>
                <g id="arrowUp" xlink:href="#dirArrow" transform="translate(30 24)" onmousedown="handlePan(0,-1)">
                  <use xlink:href="#rim" fill="#404040">
                        <set attributeName="fill" to="#808080" begin="arrowUp.mouseover" end="arrowUp.mouseout"/>
                  </use>
                  <path fill="none" stroke="white" stroke-width="1.5" d="M0,-3.0v7 M-2.5,-0.5L0,-3.0L2.5,-0.5"/>
                </g>
                <g id="arrowRight" xlink:href="#dirArrow" transform="rotate(90) translate(36 -43)" onmousedown="handlePan(1,0)">
                  <use xlink:href="#rim" fill="#404040">
                        <set attributeName="fill" to="#808080" begin="arrowRight.mouseover" end="arrowRight.mouseout"/>
                  </use>
                  <path fill="none" stroke="white" stroke-width="1.5" d="M0,-3.0v7 M-2.5,-0.5L0,-3.0L2.5,-0.5"/>
                </g>
                <g id="arrowDown" xlink:href="#dirArrow" transform="rotate(180) translate(-30 -48)" onmousedown="handlePan(0,1)">
                  <use xlink:href="#rim" fill="#404040">
                        <set attributeName="fill" to="#808080" begin="arrowDown.mouseover" end="arrowDown.mouseout"/>
                  </use>
                  <path fill="none" stroke="white" stroke-width="1.5" d="M0,-3.0v7 M-2.5,-0.5L0,-3.0L2.5,-0.5"/>
                </g>
                <g id="arrowLeft" xlink:href="#dirArrow" transform="rotate(270) translate(-36 17)" onmousedown="handlePan(-1,0)">
                  <use xlink:href="#rim" fill="#404040">
                        <set attributeName="fill" to="#808080" begin="arrowLeft.mouseover" end="arrowLeft.mouseout"/>
                  </use>
                  <path fill="none" stroke="white" stroke-width="1.5" d="M0,-3.0v7 M-2.5,-0.5L0,-3.0L2.5,-0.5"/>
                </g>
        </g>
        <svg viewBox="0 0 15 15" width="100%" height="30px" preserveAspectRatio="xMaxYMin meet">
         <g id="arrow_out" transform="scale(0.3 0.3)">
          <a xlink:href="Lifecycle_8hpp__dep__incl_org.svg" target="_base">
           <rect id="button" ry="5" rx="5" y="6" x="6" height="38" width="38"
                fill="#f2f5e9" fill-opacity="0.5" stroke="#606060" stroke-width="1.0"/>
           <path id="arrow"
             d="M 11.500037,31.436501 C 11.940474,20.09759 22.043105,11.32322 32.158766,21.979434 L 37.068811,17.246167 C 37.068811,17.246167 37.088388,32 37.088388,32 L 22.160133,31.978069 C 22.160133,31.978069 26.997745,27.140456 26.997745,27.140456 C 18.528582,18.264221 13.291696,25.230495 11.500037,31.436501 z"
             style="fill:#404040;"/>
          </a>
         </g>
        </svg>
</svg>
