<?xml version="1.0" encoding="UTF-8" standalone="no"?>
<!DOCTYPE svg PUBLIC "-//W3C//DTD SVG 1.1//EN"
 "http://www.w3.org/Graphics/SVG/1.1/DTD/svg11.dtd">
<!-- Generated by graphviz version 2.43.0 (0)
 -->
<!-- Title: engine/KeyboardHandling.cpp Pages: 1 -->
<svg width="588pt" height="379pt"
 viewBox="0.00 0.00 587.50 379.00" xmlns="http://www.w3.org/2000/svg" xmlns:xlink="http://www.w3.org/1999/xlink">
<g id="graph0" class="graph" transform="scale(1 1) rotate(0) translate(4 375)">
<title>engine/KeyboardHandling.cpp</title>
<!-- Node1 -->
<g id="node1" class="node">
<title>Node1</title>
<g id="a_node1"><a xlink:title=" ">
<polygon fill="#999999" stroke="#666666" points="274.5,-371 112.5,-371 112.5,-352 274.5,-352 274.5,-371"/>
<text text-anchor="middle" x="193.5" y="-359" font-family="Helvetica,sans-Serif" font-size="10.00">engine/KeyboardHandling.cpp</text>
</a>
</g>
</g>
<!-- Node2 -->
<g id="node2" class="node">
<title>Node2</title>
<g id="a_node2"><a xlink:href="../../d5/d07/KeyboardHandling_8hpp.html" target="_top" xlink:title=" ">
<polygon fill="white" stroke="#666666" points="127,-310.5 0,-310.5 0,-291.5 127,-291.5 127,-310.5"/>
<text text-anchor="middle" x="63.5" y="-298.5" font-family="Helvetica,sans-Serif" font-size="10.00">KeyboardHandling.hpp</text>
</a>
</g>
</g>
<!-- Node1&#45;&gt;Node2 -->
<g id="edge1" class="edge">
<title>Node1&#45;&gt;Node2</title>
<path fill="none" stroke="#63b8ff" d="M174.6,-351.99C152.84,-342.2 116.88,-326.02 91.79,-314.73"/>
<polygon fill="#63b8ff" stroke="#63b8ff" points="92.98,-311.43 82.43,-310.52 90.11,-317.81 92.98,-311.43"/>
</g>
<!-- Node3 -->
<g id="node3" class="node">
<title>Node3</title>
<g id="a_node3"><a xlink:title=" ">
<polygon fill="#e0e0e0" stroke="#999999" points="142.5,-250 32.5,-250 32.5,-231 142.5,-231 142.5,-250"/>
<text text-anchor="middle" x="87.5" y="-238" font-family="Helvetica,sans-Serif" font-size="10.00">SDL3/SDL_events.h</text>
</a>
</g>
</g>
<!-- Node1&#45;&gt;Node3 -->
<g id="edge22" class="edge">
<title>Node1&#45;&gt;Node3</title>
<path fill="none" stroke="#63b8ff" d="M187.49,-351.87C177.39,-337.61 156.11,-308.47 135.5,-286 126.11,-275.77 114.75,-265.16 105.44,-256.88"/>
<polygon fill="#63b8ff" stroke="#63b8ff" points="107.71,-254.21 97.88,-250.25 103.1,-259.48 107.71,-254.21"/>
</g>
<!-- Node4 -->
<g id="node4" class="node">
<title>Node4</title>
<g id="a_node4"><a xlink:href="../../d7/dd0/GameManagement_8hpp.html" target="_top" xlink:title=" ">
<polygon fill="white" stroke="#666666" points="254,-195 123,-195 123,-176 254,-176 254,-195"/>
<text text-anchor="middle" x="188.5" y="-183" font-family="Helvetica,sans-Serif" font-size="10.00">GameManagement.hpp</text>
</a>
</g>
</g>
<!-- Node1&#45;&gt;Node4 -->
<g id="edge3" class="edge">
<title>Node1&#45;&gt;Node4</title>
<path fill="none" stroke="#63b8ff" d="M193.25,-351.63C192.47,-324.64 190.12,-243.03 189.05,-205.61"/>
<polygon fill="#63b8ff" stroke="#63b8ff" points="192.53,-205.04 188.75,-195.14 185.54,-205.24 192.53,-205.04"/>
</g>
<!-- Node14 -->
<g id="node14" class="node">
<title>Node14</title>
<g id="a_node14"><a xlink:href="../../d2/d69/GameObjectComponent_8hpp.html" target="_top" xlink:title=" ">
<polygon fill="white" stroke="#666666" points="538.5,-195 320.5,-195 320.5,-176 538.5,-176 538.5,-195"/>
<text text-anchor="middle" x="429.5" y="-183" font-family="Helvetica,sans-Serif" font-size="10.00">components/GameObjectComponent.hpp</text>
</a>
</g>
</g>
<!-- Node1&#45;&gt;Node14 -->
<g id="edge15" class="edge">
<title>Node1&#45;&gt;Node14</title>
<path fill="none" stroke="#63b8ff" d="M272.14,-351.97C321.69,-345.01 379.57,-333.44 397.5,-316 427.7,-286.62 431.14,-233.59 430.6,-205.37"/>
<polygon fill="#63b8ff" stroke="#63b8ff" points="434.09,-205.1 430.21,-195.24 427.1,-205.37 434.09,-205.1"/>
</g>
<!-- Node16 -->
<g id="node16" class="node">
<title>Node16</title>
<g id="a_node16"><a xlink:href="../../de/dfb/KeyboardHandlerBehavior_8hpp.html" target="_top" xlink:title=" ">
<polygon fill="white" stroke="#666666" points="388,-316 221,-316 221,-286 388,-286 388,-316"/>
<text text-anchor="start" x="229" y="-304" font-family="Helvetica,sans-Serif" font-size="10.00">components/behaviors</text>
<text text-anchor="middle" x="304.5" y="-293" font-family="Helvetica,sans-Serif" font-size="10.00">/KeyboardHandlerBehavior.hpp</text>
</a>
</g>
</g>
<!-- Node1&#45;&gt;Node16 -->
<g id="edge18" class="edge">
<title>Node1&#45;&gt;Node16</title>
<path fill="none" stroke="#63b8ff" d="M209.88,-351.87C225.29,-343.75 248.89,-331.31 268.66,-320.89"/>
<polygon fill="#63b8ff" stroke="#63b8ff" points="270.5,-323.87 277.72,-316.11 267.24,-317.68 270.5,-323.87"/>
</g>
<!-- Node2&#45;&gt;Node3 -->
<g id="edge2" class="edge">
<title>Node2&#45;&gt;Node3</title>
<path fill="none" stroke="#63b8ff" d="M67.04,-291.37C70.44,-283.07 75.69,-270.28 80.02,-259.72"/>
<polygon fill="#63b8ff" stroke="#63b8ff" points="83.39,-260.75 83.94,-250.17 76.91,-258.09 83.39,-260.75"/>
</g>
<!-- Node5 -->
<g id="node5" class="node">
<title>Node5</title>
<g id="a_node5"><a xlink:href="../../d4/db5/GameObject_8hpp.html" target="_top" xlink:title=" ">
<polygon fill="white" stroke="#666666" points="478.5,-140 380.5,-140 380.5,-121 478.5,-121 478.5,-140"/>
<text text-anchor="middle" x="429.5" y="-128" font-family="Helvetica,sans-Serif" font-size="10.00">GameObject.hpp</text>
</a>
</g>
</g>
<!-- Node4&#45;&gt;Node5 -->
<g id="edge4" class="edge">
<title>Node4&#45;&gt;Node5</title>
<path fill="none" stroke="#63b8ff" d="M227.22,-175.98C268.91,-166.82 335.32,-152.21 380.59,-142.26"/>
<polygon fill="#63b8ff" stroke="#63b8ff" points="381.46,-145.65 390.48,-140.08 379.96,-138.81 381.46,-145.65"/>
</g>
<!-- Node9 -->
<g id="node9" class="node">
<title>Node9</title>
<g id="a_node9"><a xlink:title=" ">
<polygon fill="#e0e0e0" stroke="#999999" points="111.5,-79.5 53.5,-79.5 53.5,-60.5 111.5,-60.5 111.5,-79.5"/>
<text text-anchor="middle" x="82.5" y="-67.5" font-family="Helvetica,sans-Serif" font-size="10.00">memory</text>
</a>
</g>
</g>
<!-- Node4&#45;&gt;Node9 -->
<g id="edge13" class="edge">
<title>Node4&#45;&gt;Node9</title>
<path fill="none" stroke="#63b8ff" d="M168.02,-175.97C152.03,-168.46 130.13,-156.19 115.5,-140 102.18,-125.25 93.15,-104.16 87.95,-89.19"/>
<polygon fill="#63b8ff" stroke="#63b8ff" points="91.24,-87.99 84.84,-79.54 84.58,-90.14 91.24,-87.99"/>
</g>
<!-- Node11 -->
<g id="node11" class="node">
<title>Node11</title>
<g id="a_node11"><a xlink:title=" ">
<polygon fill="#e0e0e0" stroke="#999999" points="213,-79.5 166,-79.5 166,-60.5 213,-60.5 213,-79.5"/>
<text text-anchor="middle" x="189.5" y="-67.5" font-family="Helvetica,sans-Serif" font-size="10.00">vector</text>
</a>
</g>
</g>
<!-- Node4&#45;&gt;Node11 -->
<g id="edge14" class="edge">
<title>Node4&#45;&gt;Node11</title>
<path fill="none" stroke="#63b8ff" d="M166.31,-175.86C142.39,-165.1 109.27,-145.17 121.5,-121 129.64,-104.91 145.66,-92.74 160.11,-84.43"/>
<polygon fill="#63b8ff" stroke="#63b8ff" points="162.11,-87.33 169.28,-79.53 158.81,-81.16 162.11,-87.33"/>
</g>
<!-- Node12 -->
<g id="node12" class="node">
<title>Node12</title>
<g id="a_node12"><a xlink:title=" ">
<polygon fill="#e0e0e0" stroke="#999999" points="236.5,-140 130.5,-140 130.5,-121 236.5,-121 236.5,-140"/>
<text text-anchor="middle" x="183.5" y="-128" font-family="Helvetica,sans-Serif" font-size="10.00">SDL3/SDL_pixels.h</text>
</a>
</g>
</g>
<!-- Node4&#45;&gt;Node12 -->
<g id="edge11" class="edge">
<title>Node4&#45;&gt;Node12</title>
<path fill="none" stroke="#63b8ff" d="M187.67,-175.75C187.02,-168.8 186.08,-158.85 185.26,-150.13"/>
<polygon fill="#63b8ff" stroke="#63b8ff" points="188.73,-149.72 184.31,-140.09 181.77,-150.37 188.73,-149.72"/>
</g>
<!-- Node13 -->
<g id="node13" class="node">
<title>Node13</title>
<g id="a_node13"><a xlink:title=" ">
<polygon fill="#e0e0e0" stroke="#999999" points="362.5,-140 254.5,-140 254.5,-121 362.5,-121 362.5,-140"/>
<text text-anchor="middle" x="308.5" y="-128" font-family="Helvetica,sans-Serif" font-size="10.00">SDL3/SDL_render.h</text>
</a>
</g>
</g>
<!-- Node4&#45;&gt;Node13 -->
<g id="edge12" class="edge">
<title>Node4&#45;&gt;Node13</title>
<path fill="none" stroke="#63b8ff" d="M207.78,-175.98C227.17,-167.42 257.31,-154.11 279.57,-144.28"/>
<polygon fill="#63b8ff" stroke="#63b8ff" points="281.14,-147.41 288.87,-140.17 278.31,-141.01 281.14,-147.41"/>
</g>
<!-- Node6 -->
<g id="node6" class="node">
<title>Node6</title>
<g id="a_node6"><a xlink:href="../../d9/d4a/Vector2_8hpp.html" target="_top" xlink:title=" ">
<polygon fill="white" stroke="#666666" points="323.5,-79.5 249.5,-79.5 249.5,-60.5 323.5,-60.5 323.5,-79.5"/>
<text text-anchor="middle" x="286.5" y="-67.5" font-family="Helvetica,sans-Serif" font-size="10.00">Vector2.hpp</text>
</a>
</g>
</g>
<!-- Node5&#45;&gt;Node6 -->
<g id="edge5" class="edge">
<title>Node5&#45;&gt;Node6</title>
<path fill="none" stroke="#63b8ff" d="M408.71,-120.99C384.56,-111.12 344.52,-94.73 316.88,-83.43"/>
<polygon fill="#63b8ff" stroke="#63b8ff" points="317.9,-80.06 307.32,-79.52 315.25,-86.54 317.9,-80.06"/>
</g>
<!-- Node7 -->
<g id="node7" class="node">
<title>Node7</title>
<g id="a_node7"><a xlink:href="../../d4/d71/ComponentNotFoundException_8hpp.html" target="_top" xlink:title=" ">
<polygon fill="white" stroke="#666666" points="517.5,-85 341.5,-85 341.5,-55 517.5,-55 517.5,-85"/>
<text text-anchor="start" x="349.5" y="-73" font-family="Helvetica,sans-Serif" font-size="10.00">exceptions/ComponentNotFound</text>
<text text-anchor="middle" x="429.5" y="-62" font-family="Helvetica,sans-Serif" font-size="10.00">Exception.hpp</text>
</a>
</g>
</g>
<!-- Node5&#45;&gt;Node7 -->
<g id="edge6" class="edge">
<title>Node5&#45;&gt;Node7</title>
<path fill="none" stroke="#63b8ff" d="M429.5,-120.87C429.5,-114.11 429.5,-104.35 429.5,-95.26"/>
<polygon fill="#63b8ff" stroke="#63b8ff" points="433,-95.11 429.5,-85.11 426,-95.11 433,-95.11"/>
</g>
<!-- Node5&#45;&gt;Node9 -->
<g id="edge8" class="edge">
<title>Node5&#45;&gt;Node9</title>
<path fill="none" stroke="#63b8ff" d="M380.12,-121.84C325.39,-113.25 234.53,-98.74 156.5,-85 145.16,-83 132.87,-80.72 121.62,-78.59"/>
<polygon fill="#63b8ff" stroke="#63b8ff" points="122.12,-75.13 111.64,-76.69 120.81,-82 122.12,-75.13"/>
</g>
<!-- Node10 -->
<g id="node10" class="node">
<title>Node10</title>
<g id="a_node10"><a xlink:title=" ">
<polygon fill="#e0e0e0" stroke="#999999" points="579.5,-79.5 535.5,-79.5 535.5,-60.5 579.5,-60.5 579.5,-79.5"/>
<text text-anchor="middle" x="557.5" y="-67.5" font-family="Helvetica,sans-Serif" font-size="10.00">string</text>
</a>
</g>
</g>
<!-- Node5&#45;&gt;Node10 -->
<g id="edge9" class="edge">
<title>Node5&#45;&gt;Node10</title>
<path fill="none" stroke="#63b8ff" d="M448.11,-120.99C469.54,-111.2 504.94,-95.02 529.65,-83.73"/>
<polygon fill="#63b8ff" stroke="#63b8ff" points="531.22,-86.86 538.87,-79.52 528.32,-80.49 531.22,-86.86"/>
</g>
<!-- Node5&#45;&gt;Node11 -->
<g id="edge10" class="edge">
<title>Node5&#45;&gt;Node11</title>
<path fill="none" stroke="#63b8ff" d="M391.39,-120.96C353.15,-112.29 292.6,-98.28 240.5,-85 234.74,-83.53 228.64,-81.91 222.73,-80.31"/>
<polygon fill="#63b8ff" stroke="#63b8ff" points="223.64,-76.93 213.07,-77.66 221.79,-83.68 223.64,-76.93"/>
</g>
<!-- Node8 -->
<g id="node8" class="node">
<title>Node8</title>
<g id="a_node8"><a xlink:title=" ">
<polygon fill="#e0e0e0" stroke="#999999" points="462,-19 397,-19 397,0 462,0 462,-19"/>
<text text-anchor="middle" x="429.5" y="-7" font-family="Helvetica,sans-Serif" font-size="10.00">exception</text>
</a>
</g>
</g>
<!-- Node7&#45;&gt;Node8 -->
<g id="edge7" class="edge">
<title>Node7&#45;&gt;Node8</title>
<path fill="none" stroke="#63b8ff" d="M429.5,-54.84C429.5,-47.21 429.5,-37.7 429.5,-29.45"/>
<polygon fill="#63b8ff" stroke="#63b8ff" points="433,-29.27 429.5,-19.27 426,-29.27 433,-29.27"/>
</g>
<!-- Node14&#45;&gt;Node5 -->
<g id="edge17" class="edge">
<title>Node14&#45;&gt;Node5</title>
<path fill="none" stroke="#63b8ff" d="M429.5,-175.75C429.5,-168.8 429.5,-158.85 429.5,-150.13"/>
<polygon fill="#63b8ff" stroke="#63b8ff" points="433,-150.09 429.5,-140.09 426,-150.09 433,-150.09"/>
</g>
<!-- Node15 -->
<g id="node15" class="node">
<title>Node15</title>
<g id="a_node15"><a xlink:title=" ">
<polygon fill="#e0e0e0" stroke="#999999" points="550,-140 497,-140 497,-121 550,-121 550,-140"/>
<text text-anchor="middle" x="523.5" y="-128" font-family="Helvetica,sans-Serif" font-size="10.00">cstddef</text>
</a>
</g>
</g>
<!-- Node14&#45;&gt;Node15 -->
<g id="edge16" class="edge">
<title>Node14&#45;&gt;Node15</title>
<path fill="none" stroke="#63b8ff" d="M444.6,-175.98C459.32,-167.69 481.92,-154.94 499.17,-145.22"/>
<polygon fill="#63b8ff" stroke="#63b8ff" points="501.13,-148.13 508.12,-140.17 497.69,-142.03 501.13,-148.13"/>
</g>
<!-- Node17 -->
<g id="node17" class="node">
<title>Node17</title>
<g id="a_node17"><a xlink:href="../../d4/d8e/Behavior_8hpp.html" target="_top" xlink:title=" ">
<polygon fill="white" stroke="#666666" points="311.5,-250 231.5,-250 231.5,-231 311.5,-231 311.5,-250"/>
<text text-anchor="middle" x="271.5" y="-238" font-family="Helvetica,sans-Serif" font-size="10.00">Behavior.hpp</text>
</a>
</g>
</g>
<!-- Node16&#45;&gt;Node17 -->
<g id="edge19" class="edge">
<title>Node16&#45;&gt;Node17</title>
<path fill="none" stroke="#63b8ff" d="M296.51,-285.84C291.97,-277.78 286.23,-267.62 281.4,-259.06"/>
<polygon fill="#63b8ff" stroke="#63b8ff" points="284.41,-257.26 276.44,-250.27 278.31,-260.7 284.41,-257.26"/>
</g>
<!-- Node18 -->
<g id="node18" class="node">
<title>Node18</title>
<g id="a_node18"><a xlink:title=" ">
<polygon fill="#e0e0e0" stroke="#999999" points="401.5,-250 329.5,-250 329.5,-231 401.5,-231 401.5,-250"/>
<text text-anchor="middle" x="365.5" y="-238" font-family="Helvetica,sans-Serif" font-size="10.00">SDL3/SDL.h</text>
</a>
</g>
</g>
<!-- Node16&#45;&gt;Node18 -->
<g id="edge21" class="edge">
<title>Node16&#45;&gt;Node18</title>
<path fill="none" stroke="#63b8ff" d="M319.27,-285.84C328.21,-277.26 339.64,-266.3 348.9,-257.42"/>
<polygon fill="#63b8ff" stroke="#63b8ff" points="351.56,-259.71 356.36,-250.27 346.72,-254.66 351.56,-259.71"/>
</g>
<!-- Node17&#45;&gt;Node14 -->
<g id="edge20" class="edge">
<title>Node17&#45;&gt;Node14</title>
<path fill="none" stroke="#63b8ff" d="M296.89,-230.98C323.3,-222.13 364.85,-208.19 394.39,-198.28"/>
<polygon fill="#63b8ff" stroke="#63b8ff" points="395.55,-201.58 403.92,-195.08 393.32,-194.94 395.55,-201.58"/>
</g>
</g>
</svg>
