<?xml version="1.0" encoding="UTF-8" standalone="no"?>
<!DOCTYPE svg PUBLIC "-//W3C//DTD SVG 1.1//EN"
 "http://www.w3.org/Graphics/SVG/1.1/DTD/svg11.dtd">
<!-- Generated by graphviz version 2.43.0 (0)
 -->
<!-- Title: engine/components/renderers/Renderer.cpp Pages: 1 -->
<svg width="522pt" height="324pt"
 viewBox="0.00 0.00 522.00 324.00" xmlns="http://www.w3.org/2000/svg" xmlns:xlink="http://www.w3.org/1999/xlink">
<g id="graph0" class="graph" transform="scale(1 1) rotate(0) translate(4 320)">
<title>engine/components/renderers/Renderer.cpp</title>
<!-- Node1 -->
<g id="node1" class="node">
<title>Node1</title>
<g id="a_node1"><a xlink:title=" ">
<polygon fill="#999999" stroke="#666666" points="321,-316 159,-316 159,-286 321,-286 321,-316"/>
<text text-anchor="start" x="167" y="-304" font-family="Helvetica,sans-Serif" font-size="10.00">engine/components/renderers</text>
<text text-anchor="middle" x="240" y="-293" font-family="Helvetica,sans-Serif" font-size="10.00">/Renderer.cpp</text>
</a>
</g>
</g>
<!-- Node2 -->
<g id="node2" class="node">
<title>Node2</title>
<g id="a_node2"><a xlink:href="../../dd/db8/Renderer_8hpp.html" target="_top" xlink:title=" ">
<polygon fill="white" stroke="#666666" points="211.5,-250 130.5,-250 130.5,-231 211.5,-231 211.5,-250"/>
<text text-anchor="middle" x="171" y="-238" font-family="Helvetica,sans-Serif" font-size="10.00">Renderer.hpp</text>
</a>
</g>
</g>
<!-- Node1&#45;&gt;Node2 -->
<g id="edge1" class="edge">
<title>Node1&#45;&gt;Node2</title>
<path fill="none" stroke="#63b8ff" d="M223.3,-285.84C212.97,-277.09 199.72,-265.85 189.14,-256.88"/>
<polygon fill="#63b8ff" stroke="#63b8ff" points="191.23,-254.06 181.34,-250.27 186.7,-259.4 191.23,-254.06"/>
</g>
<!-- Node12 -->
<g id="node12" class="node">
<title>Node12</title>
<g id="a_node12"><a xlink:title=" ">
<polygon fill="#e0e0e0" stroke="#999999" points="290,-195 182,-195 182,-176 290,-176 290,-195"/>
<text text-anchor="middle" x="236" y="-183" font-family="Helvetica,sans-Serif" font-size="10.00">SDL3/SDL_render.h</text>
</a>
</g>
</g>
<!-- Node1&#45;&gt;Node12 -->
<g id="edge18" class="edge">
<title>Node1&#45;&gt;Node12</title>
<path fill="none" stroke="#63b8ff" d="M239.49,-285.63C238.77,-265.21 237.46,-227.81 236.66,-205.24"/>
<polygon fill="#63b8ff" stroke="#63b8ff" points="240.16,-205.1 236.31,-195.23 233.16,-205.35 240.16,-205.1"/>
</g>
<!-- Node13 -->
<g id="node13" class="node">
<title>Node13</title>
<g id="a_node13"><a xlink:href="../../d7/dd0/GameManagement_8hpp.html" target="_top" xlink:title=" ">
<polygon fill="white" stroke="#666666" points="425.5,-250 276.5,-250 276.5,-231 425.5,-231 425.5,-250"/>
<text text-anchor="middle" x="351" y="-238" font-family="Helvetica,sans-Serif" font-size="10.00">../../GameManagement.hpp</text>
</a>
</g>
</g>
<!-- Node1&#45;&gt;Node13 -->
<g id="edge12" class="edge">
<title>Node1&#45;&gt;Node13</title>
<path fill="none" stroke="#63b8ff" d="M266.59,-285.99C284.45,-276.58 307.84,-264.24 325.48,-254.95"/>
<polygon fill="#63b8ff" stroke="#63b8ff" points="327.39,-257.9 334.61,-250.14 324.13,-251.71 327.39,-257.9"/>
</g>
<!-- Node3 -->
<g id="node3" class="node">
<title>Node3</title>
<g id="a_node3"><a xlink:href="../../d2/d69/GameObjectComponent_8hpp.html" target="_top" xlink:title=" ">
<polygon fill="white" stroke="#666666" points="164,-195 0,-195 0,-176 164,-176 164,-195"/>
<text text-anchor="middle" x="82" y="-183" font-family="Helvetica,sans-Serif" font-size="10.00">../GameObjectComponent.hpp</text>
</a>
</g>
</g>
<!-- Node2&#45;&gt;Node3 -->
<g id="edge2" class="edge">
<title>Node2&#45;&gt;Node3</title>
<path fill="none" stroke="#63b8ff" d="M156.7,-230.98C142.9,-222.77 121.76,-210.18 105.49,-200.49"/>
<polygon fill="#63b8ff" stroke="#63b8ff" points="106.94,-197.28 96.56,-195.17 103.36,-203.29 106.94,-197.28"/>
</g>
<!-- Node2&#45;&gt;Node12 -->
<g id="edge11" class="edge">
<title>Node2&#45;&gt;Node12</title>
<path fill="none" stroke="#63b8ff" d="M181.44,-230.98C191.15,-223.07 205.82,-211.11 217.5,-201.58"/>
<polygon fill="#63b8ff" stroke="#63b8ff" points="219.83,-204.2 225.37,-195.17 215.4,-198.78 219.83,-204.2"/>
</g>
<!-- Node4 -->
<g id="node4" class="node">
<title>Node4</title>
<g id="a_node4"><a xlink:title=" ">
<polygon fill="#e0e0e0" stroke="#999999" points="108.5,-140 55.5,-140 55.5,-121 108.5,-121 108.5,-140"/>
<text text-anchor="middle" x="82" y="-128" font-family="Helvetica,sans-Serif" font-size="10.00">cstddef</text>
</a>
</g>
</g>
<!-- Node3&#45;&gt;Node4 -->
<g id="edge3" class="edge">
<title>Node3&#45;&gt;Node4</title>
<path fill="none" stroke="#63b8ff" d="M82,-175.75C82,-168.8 82,-158.85 82,-150.13"/>
<polygon fill="#63b8ff" stroke="#63b8ff" points="85.5,-150.09 82,-140.09 78.5,-150.09 85.5,-150.09"/>
</g>
<!-- Node5 -->
<g id="node5" class="node">
<title>Node5</title>
<g id="a_node5"><a xlink:href="../../d4/db5/GameObject_8hpp.html" target="_top" xlink:title=" ">
<polygon fill="white" stroke="#666666" points="303.5,-140 196.5,-140 196.5,-121 303.5,-121 303.5,-140"/>
<text text-anchor="middle" x="250" y="-128" font-family="Helvetica,sans-Serif" font-size="10.00">../GameObject.hpp</text>
</a>
</g>
</g>
<!-- Node3&#45;&gt;Node5 -->
<g id="edge4" class="edge">
<title>Node3&#45;&gt;Node5</title>
<path fill="none" stroke="#63b8ff" d="M108.99,-175.98C137.2,-167.09 181.64,-153.07 213.08,-143.15"/>
<polygon fill="#63b8ff" stroke="#63b8ff" points="214.31,-146.43 222.8,-140.08 212.21,-139.75 214.31,-146.43"/>
</g>
<!-- Node6 -->
<g id="node6" class="node">
<title>Node6</title>
<g id="a_node6"><a xlink:href="../../d9/d4a/Vector2_8hpp.html" target="_top" xlink:title=" ">
<polygon fill="white" stroke="#666666" points="144,-79.5 70,-79.5 70,-60.5 144,-60.5 144,-79.5"/>
<text text-anchor="middle" x="107" y="-67.5" font-family="Helvetica,sans-Serif" font-size="10.00">Vector2.hpp</text>
</a>
</g>
</g>
<!-- Node5&#45;&gt;Node6 -->
<g id="edge5" class="edge">
<title>Node5&#45;&gt;Node6</title>
<path fill="none" stroke="#63b8ff" d="M229.21,-120.99C205.06,-111.12 165.02,-94.73 137.38,-83.43"/>
<polygon fill="#63b8ff" stroke="#63b8ff" points="138.4,-80.06 127.82,-79.52 135.75,-86.54 138.4,-80.06"/>
</g>
<!-- Node7 -->
<g id="node7" class="node">
<title>Node7</title>
<g id="a_node7"><a xlink:href="../../d4/d71/ComponentNotFoundException_8hpp.html" target="_top" xlink:title=" ">
<polygon fill="white" stroke="#666666" points="338,-85 162,-85 162,-55 338,-55 338,-85"/>
<text text-anchor="start" x="170" y="-73" font-family="Helvetica,sans-Serif" font-size="10.00">exceptions/ComponentNotFound</text>
<text text-anchor="middle" x="250" y="-62" font-family="Helvetica,sans-Serif" font-size="10.00">Exception.hpp</text>
</a>
</g>
</g>
<!-- Node5&#45;&gt;Node7 -->
<g id="edge6" class="edge">
<title>Node5&#45;&gt;Node7</title>
<path fill="none" stroke="#63b8ff" d="M250,-120.87C250,-114.11 250,-104.35 250,-95.26"/>
<polygon fill="#63b8ff" stroke="#63b8ff" points="253.5,-95.11 250,-85.11 246.5,-95.11 253.5,-95.11"/>
</g>
<!-- Node9 -->
<g id="node9" class="node">
<title>Node9</title>
<g id="a_node9"><a xlink:title=" ">
<polygon fill="#e0e0e0" stroke="#999999" points="514,-79.5 456,-79.5 456,-60.5 514,-60.5 514,-79.5"/>
<text text-anchor="middle" x="485" y="-67.5" font-family="Helvetica,sans-Serif" font-size="10.00">memory</text>
</a>
</g>
</g>
<!-- Node5&#45;&gt;Node9 -->
<g id="edge8" class="edge">
<title>Node5&#45;&gt;Node9</title>
<path fill="none" stroke="#63b8ff" d="M284.17,-120.99C327.25,-110.27 401.12,-91.88 446.25,-80.65"/>
<polygon fill="#63b8ff" stroke="#63b8ff" points="447.12,-84.04 455.97,-78.23 445.43,-77.24 447.12,-84.04"/>
</g>
<!-- Node10 -->
<g id="node10" class="node">
<title>Node10</title>
<g id="a_node10"><a xlink:title=" ">
<polygon fill="#e0e0e0" stroke="#999999" points="52,-79.5 8,-79.5 8,-60.5 52,-60.5 52,-79.5"/>
<text text-anchor="middle" x="30" y="-67.5" font-family="Helvetica,sans-Serif" font-size="10.00">string</text>
</a>
</g>
</g>
<!-- Node5&#45;&gt;Node10 -->
<g id="edge9" class="edge">
<title>Node5&#45;&gt;Node10</title>
<path fill="none" stroke="#63b8ff" d="M202.69,-121C164.02,-113.42 108.24,-101.06 61,-85 59.6,-84.52 58.18,-84.01 56.76,-83.46"/>
<polygon fill="#63b8ff" stroke="#63b8ff" points="58.04,-80.21 47.47,-79.6 55.35,-86.67 58.04,-80.21"/>
</g>
<!-- Node11 -->
<g id="node11" class="node">
<title>Node11</title>
<g id="a_node11"><a xlink:title=" ">
<polygon fill="#e0e0e0" stroke="#999999" points="403.5,-79.5 356.5,-79.5 356.5,-60.5 403.5,-60.5 403.5,-79.5"/>
<text text-anchor="middle" x="380" y="-67.5" font-family="Helvetica,sans-Serif" font-size="10.00">vector</text>
</a>
</g>
</g>
<!-- Node5&#45;&gt;Node11 -->
<g id="edge10" class="edge">
<title>Node5&#45;&gt;Node11</title>
<path fill="none" stroke="#63b8ff" d="M268.9,-120.99C290.66,-111.2 326.62,-95.02 351.71,-83.73"/>
<polygon fill="#63b8ff" stroke="#63b8ff" points="353.39,-86.81 361.07,-79.52 350.52,-80.43 353.39,-86.81"/>
</g>
<!-- Node8 -->
<g id="node8" class="node">
<title>Node8</title>
<g id="a_node8"><a xlink:title=" ">
<polygon fill="#e0e0e0" stroke="#999999" points="282.5,-19 217.5,-19 217.5,0 282.5,0 282.5,-19"/>
<text text-anchor="middle" x="250" y="-7" font-family="Helvetica,sans-Serif" font-size="10.00">exception</text>
</a>
</g>
</g>
<!-- Node7&#45;&gt;Node8 -->
<g id="edge7" class="edge">
<title>Node7&#45;&gt;Node8</title>
<path fill="none" stroke="#63b8ff" d="M250,-54.84C250,-47.21 250,-37.7 250,-29.45"/>
<polygon fill="#63b8ff" stroke="#63b8ff" points="253.5,-29.27 250,-19.27 246.5,-29.27 253.5,-29.27"/>
</g>
<!-- Node13&#45;&gt;Node5 -->
<g id="edge13" class="edge">
<title>Node13&#45;&gt;Node5</title>
<path fill="none" stroke="#63b8ff" d="M344.64,-230.95C335.2,-218.43 316.67,-194.59 299,-176 289.33,-165.82 277.72,-155.22 268.24,-146.92"/>
<polygon fill="#63b8ff" stroke="#63b8ff" points="270.4,-144.17 260.55,-140.28 265.83,-149.47 270.4,-144.17"/>
</g>
<!-- Node13&#45;&gt;Node9 -->
<g id="edge16" class="edge">
<title>Node13&#45;&gt;Node9</title>
<path fill="none" stroke="#63b8ff" d="M425.64,-235.24C453.2,-229.59 481.87,-218.04 499,-195 522.39,-163.54 505.72,-114.59 493.93,-88.6"/>
<polygon fill="#63b8ff" stroke="#63b8ff" points="497.08,-87.07 489.6,-79.56 490.76,-90.09 497.08,-87.07"/>
</g>
<!-- Node13&#45;&gt;Node11 -->
<g id="edge17" class="edge">
<title>Node13&#45;&gt;Node11</title>
<path fill="none" stroke="#63b8ff" d="M352.48,-230.91C356.96,-204.89 370.45,-126.47 376.73,-90.01"/>
<polygon fill="#63b8ff" stroke="#63b8ff" points="380.24,-90.22 378.49,-79.77 373.34,-89.03 380.24,-90.22"/>
</g>
<!-- Node13&#45;&gt;Node12 -->
<g id="edge15" class="edge">
<title>Node13&#45;&gt;Node12</title>
<path fill="none" stroke="#63b8ff" d="M332.52,-230.98C314.02,-222.46 285.32,-209.23 264.02,-199.41"/>
<polygon fill="#63b8ff" stroke="#63b8ff" points="265.36,-196.18 254.81,-195.17 262.43,-202.53 265.36,-196.18"/>
</g>
<!-- Node14 -->
<g id="node14" class="node">
<title>Node14</title>
<g id="a_node14"><a xlink:title=" ">
<polygon fill="#e0e0e0" stroke="#999999" points="490,-195 384,-195 384,-176 490,-176 490,-195"/>
<text text-anchor="middle" x="437" y="-183" font-family="Helvetica,sans-Serif" font-size="10.00">SDL3/SDL_pixels.h</text>
</a>
</g>
</g>
<!-- Node13&#45;&gt;Node14 -->
<g id="edge14" class="edge">
<title>Node13&#45;&gt;Node14</title>
<path fill="none" stroke="#63b8ff" d="M364.82,-230.98C378.15,-222.77 398.58,-210.18 414.31,-200.49"/>
<polygon fill="#63b8ff" stroke="#63b8ff" points="416.25,-203.4 422.93,-195.17 412.58,-197.44 416.25,-203.4"/>
</g>
</g>
</svg>
