<?xml version="1.0" encoding="UTF-8" standalone="no"?>
<!DOCTYPE svg PUBLIC "-//W3C//DTD SVG 1.1//EN"
 "http://www.w3.org/Graphics/SVG/1.1/DTD/svg11.dtd">
<!-- Generated by graphviz version 2.43.0 (0)
 -->
<!-- Title: RectangleRenderer Pages: 1 -->
<svg width="197pt" height="599pt"
 viewBox="0.00 0.00 197.00 599.00" xmlns="http://www.w3.org/2000/svg" xmlns:xlink="http://www.w3.org/1999/xlink">
<g id="graph0" class="graph" transform="scale(1 1) rotate(0) translate(4 595)">
<title>RectangleRenderer</title>
<!-- Node1 -->
<g id="Node000001" class="node">
<title>Node1</title>
<g id="a_Node000001"><a xlink:title="A renderer for simple rectangles.">
<polygon fill="#999999" stroke="transparent" points="165.5,-268 23.5,-268 23.5,0 165.5,0 165.5,-268"/>
<text text-anchor="start" x="47.5" y="-256" font-family="Helvetica,sans-Serif" font-size="10.00">RectangleRenderer</text>
<text text-anchor="start" x="27.5" y="-241" font-family="Helvetica,sans-Serif" font-size="10.00">#</text>
<text text-anchor="start" x="40.5" y="-241" font-family="Helvetica,sans-Serif" font-size="10.00">std::shared_ptr&lt; SDL</text>
<text text-anchor="start" x="40.5" y="-230" font-family="Helvetica,sans-Serif" font-size="10.00">_FRect &gt; renderable</text>
<text text-anchor="start" x="27.5" y="-215" font-family="Helvetica,sans-Serif" font-size="10.00">#</text>
<text text-anchor="start" x="40.5" y="-215" font-family="Helvetica,sans-Serif" font-size="10.00">std::shared_ptr&lt; Vector2</text>
<text text-anchor="start" x="40.5" y="-204" font-family="Helvetica,sans-Serif" font-size="10.00"> &gt; size</text>
<text text-anchor="start" x="27.5" y="-189" font-family="Helvetica,sans-Serif" font-size="10.00">#</text>
<text text-anchor="start" x="40.5" y="-189" font-family="Helvetica,sans-Serif" font-size="10.00">std::shared_ptr&lt; SDL</text>
<text text-anchor="start" x="40.5" y="-178" font-family="Helvetica,sans-Serif" font-size="10.00">_Color &gt; color</text>
<text text-anchor="start" x="27.5" y="-163" font-family="Helvetica,sans-Serif" font-size="10.00">+</text>
<text text-anchor="start" x="40.5" y="-163" font-family="Helvetica,sans-Serif" font-size="10.00">RectangleRenderer</text>
<text text-anchor="start" x="40.5" y="-152" font-family="Helvetica,sans-Serif" font-size="10.00">(float width, float</text>
<text text-anchor="start" x="40.5" y="-141" font-family="Helvetica,sans-Serif" font-size="10.00"> height)</text>
<text text-anchor="start" x="27.5" y="-126" font-family="Helvetica,sans-Serif" font-size="10.00">+</text>
<text text-anchor="start" x="40.5" y="-126" font-family="Helvetica,sans-Serif" font-size="10.00">~RectangleRenderer()</text>
<text text-anchor="start" x="27.5" y="-111" font-family="Helvetica,sans-Serif" font-size="10.00">+</text>
<text text-anchor="start" x="40.5" y="-111" font-family="Helvetica,sans-Serif" font-size="10.00">void setColor(Uint8</text>
<text text-anchor="start" x="40.5" y="-100" font-family="Helvetica,sans-Serif" font-size="10.00"> r, Uint8 g, Uint8 b,</text>
<text text-anchor="start" x="40.5" y="-89" font-family="Helvetica,sans-Serif" font-size="10.00"> Uint8 a)</text>
<text text-anchor="start" x="27.5" y="-74" font-family="Helvetica,sans-Serif" font-size="10.00">+</text>
<text text-anchor="start" x="40.5" y="-74" font-family="Helvetica,sans-Serif" font-size="10.00">void setSize(std::shared</text>
<text text-anchor="start" x="40.5" y="-63" font-family="Helvetica,sans-Serif" font-size="10.00">_ptr&lt; Vector2 &gt; value)</text>
<text text-anchor="start" x="27.5" y="-48" font-family="Helvetica,sans-Serif" font-size="10.00">+</text>
<text text-anchor="start" x="40.5" y="-48" font-family="Helvetica,sans-Serif" font-size="10.00">std::shared_ptr&lt; Vector2</text>
<text text-anchor="start" x="40.5" y="-37" font-family="Helvetica,sans-Serif" font-size="10.00"> &gt; getSize() const</text>
<text text-anchor="start" x="27.5" y="-22" font-family="Helvetica,sans-Serif" font-size="10.00">+</text>
<text text-anchor="start" x="40.5" y="-22" font-family="Helvetica,sans-Serif" font-size="10.00">void OnTick() override</text>
<text text-anchor="start" x="27.5" y="-7" font-family="Helvetica,sans-Serif" font-size="10.00">+</text>
<text text-anchor="start" x="40.5" y="-7" font-family="Helvetica,sans-Serif" font-size="10.00">void OnStart() override</text>
<polygon fill="#666666" stroke="#666666" points="23.5,-251 23.5,-251 165.5,-251 165.5,-251 23.5,-251"/>
<polygon fill="#666666" stroke="#666666" points="23.5,-173 23.5,-173 38.5,-173 38.5,-173 23.5,-173"/>
<polygon fill="#666666" stroke="#666666" points="38.5,-173 38.5,-173 165.5,-173 165.5,-173 38.5,-173"/>
<polygon fill="none" stroke="#666666" points="23.5,0 23.5,-268 165.5,-268 165.5,0 23.5,0"/>
</a>
</g>
</g>
<!-- Node2 -->
<g id="Node000002" class="node">
<title>Node2</title>
<g id="a_Node000002"><a xlink:href="../../d1/d52/classRenderer.html" target="_top" xlink:title="Abstract renderer component.">
<polygon fill="white" stroke="transparent" points="165.5,-394 23.5,-394 23.5,-304 165.5,-304 165.5,-394"/>
<text text-anchor="start" x="72" y="-382" font-family="Helvetica,sans-Serif" font-size="10.00">Renderer</text>
<text text-anchor="start" x="27.5" y="-367" font-family="Helvetica,sans-Serif" font-size="10.00">#</text>
<text text-anchor="start" x="40.5" y="-367" font-family="Helvetica,sans-Serif" font-size="10.00">SDL_Renderer * renderer</text>
<text text-anchor="start" x="27.5" y="-352" font-family="Helvetica,sans-Serif" font-size="10.00">+</text>
<text text-anchor="start" x="40.5" y="-352" font-family="Helvetica,sans-Serif" font-size="10.00">Renderer()</text>
<text text-anchor="start" x="27.5" y="-337" font-family="Helvetica,sans-Serif" font-size="10.00">+</text>
<text text-anchor="start" x="40.5" y="-337" font-family="Helvetica,sans-Serif" font-size="10.00">Renderer(SDL_Renderer</text>
<text text-anchor="start" x="40.5" y="-326" font-family="Helvetica,sans-Serif" font-size="10.00"> *renderer)</text>
<text text-anchor="start" x="27.5" y="-311" font-family="Helvetica,sans-Serif" font-size="10.00">+</text>
<text text-anchor="start" x="40.5" y="-311" font-family="Helvetica,sans-Serif" font-size="10.00">~Renderer()</text>
<polygon fill="#666666" stroke="#666666" points="23.5,-377 23.5,-377 165.5,-377 165.5,-377 23.5,-377"/>
<polygon fill="#666666" stroke="#666666" points="23.5,-362 23.5,-362 38.5,-362 38.5,-362 23.5,-362"/>
<polygon fill="#666666" stroke="#666666" points="38.5,-362 38.5,-362 165.5,-362 165.5,-362 38.5,-362"/>
<polygon fill="none" stroke="#666666" points="23.5,-304 23.5,-394 165.5,-394 165.5,-304 23.5,-304"/>
</a>
</g>
</g>
<!-- Node2&#45;&gt;Node1 -->
<g id="edge1_Node000001_Node000002" class="edge">
<title>Node2&#45;&gt;Node1</title>
<g id="a_edge1_Node000001_Node000002"><a xlink:title=" ">
<path fill="none" stroke="#63b8ff" d="M94.5,-293.6C94.5,-285.55 94.5,-276.97 94.5,-268.13"/>
<polygon fill="none" stroke="#63b8ff" points="91,-293.87 94.5,-303.87 98,-293.87 91,-293.87"/>
</a>
</g>
</g>
<!-- Node3 -->
<g id="Node000003" class="node">
<title>Node3</title>
<g id="a_Node000003"><a xlink:href="../../d9/df7/classGameObjectComponent.html" target="_top" xlink:title="An abstract gameobject component. Has an OnTick and OnStart method. Subclasses may be registered to a...">
<polygon fill="white" stroke="transparent" points="189,-591 0,-591 0,-430 189,-430 189,-591"/>
<text text-anchor="start" x="36" y="-578.5" font-family="Helvetica,sans-Serif" font-size="10.00">GameObjectComponent</text>
<text text-anchor="start" x="4.5" y="-563.5" font-family="Helvetica,sans-Serif" font-size="10.00">#</text>
<text text-anchor="start" x="17.5" y="-563.5" font-family="Helvetica,sans-Serif" font-size="10.00">bool enabled</text>
<text text-anchor="start" x="4.5" y="-548.5" font-family="Helvetica,sans-Serif" font-size="10.00">#</text>
<text text-anchor="start" x="17.5" y="-548.5" font-family="Helvetica,sans-Serif" font-size="10.00">GameObject * parent</text>
<text text-anchor="start" x="4.5" y="-533.5" font-family="Helvetica,sans-Serif" font-size="10.00">+</text>
<text text-anchor="start" x="17.5" y="-533.5" font-family="Helvetica,sans-Serif" font-size="10.00">bool getEnabled() const</text>
<text text-anchor="start" x="4.5" y="-518.5" font-family="Helvetica,sans-Serif" font-size="10.00">+</text>
<text text-anchor="start" x="17.5" y="-518.5" font-family="Helvetica,sans-Serif" font-size="10.00">void setEnabled(bool</text>
<text text-anchor="start" x="17.5" y="-507.5" font-family="Helvetica,sans-Serif" font-size="10.00"> value)</text>
<text text-anchor="start" x="4.5" y="-492.5" font-family="Helvetica,sans-Serif" font-size="10.00">+</text>
<text text-anchor="start" x="17.5" y="-492.5" font-family="Helvetica,sans-Serif" font-size="10.00">void setParent(GameObject</text>
<text text-anchor="start" x="17.5" y="-481.5" font-family="Helvetica,sans-Serif" font-size="10.00"> *value)</text>
<text text-anchor="start" x="4.5" y="-466.5" font-family="Helvetica,sans-Serif" font-size="10.00">+</text>
<text text-anchor="start" x="17.5" y="-466.5" font-family="Helvetica,sans-Serif" font-size="10.00">virtual ~GameObjectComponent()</text>
<text text-anchor="start" x="4.5" y="-451.5" font-family="Helvetica,sans-Serif" font-size="10.00">+</text>
<text text-anchor="start" x="17.5" y="-451.5" font-family="Helvetica,sans-Serif" font-size="10.00">virtual void OnTick()=0</text>
<text text-anchor="start" x="4.5" y="-436.5" font-family="Helvetica,sans-Serif" font-size="10.00">+</text>
<text text-anchor="start" x="17.5" y="-436.5" font-family="Helvetica,sans-Serif" font-size="10.00">virtual void OnStart()=0</text>
<polygon fill="#666666" stroke="#666666" points="0.5,-573.5 0.5,-573.5 189.5,-573.5 189.5,-573.5 0.5,-573.5"/>
<polygon fill="#666666" stroke="#666666" points="0.5,-543.5 0.5,-543.5 15.5,-543.5 15.5,-543.5 0.5,-543.5"/>
<polygon fill="#666666" stroke="#666666" points="15.5,-543.5 15.5,-543.5 189.5,-543.5 189.5,-543.5 15.5,-543.5"/>
<polygon fill="none" stroke="#666666" points="0,-430 0,-591 189,-591 189,-430 0,-430"/>
</a>
</g>
</g>
<!-- Node3&#45;&gt;Node2 -->
<g id="edge2_Node000002_Node000003" class="edge">
<title>Node3&#45;&gt;Node2</title>
<g id="a_edge2_Node000002_Node000003"><a xlink:title=" ">
<path fill="none" stroke="#63b8ff" d="M94.5,-419.68C94.5,-410.8 94.5,-402.1 94.5,-394.01"/>
<polygon fill="none" stroke="#63b8ff" points="91,-419.75 94.5,-429.75 98,-419.75 91,-419.75"/>
</a>
</g>
</g>
</g>
</svg>
