<?xml version="1.0" encoding="UTF-8" standalone="no"?>
<!DOCTYPE svg PUBLIC "-//W3C//DTD SVG 1.1//EN"
 "http://www.w3.org/Graphics/SVG/1.1/DTD/svg11.dtd">
<!-- Generated by graphviz version 2.43.0 (0)
 -->
<!-- Title: CollisionBehavior Pages: 1 -->
<svg width="554pt" height="695pt"
 viewBox="0.00 0.00 554.00 695.00" xmlns="http://www.w3.org/2000/svg" xmlns:xlink="http://www.w3.org/1999/xlink">
<g id="graph0" class="graph" transform="scale(1 1) rotate(0) translate(4 691)">
<title>CollisionBehavior</title>
<!-- Node1 -->
<g id="Node000001" class="node">
<title>Node1</title>
<g id="a_Node000001"><a xlink:title="Controlls collision of an object with other objects that also have this or a child component.">
<polygon fill="#999999" stroke="transparent" points="358,-405 188,-405 188,-163 358,-163 358,-405"/>
<text text-anchor="start" x="230" y="-393" font-family="Helvetica,sans-Serif" font-size="10.00">CollisionBehavior</text>
<text text-anchor="start" x="192" y="-378" font-family="Helvetica,sans-Serif" font-size="10.00">#</text>
<text text-anchor="start" x="205" y="-378" font-family="Helvetica,sans-Serif" font-size="10.00">std::shared_ptr&lt; Vector2</text>
<text text-anchor="start" x="205" y="-367" font-family="Helvetica,sans-Serif" font-size="10.00"> &gt; colliderSize</text>
<text text-anchor="start" x="192" y="-352" font-family="Helvetica,sans-Serif" font-size="10.00">+</text>
<text text-anchor="start" x="205" y="-352" font-family="Helvetica,sans-Serif" font-size="10.00">bool IsPointInsideCollider</text>
<text text-anchor="start" x="205" y="-341" font-family="Helvetica,sans-Serif" font-size="10.00">(Vector2 position)</text>
<text text-anchor="start" x="192" y="-326" font-family="Helvetica,sans-Serif" font-size="10.00">+</text>
<text text-anchor="start" x="205" y="-326" font-family="Helvetica,sans-Serif" font-size="10.00">void OnTick() override</text>
<text text-anchor="start" x="192" y="-311" font-family="Helvetica,sans-Serif" font-size="10.00">+</text>
<text text-anchor="start" x="205" y="-311" font-family="Helvetica,sans-Serif" font-size="10.00">void OnStart() override</text>
<text text-anchor="start" x="192" y="-296" font-family="Helvetica,sans-Serif" font-size="10.00">+</text>
<text text-anchor="start" x="205" y="-296" font-family="Helvetica,sans-Serif" font-size="10.00">const std::shared_ptr</text>
<text text-anchor="start" x="205" y="-285" font-family="Helvetica,sans-Serif" font-size="10.00">&lt; Vector2 &gt; getColliderSize()</text>
<text text-anchor="start" x="192" y="-270" font-family="Helvetica,sans-Serif" font-size="10.00">+</text>
<text text-anchor="start" x="205" y="-270" font-family="Helvetica,sans-Serif" font-size="10.00">virtual void BeforeCollision</text>
<text text-anchor="start" x="205" y="-259" font-family="Helvetica,sans-Serif" font-size="10.00">(std::shared_ptr&lt; GameObject</text>
<text text-anchor="start" x="205" y="-248" font-family="Helvetica,sans-Serif" font-size="10.00"> &gt; other)</text>
<text text-anchor="start" x="192" y="-233" font-family="Helvetica,sans-Serif" font-size="10.00">+</text>
<text text-anchor="start" x="205" y="-233" font-family="Helvetica,sans-Serif" font-size="10.00">CollisionBehavior()</text>
<text text-anchor="start" x="192" y="-218" font-family="Helvetica,sans-Serif" font-size="10.00">+</text>
<text text-anchor="start" x="205" y="-218" font-family="Helvetica,sans-Serif" font-size="10.00">CollisionBehavior</text>
<text text-anchor="start" x="205" y="-207" font-family="Helvetica,sans-Serif" font-size="10.00">(int x, int y)</text>
<text text-anchor="start" x="192" y="-192" font-family="Helvetica,sans-Serif" font-size="10.00">#</text>
<text text-anchor="start" x="205" y="-192" font-family="Helvetica,sans-Serif" font-size="10.00">bool CheckForCollision</text>
<text text-anchor="start" x="205" y="-181" font-family="Helvetica,sans-Serif" font-size="10.00">(std::shared_ptr&lt; GameObject</text>
<text text-anchor="start" x="205" y="-170" font-family="Helvetica,sans-Serif" font-size="10.00"> &gt; other)</text>
<polygon fill="#666666" stroke="#666666" points="188,-388 188,-388 358,-388 358,-388 188,-388"/>
<polygon fill="#666666" stroke="#666666" points="188,-362 188,-362 203,-362 203,-362 188,-362"/>
<polygon fill="#666666" stroke="#666666" points="203,-362 203,-362 358,-362 358,-362 203,-362"/>
<polygon fill="none" stroke="#666666" points="188,-163 188,-405 358,-405 358,-163 188,-163"/>
</a>
</g>
</g>
<!-- Node4 -->
<g id="Node000004" class="node">
<title>Node4</title>
<g id="a_Node000004"><a xlink:href="../../dd/dcf/classCoffeeCollisionBehavior.html" target="_top" xlink:title="Controlls the behavior of a coffee on collision.">
<polygon fill="white" stroke="transparent" points="170,-127 0,-127 0,0 170,0 170,-127"/>
<text text-anchor="start" x="26" y="-114.5" font-family="Helvetica,sans-Serif" font-size="10.00">CoffeeCollisionBehavior</text>
<text text-anchor="start" x="83" y="-99.5" font-family="Helvetica,sans-Serif" font-size="10.00"> </text>
<text text-anchor="start" x="4" y="-84.5" font-family="Helvetica,sans-Serif" font-size="10.00">+</text>
<text text-anchor="start" x="17" y="-84.5" font-family="Helvetica,sans-Serif" font-size="10.00">CoffeeCollisionBehavior()</text>
<text text-anchor="start" x="4" y="-69.5" font-family="Helvetica,sans-Serif" font-size="10.00">+</text>
<text text-anchor="start" x="17" y="-69.5" font-family="Helvetica,sans-Serif" font-size="10.00">CoffeeCollisionBehavior</text>
<text text-anchor="start" x="17" y="-58.5" font-family="Helvetica,sans-Serif" font-size="10.00">(int x, int y)</text>
<text text-anchor="start" x="4" y="-43.5" font-family="Helvetica,sans-Serif" font-size="10.00">+</text>
<text text-anchor="start" x="17" y="-43.5" font-family="Helvetica,sans-Serif" font-size="10.00">~CoffeeCollisionBehavior()</text>
<text text-anchor="start" x="4" y="-28.5" font-family="Helvetica,sans-Serif" font-size="10.00">+</text>
<text text-anchor="start" x="17" y="-28.5" font-family="Helvetica,sans-Serif" font-size="10.00">virtual void BeforeCollision</text>
<text text-anchor="start" x="17" y="-17.5" font-family="Helvetica,sans-Serif" font-size="10.00">(std::shared_ptr&lt; GameObject</text>
<text text-anchor="start" x="17" y="-6.5" font-family="Helvetica,sans-Serif" font-size="10.00"> &gt; other) override</text>
<polygon fill="#666666" stroke="#666666" points="0,-109.5 0,-109.5 170,-109.5 170,-109.5 0,-109.5"/>
<polygon fill="#666666" stroke="#666666" points="0,-94.5 0,-94.5 170,-94.5 170,-94.5 0,-94.5"/>
<polygon fill="none" stroke="#666666" points="0,0 0,-127 170,-127 170,0 0,0"/>
</a>
</g>
</g>
<!-- Node1&#45;&gt;Node4 -->
<g id="edge3_Node000001_Node000004" class="edge">
<title>Node1&#45;&gt;Node4</title>
<g id="a_edge3_Node000001_Node000004"><a xlink:title=" ">
<path fill="none" stroke="#63b8ff" d="M181.17,-176.27C166.71,-159.46 152.18,-142.58 138.95,-127.2"/>
<polygon fill="none" stroke="#63b8ff" points="178.63,-178.68 187.8,-183.98 183.93,-174.12 178.63,-178.68"/>
</a>
</g>
</g>
<!-- Node5 -->
<g id="Node000005" class="node">
<title>Node5</title>
<g id="a_Node000005"><a xlink:href="../../d1/d1b/classEnemyCollisionBehavior.html" target="_top" xlink:title="Controlls the behavior of an enemy on collision.">
<polygon fill="white" stroke="transparent" points="358,-119.5 188,-119.5 188,-7.5 358,-7.5 358,-119.5"/>
<text text-anchor="start" x="213" y="-107.5" font-family="Helvetica,sans-Serif" font-size="10.00">EnemyCollisionBehavior</text>
<text text-anchor="start" x="271" y="-92.5" font-family="Helvetica,sans-Serif" font-size="10.00"> </text>
<text text-anchor="start" x="192" y="-77.5" font-family="Helvetica,sans-Serif" font-size="10.00">+</text>
<text text-anchor="start" x="205" y="-77.5" font-family="Helvetica,sans-Serif" font-size="10.00">EnemyCollisionBehavior()</text>
<text text-anchor="start" x="192" y="-62.5" font-family="Helvetica,sans-Serif" font-size="10.00">+</text>
<text text-anchor="start" x="205" y="-62.5" font-family="Helvetica,sans-Serif" font-size="10.00">EnemyCollisionBehavior</text>
<text text-anchor="start" x="205" y="-51.5" font-family="Helvetica,sans-Serif" font-size="10.00">(int x, int y)</text>
<text text-anchor="start" x="192" y="-36.5" font-family="Helvetica,sans-Serif" font-size="10.00">+</text>
<text text-anchor="start" x="205" y="-36.5" font-family="Helvetica,sans-Serif" font-size="10.00">virtual void BeforeCollision</text>
<text text-anchor="start" x="205" y="-25.5" font-family="Helvetica,sans-Serif" font-size="10.00">(std::shared_ptr&lt; GameObject</text>
<text text-anchor="start" x="205" y="-14.5" font-family="Helvetica,sans-Serif" font-size="10.00"> &gt; other) override</text>
<polygon fill="#666666" stroke="#666666" points="188,-102.5 188,-102.5 358,-102.5 358,-102.5 188,-102.5"/>
<polygon fill="#666666" stroke="#666666" points="188,-87.5 188,-87.5 358,-87.5 358,-87.5 188,-87.5"/>
<polygon fill="none" stroke="#666666" points="188,-7.5 188,-119.5 358,-119.5 358,-7.5 188,-7.5"/>
</a>
</g>
</g>
<!-- Node1&#45;&gt;Node5 -->
<g id="edge4_Node000001_Node000005" class="edge">
<title>Node1&#45;&gt;Node5</title>
<g id="a_edge4_Node000001_Node000005"><a xlink:title=" ">
<path fill="none" stroke="#63b8ff" d="M273,-152.7C273,-141.18 273,-129.99 273,-119.66"/>
<polygon fill="none" stroke="#63b8ff" points="269.5,-152.88 273,-162.88 276.5,-152.88 269.5,-152.88"/>
</a>
</g>
</g>
<!-- Node6 -->
<g id="Node000006" class="node">
<title>Node6</title>
<g id="a_Node000006"><a xlink:href="../../d0/d31/classPlayerCollisionBehavior.html" target="_top" xlink:title="The players collision behavior.">
<polygon fill="white" stroke="transparent" points="546,-119.5 376,-119.5 376,-7.5 546,-7.5 546,-119.5"/>
<text text-anchor="start" x="402.5" y="-107.5" font-family="Helvetica,sans-Serif" font-size="10.00">PlayerCollisionBehavior</text>
<text text-anchor="start" x="459" y="-92.5" font-family="Helvetica,sans-Serif" font-size="10.00"> </text>
<text text-anchor="start" x="380" y="-77.5" font-family="Helvetica,sans-Serif" font-size="10.00">+</text>
<text text-anchor="start" x="393" y="-77.5" font-family="Helvetica,sans-Serif" font-size="10.00">PlayerCollisionBehavior()</text>
<text text-anchor="start" x="380" y="-62.5" font-family="Helvetica,sans-Serif" font-size="10.00">+</text>
<text text-anchor="start" x="393" y="-62.5" font-family="Helvetica,sans-Serif" font-size="10.00">PlayerCollisionBehavior</text>
<text text-anchor="start" x="393" y="-51.5" font-family="Helvetica,sans-Serif" font-size="10.00">(int x, int y)</text>
<text text-anchor="start" x="380" y="-36.5" font-family="Helvetica,sans-Serif" font-size="10.00">+</text>
<text text-anchor="start" x="393" y="-36.5" font-family="Helvetica,sans-Serif" font-size="10.00">virtual void BeforeCollision</text>
<text text-anchor="start" x="393" y="-25.5" font-family="Helvetica,sans-Serif" font-size="10.00">(std::shared_ptr&lt; GameObject</text>
<text text-anchor="start" x="393" y="-14.5" font-family="Helvetica,sans-Serif" font-size="10.00"> &gt; other) override</text>
<polygon fill="#666666" stroke="#666666" points="376,-102.5 376,-102.5 546,-102.5 546,-102.5 376,-102.5"/>
<polygon fill="#666666" stroke="#666666" points="376,-87.5 376,-87.5 546,-87.5 546,-87.5 376,-87.5"/>
<polygon fill="none" stroke="#666666" points="376,-7.5 376,-119.5 546,-119.5 546,-7.5 376,-7.5"/>
</a>
</g>
</g>
<!-- Node1&#45;&gt;Node6 -->
<g id="edge5_Node000001_Node000006" class="edge">
<title>Node1&#45;&gt;Node6</title>
<g id="a_edge5_Node000001_Node000006"><a xlink:title=" ">
<path fill="none" stroke="#63b8ff" d="M364.91,-176.18C381.78,-156.57 398.74,-136.86 413.62,-119.57"/>
<polygon fill="none" stroke="#63b8ff" points="362.07,-174.12 358.2,-183.98 367.37,-178.68 362.07,-174.12"/>
</a>
</g>
</g>
<!-- Node2 -->
<g id="Node000002" class="node">
<title>Node2</title>
<g id="a_Node000002"><a xlink:href="../../df/dc1/classBehavior.html" target="_top" xlink:title="An abstract gameobject behavior.">
<polygon fill="white" stroke="transparent" points="300,-490 246,-490 246,-441 300,-441 300,-490"/>
<text text-anchor="start" x="251" y="-477.5" font-family="Helvetica,sans-Serif" font-size="10.00">Behavior</text>
<text text-anchor="start" x="271" y="-462.5" font-family="Helvetica,sans-Serif" font-size="10.00"> </text>
<text text-anchor="start" x="271" y="-447.5" font-family="Helvetica,sans-Serif" font-size="10.00"> </text>
<polygon fill="#666666" stroke="#666666" points="246,-472.5 246,-472.5 300,-472.5 300,-472.5 246,-472.5"/>
<polygon fill="#666666" stroke="#666666" points="246,-457.5 246,-457.5 300,-457.5 300,-457.5 246,-457.5"/>
<polygon fill="none" stroke="#666666" points="246,-441 246,-490 300,-490 300,-441 246,-441"/>
</a>
</g>
</g>
<!-- Node2&#45;&gt;Node1 -->
<g id="edge1_Node000001_Node000002" class="edge">
<title>Node2&#45;&gt;Node1</title>
<g id="a_edge1_Node000001_Node000002"><a xlink:title=" ">
<path fill="none" stroke="#63b8ff" d="M273,-430.44C273,-422.75 273,-414.17 273,-405.11"/>
<polygon fill="none" stroke="#63b8ff" points="269.5,-430.66 273,-440.66 276.5,-430.66 269.5,-430.66"/>
</a>
</g>
</g>
<!-- Node3 -->
<g id="Node000003" class="node">
<title>Node3</title>
<g id="a_Node000003"><a xlink:href="../../d9/df7/classGameObjectComponent.html" target="_top" xlink:title="An abstract gameobject component.">
<polygon fill="white" stroke="transparent" points="367.5,-687 178.5,-687 178.5,-526 367.5,-526 367.5,-687"/>
<text text-anchor="start" x="214.5" y="-674.5" font-family="Helvetica,sans-Serif" font-size="10.00">GameObjectComponent</text>
<text text-anchor="start" x="183" y="-659.5" font-family="Helvetica,sans-Serif" font-size="10.00">#</text>
<text text-anchor="start" x="196" y="-659.5" font-family="Helvetica,sans-Serif" font-size="10.00">bool enabled</text>
<text text-anchor="start" x="183" y="-644.5" font-family="Helvetica,sans-Serif" font-size="10.00">#</text>
<text text-anchor="start" x="196" y="-644.5" font-family="Helvetica,sans-Serif" font-size="10.00">GameObject * parent</text>
<text text-anchor="start" x="183" y="-629.5" font-family="Helvetica,sans-Serif" font-size="10.00">+</text>
<text text-anchor="start" x="196" y="-629.5" font-family="Helvetica,sans-Serif" font-size="10.00">bool getEnabled() const</text>
<text text-anchor="start" x="183" y="-614.5" font-family="Helvetica,sans-Serif" font-size="10.00">+</text>
<text text-anchor="start" x="196" y="-614.5" font-family="Helvetica,sans-Serif" font-size="10.00">void setEnabled(bool</text>
<text text-anchor="start" x="196" y="-603.5" font-family="Helvetica,sans-Serif" font-size="10.00"> value)</text>
<text text-anchor="start" x="183" y="-588.5" font-family="Helvetica,sans-Serif" font-size="10.00">+</text>
<text text-anchor="start" x="196" y="-588.5" font-family="Helvetica,sans-Serif" font-size="10.00">void setParent(GameObject</text>
<text text-anchor="start" x="196" y="-577.5" font-family="Helvetica,sans-Serif" font-size="10.00"> *value)</text>
<text text-anchor="start" x="183" y="-562.5" font-family="Helvetica,sans-Serif" font-size="10.00">+</text>
<text text-anchor="start" x="196" y="-562.5" font-family="Helvetica,sans-Serif" font-size="10.00">virtual ~GameObjectComponent()</text>
<text text-anchor="start" x="183" y="-547.5" font-family="Helvetica,sans-Serif" font-size="10.00">+</text>
<text text-anchor="start" x="196" y="-547.5" font-family="Helvetica,sans-Serif" font-size="10.00">virtual void OnTick()=0</text>
<text text-anchor="start" x="183" y="-532.5" font-family="Helvetica,sans-Serif" font-size="10.00">+</text>
<text text-anchor="start" x="196" y="-532.5" font-family="Helvetica,sans-Serif" font-size="10.00">virtual void OnStart()=0</text>
<polygon fill="#666666" stroke="#666666" points="179,-669.5 179,-669.5 368,-669.5 368,-669.5 179,-669.5"/>
<polygon fill="#666666" stroke="#666666" points="179,-639.5 179,-639.5 194,-639.5 194,-639.5 179,-639.5"/>
<polygon fill="#666666" stroke="#666666" points="194,-639.5 194,-639.5 368,-639.5 368,-639.5 194,-639.5"/>
<polygon fill="none" stroke="#666666" points="178.5,-526 178.5,-687 367.5,-687 367.5,-526 178.5,-526"/>
</a>
</g>
</g>
<!-- Node3&#45;&gt;Node2 -->
<g id="edge2_Node000002_Node000003" class="edge">
<title>Node3&#45;&gt;Node2</title>
<g id="a_edge2_Node000002_Node000003"><a xlink:title=" ">
<path fill="none" stroke="#63b8ff" d="M273,-515.64C273,-506.4 273,-497.68 273,-490.22"/>
<polygon fill="none" stroke="#63b8ff" points="269.5,-515.85 273,-525.85 276.5,-515.85 269.5,-515.85"/>
</a>
</g>
</g>
</g>
</svg>
