<?xml version="1.0" encoding="UTF-8" standalone="no"?>
<!DOCTYPE svg PUBLIC "-//W3C//DTD SVG 1.1//EN"
 "http://www.w3.org/Graphics/SVG/1.1/DTD/svg11.dtd">
<!-- Generated by graphviz version 2.43.0 (0)
 -->
<!-- Title: CollisionBehavior Pages: 1 -->
<!--zoomable 667 -->
<svg id="main" version="1.1" xmlns="http://www.w3.org/2000/svg" xmlns:xlink="http://www.w3.org/1999/xlink" xml:space="preserve" onload="init(evt)">
<style type="text/css"><![CDATA[
.edge:hover path { stroke: red; }
.edge:hover polygon { stroke: red; fill: red; }
]]></style>
<script type="text/javascript"><![CDATA[
var edges = document.getElementsByTagName('g');
if (edges && edges.length) {
  for (var i=0;i<edges.length;i++) {
    if (edges[i].id.substr(0,4)=='edge') {
      edges[i].setAttribute('class','edge');
    }
  }
}
]]></script>
        <defs>
                <circle id="rim" cx="0" cy="0" r="7"/>
                <circle id="rim2" cx="0" cy="0" r="3.5"/>
                <g id="zoomPlus">
                        <use xlink:href="#rim" fill="#404040">
                                <set attributeName="fill" to="#808080" begin="zoomplus.mouseover" end="zoomplus.mouseout"/>
                        </use>
                        <path d="M-4,0h8M0,-4v8" fill="none" stroke="white" stroke-width="1.5" pointer-events="none"/>
                </g>
                <g id="zoomMin">
                        <use xlink:href="#rim" fill="#404040">
                                <set attributeName="fill" to="#808080" begin="zoomminus.mouseover" end="zoomminus.mouseout"/>
                        </use>
                        <path d="M-4,0h8" fill="none" stroke="white" stroke-width="1.5" pointer-events="none"/>
                </g>
                <g id="dirArrow">
                        <path fill="none" stroke="white" stroke-width="1.5" d="M0,-3.0v7 M-2.5,-0.5L0,-3.0L2.5,-0.5"/>
                </g>
               <g id="resetDef">
                       <use xlink:href="#rim2" fill="#404040">
                               <set attributeName="fill" to="#808080" begin="reset.mouseover" end="reset.mouseout"/>
                       </use>
               </g>
        </defs>

<script type="text/javascript">
var viewWidth = 539;
var viewHeight = 667;
var sectionId = 'dynsection-0';
</script>
<script xlink:href="../../svgpan.js"/>
<svg id="graph" class="graph">
<g id="viewport">
<title>CollisionBehavior</title>
<!-- Node1 -->
<g id="node1" class="node">
<title>Node1</title>
<g id="a_node1"><a xlink:title="Controlls collision of an object with other objects that also have this or a child component.">
<polygon fill="#999999" stroke="#666666" points="183,-160.5 183,-382.5 348,-382.5 348,-160.5 183,-160.5"/>
<text text-anchor="middle" x="265.5" y="-370.5" font-family="Helvetica,sans-Serif" font-size="10.00">CollisionBehavior</text>
<polyline fill="none" stroke="#666666" points="183,-363.5 348,-363.5 "/>
<text text-anchor="start" x="191" y="-351.5" font-family="Helvetica,sans-Serif" font-size="10.00"># std::shared_ptr&lt; Vector2</text>
<text text-anchor="start" x="191" y="-340.5" font-family="Helvetica,sans-Serif" font-size="10.00"> &gt; colliderSize</text>
<polyline fill="none" stroke="#666666" points="183,-333.5 348,-333.5 "/>
<text text-anchor="start" x="191" y="-321.5" font-family="Helvetica,sans-Serif" font-size="10.00">+ bool IsPointInsideCollider</text>
<text text-anchor="start" x="191" y="-310.5" font-family="Helvetica,sans-Serif" font-size="10.00">(Vector2 position)</text>
<text text-anchor="start" x="191" y="-299.5" font-family="Helvetica,sans-Serif" font-size="10.00">+ void OnTick() override</text>
<text text-anchor="start" x="191" y="-288.5" font-family="Helvetica,sans-Serif" font-size="10.00">+ void OnStart() override</text>
<text text-anchor="start" x="191" y="-277.5" font-family="Helvetica,sans-Serif" font-size="10.00">+ const std::shared_ptr</text>
<text text-anchor="start" x="191" y="-266.5" font-family="Helvetica,sans-Serif" font-size="10.00">&lt; Vector2 &gt; getColliderSize()</text>
<text text-anchor="start" x="191" y="-255.5" font-family="Helvetica,sans-Serif" font-size="10.00">+ virtual void BeforeCollision</text>
<text text-anchor="start" x="191" y="-244.5" font-family="Helvetica,sans-Serif" font-size="10.00">(std::shared_ptr&lt; GameObject</text>
<text text-anchor="start" x="191" y="-233.5" font-family="Helvetica,sans-Serif" font-size="10.00"> &gt; other)</text>
<text text-anchor="start" x="191" y="-222.5" font-family="Helvetica,sans-Serif" font-size="10.00">+ CollisionBehavior()</text>
<text text-anchor="start" x="191" y="-211.5" font-family="Helvetica,sans-Serif" font-size="10.00">+ CollisionBehavior</text>
<text text-anchor="start" x="191" y="-200.5" font-family="Helvetica,sans-Serif" font-size="10.00">(int x, int y)</text>
<text text-anchor="start" x="191" y="-189.5" font-family="Helvetica,sans-Serif" font-size="10.00"># bool CheckForCollision</text>
<text text-anchor="start" x="191" y="-178.5" font-family="Helvetica,sans-Serif" font-size="10.00">(std::shared_ptr&lt; GameObject</text>
<text text-anchor="start" x="191" y="-167.5" font-family="Helvetica,sans-Serif" font-size="10.00"> &gt; other)</text>
</a>
</g>
</g>
<!-- Node4 -->
<g id="node4" class="node">
<title>Node4</title>
<g id="a_node4"><a xlink:href="../../dd/dcf/classCoffeeCollisionBehavior.html" target="_top" xlink:title=" ">
<polygon fill="white" stroke="#666666" points="0,-0.5 0,-123.5 165,-123.5 165,-0.5 0,-0.5"/>
<text text-anchor="middle" x="82.5" y="-111.5" font-family="Helvetica,sans-Serif" font-size="10.00">CoffeeCollisionBehavior</text>
<polyline fill="none" stroke="#666666" points="0,-104.5 165,-104.5 "/>
<text text-anchor="middle" x="82.5" y="-92.5" font-family="Helvetica,sans-Serif" font-size="10.00"> </text>
<polyline fill="none" stroke="#666666" points="0,-85.5 165,-85.5 "/>
<text text-anchor="start" x="8" y="-73.5" font-family="Helvetica,sans-Serif" font-size="10.00">+ CoffeeCollisionBehavior()</text>
<text text-anchor="start" x="8" y="-62.5" font-family="Helvetica,sans-Serif" font-size="10.00">+ CoffeeCollisionBehavior</text>
<text text-anchor="start" x="8" y="-51.5" font-family="Helvetica,sans-Serif" font-size="10.00">(int x, int y)</text>
<text text-anchor="start" x="8" y="-40.5" font-family="Helvetica,sans-Serif" font-size="10.00">+ ~CoffeeCollisionBehavior()</text>
<text text-anchor="start" x="8" y="-29.5" font-family="Helvetica,sans-Serif" font-size="10.00">+ virtual void BeforeCollision</text>
<text text-anchor="start" x="8" y="-18.5" font-family="Helvetica,sans-Serif" font-size="10.00">(std::shared_ptr&lt; GameObject</text>
<text text-anchor="start" x="8" y="-7.5" font-family="Helvetica,sans-Serif" font-size="10.00"> &gt; other) override</text>
</a>
</g>
</g>
<!-- Node1&#45;&gt;Node4 -->
<g id="edge3" class="edge">
<title>Node1&#45;&gt;Node4</title>
<path fill="none" stroke="#63b8ff" d="M176.1,-169.14C162.38,-153.57 148.58,-137.93 135.97,-123.62"/>
<polygon fill="none" stroke="#63b8ff" points="173.59,-171.58 182.83,-176.77 178.84,-166.95 173.59,-171.58"/>
</g>
<!-- Node5 -->
<g id="node5" class="node">
<title>Node5</title>
<g id="a_node5"><a xlink:href="../../d1/d1b/classEnemyCollisionBehavior.html" target="_top" xlink:title=" ">
<polygon fill="white" stroke="#666666" points="183,-6 183,-118 348,-118 348,-6 183,-6"/>
<text text-anchor="middle" x="265.5" y="-106" font-family="Helvetica,sans-Serif" font-size="10.00">EnemyCollisionBehavior</text>
<polyline fill="none" stroke="#666666" points="183,-99 348,-99 "/>
<text text-anchor="middle" x="265.5" y="-87" font-family="Helvetica,sans-Serif" font-size="10.00"> </text>
<polyline fill="none" stroke="#666666" points="183,-80 348,-80 "/>
<text text-anchor="start" x="191" y="-68" font-family="Helvetica,sans-Serif" font-size="10.00">+ EnemyCollisionBehavior()</text>
<text text-anchor="start" x="191" y="-57" font-family="Helvetica,sans-Serif" font-size="10.00">+ EnemyCollisionBehavior</text>
<text text-anchor="start" x="191" y="-46" font-family="Helvetica,sans-Serif" font-size="10.00">(int x, int y)</text>
<text text-anchor="start" x="191" y="-35" font-family="Helvetica,sans-Serif" font-size="10.00">+ virtual void BeforeCollision</text>
<text text-anchor="start" x="191" y="-24" font-family="Helvetica,sans-Serif" font-size="10.00">(std::shared_ptr&lt; GameObject</text>
<text text-anchor="start" x="191" y="-13" font-family="Helvetica,sans-Serif" font-size="10.00"> &gt; other) override</text>
</a>
</g>
</g>
<!-- Node1&#45;&gt;Node5 -->
<g id="edge4" class="edge">
<title>Node1&#45;&gt;Node5</title>
<path fill="none" stroke="#63b8ff" d="M265.5,-150.12C265.5,-139.01 265.5,-128.17 265.5,-118.11"/>
<polygon fill="none" stroke="#63b8ff" points="262,-150.37 265.5,-160.37 269,-150.37 262,-150.37"/>
</g>
<!-- Node6 -->
<g id="node6" class="node">
<title>Node6</title>
<g id="a_node6"><a xlink:href="../../d0/d31/classPlayerCollisionBehavior.html" target="_top" xlink:title="The players collision behavior.">
<polygon fill="white" stroke="#666666" points="366,-6 366,-118 531,-118 531,-6 366,-6"/>
<text text-anchor="middle" x="448.5" y="-106" font-family="Helvetica,sans-Serif" font-size="10.00">PlayerCollisionBehavior</text>
<polyline fill="none" stroke="#666666" points="366,-99 531,-99 "/>
<text text-anchor="middle" x="448.5" y="-87" font-family="Helvetica,sans-Serif" font-size="10.00"> </text>
<polyline fill="none" stroke="#666666" points="366,-80 531,-80 "/>
<text text-anchor="start" x="374" y="-68" font-family="Helvetica,sans-Serif" font-size="10.00">+ PlayerCollisionBehavior()</text>
<text text-anchor="start" x="374" y="-57" font-family="Helvetica,sans-Serif" font-size="10.00">+ PlayerCollisionBehavior</text>
<text text-anchor="start" x="374" y="-46" font-family="Helvetica,sans-Serif" font-size="10.00">(int x, int y)</text>
<text text-anchor="start" x="374" y="-35" font-family="Helvetica,sans-Serif" font-size="10.00">+ virtual void BeforeCollision</text>
<text text-anchor="start" x="374" y="-24" font-family="Helvetica,sans-Serif" font-size="10.00">(std::shared_ptr&lt; GameObject</text>
<text text-anchor="start" x="374" y="-13" font-family="Helvetica,sans-Serif" font-size="10.00"> &gt; other) override</text>
</a>
</g>
</g>
<!-- Node1&#45;&gt;Node6 -->
<g id="edge5" class="edge">
<title>Node1&#45;&gt;Node6</title>
<path fill="none" stroke="#63b8ff" d="M354.82,-169.22C370.38,-151.58 386.03,-133.84 399.95,-118.05"/>
<polygon fill="none" stroke="#63b8ff" points="352.16,-166.95 348.17,-176.77 357.41,-171.58 352.16,-166.95"/>
</g>
<!-- Node2 -->
<g id="node2" class="node">
<title>Node2</title>
<g id="a_node2"><a xlink:href="../../df/dc1/classBehavior.html" target="_top" xlink:title="An abstract gameobject behavior.">
<polygon fill="white" stroke="#666666" points="235.5,-419.5 235.5,-476.5 295.5,-476.5 295.5,-419.5 235.5,-419.5"/>
<text text-anchor="middle" x="265.5" y="-464.5" font-family="Helvetica,sans-Serif" font-size="10.00">Behavior</text>
<polyline fill="none" stroke="#666666" points="235.5,-457.5 295.5,-457.5 "/>
<text text-anchor="middle" x="265.5" y="-445.5" font-family="Helvetica,sans-Serif" font-size="10.00"> </text>
<polyline fill="none" stroke="#666666" points="235.5,-438.5 295.5,-438.5 "/>
<text text-anchor="middle" x="265.5" y="-426.5" font-family="Helvetica,sans-Serif" font-size="10.00"> </text>
</a>
</g>
</g>
<!-- Node2&#45;&gt;Node1 -->
<g id="edge1" class="edge">
<title>Node2&#45;&gt;Node1</title>
<path fill="none" stroke="#63b8ff" d="M265.5,-409.2C265.5,-401.08 265.5,-392.1 265.5,-382.75"/>
<polygon fill="none" stroke="#63b8ff" points="262,-409.35 265.5,-419.35 269,-409.35 262,-409.35"/>
</g>
<!-- Node3 -->
<g id="node3" class="node">
<title>Node3</title>
<g id="a_node3"><a xlink:href="../../d9/df7/classGameObjectComponent.html" target="_top" xlink:title="An abstract gameobject component.">
<polygon fill="white" stroke="#666666" points="168,-513.5 168,-658.5 363,-658.5 363,-513.5 168,-513.5"/>
<text text-anchor="middle" x="265.5" y="-646.5" font-family="Helvetica,sans-Serif" font-size="10.00">GameObjectComponent</text>
<polyline fill="none" stroke="#666666" points="168,-639.5 363,-639.5 "/>
<text text-anchor="start" x="176" y="-627.5" font-family="Helvetica,sans-Serif" font-size="10.00"># bool enabled</text>
<text text-anchor="start" x="176" y="-616.5" font-family="Helvetica,sans-Serif" font-size="10.00"># GameObject * parent</text>
<polyline fill="none" stroke="#666666" points="168,-609.5 363,-609.5 "/>
<text text-anchor="start" x="176" y="-597.5" font-family="Helvetica,sans-Serif" font-size="10.00">+ bool getEnabled() const</text>
<text text-anchor="start" x="176" y="-586.5" font-family="Helvetica,sans-Serif" font-size="10.00">+ void setEnabled(bool</text>
<text text-anchor="start" x="176" y="-575.5" font-family="Helvetica,sans-Serif" font-size="10.00"> value)</text>
<text text-anchor="start" x="176" y="-564.5" font-family="Helvetica,sans-Serif" font-size="10.00">+ void setParent(GameObject</text>
<text text-anchor="start" x="176" y="-553.5" font-family="Helvetica,sans-Serif" font-size="10.00"> *value)</text>
<text text-anchor="start" x="176" y="-542.5" font-family="Helvetica,sans-Serif" font-size="10.00">+ virtual ~GameObjectComponent()</text>
<text text-anchor="start" x="176" y="-531.5" font-family="Helvetica,sans-Serif" font-size="10.00">+ virtual void OnTick()=0</text>
<text text-anchor="start" x="176" y="-520.5" font-family="Helvetica,sans-Serif" font-size="10.00">+ virtual void OnStart()=0</text>
</a>
</g>
</g>
<!-- Node3&#45;&gt;Node2 -->
<g id="edge2" class="edge">
<title>Node3&#45;&gt;Node2</title>
<path fill="none" stroke="#63b8ff" d="M265.5,-503.39C265.5,-493.86 265.5,-484.71 265.5,-476.71"/>
<polygon fill="none" stroke="#63b8ff" points="262,-503.42 265.5,-513.42 269,-503.42 262,-503.42"/>
</g>
</g>
</svg>
        <g id="navigator" transform="translate(0 0)" fill="#404254">
                <rect fill="#f2f5e9" fill-opacity="0.5" stroke="#606060" stroke-width=".5" x="0" y="0" width="60" height="60"/>
                <use id="zoomplus" xlink:href="#zoomPlus" x="17" y="9" onmousedown="handleZoom(evt,'in')"/>
                <use id="zoomminus" xlink:href="#zoomMin" x="42" y="9" onmousedown="handleZoom(evt,'out')"/>
                <use id="reset" xlink:href="#resetDef" x="30" y="36" onmousedown="handleReset()"/>
                <g id="arrowUp" xlink:href="#dirArrow" transform="translate(30 24)" onmousedown="handlePan(0,-1)">
                  <use xlink:href="#rim" fill="#404040">
                        <set attributeName="fill" to="#808080" begin="arrowUp.mouseover" end="arrowUp.mouseout"/>
                  </use>
                  <path fill="none" stroke="white" stroke-width="1.5" d="M0,-3.0v7 M-2.5,-0.5L0,-3.0L2.5,-0.5"/>
                </g>
                <g id="arrowRight" xlink:href="#dirArrow" transform="rotate(90) translate(36 -43)" onmousedown="handlePan(1,0)">
                  <use xlink:href="#rim" fill="#404040">
                        <set attributeName="fill" to="#808080" begin="arrowRight.mouseover" end="arrowRight.mouseout"/>
                  </use>
                  <path fill="none" stroke="white" stroke-width="1.5" d="M0,-3.0v7 M-2.5,-0.5L0,-3.0L2.5,-0.5"/>
                </g>
                <g id="arrowDown" xlink:href="#dirArrow" transform="rotate(180) translate(-30 -48)" onmousedown="handlePan(0,1)">
                  <use xlink:href="#rim" fill="#404040">
                        <set attributeName="fill" to="#808080" begin="arrowDown.mouseover" end="arrowDown.mouseout"/>
                  </use>
                  <path fill="none" stroke="white" stroke-width="1.5" d="M0,-3.0v7 M-2.5,-0.5L0,-3.0L2.5,-0.5"/>
                </g>
                <g id="arrowLeft" xlink:href="#dirArrow" transform="rotate(270) translate(-36 17)" onmousedown="handlePan(-1,0)">
                  <use xlink:href="#rim" fill="#404040">
                        <set attributeName="fill" to="#808080" begin="arrowLeft.mouseover" end="arrowLeft.mouseout"/>
                  </use>
                  <path fill="none" stroke="white" stroke-width="1.5" d="M0,-3.0v7 M-2.5,-0.5L0,-3.0L2.5,-0.5"/>
                </g>
        </g>
        <svg viewBox="0 0 15 15" width="100%" height="30px" preserveAspectRatio="xMaxYMin meet">
         <g id="arrow_out" transform="scale(0.3 0.3)">
          <a xlink:href="classCollisionBehavior__inherit__graph_org.svg" target="_base">
           <rect id="button" ry="5" rx="5" y="6" x="6" height="38" width="38"
                fill="#f2f5e9" fill-opacity="0.5" stroke="#606060" stroke-width="1.0"/>
           <path id="arrow"
             d="M 11.500037,31.436501 C 11.940474,20.09759 22.043105,11.32322 32.158766,21.979434 L 37.068811,17.246167 C 37.068811,17.246167 37.088388,32 37.088388,32 L 22.160133,31.978069 C 22.160133,31.978069 26.997745,27.140456 26.997745,27.140456 C 18.528582,18.264221 13.291696,25.230495 11.500037,31.436501 z"
             style="fill:#404040;"/>
          </a>
         </g>
        </svg>
</svg>
