<?xml version="1.0" encoding="UTF-8" standalone="no"?>
<!DOCTYPE svg PUBLIC "-//W3C//DTD SVG 1.1//EN"
 "http://www.w3.org/Graphics/SVG/1.1/DTD/svg11.dtd">
<!-- Generated by graphviz version 2.43.0 (0)
 -->
<!-- Title: game/behaviors/scoreCounter/ScoreCounterBehavior.cpp Pages: 1 -->
<!--zoomable 401 -->
<svg id="main" version="1.1" xmlns="http://www.w3.org/2000/svg" xmlns:xlink="http://www.w3.org/1999/xlink" xml:space="preserve" onload="init(evt)">
<style type="text/css"><![CDATA[
.edge:hover path { stroke: red; }
.edge:hover polygon { stroke: red; fill: red; }
]]></style>
<script type="text/javascript"><![CDATA[
var edges = document.getElementsByTagName('g');
if (edges && edges.length) {
  for (var i=0;i<edges.length;i++) {
    if (edges[i].id.substr(0,4)=='edge') {
      edges[i].setAttribute('class','edge');
    }
  }
}
]]></script>
        <defs>
                <circle id="rim" cx="0" cy="0" r="7"/>
                <circle id="rim2" cx="0" cy="0" r="3.5"/>
                <g id="zoomPlus">
                        <use xlink:href="#rim" fill="#404040">
                                <set attributeName="fill" to="#808080" begin="zoomplus.mouseover" end="zoomplus.mouseout"/>
                        </use>
                        <path d="M-4,0h8M0,-4v8" fill="none" stroke="white" stroke-width="1.5" pointer-events="none"/>
                </g>
                <g id="zoomMin">
                        <use xlink:href="#rim" fill="#404040">
                                <set attributeName="fill" to="#808080" begin="zoomminus.mouseover" end="zoomminus.mouseout"/>
                        </use>
                        <path d="M-4,0h8" fill="none" stroke="white" stroke-width="1.5" pointer-events="none"/>
                </g>
                <g id="dirArrow">
                        <path fill="none" stroke="white" stroke-width="1.5" d="M0,-3.0v7 M-2.5,-0.5L0,-3.0L2.5,-0.5"/>
                </g>
               <g id="resetDef">
                       <use xlink:href="#rim2" fill="#404040">
                               <set attributeName="fill" to="#808080" begin="reset.mouseover" end="reset.mouseout"/>
                       </use>
               </g>
        </defs>

<script type="text/javascript">
var viewWidth = 737;
var viewHeight = 401;
var sectionId = 'dynsection-0';
</script>
<script xlink:href="../../svgpan.js"/>
<svg id="graph" class="graph">
<g id="viewport">
<title>game/behaviors/scoreCounter/ScoreCounterBehavior.cpp</title>
<!-- Node1 -->
<g id="node1" class="node">
<title>Node1</title>
<g id="a_node1"><a xlink:title=" ">
<polygon fill="#999999" stroke="#666666" points="445.5,-393 282.5,-393 282.5,-363 445.5,-363 445.5,-393"/>
<text text-anchor="start" x="290.5" y="-381" font-family="Helvetica,sans-Serif" font-size="10.00">game/behaviors/scoreCounter</text>
<text text-anchor="middle" x="364" y="-370" font-family="Helvetica,sans-Serif" font-size="10.00">/ScoreCounterBehavior.cpp</text>
</a>
</g>
</g>
<!-- Node2 -->
<g id="node2" class="node">
<title>Node2</title>
<g id="a_node2"><a xlink:href="../../d9/de4/ScoreCounterBehavior_8hpp.html" target="_top" xlink:title=" ">
<polygon fill="white" stroke="#666666" points="277,-321.5 131,-321.5 131,-302.5 277,-302.5 277,-321.5"/>
<text text-anchor="middle" x="204" y="-309.5" font-family="Helvetica,sans-Serif" font-size="10.00">ScoreCounterBehavior.hpp</text>
</a>
</g>
</g>
<!-- Node1&#45;&gt;Node2 -->
<g id="edge1" class="edge">
<title>Node1&#45;&gt;Node2</title>
<path fill="none" stroke="#63b8ff" d="M328.89,-362.95C300.7,-351.68 261.53,-336.01 234.61,-325.25"/>
<polygon fill="#63b8ff" stroke="#63b8ff" points="235.88,-321.98 225.29,-321.52 233.28,-328.48 235.88,-321.98"/>
</g>
<!-- Node13 -->
<g id="node13" class="node">
<title>Node13</title>
<g id="a_node13"><a xlink:href="../../d9/de7/Time_8hpp.html" target="_top" xlink:title=" ">
<polygon fill="white" stroke="#666666" points="426.5,-321.5 301.5,-321.5 301.5,-302.5 426.5,-302.5 426.5,-321.5"/>
<text text-anchor="middle" x="364" y="-309.5" font-family="Helvetica,sans-Serif" font-size="10.00">../../../engine/Time.hpp</text>
</a>
</g>
</g>
<!-- Node1&#45;&gt;Node13 -->
<g id="edge12" class="edge">
<title>Node1&#45;&gt;Node13</title>
<path fill="none" stroke="#63b8ff" d="M364,-362.8C364,-353.7 364,-341.79 364,-331.9"/>
<polygon fill="#63b8ff" stroke="#63b8ff" points="367.5,-331.84 364,-321.84 360.5,-331.84 367.5,-331.84"/>
</g>
<!-- Node14 -->
<g id="node14" class="node">
<title>Node14</title>
<g id="a_node14"><a xlink:href="../../d7/dc4/FontRenderer_8hpp.html" target="_top" xlink:title=" ">
<polygon fill="white" stroke="#666666" points="602.5,-327 447.5,-327 447.5,-297 602.5,-297 602.5,-327"/>
<text text-anchor="start" x="455.5" y="-315" font-family="Helvetica,sans-Serif" font-size="10.00">../../../engine/components</text>
<text text-anchor="middle" x="525" y="-304" font-family="Helvetica,sans-Serif" font-size="10.00">/renderers/FontRenderer.hpp</text>
</a>
</g>
</g>
<!-- Node1&#45;&gt;Node14 -->
<g id="edge13" class="edge">
<title>Node1&#45;&gt;Node14</title>
<path fill="none" stroke="#63b8ff" d="M399.33,-362.95C423.13,-353.49 454.73,-340.93 480.28,-330.78"/>
<polygon fill="#63b8ff" stroke="#63b8ff" points="481.75,-333.96 489.75,-327.01 479.16,-327.45 481.75,-333.96"/>
</g>
<!-- Node3 -->
<g id="node3" class="node">
<title>Node3</title>
<g id="a_node3"><a xlink:href="../../d4/d8e/Behavior_8hpp.html" target="_top" xlink:title=" ">
<polygon fill="white" stroke="#666666" points="263,-261 123,-261 123,-231 263,-231 263,-261"/>
<text text-anchor="start" x="131" y="-249" font-family="Helvetica,sans-Serif" font-size="10.00">../../../engine/components</text>
<text text-anchor="middle" x="193" y="-238" font-family="Helvetica,sans-Serif" font-size="10.00">/behaviors/Behavior.hpp</text>
</a>
</g>
</g>
<!-- Node2&#45;&gt;Node3 -->
<g id="edge2" class="edge">
<title>Node2&#45;&gt;Node3</title>
<path fill="none" stroke="#63b8ff" d="M202.52,-302.37C201.15,-294.4 199.05,-282.2 197.17,-271.27"/>
<polygon fill="#63b8ff" stroke="#63b8ff" points="200.61,-270.62 195.47,-261.36 193.71,-271.81 200.61,-270.62"/>
</g>
<!-- Node4 -->
<g id="node4" class="node">
<title>Node4</title>
<g id="a_node4"><a xlink:href="../../d2/d69/GameObjectComponent_8hpp.html" target="_top" xlink:title=" ">
<polygon fill="white" stroke="#666666" points="340,-195 176,-195 176,-176 340,-176 340,-195"/>
<text text-anchor="middle" x="258" y="-183" font-family="Helvetica,sans-Serif" font-size="10.00">../GameObjectComponent.hpp</text>
</a>
</g>
</g>
<!-- Node3&#45;&gt;Node4 -->
<g id="edge3" class="edge">
<title>Node3&#45;&gt;Node4</title>
<path fill="none" stroke="#63b8ff" d="M208.73,-230.84C218.36,-222.17 230.69,-211.08 240.61,-202.15"/>
<polygon fill="#63b8ff" stroke="#63b8ff" points="243.17,-204.56 248.26,-195.27 238.49,-199.35 243.17,-204.56"/>
</g>
<!-- Node5 -->
<g id="node5" class="node">
<title>Node5</title>
<g id="a_node5"><a xlink:title=" ">
<polygon fill="#e0e0e0" stroke="#999999" points="382.5,-140 329.5,-140 329.5,-121 382.5,-121 382.5,-140"/>
<text text-anchor="middle" x="356" y="-128" font-family="Helvetica,sans-Serif" font-size="10.00">cstddef</text>
</a>
</g>
</g>
<!-- Node4&#45;&gt;Node5 -->
<g id="edge4" class="edge">
<title>Node4&#45;&gt;Node5</title>
<path fill="none" stroke="#63b8ff" d="M273.75,-175.98C289.23,-167.61 313.09,-154.7 331.14,-144.95"/>
<polygon fill="#63b8ff" stroke="#63b8ff" points="332.84,-148.01 339.97,-140.17 329.51,-141.85 332.84,-148.01"/>
</g>
<!-- Node6 -->
<g id="node6" class="node">
<title>Node6</title>
<g id="a_node6"><a xlink:href="../../d4/db5/GameObject_8hpp.html" target="_top" xlink:title=" ">
<polygon fill="white" stroke="#666666" points="311.5,-140 204.5,-140 204.5,-121 311.5,-121 311.5,-140"/>
<text text-anchor="middle" x="258" y="-128" font-family="Helvetica,sans-Serif" font-size="10.00">../GameObject.hpp</text>
</a>
</g>
</g>
<!-- Node4&#45;&gt;Node6 -->
<g id="edge5" class="edge">
<title>Node4&#45;&gt;Node6</title>
<path fill="none" stroke="#63b8ff" d="M258,-175.75C258,-168.8 258,-158.85 258,-150.13"/>
<polygon fill="#63b8ff" stroke="#63b8ff" points="261.5,-150.09 258,-140.09 254.5,-150.09 261.5,-150.09"/>
</g>
<!-- Node7 -->
<g id="node7" class="node">
<title>Node7</title>
<g id="a_node7"><a xlink:href="../../d9/d4a/Vector2_8hpp.html" target="_top" xlink:title=" ">
<polygon fill="white" stroke="#666666" points="410,-79.5 336,-79.5 336,-60.5 410,-60.5 410,-79.5"/>
<text text-anchor="middle" x="373" y="-67.5" font-family="Helvetica,sans-Serif" font-size="10.00">Vector2.hpp</text>
</a>
</g>
</g>
<!-- Node6&#45;&gt;Node7 -->
<g id="edge6" class="edge">
<title>Node6&#45;&gt;Node7</title>
<path fill="none" stroke="#63b8ff" d="M274.97,-120.87C293.91,-111.23 324.79,-95.53 346.83,-84.31"/>
<polygon fill="#63b8ff" stroke="#63b8ff" points="348.64,-87.32 355.96,-79.67 345.46,-81.08 348.64,-87.32"/>
</g>
<!-- Node8 -->
<g id="node8" class="node">
<title>Node8</title>
<g id="a_node8"><a xlink:href="../../d4/d71/ComponentNotFoundException_8hpp.html" target="_top" xlink:title=" ">
<polygon fill="white" stroke="#666666" points="176,-85 0,-85 0,-55 176,-55 176,-85"/>
<text text-anchor="start" x="8" y="-73" font-family="Helvetica,sans-Serif" font-size="10.00">exceptions/ComponentNotFound</text>
<text text-anchor="middle" x="88" y="-62" font-family="Helvetica,sans-Serif" font-size="10.00">Exception.hpp</text>
</a>
</g>
</g>
<!-- Node6&#45;&gt;Node8 -->
<g id="edge7" class="edge">
<title>Node6&#45;&gt;Node8</title>
<path fill="none" stroke="#63b8ff" d="M233.28,-120.99C208.6,-112.5 169.95,-99.2 138.72,-88.45"/>
<polygon fill="#63b8ff" stroke="#63b8ff" points="139.47,-85.01 128.87,-85.06 137.19,-91.63 139.47,-85.01"/>
</g>
<!-- Node10 -->
<g id="node10" class="node">
<title>Node10</title>
<g id="a_node10"><a xlink:title=" ">
<polygon fill="#e0e0e0" stroke="#999999" points="252,-79.5 194,-79.5 194,-60.5 252,-60.5 252,-79.5"/>
<text text-anchor="middle" x="223" y="-67.5" font-family="Helvetica,sans-Serif" font-size="10.00">memory</text>
</a>
</g>
</g>
<!-- Node6&#45;&gt;Node10 -->
<g id="edge9" class="edge">
<title>Node6&#45;&gt;Node10</title>
<path fill="none" stroke="#63b8ff" d="M252.84,-120.87C247.77,-112.4 239.9,-99.24 233.51,-88.57"/>
<polygon fill="#63b8ff" stroke="#63b8ff" points="236.32,-86.45 228.19,-79.67 230.32,-90.05 236.32,-86.45"/>
</g>
<!-- Node11 -->
<g id="node11" class="node">
<title>Node11</title>
<g id="a_node11"><a xlink:title=" ">
<polygon fill="#e0e0e0" stroke="#999999" points="615,-79.5 571,-79.5 571,-60.5 615,-60.5 615,-79.5"/>
<text text-anchor="middle" x="593" y="-67.5" font-family="Helvetica,sans-Serif" font-size="10.00">string</text>
</a>
</g>
</g>
<!-- Node6&#45;&gt;Node11 -->
<g id="edge10" class="edge">
<title>Node6&#45;&gt;Node11</title>
<path fill="none" stroke="#63b8ff" d="M306.71,-120.99C376.21,-108.86 501.94,-86.9 560.87,-76.61"/>
<polygon fill="#63b8ff" stroke="#63b8ff" points="561.49,-80.05 570.74,-74.89 560.29,-73.16 561.49,-80.05"/>
</g>
<!-- Node12 -->
<g id="node12" class="node">
<title>Node12</title>
<g id="a_node12"><a xlink:title=" ">
<polygon fill="#e0e0e0" stroke="#999999" points="317.5,-79.5 270.5,-79.5 270.5,-60.5 317.5,-60.5 317.5,-79.5"/>
<text text-anchor="middle" x="294" y="-67.5" font-family="Helvetica,sans-Serif" font-size="10.00">vector</text>
</a>
</g>
</g>
<!-- Node6&#45;&gt;Node12 -->
<g id="edge11" class="edge">
<title>Node6&#45;&gt;Node12</title>
<path fill="none" stroke="#63b8ff" d="M263.31,-120.87C268.58,-112.31 276.79,-98.97 283.39,-88.24"/>
<polygon fill="#63b8ff" stroke="#63b8ff" points="286.41,-90.02 288.67,-79.67 280.44,-86.35 286.41,-90.02"/>
</g>
<!-- Node9 -->
<g id="node9" class="node">
<title>Node9</title>
<g id="a_node9"><a xlink:title=" ">
<polygon fill="#e0e0e0" stroke="#999999" points="120.5,-19 55.5,-19 55.5,0 120.5,0 120.5,-19"/>
<text text-anchor="middle" x="88" y="-7" font-family="Helvetica,sans-Serif" font-size="10.00">exception</text>
</a>
</g>
</g>
<!-- Node8&#45;&gt;Node9 -->
<g id="edge8" class="edge">
<title>Node8&#45;&gt;Node9</title>
<path fill="none" stroke="#63b8ff" d="M88,-54.84C88,-47.21 88,-37.7 88,-29.45"/>
<polygon fill="#63b8ff" stroke="#63b8ff" points="91.5,-29.27 88,-19.27 84.5,-29.27 91.5,-29.27"/>
</g>
<!-- Node14&#45;&gt;Node11 -->
<g id="edge20" class="edge">
<title>Node14&#45;&gt;Node11</title>
<path fill="none" stroke="#63b8ff" d="M602.68,-300.41C649.13,-292.31 701.81,-279.38 716,-261 764.05,-198.76 661.83,-117.73 614.9,-85.32"/>
<polygon fill="#63b8ff" stroke="#63b8ff" points="616.82,-82.38 606.57,-79.67 612.89,-88.18 616.82,-82.38"/>
</g>
<!-- Node15 -->
<g id="node15" class="node">
<title>Node15</title>
<g id="a_node15"><a xlink:href="../../dd/db8/Renderer_8hpp.html" target="_top" xlink:title=" ">
<polygon fill="white" stroke="#666666" points="362.5,-255.5 281.5,-255.5 281.5,-236.5 362.5,-236.5 362.5,-255.5"/>
<text text-anchor="middle" x="322" y="-243.5" font-family="Helvetica,sans-Serif" font-size="10.00">Renderer.hpp</text>
</a>
</g>
</g>
<!-- Node14&#45;&gt;Node15 -->
<g id="edge14" class="edge">
<title>Node14&#45;&gt;Node15</title>
<path fill="none" stroke="#63b8ff" d="M480.45,-296.95C443.91,-285.43 392.81,-269.32 358.62,-258.54"/>
<polygon fill="#63b8ff" stroke="#63b8ff" points="359.61,-255.19 349.02,-255.52 357.5,-261.86 359.61,-255.19"/>
</g>
<!-- Node17 -->
<g id="node17" class="node">
<title>Node17</title>
<g id="a_node17"><a xlink:title=" ">
<polygon fill="#e0e0e0" stroke="#999999" points="453,-255.5 381,-255.5 381,-236.5 453,-236.5 453,-255.5"/>
<text text-anchor="middle" x="417" y="-243.5" font-family="Helvetica,sans-Serif" font-size="10.00">SDL3/SDL.h</text>
</a>
</g>
</g>
<!-- Node14&#45;&gt;Node17 -->
<g id="edge17" class="edge">
<title>Node14&#45;&gt;Node17</title>
<path fill="none" stroke="#63b8ff" d="M501.3,-296.95C483.11,-286.18 458.14,-271.38 440.1,-260.69"/>
<polygon fill="#63b8ff" stroke="#63b8ff" points="441.76,-257.6 431.37,-255.52 438.19,-263.63 441.76,-257.6"/>
</g>
<!-- Node18 -->
<g id="node18" class="node">
<title>Node18</title>
<g id="a_node18"><a xlink:title=" ">
<polygon fill="#e0e0e0" stroke="#999999" points="584.5,-255.5 471.5,-255.5 471.5,-236.5 584.5,-236.5 584.5,-255.5"/>
<text text-anchor="middle" x="528" y="-243.5" font-family="Helvetica,sans-Serif" font-size="10.00">SDL3/SDL_surface.h</text>
</a>
</g>
</g>
<!-- Node14&#45;&gt;Node18 -->
<g id="edge18" class="edge">
<title>Node14&#45;&gt;Node18</title>
<path fill="none" stroke="#63b8ff" d="M525.67,-296.8C526.09,-287.7 526.65,-275.79 527.11,-265.9"/>
<polygon fill="#63b8ff" stroke="#63b8ff" points="530.61,-266 527.59,-255.84 523.62,-265.67 530.61,-266"/>
</g>
<!-- Node19 -->
<g id="node19" class="node">
<title>Node19</title>
<g id="a_node19"><a xlink:title=" ">
<polygon fill="#e0e0e0" stroke="#999999" points="707,-255.5 603,-255.5 603,-236.5 707,-236.5 707,-255.5"/>
<text text-anchor="middle" x="655" y="-243.5" font-family="Helvetica,sans-Serif" font-size="10.00">SDL3_ttf/SDL_ttf.h</text>
</a>
</g>
</g>
<!-- Node14&#45;&gt;Node19 -->
<g id="edge19" class="edge">
<title>Node14&#45;&gt;Node19</title>
<path fill="none" stroke="#63b8ff" d="M553.53,-296.95C575.93,-285.93 606.86,-270.7 628.67,-259.96"/>
<polygon fill="#63b8ff" stroke="#63b8ff" points="630.27,-263.07 637.7,-255.52 627.18,-256.79 630.27,-263.07"/>
</g>
<!-- Node15&#45;&gt;Node4 -->
<g id="edge15" class="edge">
<title>Node15&#45;&gt;Node4</title>
<path fill="none" stroke="#63b8ff" d="M312.56,-236.37C302.73,-227.38 287.11,-213.11 275.11,-202.14"/>
<polygon fill="#63b8ff" stroke="#63b8ff" points="277.22,-199.33 267.48,-195.17 272.5,-204.5 277.22,-199.33"/>
</g>
<!-- Node16 -->
<g id="node16" class="node">
<title>Node16</title>
<g id="a_node16"><a xlink:title=" ">
<polygon fill="#e0e0e0" stroke="#999999" points="466,-195 358,-195 358,-176 466,-176 466,-195"/>
<text text-anchor="middle" x="412" y="-183" font-family="Helvetica,sans-Serif" font-size="10.00">SDL3/SDL_render.h</text>
</a>
</g>
</g>
<!-- Node15&#45;&gt;Node16 -->
<g id="edge16" class="edge">
<title>Node15&#45;&gt;Node16</title>
<path fill="none" stroke="#63b8ff" d="M335.28,-236.37C349.64,-227.04 372.76,-212.01 389.87,-200.88"/>
<polygon fill="#63b8ff" stroke="#63b8ff" points="392.19,-203.55 398.67,-195.17 388.37,-197.68 392.19,-203.55"/>
</g>
</g>
</svg>
        <g id="navigator" transform="translate(0 0)" fill="#404254">
                <rect fill="#f2f5e9" fill-opacity="0.5" stroke="#606060" stroke-width=".5" x="0" y="0" width="60" height="60"/>
                <use id="zoomplus" xlink:href="#zoomPlus" x="17" y="9" onmousedown="handleZoom(evt,'in')"/>
                <use id="zoomminus" xlink:href="#zoomMin" x="42" y="9" onmousedown="handleZoom(evt,'out')"/>
                <use id="reset" xlink:href="#resetDef" x="30" y="36" onmousedown="handleReset()"/>
                <g id="arrowUp" xlink:href="#dirArrow" transform="translate(30 24)" onmousedown="handlePan(0,-1)">
                  <use xlink:href="#rim" fill="#404040">
                        <set attributeName="fill" to="#808080" begin="arrowUp.mouseover" end="arrowUp.mouseout"/>
                  </use>
                  <path fill="none" stroke="white" stroke-width="1.5" d="M0,-3.0v7 M-2.5,-0.5L0,-3.0L2.5,-0.5"/>
                </g>
                <g id="arrowRight" xlink:href="#dirArrow" transform="rotate(90) translate(36 -43)" onmousedown="handlePan(1,0)">
                  <use xlink:href="#rim" fill="#404040">
                        <set attributeName="fill" to="#808080" begin="arrowRight.mouseover" end="arrowRight.mouseout"/>
                  </use>
                  <path fill="none" stroke="white" stroke-width="1.5" d="M0,-3.0v7 M-2.5,-0.5L0,-3.0L2.5,-0.5"/>
                </g>
                <g id="arrowDown" xlink:href="#dirArrow" transform="rotate(180) translate(-30 -48)" onmousedown="handlePan(0,1)">
                  <use xlink:href="#rim" fill="#404040">
                        <set attributeName="fill" to="#808080" begin="arrowDown.mouseover" end="arrowDown.mouseout"/>
                  </use>
                  <path fill="none" stroke="white" stroke-width="1.5" d="M0,-3.0v7 M-2.5,-0.5L0,-3.0L2.5,-0.5"/>
                </g>
                <g id="arrowLeft" xlink:href="#dirArrow" transform="rotate(270) translate(-36 17)" onmousedown="handlePan(-1,0)">
                  <use xlink:href="#rim" fill="#404040">
                        <set attributeName="fill" to="#808080" begin="arrowLeft.mouseover" end="arrowLeft.mouseout"/>
                  </use>
                  <path fill="none" stroke="white" stroke-width="1.5" d="M0,-3.0v7 M-2.5,-0.5L0,-3.0L2.5,-0.5"/>
                </g>
        </g>
        <svg viewBox="0 0 15 15" width="100%" height="30px" preserveAspectRatio="xMaxYMin meet">
         <g id="arrow_out" transform="scale(0.3 0.3)">
          <a xlink:href="ScoreCounterBehavior_8cpp__incl_org.svg" target="_base">
           <rect id="button" ry="5" rx="5" y="6" x="6" height="38" width="38"
                fill="#f2f5e9" fill-opacity="0.5" stroke="#606060" stroke-width="1.0"/>
           <path id="arrow"
             d="M 11.500037,31.436501 C 11.940474,20.09759 22.043105,11.32322 32.158766,21.979434 L 37.068811,17.246167 C 37.068811,17.246167 37.088388,32 37.088388,32 L 22.160133,31.978069 C 22.160133,31.978069 26.997745,27.140456 26.997745,27.140456 C 18.528582,18.264221 13.291696,25.230495 11.500037,31.436501 z"
             style="fill:#404040;"/>
          </a>
         </g>
        </svg>
</svg>
