<?xml version="1.0" encoding="UTF-8" standalone="no"?>
<!DOCTYPE svg PUBLIC "-//W3C//DTD SVG 1.1//EN"
 "http://www.w3.org/Graphics/SVG/1.1/DTD/svg11.dtd">
<!-- Generated by graphviz version 2.43.0 (0)
 -->
<!-- Title: GameManagerBehavior::OnTick Pages: 1 -->
<svg width="750pt" height="213pt"
 viewBox="0.00 0.00 750.00 212.65" xmlns="http://www.w3.org/2000/svg" xmlns:xlink="http://www.w3.org/1999/xlink">
<g id="graph0" class="graph" transform="scale(1 1) rotate(0) translate(4 208.65)">
<title>GameManagerBehavior::OnTick</title>
<!-- Node1 -->
<g id="Node000001" class="node">
<title>Node1</title>
<g id="a_Node000001"><a xlink:title=" ">
<polygon fill="#999999" stroke="#666666" points="132,-125.5 0,-125.5 0,-95.5 132,-95.5 132,-125.5"/>
<text text-anchor="start" x="8" y="-113.5" font-family="Helvetica,sans-Serif" font-size="10.00">GameManagerBehavior</text>
<text text-anchor="middle" x="66" y="-102.5" font-family="Helvetica,sans-Serif" font-size="10.00">::OnTick</text>
</a>
</g>
</g>
<!-- Node2 -->
<g id="Node000002" class="node">
<title>Node2</title>
<g id="a_Node000002"><a xlink:href="../../df/d88/GameManagerBehavior_8cpp.html#a29dbc5368f82dd5ae1d33dc83189f4a0" target="_top" xlink:title="Calculate the difficulty at the specified game uptime.">
<polygon fill="white" stroke="#666666" points="487.5,-178 344.5,-178 344.5,-159 487.5,-159 487.5,-178"/>
<text text-anchor="middle" x="416" y="-166" font-family="Helvetica,sans-Serif" font-size="10.00">GetGameDifficultyAtTime</text>
</a>
</g>
</g>
<!-- Node1&#45;&gt;Node2 -->
<g id="edge1_Node000001_Node000002" class="edge">
<title>Node1&#45;&gt;Node2</title>
<g id="a_edge1_Node000001_Node000002"><a xlink:title=" ">
<path fill="none" stroke="#63b8ff" d="M132.06,-125.37C143.99,-127.9 156.35,-130.38 168,-132.5 223.23,-142.53 285.81,-151.62 334.16,-158.17"/>
<polygon fill="#63b8ff" stroke="#63b8ff" points="333.87,-161.66 344.25,-159.52 334.81,-154.72 333.87,-161.66"/>
</a>
</g>
</g>
<!-- Node3 -->
<g id="Node000003" class="node">
<title>Node3</title>
<g id="a_Node000003"><a xlink:href="../../d1/d21/classGameManagerBehavior.html#a03f055b9130a3014a32bf722ba48eebf" target="_top" xlink:title="Return the velocity of an object at the current time.">
<polygon fill="white" stroke="#666666" points="300,-104.5 168,-104.5 168,-74.5 300,-74.5 300,-104.5"/>
<text text-anchor="start" x="176" y="-92.5" font-family="Helvetica,sans-Serif" font-size="10.00">GameManagerBehavior</text>
<text text-anchor="middle" x="234" y="-81.5" font-family="Helvetica,sans-Serif" font-size="10.00">::GetObjectVelocity</text>
</a>
</g>
</g>
<!-- Node1&#45;&gt;Node3 -->
<g id="edge2_Node000001_Node000003" class="edge">
<title>Node1&#45;&gt;Node3</title>
<g id="a_edge2_Node000001_Node000003"><a xlink:title=" ">
<path fill="none" stroke="#63b8ff" d="M132.13,-102.26C140.55,-101.2 149.23,-100.1 157.8,-99.01"/>
<polygon fill="#63b8ff" stroke="#63b8ff" points="158.3,-102.48 167.78,-97.75 157.42,-95.53 158.3,-102.48"/>
</a>
</g>
</g>
<!-- Node5 -->
<g id="Node000005" class="node">
<title>Node5</title>
<g id="a_Node000005"><a xlink:href="../../d4/d63/RandomNumberGenerator_8cpp.html#ab3b4d2c18f8ed2adbded9e672d49418a" target="_top" xlink:title="Generate a random integer in bounds.">
<polygon fill="white" stroke="#666666" points="619,-157 532,-157 532,-138 619,-138 619,-157"/>
<text text-anchor="middle" x="575.5" y="-145" font-family="Helvetica,sans-Serif" font-size="10.00">GetRandomInt</text>
</a>
</g>
</g>
<!-- Node1&#45;&gt;Node5 -->
<g id="edge8_Node000001_Node000005" class="edge">
<title>Node1&#45;&gt;Node5</title>
<g id="a_edge8_Node000001_Node000005"><a xlink:title=" ">
<path fill="none" stroke="#63b8ff" d="M95,-125.5C114.87,-135.59 142.45,-148.46 168,-156.5 307.67,-200.46 353.62,-221.68 496,-187.5 516.2,-182.65 537.06,-171.69 552.2,-162.46"/>
<polygon fill="#63b8ff" stroke="#63b8ff" points="554.24,-165.32 560.82,-157.02 550.5,-159.4 554.24,-165.32"/>
</a>
</g>
</g>
<!-- Node7 -->
<g id="Node000007" class="node">
<title>Node7</title>
<g id="a_Node000007"><a xlink:href="../../d8/d38/Time_8cpp.html#a6e80f7bf6607915feab788ebdc5a3bf8" target="_top" xlink:title=" ">
<polygon fill="white" stroke="#666666" points="484.5,-138 347.5,-138 347.5,-119 484.5,-119 484.5,-138"/>
<text text-anchor="middle" x="416" y="-126" font-family="Helvetica,sans-Serif" font-size="10.00">GetTimeSinceGameStart</text>
</a>
</g>
</g>
<!-- Node1&#45;&gt;Node7 -->
<g id="edge9_Node000001_Node000007" class="edge">
<title>Node1&#45;&gt;Node7</title>
<g id="a_edge9_Node000001_Node000007"><a xlink:title=" ">
<path fill="none" stroke="#63b8ff" d="M132.05,-113.86C190.19,-116.87 275.49,-121.28 337.22,-124.48"/>
<polygon fill="#63b8ff" stroke="#63b8ff" points="337.13,-127.98 347.3,-125 337.5,-120.99 337.13,-127.98"/>
</a>
</g>
</g>
<!-- Node8 -->
<g id="Node000008" class="node">
<title>Node8</title>
<g id="a_Node000008"><a xlink:href="../../df/d88/GameManagerBehavior_8cpp.html#a07e6c2b5429917c119a839acc53cbfa9" target="_top" xlink:title="Spawn a new coffee object.">
<polygon fill="white" stroke="#666666" points="274,-19 194,-19 194,0 274,0 274,-19"/>
<text text-anchor="middle" x="234" y="-7" font-family="Helvetica,sans-Serif" font-size="10.00">SpawnCoffee</text>
</a>
</g>
</g>
<!-- Node1&#45;&gt;Node8 -->
<g id="edge10_Node000001_Node000008" class="edge">
<title>Node1&#45;&gt;Node8</title>
<g id="a_edge10_Node000001_Node000008"><a xlink:title=" ">
<path fill="none" stroke="#63b8ff" d="M81.7,-95.32C100.22,-77 133.8,-46.44 168,-28.5 173.14,-25.81 178.71,-23.44 184.35,-21.39"/>
<polygon fill="#63b8ff" stroke="#63b8ff" points="185.49,-24.7 193.86,-18.21 183.27,-18.06 185.49,-24.7"/>
</a>
</g>
</g>
<!-- Node11 -->
<g id="Node000011" class="node">
<title>Node11</title>
<g id="a_Node000011"><a xlink:href="../../df/d88/GameManagerBehavior_8cpp.html#a2a12711db7d8e91b16655c1c98c6cdb2" target="_top" xlink:title="Spawn a new enemy.">
<polygon fill="white" stroke="#666666" points="275.5,-56 192.5,-56 192.5,-37 275.5,-37 275.5,-56"/>
<text text-anchor="middle" x="234" y="-44" font-family="Helvetica,sans-Serif" font-size="10.00">SpawnEnemy</text>
</a>
</g>
</g>
<!-- Node1&#45;&gt;Node11 -->
<g id="edge14_Node000001_Node000011" class="edge">
<title>Node1&#45;&gt;Node11</title>
<g id="a_edge14_Node000001_Node000011"><a xlink:title=" ">
<path fill="none" stroke="#63b8ff" d="M97.94,-95.41C117.71,-86.1 144.03,-74.3 168,-65.5 174.08,-63.27 180.56,-61.11 186.98,-59.11"/>
<polygon fill="#63b8ff" stroke="#63b8ff" points="188.4,-62.34 196.96,-56.1 186.37,-55.64 188.4,-62.34"/>
</a>
</g>
</g>
<!-- Node3&#45;&gt;Node2 -->
<g id="edge3_Node000003_Node000002" class="edge">
<title>Node3&#45;&gt;Node2</title>
<g id="a_edge3_Node000003_Node000002"><a xlink:title=" ">
<path fill="none" stroke="#63b8ff" d="M257.39,-104.65C277.3,-117.55 307.58,-135.8 336,-147.5 343.92,-150.76 352.5,-153.65 360.99,-156.17"/>
<polygon fill="#63b8ff" stroke="#63b8ff" points="360.29,-159.61 370.86,-158.95 362.18,-152.87 360.29,-159.61"/>
</a>
</g>
</g>
<!-- Node4 -->
<g id="Node000004" class="node">
<title>Node4</title>
<g id="a_Node000004"><a xlink:href="../../d4/d63/RandomNumberGenerator_8cpp.html#ab41bae80bddaf892520d0c17bcfc873b" target="_top" xlink:title="Generate a random float between 0 and 1.">
<polygon fill="white" stroke="#666666" points="493.5,-96 338.5,-96 338.5,-77 493.5,-77 493.5,-96"/>
<text text-anchor="middle" x="416" y="-84" font-family="Helvetica,sans-Serif" font-size="10.00">GetRandomNormalizedFloat</text>
</a>
</g>
</g>
<!-- Node3&#45;&gt;Node4 -->
<g id="edge4_Node000003_Node000004" class="edge">
<title>Node3&#45;&gt;Node4</title>
<g id="a_edge4_Node000003_Node000004"><a xlink:title=" ">
<path fill="none" stroke="#63b8ff" d="M300.24,-88.41C309.33,-88.26 318.78,-88.1 328.19,-87.95"/>
<polygon fill="#63b8ff" stroke="#63b8ff" points="328.42,-91.44 338.36,-87.78 328.3,-84.44 328.42,-91.44"/>
</a>
</g>
</g>
<!-- Node3&#45;&gt;Node7 -->
<g id="edge7_Node000003_Node000007" class="edge">
<title>Node3&#45;&gt;Node7</title>
<g id="a_edge7_Node000003_Node000007"><a xlink:title=" ">
<path fill="none" stroke="#63b8ff" d="M300.24,-103.64C320.2,-107.96 341.91,-112.66 361.03,-116.81"/>
<polygon fill="#63b8ff" stroke="#63b8ff" points="360.55,-120.28 371.06,-118.98 362.03,-113.44 360.55,-120.28"/>
</a>
</g>
</g>
<!-- Node4&#45;&gt;Node5 -->
<g id="edge5_Node000004_Node000005" class="edge">
<title>Node4&#45;&gt;Node5</title>
<g id="a_edge5_Node000004_Node000005"><a xlink:title=" ">
<path fill="none" stroke="#63b8ff" d="M452.37,-96.05C466.14,-100.08 481.96,-105.09 496,-110.5 513.3,-117.16 532.1,-125.97 546.97,-133.32"/>
<polygon fill="#63b8ff" stroke="#63b8ff" points="545.61,-136.55 556.12,-137.9 548.74,-130.29 545.61,-136.55"/>
</a>
</g>
</g>
<!-- Node6 -->
<g id="Node000006" class="node">
<title>Node6</title>
<g id="a_Node000006"><a xlink:href="../../d4/d63/RandomNumberGenerator_8cpp.html#af6fa6d283a85410eb131612aa6ae9a6f" target="_top" xlink:title=" ">
<polygon fill="white" stroke="#666666" points="742,-157 655,-157 655,-138 742,-138 742,-157"/>
<text text-anchor="middle" x="698.5" y="-145" font-family="Helvetica,sans-Serif" font-size="10.00">randomEngine</text>
</a>
</g>
</g>
<!-- Node5&#45;&gt;Node6 -->
<g id="edge6_Node000005_Node000006" class="edge">
<title>Node5&#45;&gt;Node6</title>
<g id="a_edge6_Node000005_Node000006"><a xlink:title=" ">
<path fill="none" stroke="#63b8ff" d="M619.16,-147.5C627.38,-147.5 636.09,-147.5 644.59,-147.5"/>
<polygon fill="#63b8ff" stroke="#63b8ff" points="644.82,-151 654.82,-147.5 644.82,-144 644.82,-151"/>
</a>
</g>
</g>
<!-- Node8&#45;&gt;Node4 -->
<g id="edge13_Node000008_Node000004" class="edge">
<title>Node8&#45;&gt;Node4</title>
<g id="a_edge13_Node000008_Node000004"><a xlink:title=" ">
<path fill="none" stroke="#63b8ff" d="M274.18,-17.43C283.04,-20.16 292.14,-23.77 300,-28.5 319.66,-40.33 316.2,-53.91 336,-65.5 341.39,-68.65 347.25,-71.34 353.27,-73.63"/>
<polygon fill="#63b8ff" stroke="#63b8ff" points="352.23,-76.97 362.82,-76.92 354.5,-70.35 352.23,-76.97"/>
</a>
</g>
</g>
<!-- Node9 -->
<g id="Node000009" class="node">
<title>Node9</title>
<g id="a_Node000009"><a xlink:href="../../de/dfd/GameManagement_8cpp.html#a9f8d0a459a7758c8b2d0b72cdd8adad0" target="_top" xlink:title="Enqueue an object to be registered on the next frame.">
<polygon fill="white" stroke="#666666" points="496,-56 336,-56 336,-37 496,-37 496,-56"/>
<text text-anchor="middle" x="416" y="-44" font-family="Helvetica,sans-Serif" font-size="10.00">EnqueueRegisterGameObject</text>
</a>
</g>
</g>
<!-- Node8&#45;&gt;Node9 -->
<g id="edge11_Node000008_Node000009" class="edge">
<title>Node8&#45;&gt;Node9</title>
<g id="a_edge11_Node000008_Node000009"><a xlink:title=" ">
<path fill="none" stroke="#63b8ff" d="M274.06,-17.53C298.83,-22.62 331.28,-29.29 358.8,-34.95"/>
<polygon fill="#63b8ff" stroke="#63b8ff" points="358.19,-38.4 368.69,-36.98 359.6,-31.54 358.19,-38.4"/>
</a>
</g>
</g>
<!-- Node10 -->
<g id="Node000010" class="node">
<title>Node10</title>
<g id="a_Node000010"><a xlink:href="../../d1/da9/AssetLoading_8cpp.html#a07739f40c13743b2dfceefb659d6d455" target="_top" xlink:title="Return the correct asset path for the asset depending on the current environment.">
<polygon fill="white" stroke="#666666" points="457,-19 375,-19 375,0 457,0 457,-19"/>
<text text-anchor="middle" x="416" y="-7" font-family="Helvetica,sans-Serif" font-size="10.00">GetAssetPath</text>
</a>
</g>
</g>
<!-- Node8&#45;&gt;Node10 -->
<g id="edge12_Node000008_Node000010" class="edge">
<title>Node8&#45;&gt;Node10</title>
<g id="a_edge12_Node000008_Node000010"><a xlink:title=" ">
<path fill="none" stroke="#63b8ff" d="M274.06,-9.5C300.58,-9.5 335.9,-9.5 364.55,-9.5"/>
<polygon fill="#63b8ff" stroke="#63b8ff" points="364.77,-13 374.77,-9.5 364.77,-6 364.77,-13"/>
</a>
</g>
</g>
<!-- Node11&#45;&gt;Node4 -->
<g id="edge17_Node000011_Node000004" class="edge">
<title>Node11&#45;&gt;Node4</title>
<g id="a_edge17_Node000011_Node000004"><a xlink:title=" ">
<path fill="none" stroke="#63b8ff" d="M275.84,-55.58C301.43,-61.26 334.67,-68.65 362.25,-74.78"/>
<polygon fill="#63b8ff" stroke="#63b8ff" points="361.6,-78.22 372.12,-76.97 363.12,-71.39 361.6,-78.22"/>
</a>
</g>
</g>
<!-- Node11&#45;&gt;Node9 -->
<g id="edge15_Node000011_Node000009" class="edge">
<title>Node11&#45;&gt;Node9</title>
<g id="a_edge15_Node000011_Node000009"><a xlink:title=" ">
<path fill="none" stroke="#63b8ff" d="M275.84,-46.5C290.67,-46.5 308.07,-46.5 325.44,-46.5"/>
<polygon fill="#63b8ff" stroke="#63b8ff" points="325.65,-50 335.65,-46.5 325.65,-43 325.65,-50"/>
</a>
</g>
</g>
<!-- Node11&#45;&gt;Node10 -->
<g id="edge16_Node000011_Node000010" class="edge">
<title>Node11&#45;&gt;Node10</title>
<g id="a_edge16_Node000011_Node000010"><a xlink:title=" ">
<path fill="none" stroke="#63b8ff" d="M275.84,-38.1C302.27,-32.67 336.84,-25.57 364.91,-19.8"/>
<polygon fill="#63b8ff" stroke="#63b8ff" points="365.85,-23.18 374.94,-17.74 364.44,-16.32 365.85,-23.18"/>
</a>
</g>
</g>
</g>
</svg>
