<?xml version="1.0" encoding="UTF-8" standalone="no"?>
<!DOCTYPE svg PUBLIC "-//W3C//DTD SVG 1.1//EN"
 "http://www.w3.org/Graphics/SVG/1.1/DTD/svg11.dtd">
<!-- Generated by graphviz version 2.43.0 (0)
 -->
<!-- Title: GameManagerBehavior::OnTick Pages: 1 -->
<svg width="750pt" height="222pt"
 viewBox="0.00 0.00 750.00 221.50" xmlns="http://www.w3.org/2000/svg" xmlns:xlink="http://www.w3.org/1999/xlink">
<g id="graph0" class="graph" transform="scale(1 1) rotate(0) translate(4 217.5)">
<title>GameManagerBehavior::OnTick</title>
<!-- Node1 -->
<g id="Node000001" class="node">
<title>Node1</title>
<g id="a_Node000001"><a xlink:title="Executed every frame.">
<polygon fill="#999999" stroke="#666666" points="132,-120.5 0,-120.5 0,-90.5 132,-90.5 132,-120.5"/>
<text text-anchor="start" x="8" y="-108.5" font-family="Helvetica,sans-Serif" font-size="10.00">GameManagerBehavior</text>
<text text-anchor="middle" x="66" y="-97.5" font-family="Helvetica,sans-Serif" font-size="10.00">::OnTick</text>
</a>
</g>
</g>
<!-- Node2 -->
<g id="Node000002" class="node">
<title>Node2</title>
<g id="a_Node000002"><a xlink:href="../../d1/d21/classGameManagerBehavior.html#a1adb4bebf7b769bfec9bcb7629c0c8c9" target="_top" xlink:title="Calculate the difficulty at the specified game uptime.">
<polygon fill="white" stroke="#666666" points="490.5,-213.5 341.5,-213.5 341.5,-183.5 490.5,-183.5 490.5,-213.5"/>
<text text-anchor="start" x="349.5" y="-201.5" font-family="Helvetica,sans-Serif" font-size="10.00">GameManagerBehavior</text>
<text text-anchor="middle" x="416" y="-190.5" font-family="Helvetica,sans-Serif" font-size="10.00">::GetGameDifficultyAtTime</text>
</a>
</g>
</g>
<!-- Node1&#45;&gt;Node2 -->
<g id="edge1_Node000001_Node000002" class="edge">
<title>Node1&#45;&gt;Node2</title>
<g id="a_edge1_Node000001_Node000002"><a xlink:title=" ">
<path fill="none" stroke="#63b8ff" d="M85.44,-120.51C104.77,-135.36 136.62,-157.43 168,-168.5 220.29,-186.96 282.25,-194.45 331.03,-197.33"/>
<polygon fill="#63b8ff" stroke="#63b8ff" points="331.05,-200.83 341.23,-197.87 331.43,-193.84 331.05,-200.83"/>
</a>
</g>
</g>
<!-- Node3 -->
<g id="Node000003" class="node">
<title>Node3</title>
<g id="a_Node000003"><a xlink:href="../../d1/d21/classGameManagerBehavior.html#a03f055b9130a3014a32bf722ba48eebf" target="_top" xlink:title="Return the velocity of an object at the current time.">
<polygon fill="white" stroke="#666666" points="300,-142.5 168,-142.5 168,-112.5 300,-112.5 300,-142.5"/>
<text text-anchor="start" x="176" y="-130.5" font-family="Helvetica,sans-Serif" font-size="10.00">GameManagerBehavior</text>
<text text-anchor="middle" x="234" y="-119.5" font-family="Helvetica,sans-Serif" font-size="10.00">::GetObjectVelocity</text>
</a>
</g>
</g>
<!-- Node1&#45;&gt;Node3 -->
<g id="edge2_Node000001_Node000003" class="edge">
<title>Node1&#45;&gt;Node3</title>
<g id="a_edge2_Node000001_Node000003"><a xlink:title=" ">
<path fill="none" stroke="#63b8ff" d="M132.13,-114.13C140.55,-115.25 149.23,-116.4 157.8,-117.53"/>
<polygon fill="#63b8ff" stroke="#63b8ff" points="157.41,-121.01 167.78,-118.86 158.33,-114.07 157.41,-121.01"/>
</a>
</g>
</g>
<!-- Node5 -->
<g id="Node000005" class="node">
<title>Node5</title>
<g id="a_Node000005"><a xlink:href="../../d4/d63/RandomNumberGenerator_8cpp.html#ab3b4d2c18f8ed2adbded9e672d49418a" target="_top" xlink:title="Generate a random integer in bounds.">
<polygon fill="white" stroke="#666666" points="619,-75 532,-75 532,-56 619,-56 619,-75"/>
<text text-anchor="middle" x="575.5" y="-63" font-family="Helvetica,sans-Serif" font-size="10.00">GetRandomInt</text>
</a>
</g>
</g>
<!-- Node1&#45;&gt;Node5 -->
<g id="edge8_Node000001_Node000005" class="edge">
<title>Node1&#45;&gt;Node5</title>
<g id="a_edge8_Node000001_Node000005"><a xlink:title=" ">
<path fill="none" stroke="#63b8ff" d="M132.05,-100.37C233.75,-92.36 428.43,-77.01 521.89,-69.65"/>
<polygon fill="#63b8ff" stroke="#63b8ff" points="522.27,-73.13 531.96,-68.85 521.72,-66.15 522.27,-73.13"/>
</a>
</g>
</g>
<!-- Node7 -->
<g id="Node000007" class="node">
<title>Node7</title>
<g id="a_Node000007"><a xlink:href="../../d8/d38/Time_8cpp.html#a6e80f7bf6607915feab788ebdc5a3bf8" target="_top" xlink:title=" ">
<polygon fill="white" stroke="#666666" points="484.5,-146 347.5,-146 347.5,-127 484.5,-127 484.5,-146"/>
<text text-anchor="middle" x="416" y="-134" font-family="Helvetica,sans-Serif" font-size="10.00">GetTimeSinceGameStart</text>
</a>
</g>
</g>
<!-- Node1&#45;&gt;Node7 -->
<g id="edge9_Node000001_Node000007" class="edge">
<title>Node1&#45;&gt;Node7</title>
<g id="a_edge9_Node000001_Node000007"><a xlink:title=" ">
<path fill="none" stroke="#63b8ff" d="M92.1,-120.6C111.92,-131.6 140.7,-145.58 168,-151.5 233.99,-165.82 312.05,-156.9 362.49,-147.88"/>
<polygon fill="#63b8ff" stroke="#63b8ff" points="363.32,-151.29 372.51,-146.02 362.04,-144.41 363.32,-151.29"/>
</a>
</g>
</g>
<!-- Node8 -->
<g id="Node000008" class="node">
<title>Node8</title>
<g id="a_Node000008"><a xlink:href="../../d5/dda/ObjectSpawning_8cpp.html#ad8f89b5d9076607112a750cc140f07ec" target="_top" xlink:title="Spawn a new coffee object.">
<polygon fill="white" stroke="#666666" points="274,-19 194,-19 194,0 274,0 274,-19"/>
<text text-anchor="middle" x="234" y="-7" font-family="Helvetica,sans-Serif" font-size="10.00">SpawnCoffee</text>
</a>
</g>
</g>
<!-- Node1&#45;&gt;Node8 -->
<g id="edge10_Node000001_Node000008" class="edge">
<title>Node1&#45;&gt;Node8</title>
<g id="a_edge10_Node000001_Node000008"><a xlink:title=" ">
<path fill="none" stroke="#63b8ff" d="M82.88,-90.38C101.77,-73.15 134.94,-45.21 168,-28.5 173.18,-25.88 178.77,-23.57 184.43,-21.54"/>
<polygon fill="#63b8ff" stroke="#63b8ff" points="185.56,-24.85 193.95,-18.39 183.36,-18.21 185.56,-24.85"/>
</a>
</g>
</g>
<!-- Node10 -->
<g id="Node000010" class="node">
<title>Node10</title>
<g id="a_Node000010"><a xlink:href="../../d5/dda/ObjectSpawning_8cpp.html#abb03ee227a4d9759be2916f379f21c86" target="_top" xlink:title="Spawn a new enemy.">
<polygon fill="white" stroke="#666666" points="275.5,-56 192.5,-56 192.5,-37 275.5,-37 275.5,-56"/>
<text text-anchor="middle" x="234" y="-44" font-family="Helvetica,sans-Serif" font-size="10.00">SpawnEnemy</text>
</a>
</g>
</g>
<!-- Node1&#45;&gt;Node10 -->
<g id="edge13_Node000001_Node000010" class="edge">
<title>Node1&#45;&gt;Node10</title>
<g id="a_edge13_Node000001_Node000010"><a xlink:title=" ">
<path fill="none" stroke="#63b8ff" d="M109.32,-90.46C136.12,-80.93 170.43,-68.74 196.11,-59.61"/>
<polygon fill="#63b8ff" stroke="#63b8ff" points="197.6,-62.8 205.85,-56.15 195.25,-56.2 197.6,-62.8"/>
</a>
</g>
</g>
<!-- Node3&#45;&gt;Node2 -->
<g id="edge3_Node000003_Node000002" class="edge">
<title>Node3&#45;&gt;Node2</title>
<g id="a_edge3_Node000003_Node000002"><a xlink:title=" ">
<path fill="none" stroke="#63b8ff" d="M273.17,-142.56C300.62,-153.38 337.82,-168.05 367.23,-179.66"/>
<polygon fill="#63b8ff" stroke="#63b8ff" points="366.29,-183.05 376.88,-183.46 368.86,-176.54 366.29,-183.05"/>
</a>
</g>
</g>
<!-- Node4 -->
<g id="Node000004" class="node">
<title>Node4</title>
<g id="a_Node000004"><a xlink:href="../../d4/d63/RandomNumberGenerator_8cpp.html#ab41bae80bddaf892520d0c17bcfc873b" target="_top" xlink:title="Generate a random float between 0 and 1.">
<polygon fill="white" stroke="#666666" points="493.5,-56 338.5,-56 338.5,-37 493.5,-37 493.5,-56"/>
<text text-anchor="middle" x="416" y="-44" font-family="Helvetica,sans-Serif" font-size="10.00">GetRandomNormalizedFloat</text>
</a>
</g>
</g>
<!-- Node3&#45;&gt;Node4 -->
<g id="edge4_Node000003_Node000004" class="edge">
<title>Node3&#45;&gt;Node4</title>
<g id="a_edge4_Node000003_Node000004"><a xlink:title=" ">
<path fill="none" stroke="#63b8ff" d="M268.43,-112.45C301.7,-97.49 352.29,-74.72 384.49,-60.23"/>
<polygon fill="#63b8ff" stroke="#63b8ff" points="386.17,-63.31 393.85,-56.02 383.3,-56.93 386.17,-63.31"/>
</a>
</g>
</g>
<!-- Node3&#45;&gt;Node7 -->
<g id="edge7_Node000003_Node000007" class="edge">
<title>Node3&#45;&gt;Node7</title>
<g id="a_edge7_Node000003_Node000007"><a xlink:title=" ">
<path fill="none" stroke="#63b8ff" d="M300.24,-130.76C312.19,-131.36 324.77,-131.99 337.04,-132.6"/>
<polygon fill="#63b8ff" stroke="#63b8ff" points="337.1,-136.11 347.26,-133.11 337.45,-129.12 337.1,-136.11"/>
</a>
</g>
</g>
<!-- Node4&#45;&gt;Node5 -->
<g id="edge5_Node000004_Node000005" class="edge">
<title>Node4&#45;&gt;Node5</title>
<g id="a_edge5_Node000004_Node000005"><a xlink:title=" ">
<path fill="none" stroke="#63b8ff" d="M493.9,-55.78C503.22,-56.9 512.57,-58.03 521.44,-59.1"/>
<polygon fill="#63b8ff" stroke="#63b8ff" points="521.24,-62.6 531.59,-60.32 522.08,-55.65 521.24,-62.6"/>
</a>
</g>
</g>
<!-- Node6 -->
<g id="Node000006" class="node">
<title>Node6</title>
<g id="a_Node000006"><a xlink:href="../../d4/d63/RandomNumberGenerator_8cpp.html#af6fa6d283a85410eb131612aa6ae9a6f" target="_top" xlink:title="The random engine created from the randomDevice.">
<polygon fill="white" stroke="#666666" points="742,-75 655,-75 655,-56 742,-56 742,-75"/>
<text text-anchor="middle" x="698.5" y="-63" font-family="Helvetica,sans-Serif" font-size="10.00">randomEngine</text>
</a>
</g>
</g>
<!-- Node5&#45;&gt;Node6 -->
<g id="edge6_Node000005_Node000006" class="edge">
<title>Node5&#45;&gt;Node6</title>
<g id="a_edge6_Node000005_Node000006"><a xlink:title=" ">
<path fill="none" stroke="#63b8ff" d="M619.16,-65.5C627.38,-65.5 636.09,-65.5 644.59,-65.5"/>
<polygon fill="#63b8ff" stroke="#63b8ff" points="644.82,-69 654.82,-65.5 644.82,-62 644.82,-69"/>
</a>
</g>
</g>
<!-- Node8&#45;&gt;Node4 -->
<g id="edge12_Node000008_Node000004" class="edge">
<title>Node8&#45;&gt;Node4</title>
<g id="a_edge12_Node000008_Node000004"><a xlink:title=" ">
<path fill="none" stroke="#63b8ff" d="M274.06,-17.53C298.83,-22.62 331.28,-29.29 358.8,-34.95"/>
<polygon fill="#63b8ff" stroke="#63b8ff" points="358.19,-38.4 368.69,-36.98 359.6,-31.54 358.19,-38.4"/>
</a>
</g>
</g>
<!-- Node9 -->
<g id="Node000009" class="node">
<title>Node9</title>
<g id="a_Node000009"><a xlink:href="../../d2/d41/ObjectManagement_8cpp.html#a9f8d0a459a7758c8b2d0b72cdd8adad0" target="_top" xlink:title="Enqueue an object to be registered on the next frame.">
<polygon fill="white" stroke="#666666" points="496,-19 336,-19 336,0 496,0 496,-19"/>
<text text-anchor="middle" x="416" y="-7" font-family="Helvetica,sans-Serif" font-size="10.00">EnqueueRegisterGameObject</text>
</a>
</g>
</g>
<!-- Node8&#45;&gt;Node9 -->
<g id="edge11_Node000008_Node000009" class="edge">
<title>Node8&#45;&gt;Node9</title>
<g id="a_edge11_Node000008_Node000009"><a xlink:title=" ">
<path fill="none" stroke="#63b8ff" d="M274.06,-9.5C289.32,-9.5 307.51,-9.5 325.66,-9.5"/>
<polygon fill="#63b8ff" stroke="#63b8ff" points="325.72,-13 335.72,-9.5 325.72,-6 325.72,-13"/>
</a>
</g>
</g>
<!-- Node10&#45;&gt;Node4 -->
<g id="edge15_Node000010_Node000004" class="edge">
<title>Node10&#45;&gt;Node4</title>
<g id="a_edge15_Node000010_Node000004"><a xlink:title=" ">
<path fill="none" stroke="#63b8ff" d="M275.84,-46.5C291.42,-46.5 309.84,-46.5 328.08,-46.5"/>
<polygon fill="#63b8ff" stroke="#63b8ff" points="328.18,-50 338.18,-46.5 328.18,-43 328.18,-50"/>
</a>
</g>
</g>
<!-- Node10&#45;&gt;Node9 -->
<g id="edge14_Node000010_Node000009" class="edge">
<title>Node10&#45;&gt;Node9</title>
<g id="a_edge14_Node000010_Node000009"><a xlink:title=" ">
<path fill="none" stroke="#63b8ff" d="M275.84,-38.1C300.31,-33.08 331.77,-26.61 358.58,-21.1"/>
<polygon fill="#63b8ff" stroke="#63b8ff" points="359.51,-24.48 368.61,-19.04 358.11,-17.62 359.51,-24.48"/>
</a>
</g>
</g>
</g>
</svg>
