<?xml version="1.0" encoding="UTF-8" standalone="no"?>
<!DOCTYPE svg PUBLIC "-//W3C//DTD SVG 1.1//EN"
 "http://www.w3.org/Graphics/SVG/1.1/DTD/svg11.dtd">
<!-- Generated by graphviz version 2.43.0 (0)
 -->
<!-- Title: GameManagerBehavior::OnTick Pages: 1 -->
<!--zoomable 215 -->

<svg id="main" version="1.1" xmlns="http://www.w3.org/2000/svg" xmlns:xlink="http://www.w3.org/1999/xlink" xml:space="preserve" onload="init(evt)">

<style type="text/css"><![CDATA[
.node, .edge {opacity: 0.7;}
.node.selected, .edge.selected {opacity: 1;}
.edge:hover path { stroke: red; }
.edge:hover polygon { stroke: red; fill: red; }
]]></style>

<defs>
  <circle id="rim" cx="0" cy="0" r="7"/>
  <circle id="rim2" cx="0" cy="0" r="3.5"/>
  <g id="zoomPlus">
    <use xlink:href="#rim" fill="#404040"><set attributeName="fill" to="#808080" begin="zoomplus.mouseover" end="zoomplus.mouseout"/></use>
    <path d="M-4,0h8M0,-4v8" fill="none" stroke="white" stroke-width="1.5" pointer-events="none"/>
  </g>
  <g id="zoomMin">
    <use xlink:href="#rim" fill="#404040"><set attributeName="fill" to="#808080" begin="zoomminus.mouseover" end="zoomminus.mouseout"/></use>
    <path d="M-4,0h8" fill="none" stroke="white" stroke-width="1.5" pointer-events="none"/>
  </g>
  <g id="arrowUp" transform="translate(30 24)">
    <use xlink:href="#rim"/>
    <path pointer-events="none" fill="none" stroke="white" stroke-width="1.5" d="M0,-3.0v7 M-2.5,-0.5L0,-3.0L2.5,-0.5"/>
  </g>
  <g id="arrowRight" transform="rotate(90) translate(36 -43)">
    <use xlink:href="#rim"/>
    <path pointer-events="none" fill="none" stroke="white" stroke-width="1.5" d="M0,-3.0v7 M-2.5,-0.5L0,-3.0L2.5,-0.5"/>
  </g>
  <g id="arrowDown" transform="rotate(180) translate(-30 -48)">
    <use xlink:href="#rim"/>
    <path pointer-events="none" fill="none" stroke="white" stroke-width="1.5" d="M0,-3.0v7 M-2.5,-0.5L0,-3.0L2.5,-0.5"/>
  </g>
  <g id="arrowLeft" transform="rotate(270) translate(-36 17)">
    <use xlink:href="#rim"/>
    <path pointer-events="none" fill="none" stroke="white" stroke-width="1.5" d="M0,-3.0v7 M-2.5,-0.5L0,-3.0L2.5,-0.5"/>
  </g>
  <g id="resetDef">
    <use xlink:href="#rim2" fill="#404040"><set attributeName="fill" to="#808080" begin="reset.mouseover" end="reset.mouseout"/></use>
  </g>
</defs>
<script type="application/ecmascript">
var viewWidth = 722;
var viewHeight = 215;
var sectionId = 'dynsection-2';
</script>
<script type="application/ecmascript" xlink:href="../../svg.min.js"/>
<svg id="graph" class="graph">
<g id="viewport">
<title>GameManagerBehavior::OnTick</title>
<!-- Node1 -->
<g id="Node000001" class="node">
<title>Node1</title>
<g id="a_Node000001"><a xlink:title=" ">
<polygon fill="#999999" stroke="#666666" points="132,-117.5 0,-117.5 0,-87.5 132,-87.5 132,-117.5"/>
<text text-anchor="start" x="8" y="-105.5" font-family="Helvetica,sans-Serif" font-size="10.00">GameManagerBehavior</text>
<text text-anchor="middle" x="66" y="-94.5" font-family="Helvetica,sans-Serif" font-size="10.00">::OnTick</text>
</a>
</g>
</g>
<!-- Node2 -->
<g id="Node000002" class="node">
<title>Node2</title>
<g id="a_Node000002"><a xlink:href="../../d8/d38/Time_8cpp.html#a5da05cbf25fbfbc8a9c6b8481ad23664" target="_top" xlink:title="Return the time it took to render the last frame in milliseconds.">
<polygon fill="white" stroke="#666666" points="262.5,-207 177.5,-207 177.5,-188 262.5,-188 262.5,-207"/>
<text text-anchor="middle" x="220" y="-195" font-family="Helvetica,sans-Serif" font-size="10.00">GetDeltaTime</text>
</a>
</g>
</g>
<!-- Node1&#45;&gt;Node2 -->
<g id="edge1_Node000001_Node000002" class="edge">
<title>Node1&#45;&gt;Node2</title>
<g id="a_edge1_Node000001_Node000002"><a xlink:title=" ">
<path fill="none" stroke="#63b8ff" d="M86.45,-117.7C106.31,-132.85 138.35,-156.27 168,-173.5 174.08,-177.03 180.77,-180.48 187.25,-183.6"/>
<polygon fill="#63b8ff" stroke="#63b8ff" points="185.94,-186.85 196.48,-187.92 188.91,-180.51 185.94,-186.85"/>
</a>
</g>
</g>
<!-- Node3 -->
<g id="Node000003" class="node">
<title>Node3</title>
<g id="a_Node000003"><a xlink:href="../../df/d88/GameManagerBehavior_8cpp.html#a29dbc5368f82dd5ae1d33dc83189f4a0" target="_top" xlink:title=" ">
<polygon fill="white" stroke="#666666" points="459.5,-131 316.5,-131 316.5,-112 459.5,-112 459.5,-131"/>
<text text-anchor="middle" x="388" y="-119" font-family="Helvetica,sans-Serif" font-size="10.00">GetGameDifficultyAtTime</text>
</a>
</g>
</g>
<!-- Node1&#45;&gt;Node3 -->
<g id="edge2_Node000001_Node000003" class="edge">
<title>Node1&#45;&gt;Node3</title>
<g id="a_edge2_Node000001_Node000003"><a xlink:title=" ">
<path fill="none" stroke="#63b8ff" d="M132.14,-106.37C182.44,-109.35 252.32,-113.5 306.19,-116.7"/>
<polygon fill="#63b8ff" stroke="#63b8ff" points="306.2,-120.21 316.39,-117.31 306.62,-113.22 306.2,-120.21"/>
</a>
</g>
</g>
<!-- Node4 -->
<g id="Node000004" class="node">
<title>Node4</title>
<g id="a_Node000004"><a xlink:href="../../df/d88/GameManagerBehavior_8cpp.html#af3e43ada7e9f58d057b3ebe83c97730e" target="_top" xlink:title=" ">
<polygon fill="white" stroke="#666666" points="272,-93 168,-93 168,-74 272,-74 272,-93"/>
<text text-anchor="middle" x="220" y="-81" font-family="Helvetica,sans-Serif" font-size="10.00">GetObjectVelocity</text>
</a>
</g>
</g>
<!-- Node1&#45;&gt;Node4 -->
<g id="edge3_Node000001_Node000004" class="edge">
<title>Node1&#45;&gt;Node4</title>
<g id="a_edge3_Node000001_Node000004"><a xlink:title=" ">
<path fill="none" stroke="#63b8ff" d="M132.34,-94.33C140.81,-93.27 149.46,-92.19 157.85,-91.14"/>
<polygon fill="#63b8ff" stroke="#63b8ff" points="158.45,-94.6 167.94,-89.88 157.58,-87.65 158.45,-94.6"/>
</a>
</g>
</g>
<!-- Node6 -->
<g id="Node000006" class="node">
<title>Node6</title>
<g id="a_Node000006"><a xlink:href="../../d4/d63/RandomNumberGenerator_8cpp.html#ab3b4d2c18f8ed2adbded9e672d49418a" target="_top" xlink:title="Generate a random integer in bounds.">
<polygon fill="white" stroke="#666666" points="591,-131 504,-131 504,-112 591,-112 591,-131"/>
<text text-anchor="middle" x="547.5" y="-119" font-family="Helvetica,sans-Serif" font-size="10.00">GetRandomInt</text>
</a>
</g>
</g>
<!-- Node1&#45;&gt;Node6 -->
<g id="edge8_Node000001_Node000006" class="edge">
<title>Node1&#45;&gt;Node6</title>
<g id="a_edge8_Node000001_Node000006"><a xlink:title=" ">
<path fill="none" stroke="#63b8ff" d="M131.47,-117.56C143.57,-120.09 156.14,-122.54 168,-124.5 299.73,-146.32 335.42,-156.32 468,-140.5 480.06,-139.06 492.95,-136.42 504.72,-133.56"/>
<polygon fill="#63b8ff" stroke="#63b8ff" points="505.9,-136.87 514.73,-131.01 504.18,-130.08 505.9,-136.87"/>
</a>
</g>
</g>
<!-- Node8 -->
<g id="Node000008" class="node">
<title>Node8</title>
<g id="a_Node000008"><a xlink:href="../../df/d88/GameManagerBehavior_8cpp.html#a07e6c2b5429917c119a839acc53cbfa9" target="_top" xlink:title=" ">
<polygon fill="white" stroke="#666666" points="260,-56 180,-56 180,-37 260,-37 260,-56"/>
<text text-anchor="middle" x="220" y="-44" font-family="Helvetica,sans-Serif" font-size="10.00">SpawnCoffee</text>
</a>
</g>
</g>
<!-- Node1&#45;&gt;Node8 -->
<g id="edge9_Node000001_Node000008" class="edge">
<title>Node1&#45;&gt;Node8</title>
<g id="a_edge9_Node000001_Node000008"><a xlink:title=" ">
<path fill="none" stroke="#63b8ff" d="M107.73,-87.49C131.33,-78.8 160.75,-67.96 183.41,-59.61"/>
<polygon fill="#63b8ff" stroke="#63b8ff" points="184.81,-62.83 192.98,-56.08 182.39,-56.26 184.81,-62.83"/>
</a>
</g>
</g>
<!-- Node11 -->
<g id="Node000011" class="node">
<title>Node11</title>
<g id="a_Node000011"><a xlink:href="../../df/d88/GameManagerBehavior_8cpp.html#a2a12711db7d8e91b16655c1c98c6cdb2" target="_top" xlink:title=" ">
<polygon fill="white" stroke="#666666" points="261.5,-19 178.5,-19 178.5,0 261.5,0 261.5,-19"/>
<text text-anchor="middle" x="220" y="-7" font-family="Helvetica,sans-Serif" font-size="10.00">SpawnEnemy</text>
</a>
</g>
</g>
<!-- Node1&#45;&gt;Node11 -->
<g id="edge13_Node000001_Node000011" class="edge">
<title>Node1&#45;&gt;Node11</title>
<g id="a_edge13_Node000001_Node000011"><a xlink:title=" ">
<path fill="none" stroke="#63b8ff" d="M84.15,-87.22C103.43,-70.69 136.19,-44.43 168,-27.5 171.12,-25.84 174.43,-24.28 177.79,-22.82"/>
<polygon fill="#63b8ff" stroke="#63b8ff" points="179.36,-25.97 187.35,-19.01 176.77,-19.46 179.36,-25.97"/>
</a>
</g>
</g>
<!-- Node4&#45;&gt;Node3 -->
<g id="edge4_Node000004_Node000003" class="edge">
<title>Node4&#45;&gt;Node3</title>
<g id="a_edge4_Node000004_Node000003"><a xlink:title=" ">
<path fill="none" stroke="#63b8ff" d="M262.89,-93.09C284.89,-98.13 312.05,-104.34 335.35,-109.68"/>
<polygon fill="#63b8ff" stroke="#63b8ff" points="334.88,-113.16 345.41,-111.98 336.45,-106.34 334.88,-113.16"/>
</a>
</g>
</g>
<!-- Node5 -->
<g id="Node000005" class="node">
<title>Node5</title>
<g id="a_Node000005"><a xlink:href="../../d4/d63/RandomNumberGenerator_8cpp.html#ab41bae80bddaf892520d0c17bcfc873b" target="_top" xlink:title="Generate a random float between 0 and 1.">
<polygon fill="white" stroke="#666666" points="465.5,-93 310.5,-93 310.5,-74 465.5,-74 465.5,-93"/>
<text text-anchor="middle" x="388" y="-81" font-family="Helvetica,sans-Serif" font-size="10.00">GetRandomNormalizedFloat</text>
</a>
</g>
</g>
<!-- Node4&#45;&gt;Node5 -->
<g id="edge5_Node000004_Node000005" class="edge">
<title>Node4&#45;&gt;Node5</title>
<g id="a_edge5_Node000004_Node000005"><a xlink:title=" ">
<path fill="none" stroke="#63b8ff" d="M272.16,-83.5C281.14,-83.5 290.7,-83.5 300.34,-83.5"/>
<polygon fill="#63b8ff" stroke="#63b8ff" points="300.37,-87 310.37,-83.5 300.37,-80 300.37,-87"/>
</a>
</g>
</g>
<!-- Node5&#45;&gt;Node6 -->
<g id="edge6_Node000005_Node000006" class="edge">
<title>Node5&#45;&gt;Node6</title>
<g id="a_edge6_Node000005_Node000006"><a xlink:title=" ">
<path fill="none" stroke="#63b8ff" d="M428.74,-93.09C449.53,-98.1 475.16,-104.29 497.2,-109.61"/>
<polygon fill="#63b8ff" stroke="#63b8ff" points="496.5,-113.04 507.04,-111.98 498.14,-106.23 496.5,-113.04"/>
</a>
</g>
</g>
<!-- Node7 -->
<g id="Node000007" class="node">
<title>Node7</title>
<g id="a_Node000007"><a xlink:href="../../d4/d63/RandomNumberGenerator_8cpp.html#af6fa6d283a85410eb131612aa6ae9a6f" target="_top" xlink:title=" ">
<polygon fill="white" stroke="#666666" points="714,-131 627,-131 627,-112 714,-112 714,-131"/>
<text text-anchor="middle" x="670.5" y="-119" font-family="Helvetica,sans-Serif" font-size="10.00">randomEngine</text>
</a>
</g>
</g>
<!-- Node6&#45;&gt;Node7 -->
<g id="edge7_Node000006_Node000007" class="edge">
<title>Node6&#45;&gt;Node7</title>
<g id="a_edge7_Node000006_Node000007"><a xlink:title=" ">
<path fill="none" stroke="#63b8ff" d="M591.16,-121.5C599.38,-121.5 608.09,-121.5 616.59,-121.5"/>
<polygon fill="#63b8ff" stroke="#63b8ff" points="616.82,-125 626.82,-121.5 616.82,-118 616.82,-125"/>
</a>
</g>
</g>
<!-- Node8&#45;&gt;Node5 -->
<g id="edge12_Node000008_Node000005" class="edge">
<title>Node8&#45;&gt;Node5</title>
<g id="a_edge12_Node000008_Node000005"><a xlink:title=" ">
<path fill="none" stroke="#63b8ff" d="M260.34,-55.27C282.4,-60.19 310.22,-66.39 334.16,-71.72"/>
<polygon fill="#63b8ff" stroke="#63b8ff" points="333.64,-75.19 344.16,-73.95 335.16,-68.36 333.64,-75.19"/>
</a>
</g>
</g>
<!-- Node9 -->
<g id="Node000009" class="node">
<title>Node9</title>
<g id="a_Node000009"><a xlink:href="../../de/dfd/GameManagement_8cpp.html#a9f8d0a459a7758c8b2d0b72cdd8adad0" target="_top" xlink:title="Enqueue an object to be registered on the next frame.">
<polygon fill="white" stroke="#666666" points="468,-19 308,-19 308,0 468,0 468,-19"/>
<text text-anchor="middle" x="388" y="-7" font-family="Helvetica,sans-Serif" font-size="10.00">EnqueueRegisterGameObject</text>
</a>
</g>
</g>
<!-- Node8&#45;&gt;Node9 -->
<g id="edge10_Node000008_Node000009" class="edge">
<title>Node8&#45;&gt;Node9</title>
<g id="a_edge10_Node000008_Node000009"><a xlink:title=" ">
<path fill="none" stroke="#63b8ff" d="M260.34,-37.73C282.4,-32.81 310.22,-26.61 334.16,-21.28"/>
<polygon fill="#63b8ff" stroke="#63b8ff" points="335.16,-24.64 344.16,-19.05 333.64,-17.81 335.16,-24.64"/>
</a>
</g>
</g>
<!-- Node10 -->
<g id="Node000010" class="node">
<title>Node10</title>
<g id="a_Node000010"><a xlink:href="../../d1/da9/AssetLoading_8cpp.html#a07739f40c13743b2dfceefb659d6d455" target="_top" xlink:title=" ">
<polygon fill="white" stroke="#666666" points="429,-56 347,-56 347,-37 429,-37 429,-56"/>
<text text-anchor="middle" x="388" y="-44" font-family="Helvetica,sans-Serif" font-size="10.00">GetAssetPath</text>
</a>
</g>
</g>
<!-- Node8&#45;&gt;Node10 -->
<g id="edge11_Node000008_Node000010" class="edge">
<title>Node8&#45;&gt;Node10</title>
<g id="a_edge11_Node000008_Node000010"><a xlink:title=" ">
<path fill="none" stroke="#63b8ff" d="M260.34,-46.5C283.16,-46.5 312.13,-46.5 336.61,-46.5"/>
<polygon fill="#63b8ff" stroke="#63b8ff" points="336.79,-50 346.79,-46.5 336.79,-43 336.79,-50"/>
</a>
</g>
</g>
<!-- Node11&#45;&gt;Node5 -->
<g id="edge16_Node000011_Node000005" class="edge">
<title>Node11&#45;&gt;Node5</title>
<g id="a_edge16_Node000011_Node000005"><a xlink:title=" ">
<path fill="none" stroke="#63b8ff" d="M255.26,-19.06C261.07,-21.38 266.88,-24.18 272,-27.5 291.51,-40.17 287.79,-53.98 308,-65.5 311.09,-67.26 314.33,-68.85 317.68,-70.28"/>
<polygon fill="#63b8ff" stroke="#63b8ff" points="316.73,-73.66 327.32,-73.92 319.2,-67.11 316.73,-73.66"/>
</a>
</g>
</g>
<!-- Node11&#45;&gt;Node9 -->
<g id="edge14_Node000011_Node000009" class="edge">
<title>Node11&#45;&gt;Node9</title>
<g id="a_edge14_Node000011_Node000009"><a xlink:title=" ">
<path fill="none" stroke="#63b8ff" d="M261.61,-9.5C272.67,-9.5 285.1,-9.5 297.72,-9.5"/>
<polygon fill="#63b8ff" stroke="#63b8ff" points="297.86,-13 307.86,-9.5 297.86,-6 297.86,-13"/>
</a>
</g>
</g>
<!-- Node11&#45;&gt;Node10 -->
<g id="edge15_Node000011_Node000010" class="edge">
<title>Node11&#45;&gt;Node10</title>
<g id="a_edge15_Node000011_Node000010"><a xlink:title=" ">
<path fill="none" stroke="#63b8ff" d="M261.61,-18.55C284.28,-23.61 312.73,-29.95 336.8,-35.31"/>
<polygon fill="#63b8ff" stroke="#63b8ff" points="336.29,-38.78 346.81,-37.54 337.81,-31.95 336.29,-38.78"/>
</a>
</g>
</g>
</g>
</svg>

<g id="navigator" transform="translate(0 0)" fill="#404254">
  <rect fill="#f2f5e9" fill-opacity="0.5" stroke="#606060" stroke-width=".5" x="0" y="0" width="60" height="60"/>
  <use id="zoomplus" xlink:href="#zoomPlus" x="17" y="9" onmousedown="handleZoom(evt,'in')"/>
  <use id="zoomminus" xlink:href="#zoomMin" x="42" y="9" onmousedown="handleZoom(evt,'out')"/>
  <use id="reset" xlink:href="#resetDef" x="30" y="36" onmousedown="handleReset()"/>
   <use id="arrowup" xlink:href="#arrowUp" x="0" y="0" onmousedown="handlePan(0,-1)"/>
  <use id="arrowright" xlink:href="#arrowRight" x="0" y="0" onmousedown="handlePan(1,0)"/>
  <use id="arrowdown" xlink:href="#arrowDown" x="0" y="0" onmousedown="handlePan(0,1)"/>
  <use id="arrowleft" xlink:href="#arrowLeft" x="0" y="0" onmousedown="handlePan(-1,0)"/>
</g>
<svg viewBox="0 0 15 15" width="100%" height="30px" preserveAspectRatio="xMaxYMin meet">
 <g id="arrow_out" transform="scale(0.3 0.3)">
  <a xlink:href="classGameManagerBehavior_a432014bfe65aa92c7f74b7e6e88c475a_cgraph_org.svg" target="_base">
   <rect id="button" ry="5" rx="5" y="6" x="6" height="38" width="38"
        fill="#f2f5e9" fill-opacity="0.5" stroke="#606060" stroke-width="1.0"/>
   <path id="arrow"
     d="M 11.500037,31.436501 C 11.940474,20.09759 22.043105,11.32322 32.158766,21.979434 L 37.068811,17.246167 C 37.068811,17.246167 37.088388,32 37.088388,32 L 22.160133,31.978069 C 22.160133,31.978069 26.997745,27.140456 26.997745,27.140456 C 18.528582,18.264221 13.291696,25.230495 11.500037,31.436501 z"
     style="fill:#404040;"/>
  </a>
 </g>
</svg>

<style type='text/css'>
<![CDATA[
[data-mouse-over-selected='false'] { opacity: 0.7; }
[data-mouse-over-selected='true']  { opacity: 1.0; }
]]>
</style>
<script type="application/ecmascript"><![CDATA[
document.addEventListener('DOMContentLoaded', (event) => {
  highlightEdges();
  highlightAdjacentNodes();
});
]]></script>
</svg>
