<?xml version="1.0" encoding="UTF-8" standalone="no"?>
<!DOCTYPE svg PUBLIC "-//W3C//DTD SVG 1.1//EN"
 "http://www.w3.org/Graphics/SVG/1.1/DTD/svg11.dtd">
<!-- Generated by graphviz version 2.43.0 (0)
 -->
<!-- Title: GameManagerBehavior::OnTick Pages: 1 -->
<svg width="750pt" height="209pt"
 viewBox="0.00 0.00 750.00 208.74" xmlns="http://www.w3.org/2000/svg" xmlns:xlink="http://www.w3.org/1999/xlink">
<g id="graph0" class="graph" transform="scale(1 1) rotate(0) translate(4 204.74)">
<title>GameManagerBehavior::OnTick</title>
<!-- Node1 -->
<g id="Node000001" class="node">
<title>Node1</title>
<g id="a_Node000001"><a xlink:title=" ">
<polygon fill="#999999" stroke="#666666" points="132,-125.5 0,-125.5 0,-95.5 132,-95.5 132,-125.5"/>
<text text-anchor="start" x="8" y="-113.5" font-family="Helvetica,sans-Serif" font-size="10.00">GameManagerBehavior</text>
<text text-anchor="middle" x="66" y="-102.5" font-family="Helvetica,sans-Serif" font-size="10.00">::OnTick</text>
</a>
</g>
</g>
<!-- Node2 -->
<g id="Node000002" class="node">
<title>Node2</title>
<g id="a_Node000002"><a xlink:href="../../d1/d21/classGameManagerBehavior.html#a1adb4bebf7b769bfec9bcb7629c0c8c9" target="_top" xlink:title="Calculate the difficulty at the specified game uptime.">
<polygon fill="white" stroke="#666666" points="490.5,-180.5 341.5,-180.5 341.5,-150.5 490.5,-150.5 490.5,-180.5"/>
<text text-anchor="start" x="349.5" y="-168.5" font-family="Helvetica,sans-Serif" font-size="10.00">GameManagerBehavior</text>
<text text-anchor="middle" x="416" y="-157.5" font-family="Helvetica,sans-Serif" font-size="10.00">::GetGameDifficultyAtTime</text>
</a>
</g>
</g>
<!-- Node1&#45;&gt;Node2 -->
<g id="edge1_Node000001_Node000002" class="edge">
<title>Node1&#45;&gt;Node2</title>
<g id="a_edge1_Node000001_Node000002"><a xlink:title=" ">
<path fill="none" stroke="#63b8ff" d="M132.13,-123.16C144.05,-125.36 156.38,-127.56 168,-129.5 222.27,-138.56 283.47,-147.48 331.37,-154.18"/>
<polygon fill="#63b8ff" stroke="#63b8ff" points="331,-157.67 341.38,-155.58 331.96,-150.73 331,-157.67"/>
</a>
</g>
</g>
<!-- Node3 -->
<g id="Node000003" class="node">
<title>Node3</title>
<g id="a_Node000003"><a xlink:href="../../d1/d21/classGameManagerBehavior.html#a03f055b9130a3014a32bf722ba48eebf" target="_top" xlink:title="Return the velocity of an object at the current time.">
<polygon fill="white" stroke="#666666" points="300,-104.5 168,-104.5 168,-74.5 300,-74.5 300,-104.5"/>
<text text-anchor="start" x="176" y="-92.5" font-family="Helvetica,sans-Serif" font-size="10.00">GameManagerBehavior</text>
<text text-anchor="middle" x="234" y="-81.5" font-family="Helvetica,sans-Serif" font-size="10.00">::GetObjectVelocity</text>
</a>
</g>
</g>
<!-- Node1&#45;&gt;Node3 -->
<g id="edge2_Node000001_Node000003" class="edge">
<title>Node1&#45;&gt;Node3</title>
<g id="a_edge2_Node000001_Node000003"><a xlink:title=" ">
<path fill="none" stroke="#63b8ff" d="M132.13,-102.26C140.55,-101.2 149.23,-100.1 157.8,-99.01"/>
<polygon fill="#63b8ff" stroke="#63b8ff" points="158.3,-102.48 167.78,-97.75 157.42,-95.53 158.3,-102.48"/>
</a>
</g>
</g>
<!-- Node5 -->
<g id="Node000005" class="node">
<title>Node5</title>
<g id="a_Node000005"><a xlink:href="../../d4/d63/RandomNumberGenerator_8cpp.html#ab3b4d2c18f8ed2adbded9e672d49418a" target="_top" xlink:title="Generate a random integer in bounds.">
<polygon fill="white" stroke="#666666" points="619,-156 532,-156 532,-137 619,-137 619,-156"/>
<text text-anchor="middle" x="575.5" y="-144" font-family="Helvetica,sans-Serif" font-size="10.00">GetRandomInt</text>
</a>
</g>
</g>
<!-- Node1&#45;&gt;Node5 -->
<g id="edge8_Node000001_Node000005" class="edge">
<title>Node1&#45;&gt;Node5</title>
<g id="a_edge8_Node000001_Node000005"><a xlink:title=" ">
<path fill="none" stroke="#63b8ff" d="M98.54,-125.58C169.96,-157.71 349.27,-227.06 496,-189.5 516.82,-184.17 538.05,-172.05 553.18,-162.03"/>
<polygon fill="#63b8ff" stroke="#63b8ff" points="555.49,-164.69 561.75,-156.14 551.52,-158.92 555.49,-164.69"/>
</a>
</g>
</g>
<!-- Node7 -->
<g id="Node000007" class="node">
<title>Node7</title>
<g id="a_Node000007"><a xlink:href="../../d8/d38/Time_8cpp.html#a6e80f7bf6607915feab788ebdc5a3bf8" target="_top" xlink:title=" ">
<polygon fill="white" stroke="#666666" points="484.5,-132 347.5,-132 347.5,-113 484.5,-113 484.5,-132"/>
<text text-anchor="middle" x="416" y="-120" font-family="Helvetica,sans-Serif" font-size="10.00">GetTimeSinceGameStart</text>
</a>
</g>
</g>
<!-- Node1&#45;&gt;Node7 -->
<g id="edge9_Node000001_Node000007" class="edge">
<title>Node1&#45;&gt;Node7</title>
<g id="a_edge9_Node000001_Node000007"><a xlink:title=" ">
<path fill="none" stroke="#63b8ff" d="M132.05,-112.74C190.19,-114.75 275.49,-117.69 337.22,-119.82"/>
<polygon fill="#63b8ff" stroke="#63b8ff" points="337.19,-123.32 347.3,-120.17 337.43,-116.32 337.19,-123.32"/>
</a>
</g>
</g>
<!-- Node8 -->
<g id="Node000008" class="node">
<title>Node8</title>
<g id="a_Node000008"><a xlink:href="../../d5/dda/ObjectSpawning_8cpp.html#ad8f89b5d9076607112a750cc140f07ec" target="_top" xlink:title="Spawn a new coffee object.">
<polygon fill="white" stroke="#666666" points="274,-19 194,-19 194,0 274,0 274,-19"/>
<text text-anchor="middle" x="234" y="-7" font-family="Helvetica,sans-Serif" font-size="10.00">SpawnCoffee</text>
</a>
</g>
</g>
<!-- Node1&#45;&gt;Node8 -->
<g id="edge10_Node000001_Node000008" class="edge">
<title>Node1&#45;&gt;Node8</title>
<g id="a_edge10_Node000001_Node000008"><a xlink:title=" ">
<path fill="none" stroke="#63b8ff" d="M81.7,-95.32C100.22,-77 133.8,-46.44 168,-28.5 173.14,-25.81 178.71,-23.44 184.35,-21.39"/>
<polygon fill="#63b8ff" stroke="#63b8ff" points="185.49,-24.7 193.86,-18.21 183.27,-18.06 185.49,-24.7"/>
</a>
</g>
</g>
<!-- Node11 -->
<g id="Node000011" class="node">
<title>Node11</title>
<g id="a_Node000011"><a xlink:href="../../d5/dda/ObjectSpawning_8cpp.html#abb03ee227a4d9759be2916f379f21c86" target="_top" xlink:title="Spawn a new enemy.">
<polygon fill="white" stroke="#666666" points="275.5,-56 192.5,-56 192.5,-37 275.5,-37 275.5,-56"/>
<text text-anchor="middle" x="234" y="-44" font-family="Helvetica,sans-Serif" font-size="10.00">SpawnEnemy</text>
</a>
</g>
</g>
<!-- Node1&#45;&gt;Node11 -->
<g id="edge14_Node000001_Node000011" class="edge">
<title>Node1&#45;&gt;Node11</title>
<g id="a_edge14_Node000001_Node000011"><a xlink:title=" ">
<path fill="none" stroke="#63b8ff" d="M97.94,-95.41C117.71,-86.1 144.03,-74.3 168,-65.5 174.08,-63.27 180.56,-61.11 186.98,-59.11"/>
<polygon fill="#63b8ff" stroke="#63b8ff" points="188.4,-62.34 196.96,-56.1 186.37,-55.64 188.4,-62.34"/>
</a>
</g>
</g>
<!-- Node3&#45;&gt;Node2 -->
<g id="edge3_Node000003_Node000002" class="edge">
<title>Node3&#45;&gt;Node2</title>
<g id="a_edge3_Node000003_Node000002"><a xlink:title=" ">
<path fill="none" stroke="#63b8ff" d="M260.97,-104.52C281.01,-115.71 309.68,-130.83 336,-141.5 340.78,-143.44 345.77,-145.3 350.82,-147.08"/>
<polygon fill="#63b8ff" stroke="#63b8ff" points="349.98,-150.49 360.58,-150.38 352.23,-143.86 349.98,-150.49"/>
</a>
</g>
</g>
<!-- Node4 -->
<g id="Node000004" class="node">
<title>Node4</title>
<g id="a_Node000004"><a xlink:href="../../d4/d63/RandomNumberGenerator_8cpp.html#ab41bae80bddaf892520d0c17bcfc873b" target="_top" xlink:title="Generate a random float between 0 and 1.">
<polygon fill="white" stroke="#666666" points="493.5,-94 338.5,-94 338.5,-75 493.5,-75 493.5,-94"/>
<text text-anchor="middle" x="416" y="-82" font-family="Helvetica,sans-Serif" font-size="10.00">GetRandomNormalizedFloat</text>
</a>
</g>
</g>
<!-- Node3&#45;&gt;Node4 -->
<g id="edge4_Node000003_Node000004" class="edge">
<title>Node3&#45;&gt;Node4</title>
<g id="a_edge4_Node000003_Node000004"><a xlink:title=" ">
<path fill="none" stroke="#63b8ff" d="M300.24,-87.69C309.33,-87.44 318.78,-87.17 328.19,-86.91"/>
<polygon fill="#63b8ff" stroke="#63b8ff" points="328.46,-90.41 338.36,-86.63 328.26,-83.41 328.46,-90.41"/>
</a>
</g>
</g>
<!-- Node3&#45;&gt;Node7 -->
<g id="edge7_Node000003_Node000007" class="edge">
<title>Node3&#45;&gt;Node7</title>
<g id="a_edge7_Node000003_Node000007"><a xlink:title=" ">
<path fill="none" stroke="#63b8ff" d="M300.24,-101.46C317.48,-104.62 336.04,-108.02 353.1,-111.15"/>
<polygon fill="#63b8ff" stroke="#63b8ff" points="352.48,-114.6 362.95,-112.96 353.74,-107.71 352.48,-114.6"/>
</a>
</g>
</g>
<!-- Node4&#45;&gt;Node5 -->
<g id="edge5_Node000004_Node000005" class="edge">
<title>Node4&#45;&gt;Node5</title>
<g id="a_edge5_Node000004_Node000005"><a xlink:title=" ">
<path fill="none" stroke="#63b8ff" d="M462.71,-94.06C473.77,-96.92 485.45,-100.41 496,-104.5 515.1,-111.9 535.45,-122.89 550.65,-131.77"/>
<polygon fill="#63b8ff" stroke="#63b8ff" points="549.01,-134.87 559.39,-136.98 552.59,-128.85 549.01,-134.87"/>
</a>
</g>
</g>
<!-- Node6 -->
<g id="Node000006" class="node">
<title>Node6</title>
<g id="a_Node000006"><a xlink:href="../../d4/d63/RandomNumberGenerator_8cpp.html#af6fa6d283a85410eb131612aa6ae9a6f" target="_top" xlink:title=" ">
<polygon fill="white" stroke="#666666" points="742,-156 655,-156 655,-137 742,-137 742,-156"/>
<text text-anchor="middle" x="698.5" y="-144" font-family="Helvetica,sans-Serif" font-size="10.00">randomEngine</text>
</a>
</g>
</g>
<!-- Node5&#45;&gt;Node6 -->
<g id="edge6_Node000005_Node000006" class="edge">
<title>Node5&#45;&gt;Node6</title>
<g id="a_edge6_Node000005_Node000006"><a xlink:title=" ">
<path fill="none" stroke="#63b8ff" d="M619.16,-146.5C627.38,-146.5 636.09,-146.5 644.59,-146.5"/>
<polygon fill="#63b8ff" stroke="#63b8ff" points="644.82,-150 654.82,-146.5 644.82,-143 644.82,-150"/>
</a>
</g>
</g>
<!-- Node8&#45;&gt;Node4 -->
<g id="edge13_Node000008_Node000004" class="edge">
<title>Node8&#45;&gt;Node4</title>
<g id="a_edge13_Node000008_Node000004"><a xlink:title=" ">
<path fill="none" stroke="#63b8ff" d="M274.18,-17.43C283.04,-20.16 292.14,-23.77 300,-28.5 319.66,-40.33 316.06,-54.15 336,-65.5 339.97,-67.76 344.2,-69.75 348.56,-71.51"/>
<polygon fill="#63b8ff" stroke="#63b8ff" points="347.66,-74.91 358.26,-74.99 350.03,-68.32 347.66,-74.91"/>
</a>
</g>
</g>
<!-- Node9 -->
<g id="Node000009" class="node">
<title>Node9</title>
<g id="a_Node000009"><a xlink:href="../../de/dfd/GameManagement_8cpp.html#a9f8d0a459a7758c8b2d0b72cdd8adad0" target="_top" xlink:title="Enqueue an object to be registered on the next frame.">
<polygon fill="white" stroke="#666666" points="496,-56 336,-56 336,-37 496,-37 496,-56"/>
<text text-anchor="middle" x="416" y="-44" font-family="Helvetica,sans-Serif" font-size="10.00">EnqueueRegisterGameObject</text>
</a>
</g>
</g>
<!-- Node8&#45;&gt;Node9 -->
<g id="edge11_Node000008_Node000009" class="edge">
<title>Node8&#45;&gt;Node9</title>
<g id="a_edge11_Node000008_Node000009"><a xlink:title=" ">
<path fill="none" stroke="#63b8ff" d="M274.06,-17.53C298.83,-22.62 331.28,-29.29 358.8,-34.95"/>
<polygon fill="#63b8ff" stroke="#63b8ff" points="358.19,-38.4 368.69,-36.98 359.6,-31.54 358.19,-38.4"/>
</a>
</g>
</g>
<!-- Node10 -->
<g id="Node000010" class="node">
<title>Node10</title>
<g id="a_Node000010"><a xlink:href="../../d1/da9/AssetLoading_8cpp.html#a07739f40c13743b2dfceefb659d6d455" target="_top" xlink:title="Return the correct asset path for the asset depending on the current environment.">
<polygon fill="white" stroke="#666666" points="457,-19 375,-19 375,0 457,0 457,-19"/>
<text text-anchor="middle" x="416" y="-7" font-family="Helvetica,sans-Serif" font-size="10.00">GetAssetPath</text>
</a>
</g>
</g>
<!-- Node8&#45;&gt;Node10 -->
<g id="edge12_Node000008_Node000010" class="edge">
<title>Node8&#45;&gt;Node10</title>
<g id="a_edge12_Node000008_Node000010"><a xlink:title=" ">
<path fill="none" stroke="#63b8ff" d="M274.06,-9.5C300.58,-9.5 335.9,-9.5 364.55,-9.5"/>
<polygon fill="#63b8ff" stroke="#63b8ff" points="364.77,-13 374.77,-9.5 364.77,-6 364.77,-13"/>
</a>
</g>
</g>
<!-- Node11&#45;&gt;Node4 -->
<g id="edge17_Node000011_Node000004" class="edge">
<title>Node11&#45;&gt;Node4</title>
<g id="a_edge17_Node000011_Node000004"><a xlink:title=" ">
<path fill="none" stroke="#63b8ff" d="M275.84,-55.12C300.68,-60.37 332.71,-67.13 359.79,-72.84"/>
<polygon fill="#63b8ff" stroke="#63b8ff" points="359.39,-76.34 369.89,-74.98 360.83,-69.49 359.39,-76.34"/>
</a>
</g>
</g>
<!-- Node11&#45;&gt;Node9 -->
<g id="edge15_Node000011_Node000009" class="edge">
<title>Node11&#45;&gt;Node9</title>
<g id="a_edge15_Node000011_Node000009"><a xlink:title=" ">
<path fill="none" stroke="#63b8ff" d="M275.84,-46.5C290.67,-46.5 308.07,-46.5 325.44,-46.5"/>
<polygon fill="#63b8ff" stroke="#63b8ff" points="325.65,-50 335.65,-46.5 325.65,-43 325.65,-50"/>
</a>
</g>
</g>
<!-- Node11&#45;&gt;Node10 -->
<g id="edge16_Node000011_Node000010" class="edge">
<title>Node11&#45;&gt;Node10</title>
<g id="a_edge16_Node000011_Node000010"><a xlink:title=" ">
<path fill="none" stroke="#63b8ff" d="M275.84,-38.1C302.27,-32.67 336.84,-25.57 364.91,-19.8"/>
<polygon fill="#63b8ff" stroke="#63b8ff" points="365.85,-23.18 374.94,-17.74 364.44,-16.32 365.85,-23.18"/>
</a>
</g>
</g>
</g>
</svg>
