<?xml version="1.0" encoding="UTF-8" standalone="no"?>
<!DOCTYPE svg PUBLIC "-//W3C//DTD SVG 1.1//EN"
 "http://www.w3.org/Graphics/SVG/1.1/DTD/svg11.dtd">
<!-- Generated by graphviz version 2.43.0 (0)
 -->
<!-- Title: GameManagerBehavior::GetObjectVelocity Pages: 1 -->
<svg width="577pt" height="113pt"
 viewBox="0.00 0.00 577.00 112.50" xmlns="http://www.w3.org/2000/svg" xmlns:xlink="http://www.w3.org/1999/xlink">
<g id="graph0" class="graph" transform="scale(1 1) rotate(0) translate(4 108.5)">
<title>GameManagerBehavior::GetObjectVelocity</title>
<!-- Node1 -->
<g id="Node000001" class="node">
<title>Node1</title>
<g id="a_Node000001"><a xlink:title="Return the velocity of an object at the current time.">
<polygon fill="#999999" stroke="#666666" points="132,-61.5 0,-61.5 0,-31.5 132,-31.5 132,-61.5"/>
<text text-anchor="start" x="8" y="-49.5" font-family="Helvetica,sans-Serif" font-size="10.00">GameManagerBehavior</text>
<text text-anchor="middle" x="66" y="-38.5" font-family="Helvetica,sans-Serif" font-size="10.00">::GetObjectVelocity</text>
</a>
</g>
</g>
<!-- Node2 -->
<g id="Node000002" class="node">
<title>Node2</title>
<g id="a_Node000002"><a xlink:href="../../d1/d21/classGameManagerBehavior.html#a1adb4bebf7b769bfec9bcb7629c0c8c9" target="_top" xlink:title="Calculate the difficulty at the specified game uptime.">
<polygon fill="white" stroke="#666666" points="320,-104.5 171,-104.5 171,-74.5 320,-74.5 320,-104.5"/>
<text text-anchor="start" x="179" y="-92.5" font-family="Helvetica,sans-Serif" font-size="10.00">GameManagerBehavior</text>
<text text-anchor="middle" x="245.5" y="-81.5" font-family="Helvetica,sans-Serif" font-size="10.00">::GetGameDifficultyAtTime</text>
</a>
</g>
</g>
<!-- Node1&#45;&gt;Node2 -->
<g id="edge1_Node000001_Node000002" class="edge">
<title>Node1&#45;&gt;Node2</title>
<g id="a_edge1_Node000001_Node000002"><a xlink:title=" ">
<path fill="none" stroke="#63b8ff" d="M129.08,-61.54C143.13,-64.94 158.17,-68.59 172.59,-72.08"/>
<polygon fill="#63b8ff" stroke="#63b8ff" points="171.91,-75.52 182.45,-74.47 173.56,-68.71 171.91,-75.52"/>
</a>
</g>
</g>
<!-- Node3 -->
<g id="Node000003" class="node">
<title>Node3</title>
<g id="a_Node000003"><a xlink:href="../../d4/d63/RandomNumberGenerator_8cpp.html#ab41bae80bddaf892520d0c17bcfc873b" target="_top" xlink:title="Generate a random float between 0 and 1.">
<polygon fill="white" stroke="#666666" points="323,-56 168,-56 168,-37 323,-37 323,-56"/>
<text text-anchor="middle" x="245.5" y="-44" font-family="Helvetica,sans-Serif" font-size="10.00">GetRandomNormalizedFloat</text>
</a>
</g>
</g>
<!-- Node1&#45;&gt;Node3 -->
<g id="edge2_Node000001_Node000003" class="edge">
<title>Node1&#45;&gt;Node3</title>
<g id="a_edge2_Node000001_Node000003"><a xlink:title=" ">
<path fill="none" stroke="#63b8ff" d="M132.09,-46.5C140.48,-46.5 149.17,-46.5 157.84,-46.5"/>
<polygon fill="#63b8ff" stroke="#63b8ff" points="157.99,-50 167.99,-46.5 157.99,-43 157.99,-50"/>
</a>
</g>
</g>
<!-- Node6 -->
<g id="Node000006" class="node">
<title>Node6</title>
<g id="a_Node000006"><a xlink:href="../../d8/d38/Time_8cpp.html#a6e80f7bf6607915feab788ebdc5a3bf8" target="_top" xlink:title=" ">
<polygon fill="white" stroke="#666666" points="314,-19 177,-19 177,0 314,0 314,-19"/>
<text text-anchor="middle" x="245.5" y="-7" font-family="Helvetica,sans-Serif" font-size="10.00">GetTimeSinceGameStart</text>
</a>
</g>
</g>
<!-- Node1&#45;&gt;Node6 -->
<g id="edge5_Node000001_Node000006" class="edge">
<title>Node1&#45;&gt;Node6</title>
<g id="a_edge5_Node000001_Node000006"><a xlink:title=" ">
<path fill="none" stroke="#63b8ff" d="M132.09,-32.93C150.7,-29.05 170.81,-24.86 188.81,-21.11"/>
<polygon fill="#63b8ff" stroke="#63b8ff" points="189.77,-24.48 198.85,-19.02 188.34,-17.63 189.77,-24.48"/>
</a>
</g>
</g>
<!-- Node4 -->
<g id="Node000004" class="node">
<title>Node4</title>
<g id="a_Node000004"><a xlink:href="../../d4/d63/RandomNumberGenerator_8cpp.html#ab3b4d2c18f8ed2adbded9e672d49418a" target="_top" xlink:title="Generate a random integer in bounds.">
<polygon fill="white" stroke="#666666" points="446,-56 359,-56 359,-37 446,-37 446,-56"/>
<text text-anchor="middle" x="402.5" y="-44" font-family="Helvetica,sans-Serif" font-size="10.00">GetRandomInt</text>
</a>
</g>
</g>
<!-- Node3&#45;&gt;Node4 -->
<g id="edge3_Node000003_Node000004" class="edge">
<title>Node3&#45;&gt;Node4</title>
<g id="a_edge3_Node000003_Node000004"><a xlink:title=" ">
<path fill="none" stroke="#63b8ff" d="M323.09,-46.5C331.78,-46.5 340.48,-46.5 348.76,-46.5"/>
<polygon fill="#63b8ff" stroke="#63b8ff" points="349,-50 359,-46.5 349,-43 349,-50"/>
</a>
</g>
</g>
<!-- Node5 -->
<g id="Node000005" class="node">
<title>Node5</title>
<g id="a_Node000005"><a xlink:href="../../d4/d63/RandomNumberGenerator_8cpp.html#af6fa6d283a85410eb131612aa6ae9a6f" target="_top" xlink:title="The random engine created from the randomDevice.">
<polygon fill="white" stroke="#666666" points="569,-56 482,-56 482,-37 569,-37 569,-56"/>
<text text-anchor="middle" x="525.5" y="-44" font-family="Helvetica,sans-Serif" font-size="10.00">randomEngine</text>
</a>
</g>
</g>
<!-- Node4&#45;&gt;Node5 -->
<g id="edge4_Node000004_Node000005" class="edge">
<title>Node4&#45;&gt;Node5</title>
<g id="a_edge4_Node000004_Node000005"><a xlink:title=" ">
<path fill="none" stroke="#63b8ff" d="M446.16,-46.5C454.38,-46.5 463.09,-46.5 471.59,-46.5"/>
<polygon fill="#63b8ff" stroke="#63b8ff" points="471.82,-50 481.82,-46.5 471.82,-43 471.82,-50"/>
</a>
</g>
</g>
</g>
</svg>
