<?xml version="1.0" encoding="UTF-8" standalone="no"?>
<!DOCTYPE svg PUBLIC "-//W3C//DTD SVG 1.1//EN"
 "http://www.w3.org/Graphics/SVG/1.1/DTD/svg11.dtd">
<!-- Generated by graphviz version 2.43.0 (0)
 -->
<!-- Title: game/behaviors/player/PlayerKeyboardBehavior.cpp Pages: 1 -->
<!--zoomable 445 -->
<svg id="main" version="1.1" xmlns="http://www.w3.org/2000/svg" xmlns:xlink="http://www.w3.org/1999/xlink" xml:space="preserve" onload="init(evt)">
<style type="text/css"><![CDATA[
.edge:hover path { stroke: red; }
.edge:hover polygon { stroke: red; fill: red; }
]]></style>
<script type="text/javascript"><![CDATA[
var edges = document.getElementsByTagName('g');
if (edges && edges.length) {
  for (var i=0;i<edges.length;i++) {
    if (edges[i].id.substr(0,4)=='edge') {
      edges[i].setAttribute('class','edge');
    }
  }
}
]]></script>
        <defs>
                <circle id="rim" cx="0" cy="0" r="7"/>
                <circle id="rim2" cx="0" cy="0" r="3.5"/>
                <g id="zoomPlus">
                        <use xlink:href="#rim" fill="#404040">
                                <set attributeName="fill" to="#808080" begin="zoomplus.mouseover" end="zoomplus.mouseout"/>
                        </use>
                        <path d="M-4,0h8M0,-4v8" fill="none" stroke="white" stroke-width="1.5" pointer-events="none"/>
                </g>
                <g id="zoomMin">
                        <use xlink:href="#rim" fill="#404040">
                                <set attributeName="fill" to="#808080" begin="zoomminus.mouseover" end="zoomminus.mouseout"/>
                        </use>
                        <path d="M-4,0h8" fill="none" stroke="white" stroke-width="1.5" pointer-events="none"/>
                </g>
                <g id="dirArrow">
                        <path fill="none" stroke="white" stroke-width="1.5" d="M0,-3.0v7 M-2.5,-0.5L0,-3.0L2.5,-0.5"/>
                </g>
               <g id="resetDef">
                       <use xlink:href="#rim2" fill="#404040">
                               <set attributeName="fill" to="#808080" begin="reset.mouseover" end="reset.mouseout"/>
                       </use>
               </g>
        </defs>

<script type="text/javascript">
var viewWidth = 1078;
var viewHeight = 445;
var sectionId = 'dynsection-0';
</script>
<script xlink:href="../../svgpan.js"/>
<svg id="graph" class="graph">
<g id="viewport">
<title>game/behaviors/player/PlayerKeyboardBehavior.cpp</title>
<!-- Node1 -->
<g id="node1" class="node">
<title>Node1</title>
<g id="a_node1"><a xlink:title=" ">
<polygon fill="#999999" stroke="#666666" points="701.5,-437 542.5,-437 542.5,-407 701.5,-407 701.5,-437"/>
<text text-anchor="start" x="550.5" y="-425" font-family="Helvetica,sans-Serif" font-size="10.00">game/behaviors/player</text>
<text text-anchor="middle" x="622" y="-414" font-family="Helvetica,sans-Serif" font-size="10.00">/PlayerKeyboardBehavior.cpp</text>
</a>
</g>
</g>
<!-- Node2 -->
<g id="node2" class="node">
<title>Node2</title>
<g id="a_node2"><a xlink:href="../../d0/dd8/PlayerKeyboardBehavior_8hpp.html" target="_top" xlink:title=" ">
<polygon fill="white" stroke="#666666" points="232.5,-371 75.5,-371 75.5,-352 232.5,-352 232.5,-371"/>
<text text-anchor="middle" x="154" y="-359" font-family="Helvetica,sans-Serif" font-size="10.00">PlayerKeyboardBehavior.hpp</text>
</a>
</g>
</g>
<!-- Node1&#45;&gt;Node2 -->
<g id="edge1" class="edge">
<title>Node1&#45;&gt;Node2</title>
<path fill="none" stroke="#63b8ff" d="M542.35,-411.04C455.75,-400.22 318.26,-383.03 232.23,-372.28"/>
<polygon fill="#63b8ff" stroke="#63b8ff" points="232.62,-368.8 222.26,-371.03 231.75,-375.75 232.62,-368.8"/>
</g>
<!-- Node11 -->
<g id="node11" class="node">
<title>Node11</title>
<g id="a_node11"><a xlink:title=" ">
<polygon fill="#e0e0e0" stroke="#999999" points="768,-79.5 710,-79.5 710,-60.5 768,-60.5 768,-79.5"/>
<text text-anchor="middle" x="739" y="-67.5" font-family="Helvetica,sans-Serif" font-size="10.00">memory</text>
</a>
</g>
</g>
<!-- Node1&#45;&gt;Node11 -->
<g id="edge30" class="edge">
<title>Node1&#45;&gt;Node11</title>
<path fill="none" stroke="#63b8ff" d="M692.17,-406.95C716.11,-399.43 741.68,-388.06 761,-371 786.78,-348.24 796,-336.39 796,-302 796,-302 796,-302 796,-184.5 796,-146.68 770.42,-108.6 753.53,-87.57"/>
<polygon fill="#63b8ff" stroke="#63b8ff" points="756.02,-85.09 746.93,-79.66 750.65,-89.58 756.02,-85.09"/>
</g>
<!-- Node15 -->
<g id="node15" class="node">
<title>Node15</title>
<g id="a_node15"><a xlink:href="../../d7/dd0/GameManagement_8hpp.html" target="_top" xlink:title=" ">
<polygon fill="white" stroke="#666666" points="638,-195 444,-195 444,-176 638,-176 638,-195"/>
<text text-anchor="middle" x="541" y="-183" font-family="Helvetica,sans-Serif" font-size="10.00">../../../engine/GameManagement.hpp</text>
</a>
</g>
</g>
<!-- Node1&#45;&gt;Node15 -->
<g id="edge14" class="edge">
<title>Node1&#45;&gt;Node15</title>
<path fill="none" stroke="#63b8ff" d="M611.22,-406.8C604.32,-397.14 595.64,-383.83 590,-371 564.58,-313.22 549.86,-239.29 543.99,-205.22"/>
<polygon fill="#63b8ff" stroke="#63b8ff" points="547.43,-204.57 542.34,-195.28 540.53,-205.72 547.43,-204.57"/>
</g>
<!-- Node18 -->
<g id="node18" class="node">
<title>Node18</title>
<g id="a_node18"><a xlink:href="../../d5/d6d/GravityBehavior_8hpp.html" target="_top" xlink:title=" ">
<polygon fill="white" stroke="#666666" points="406,-316 236,-316 236,-286 406,-286 406,-316"/>
<text text-anchor="start" x="244" y="-304" font-family="Helvetica,sans-Serif" font-size="10.00">../../../engine/components</text>
<text text-anchor="middle" x="321" y="-293" font-family="Helvetica,sans-Serif" font-size="10.00">/behaviors/GravityBehavior.hpp</text>
</a>
</g>
</g>
<!-- Node1&#45;&gt;Node18 -->
<g id="edge20" class="edge">
<title>Node1&#45;&gt;Node18</title>
<path fill="none" stroke="#63b8ff" d="M586.59,-407C531.82,-385.35 426.64,-343.76 366.38,-319.94"/>
<polygon fill="#63b8ff" stroke="#63b8ff" points="367.33,-316.55 356.75,-316.13 364.76,-323.06 367.33,-316.55"/>
</g>
<!-- Node19 -->
<g id="node19" class="node">
<title>Node19</title>
<g id="a_node19"><a xlink:href="../../dd/da3/PlayerBehavior_8hpp.html" target="_top" xlink:title=" ">
<polygon fill="white" stroke="#666666" points="535.5,-310.5 424.5,-310.5 424.5,-291.5 535.5,-291.5 535.5,-310.5"/>
<text text-anchor="middle" x="480" y="-298.5" font-family="Helvetica,sans-Serif" font-size="10.00">PlayerBehavior.hpp</text>
</a>
</g>
</g>
<!-- Node1&#45;&gt;Node19 -->
<g id="edge22" class="edge">
<title>Node1&#45;&gt;Node19</title>
<path fill="none" stroke="#63b8ff" d="M599.55,-406.84C584.97,-397.31 565.81,-384.12 550,-371 529.8,-354.24 508.6,-332.71 494.9,-318.19"/>
<polygon fill="#63b8ff" stroke="#63b8ff" points="497.14,-315.47 487.76,-310.55 492.03,-320.24 497.14,-315.47"/>
</g>
<!-- Node20 -->
<g id="node20" class="node">
<title>Node20</title>
<g id="a_node20"><a xlink:href="../../db/d9e/PlayerCollisionBehavior_8hpp.html" target="_top" xlink:title=" ">
<polygon fill="white" stroke="#666666" points="751.5,-371 598.5,-371 598.5,-352 751.5,-352 751.5,-371"/>
<text text-anchor="middle" x="675" y="-359" font-family="Helvetica,sans-Serif" font-size="10.00">PlayerCollisionBehavior.hpp</text>
</a>
</g>
</g>
<!-- Node1&#45;&gt;Node20 -->
<g id="edge24" class="edge">
<title>Node1&#45;&gt;Node20</title>
<path fill="none" stroke="#63b8ff" d="M634.83,-406.84C642.52,-398.35 652.33,-387.52 660.33,-378.69"/>
<polygon fill="#63b8ff" stroke="#63b8ff" points="662.94,-381.03 667.06,-371.27 657.75,-376.33 662.94,-381.03"/>
</g>
<!-- Node22 -->
<g id="node22" class="node">
<title>Node22</title>
<g id="a_node22"><a xlink:title=" ">
<polygon fill="#e0e0e0" stroke="#999999" points="934,-371 824,-371 824,-352 934,-352 934,-371"/>
<text text-anchor="middle" x="879" y="-359" font-family="Helvetica,sans-Serif" font-size="10.00">SDL3/SDL_events.h</text>
</a>
</g>
</g>
<!-- Node1&#45;&gt;Node22 -->
<g id="edge28" class="edge">
<title>Node1&#45;&gt;Node22</title>
<path fill="none" stroke="#63b8ff" d="M683.56,-406.99C728.97,-396.65 789.85,-382.79 831.52,-373.31"/>
<polygon fill="#63b8ff" stroke="#63b8ff" points="832.45,-376.69 841.42,-371.05 830.9,-369.86 832.45,-376.69"/>
</g>
<!-- Node23 -->
<g id="node23" class="node">
<title>Node23</title>
<g id="a_node23"><a xlink:title=" ">
<polygon fill="#e0e0e0" stroke="#999999" points="1070,-371 952,-371 952,-352 1070,-352 1070,-371"/>
<text text-anchor="middle" x="1011" y="-359" font-family="Helvetica,sans-Serif" font-size="10.00">SDL3/SDL_keycode.h</text>
</a>
</g>
</g>
<!-- Node1&#45;&gt;Node23 -->
<g id="edge29" class="edge">
<title>Node1&#45;&gt;Node23</title>
<path fill="none" stroke="#63b8ff" d="M701.66,-409.02C773.23,-398.26 877.11,-382.63 944.37,-372.52"/>
<polygon fill="#63b8ff" stroke="#63b8ff" points="945.06,-375.96 954.43,-371.01 944.02,-369.03 945.06,-375.96"/>
</g>
<!-- Node3 -->
<g id="node3" class="node">
<title>Node3</title>
<g id="a_node3"><a xlink:href="../../de/dfb/KeyboardHandlerBehavior_8hpp.html" target="_top" xlink:title=" ">
<polygon fill="white" stroke="#666666" points="218,-316 0,-316 0,-286 218,-286 218,-316"/>
<text text-anchor="start" x="8" y="-304" font-family="Helvetica,sans-Serif" font-size="10.00">../../../engine/components</text>
<text text-anchor="middle" x="109" y="-293" font-family="Helvetica,sans-Serif" font-size="10.00">/behaviors/KeyboardHandlerBehavior.hpp</text>
</a>
</g>
</g>
<!-- Node2&#45;&gt;Node3 -->
<g id="edge2" class="edge">
<title>Node2&#45;&gt;Node3</title>
<path fill="none" stroke="#63b8ff" d="M147.36,-351.87C141.76,-344.59 133.5,-333.85 126.08,-324.2"/>
<polygon fill="#63b8ff" stroke="#63b8ff" points="128.73,-321.91 119.86,-316.11 123.18,-326.17 128.73,-321.91"/>
</g>
<!-- Node4 -->
<g id="node4" class="node">
<title>Node4</title>
<g id="a_node4"><a xlink:href="../../d4/d8e/Behavior_8hpp.html" target="_top" xlink:title=" ">
<polygon fill="white" stroke="#666666" points="372,-250 292,-250 292,-231 372,-231 372,-250"/>
<text text-anchor="middle" x="332" y="-238" font-family="Helvetica,sans-Serif" font-size="10.00">Behavior.hpp</text>
</a>
</g>
</g>
<!-- Node3&#45;&gt;Node4 -->
<g id="edge3" class="edge">
<title>Node3&#45;&gt;Node4</title>
<path fill="none" stroke="#63b8ff" d="M162.41,-285.99C201.4,-275.76 253.53,-262.09 289.65,-252.61"/>
<polygon fill="#63b8ff" stroke="#63b8ff" points="290.61,-255.98 299.39,-250.05 288.83,-249.21 290.61,-255.98"/>
</g>
<!-- Node14 -->
<g id="node14" class="node">
<title>Node14</title>
<g id="a_node14"><a xlink:title=" ">
<polygon fill="#e0e0e0" stroke="#999999" points="145,-250 73,-250 73,-231 145,-231 145,-250"/>
<text text-anchor="middle" x="109" y="-238" font-family="Helvetica,sans-Serif" font-size="10.00">SDL3/SDL.h</text>
</a>
</g>
</g>
<!-- Node3&#45;&gt;Node14 -->
<g id="edge13" class="edge">
<title>Node3&#45;&gt;Node14</title>
<path fill="none" stroke="#63b8ff" d="M109,-285.84C109,-278.21 109,-268.7 109,-260.45"/>
<polygon fill="#63b8ff" stroke="#63b8ff" points="112.5,-260.27 109,-250.27 105.5,-260.27 112.5,-260.27"/>
</g>
<!-- Node5 -->
<g id="node5" class="node">
<title>Node5</title>
<g id="a_node5"><a xlink:href="../../d2/d69/GameObjectComponent_8hpp.html" target="_top" xlink:title=" ">
<polygon fill="white" stroke="#666666" points="414,-195 250,-195 250,-176 414,-176 414,-195"/>
<text text-anchor="middle" x="332" y="-183" font-family="Helvetica,sans-Serif" font-size="10.00">../GameObjectComponent.hpp</text>
</a>
</g>
</g>
<!-- Node4&#45;&gt;Node5 -->
<g id="edge4" class="edge">
<title>Node4&#45;&gt;Node5</title>
<path fill="none" stroke="#63b8ff" d="M332,-230.75C332,-223.8 332,-213.85 332,-205.13"/>
<polygon fill="#63b8ff" stroke="#63b8ff" points="335.5,-205.09 332,-195.09 328.5,-205.09 335.5,-205.09"/>
</g>
<!-- Node6 -->
<g id="node6" class="node">
<title>Node6</title>
<g id="a_node6"><a xlink:title=" ">
<polygon fill="#e0e0e0" stroke="#999999" points="278.5,-140 225.5,-140 225.5,-121 278.5,-121 278.5,-140"/>
<text text-anchor="middle" x="252" y="-128" font-family="Helvetica,sans-Serif" font-size="10.00">cstddef</text>
</a>
</g>
</g>
<!-- Node5&#45;&gt;Node6 -->
<g id="edge5" class="edge">
<title>Node5&#45;&gt;Node6</title>
<path fill="none" stroke="#63b8ff" d="M319.15,-175.98C306.86,-167.84 288.09,-155.41 273.52,-145.76"/>
<polygon fill="#63b8ff" stroke="#63b8ff" points="275.36,-142.78 265.09,-140.17 271.49,-148.61 275.36,-142.78"/>
</g>
<!-- Node7 -->
<g id="node7" class="node">
<title>Node7</title>
<g id="a_node7"><a xlink:href="../../d4/db5/GameObject_8hpp.html" target="_top" xlink:title=" ">
<polygon fill="white" stroke="#666666" points="403.5,-140 296.5,-140 296.5,-121 403.5,-121 403.5,-140"/>
<text text-anchor="middle" x="350" y="-128" font-family="Helvetica,sans-Serif" font-size="10.00">../GameObject.hpp</text>
</a>
</g>
</g>
<!-- Node5&#45;&gt;Node7 -->
<g id="edge6" class="edge">
<title>Node5&#45;&gt;Node7</title>
<path fill="none" stroke="#63b8ff" d="M334.97,-175.75C337.36,-168.72 340.79,-158.62 343.77,-149.84"/>
<polygon fill="#63b8ff" stroke="#63b8ff" points="347.18,-150.68 347.08,-140.09 340.55,-148.43 347.18,-150.68"/>
</g>
<!-- Node8 -->
<g id="node8" class="node">
<title>Node8</title>
<g id="a_node8"><a xlink:href="../../d9/d4a/Vector2_8hpp.html" target="_top" xlink:title=" ">
<polygon fill="white" stroke="#666666" points="134,-79.5 60,-79.5 60,-60.5 134,-60.5 134,-79.5"/>
<text text-anchor="middle" x="97" y="-67.5" font-family="Helvetica,sans-Serif" font-size="10.00">Vector2.hpp</text>
</a>
</g>
</g>
<!-- Node7&#45;&gt;Node8 -->
<g id="edge7" class="edge">
<title>Node7&#45;&gt;Node8</title>
<path fill="none" stroke="#63b8ff" d="M304.92,-120.94C262.82,-112.68 198.33,-99.34 143,-85 139.85,-84.18 136.59,-83.29 133.33,-82.36"/>
<polygon fill="#63b8ff" stroke="#63b8ff" points="134.23,-78.98 123.65,-79.52 132.26,-85.7 134.23,-78.98"/>
</g>
<!-- Node9 -->
<g id="node9" class="node">
<title>Node9</title>
<g id="a_node9"><a xlink:href="../../d4/d71/ComponentNotFoundException_8hpp.html" target="_top" xlink:title=" ">
<polygon fill="white" stroke="#666666" points="328,-85 152,-85 152,-55 328,-55 328,-85"/>
<text text-anchor="start" x="160" y="-73" font-family="Helvetica,sans-Serif" font-size="10.00">exceptions/ComponentNotFound</text>
<text text-anchor="middle" x="240" y="-62" font-family="Helvetica,sans-Serif" font-size="10.00">Exception.hpp</text>
</a>
</g>
</g>
<!-- Node7&#45;&gt;Node9 -->
<g id="edge8" class="edge">
<title>Node7&#45;&gt;Node9</title>
<path fill="none" stroke="#63b8ff" d="M333.77,-120.87C318.5,-112.75 295.11,-100.31 275.52,-89.89"/>
<polygon fill="#63b8ff" stroke="#63b8ff" points="277.01,-86.72 266.54,-85.11 273.73,-92.9 277.01,-86.72"/>
</g>
<!-- Node7&#45;&gt;Node11 -->
<g id="edge10" class="edge">
<title>Node7&#45;&gt;Node11</title>
<path fill="none" stroke="#63b8ff" d="M403.68,-121.43C482.98,-109.5 629.59,-87.45 699.68,-76.91"/>
<polygon fill="#63b8ff" stroke="#63b8ff" points="700.48,-80.33 709.85,-75.38 699.44,-73.41 700.48,-80.33"/>
</g>
<!-- Node12 -->
<g id="node12" class="node">
<title>Node12</title>
<g id="a_node12"><a xlink:title=" ">
<polygon fill="#e0e0e0" stroke="#999999" points="390,-79.5 346,-79.5 346,-60.5 390,-60.5 390,-79.5"/>
<text text-anchor="middle" x="368" y="-67.5" font-family="Helvetica,sans-Serif" font-size="10.00">string</text>
</a>
</g>
</g>
<!-- Node7&#45;&gt;Node12 -->
<g id="edge11" class="edge">
<title>Node7&#45;&gt;Node12</title>
<path fill="none" stroke="#63b8ff" d="M352.66,-120.87C355.18,-112.66 359.06,-100.04 362.29,-89.55"/>
<polygon fill="#63b8ff" stroke="#63b8ff" points="365.74,-90.25 365.33,-79.67 359.05,-88.2 365.74,-90.25"/>
</g>
<!-- Node13 -->
<g id="node13" class="node">
<title>Node13</title>
<g id="a_node13"><a xlink:title=" ">
<polygon fill="#e0e0e0" stroke="#999999" points="455.5,-79.5 408.5,-79.5 408.5,-60.5 455.5,-60.5 455.5,-79.5"/>
<text text-anchor="middle" x="432" y="-67.5" font-family="Helvetica,sans-Serif" font-size="10.00">vector</text>
</a>
</g>
</g>
<!-- Node7&#45;&gt;Node13 -->
<g id="edge12" class="edge">
<title>Node7&#45;&gt;Node13</title>
<path fill="none" stroke="#63b8ff" d="M362.1,-120.87C375.06,-111.62 395.86,-96.78 411.4,-85.69"/>
<polygon fill="#63b8ff" stroke="#63b8ff" points="413.74,-88.32 419.85,-79.67 409.68,-82.63 413.74,-88.32"/>
</g>
<!-- Node10 -->
<g id="node10" class="node">
<title>Node10</title>
<g id="a_node10"><a xlink:title=" ">
<polygon fill="#e0e0e0" stroke="#999999" points="272.5,-19 207.5,-19 207.5,0 272.5,0 272.5,-19"/>
<text text-anchor="middle" x="240" y="-7" font-family="Helvetica,sans-Serif" font-size="10.00">exception</text>
</a>
</g>
</g>
<!-- Node9&#45;&gt;Node10 -->
<g id="edge9" class="edge">
<title>Node9&#45;&gt;Node10</title>
<path fill="none" stroke="#63b8ff" d="M240,-54.84C240,-47.21 240,-37.7 240,-29.45"/>
<polygon fill="#63b8ff" stroke="#63b8ff" points="243.5,-29.27 240,-19.27 236.5,-29.27 243.5,-29.27"/>
</g>
<!-- Node15&#45;&gt;Node7 -->
<g id="edge15" class="edge">
<title>Node15&#45;&gt;Node7</title>
<path fill="none" stroke="#63b8ff" d="M510.31,-175.98C477.83,-166.97 426.4,-152.7 390.59,-142.76"/>
<polygon fill="#63b8ff" stroke="#63b8ff" points="391.5,-139.38 380.93,-140.08 389.63,-146.13 391.5,-139.38"/>
</g>
<!-- Node15&#45;&gt;Node11 -->
<g id="edge18" class="edge">
<title>Node15&#45;&gt;Node11</title>
<path fill="none" stroke="#63b8ff" d="M617.55,-175.92C646.08,-169.65 677.26,-158.78 701,-140 717.38,-127.04 727.74,-104.98 733.44,-89.29"/>
<polygon fill="#63b8ff" stroke="#63b8ff" points="736.81,-90.24 736.65,-79.64 730.17,-88.03 736.81,-90.24"/>
</g>
<!-- Node15&#45;&gt;Node13 -->
<g id="edge19" class="edge">
<title>Node15&#45;&gt;Node13</title>
<path fill="none" stroke="#63b8ff" d="M508.86,-175.93C489.48,-169.19 465.76,-157.88 451,-140 439.28,-125.8 434.76,-104.91 433.03,-89.84"/>
<polygon fill="#63b8ff" stroke="#63b8ff" points="436.5,-89.33 432.18,-79.66 429.53,-89.91 436.5,-89.33"/>
</g>
<!-- Node16 -->
<g id="node16" class="node">
<title>Node16</title>
<g id="a_node16"><a xlink:title=" ">
<polygon fill="#e0e0e0" stroke="#999999" points="692,-140 586,-140 586,-121 692,-121 692,-140"/>
<text text-anchor="middle" x="639" y="-128" font-family="Helvetica,sans-Serif" font-size="10.00">SDL3/SDL_pixels.h</text>
</a>
</g>
</g>
<!-- Node15&#45;&gt;Node16 -->
<g id="edge16" class="edge">
<title>Node15&#45;&gt;Node16</title>
<path fill="none" stroke="#63b8ff" d="M556.75,-175.98C572.23,-167.61 596.09,-154.7 614.14,-144.95"/>
<polygon fill="#63b8ff" stroke="#63b8ff" points="615.84,-148.01 622.97,-140.17 612.51,-141.85 615.84,-148.01"/>
</g>
<!-- Node17 -->
<g id="node17" class="node">
<title>Node17</title>
<g id="a_node17"><a xlink:title=" ">
<polygon fill="#e0e0e0" stroke="#999999" points="568,-140 460,-140 460,-121 568,-121 568,-140"/>
<text text-anchor="middle" x="514" y="-128" font-family="Helvetica,sans-Serif" font-size="10.00">SDL3/SDL_render.h</text>
</a>
</g>
</g>
<!-- Node15&#45;&gt;Node17 -->
<g id="edge17" class="edge">
<title>Node15&#45;&gt;Node17</title>
<path fill="none" stroke="#63b8ff" d="M536.54,-175.75C532.88,-168.57 527.59,-158.18 523.05,-149.27"/>
<polygon fill="#63b8ff" stroke="#63b8ff" points="526.03,-147.41 518.38,-140.09 519.8,-150.59 526.03,-147.41"/>
</g>
<!-- Node18&#45;&gt;Node4 -->
<g id="edge21" class="edge">
<title>Node18&#45;&gt;Node4</title>
<path fill="none" stroke="#63b8ff" d="M323.66,-285.84C325.11,-278.13 326.93,-268.49 328.49,-260.17"/>
<polygon fill="#63b8ff" stroke="#63b8ff" points="331.94,-260.74 330.35,-250.27 325.06,-259.45 331.94,-260.74"/>
</g>
<!-- Node19&#45;&gt;Node4 -->
<g id="edge23" class="edge">
<title>Node19&#45;&gt;Node4</title>
<path fill="none" stroke="#63b8ff" d="M458.48,-291.49C433.38,-281.57 391.68,-265.09 363.07,-253.78"/>
<polygon fill="#63b8ff" stroke="#63b8ff" points="364.13,-250.44 353.55,-250.02 361.56,-256.95 364.13,-250.44"/>
</g>
<!-- Node21 -->
<g id="node21" class="node">
<title>Node21</title>
<g id="a_node21"><a xlink:href="../../dc/d19/CollisionBehavior_8hpp.html" target="_top" xlink:title=" ">
<polygon fill="white" stroke="#666666" points="768,-316 592,-316 592,-286 768,-286 768,-316"/>
<text text-anchor="start" x="600" y="-304" font-family="Helvetica,sans-Serif" font-size="10.00">../../../engine/components</text>
<text text-anchor="middle" x="680" y="-293" font-family="Helvetica,sans-Serif" font-size="10.00">/behaviors/CollisionBehavior.hpp</text>
</a>
</g>
</g>
<!-- Node20&#45;&gt;Node21 -->
<g id="edge25" class="edge">
<title>Node20&#45;&gt;Node21</title>
<path fill="none" stroke="#63b8ff" d="M675.74,-351.87C676.32,-345.11 677.15,-335.35 677.93,-326.26"/>
<polygon fill="#63b8ff" stroke="#63b8ff" points="681.43,-326.38 678.79,-316.11 674.45,-325.78 681.43,-326.38"/>
</g>
<!-- Node21&#45;&gt;Node4 -->
<g id="edge26" class="edge">
<title>Node21&#45;&gt;Node4</title>
<path fill="none" stroke="#63b8ff" d="M596.65,-285.99C529.82,-274.75 438.26,-259.36 382.22,-249.94"/>
<polygon fill="#63b8ff" stroke="#63b8ff" points="382.62,-246.46 372.18,-248.25 381.46,-253.36 382.62,-246.46"/>
</g>
<!-- Node21&#45;&gt;Node11 -->
<g id="edge27" class="edge">
<title>Node21&#45;&gt;Node11</title>
<path fill="none" stroke="#63b8ff" d="M683.78,-285.89C691.23,-258.04 708.26,-193.99 722,-140 726.37,-122.83 731.19,-103.21 734.57,-89.29"/>
<polygon fill="#63b8ff" stroke="#63b8ff" points="737.99,-90.05 736.95,-79.51 731.19,-88.4 737.99,-90.05"/>
</g>
</g>
</svg>
        <g id="navigator" transform="translate(0 0)" fill="#404254">
                <rect fill="#f2f5e9" fill-opacity="0.5" stroke="#606060" stroke-width=".5" x="0" y="0" width="60" height="60"/>
                <use id="zoomplus" xlink:href="#zoomPlus" x="17" y="9" onmousedown="handleZoom(evt,'in')"/>
                <use id="zoomminus" xlink:href="#zoomMin" x="42" y="9" onmousedown="handleZoom(evt,'out')"/>
                <use id="reset" xlink:href="#resetDef" x="30" y="36" onmousedown="handleReset()"/>
                <g id="arrowUp" xlink:href="#dirArrow" transform="translate(30 24)" onmousedown="handlePan(0,-1)">
                  <use xlink:href="#rim" fill="#404040">
                        <set attributeName="fill" to="#808080" begin="arrowUp.mouseover" end="arrowUp.mouseout"/>
                  </use>
                  <path fill="none" stroke="white" stroke-width="1.5" d="M0,-3.0v7 M-2.5,-0.5L0,-3.0L2.5,-0.5"/>
                </g>
                <g id="arrowRight" xlink:href="#dirArrow" transform="rotate(90) translate(36 -43)" onmousedown="handlePan(1,0)">
                  <use xlink:href="#rim" fill="#404040">
                        <set attributeName="fill" to="#808080" begin="arrowRight.mouseover" end="arrowRight.mouseout"/>
                  </use>
                  <path fill="none" stroke="white" stroke-width="1.5" d="M0,-3.0v7 M-2.5,-0.5L0,-3.0L2.5,-0.5"/>
                </g>
                <g id="arrowDown" xlink:href="#dirArrow" transform="rotate(180) translate(-30 -48)" onmousedown="handlePan(0,1)">
                  <use xlink:href="#rim" fill="#404040">
                        <set attributeName="fill" to="#808080" begin="arrowDown.mouseover" end="arrowDown.mouseout"/>
                  </use>
                  <path fill="none" stroke="white" stroke-width="1.5" d="M0,-3.0v7 M-2.5,-0.5L0,-3.0L2.5,-0.5"/>
                </g>
                <g id="arrowLeft" xlink:href="#dirArrow" transform="rotate(270) translate(-36 17)" onmousedown="handlePan(-1,0)">
                  <use xlink:href="#rim" fill="#404040">
                        <set attributeName="fill" to="#808080" begin="arrowLeft.mouseover" end="arrowLeft.mouseout"/>
                  </use>
                  <path fill="none" stroke="white" stroke-width="1.5" d="M0,-3.0v7 M-2.5,-0.5L0,-3.0L2.5,-0.5"/>
                </g>
        </g>
        <svg viewBox="0 0 15 15" width="100%" height="30px" preserveAspectRatio="xMaxYMin meet">
         <g id="arrow_out" transform="scale(0.3 0.3)">
          <a xlink:href="PlayerKeyboardBehavior_8cpp__incl_org.svg" target="_base">
           <rect id="button" ry="5" rx="5" y="6" x="6" height="38" width="38"
                fill="#f2f5e9" fill-opacity="0.5" stroke="#606060" stroke-width="1.0"/>
           <path id="arrow"
             d="M 11.500037,31.436501 C 11.940474,20.09759 22.043105,11.32322 32.158766,21.979434 L 37.068811,17.246167 C 37.068811,17.246167 37.088388,32 37.088388,32 L 22.160133,31.978069 C 22.160133,31.978069 26.997745,27.140456 26.997745,27.140456 C 18.528582,18.264221 13.291696,25.230495 11.500037,31.436501 z"
             style="fill:#404040;"/>
          </a>
         </g>
        </svg>
</svg>
