<?xml version="1.0" encoding="UTF-8" standalone="no"?>
<!DOCTYPE svg PUBLIC "-//W3C//DTD SVG 1.1//EN"
 "http://www.w3.org/Graphics/SVG/1.1/DTD/svg11.dtd">
<!-- Generated by graphviz version 2.43.0 (0)
 -->
<!-- Title: PlayerKeyboardBehavior::OnKeyDown Pages: 1 -->
<svg width="359pt" height="198pt"
 viewBox="0.00 0.00 359.00 198.00" xmlns="http://www.w3.org/2000/svg" xmlns:xlink="http://www.w3.org/1999/xlink">
<g id="graph0" class="graph" transform="scale(1 1) rotate(0) translate(4 194)">
<title>PlayerKeyboardBehavior::OnKeyDown</title>
<!-- Node1 -->
<g id="node1" class="node">
<title>Node1</title>
<g id="a_node1"><a xlink:title="Called when a key is pressed (or held) down.">
<polygon fill="#999999" stroke="#666666" points="137,-110 0,-110 0,-80 137,-80 137,-110"/>
<text text-anchor="start" x="8" y="-98" font-family="Helvetica,sans-Serif" font-size="10.00">PlayerKeyboardBehavior</text>
<text text-anchor="middle" x="68.5" y="-87" font-family="Helvetica,sans-Serif" font-size="10.00">::OnKeyDown</text>
</a>
</g>
</g>
<!-- Node2 -->
<g id="node2" class="node">
<title>Node2</title>
<g id="a_node2"><a xlink:href="../../d9/df0/classCollisionBehavior.html#a9f12b7818bb5e34ee88d3203da141f5e" target="_top" xlink:title=" ">
<polygon fill="white" stroke="#666666" points="316,-190 208,-190 208,-160 316,-160 316,-190"/>
<text text-anchor="start" x="216" y="-178" font-family="Helvetica,sans-Serif" font-size="10.00">CollisionBehavior::</text>
<text text-anchor="middle" x="262" y="-167" font-family="Helvetica,sans-Serif" font-size="10.00">getColliderSize</text>
</a>
</g>
</g>
<!-- Node1&#45;&gt;Node2 -->
<g id="edge1" class="edge">
<title>Node1&#45;&gt;Node2</title>
<path fill="none" stroke="#63b8ff" d="M93.82,-110.24C114.32,-122.56 144.74,-139.68 173,-151 181.01,-154.21 189.6,-157.14 198.15,-159.77"/>
<polygon fill="#63b8ff" stroke="#63b8ff" points="197.19,-163.13 207.77,-162.6 199.16,-156.41 197.19,-163.13"/>
</g>
<!-- Node3 -->
<g id="node3" class="node">
<title>Node3</title>
<g id="a_node3"><a xlink:href="../../de/d1c/classGameObject.html#add821214112e834e8c5800142fe31a0e" target="_top" xlink:title="Get the first component that matches the type T.">
<polygon fill="white" stroke="#666666" points="351,-141.5 173,-141.5 173,-122.5 351,-122.5 351,-141.5"/>
<text text-anchor="middle" x="262" y="-129.5" font-family="Helvetica,sans-Serif" font-size="10.00">GameObject::GetFirstComponent</text>
</a>
</g>
</g>
<!-- Node1&#45;&gt;Node3 -->
<g id="edge2" class="edge">
<title>Node1&#45;&gt;Node3</title>
<path fill="none" stroke="#63b8ff" d="M137.02,-108.04C158.11,-112.12 181.22,-116.59 201.71,-120.54"/>
<polygon fill="#63b8ff" stroke="#63b8ff" points="201.06,-123.98 211.54,-122.44 202.39,-117.11 201.06,-123.98"/>
</g>
<!-- Node4 -->
<g id="node4" class="node">
<title>Node4</title>
<g id="a_node4"><a xlink:href="../../de/d1c/classGameObject.html#a42b10b3fba8be162e913bd8191a22adb" target="_top" xlink:title=" ">
<polygon fill="white" stroke="#666666" points="331,-104.5 193,-104.5 193,-85.5 331,-85.5 331,-104.5"/>
<text text-anchor="middle" x="262" y="-92.5" font-family="Helvetica,sans-Serif" font-size="10.00">GameObject::getPosition</text>
</a>
</g>
</g>
<!-- Node1&#45;&gt;Node4 -->
<g id="edge3" class="edge">
<title>Node1&#45;&gt;Node4</title>
<path fill="none" stroke="#63b8ff" d="M137.02,-95C151.71,-95 167.39,-95 182.47,-95"/>
<polygon fill="#63b8ff" stroke="#63b8ff" points="182.8,-98.5 192.8,-95 182.8,-91.5 182.8,-98.5"/>
</g>
<!-- Node5 -->
<g id="node5" class="node">
<title>Node5</title>
<g id="a_node5"><a xlink:href="../../de/d1c/classGameObject.html#a950f34f2096bbc3b57cd3730d7e94698" target="_top" xlink:title=" ">
<polygon fill="white" stroke="#666666" points="331,-67.5 193,-67.5 193,-48.5 331,-48.5 331,-67.5"/>
<text text-anchor="middle" x="262" y="-55.5" font-family="Helvetica,sans-Serif" font-size="10.00">GameObject::getVelocity</text>
</a>
</g>
</g>
<!-- Node1&#45;&gt;Node5 -->
<g id="edge4" class="edge">
<title>Node1&#45;&gt;Node5</title>
<path fill="none" stroke="#63b8ff" d="M137.02,-81.96C158.11,-77.88 181.22,-73.41 201.71,-69.46"/>
<polygon fill="#63b8ff" stroke="#63b8ff" points="202.39,-72.89 211.54,-67.56 201.06,-66.02 202.39,-72.89"/>
</g>
<!-- Node6 -->
<g id="node6" class="node">
<title>Node6</title>
<g id="a_node6"><a xlink:href="../../d9/df7/classGameObjectComponent.html#adff0c3c42b08247174024aadcf5f0942" target="_top" xlink:title=" ">
<polygon fill="white" stroke="#666666" points="329,-30 195,-30 195,0 329,0 329,-30"/>
<text text-anchor="start" x="203" y="-18" font-family="Helvetica,sans-Serif" font-size="10.00">GameObjectComponent</text>
<text text-anchor="middle" x="262" y="-7" font-family="Helvetica,sans-Serif" font-size="10.00">::setEnabled</text>
</a>
</g>
</g>
<!-- Node1&#45;&gt;Node6 -->
<g id="edge5" class="edge">
<title>Node1&#45;&gt;Node6</title>
<path fill="none" stroke="#63b8ff" d="M94.3,-79.9C114.83,-67.87 145.06,-51.24 173,-40 178.9,-37.63 185.1,-35.38 191.38,-33.29"/>
<polygon fill="#63b8ff" stroke="#63b8ff" points="192.8,-36.51 201.25,-30.12 190.66,-29.84 192.8,-36.51"/>
</g>
</g>
</svg>
