<?xml version="1.0" encoding="UTF-8" standalone="no"?>
<!DOCTYPE svg PUBLIC "-//W3C//DTD SVG 1.1//EN"
 "http://www.w3.org/Graphics/SVG/1.1/DTD/svg11.dtd">
<!-- Generated by graphviz version 2.43.0 (0)
 -->
<!-- Title: FontRenderer Pages: 1 -->
<!--zoomable 700 -->

<svg id="main" version="1.1" xmlns="http://www.w3.org/2000/svg" xmlns:xlink="http://www.w3.org/1999/xlink" xml:space="preserve" onload="init(evt)">

<style type="text/css"><![CDATA[
.node, .edge {opacity: 0.7;}
.node.selected, .edge.selected {opacity: 1;}
.edge:hover path { stroke: red; }
.edge:hover polygon { stroke: red; fill: red; }
]]></style>

<defs>
  <circle id="rim" cx="0" cy="0" r="7"/>
  <circle id="rim2" cx="0" cy="0" r="3.5"/>
  <g id="zoomPlus">
    <use xlink:href="#rim" fill="#404040"><set attributeName="fill" to="#808080" begin="zoomplus.mouseover" end="zoomplus.mouseout"/></use>
    <path d="M-4,0h8M0,-4v8" fill="none" stroke="white" stroke-width="1.5" pointer-events="none"/>
  </g>
  <g id="zoomMin">
    <use xlink:href="#rim" fill="#404040"><set attributeName="fill" to="#808080" begin="zoomminus.mouseover" end="zoomminus.mouseout"/></use>
    <path d="M-4,0h8" fill="none" stroke="white" stroke-width="1.5" pointer-events="none"/>
  </g>
  <g id="arrowUp" transform="translate(30 24)">
    <use xlink:href="#rim"/>
    <path pointer-events="none" fill="none" stroke="white" stroke-width="1.5" d="M0,-3.0v7 M-2.5,-0.5L0,-3.0L2.5,-0.5"/>
  </g>
  <g id="arrowRight" transform="rotate(90) translate(36 -43)">
    <use xlink:href="#rim"/>
    <path pointer-events="none" fill="none" stroke="white" stroke-width="1.5" d="M0,-3.0v7 M-2.5,-0.5L0,-3.0L2.5,-0.5"/>
  </g>
  <g id="arrowDown" transform="rotate(180) translate(-30 -48)">
    <use xlink:href="#rim"/>
    <path pointer-events="none" fill="none" stroke="white" stroke-width="1.5" d="M0,-3.0v7 M-2.5,-0.5L0,-3.0L2.5,-0.5"/>
  </g>
  <g id="arrowLeft" transform="rotate(270) translate(-36 17)">
    <use xlink:href="#rim"/>
    <path pointer-events="none" fill="none" stroke="white" stroke-width="1.5" d="M0,-3.0v7 M-2.5,-0.5L0,-3.0L2.5,-0.5"/>
  </g>
  <g id="resetDef">
    <use xlink:href="#rim2" fill="#404040"><set attributeName="fill" to="#808080" begin="reset.mouseover" end="reset.mouseout"/></use>
  </g>
</defs>
<script type="application/ecmascript">
var viewWidth = 197;
var viewHeight = 700;
var sectionId = 'dynsection-0';
</script>
<script type="application/ecmascript" xlink:href="../../svg.min.js"/>
<svg id="graph" class="graph">
<g id="viewport">
<title>FontRenderer</title>
<!-- Node1 -->
<g id="Node000001" class="node">
<title>Node1</title>
<g id="a_Node000001"><a xlink:title="A component to render text to the screen on a GameObject.">
<polygon fill="#999999" stroke="transparent" points="174.5,-369 14.5,-369 14.5,0 174.5,0 174.5,-369"/>
<text text-anchor="start" x="61.5" y="-356.5" font-family="Helvetica,sans-Serif" font-size="10.00">FontRenderer</text>
<text text-anchor="start" x="18.5" y="-341.5" font-family="Helvetica,sans-Serif" font-size="10.00">#</text>
<text text-anchor="start" x="31.5" y="-341.5" font-family="Helvetica,sans-Serif" font-size="10.00">std::string text</text>
<text text-anchor="start" x="18.5" y="-326.5" font-family="Helvetica,sans-Serif" font-size="10.00">#</text>
<text text-anchor="start" x="31.5" y="-326.5" font-family="Helvetica,sans-Serif" font-size="10.00">SDL_Surface * surface</text>
<text text-anchor="start" x="18.5" y="-311.5" font-family="Helvetica,sans-Serif" font-size="10.00">#</text>
<text text-anchor="start" x="31.5" y="-311.5" font-family="Helvetica,sans-Serif" font-size="10.00">SDL_Texture * texture</text>
<text text-anchor="start" x="18.5" y="-296.5" font-family="Helvetica,sans-Serif" font-size="10.00">#</text>
<text text-anchor="start" x="31.5" y="-296.5" font-family="Helvetica,sans-Serif" font-size="10.00">TTF_Font * font</text>
<text text-anchor="start" x="18.5" y="-281.5" font-family="Helvetica,sans-Serif" font-size="10.00">#</text>
<text text-anchor="start" x="31.5" y="-281.5" font-family="Helvetica,sans-Serif" font-size="10.00">std::shared_ptr&lt; Vector2</text>
<text text-anchor="start" x="31.5" y="-270.5" font-family="Helvetica,sans-Serif" font-size="10.00"> &gt; size</text>
<text text-anchor="start" x="18.5" y="-255.5" font-family="Helvetica,sans-Serif" font-size="10.00">#</text>
<text text-anchor="start" x="31.5" y="-255.5" font-family="Helvetica,sans-Serif" font-size="10.00">std::shared_ptr&lt; SDL</text>
<text text-anchor="start" x="31.5" y="-244.5" font-family="Helvetica,sans-Serif" font-size="10.00">_FRect &gt; renderable</text>
<text text-anchor="start" x="18.5" y="-229.5" font-family="Helvetica,sans-Serif" font-size="10.00">#</text>
<text text-anchor="start" x="31.5" y="-229.5" font-family="Helvetica,sans-Serif" font-size="10.00">std::shared_ptr&lt; SDL</text>
<text text-anchor="start" x="31.5" y="-218.5" font-family="Helvetica,sans-Serif" font-size="10.00">_Color &gt; color</text>
<text text-anchor="start" x="18.5" y="-203.5" font-family="Helvetica,sans-Serif" font-size="10.00">+</text>
<text text-anchor="start" x="31.5" y="-203.5" font-family="Helvetica,sans-Serif" font-size="10.00">FontRenderer(std::</text>
<text text-anchor="start" x="31.5" y="-192.5" font-family="Helvetica,sans-Serif" font-size="10.00">string pathToFont, float size)</text>
<text text-anchor="start" x="18.5" y="-177.5" font-family="Helvetica,sans-Serif" font-size="10.00">+</text>
<text text-anchor="start" x="31.5" y="-177.5" font-family="Helvetica,sans-Serif" font-size="10.00">~FontRenderer()</text>
<text text-anchor="start" x="18.5" y="-162.5" font-family="Helvetica,sans-Serif" font-size="10.00">+</text>
<text text-anchor="start" x="31.5" y="-162.5" font-family="Helvetica,sans-Serif" font-size="10.00">void setText(std::string</text>
<text text-anchor="start" x="31.5" y="-151.5" font-family="Helvetica,sans-Serif" font-size="10.00"> value)</text>
<text text-anchor="start" x="18.5" y="-136.5" font-family="Helvetica,sans-Serif" font-size="10.00">+</text>
<text text-anchor="start" x="31.5" y="-136.5" font-family="Helvetica,sans-Serif" font-size="10.00">std::string getText</text>
<text text-anchor="start" x="31.5" y="-125.5" font-family="Helvetica,sans-Serif" font-size="10.00">() const</text>
<text text-anchor="start" x="18.5" y="-110.5" font-family="Helvetica,sans-Serif" font-size="10.00">+</text>
<text text-anchor="start" x="31.5" y="-110.5" font-family="Helvetica,sans-Serif" font-size="10.00">void setSize(std::shared</text>
<text text-anchor="start" x="31.5" y="-99.5" font-family="Helvetica,sans-Serif" font-size="10.00">_ptr&lt; Vector2 &gt; value)</text>
<text text-anchor="start" x="18.5" y="-84.5" font-family="Helvetica,sans-Serif" font-size="10.00">+</text>
<text text-anchor="start" x="31.5" y="-84.5" font-family="Helvetica,sans-Serif" font-size="10.00">std::shared_ptr&lt; Vector2</text>
<text text-anchor="start" x="31.5" y="-73.5" font-family="Helvetica,sans-Serif" font-size="10.00"> &gt; getSize() const</text>
<text text-anchor="start" x="18.5" y="-58.5" font-family="Helvetica,sans-Serif" font-size="10.00">+</text>
<text text-anchor="start" x="31.5" y="-58.5" font-family="Helvetica,sans-Serif" font-size="10.00">void setColor(Uint8</text>
<text text-anchor="start" x="31.5" y="-47.5" font-family="Helvetica,sans-Serif" font-size="10.00"> r, Uint8 g, Uint8 b,</text>
<text text-anchor="start" x="31.5" y="-36.5" font-family="Helvetica,sans-Serif" font-size="10.00"> Uint8 a)</text>
<text text-anchor="start" x="18.5" y="-21.5" font-family="Helvetica,sans-Serif" font-size="10.00">+</text>
<text text-anchor="start" x="31.5" y="-21.5" font-family="Helvetica,sans-Serif" font-size="10.00">void OnTick() override</text>
<text text-anchor="start" x="18.5" y="-6.5" font-family="Helvetica,sans-Serif" font-size="10.00">+</text>
<text text-anchor="start" x="31.5" y="-6.5" font-family="Helvetica,sans-Serif" font-size="10.00">void OnStart() override</text>
<polygon fill="#666666" stroke="#666666" points="14.5,-351.5 14.5,-351.5 174.5,-351.5 174.5,-351.5 14.5,-351.5"/>
<polygon fill="#666666" stroke="#666666" points="14.5,-213.5 14.5,-213.5 29.5,-213.5 29.5,-213.5 14.5,-213.5"/>
<polygon fill="#666666" stroke="#666666" points="29.5,-213.5 29.5,-213.5 174.5,-213.5 174.5,-213.5 29.5,-213.5"/>
<polygon fill="none" stroke="#666666" points="14.5,0 14.5,-369 174.5,-369 174.5,0 14.5,0"/>
</a>
</g>
</g>
<!-- Node2 -->
<g id="Node000002" class="node">
<title>Node2</title>
<g id="a_Node000002"><a xlink:href="../../d1/d52/classRenderer.html" target="_top" xlink:title="Abstract renderer component.">
<polygon fill="white" stroke="transparent" points="165.5,-495 23.5,-495 23.5,-405 165.5,-405 165.5,-495"/>
<text text-anchor="start" x="72" y="-483" font-family="Helvetica,sans-Serif" font-size="10.00">Renderer</text>
<text text-anchor="start" x="27.5" y="-468" font-family="Helvetica,sans-Serif" font-size="10.00">#</text>
<text text-anchor="start" x="40.5" y="-468" font-family="Helvetica,sans-Serif" font-size="10.00">SDL_Renderer * renderer</text>
<text text-anchor="start" x="27.5" y="-453" font-family="Helvetica,sans-Serif" font-size="10.00">+</text>
<text text-anchor="start" x="40.5" y="-453" font-family="Helvetica,sans-Serif" font-size="10.00">Renderer()</text>
<text text-anchor="start" x="27.5" y="-438" font-family="Helvetica,sans-Serif" font-size="10.00">+</text>
<text text-anchor="start" x="40.5" y="-438" font-family="Helvetica,sans-Serif" font-size="10.00">Renderer(SDL_Renderer</text>
<text text-anchor="start" x="40.5" y="-427" font-family="Helvetica,sans-Serif" font-size="10.00"> *renderer)</text>
<text text-anchor="start" x="27.5" y="-412" font-family="Helvetica,sans-Serif" font-size="10.00">+</text>
<text text-anchor="start" x="40.5" y="-412" font-family="Helvetica,sans-Serif" font-size="10.00">~Renderer()</text>
<polygon fill="#666666" stroke="#666666" points="23.5,-478 23.5,-478 165.5,-478 165.5,-478 23.5,-478"/>
<polygon fill="#666666" stroke="#666666" points="23.5,-463 23.5,-463 38.5,-463 38.5,-463 23.5,-463"/>
<polygon fill="#666666" stroke="#666666" points="38.5,-463 38.5,-463 165.5,-463 165.5,-463 38.5,-463"/>
<polygon fill="none" stroke="#666666" points="23.5,-405 23.5,-495 165.5,-495 165.5,-405 23.5,-405"/>
</a>
</g>
</g>
<!-- Node2&#45;&gt;Node1 -->
<g id="edge1_Node000001_Node000002" class="edge">
<title>Node2&#45;&gt;Node1</title>
<g id="a_edge1_Node000001_Node000002"><a xlink:title=" ">
<path fill="none" stroke="#63b8ff" d="M94.5,-394.74C94.5,-386.75 94.5,-378.17 94.5,-369.2"/>
<polygon fill="none" stroke="#63b8ff" points="91,-394.9 94.5,-404.9 98,-394.9 91,-394.9"/>
</a>
</g>
</g>
<!-- Node3 -->
<g id="Node000003" class="node">
<title>Node3</title>
<g id="a_Node000003"><a xlink:href="../../d9/df7/classGameObjectComponent.html" target="_top" xlink:title="An abstract gameobject component.">
<polygon fill="white" stroke="transparent" points="189,-692 0,-692 0,-531 189,-531 189,-692"/>
<text text-anchor="start" x="36" y="-679.5" font-family="Helvetica,sans-Serif" font-size="10.00">GameObjectComponent</text>
<text text-anchor="start" x="4.5" y="-664.5" font-family="Helvetica,sans-Serif" font-size="10.00">#</text>
<text text-anchor="start" x="17.5" y="-664.5" font-family="Helvetica,sans-Serif" font-size="10.00">bool enabled</text>
<text text-anchor="start" x="4.5" y="-649.5" font-family="Helvetica,sans-Serif" font-size="10.00">#</text>
<text text-anchor="start" x="17.5" y="-649.5" font-family="Helvetica,sans-Serif" font-size="10.00">GameObject * parent</text>
<text text-anchor="start" x="4.5" y="-634.5" font-family="Helvetica,sans-Serif" font-size="10.00">+</text>
<text text-anchor="start" x="17.5" y="-634.5" font-family="Helvetica,sans-Serif" font-size="10.00">bool getEnabled() const</text>
<text text-anchor="start" x="4.5" y="-619.5" font-family="Helvetica,sans-Serif" font-size="10.00">+</text>
<text text-anchor="start" x="17.5" y="-619.5" font-family="Helvetica,sans-Serif" font-size="10.00">void setEnabled(bool</text>
<text text-anchor="start" x="17.5" y="-608.5" font-family="Helvetica,sans-Serif" font-size="10.00"> value)</text>
<text text-anchor="start" x="4.5" y="-593.5" font-family="Helvetica,sans-Serif" font-size="10.00">+</text>
<text text-anchor="start" x="17.5" y="-593.5" font-family="Helvetica,sans-Serif" font-size="10.00">void setParent(GameObject</text>
<text text-anchor="start" x="17.5" y="-582.5" font-family="Helvetica,sans-Serif" font-size="10.00"> *value)</text>
<text text-anchor="start" x="4.5" y="-567.5" font-family="Helvetica,sans-Serif" font-size="10.00">+</text>
<text text-anchor="start" x="17.5" y="-567.5" font-family="Helvetica,sans-Serif" font-size="10.00">virtual ~GameObjectComponent()</text>
<text text-anchor="start" x="4.5" y="-552.5" font-family="Helvetica,sans-Serif" font-size="10.00">+</text>
<text text-anchor="start" x="17.5" y="-552.5" font-family="Helvetica,sans-Serif" font-size="10.00">virtual void OnTick()=0</text>
<text text-anchor="start" x="4.5" y="-537.5" font-family="Helvetica,sans-Serif" font-size="10.00">+</text>
<text text-anchor="start" x="17.5" y="-537.5" font-family="Helvetica,sans-Serif" font-size="10.00">virtual void OnStart()=0</text>
<polygon fill="#666666" stroke="#666666" points="0.5,-674.5 0.5,-674.5 189.5,-674.5 189.5,-674.5 0.5,-674.5"/>
<polygon fill="#666666" stroke="#666666" points="0.5,-644.5 0.5,-644.5 15.5,-644.5 15.5,-644.5 0.5,-644.5"/>
<polygon fill="#666666" stroke="#666666" points="15.5,-644.5 15.5,-644.5 189.5,-644.5 189.5,-644.5 15.5,-644.5"/>
<polygon fill="none" stroke="#666666" points="0,-531 0,-692 189,-692 189,-531 0,-531"/>
</a>
</g>
</g>
<!-- Node3&#45;&gt;Node2 -->
<g id="edge2_Node000002_Node000003" class="edge">
<title>Node3&#45;&gt;Node2</title>
<g id="a_edge2_Node000002_Node000003"><a xlink:title=" ">
<path fill="none" stroke="#63b8ff" d="M94.5,-520.68C94.5,-511.8 94.5,-503.1 94.5,-495.01"/>
<polygon fill="none" stroke="#63b8ff" points="91,-520.75 94.5,-530.75 98,-520.75 91,-520.75"/>
</a>
</g>
</g>
</g>
</svg>

<g id="navigator" transform="translate(0 0)" fill="#404254">
  <rect fill="#f2f5e9" fill-opacity="0.5" stroke="#606060" stroke-width=".5" x="0" y="0" width="60" height="60"/>
  <use id="zoomplus" xlink:href="#zoomPlus" x="17" y="9" onmousedown="handleZoom(evt,'in')"/>
  <use id="zoomminus" xlink:href="#zoomMin" x="42" y="9" onmousedown="handleZoom(evt,'out')"/>
  <use id="reset" xlink:href="#resetDef" x="30" y="36" onmousedown="handleReset()"/>
   <use id="arrowup" xlink:href="#arrowUp" x="0" y="0" onmousedown="handlePan(0,-1)"/>
  <use id="arrowright" xlink:href="#arrowRight" x="0" y="0" onmousedown="handlePan(1,0)"/>
  <use id="arrowdown" xlink:href="#arrowDown" x="0" y="0" onmousedown="handlePan(0,1)"/>
  <use id="arrowleft" xlink:href="#arrowLeft" x="0" y="0" onmousedown="handlePan(-1,0)"/>
</g>
<svg viewBox="0 0 15 15" width="100%" height="30px" preserveAspectRatio="xMaxYMin meet">
 <g id="arrow_out" transform="scale(0.3 0.3)">
  <a xlink:href="classFontRenderer__inherit__graph_org.svg" target="_base">
   <rect id="button" ry="5" rx="5" y="6" x="6" height="38" width="38"
        fill="#f2f5e9" fill-opacity="0.5" stroke="#606060" stroke-width="1.0"/>
   <path id="arrow"
     d="M 11.500037,31.436501 C 11.940474,20.09759 22.043105,11.32322 32.158766,21.979434 L 37.068811,17.246167 C 37.068811,17.246167 37.088388,32 37.088388,32 L 22.160133,31.978069 C 22.160133,31.978069 26.997745,27.140456 26.997745,27.140456 C 18.528582,18.264221 13.291696,25.230495 11.500037,31.436501 z"
     style="fill:#404040;"/>
  </a>
 </g>
</svg>

<style type='text/css'>
<![CDATA[
[data-mouse-over-selected='false'] { opacity: 0.7; }
[data-mouse-over-selected='true']  { opacity: 1.0; }
]]>
</style>
<script type="application/ecmascript"><![CDATA[
document.addEventListener('DOMContentLoaded', (event) => {
  highlightEdges();
  highlightAdjacentNodes();
});
]]></script>
</svg>
