<?xml version="1.0" encoding="UTF-8" standalone="no"?>
<!DOCTYPE svg PUBLIC "-//W3C//DTD SVG 1.1//EN"
 "http://www.w3.org/Graphics/SVG/1.1/DTD/svg11.dtd">
<!-- Generated by graphviz version 2.43.0 (0)
 -->
<!-- Title: GetRandomInt Pages: 1 -->
<svg width="594pt" height="123pt"
 viewBox="0.00 0.00 594.00 123.49" xmlns="http://www.w3.org/2000/svg" xmlns:xlink="http://www.w3.org/1999/xlink">
<g id="graph0" class="graph" transform="scale(1 1) rotate(0) translate(4 119.49)">
<title>GetRandomInt</title>
<!-- Node1 -->
<g id="node1" class="node">
<title>Node1</title>
<g id="a_node1"><a xlink:title="Generate a random integer in bounds.">
<polygon fill="#999999" stroke="#666666" points="586,-22.49 499,-22.49 499,-3.49 586,-3.49 586,-22.49"/>
<text text-anchor="middle" x="542.5" y="-10.49" font-family="Helvetica,sans-Serif" font-size="10.00">GetRandomInt</text>
</a>
</g>
</g>
<!-- Node2 -->
<g id="node2" class="node">
<title>Node2</title>
<g id="a_node2"><a xlink:href="../../d4/d63/RandomNumberGenerator_8cpp.html#ab41bae80bddaf892520d0c17bcfc873b" target="_top" xlink:title="Generate a random float between 0 and 1.">
<polygon fill="white" stroke="#666666" points="463,-59.49 308,-59.49 308,-40.49 463,-40.49 463,-59.49"/>
<text text-anchor="middle" x="385.5" y="-47.49" font-family="Helvetica,sans-Serif" font-size="10.00">GetRandomNormalizedFloat</text>
</a>
</g>
</g>
<!-- Node1&#45;&gt;Node2 -->
<g id="edge1" class="edge">
<title>Node1&#45;&gt;Node2</title>
<path fill="none" stroke="#63b8ff" d="M491.83,-24.85C470.74,-29.88 446.47,-35.67 426.55,-40.43"/>
<polygon fill="#63b8ff" stroke="#63b8ff" points="492.67,-28.24 501.58,-22.52 491.04,-21.44 492.67,-28.24"/>
</g>
<!-- Node4 -->
<g id="node4" class="node">
<title>Node4</title>
<g id="a_node4"><a xlink:href="../../d1/d21/classGameManagerBehavior.html#a432014bfe65aa92c7f74b7e6e88c475a" target="_top" xlink:title=" ">
<polygon fill="white" stroke="#666666" points="132,-64.99 0,-64.99 0,-34.99 132,-34.99 132,-64.99"/>
<text text-anchor="start" x="8" y="-52.99" font-family="Helvetica,sans-Serif" font-size="10.00">GameManagerBehavior</text>
<text text-anchor="middle" x="66" y="-41.99" font-family="Helvetica,sans-Serif" font-size="10.00">::OnTick</text>
</a>
</g>
</g>
<!-- Node1&#45;&gt;Node4 -->
<g id="edge8" class="edge">
<title>Node1&#45;&gt;Node4</title>
<path fill="none" stroke="#63b8ff" d="M488.5,-7.21C415.63,-0.58 280.73,7.01 168,-12.99 144.28,-17.2 118.82,-26.56 99.4,-34.81"/>
<polygon fill="#63b8ff" stroke="#63b8ff" points="488.5,-10.73 498.79,-8.18 489.16,-3.76 488.5,-10.73"/>
</g>
<!-- Node3 -->
<g id="node3" class="node">
<title>Node3</title>
<g id="a_node3"><a xlink:href="../../df/d88/GameManagerBehavior_8cpp.html#af3e43ada7e9f58d057b3ebe83c97730e" target="_top" xlink:title=" ">
<polygon fill="white" stroke="#666666" points="272,-115.49 168,-115.49 168,-96.49 272,-96.49 272,-115.49"/>
<text text-anchor="middle" x="220" y="-103.49" font-family="Helvetica,sans-Serif" font-size="10.00">GetObjectVelocity</text>
</a>
</g>
</g>
<!-- Node2&#45;&gt;Node3 -->
<g id="edge2" class="edge">
<title>Node2&#45;&gt;Node3</title>
<path fill="none" stroke="#63b8ff" d="M346.71,-62.93C316.79,-73.18 275.68,-87.26 248.74,-96.49"/>
<polygon fill="#63b8ff" stroke="#63b8ff" points="348.07,-66.17 356.39,-59.62 345.8,-59.54 348.07,-66.17"/>
</g>
<!-- Node5 -->
<g id="node5" class="node">
<title>Node5</title>
<g id="a_node5"><a xlink:href="../../df/d88/GameManagerBehavior_8cpp.html#a07e6c2b5429917c119a839acc53cbfa9" target="_top" xlink:title=" ">
<polygon fill="white" stroke="#666666" points="260,-78.49 180,-78.49 180,-59.49 260,-59.49 260,-78.49"/>
<text text-anchor="middle" x="220" y="-66.49" font-family="Helvetica,sans-Serif" font-size="10.00">SpawnCoffee</text>
</a>
</g>
</g>
<!-- Node2&#45;&gt;Node5 -->
<g id="edge4" class="edge">
<title>Node2&#45;&gt;Node5</title>
<path fill="none" stroke="#63b8ff" d="M297.53,-60.1C284.47,-61.61 271.58,-63.11 260.22,-64.43"/>
<polygon fill="#63b8ff" stroke="#63b8ff" points="298.01,-63.56 307.54,-58.93 297.2,-56.61 298.01,-63.56"/>
</g>
<!-- Node6 -->
<g id="node6" class="node">
<title>Node6</title>
<g id="a_node6"><a xlink:href="../../df/d88/GameManagerBehavior_8cpp.html#a2a12711db7d8e91b16655c1c98c6cdb2" target="_top" xlink:title=" ">
<polygon fill="white" stroke="#666666" points="261.5,-41.49 178.5,-41.49 178.5,-22.49 261.5,-22.49 261.5,-41.49"/>
<text text-anchor="middle" x="220" y="-29.49" font-family="Helvetica,sans-Serif" font-size="10.00">SpawnEnemy</text>
</a>
</g>
</g>
<!-- Node2&#45;&gt;Node6 -->
<g id="edge6" class="edge">
<title>Node2&#45;&gt;Node6</title>
<path fill="none" stroke="#63b8ff" d="M297.46,-40.41C284.92,-39.03 272.54,-37.66 261.52,-36.45"/>
<polygon fill="#63b8ff" stroke="#63b8ff" points="297.21,-43.9 307.54,-41.52 297.98,-36.94 297.21,-43.9"/>
</g>
<!-- Node3&#45;&gt;Node4 -->
<g id="edge3" class="edge">
<title>Node3&#45;&gt;Node4</title>
<path fill="none" stroke="#63b8ff" d="M182.1,-93.07C177.35,-91.37 172.56,-89.65 168,-87.99 147.76,-80.61 125.32,-72.19 106.75,-65.16"/>
<polygon fill="#63b8ff" stroke="#63b8ff" points="181.11,-96.43 191.7,-96.47 183.45,-89.83 181.11,-96.43"/>
</g>
<!-- Node5&#45;&gt;Node4 -->
<g id="edge5" class="edge">
<title>Node5&#45;&gt;Node4</title>
<path fill="none" stroke="#63b8ff" d="M169.66,-62.82C157.73,-61.33 144.79,-59.71 132.25,-58.15"/>
<polygon fill="#63b8ff" stroke="#63b8ff" points="169.5,-66.33 179.86,-64.1 170.37,-59.38 169.5,-66.33"/>
</g>
<!-- Node6&#45;&gt;Node4 -->
<g id="edge7" class="edge">
<title>Node6&#45;&gt;Node4</title>
<path fill="none" stroke="#63b8ff" d="M168,-38.03C156.52,-39.39 144.19,-40.85 132.22,-42.27"/>
<polygon fill="#63b8ff" stroke="#63b8ff" points="168.75,-41.46 178.27,-36.81 167.92,-34.51 168.75,-41.46"/>
</g>
</g>
</svg>
