<?xml version="1.0" encoding="UTF-8" standalone="no"?>
<!DOCTYPE svg PUBLIC "-//W3C//DTD SVG 1.1//EN"
 "http://www.w3.org/Graphics/SVG/1.1/DTD/svg11.dtd">
<!-- Generated by graphviz version 2.43.0 (0)
 -->
<!-- Title: engine/RandomNumberGenerator.hpp Pages: 1 -->
<svg width="396pt" height="93pt"
 viewBox="0.00 0.00 395.50 93.00" xmlns="http://www.w3.org/2000/svg" xmlns:xlink="http://www.w3.org/1999/xlink">
<g id="graph0" class="graph" transform="scale(1 1) rotate(0) translate(4 89)">
<title>engine/RandomNumberGenerator.hpp</title>
<!-- Node1 -->
<g id="Node000001" class="node">
<title>Node1</title>
<g id="a_Node000001"><a xlink:title=" ">
<polygon fill="#999999" stroke="#666666" points="301.5,-85 100.5,-85 100.5,-66 301.5,-66 301.5,-85"/>
<text text-anchor="middle" x="201" y="-73" font-family="Helvetica,sans-Serif" font-size="10.00">engine/RandomNumberGenerator.hpp</text>
</a>
</g>
</g>
<!-- Node2 -->
<g id="Node000002" class="node">
<title>Node2</title>
<g id="a_Node000002"><a xlink:href="../../d4/d63/RandomNumberGenerator_8cpp.html" target="_top" xlink:title=" ">
<polygon fill="white" stroke="#666666" points="200,-24.5 0,-24.5 0,-5.5 200,-5.5 200,-24.5"/>
<text text-anchor="middle" x="100" y="-12.5" font-family="Helvetica,sans-Serif" font-size="10.00">engine/RandomNumberGenerator.cpp</text>
</a>
</g>
</g>
<!-- Node1&#45;&gt;Node2 -->
<g id="edge1_Node000001_Node000002" class="edge">
<title>Node1&#45;&gt;Node2</title>
<g id="a_edge1_Node000001_Node000002"><a xlink:title=" ">
<path fill="none" stroke="#63b8ff" d="M177.3,-60.77C158.02,-49.6 131.4,-34.19 114.96,-24.67"/>
<polygon fill="#63b8ff" stroke="#63b8ff" points="175.69,-63.88 186.1,-65.87 179.2,-57.83 175.69,-63.88"/>
</a>
</g>
</g>
<!-- Node3 -->
<g id="Node000003" class="node">
<title>Node3</title>
<g id="a_Node000003"><a xlink:href="../../df/d88/GameManagerBehavior_8cpp.html" target="_top" xlink:title=" ">
<polygon fill="white" stroke="#666666" points="387.5,-30 218.5,-30 218.5,0 387.5,0 387.5,-30"/>
<text text-anchor="start" x="226.5" y="-18" font-family="Helvetica,sans-Serif" font-size="10.00">game/behaviors/gameManager</text>
<text text-anchor="middle" x="303" y="-7" font-family="Helvetica,sans-Serif" font-size="10.00">/GameManagerBehavior.cpp</text>
</a>
</g>
</g>
<!-- Node1&#45;&gt;Node3 -->
<g id="edge2_Node000001_Node000003" class="edge">
<title>Node1&#45;&gt;Node3</title>
<g id="a_edge2_Node000001_Node000003"><a xlink:title=" ">
<path fill="none" stroke="#63b8ff" d="M224.86,-60.81C240.96,-51.58 262.14,-39.43 278.39,-30.11"/>
<polygon fill="#63b8ff" stroke="#63b8ff" points="222.98,-57.86 216.05,-65.87 226.47,-63.93 222.98,-57.86"/>
</a>
</g>
</g>
</g>
</svg>
