<?xml version="1.0" encoding="UTF-8" standalone="no"?>
<!DOCTYPE svg PUBLIC "-//W3C//DTD SVG 1.1//EN"
 "http://www.w3.org/Graphics/SVG/1.1/DTD/svg11.dtd">
<!-- Generated by graphviz version 2.43.0 (0)
 -->
<!-- Title: engine/components/behaviors/GravityBehavior.hpp Pages: 1 -->
<svg width="624pt" height="104pt"
 viewBox="0.00 0.00 623.50 104.00" xmlns="http://www.w3.org/2000/svg" xmlns:xlink="http://www.w3.org/1999/xlink">
<g id="graph0" class="graph" transform="scale(1 1) rotate(0) translate(4 100)">
<title>engine/components/behaviors/GravityBehavior.hpp</title>
<!-- Node1 -->
<g id="Node000001" class="node">
<title>Node1</title>
<g id="a_Node000001"><a xlink:title=" ">
<polygon fill="#999999" stroke="#666666" points="374,-96 210,-96 210,-66 374,-66 374,-96"/>
<text text-anchor="start" x="218" y="-84" font-family="Helvetica,sans-Serif" font-size="10.00">engine/components/behaviors</text>
<text text-anchor="middle" x="292" y="-73" font-family="Helvetica,sans-Serif" font-size="10.00">/GravityBehavior.hpp</text>
</a>
</g>
</g>
<!-- Node2 -->
<g id="Node000002" class="node">
<title>Node2</title>
<g id="a_Node000002"><a xlink:href="../../d5/d54/GravityBehavior_8cpp.html" target="_top" xlink:title=" ">
<polygon fill="white" stroke="#666666" points="164,-30 0,-30 0,0 164,0 164,-30"/>
<text text-anchor="start" x="8" y="-18" font-family="Helvetica,sans-Serif" font-size="10.00">engine/components/behaviors</text>
<text text-anchor="middle" x="82" y="-7" font-family="Helvetica,sans-Serif" font-size="10.00">/GravityBehavior.cpp</text>
</a>
</g>
</g>
<!-- Node1&#45;&gt;Node2 -->
<g id="edge1_Node000001_Node000002" class="edge">
<title>Node1&#45;&gt;Node2</title>
<g id="a_edge1_Node000001_Node000002"><a xlink:title=" ">
<path fill="none" stroke="#63b8ff" d="M236.18,-62.99C202.39,-52.69 159.82,-39.72 127.98,-30.01"/>
<polygon fill="#63b8ff" stroke="#63b8ff" points="235.33,-66.39 245.91,-65.95 237.37,-59.69 235.33,-66.39"/>
</a>
</g>
</g>
<!-- Node3 -->
<g id="Node000003" class="node">
<title>Node3</title>
<g id="a_Node000003"><a xlink:href="../../d9/dfa/Init_8cpp.html" target="_top" xlink:title=" ">
<polygon fill="white" stroke="#666666" points="265.5,-24.5 182.5,-24.5 182.5,-5.5 265.5,-5.5 265.5,-24.5"/>
<text text-anchor="middle" x="224" y="-12.5" font-family="Helvetica,sans-Serif" font-size="10.00">game/Init.cpp</text>
</a>
</g>
</g>
<!-- Node1&#45;&gt;Node3 -->
<g id="edge2_Node000001_Node000003" class="edge">
<title>Node1&#45;&gt;Node3</title>
<g id="a_edge2_Node000001_Node000003"><a xlink:title=" ">
<path fill="none" stroke="#63b8ff" d="M269.62,-58.93C257.31,-47.35 242.71,-33.61 233.4,-24.84"/>
<polygon fill="#63b8ff" stroke="#63b8ff" points="267.23,-61.49 276.91,-65.8 272.03,-56.39 267.23,-61.49"/>
</a>
</g>
</g>
<!-- Node4 -->
<g id="Node000004" class="node">
<title>Node4</title>
<g id="a_Node000004"><a xlink:href="../../d9/d5f/PlayerCollisionBehavior_8cpp.html" target="_top" xlink:title=" ">
<polygon fill="white" stroke="#666666" points="438.5,-30 283.5,-30 283.5,0 438.5,0 438.5,-30"/>
<text text-anchor="start" x="291.5" y="-18" font-family="Helvetica,sans-Serif" font-size="10.00">game/behaviors/player</text>
<text text-anchor="middle" x="361" y="-7" font-family="Helvetica,sans-Serif" font-size="10.00">/PlayerCollisionBehavior.cpp</text>
</a>
</g>
</g>
<!-- Node1&#45;&gt;Node4 -->
<g id="edge3_Node000001_Node000004" class="edge">
<title>Node1&#45;&gt;Node4</title>
<g id="a_edge3_Node000001_Node000004"><a xlink:title=" ">
<path fill="none" stroke="#63b8ff" d="M314.72,-58.92C324.9,-49.49 336.63,-38.61 345.73,-30.16"/>
<polygon fill="#63b8ff" stroke="#63b8ff" points="312.26,-56.43 307.31,-65.8 317.03,-61.56 312.26,-56.43"/>
</a>
</g>
</g>
<!-- Node5 -->
<g id="Node000005" class="node">
<title>Node5</title>
<g id="a_Node000005"><a xlink:href="../../dd/d4b/PlayerKeyboardBehavior_8cpp.html" target="_top" xlink:title=" ">
<polygon fill="white" stroke="#666666" points="615.5,-30 456.5,-30 456.5,0 615.5,0 615.5,-30"/>
<text text-anchor="start" x="464.5" y="-18" font-family="Helvetica,sans-Serif" font-size="10.00">game/behaviors/player</text>
<text text-anchor="middle" x="536" y="-7" font-family="Helvetica,sans-Serif" font-size="10.00">/PlayerKeyboardBehavior.cpp</text>
</a>
</g>
</g>
<!-- Node1&#45;&gt;Node5 -->
<g id="edge4_Node000001_Node000005" class="edge">
<title>Node1&#45;&gt;Node5</title>
<g id="a_edge4_Node000001_Node000005"><a xlink:title=" ">
<path fill="none" stroke="#63b8ff" d="M355.34,-63.39C394.84,-53.03 445.1,-39.84 482.58,-30.01"/>
<polygon fill="#63b8ff" stroke="#63b8ff" points="354.33,-60.03 345.55,-65.95 356.11,-66.8 354.33,-60.03"/>
</a>
</g>
</g>
</g>
</svg>
