<?xml version="1.0" encoding="UTF-8" standalone="no"?>
<!DOCTYPE svg PUBLIC "-//W3C//DTD SVG 1.1//EN"
 "http://www.w3.org/Graphics/SVG/1.1/DTD/svg11.dtd">
<!-- Generated by graphviz version 2.43.0 (0)
 -->
<!-- Title: GetAssetPath Pages: 1 -->
<svg width="279pt" height="76pt"
 viewBox="0.00 0.00 279.00 75.50" xmlns="http://www.w3.org/2000/svg" xmlns:xlink="http://www.w3.org/1999/xlink">
<g id="graph0" class="graph" transform="scale(1 1) rotate(0) translate(4 71.5)">
<title>GetAssetPath</title>
<!-- Node1 -->
<g id="Node000001" class="node">
<title>Node1</title>
<g id="a_Node000001"><a xlink:title="Return the correct asset path for the asset depending on the current environment.">
<polygon fill="#999999" stroke="#666666" points="271,-45.5 189,-45.5 189,-26.5 271,-26.5 271,-45.5"/>
<text text-anchor="middle" x="230" y="-33.5" font-family="Helvetica,sans-Serif" font-size="10.00">GetAssetPath</text>
</a>
</g>
</g>
<!-- Node2 -->
<g id="Node000002" class="node">
<title>Node2</title>
<g id="a_Node000002"><a xlink:href="../../dd/d7f/classFontRenderer.html#af02be3f7d05f546d88f34e4dac31761f" target="_top" xlink:title=" ">
<polygon fill="white" stroke="#666666" points="153,-67.5 0,-67.5 0,-48.5 153,-48.5 153,-67.5"/>
<text text-anchor="middle" x="76.5" y="-55.5" font-family="Helvetica,sans-Serif" font-size="10.00">FontRenderer::FontRenderer</text>
</a>
</g>
</g>
<!-- Node1&#45;&gt;Node2 -->
<g id="edge1_Node000001_Node000002" class="edge">
<title>Node1&#45;&gt;Node2</title>
<g id="a_edge1_Node000001_Node000002"><a xlink:title=" ">
<path fill="none" stroke="#63b8ff" d="M178.62,-43.32C167.24,-44.97 155,-46.75 143.1,-48.47"/>
<polygon fill="#63b8ff" stroke="#63b8ff" points="179.41,-46.74 188.8,-41.84 178.4,-39.81 179.41,-46.74"/>
</a>
</g>
</g>
<!-- Node3 -->
<g id="Node000003" class="node">
<title>Node3</title>
<g id="a_Node000003"><a xlink:href="../../d1/dff/classTextureRenderer.html#a68bf2982777804129aa491349c6c58e1" target="_top" xlink:title="Create a new texture renderer.">
<polygon fill="white" stroke="#666666" points="146,-30 7,-30 7,0 146,0 146,-30"/>
<text text-anchor="start" x="15" y="-18" font-family="Helvetica,sans-Serif" font-size="10.00">TextureRenderer::Texture</text>
<text text-anchor="middle" x="76.5" y="-7" font-family="Helvetica,sans-Serif" font-size="10.00">Renderer</text>
</a>
</g>
</g>
<!-- Node1&#45;&gt;Node3 -->
<g id="edge2_Node000001_Node000003" class="edge">
<title>Node1&#45;&gt;Node3</title>
<g id="a_edge2_Node000001_Node000003"><a xlink:title=" ">
<path fill="none" stroke="#63b8ff" d="M178.62,-29.02C168.17,-27.57 156.99,-26.02 146.02,-24.5"/>
<polygon fill="#63b8ff" stroke="#63b8ff" points="178.41,-32.52 188.8,-30.43 179.37,-25.59 178.41,-32.52"/>
</a>
</g>
</g>
</g>
</svg>
