<?xml version="1.0" encoding="UTF-8" standalone="no"?>
<!DOCTYPE svg PUBLIC "-//W3C//DTD SVG 1.1//EN"
 "http://www.w3.org/Graphics/SVG/1.1/DTD/svg11.dtd">
<!-- Generated by graphviz version 2.43.0 (0)
 -->
<!-- Title: engine/GameManagement.hpp Pages: 1 -->
<svg width="597pt" height="93pt"
 viewBox="0.00 0.00 596.50 93.00" xmlns="http://www.w3.org/2000/svg" xmlns:xlink="http://www.w3.org/1999/xlink">
<g id="graph0" class="graph" transform="scale(1 1) rotate(0) translate(4 89)">
<title>engine/GameManagement.hpp</title>
<!-- Node1 -->
<g id="Node000001" class="node">
<title>Node1</title>
<g id="a_Node000001"><a xlink:title=" ">
<polygon fill="#999999" stroke="#666666" points="409,-85 242,-85 242,-66 409,-66 409,-85"/>
<text text-anchor="middle" x="325.5" y="-73" font-family="Helvetica,sans-Serif" font-size="10.00">engine/GameManagement.hpp</text>
</a>
</g>
</g>
<!-- Node2 -->
<g id="Node000002" class="node">
<title>Node2</title>
<g id="a_Node000002"><a xlink:href="../../de/dfd/GameManagement_8cpp.html" target="_top" xlink:title=" ">
<polygon fill="white" stroke="#666666" points="167,-24.5 0,-24.5 0,-5.5 167,-5.5 167,-24.5"/>
<text text-anchor="middle" x="83.5" y="-12.5" font-family="Helvetica,sans-Serif" font-size="10.00">engine/GameManagement.cpp</text>
</a>
</g>
</g>
<!-- Node1&#45;&gt;Node2 -->
<g id="edge1_Node000001_Node000002" class="edge">
<title>Node1&#45;&gt;Node2</title>
<g id="a_edge1_Node000001_Node000002"><a xlink:title=" ">
<path fill="none" stroke="#63b8ff" d="M280.45,-63.61C233.68,-52.3 161.5,-34.85 118.73,-24.52"/>
<polygon fill="#63b8ff" stroke="#63b8ff" points="279.77,-67.05 290.31,-65.99 281.41,-60.24 279.77,-67.05"/>
</a>
</g>
</g>
<!-- Node3 -->
<g id="Node000003" class="node">
<title>Node3</title>
<g id="a_Node000003"><a xlink:href="../../d1/d99/Lifecycle_8cpp.html" target="_top" xlink:title=" ">
<polygon fill="white" stroke="#666666" points="296,-24.5 185,-24.5 185,-5.5 296,-5.5 296,-24.5"/>
<text text-anchor="middle" x="240.5" y="-12.5" font-family="Helvetica,sans-Serif" font-size="10.00">game/Lifecycle.cpp</text>
</a>
</g>
</g>
<!-- Node1&#45;&gt;Node3 -->
<g id="edge2_Node000001_Node000003" class="edge">
<title>Node1&#45;&gt;Node3</title>
<g id="a_edge2_Node000001_Node000003"><a xlink:title=" ">
<path fill="none" stroke="#63b8ff" d="M304.66,-60.16C288.51,-49.05 266.67,-34.01 253.09,-24.67"/>
<polygon fill="#63b8ff" stroke="#63b8ff" points="302.74,-63.08 312.96,-65.87 306.7,-57.32 302.74,-63.08"/>
</a>
</g>
</g>
<!-- Node4 -->
<g id="Node000004" class="node">
<title>Node4</title>
<g id="a_Node000004"><a xlink:href="../../d8/d23/GameManagerKeyboardHandler_8cpp.html" target="_top" xlink:title=" ">
<polygon fill="white" stroke="#666666" points="509,-30 314,-30 314,0 509,0 509,-30"/>
<text text-anchor="start" x="322" y="-18" font-family="Helvetica,sans-Serif" font-size="10.00">game/behaviors/gameManager</text>
<text text-anchor="middle" x="411.5" y="-7" font-family="Helvetica,sans-Serif" font-size="10.00">/GameManagerKeyboardHandler.cpp</text>
</a>
</g>
</g>
<!-- Node1&#45;&gt;Node4 -->
<g id="edge3_Node000001_Node000004" class="edge">
<title>Node1&#45;&gt;Node4</title>
<g id="a_edge3_Node000001_Node000004"><a xlink:title=" ">
<path fill="none" stroke="#63b8ff" d="M346.77,-60.03C360.19,-50.9 377.43,-39.17 390.75,-30.11"/>
<polygon fill="#63b8ff" stroke="#63b8ff" points="344.49,-57.35 338.19,-65.87 348.43,-63.14 344.49,-57.35"/>
</a>
</g>
</g>
<!-- Node5 -->
<g id="Node000005" class="node">
<title>Node5</title>
<g id="a_Node000005"><a xlink:href="../../df/d0a/main_8cpp.html" target="_top" xlink:title=" ">
<polygon fill="white" stroke="#666666" points="588.5,-24.5 526.5,-24.5 526.5,-5.5 588.5,-5.5 588.5,-24.5"/>
<text text-anchor="middle" x="557.5" y="-12.5" font-family="Helvetica,sans-Serif" font-size="10.00">main.cpp</text>
</a>
</g>
</g>
<!-- Node1&#45;&gt;Node5 -->
<g id="edge4_Node000001_Node000005" class="edge">
<title>Node1&#45;&gt;Node5</title>
<g id="a_edge4_Node000001_Node000005"><a xlink:title=" ">
<path fill="none" stroke="#63b8ff" d="M379.26,-63.88C418.23,-55.76 472.01,-43.65 518.5,-30 523.88,-28.42 529.61,-26.5 534.96,-24.6"/>
<polygon fill="#63b8ff" stroke="#63b8ff" points="378.27,-60.51 369.19,-65.96 379.69,-67.37 378.27,-60.51"/>
</a>
</g>
</g>
</g>
</svg>
