<?xml version="1.0" encoding="UTF-8" standalone="no"?>
<!DOCTYPE svg PUBLIC "-//W3C//DTD SVG 1.1//EN"
 "http://www.w3.org/Graphics/SVG/1.1/DTD/svg11.dtd">
<!-- Generated by graphviz version 2.43.0 (0)
 -->
<!-- Title: engine/GameManagement.hpp Pages: 1 -->
<svg width="2373pt" height="93pt"
 viewBox="0.00 0.00 2373.00 93.00" xmlns="http://www.w3.org/2000/svg" xmlns:xlink="http://www.w3.org/1999/xlink">
<g id="graph0" class="graph" transform="scale(1 1) rotate(0) translate(4 89)">
<title>engine/GameManagement.hpp</title>
<!-- Node1 -->
<g id="node1" class="node">
<title>Node1</title>
<g id="a_node1"><a xlink:title=" ">
<polygon fill="#999999" stroke="#666666" points="1230.5,-85 1063.5,-85 1063.5,-66 1230.5,-66 1230.5,-85"/>
<text text-anchor="middle" x="1147" y="-73" font-family="Helvetica,sans-Serif" font-size="10.00">engine/GameManagement.hpp</text>
</a>
</g>
</g>
<!-- Node2 -->
<g id="node2" class="node">
<title>Node2</title>
<g id="a_node2"><a xlink:href="../../de/db0/Events_8cpp.html" target="_top" xlink:title=" ">
<polygon fill="white" stroke="#666666" points="106,-24.5 0,-24.5 0,-5.5 106,-5.5 106,-24.5"/>
<text text-anchor="middle" x="53" y="-12.5" font-family="Helvetica,sans-Serif" font-size="10.00">engine/Events.cpp</text>
</a>
</g>
</g>
<!-- Node1&#45;&gt;Node2 -->
<g id="edge1" class="edge">
<title>Node1&#45;&gt;Node2</title>
<path fill="none" stroke="#63b8ff" d="M1053.12,-72.6C834.17,-67.83 294.68,-53.96 115,-30 105.37,-28.72 95.04,-26.66 85.62,-24.52"/>
<polygon fill="#63b8ff" stroke="#63b8ff" points="1053.23,-76.11 1063.3,-72.82 1053.38,-69.11 1053.23,-76.11"/>
</g>
<!-- Node3 -->
<g id="node3" class="node">
<title>Node3</title>
<g id="a_node3"><a xlink:href="../../de/dfd/GameManagement_8cpp.html" target="_top" xlink:title=" ">
<polygon fill="white" stroke="#666666" points="291.5,-24.5 124.5,-24.5 124.5,-5.5 291.5,-5.5 291.5,-24.5"/>
<text text-anchor="middle" x="208" y="-12.5" font-family="Helvetica,sans-Serif" font-size="10.00">engine/GameManagement.cpp</text>
</a>
</g>
</g>
<!-- Node1&#45;&gt;Node3 -->
<g id="edge2" class="edge">
<title>Node1&#45;&gt;Node3</title>
<path fill="none" stroke="#63b8ff" d="M1053.29,-72.53C897.01,-68.59 573.41,-57.6 301,-30 287.19,-28.6 272.3,-26.59 258.57,-24.52"/>
<polygon fill="#63b8ff" stroke="#63b8ff" points="1053.26,-76.03 1063.34,-72.78 1053.43,-69.04 1053.26,-76.03"/>
</g>
<!-- Node4 -->
<g id="node4" class="node">
<title>Node4</title>
<g id="a_node4"><a xlink:href="../../d2/d3b/KeyboardHandling_8cpp.html" target="_top" xlink:title=" ">
<polygon fill="white" stroke="#666666" points="472,-24.5 310,-24.5 310,-5.5 472,-5.5 472,-24.5"/>
<text text-anchor="middle" x="391" y="-12.5" font-family="Helvetica,sans-Serif" font-size="10.00">engine/KeyboardHandling.cpp</text>
</a>
</g>
</g>
<!-- Node1&#45;&gt;Node4 -->
<g id="edge3" class="edge">
<title>Node1&#45;&gt;Node4</title>
<path fill="none" stroke="#63b8ff" d="M1053.22,-70.83C924.09,-65.18 684.39,-52.57 481,-30 467.96,-28.55 453.91,-26.57 440.88,-24.56"/>
<polygon fill="#63b8ff" stroke="#63b8ff" points="1053.33,-74.33 1063.47,-71.27 1053.63,-67.34 1053.33,-74.33"/>
</g>
<!-- Node5 -->
<g id="node5" class="node">
<title>Node5</title>
<g id="a_node5"><a xlink:href="../../d5/d92/CollisionBehavior_8cpp.html" target="_top" xlink:title=" ">
<polygon fill="white" stroke="#666666" points="654,-30 490,-30 490,0 654,0 654,-30"/>
<text text-anchor="start" x="498" y="-18" font-family="Helvetica,sans-Serif" font-size="10.00">engine/components/behaviors</text>
<text text-anchor="middle" x="572" y="-7" font-family="Helvetica,sans-Serif" font-size="10.00">/CollisionBehavior.cpp</text>
</a>
</g>
</g>
<!-- Node1&#45;&gt;Node5 -->
<g id="edge4" class="edge">
<title>Node1&#45;&gt;Node5</title>
<path fill="none" stroke="#63b8ff" d="M1053.19,-67.58C955.55,-59.98 798.29,-46.61 663,-30 660.14,-29.65 657.24,-29.28 654.31,-28.89"/>
<polygon fill="#63b8ff" stroke="#63b8ff" points="1053.09,-71.08 1063.33,-68.36 1053.63,-64.1 1053.09,-71.08"/>
</g>
<!-- Node6 -->
<g id="node6" class="node">
<title>Node6</title>
<g id="a_node6"><a xlink:href="../../d3/d28/Renderer_8cpp.html" target="_top" xlink:title=" ">
<polygon fill="white" stroke="#666666" points="834,-30 672,-30 672,0 834,0 834,-30"/>
<text text-anchor="start" x="680" y="-18" font-family="Helvetica,sans-Serif" font-size="10.00">engine/components/renderers</text>
<text text-anchor="middle" x="753" y="-7" font-family="Helvetica,sans-Serif" font-size="10.00">/Renderer.cpp</text>
</a>
</g>
</g>
<!-- Node1&#45;&gt;Node6 -->
<g id="edge5" class="edge">
<title>Node1&#45;&gt;Node6</title>
<path fill="none" stroke="#63b8ff" d="M1077.56,-64.52C1015.93,-55.61 923.44,-42.14 843,-30 840.19,-29.58 837.32,-29.14 834.43,-28.7"/>
<polygon fill="#63b8ff" stroke="#63b8ff" points="1077.16,-67.99 1087.56,-65.96 1078.16,-61.07 1077.16,-67.99"/>
</g>
<!-- Node7 -->
<g id="node7" class="node">
<title>Node7</title>
<g id="a_node7"><a xlink:href="../../d9/dfa/Init_8cpp.html" target="_top" xlink:title=" ">
<polygon fill="white" stroke="#666666" points="935.5,-24.5 852.5,-24.5 852.5,-5.5 935.5,-5.5 935.5,-24.5"/>
<text text-anchor="middle" x="894" y="-12.5" font-family="Helvetica,sans-Serif" font-size="10.00">game/Init.cpp</text>
</a>
</g>
</g>
<!-- Node1&#45;&gt;Node7 -->
<g id="edge6" class="edge">
<title>Node1&#45;&gt;Node7</title>
<path fill="none" stroke="#63b8ff" d="M1095.05,-63.97C1053.92,-55.42 995.1,-42.74 944,-30 937.35,-28.34 930.25,-26.43 923.54,-24.57"/>
<polygon fill="#63b8ff" stroke="#63b8ff" points="1094.35,-67.39 1104.85,-65.99 1095.76,-60.54 1094.35,-67.39"/>
</g>
<!-- Node8 -->
<g id="node8" class="node">
<title>Node8</title>
<g id="a_node8"><a xlink:href="../../d1/d99/Lifecycle_8cpp.html" target="_top" xlink:title=" ">
<polygon fill="white" stroke="#666666" points="1064.5,-24.5 953.5,-24.5 953.5,-5.5 1064.5,-5.5 1064.5,-24.5"/>
<text text-anchor="middle" x="1009" y="-12.5" font-family="Helvetica,sans-Serif" font-size="10.00">game/Lifecycle.cpp</text>
</a>
</g>
</g>
<!-- Node1&#45;&gt;Node8 -->
<g id="edge7" class="edge">
<title>Node1&#45;&gt;Node8</title>
<path fill="none" stroke="#63b8ff" d="M1117.71,-62.08C1091.05,-50.78 1052.4,-34.4 1029.09,-24.52"/>
<polygon fill="#63b8ff" stroke="#63b8ff" points="1116.36,-65.31 1126.93,-65.99 1119.09,-58.87 1116.36,-65.31"/>
</g>
<!-- Node9 -->
<g id="node9" class="node">
<title>Node9</title>
<g id="a_node9"><a xlink:href="../../d0/d19/CoffeeBehavior_8cpp.html" target="_top" xlink:title=" ">
<polygon fill="white" stroke="#666666" points="1211,-30 1083,-30 1083,0 1211,0 1211,-30"/>
<text text-anchor="start" x="1091" y="-18" font-family="Helvetica,sans-Serif" font-size="10.00">game/behaviors/coffee</text>
<text text-anchor="middle" x="1147" y="-7" font-family="Helvetica,sans-Serif" font-size="10.00">/CoffeeBehavior.cpp</text>
</a>
</g>
</g>
<!-- Node1&#45;&gt;Node9 -->
<g id="edge8" class="edge">
<title>Node1&#45;&gt;Node9</title>
<path fill="none" stroke="#63b8ff" d="M1147,-55.65C1147,-47.36 1147,-37.78 1147,-30.11"/>
<polygon fill="#63b8ff" stroke="#63b8ff" points="1143.5,-55.87 1147,-65.87 1150.5,-55.87 1143.5,-55.87"/>
</g>
<!-- Node10 -->
<g id="node10" class="node">
<title>Node10</title>
<g id="a_node10"><a xlink:href="../../d0/d59/CoffeeCollisionBehavior_8cpp.html" target="_top" xlink:title=" ">
<polygon fill="white" stroke="#666666" points="1385,-30 1229,-30 1229,0 1385,0 1385,-30"/>
<text text-anchor="start" x="1237" y="-18" font-family="Helvetica,sans-Serif" font-size="10.00">game/behaviors/coffee</text>
<text text-anchor="middle" x="1307" y="-7" font-family="Helvetica,sans-Serif" font-size="10.00">/CoffeeCollisionBehavior.cpp</text>
</a>
</g>
</g>
<!-- Node1&#45;&gt;Node10 -->
<g id="edge9" class="edge">
<title>Node1&#45;&gt;Node10</title>
<path fill="none" stroke="#63b8ff" d="M1179.94,-62.46C1205.67,-53.05 1241.48,-39.95 1268.53,-30.06"/>
<polygon fill="#63b8ff" stroke="#63b8ff" points="1178.46,-59.27 1170.27,-65.99 1180.86,-65.85 1178.46,-59.27"/>
</g>
<!-- Node11 -->
<g id="node11" class="node">
<title>Node11</title>
<g id="a_node11"><a xlink:href="../../da/dd4/EnemyBehavior_8cpp.html" target="_top" xlink:title=" ">
<polygon fill="white" stroke="#666666" points="1535,-30 1403,-30 1403,0 1535,0 1535,-30"/>
<text text-anchor="start" x="1411" y="-18" font-family="Helvetica,sans-Serif" font-size="10.00">game/behaviors/enemy</text>
<text text-anchor="middle" x="1469" y="-7" font-family="Helvetica,sans-Serif" font-size="10.00">/EnemyBehavior.cpp</text>
</a>
</g>
</g>
<!-- Node1&#45;&gt;Node11 -->
<g id="edge10" class="edge">
<title>Node1&#45;&gt;Node11</title>
<path fill="none" stroke="#63b8ff" d="M1204.82,-64.19C1254.89,-55.23 1329.25,-41.88 1394,-30 1396.87,-29.47 1399.79,-28.94 1402.75,-28.39"/>
<polygon fill="#63b8ff" stroke="#63b8ff" points="1204.06,-60.77 1194.83,-65.98 1205.29,-67.66 1204.06,-60.77"/>
</g>
<!-- Node12 -->
<g id="node12" class="node">
<title>Node12</title>
<g id="a_node12"><a xlink:href="../../df/d88/GameManagerBehavior_8cpp.html" target="_top" xlink:title=" ">
<polygon fill="white" stroke="#666666" points="1722.5,-30 1553.5,-30 1553.5,0 1722.5,0 1722.5,-30"/>
<text text-anchor="start" x="1561.5" y="-18" font-family="Helvetica,sans-Serif" font-size="10.00">game/behaviors/gameManager</text>
<text text-anchor="middle" x="1638" y="-7" font-family="Helvetica,sans-Serif" font-size="10.00">/GameManagerBehavior.cpp</text>
</a>
</g>
</g>
<!-- Node1&#45;&gt;Node12 -->
<g id="edge11" class="edge">
<title>Node1&#45;&gt;Node12</title>
<path fill="none" stroke="#63b8ff" d="M1240.87,-64.95C1321.39,-56.52 1440.46,-43.51 1544,-30 1547.11,-29.59 1550.27,-29.17 1553.47,-28.74"/>
<polygon fill="#63b8ff" stroke="#63b8ff" points="1240.34,-61.48 1230.75,-66 1241.06,-68.45 1240.34,-61.48"/>
</g>
<!-- Node13 -->
<g id="node13" class="node">
<title>Node13</title>
<g id="a_node13"><a xlink:href="../../d8/d23/GameManagerKeyboardHandler_8cpp.html" target="_top" xlink:title=" ">
<polygon fill="white" stroke="#666666" points="1935.5,-30 1740.5,-30 1740.5,0 1935.5,0 1935.5,-30"/>
<text text-anchor="start" x="1748.5" y="-18" font-family="Helvetica,sans-Serif" font-size="10.00">game/behaviors/gameManager</text>
<text text-anchor="middle" x="1838" y="-7" font-family="Helvetica,sans-Serif" font-size="10.00">/GameManagerKeyboardHandler.cpp</text>
</a>
</g>
</g>
<!-- Node1&#45;&gt;Node13 -->
<g id="edge12" class="edge">
<title>Node1&#45;&gt;Node13</title>
<path fill="none" stroke="#63b8ff" d="M1241.17,-68.95C1356.89,-61.75 1559.16,-47.97 1732,-30 1734.77,-29.71 1737.58,-29.41 1740.41,-29.1"/>
<polygon fill="#63b8ff" stroke="#63b8ff" points="1240.69,-65.47 1230.93,-69.58 1241.13,-72.46 1240.69,-65.47"/>
</g>
<!-- Node14 -->
<g id="node14" class="node">
<title>Node14</title>
<g id="a_node14"><a xlink:href="../../d9/d5f/PlayerCollisionBehavior_8cpp.html" target="_top" xlink:title=" ">
<polygon fill="white" stroke="#666666" points="2108.5,-30 1953.5,-30 1953.5,0 2108.5,0 2108.5,-30"/>
<text text-anchor="start" x="1961.5" y="-18" font-family="Helvetica,sans-Serif" font-size="10.00">game/behaviors/player</text>
<text text-anchor="middle" x="2031" y="-7" font-family="Helvetica,sans-Serif" font-size="10.00">/PlayerCollisionBehavior.cpp</text>
</a>
</g>
</g>
<!-- Node1&#45;&gt;Node14 -->
<g id="edge13" class="edge">
<title>Node1&#45;&gt;Node14</title>
<path fill="none" stroke="#63b8ff" d="M1240.58,-72.48C1389.91,-68.55 1691.16,-57.66 1945,-30 1947.71,-29.71 1950.46,-29.38 1953.23,-29.04"/>
<polygon fill="#63b8ff" stroke="#63b8ff" points="1240.43,-68.99 1230.53,-72.75 1240.62,-75.98 1240.43,-68.99"/>
</g>
<!-- Node15 -->
<g id="node15" class="node">
<title>Node15</title>
<g id="a_node15"><a xlink:href="../../dd/d4b/PlayerKeyboardBehavior_8cpp.html" target="_top" xlink:title=" ">
<polygon fill="white" stroke="#666666" points="2285.5,-30 2126.5,-30 2126.5,0 2285.5,0 2285.5,-30"/>
<text text-anchor="start" x="2134.5" y="-18" font-family="Helvetica,sans-Serif" font-size="10.00">game/behaviors/player</text>
<text text-anchor="middle" x="2206" y="-7" font-family="Helvetica,sans-Serif" font-size="10.00">/PlayerKeyboardBehavior.cpp</text>
</a>
</g>
</g>
<!-- Node1&#45;&gt;Node15 -->
<g id="edge14" class="edge">
<title>Node1&#45;&gt;Node15</title>
<path fill="none" stroke="#63b8ff" d="M1240.8,-73.69C1414.38,-71.41 1797.23,-62.76 2118,-30 2120.77,-29.72 2123.59,-29.4 2126.43,-29.07"/>
<polygon fill="#63b8ff" stroke="#63b8ff" points="1240.64,-70.19 1230.68,-73.82 1240.73,-77.19 1240.64,-70.19"/>
</g>
<!-- Node16 -->
<g id="node16" class="node">
<title>Node16</title>
<g id="a_node16"><a xlink:href="../../df/d0a/main_8cpp.html" target="_top" xlink:title=" ">
<polygon fill="white" stroke="#666666" points="2365,-24.5 2303,-24.5 2303,-5.5 2365,-5.5 2365,-24.5"/>
<text text-anchor="middle" x="2334" y="-12.5" font-family="Helvetica,sans-Serif" font-size="10.00">main.cpp</text>
</a>
</g>
</g>
<!-- Node1&#45;&gt;Node16 -->
<g id="edge15" class="edge">
<title>Node1&#45;&gt;Node16</title>
<path fill="none" stroke="#63b8ff" d="M1240.95,-74.54C1477.68,-74.07 2094.11,-68.99 2295,-30 2301.21,-28.79 2307.77,-26.76 2313.69,-24.62"/>
<polygon fill="#63b8ff" stroke="#63b8ff" points="1240.63,-71.04 1230.64,-74.56 1240.65,-78.04 1240.63,-71.04"/>
</g>
</g>
</svg>
