<?xml version="1.0" encoding="UTF-8" standalone="no"?>
<!DOCTYPE svg PUBLIC "-//W3C//DTD SVG 1.1//EN"
 "http://www.w3.org/Graphics/SVG/1.1/DTD/svg11.dtd">
<!-- Generated by graphviz version 2.43.0 (0)
 -->
<!-- Title: engine/GameManagement.hpp Pages: 1 -->
<svg width="2350pt" height="93pt"
 viewBox="0.00 0.00 2350.00 93.00" xmlns="http://www.w3.org/2000/svg" xmlns:xlink="http://www.w3.org/1999/xlink">
<g id="graph0" class="graph" transform="scale(1 1) rotate(0) translate(4 89)">
<title>engine/GameManagement.hpp</title>
<!-- Node1 -->
<g id="Node000001" class="node">
<title>Node1</title>
<g id="a_Node000001"><a xlink:title=" ">
<polygon fill="#999999" stroke="#666666" points="1239.5,-85 1072.5,-85 1072.5,-66 1239.5,-66 1239.5,-85"/>
<text text-anchor="middle" x="1156" y="-73" font-family="Helvetica,sans-Serif" font-size="10.00">engine/GameManagement.hpp</text>
</a>
</g>
</g>
<!-- Node2 -->
<g id="Node000002" class="node">
<title>Node2</title>
<g id="a_Node000002"><a xlink:href="../../de/db0/Events_8cpp.html" target="_top" xlink:title=" ">
<polygon fill="white" stroke="#666666" points="106,-24.5 0,-24.5 0,-5.5 106,-5.5 106,-24.5"/>
<text text-anchor="middle" x="53" y="-12.5" font-family="Helvetica,sans-Serif" font-size="10.00">engine/Events.cpp</text>
</a>
</g>
</g>
<!-- Node1&#45;&gt;Node2 -->
<g id="edge1_Node000001_Node000002" class="edge">
<title>Node1&#45;&gt;Node2</title>
<g id="a_edge1_Node000001_Node000002"><a xlink:title=" ">
<path fill="none" stroke="#63b8ff" d="M1062.11,-72.64C841.77,-67.94 296.47,-54.17 115,-30 105.37,-28.72 95.04,-26.66 85.62,-24.52"/>
<polygon fill="#63b8ff" stroke="#63b8ff" points="1062.28,-76.15 1072.35,-72.86 1062.43,-69.15 1062.28,-76.15"/>
</a>
</g>
</g>
<!-- Node3 -->
<g id="Node000003" class="node">
<title>Node3</title>
<g id="a_Node000003"><a xlink:href="../../de/dfd/GameManagement_8cpp.html" target="_top" xlink:title=" ">
<polygon fill="white" stroke="#666666" points="291.5,-24.5 124.5,-24.5 124.5,-5.5 291.5,-5.5 291.5,-24.5"/>
<text text-anchor="middle" x="208" y="-12.5" font-family="Helvetica,sans-Serif" font-size="10.00">engine/GameManagement.cpp</text>
</a>
</g>
</g>
<!-- Node1&#45;&gt;Node3 -->
<g id="edge2_Node000001_Node000003" class="edge">
<title>Node1&#45;&gt;Node3</title>
<g id="a_edge2_Node000001_Node000003"><a xlink:title=" ">
<path fill="none" stroke="#63b8ff" d="M1062.22,-72.61C904.64,-68.75 576.85,-57.87 301,-30 287.19,-28.6 272.3,-26.59 258.57,-24.53"/>
<polygon fill="#63b8ff" stroke="#63b8ff" points="1062.27,-76.11 1072.36,-72.85 1062.44,-69.11 1062.27,-76.11"/>
</a>
</g>
</g>
<!-- Node4 -->
<g id="Node000004" class="node">
<title>Node4</title>
<g id="a_Node000004"><a xlink:href="../../d2/d3b/KeyboardHandling_8cpp.html" target="_top" xlink:title=" ">
<polygon fill="white" stroke="#666666" points="472,-24.5 310,-24.5 310,-5.5 472,-5.5 472,-24.5"/>
<text text-anchor="middle" x="391" y="-12.5" font-family="Helvetica,sans-Serif" font-size="10.00">engine/KeyboardHandling.cpp</text>
</a>
</g>
</g>
<!-- Node1&#45;&gt;Node4 -->
<g id="edge3_Node000001_Node000004" class="edge">
<title>Node1&#45;&gt;Node4</title>
<g id="a_edge3_Node000001_Node000004"><a xlink:title=" ">
<path fill="none" stroke="#63b8ff" d="M1062.04,-70.93C931.42,-65.38 687.71,-52.85 481,-30 467.95,-28.56 453.91,-26.58 440.88,-24.56"/>
<polygon fill="#63b8ff" stroke="#63b8ff" points="1062.26,-74.45 1072.4,-71.37 1062.55,-67.45 1062.26,-74.45"/>
</a>
</g>
</g>
<!-- Node5 -->
<g id="Node000005" class="node">
<title>Node5</title>
<g id="a_Node000005"><a xlink:href="../../d5/d92/CollisionBehavior_8cpp.html" target="_top" xlink:title=" ">
<polygon fill="white" stroke="#666666" points="654,-30 490,-30 490,0 654,0 654,-30"/>
<text text-anchor="start" x="498" y="-18" font-family="Helvetica,sans-Serif" font-size="10.00">engine/components/behaviors</text>
<text text-anchor="middle" x="572" y="-7" font-family="Helvetica,sans-Serif" font-size="10.00">/CollisionBehavior.cpp</text>
</a>
</g>
</g>
<!-- Node1&#45;&gt;Node5 -->
<g id="edge4_Node000001_Node000005" class="edge">
<title>Node1&#45;&gt;Node5</title>
<g id="a_edge4_Node000001_Node000005"><a xlink:title=" ">
<path fill="none" stroke="#63b8ff" d="M1062.08,-67.78C962.75,-60.26 801.56,-46.89 663,-30 660.14,-29.65 657.24,-29.28 654.31,-28.9"/>
<polygon fill="#63b8ff" stroke="#63b8ff" points="1061.86,-71.27 1072.09,-68.53 1062.38,-64.29 1061.86,-71.27"/>
</a>
</g>
</g>
<!-- Node6 -->
<g id="Node000006" class="node">
<title>Node6</title>
<g id="a_Node000006"><a xlink:href="../../d3/d28/Renderer_8cpp.html" target="_top" xlink:title=" ">
<polygon fill="white" stroke="#666666" points="834,-30 672,-30 672,0 834,0 834,-30"/>
<text text-anchor="start" x="680" y="-18" font-family="Helvetica,sans-Serif" font-size="10.00">engine/components/renderers</text>
<text text-anchor="middle" x="753" y="-7" font-family="Helvetica,sans-Serif" font-size="10.00">/Renderer.cpp</text>
</a>
</g>
</g>
<!-- Node1&#45;&gt;Node6 -->
<g id="edge5_Node000001_Node000006" class="edge">
<title>Node1&#45;&gt;Node6</title>
<g id="a_edge5_Node000001_Node000006"><a xlink:title=" ">
<path fill="none" stroke="#63b8ff" d="M1084.59,-64.62C1021.12,-55.77 925.84,-42.33 843,-30 840.18,-29.58 837.32,-29.15 834.43,-28.72"/>
<polygon fill="#63b8ff" stroke="#63b8ff" points="1084.11,-68.09 1094.5,-66 1085.07,-61.15 1084.11,-68.09"/>
</a>
</g>
</g>
<!-- Node7 -->
<g id="Node000007" class="node">
<title>Node7</title>
<g id="a_Node000007"><a xlink:href="../../d9/dfa/Init_8cpp.html" target="_top" xlink:title=" ">
<polygon fill="white" stroke="#666666" points="935.5,-24.5 852.5,-24.5 852.5,-5.5 935.5,-5.5 935.5,-24.5"/>
<text text-anchor="middle" x="894" y="-12.5" font-family="Helvetica,sans-Serif" font-size="10.00">game/Init.cpp</text>
</a>
</g>
</g>
<!-- Node1&#45;&gt;Node7 -->
<g id="edge6_Node000001_Node000007" class="edge">
<title>Node1&#45;&gt;Node7</title>
<g id="a_edge6_Node000001_Node000007"><a xlink:title=" ">
<path fill="none" stroke="#63b8ff" d="M1101.18,-64.03C1058.24,-55.58 997.1,-42.99 944,-30 937.26,-28.35 930.05,-26.43 923.26,-24.54"/>
<polygon fill="#63b8ff" stroke="#63b8ff" points="1100.65,-67.49 1111.14,-65.98 1102,-60.62 1100.65,-67.49"/>
</a>
</g>
</g>
<!-- Node8 -->
<g id="Node000008" class="node">
<title>Node8</title>
<g id="a_Node000008"><a xlink:href="../../d1/d99/Lifecycle_8cpp.html" target="_top" xlink:title=" ">
<polygon fill="white" stroke="#666666" points="1064.5,-24.5 953.5,-24.5 953.5,-5.5 1064.5,-5.5 1064.5,-24.5"/>
<text text-anchor="middle" x="1009" y="-12.5" font-family="Helvetica,sans-Serif" font-size="10.00">game/Lifecycle.cpp</text>
</a>
</g>
</g>
<!-- Node1&#45;&gt;Node8 -->
<g id="edge7_Node000001_Node000008" class="edge">
<title>Node1&#45;&gt;Node8</title>
<g id="a_edge7_Node000001_Node000008"><a xlink:title=" ">
<path fill="none" stroke="#63b8ff" d="M1125.17,-62.23C1096.76,-50.92 1055.34,-34.44 1030.4,-24.52"/>
<polygon fill="#63b8ff" stroke="#63b8ff" points="1124.04,-65.55 1134.62,-65.99 1126.63,-59.04 1124.04,-65.55"/>
</a>
</g>
</g>
<!-- Node9 -->
<g id="Node000009" class="node">
<title>Node9</title>
<g id="a_Node000009"><a xlink:href="../../d5/dda/ObjectSpawning_8cpp.html" target="_top" xlink:title=" ">
<polygon fill="white" stroke="#666666" points="1229,-24.5 1083,-24.5 1083,-5.5 1229,-5.5 1229,-24.5"/>
<text text-anchor="middle" x="1156" y="-12.5" font-family="Helvetica,sans-Serif" font-size="10.00">game/ObjectSpawning.cpp</text>
</a>
</g>
</g>
<!-- Node1&#45;&gt;Node9 -->
<g id="edge8_Node000001_Node000009" class="edge">
<title>Node1&#45;&gt;Node9</title>
<g id="a_edge8_Node000001_Node000009"><a xlink:title=" ">
<path fill="none" stroke="#63b8ff" d="M1156,-55.66C1156,-45.24 1156,-32.8 1156,-24.67"/>
<polygon fill="#63b8ff" stroke="#63b8ff" points="1152.5,-55.87 1156,-65.87 1159.5,-55.87 1152.5,-55.87"/>
</a>
</g>
</g>
<!-- Node10 -->
<g id="Node000010" class="node">
<title>Node10</title>
<g id="a_Node000010"><a xlink:href="../../d0/d19/CoffeeBehavior_8cpp.html" target="_top" xlink:title=" ">
<polygon fill="white" stroke="#666666" points="1375,-30 1247,-30 1247,0 1375,0 1375,-30"/>
<text text-anchor="start" x="1255" y="-18" font-family="Helvetica,sans-Serif" font-size="10.00">game/behaviors/coffee</text>
<text text-anchor="middle" x="1311" y="-7" font-family="Helvetica,sans-Serif" font-size="10.00">/CoffeeBehavior.cpp</text>
</a>
</g>
</g>
<!-- Node1&#45;&gt;Node10 -->
<g id="edge9_Node000001_Node000010" class="edge">
<title>Node1&#45;&gt;Node10</title>
<g id="a_edge9_Node000001_Node000010"><a xlink:title=" ">
<path fill="none" stroke="#63b8ff" d="M1187.91,-62.46C1212.84,-53.05 1247.53,-39.95 1273.74,-30.06"/>
<polygon fill="#63b8ff" stroke="#63b8ff" points="1186.66,-59.19 1178.54,-65.99 1189.13,-65.74 1186.66,-59.19"/>
</a>
</g>
</g>
<!-- Node11 -->
<g id="Node000011" class="node">
<title>Node11</title>
<g id="a_Node000011"><a xlink:href="../../d0/d59/CoffeeCollisionBehavior_8cpp.html" target="_top" xlink:title=" ">
<polygon fill="white" stroke="#666666" points="1549,-30 1393,-30 1393,0 1549,0 1549,-30"/>
<text text-anchor="start" x="1401" y="-18" font-family="Helvetica,sans-Serif" font-size="10.00">game/behaviors/coffee</text>
<text text-anchor="middle" x="1471" y="-7" font-family="Helvetica,sans-Serif" font-size="10.00">/CoffeeCollisionBehavior.cpp</text>
</a>
</g>
</g>
<!-- Node1&#45;&gt;Node11 -->
<g id="edge10_Node000001_Node000011" class="edge">
<title>Node1&#45;&gt;Node11</title>
<g id="a_edge10_Node000001_Node000011"><a xlink:title=" ">
<path fill="none" stroke="#63b8ff" d="M1211.68,-64.16C1262.81,-54.66 1339,-40.51 1395.57,-30.01"/>
<polygon fill="#63b8ff" stroke="#63b8ff" points="1211,-60.73 1201.8,-65.99 1212.27,-67.61 1211,-60.73"/>
</a>
</g>
</g>
<!-- Node12 -->
<g id="Node000012" class="node">
<title>Node12</title>
<g id="a_Node000012"><a xlink:href="../../da/dd4/EnemyBehavior_8cpp.html" target="_top" xlink:title=" ">
<polygon fill="white" stroke="#666666" points="1699,-30 1567,-30 1567,0 1699,0 1699,-30"/>
<text text-anchor="start" x="1575" y="-18" font-family="Helvetica,sans-Serif" font-size="10.00">game/behaviors/enemy</text>
<text text-anchor="middle" x="1633" y="-7" font-family="Helvetica,sans-Serif" font-size="10.00">/EnemyBehavior.cpp</text>
</a>
</g>
</g>
<!-- Node1&#45;&gt;Node12 -->
<g id="edge11_Node000001_Node000012" class="edge">
<title>Node1&#45;&gt;Node12</title>
<g id="a_edge11_Node000001_Node000012"><a xlink:title=" ">
<path fill="none" stroke="#63b8ff" d="M1250.02,-66.08C1331.66,-58.3 1452.93,-45.6 1558,-30 1560.88,-29.57 1563.82,-29.11 1566.79,-28.63"/>
<polygon fill="#63b8ff" stroke="#63b8ff" points="1249.4,-62.63 1239.77,-67.06 1250.06,-69.6 1249.4,-62.63"/>
</a>
</g>
</g>
<!-- Node13 -->
<g id="Node000013" class="node">
<title>Node13</title>
<g id="a_Node000013"><a xlink:href="../../d8/d23/GameManagerKeyboardHandler_8cpp.html" target="_top" xlink:title=" ">
<polygon fill="white" stroke="#666666" points="1912.5,-30 1717.5,-30 1717.5,0 1912.5,0 1912.5,-30"/>
<text text-anchor="start" x="1725.5" y="-18" font-family="Helvetica,sans-Serif" font-size="10.00">game/behaviors/gameManager</text>
<text text-anchor="middle" x="1815" y="-7" font-family="Helvetica,sans-Serif" font-size="10.00">/GameManagerKeyboardHandler.cpp</text>
</a>
</g>
</g>
<!-- Node1&#45;&gt;Node13 -->
<g id="edge12_Node000001_Node000013" class="edge">
<title>Node1&#45;&gt;Node13</title>
<g id="a_edge12_Node000001_Node000013"><a xlink:title=" ">
<path fill="none" stroke="#63b8ff" d="M1249.88,-68.36C1359.83,-60.83 1547.37,-46.97 1708,-30 1711.07,-29.68 1714.2,-29.33 1717.35,-28.98"/>
<polygon fill="#63b8ff" stroke="#63b8ff" points="1249.56,-64.87 1239.82,-69.04 1250.03,-71.86 1249.56,-64.87"/>
</a>
</g>
</g>
<!-- Node14 -->
<g id="Node000014" class="node">
<title>Node14</title>
<g id="a_Node000014"><a xlink:href="../../d9/d5f/PlayerCollisionBehavior_8cpp.html" target="_top" xlink:title=" ">
<polygon fill="white" stroke="#666666" points="2085.5,-30 1930.5,-30 1930.5,0 2085.5,0 2085.5,-30"/>
<text text-anchor="start" x="1938.5" y="-18" font-family="Helvetica,sans-Serif" font-size="10.00">game/behaviors/player</text>
<text text-anchor="middle" x="2008" y="-7" font-family="Helvetica,sans-Serif" font-size="10.00">/PlayerCollisionBehavior.cpp</text>
</a>
</g>
</g>
<!-- Node1&#45;&gt;Node14 -->
<g id="edge13_Node000001_Node000014" class="edge">
<title>Node1&#45;&gt;Node14</title>
<g id="a_edge13_Node000001_Node000014"><a xlink:title=" ">
<path fill="none" stroke="#63b8ff" d="M1249.71,-72.17C1394.35,-67.88 1680.52,-56.6 1922,-30 1924.71,-29.7 1927.46,-29.38 1930.23,-29.03"/>
<polygon fill="#63b8ff" stroke="#63b8ff" points="1249.44,-68.68 1239.55,-72.47 1249.65,-75.68 1249.44,-68.68"/>
</a>
</g>
</g>
<!-- Node15 -->
<g id="Node000015" class="node">
<title>Node15</title>
<g id="a_Node000015"><a xlink:href="../../dd/d4b/PlayerKeyboardBehavior_8cpp.html" target="_top" xlink:title=" ">
<polygon fill="white" stroke="#666666" points="2262.5,-30 2103.5,-30 2103.5,0 2262.5,0 2262.5,-30"/>
<text text-anchor="start" x="2111.5" y="-18" font-family="Helvetica,sans-Serif" font-size="10.00">game/behaviors/player</text>
<text text-anchor="middle" x="2183" y="-7" font-family="Helvetica,sans-Serif" font-size="10.00">/PlayerKeyboardBehavior.cpp</text>
</a>
</g>
</g>
<!-- Node1&#45;&gt;Node15 -->
<g id="edge14_Node000001_Node000015" class="edge">
<title>Node1&#45;&gt;Node15</title>
<g id="a_edge14_Node000001_Node000015"><a xlink:title=" ">
<path fill="none" stroke="#63b8ff" d="M1249.89,-73.48C1419.21,-70.87 1786.75,-61.73 2095,-30 2097.77,-29.71 2100.59,-29.4 2103.43,-29.06"/>
<polygon fill="#63b8ff" stroke="#63b8ff" points="1249.71,-69.98 1239.77,-73.63 1249.82,-76.98 1249.71,-69.98"/>
</a>
</g>
</g>
<!-- Node16 -->
<g id="Node000016" class="node">
<title>Node16</title>
<g id="a_Node000016"><a xlink:href="../../df/d0a/main_8cpp.html" target="_top" xlink:title=" ">
<polygon fill="white" stroke="#666666" points="2342,-24.5 2280,-24.5 2280,-5.5 2342,-5.5 2342,-24.5"/>
<text text-anchor="middle" x="2311" y="-12.5" font-family="Helvetica,sans-Serif" font-size="10.00">main.cpp</text>
</a>
</g>
</g>
<!-- Node1&#45;&gt;Node16 -->
<g id="edge15_Node000001_Node000016" class="edge">
<title>Node1&#45;&gt;Node16</title>
<g id="a_edge15_Node000001_Node000016"><a xlink:title=" ">
<path fill="none" stroke="#63b8ff" d="M1249.83,-74.42C1481.78,-73.64 2077.42,-67.88 2272,-30 2278.21,-28.79 2284.76,-26.76 2290.69,-24.61"/>
<polygon fill="#63b8ff" stroke="#63b8ff" points="1249.72,-70.92 1239.73,-74.45 1249.74,-77.92 1249.72,-70.92"/>
</a>
</g>
</g>
</g>
</svg>
