<?xml version="1.0" encoding="UTF-8" standalone="no"?>
<!DOCTYPE svg PUBLIC "-//W3C//DTD SVG 1.1//EN"
 "http://www.w3.org/Graphics/SVG/1.1/DTD/svg11.dtd">
<!-- Generated by graphviz version 2.43.0 (0)
 -->
<!-- Title: WorkThroughFrameQueue Pages: 1 -->
<!--zoomable 352 -->
<svg id="main" version="1.1" xmlns="http://www.w3.org/2000/svg" xmlns:xlink="http://www.w3.org/1999/xlink" xml:space="preserve" onload="init(evt)">
<style type="text/css"><![CDATA[
.edge:hover path { stroke: red; }
.edge:hover polygon { stroke: red; fill: red; }
]]></style>
<script type="text/javascript"><![CDATA[
var edges = document.getElementsByTagName('g');
if (edges && edges.length) {
  for (var i=0;i<edges.length;i++) {
    if (edges[i].id.substr(0,4)=='edge') {
      edges[i].setAttribute('class','edge');
    }
  }
}
]]></script>
        <defs>
                <circle id="rim" cx="0" cy="0" r="7"/>
                <circle id="rim2" cx="0" cy="0" r="3.5"/>
                <g id="zoomPlus">
                        <use xlink:href="#rim" fill="#404040">
                                <set attributeName="fill" to="#808080" begin="zoomplus.mouseover" end="zoomplus.mouseout"/>
                        </use>
                        <path d="M-4,0h8M0,-4v8" fill="none" stroke="white" stroke-width="1.5" pointer-events="none"/>
                </g>
                <g id="zoomMin">
                        <use xlink:href="#rim" fill="#404040">
                                <set attributeName="fill" to="#808080" begin="zoomminus.mouseover" end="zoomminus.mouseout"/>
                        </use>
                        <path d="M-4,0h8" fill="none" stroke="white" stroke-width="1.5" pointer-events="none"/>
                </g>
                <g id="dirArrow">
                        <path fill="none" stroke="white" stroke-width="1.5" d="M0,-3.0v7 M-2.5,-0.5L0,-3.0L2.5,-0.5"/>
                </g>
               <g id="resetDef">
                       <use xlink:href="#rim2" fill="#404040">
                               <set attributeName="fill" to="#808080" begin="reset.mouseover" end="reset.mouseout"/>
                       </use>
               </g>
        </defs>

<script type="text/javascript">
var viewWidth = 1014;
var viewHeight = 352;
var sectionId = 'dynsection-17';
</script>
<script xlink:href="../../svgpan.js"/>
<svg id="graph" class="graph">
<g id="viewport">
<title>WorkThroughFrameQueue</title>
<!-- Node1 -->
<g id="node1" class="node">
<title>Node1</title>
<g id="a_node1"><a xlink:title=" ">
<polygon fill="#999999" stroke="#666666" points="143,-306 0,-306 0,-287 143,-287 143,-306"/>
<text text-anchor="middle" x="71.5" y="-294" font-family="Helvetica,sans-Serif" font-size="10.00">WorkThroughFrameQueue</text>
</a>
</g>
</g>
<!-- Node2 -->
<g id="node2" class="node">
<title>Node2</title>
<g id="a_node2"><a xlink:href="../../de/dfd/GameManagement_8cpp.html#ad487b4c14d5f4bf65d056f5c90ac4d72" target="_top" xlink:title=" ">
<polygon fill="white" stroke="#666666" points="319,-344 179,-344 179,-325 319,-325 319,-344"/>
<text text-anchor="middle" x="249" y="-332" font-family="Helvetica,sans-Serif" font-size="10.00">DestroyEnqueuedObjects</text>
</a>
</g>
</g>
<!-- Node1&#45;&gt;Node2 -->
<g id="edge1" class="edge">
<title>Node1&#45;&gt;Node2</title>
<path fill="none" stroke="#63b8ff" d="M116.79,-306.09C140.26,-311.17 169.28,-317.46 194.06,-322.82"/>
<polygon fill="#63b8ff" stroke="#63b8ff" points="193.52,-326.28 204.03,-324.98 195,-319.44 193.52,-326.28"/>
</g>
<!-- Node4 -->
<g id="node4" class="node">
<title>Node4</title>
<g id="a_node4"><a xlink:href="../../de/dfd/GameManagement_8cpp.html#a25053f13bc5fe6ea1caf5f343cbb30b8" target="_top" xlink:title=" ">
<polygon fill="white" stroke="#666666" points="497,-306 355,-306 355,-287 497,-287 497,-306"/>
<text text-anchor="middle" x="426" y="-294" font-family="Helvetica,sans-Serif" font-size="10.00">RegisterEnqueuedObjects</text>
</a>
</g>
</g>
<!-- Node1&#45;&gt;Node4 -->
<g id="edge3" class="edge">
<title>Node1&#45;&gt;Node4</title>
<path fill="none" stroke="#63b8ff" d="M143.41,-296.5C201.57,-296.5 283.89,-296.5 344.51,-296.5"/>
<polygon fill="#63b8ff" stroke="#63b8ff" points="344.81,-300 354.81,-296.5 344.81,-293 344.81,-300"/>
</g>
<!-- Node6 -->
<g id="node6" class="node">
<title>Node6</title>
<g id="a_node6"><a xlink:href="../../de/dfd/GameManagement_8cpp.html#a2877bc3a946eb46940e5cdedcaf4e3f6" target="_top" xlink:title=" ">
<polygon fill="white" stroke="#666666" points="311,-250 187,-250 187,-231 311,-231 311,-250"/>
<text text-anchor="middle" x="249" y="-238" font-family="Helvetica,sans-Serif" font-size="10.00">ResetGameIfRequired</text>
</a>
</g>
</g>
<!-- Node1&#45;&gt;Node6 -->
<g id="edge5" class="edge">
<title>Node1&#45;&gt;Node6</title>
<path fill="none" stroke="#63b8ff" d="M102.67,-286.87C131.85,-277.56 176.25,-263.4 208.29,-253.17"/>
<polygon fill="#63b8ff" stroke="#63b8ff" points="209.76,-256.38 218.22,-250 207.63,-249.71 209.76,-256.38"/>
</g>
<!-- Node3 -->
<g id="node3" class="node">
<title>Node3</title>
<g id="a_node3"><a xlink:href="../../de/dfd/GameManagement_8cpp.html#abc0ac24a5725e21af2dcc9eb0d0c40ae" target="_top" xlink:title="Immediately destroy a GameObject.">
<polygon fill="white" stroke="#666666" points="484,-344 368,-344 368,-325 484,-325 484,-344"/>
<text text-anchor="middle" x="426" y="-332" font-family="Helvetica,sans-Serif" font-size="10.00">DestroyGameObject</text>
</a>
</g>
</g>
<!-- Node2&#45;&gt;Node3 -->
<g id="edge2" class="edge">
<title>Node2&#45;&gt;Node3</title>
<path fill="none" stroke="#63b8ff" d="M319.16,-334.5C331.9,-334.5 345.19,-334.5 357.87,-334.5"/>
<polygon fill="#63b8ff" stroke="#63b8ff" points="357.88,-338 367.88,-334.5 357.88,-331 357.88,-338"/>
</g>
<!-- Node5 -->
<g id="node5" class="node">
<title>Node5</title>
<g id="a_node5"><a xlink:href="../../de/dfd/GameManagement_8cpp.html#a40f7d4339a01b155a82745c5bd8ead6a" target="_top" xlink:title="Directly register a gameobject. Will push the object into the GameObjects vector.">
<polygon fill="white" stroke="#666666" points="1006,-167 888,-167 888,-148 1006,-148 1006,-167"/>
<text text-anchor="middle" x="947" y="-155" font-family="Helvetica,sans-Serif" font-size="10.00">RegisterGameObject</text>
</a>
</g>
</g>
<!-- Node4&#45;&gt;Node5 -->
<g id="edge4" class="edge">
<title>Node4&#45;&gt;Node5</title>
<path fill="none" stroke="#63b8ff" d="M463.8,-306.05C540.97,-323.95 723.24,-355.02 852,-287.5 875.57,-275.14 916.34,-208.77 935.49,-175.93"/>
<polygon fill="#63b8ff" stroke="#63b8ff" points="938.52,-177.68 940.49,-167.27 932.46,-174.18 938.52,-177.68"/>
</g>
<!-- Node7 -->
<g id="node7" class="node">
<title>Node7</title>
<g id="a_node7"><a xlink:href="../../d1/d99/Lifecycle_8cpp.html#a7be4f604c1baeb7cac84122a7f2438cf" target="_top" xlink:title="Reset the game to the initial state.">
<polygon fill="white" stroke="#666666" points="463,-213 389,-213 389,-194 463,-194 463,-213"/>
<text text-anchor="middle" x="426" y="-201" font-family="Helvetica,sans-Serif" font-size="10.00">ResetGame</text>
</a>
</g>
</g>
<!-- Node6&#45;&gt;Node7 -->
<g id="edge6" class="edge">
<title>Node6&#45;&gt;Node7</title>
<path fill="none" stroke="#63b8ff" d="M295.07,-230.97C320.82,-225.53 353.03,-218.72 378.94,-213.24"/>
<polygon fill="#63b8ff" stroke="#63b8ff" points="379.84,-216.63 388.9,-211.13 378.39,-209.78 379.84,-216.63"/>
</g>
<!-- Node8 -->
<g id="node8" class="node">
<title>Node8</title>
<g id="a_node8"><a xlink:href="../../d9/dfa/Init_8cpp.html#aaa64e8fd06230fa14e507cef71a3217d" target="_top" xlink:title="Create the initial gameobjects required for the game.">
<polygon fill="white" stroke="#666666" points="676,-167 533,-167 533,-148 676,-148 676,-167"/>
<text text-anchor="middle" x="604.5" y="-155" font-family="Helvetica,sans-Serif" font-size="10.00">CreateInitialGameObjects</text>
</a>
</g>
</g>
<!-- Node7&#45;&gt;Node8 -->
<g id="edge7" class="edge">
<title>Node7&#45;&gt;Node8</title>
<path fill="none" stroke="#63b8ff" d="M463.14,-194.08C490.21,-187.03 527.46,-177.32 556.79,-169.67"/>
<polygon fill="#63b8ff" stroke="#63b8ff" points="558,-172.97 566.8,-167.07 556.24,-166.2 558,-172.97"/>
</g>
<!-- Node18 -->
<g id="node18" class="node">
<title>Node18</title>
<g id="a_node18"><a xlink:href="../../de/dfd/GameManagement_8cpp.html#ae5ee3f705fc506491ca2b0c7cf059c75" target="_top" xlink:title="Initialize all gameobjects and call the OnStart() methods.">
<polygon fill="white" stroke="#666666" points="646,-213 563,-213 563,-194 646,-194 646,-213"/>
<text text-anchor="middle" x="604.5" y="-201" font-family="Helvetica,sans-Serif" font-size="10.00">OnGameStart</text>
</a>
</g>
</g>
<!-- Node7&#45;&gt;Node18 -->
<g id="edge24" class="edge">
<title>Node7&#45;&gt;Node18</title>
<path fill="none" stroke="#63b8ff" d="M463.14,-203.5C488.92,-203.5 523.94,-203.5 552.55,-203.5"/>
<polygon fill="#63b8ff" stroke="#63b8ff" points="552.78,-207 562.78,-203.5 552.78,-200 552.78,-207"/>
</g>
<!-- Node9 -->
<g id="node9" class="node">
<title>Node9</title>
<g id="a_node9"><a xlink:href="../../d9/dfa/Init_8cpp.html#a3ff595c2af791c369e2318510062ce14" target="_top" xlink:title="Create the coffee meter bar.">
<polygon fill="white" stroke="#666666" points="836.5,-130 727.5,-130 727.5,-111 836.5,-111 836.5,-130"/>
<text text-anchor="middle" x="782" y="-118" font-family="Helvetica,sans-Serif" font-size="10.00">CreateCoffeeMeter</text>
</a>
</g>
</g>
<!-- Node8&#45;&gt;Node9 -->
<g id="edge8" class="edge">
<title>Node8&#45;&gt;Node9</title>
<path fill="none" stroke="#63b8ff" d="M650.7,-147.97C673.53,-143.16 701.45,-137.27 725.57,-132.19"/>
<polygon fill="#63b8ff" stroke="#63b8ff" points="726.59,-135.55 735.65,-130.06 725.15,-128.7 726.59,-135.55"/>
</g>
<!-- Node10 -->
<g id="node10" class="node">
<title>Node10</title>
<g id="a_node10"><a xlink:href="../../d9/dfa/Init_8cpp.html#a1bfb628b6cd503e396bae0796f2051c1" target="_top" xlink:title="Create the icon next to the coffee meter.">
<polygon fill="white" stroke="#666666" points="846.5,-278 717.5,-278 717.5,-259 846.5,-259 846.5,-278"/>
<text text-anchor="middle" x="782" y="-266" font-family="Helvetica,sans-Serif" font-size="10.00">CreateCoffeeMeterIcon</text>
</a>
</g>
</g>
<!-- Node8&#45;&gt;Node10 -->
<g id="edge10" class="edge">
<title>Node8&#45;&gt;Node10</title>
<path fill="none" stroke="#63b8ff" d="M644.79,-167.04C655.77,-171.09 667.12,-176.73 676,-184.5 701.15,-206.5 685.67,-229.93 712,-250.5 713.78,-251.89 715.66,-253.18 717.62,-254.37"/>
<polygon fill="#63b8ff" stroke="#63b8ff" points="716.1,-257.52 726.59,-258.96 719.29,-251.29 716.1,-257.52"/>
</g>
<!-- Node12 -->
<g id="node12" class="node">
<title>Node12</title>
<g id="a_node12"><a xlink:href="../../d9/dfa/Init_8cpp.html#a7577908172d93807ef67f163f851fe5e" target="_top" xlink:title="Create the floor and register it.">
<polygon fill="white" stroke="#666666" points="819,-93 745,-93 745,-74 819,-74 819,-93"/>
<text text-anchor="middle" x="782" y="-81" font-family="Helvetica,sans-Serif" font-size="10.00">CreateFloor</text>
</a>
</g>
</g>
<!-- Node8&#45;&gt;Node12 -->
<g id="edge13" class="edge">
<title>Node8&#45;&gt;Node12</title>
<path fill="none" stroke="#63b8ff" d="M620.85,-147.99C641.09,-135.78 678.11,-114.63 712,-101.5 719.31,-98.67 727.21,-96.14 734.98,-93.93"/>
<polygon fill="#63b8ff" stroke="#63b8ff" points="735.95,-97.3 744.69,-91.31 734.13,-90.54 735.95,-97.3"/>
</g>
<!-- Node13 -->
<g id="node13" class="node">
<title>Node13</title>
<g id="a_node13"><a xlink:href="../../d9/dfa/Init_8cpp.html#a8ad8206fa2846739c5e76ce97b6b2783" target="_top" xlink:title="Create the score counter and register it.">
<polygon fill="white" stroke="#666666" points="839,-56 725,-56 725,-37 839,-37 839,-56"/>
<text text-anchor="middle" x="782" y="-44" font-family="Helvetica,sans-Serif" font-size="10.00">CreateScoreCounter</text>
</a>
</g>
</g>
<!-- Node8&#45;&gt;Node13 -->
<g id="edge15" class="edge">
<title>Node8&#45;&gt;Node13</title>
<path fill="none" stroke="#63b8ff" d="M613.55,-147.99C630.04,-129.13 669.69,-86.88 712,-64.5 715.53,-62.63 719.27,-60.95 723.1,-59.43"/>
<polygon fill="#63b8ff" stroke="#63b8ff" points="724.52,-62.65 732.78,-56.01 722.18,-56.05 724.52,-62.65"/>
</g>
<!-- Node14 -->
<g id="node14" class="node">
<title>Node14</title>
<g id="a_node14"><a xlink:href="../../d9/dfa/Init_8cpp.html#ac07b948048071cbf70f69aa9d691a93f" target="_top" xlink:title="Set the window background to white.">
<polygon fill="white" stroke="#666666" points="852,-167 712,-167 712,-148 852,-148 852,-167"/>
<text text-anchor="middle" x="782" y="-155" font-family="Helvetica,sans-Serif" font-size="10.00">SetupWindowbackground</text>
</a>
</g>
</g>
<!-- Node8&#45;&gt;Node14 -->
<g id="edge17" class="edge">
<title>Node8&#45;&gt;Node14</title>
<path fill="none" stroke="#63b8ff" d="M676.12,-157.5C684.61,-157.5 693.32,-157.5 701.92,-157.5"/>
<polygon fill="#63b8ff" stroke="#63b8ff" points="701.95,-161 711.95,-157.5 701.95,-154 701.95,-161"/>
</g>
<!-- Node15 -->
<g id="node15" class="node">
<title>Node15</title>
<g id="a_node15"><a xlink:href="../../d9/dfa/Init_8cpp.html#a374cb6f303f72b5af970063ff1318f24" target="_top" xlink:title="Create the left wall and register it.">
<polygon fill="white" stroke="#666666" points="826,-19 738,-19 738,0 826,0 826,-19"/>
<text text-anchor="middle" x="782" y="-7" font-family="Helvetica,sans-Serif" font-size="10.00">SpawnLeftWall</text>
</a>
</g>
</g>
<!-- Node8&#45;&gt;Node15 -->
<g id="edge18" class="edge">
<title>Node8&#45;&gt;Node15</title>
<path fill="none" stroke="#63b8ff" d="M610.5,-147.92C623.64,-123.72 661.64,-59.77 712,-27.5 716.94,-24.33 722.42,-21.72 728.06,-19.57"/>
<polygon fill="#63b8ff" stroke="#63b8ff" points="729.28,-22.85 737.66,-16.36 727.07,-16.21 729.28,-22.85"/>
</g>
<!-- Node16 -->
<g id="node16" class="node">
<title>Node16</title>
<g id="a_node16"><a xlink:href="../../d9/dfa/Init_8cpp.html#aa021dfea28868af5fdc6eb97fdf11395" target="_top" xlink:title="Create the player and register it.">
<polygon fill="white" stroke="#666666" points="822,-241 742,-241 742,-222 822,-222 822,-241"/>
<text text-anchor="middle" x="782" y="-229" font-family="Helvetica,sans-Serif" font-size="10.00">SpawnPlayer</text>
</a>
</g>
</g>
<!-- Node8&#45;&gt;Node16 -->
<g id="edge20" class="edge">
<title>Node8&#45;&gt;Node16</title>
<path fill="none" stroke="#63b8ff" d="M636.23,-167.04C648.93,-171.55 663.56,-177.48 676,-184.5 693.66,-194.46 693.88,-203.41 712,-212.5 718.19,-215.61 724.96,-218.26 731.76,-220.51"/>
<polygon fill="#63b8ff" stroke="#63b8ff" points="731.1,-223.97 741.69,-223.53 733.14,-217.27 731.1,-223.97"/>
</g>
<!-- Node17 -->
<g id="node17" class="node">
<title>Node17</title>
<g id="a_node17"><a xlink:href="../../d9/dfa/Init_8cpp.html#a0e2d0321a787eb9a3b705489c8f2b86b" target="_top" xlink:title="Create the right wall and register it.">
<polygon fill="white" stroke="#666666" points="829.5,-204 734.5,-204 734.5,-185 829.5,-185 829.5,-204"/>
<text text-anchor="middle" x="782" y="-192" font-family="Helvetica,sans-Serif" font-size="10.00">SpawnRightWall</text>
</a>
</g>
</g>
<!-- Node8&#45;&gt;Node17 -->
<g id="edge22" class="edge">
<title>Node8&#45;&gt;Node17</title>
<path fill="none" stroke="#63b8ff" d="M650.7,-167.03C673.53,-171.84 701.45,-177.73 725.57,-182.81"/>
<polygon fill="#63b8ff" stroke="#63b8ff" points="725.15,-186.3 735.65,-184.94 726.59,-179.45 725.15,-186.3"/>
</g>
<!-- Node9&#45;&gt;Node5 -->
<g id="edge9" class="edge">
<title>Node9&#45;&gt;Node5</title>
<path fill="none" stroke="#63b8ff" d="M824.98,-130.03C846,-134.8 871.65,-140.62 893.92,-145.68"/>
<polygon fill="#63b8ff" stroke="#63b8ff" points="893.36,-149.14 903.88,-147.94 894.91,-142.31 893.36,-149.14"/>
</g>
<!-- Node10&#45;&gt;Node5 -->
<g id="edge12" class="edge">
<title>Node10&#45;&gt;Node5</title>
<path fill="none" stroke="#63b8ff" d="M832.51,-258.99C839.28,-256.72 845.98,-253.93 852,-250.5 886.04,-231.12 916.46,-196.26 932.97,-175.16"/>
<polygon fill="#63b8ff" stroke="#63b8ff" points="935.87,-177.12 939.16,-167.05 930.31,-172.88 935.87,-177.12"/>
</g>
<!-- Node11 -->
<g id="node11" class="node">
<title>Node11</title>
<g id="a_node11"><a xlink:href="../../d1/da9/AssetLoading_8cpp.html#a07739f40c13743b2dfceefb659d6d455" target="_top" xlink:title=" ">
<polygon fill="white" stroke="#666666" points="988,-278 906,-278 906,-259 988,-259 988,-278"/>
<text text-anchor="middle" x="947" y="-266" font-family="Helvetica,sans-Serif" font-size="10.00">GetAssetPath</text>
</a>
</g>
</g>
<!-- Node10&#45;&gt;Node11 -->
<g id="edge11" class="edge">
<title>Node10&#45;&gt;Node11</title>
<path fill="none" stroke="#63b8ff" d="M846.95,-268.5C863.04,-268.5 880.09,-268.5 895.42,-268.5"/>
<polygon fill="#63b8ff" stroke="#63b8ff" points="895.73,-272 905.73,-268.5 895.73,-265 895.73,-272"/>
</g>
<!-- Node12&#45;&gt;Node5 -->
<g id="edge14" class="edge">
<title>Node12&#45;&gt;Node5</title>
<path fill="none" stroke="#63b8ff" d="M819.09,-90.87C829.88,-93.62 841.61,-97.15 852,-101.5 878.2,-112.46 905.87,-129.72 924.34,-142.19"/>
<polygon fill="#63b8ff" stroke="#63b8ff" points="922.4,-145.1 932.63,-147.87 926.36,-139.33 922.4,-145.1"/>
</g>
<!-- Node13&#45;&gt;Node5 -->
<g id="edge16" class="edge">
<title>Node13&#45;&gt;Node5</title>
<path fill="none" stroke="#63b8ff" d="M832.51,-56.01C839.28,-58.28 845.98,-61.07 852,-64.5 886.04,-83.88 916.46,-118.74 932.97,-139.84"/>
<polygon fill="#63b8ff" stroke="#63b8ff" points="930.31,-142.12 939.16,-147.95 935.87,-137.88 930.31,-142.12"/>
</g>
<!-- Node15&#45;&gt;Node5 -->
<g id="edge19" class="edge">
<title>Node15&#45;&gt;Node5</title>
<path fill="none" stroke="#63b8ff" d="M826.21,-15.91C835.24,-18.54 844.34,-22.26 852,-27.5 893.97,-56.21 923.89,-110.09 937.6,-138.64"/>
<polygon fill="#63b8ff" stroke="#63b8ff" points="934.52,-140.32 941.91,-147.92 940.87,-137.37 934.52,-140.32"/>
</g>
<!-- Node16&#45;&gt;Node5 -->
<g id="edge21" class="edge">
<title>Node16&#45;&gt;Node5</title>
<path fill="none" stroke="#63b8ff" d="M822.29,-222.59C832.16,-219.83 842.61,-216.46 852,-212.5 877.9,-201.58 905.42,-184.79 923.95,-172.64"/>
<polygon fill="#63b8ff" stroke="#63b8ff" points="925.89,-175.55 932.27,-167.09 922.01,-169.72 925.89,-175.55"/>
</g>
<!-- Node17&#45;&gt;Node5 -->
<g id="edge23" class="edge">
<title>Node17&#45;&gt;Node5</title>
<path fill="none" stroke="#63b8ff" d="M824.98,-184.97C846,-180.2 871.65,-174.38 893.92,-169.32"/>
<polygon fill="#63b8ff" stroke="#63b8ff" points="894.91,-172.69 903.88,-167.06 893.36,-165.86 894.91,-172.69"/>
</g>
</g>
</svg>
        <g id="navigator" transform="translate(0 0)" fill="#404254">
                <rect fill="#f2f5e9" fill-opacity="0.5" stroke="#606060" stroke-width=".5" x="0" y="0" width="60" height="60"/>
                <use id="zoomplus" xlink:href="#zoomPlus" x="17" y="9" onmousedown="handleZoom(evt,'in')"/>
                <use id="zoomminus" xlink:href="#zoomMin" x="42" y="9" onmousedown="handleZoom(evt,'out')"/>
                <use id="reset" xlink:href="#resetDef" x="30" y="36" onmousedown="handleReset()"/>
                <g id="arrowUp" xlink:href="#dirArrow" transform="translate(30 24)" onmousedown="handlePan(0,-1)">
                  <use xlink:href="#rim" fill="#404040">
                        <set attributeName="fill" to="#808080" begin="arrowUp.mouseover" end="arrowUp.mouseout"/>
                  </use>
                  <path fill="none" stroke="white" stroke-width="1.5" d="M0,-3.0v7 M-2.5,-0.5L0,-3.0L2.5,-0.5"/>
                </g>
                <g id="arrowRight" xlink:href="#dirArrow" transform="rotate(90) translate(36 -43)" onmousedown="handlePan(1,0)">
                  <use xlink:href="#rim" fill="#404040">
                        <set attributeName="fill" to="#808080" begin="arrowRight.mouseover" end="arrowRight.mouseout"/>
                  </use>
                  <path fill="none" stroke="white" stroke-width="1.5" d="M0,-3.0v7 M-2.5,-0.5L0,-3.0L2.5,-0.5"/>
                </g>
                <g id="arrowDown" xlink:href="#dirArrow" transform="rotate(180) translate(-30 -48)" onmousedown="handlePan(0,1)">
                  <use xlink:href="#rim" fill="#404040">
                        <set attributeName="fill" to="#808080" begin="arrowDown.mouseover" end="arrowDown.mouseout"/>
                  </use>
                  <path fill="none" stroke="white" stroke-width="1.5" d="M0,-3.0v7 M-2.5,-0.5L0,-3.0L2.5,-0.5"/>
                </g>
                <g id="arrowLeft" xlink:href="#dirArrow" transform="rotate(270) translate(-36 17)" onmousedown="handlePan(-1,0)">
                  <use xlink:href="#rim" fill="#404040">
                        <set attributeName="fill" to="#808080" begin="arrowLeft.mouseover" end="arrowLeft.mouseout"/>
                  </use>
                  <path fill="none" stroke="white" stroke-width="1.5" d="M0,-3.0v7 M-2.5,-0.5L0,-3.0L2.5,-0.5"/>
                </g>
        </g>
        <svg viewBox="0 0 15 15" width="100%" height="30px" preserveAspectRatio="xMaxYMin meet">
         <g id="arrow_out" transform="scale(0.3 0.3)">
          <a xlink:href="GameManagement_8cpp_a95ff1ee6a57e678376b2eae2ef499ab3_cgraph_org.svg" target="_base">
           <rect id="button" ry="5" rx="5" y="6" x="6" height="38" width="38"
                fill="#f2f5e9" fill-opacity="0.5" stroke="#606060" stroke-width="1.0"/>
           <path id="arrow"
             d="M 11.500037,31.436501 C 11.940474,20.09759 22.043105,11.32322 32.158766,21.979434 L 37.068811,17.246167 C 37.068811,17.246167 37.088388,32 37.088388,32 L 22.160133,31.978069 C 22.160133,31.978069 26.997745,27.140456 26.997745,27.140456 C 18.528582,18.264221 13.291696,25.230495 11.500037,31.436501 z"
             style="fill:#404040;"/>
          </a>
         </g>
        </svg>
</svg>
