<?xml version="1.0" encoding="UTF-8" standalone="no"?>
<!DOCTYPE svg PUBLIC "-//W3C//DTD SVG 1.1//EN"
 "http://www.w3.org/Graphics/SVG/1.1/DTD/svg11.dtd">
<!-- Generated by graphviz version 2.43.0 (0)
 -->
<!-- Title: UpdateObjects Pages: 1 -->
<svg width="360pt" height="27pt"
 viewBox="0.00 0.00 360.00 27.00" xmlns="http://www.w3.org/2000/svg" xmlns:xlink="http://www.w3.org/1999/xlink">
<g id="graph0" class="graph" transform="scale(1 1) rotate(0) translate(4 23)">
<title>UpdateObjects</title>
<!-- Node1 -->
<g id="node1" class="node">
<title>Node1</title>
<g id="a_node1"><a xlink:title="Iterate over all objects, and update the appropriately, using OnTick() or Component specific methods.">
<polygon fill="#999999" stroke="#666666" points="352,-19 263,-19 263,0 352,0 352,-19"/>
<text text-anchor="middle" x="307.5" y="-7" font-family="Helvetica,sans-Serif" font-size="10.00">UpdateObjects</text>
</a>
</g>
</g>
<!-- Node2 -->
<g id="node2" class="node">
<title>Node2</title>
<g id="a_node2"><a xlink:href="../../df/d0a/main_8cpp.html#ae8fa368bbea5177612cd2cf333448c66" target="_top" xlink:title="Executed every frame.">
<polygon fill="white" stroke="#666666" points="227,-19 181,-19 181,0 227,0 227,-19"/>
<text text-anchor="middle" x="204" y="-7" font-family="Helvetica,sans-Serif" font-size="10.00">frame</text>
</a>
</g>
</g>
<!-- Node1&#45;&gt;Node2 -->
<g id="edge1" class="edge">
<title>Node1&#45;&gt;Node2</title>
<path fill="none" stroke="#63b8ff" d="M252.66,-9.5C243.62,-9.5 234.71,-9.5 227.08,-9.5"/>
<polygon fill="#63b8ff" stroke="#63b8ff" points="252.87,-13 262.87,-9.5 252.87,-6 252.87,-13"/>
</g>
<!-- Node3 -->
<g id="node3" class="node">
<title>Node3</title>
<g id="a_node3"><a xlink:href="../../df/d0a/main_8cpp.html#abfbee20b241e7d5bbbef9ab36fb201a4" target="_top" xlink:title="The main game loop, runs until an exit event is sensed, and QuitGame is set to true.">
<polygon fill="white" stroke="#666666" points="145,-19 77,-19 77,0 145,0 145,-19"/>
<text text-anchor="middle" x="111" y="-7" font-family="Helvetica,sans-Serif" font-size="10.00">gameLoop</text>
</a>
</g>
</g>
<!-- Node2&#45;&gt;Node3 -->
<g id="edge2" class="edge">
<title>Node2&#45;&gt;Node3</title>
<path fill="none" stroke="#63b8ff" d="M170.87,-9.5C162.55,-9.5 153.58,-9.5 145.2,-9.5"/>
<polygon fill="#63b8ff" stroke="#63b8ff" points="170.97,-13 180.97,-9.5 170.97,-6 170.97,-13"/>
</g>
<!-- Node4 -->
<g id="node4" class="node">
<title>Node4</title>
<g id="a_node4"><a xlink:href="../../df/d0a/main_8cpp.html#ae66f6b31b5ad750f1fe042a706a4e3d4" target="_top" xlink:title="Entry point of the program.">
<polygon fill="white" stroke="#666666" points="41,-19 0,-19 0,0 41,0 41,-19"/>
<text text-anchor="middle" x="20.5" y="-7" font-family="Helvetica,sans-Serif" font-size="10.00">main</text>
</a>
</g>
</g>
<!-- Node3&#45;&gt;Node4 -->
<g id="edge3" class="edge">
<title>Node3&#45;&gt;Node4</title>
<path fill="none" stroke="#63b8ff" d="M66.51,-9.5C57.66,-9.5 48.77,-9.5 41.25,-9.5"/>
<polygon fill="#63b8ff" stroke="#63b8ff" points="66.79,-13 76.79,-9.5 66.79,-6 66.79,-13"/>
</g>
</g>
</svg>
