<?xml version="1.0" encoding="UTF-8" standalone="no"?>
<!DOCTYPE svg PUBLIC "-//W3C//DTD SVG 1.1//EN"
 "http://www.w3.org/Graphics/SVG/1.1/DTD/svg11.dtd">
<!-- Generated by graphviz version 2.43.0 (0)
 -->
<!-- Title: PlayerKeyboardBehavior Pages: 1 -->
<svg width="197pt" height="602pt"
 viewBox="0.00 0.00 197.00 602.00" xmlns="http://www.w3.org/2000/svg" xmlns:xlink="http://www.w3.org/1999/xlink">
<g id="graph0" class="graph" transform="scale(1 1) rotate(0) translate(4 598)">
<title>PlayerKeyboardBehavior</title>
<!-- Node1 -->
<g id="Node000001" class="node">
<title>Node1</title>
<g id="a_Node000001"><a xlink:title="The keyboard handler for the player.">
<polygon fill="#999999" stroke="transparent" points="173,-190 16,-190 16,0 173,0 173,-190"/>
<text text-anchor="start" x="34.5" y="-178" font-family="Helvetica,sans-Serif" font-size="10.00">PlayerKeyboardBehavior</text>
<text text-anchor="start" x="93" y="-163" font-family="Helvetica,sans-Serif" font-size="10.00"> </text>
<text text-anchor="start" x="20.5" y="-148" font-family="Helvetica,sans-Serif" font-size="10.00">+</text>
<text text-anchor="start" x="33.5" y="-148" font-family="Helvetica,sans-Serif" font-size="10.00">PlayerKeyboardBehavior()</text>
<text text-anchor="start" x="20.5" y="-133" font-family="Helvetica,sans-Serif" font-size="10.00">+</text>
<text text-anchor="start" x="33.5" y="-133" font-family="Helvetica,sans-Serif" font-size="10.00">~PlayerKeyboardBehavior()</text>
<text text-anchor="start" x="20.5" y="-118" font-family="Helvetica,sans-Serif" font-size="10.00">+</text>
<text text-anchor="start" x="33.5" y="-118" font-family="Helvetica,sans-Serif" font-size="10.00">virtual void OnKeyDown</text>
<text text-anchor="start" x="33.5" y="-107" font-family="Helvetica,sans-Serif" font-size="10.00">(SDL_KeyboardEvent &amp;e)</text>
<text text-anchor="start" x="33.5" y="-96" font-family="Helvetica,sans-Serif" font-size="10.00"> override</text>
<text text-anchor="start" x="20.5" y="-81" font-family="Helvetica,sans-Serif" font-size="10.00">+</text>
<text text-anchor="start" x="33.5" y="-81" font-family="Helvetica,sans-Serif" font-size="10.00">virtual void OnKeyUp</text>
<text text-anchor="start" x="33.5" y="-70" font-family="Helvetica,sans-Serif" font-size="10.00">(SDL_KeyboardEvent &amp;e)</text>
<text text-anchor="start" x="33.5" y="-59" font-family="Helvetica,sans-Serif" font-size="10.00"> override</text>
<text text-anchor="start" x="20.5" y="-44" font-family="Helvetica,sans-Serif" font-size="10.00">+</text>
<text text-anchor="start" x="33.5" y="-44" font-family="Helvetica,sans-Serif" font-size="10.00">virtual void OnTick</text>
<text text-anchor="start" x="33.5" y="-33" font-family="Helvetica,sans-Serif" font-size="10.00">() override</text>
<text text-anchor="start" x="20.5" y="-18" font-family="Helvetica,sans-Serif" font-size="10.00">+</text>
<text text-anchor="start" x="33.5" y="-18" font-family="Helvetica,sans-Serif" font-size="10.00">virtual void OnStart</text>
<text text-anchor="start" x="33.5" y="-7" font-family="Helvetica,sans-Serif" font-size="10.00">() override</text>
<polygon fill="#666666" stroke="#666666" points="16.5,-173 16.5,-173 173.5,-173 173.5,-173 16.5,-173"/>
<polygon fill="#666666" stroke="#666666" points="16.5,-158 16.5,-158 173.5,-158 173.5,-158 16.5,-158"/>
<polygon fill="none" stroke="#666666" points="16,0 16,-190 173,-190 173,0 16,0"/>
</a>
</g>
</g>
<!-- Node2 -->
<g id="Node000002" class="node">
<title>Node2</title>
<g id="a_Node000002"><a xlink:href="../../de/d47/classKeyboardHandlerBehavior.html" target="_top" xlink:title="An abstract class for handling keyboard inputs.">
<polygon fill="white" stroke="transparent" points="173,-312 16,-312 16,-226 173,-226 173,-312"/>
<text text-anchor="start" x="31" y="-300" font-family="Helvetica,sans-Serif" font-size="10.00">KeyboardHandlerBehavior</text>
<text text-anchor="start" x="93" y="-285" font-family="Helvetica,sans-Serif" font-size="10.00"> </text>
<text text-anchor="start" x="20.5" y="-270" font-family="Helvetica,sans-Serif" font-size="10.00">+</text>
<text text-anchor="start" x="33.5" y="-270" font-family="Helvetica,sans-Serif" font-size="10.00">virtual void OnKeyDown</text>
<text text-anchor="start" x="33.5" y="-259" font-family="Helvetica,sans-Serif" font-size="10.00">(SDL_KeyboardEvent &amp;e)=0</text>
<text text-anchor="start" x="20.5" y="-244" font-family="Helvetica,sans-Serif" font-size="10.00">+</text>
<text text-anchor="start" x="33.5" y="-244" font-family="Helvetica,sans-Serif" font-size="10.00">virtual void OnKeyUp</text>
<text text-anchor="start" x="33.5" y="-233" font-family="Helvetica,sans-Serif" font-size="10.00">(SDL_KeyboardEvent &amp;e)=0</text>
<polygon fill="#666666" stroke="#666666" points="16.5,-295 16.5,-295 173.5,-295 173.5,-295 16.5,-295"/>
<polygon fill="#666666" stroke="#666666" points="16.5,-280 16.5,-280 173.5,-280 173.5,-280 16.5,-280"/>
<polygon fill="none" stroke="#666666" points="16,-226 16,-312 173,-312 173,-226 16,-226"/>
</a>
</g>
</g>
<!-- Node2&#45;&gt;Node1 -->
<g id="edge1_Node000001_Node000002" class="edge">
<title>Node2&#45;&gt;Node1</title>
<g id="a_edge1_Node000001_Node000002"><a xlink:title=" ">
<path fill="none" stroke="#63b8ff" d="M94.5,-215.87C94.5,-207.7 94.5,-199.05 94.5,-190.28"/>
<polygon fill="none" stroke="#63b8ff" points="91,-215.92 94.5,-225.92 98,-215.92 91,-215.92"/>
</a>
</g>
</g>
<!-- Node3 -->
<g id="Node000003" class="node">
<title>Node3</title>
<g id="a_Node000003"><a xlink:href="../../df/dc1/classBehavior.html" target="_top" xlink:title="An abstract gameobject behavior.">
<polygon fill="white" stroke="transparent" points="121.5,-397 67.5,-397 67.5,-348 121.5,-348 121.5,-397"/>
<text text-anchor="start" x="72.5" y="-384.5" font-family="Helvetica,sans-Serif" font-size="10.00">Behavior</text>
<text text-anchor="start" x="92.5" y="-369.5" font-family="Helvetica,sans-Serif" font-size="10.00"> </text>
<text text-anchor="start" x="92.5" y="-354.5" font-family="Helvetica,sans-Serif" font-size="10.00"> </text>
<polygon fill="#666666" stroke="#666666" points="67.5,-379.5 67.5,-379.5 121.5,-379.5 121.5,-379.5 67.5,-379.5"/>
<polygon fill="#666666" stroke="#666666" points="67.5,-364.5 67.5,-364.5 121.5,-364.5 121.5,-364.5 67.5,-364.5"/>
<polygon fill="none" stroke="#666666" points="67.5,-348 67.5,-397 121.5,-397 121.5,-348 67.5,-348"/>
</a>
</g>
</g>
<!-- Node3&#45;&gt;Node2 -->
<g id="edge2_Node000002_Node000003" class="edge">
<title>Node3&#45;&gt;Node2</title>
<g id="a_edge2_Node000002_Node000003"><a xlink:title=" ">
<path fill="none" stroke="#63b8ff" d="M94.5,-337.94C94.5,-329.68 94.5,-320.73 94.5,-312.13"/>
<polygon fill="none" stroke="#63b8ff" points="91,-337.96 94.5,-347.96 98,-337.96 91,-337.96"/>
</a>
</g>
</g>
<!-- Node4 -->
<g id="Node000004" class="node">
<title>Node4</title>
<g id="a_Node000004"><a xlink:href="../../d9/df7/classGameObjectComponent.html" target="_top" xlink:title="An abstract gameobject component.">
<polygon fill="white" stroke="transparent" points="189,-594 0,-594 0,-433 189,-433 189,-594"/>
<text text-anchor="start" x="36" y="-581.5" font-family="Helvetica,sans-Serif" font-size="10.00">GameObjectComponent</text>
<text text-anchor="start" x="4.5" y="-566.5" font-family="Helvetica,sans-Serif" font-size="10.00">#</text>
<text text-anchor="start" x="17.5" y="-566.5" font-family="Helvetica,sans-Serif" font-size="10.00">bool enabled</text>
<text text-anchor="start" x="4.5" y="-551.5" font-family="Helvetica,sans-Serif" font-size="10.00">#</text>
<text text-anchor="start" x="17.5" y="-551.5" font-family="Helvetica,sans-Serif" font-size="10.00">GameObject * parent</text>
<text text-anchor="start" x="4.5" y="-536.5" font-family="Helvetica,sans-Serif" font-size="10.00">+</text>
<text text-anchor="start" x="17.5" y="-536.5" font-family="Helvetica,sans-Serif" font-size="10.00">bool getEnabled() const</text>
<text text-anchor="start" x="4.5" y="-521.5" font-family="Helvetica,sans-Serif" font-size="10.00">+</text>
<text text-anchor="start" x="17.5" y="-521.5" font-family="Helvetica,sans-Serif" font-size="10.00">void setEnabled(bool</text>
<text text-anchor="start" x="17.5" y="-510.5" font-family="Helvetica,sans-Serif" font-size="10.00"> value)</text>
<text text-anchor="start" x="4.5" y="-495.5" font-family="Helvetica,sans-Serif" font-size="10.00">+</text>
<text text-anchor="start" x="17.5" y="-495.5" font-family="Helvetica,sans-Serif" font-size="10.00">void setParent(GameObject</text>
<text text-anchor="start" x="17.5" y="-484.5" font-family="Helvetica,sans-Serif" font-size="10.00"> *value)</text>
<text text-anchor="start" x="4.5" y="-469.5" font-family="Helvetica,sans-Serif" font-size="10.00">+</text>
<text text-anchor="start" x="17.5" y="-469.5" font-family="Helvetica,sans-Serif" font-size="10.00">virtual ~GameObjectComponent()</text>
<text text-anchor="start" x="4.5" y="-454.5" font-family="Helvetica,sans-Serif" font-size="10.00">+</text>
<text text-anchor="start" x="17.5" y="-454.5" font-family="Helvetica,sans-Serif" font-size="10.00">virtual void OnTick()=0</text>
<text text-anchor="start" x="4.5" y="-439.5" font-family="Helvetica,sans-Serif" font-size="10.00">+</text>
<text text-anchor="start" x="17.5" y="-439.5" font-family="Helvetica,sans-Serif" font-size="10.00">virtual void OnStart()=0</text>
<polygon fill="#666666" stroke="#666666" points="0.5,-576.5 0.5,-576.5 189.5,-576.5 189.5,-576.5 0.5,-576.5"/>
<polygon fill="#666666" stroke="#666666" points="0.5,-546.5 0.5,-546.5 15.5,-546.5 15.5,-546.5 0.5,-546.5"/>
<polygon fill="#666666" stroke="#666666" points="15.5,-546.5 15.5,-546.5 189.5,-546.5 189.5,-546.5 15.5,-546.5"/>
<polygon fill="none" stroke="#666666" points="0,-433 0,-594 189,-594 189,-433 0,-433"/>
</a>
</g>
</g>
<!-- Node4&#45;&gt;Node3 -->
<g id="edge3_Node000003_Node000004" class="edge">
<title>Node4&#45;&gt;Node3</title>
<g id="a_edge3_Node000003_Node000004"><a xlink:title=" ">
<path fill="none" stroke="#63b8ff" d="M94.5,-422.64C94.5,-413.4 94.5,-404.68 94.5,-397.22"/>
<polygon fill="none" stroke="#63b8ff" points="91,-422.85 94.5,-432.85 98,-422.85 91,-422.85"/>
</a>
</g>
</g>
</g>
</svg>
