<?xml version="1.0" encoding="UTF-8" standalone="no"?>
<!DOCTYPE svg PUBLIC "-//W3C//DTD SVG 1.1//EN"
 "http://www.w3.org/Graphics/SVG/1.1/DTD/svg11.dtd">
<!-- Generated by graphviz version 2.43.0 (0)
 -->
<!-- Title: main.cpp Pages: 1 -->
<!--zoomable 258 -->

<svg id="main" version="1.1" xmlns="http://www.w3.org/2000/svg" xmlns:xlink="http://www.w3.org/1999/xlink" xml:space="preserve" onload="init(evt)">

<style type="text/css"><![CDATA[
.node, .edge {opacity: 0.7;}
.node.selected, .edge.selected {opacity: 1;}
.edge:hover path { stroke: red; }
.edge:hover polygon { stroke: red; fill: red; }
]]></style>

<defs>
  <circle id="rim" cx="0" cy="0" r="7"/>
  <circle id="rim2" cx="0" cy="0" r="3.5"/>
  <g id="zoomPlus">
    <use xlink:href="#rim" fill="#404040"><set attributeName="fill" to="#808080" begin="zoomplus.mouseover" end="zoomplus.mouseout"/></use>
    <path d="M-4,0h8M0,-4v8" fill="none" stroke="white" stroke-width="1.5" pointer-events="none"/>
  </g>
  <g id="zoomMin">
    <use xlink:href="#rim" fill="#404040"><set attributeName="fill" to="#808080" begin="zoomminus.mouseover" end="zoomminus.mouseout"/></use>
    <path d="M-4,0h8" fill="none" stroke="white" stroke-width="1.5" pointer-events="none"/>
  </g>
  <g id="arrowUp" transform="translate(30 24)">
    <use xlink:href="#rim"/>
    <path pointer-events="none" fill="none" stroke="white" stroke-width="1.5" d="M0,-3.0v7 M-2.5,-0.5L0,-3.0L2.5,-0.5"/>
  </g>
  <g id="arrowRight" transform="rotate(90) translate(36 -43)">
    <use xlink:href="#rim"/>
    <path pointer-events="none" fill="none" stroke="white" stroke-width="1.5" d="M0,-3.0v7 M-2.5,-0.5L0,-3.0L2.5,-0.5"/>
  </g>
  <g id="arrowDown" transform="rotate(180) translate(-30 -48)">
    <use xlink:href="#rim"/>
    <path pointer-events="none" fill="none" stroke="white" stroke-width="1.5" d="M0,-3.0v7 M-2.5,-0.5L0,-3.0L2.5,-0.5"/>
  </g>
  <g id="arrowLeft" transform="rotate(270) translate(-36 17)">
    <use xlink:href="#rim"/>
    <path pointer-events="none" fill="none" stroke="white" stroke-width="1.5" d="M0,-3.0v7 M-2.5,-0.5L0,-3.0L2.5,-0.5"/>
  </g>
  <g id="resetDef">
    <use xlink:href="#rim2" fill="#404040"><set attributeName="fill" to="#808080" begin="reset.mouseover" end="reset.mouseout"/></use>
  </g>
</defs>
<script type="application/ecmascript">
var viewWidth = 1881;
var viewHeight = 258;
var sectionId = 'dynsection-0';
</script>
<script type="application/ecmascript" xlink:href="../../svg.min.js"/>
<svg id="graph" class="graph">
<g id="viewport">
<title>main.cpp</title>
<!-- Node1 -->
<g id="Node000001" class="node">
<title>Node1</title>
<g id="a_Node000001"><a xlink:title=" ">
<polygon fill="#999999" stroke="#666666" points="1038,-250 976,-250 976,-231 1038,-231 1038,-250"/>
<text text-anchor="middle" x="1007" y="-238" font-family="Helvetica,sans-Serif" font-size="10.00">main.cpp</text>
</a>
</g>
</g>
<!-- Node2 -->
<g id="Node000002" class="node">
<title>Node2</title>
<g id="a_Node000002"><a xlink:href="../../d0/d4e/Events_8hpp.html" target="_top" xlink:title=" ">
<polygon fill="white" stroke="#666666" points="108.5,-195 1.5,-195 1.5,-176 108.5,-176 108.5,-195"/>
<text text-anchor="middle" x="55" y="-183" font-family="Helvetica,sans-Serif" font-size="10.00">engine/Events.hpp</text>
</a>
</g>
</g>
<!-- Node1&#45;&gt;Node2 -->
<g id="edge1_Node000001_Node000002" class="edge">
<title>Node1&#45;&gt;Node2</title>
<g id="a_edge1_Node000001_Node000002"><a xlink:title=" ">
<path fill="none" stroke="#63b8ff" d="M975.62,-238.76C861.25,-235.89 455.95,-224.15 123,-195 121.7,-194.89 120.39,-194.77 119.06,-194.64"/>
<polygon fill="#63b8ff" stroke="#63b8ff" points="119.09,-191.13 108.78,-193.6 118.38,-198.09 119.09,-191.13"/>
</a>
</g>
</g>
<!-- Node4 -->
<g id="Node000004" class="node">
<title>Node4</title>
<g id="a_Node000004"><a xlink:href="../../d7/dd0/GameManagement_8hpp.html" target="_top" xlink:title=" ">
<polygon fill="white" stroke="#666666" points="331.5,-195 164.5,-195 164.5,-176 331.5,-176 331.5,-195"/>
<text text-anchor="middle" x="248" y="-183" font-family="Helvetica,sans-Serif" font-size="10.00">engine/GameManagement.hpp</text>
</a>
</g>
</g>
<!-- Node1&#45;&gt;Node4 -->
<g id="edge3_Node000001_Node000004" class="edge">
<title>Node1&#45;&gt;Node4</title>
<g id="a_edge3_Node000001_Node000004"><a xlink:title=" ">
<path fill="none" stroke="#63b8ff" d="M975.96,-237.64C881.3,-231.91 587.9,-213.8 345,-195 343.9,-194.92 342.8,-194.83 341.69,-194.74"/>
<polygon fill="#63b8ff" stroke="#63b8ff" points="341.84,-191.24 331.59,-193.93 341.28,-198.22 341.84,-191.24"/>
</a>
</g>
</g>
<!-- Node5 -->
<g id="Node000005" class="node">
<title>Node5</title>
<g id="a_Node000005"><a xlink:title=" ">
<polygon fill="#e0e0e0" stroke="#999999" points="290,-140 184,-140 184,-121 290,-121 290,-140"/>
<text text-anchor="middle" x="237" y="-128" font-family="Helvetica,sans-Serif" font-size="10.00">SDL3/SDL_pixels.h</text>
</a>
</g>
</g>
<!-- Node1&#45;&gt;Node5 -->
<g id="edge25_Node000001_Node000005" class="edge">
<title>Node1&#45;&gt;Node5</title>
<g id="a_edge25_Node000001_Node000005"><a xlink:title=" ">
<path fill="none" stroke="#63b8ff" d="M975.83,-239.06C825.76,-236.79 183.81,-225.35 155,-195 135.65,-174.61 170.39,-155.48 200.45,-143.65"/>
<polygon fill="#63b8ff" stroke="#63b8ff" points="201.84,-146.86 209.97,-140.07 199.38,-140.31 201.84,-146.86"/>
</a>
</g>
</g>
<!-- Node6 -->
<g id="Node000006" class="node">
<title>Node6</title>
<g id="a_Node000006"><a xlink:title=" ">
<polygon fill="#e0e0e0" stroke="#999999" points="416,-140 308,-140 308,-121 416,-121 416,-140"/>
<text text-anchor="middle" x="362" y="-128" font-family="Helvetica,sans-Serif" font-size="10.00">SDL3/SDL_render.h</text>
</a>
</g>
</g>
<!-- Node1&#45;&gt;Node6 -->
<g id="edge27_Node000001_Node000006" class="edge">
<title>Node1&#45;&gt;Node6</title>
<g id="a_edge27_Node000001_Node000006"><a xlink:title=" ">
<path fill="none" stroke="#63b8ff" d="M975.92,-239.4C855.51,-238.74 424.16,-233.66 378,-195 365.21,-184.29 361.83,-164.99 361.27,-150.47"/>
<polygon fill="#63b8ff" stroke="#63b8ff" points="364.77,-150.11 361.3,-140.1 357.77,-150.09 364.77,-150.11"/>
</a>
</g>
</g>
<!-- Node7 -->
<g id="Node000007" class="node">
<title>Node7</title>
<g id="a_Node000007"><a xlink:href="../../d4/db4/EngineState_8hpp.html" target="_top" xlink:title=" ">
<polygon fill="white" stroke="#666666" points="519,-195 387,-195 387,-176 519,-176 519,-195"/>
<text text-anchor="middle" x="453" y="-183" font-family="Helvetica,sans-Serif" font-size="10.00">engine/EngineState.hpp</text>
</a>
</g>
</g>
<!-- Node1&#45;&gt;Node7 -->
<g id="edge6_Node000001_Node000007" class="edge">
<title>Node1&#45;&gt;Node7</title>
<g id="a_edge6_Node000001_Node000007"><a xlink:title=" ">
<path fill="none" stroke="#63b8ff" d="M975.88,-236.83C900.98,-230.35 704.53,-213.08 529.42,-195.13"/>
<polygon fill="#63b8ff" stroke="#63b8ff" points="529.55,-191.62 519.25,-194.08 528.83,-198.59 529.55,-191.62"/>
</a>
</g>
</g>
<!-- Node15 -->
<g id="Node000015" class="node">
<title>Node15</title>
<g id="a_Node000015"><a xlink:href="../../d3/dfc/ObjectManagement_8hpp.html" target="_top" xlink:title=" ">
<polygon fill="white" stroke="#666666" points="707,-195 537,-195 537,-176 707,-176 707,-195"/>
<text text-anchor="middle" x="622" y="-183" font-family="Helvetica,sans-Serif" font-size="10.00">engine/ObjectManagement.hpp</text>
</a>
</g>
</g>
<!-- Node1&#45;&gt;Node15 -->
<g id="edge17_Node000001_Node000015" class="edge">
<title>Node1&#45;&gt;Node15</title>
<g id="a_edge17_Node000001_Node000015"><a xlink:title=" ">
<path fill="none" stroke="#63b8ff" d="M975.82,-235.21C914.84,-226.81 778.38,-208.03 693.87,-196.39"/>
<polygon fill="#63b8ff" stroke="#63b8ff" points="694.21,-192.91 683.83,-195.01 693.26,-199.84 694.21,-192.91"/>
</a>
</g>
</g>
<!-- Node16 -->
<g id="Node000016" class="node">
<title>Node16</title>
<g id="a_Node000016"><a xlink:href="../../d9/de7/Time_8hpp.html" target="_top" xlink:title=" ">
<polygon fill="white" stroke="#666666" points="823,-195 725,-195 725,-176 823,-176 823,-195"/>
<text text-anchor="middle" x="774" y="-183" font-family="Helvetica,sans-Serif" font-size="10.00">engine/Time.hpp</text>
</a>
</g>
</g>
<!-- Node1&#45;&gt;Node16 -->
<g id="edge21_Node000001_Node000016" class="edge">
<title>Node1&#45;&gt;Node16</title>
<g id="a_edge21_Node000001_Node000016"><a xlink:title=" ">
<path fill="none" stroke="#63b8ff" d="M975.58,-232.35C935.97,-223.34 867.5,-207.77 821.49,-197.3"/>
<polygon fill="#63b8ff" stroke="#63b8ff" points="821.99,-193.83 811.46,-195.02 820.44,-200.65 821.99,-193.83"/>
</a>
</g>
</g>
<!-- Node17 -->
<g id="Node000017" class="node">
<title>Node17</title>
<g id="a_Node000017"><a xlink:href="../../d3/d67/Lifecycle_8hpp.html" target="_top" xlink:title=" ">
<polygon fill="white" stroke="#666666" points="953,-195 841,-195 841,-176 953,-176 953,-195"/>
<text text-anchor="middle" x="897" y="-183" font-family="Helvetica,sans-Serif" font-size="10.00">game/Lifecycle.hpp</text>
</a>
</g>
</g>
<!-- Node1&#45;&gt;Node17 -->
<g id="edge22_Node000001_Node000017" class="edge">
<title>Node1&#45;&gt;Node17</title>
<g id="a_edge22_Node000001_Node000017"><a xlink:title=" ">
<path fill="none" stroke="#63b8ff" d="M989.33,-230.98C971.71,-222.5 944.42,-209.35 924.07,-199.54"/>
<polygon fill="#63b8ff" stroke="#63b8ff" points="925.52,-196.36 914.99,-195.17 922.48,-202.66 925.52,-196.36"/>
</a>
</g>
</g>
<!-- Node18 -->
<g id="Node000018" class="node">
<title>Node18</title>
<g id="a_Node000018"><a xlink:title=" ">
<polygon fill="#e0e0e0" stroke="#999999" points="1043,-195 971,-195 971,-176 1043,-176 1043,-195"/>
<text text-anchor="middle" x="1007" y="-183" font-family="Helvetica,sans-Serif" font-size="10.00">SDL3/SDL.h</text>
</a>
</g>
</g>
<!-- Node1&#45;&gt;Node18 -->
<g id="edge23_Node000001_Node000018" class="edge">
<title>Node1&#45;&gt;Node18</title>
<g id="a_edge23_Node000001_Node000018"><a xlink:title=" ">
<path fill="none" stroke="#63b8ff" d="M1007,-230.75C1007,-223.8 1007,-213.85 1007,-205.13"/>
<polygon fill="#63b8ff" stroke="#63b8ff" points="1010.5,-205.09 1007,-195.09 1003.5,-205.09 1010.5,-205.09"/>
</a>
</g>
</g>
<!-- Node19 -->
<g id="Node000019" class="node">
<title>Node19</title>
<g id="a_Node000019"><a xlink:title=" ">
<polygon fill="#e0e0e0" stroke="#999999" points="1163,-195 1061,-195 1061,-176 1163,-176 1163,-195"/>
<text text-anchor="middle" x="1112" y="-183" font-family="Helvetica,sans-Serif" font-size="10.00">SDL3/SDL_main.h</text>
</a>
</g>
</g>
<!-- Node1&#45;&gt;Node19 -->
<g id="edge24_Node000001_Node000019" class="edge">
<title>Node1&#45;&gt;Node19</title>
<g id="a_edge24_Node000001_Node000019"><a xlink:title=" ">
<path fill="none" stroke="#63b8ff" d="M1023.87,-230.98C1040.61,-222.54 1066.5,-209.47 1085.89,-199.68"/>
<polygon fill="#63b8ff" stroke="#63b8ff" points="1087.47,-202.8 1094.82,-195.17 1084.32,-196.55 1087.47,-202.8"/>
</a>
</g>
</g>
<!-- Node20 -->
<g id="Node000020" class="node">
<title>Node20</title>
<g id="a_Node000020"><a xlink:title=" ">
<polygon fill="#e0e0e0" stroke="#999999" points="1277,-195 1181,-195 1181,-176 1277,-176 1277,-195"/>
<text text-anchor="middle" x="1229" y="-183" font-family="Helvetica,sans-Serif" font-size="10.00">SDL3/SDL_rect.h</text>
</a>
</g>
</g>
<!-- Node1&#45;&gt;Node20 -->
<g id="edge26_Node000001_Node000020" class="edge">
<title>Node1&#45;&gt;Node20</title>
<g id="a_edge26_Node000001_Node000020"><a xlink:title=" ">
<path fill="none" stroke="#63b8ff" d="M1038.34,-232.02C1076.07,-223.01 1139.76,-207.81 1183.05,-197.47"/>
<polygon fill="#63b8ff" stroke="#63b8ff" points="1184.13,-200.81 1193.04,-195.08 1182.5,-194 1184.13,-200.81"/>
</a>
</g>
</g>
<!-- Node21 -->
<g id="Node000021" class="node">
<title>Node21</title>
<g id="a_Node000021"><a xlink:title=" ">
<polygon fill="#e0e0e0" stroke="#999999" points="1408.5,-195 1295.5,-195 1295.5,-176 1408.5,-176 1408.5,-195"/>
<text text-anchor="middle" x="1352" y="-183" font-family="Helvetica,sans-Serif" font-size="10.00">SDL3/SDL_surface.h</text>
</a>
</g>
</g>
<!-- Node1&#45;&gt;Node21 -->
<g id="edge28_Node000001_Node000021" class="edge">
<title>Node1&#45;&gt;Node21</title>
<g id="a_edge28_Node000001_Node000021"><a xlink:title=" ">
<path fill="none" stroke="#63b8ff" d="M1038.22,-234.7C1094.07,-226.12 1212.14,-207.99 1286.46,-196.57"/>
<polygon fill="#63b8ff" stroke="#63b8ff" points="1287.29,-199.98 1296.64,-195 1286.23,-193.06 1287.29,-199.98"/>
</a>
</g>
</g>
<!-- Node22 -->
<g id="Node000022" class="node">
<title>Node22</title>
<g id="a_Node000022"><a xlink:title=" ">
<polygon fill="#e0e0e0" stroke="#999999" points="1531,-195 1427,-195 1427,-176 1531,-176 1531,-195"/>
<text text-anchor="middle" x="1479" y="-183" font-family="Helvetica,sans-Serif" font-size="10.00">SDL3/SDL_video.h</text>
</a>
</g>
</g>
<!-- Node1&#45;&gt;Node22 -->
<g id="edge29_Node000001_Node000022" class="edge">
<title>Node1&#45;&gt;Node22</title>
<g id="a_edge29_Node000001_Node000022"><a xlink:title=" ">
<path fill="none" stroke="#63b8ff" d="M1038.23,-236.45C1105.41,-229.81 1268.87,-213.29 1416.61,-195.14"/>
<polygon fill="#63b8ff" stroke="#63b8ff" points="1417.27,-198.58 1426.77,-193.88 1416.42,-191.64 1417.27,-198.58"/>
</a>
</g>
</g>
<!-- Node23 -->
<g id="Node000023" class="node">
<title>Node23</title>
<g id="a_Node000023"><a xlink:title=" ">
<polygon fill="#e0e0e0" stroke="#999999" points="1653,-195 1549,-195 1549,-176 1653,-176 1653,-195"/>
<text text-anchor="middle" x="1601" y="-183" font-family="Helvetica,sans-Serif" font-size="10.00">SDL3_ttf/SDL_ttf.h</text>
</a>
</g>
</g>
<!-- Node1&#45;&gt;Node23 -->
<g id="edge30_Node000001_Node000023" class="edge">
<title>Node1&#45;&gt;Node23</title>
<g id="a_edge30_Node000001_Node000023"><a xlink:title=" ">
<path fill="none" stroke="#63b8ff" d="M1038.3,-237.49C1119.2,-232.17 1342.1,-216.71 1538.56,-195.1"/>
<polygon fill="#63b8ff" stroke="#63b8ff" points="1539.23,-198.55 1548.78,-193.97 1538.46,-191.59 1539.23,-198.55"/>
</a>
</g>
</g>
<!-- Node24 -->
<g id="Node000024" class="node">
<title>Node24</title>
<g id="a_Node000024"><a xlink:title=" ">
<polygon fill="#e0e0e0" stroke="#999999" points="1720.5,-195 1671.5,-195 1671.5,-176 1720.5,-176 1720.5,-195"/>
<text text-anchor="middle" x="1696" y="-183" font-family="Helvetica,sans-Serif" font-size="10.00">cstdlib</text>
</a>
</g>
</g>
<!-- Node1&#45;&gt;Node24 -->
<g id="edge31_Node000001_Node000024" class="edge">
<title>Node1&#45;&gt;Node24</title>
<g id="a_edge31_Node000001_Node000024"><a xlink:title=" ">
<path fill="none" stroke="#63b8ff" d="M1038.24,-239.33C1131.54,-238.43 1416.23,-232.67 1661.06,-194.83"/>
<polygon fill="#63b8ff" stroke="#63b8ff" points="1661.88,-198.24 1671.22,-193.23 1660.8,-191.32 1661.88,-198.24"/>
</a>
</g>
</g>
<!-- Node25 -->
<g id="Node000025" class="node">
<title>Node25</title>
<g id="a_Node000025"><a xlink:title=" ">
<polygon fill="#e0e0e0" stroke="#999999" points="1801,-195 1739,-195 1739,-176 1801,-176 1801,-195"/>
<text text-anchor="middle" x="1770" y="-183" font-family="Helvetica,sans-Serif" font-size="10.00">stdbool.h</text>
</a>
</g>
</g>
<!-- Node1&#45;&gt;Node25 -->
<g id="edge32_Node000001_Node000025" class="edge">
<title>Node1&#45;&gt;Node25</title>
<g id="a_edge32_Node000001_Node000025"><a xlink:title=" ">
<path fill="none" stroke="#63b8ff" d="M1038.17,-239.23C1137.57,-238 1456.06,-231.41 1728.55,-194.99"/>
<polygon fill="#63b8ff" stroke="#63b8ff" points="1729.19,-198.43 1738.63,-193.62 1728.25,-191.5 1729.19,-198.43"/>
</a>
</g>
</g>
<!-- Node26 -->
<g id="Node000026" class="node">
<title>Node26</title>
<g id="a_Node000026"><a xlink:title=" ">
<polygon fill="#e0e0e0" stroke="#999999" points="1872.5,-195 1819.5,-195 1819.5,-176 1872.5,-176 1872.5,-195"/>
<text text-anchor="middle" x="1846" y="-183" font-family="Helvetica,sans-Serif" font-size="10.00">stdlib.h</text>
</a>
</g>
</g>
<!-- Node1&#45;&gt;Node26 -->
<g id="edge33_Node000001_Node000026" class="edge">
<title>Node1&#45;&gt;Node26</title>
<g id="a_edge33_Node000001_Node000026"><a xlink:title=" ">
<path fill="none" stroke="#63b8ff" d="M1038.2,-239.74C1144.75,-240.16 1504.03,-238.16 1809.43,-194.77"/>
<polygon fill="#63b8ff" stroke="#63b8ff" points="1809.96,-198.23 1819.36,-193.34 1808.97,-191.3 1809.96,-198.23"/>
</a>
</g>
</g>
<!-- Node3 -->
<g id="Node000003" class="node">
<title>Node3</title>
<g id="a_Node000003"><a xlink:title=" ">
<polygon fill="#e0e0e0" stroke="#999999" points="110,-140 0,-140 0,-121 110,-121 110,-140"/>
<text text-anchor="middle" x="55" y="-128" font-family="Helvetica,sans-Serif" font-size="10.00">SDL3/SDL_events.h</text>
</a>
</g>
</g>
<!-- Node2&#45;&gt;Node3 -->
<g id="edge2_Node000002_Node000003" class="edge">
<title>Node2&#45;&gt;Node3</title>
<g id="a_edge2_Node000002_Node000003"><a xlink:title=" ">
<path fill="none" stroke="#63b8ff" d="M55,-175.75C55,-168.8 55,-158.85 55,-150.13"/>
<polygon fill="#63b8ff" stroke="#63b8ff" points="58.5,-150.09 55,-140.09 51.5,-150.09 58.5,-150.09"/>
</a>
</g>
</g>
<!-- Node4&#45;&gt;Node5 -->
<g id="edge4_Node000004_Node000005" class="edge">
<title>Node4&#45;&gt;Node5</title>
<g id="a_edge4_Node000004_Node000005"><a xlink:title=" ">
<path fill="none" stroke="#63b8ff" d="M246.18,-175.75C244.74,-168.8 242.68,-158.85 240.87,-150.13"/>
<polygon fill="#63b8ff" stroke="#63b8ff" points="244.24,-149.17 238.78,-140.09 237.39,-150.59 244.24,-149.17"/>
</a>
</g>
</g>
<!-- Node4&#45;&gt;Node6 -->
<g id="edge5_Node000004_Node000006" class="edge">
<title>Node4&#45;&gt;Node6</title>
<g id="a_edge5_Node000004_Node000006"><a xlink:title=" ">
<path fill="none" stroke="#63b8ff" d="M266.32,-175.98C284.66,-167.46 313.11,-154.23 334.23,-144.41"/>
<polygon fill="#63b8ff" stroke="#63b8ff" points="335.76,-147.56 343.35,-140.17 332.81,-141.21 335.76,-147.56"/>
</a>
</g>
</g>
<!-- Node7&#45;&gt;Node5 -->
<g id="edge14_Node000007_Node000005" class="edge">
<title>Node7&#45;&gt;Node5</title>
<g id="a_edge14_Node000007_Node000005"><a xlink:title=" ">
<path fill="none" stroke="#63b8ff" d="M418.3,-175.98C381.25,-166.89 322.41,-152.46 281.87,-142.51"/>
<polygon fill="#63b8ff" stroke="#63b8ff" points="282.52,-139.07 271.98,-140.08 280.85,-145.86 282.52,-139.07"/>
</a>
</g>
</g>
<!-- Node7&#45;&gt;Node6 -->
<g id="edge15_Node000007_Node000006" class="edge">
<title>Node7&#45;&gt;Node6</title>
<g id="a_edge15_Node000007_Node000006"><a xlink:title=" ">
<path fill="none" stroke="#63b8ff" d="M438.38,-175.98C424.14,-167.69 402.25,-154.94 385.55,-145.22"/>
<polygon fill="#63b8ff" stroke="#63b8ff" points="387.29,-142.18 376.89,-140.17 383.77,-148.23 387.29,-142.18"/>
</a>
</g>
</g>
<!-- Node8 -->
<g id="Node000008" class="node">
<title>Node8</title>
<g id="a_Node000008"><a xlink:href="../../d4/db5/GameObject_8hpp.html" target="_top" xlink:title=" ">
<polygon fill="white" stroke="#666666" points="671,-140 573,-140 573,-121 671,-121 671,-140"/>
<text text-anchor="middle" x="622" y="-128" font-family="Helvetica,sans-Serif" font-size="10.00">GameObject.hpp</text>
</a>
</g>
</g>
<!-- Node7&#45;&gt;Node8 -->
<g id="edge7_Node000007_Node000008" class="edge">
<title>Node7&#45;&gt;Node8</title>
<g id="a_edge7_Node000007_Node000008"><a xlink:title=" ">
<path fill="none" stroke="#63b8ff" d="M480.15,-175.98C508.53,-167.09 553.23,-153.07 584.86,-143.15"/>
<polygon fill="#63b8ff" stroke="#63b8ff" points="586.14,-146.41 594.63,-140.08 584.05,-139.73 586.14,-146.41"/>
</a>
</g>
</g>
<!-- Node12 -->
<g id="Node000012" class="node">
<title>Node12</title>
<g id="a_Node000012"><a xlink:title=" ">
<polygon fill="#e0e0e0" stroke="#999999" points="432,-79.5 374,-79.5 374,-60.5 432,-60.5 432,-79.5"/>
<text text-anchor="middle" x="403" y="-67.5" font-family="Helvetica,sans-Serif" font-size="10.00">memory</text>
</a>
</g>
</g>
<!-- Node7&#45;&gt;Node12 -->
<g id="edge16_Node000007_Node000012" class="edge">
<title>Node7&#45;&gt;Node12</title>
<g id="a_edge16_Node000007_Node000012"><a xlink:title=" ">
<path fill="none" stroke="#63b8ff" d="M449.24,-175.97C441.13,-157.56 421.85,-113.79 410.92,-88.98"/>
<polygon fill="#63b8ff" stroke="#63b8ff" points="414.04,-87.37 406.8,-79.63 407.63,-90.19 414.04,-87.37"/>
</a>
</g>
</g>
<!-- Node9 -->
<g id="Node000009" class="node">
<title>Node9</title>
<g id="a_Node000009"><a xlink:href="../../d9/d4a/Vector2_8hpp.html" target="_top" xlink:title=" ">
<polygon fill="white" stroke="#666666" points="780,-79.5 706,-79.5 706,-60.5 780,-60.5 780,-79.5"/>
<text text-anchor="middle" x="743" y="-67.5" font-family="Helvetica,sans-Serif" font-size="10.00">Vector2.hpp</text>
</a>
</g>
</g>
<!-- Node8&#45;&gt;Node9 -->
<g id="edge8_Node000008_Node000009" class="edge">
<title>Node8&#45;&gt;Node9</title>
<g id="a_edge8_Node000008_Node000009"><a xlink:title=" ">
<path fill="none" stroke="#63b8ff" d="M639.59,-120.99C659.76,-111.25 693.02,-95.16 716.36,-83.88"/>
<polygon fill="#63b8ff" stroke="#63b8ff" points="717.9,-87.02 725.38,-79.52 714.86,-80.72 717.9,-87.02"/>
</a>
</g>
</g>
<!-- Node10 -->
<g id="Node000010" class="node">
<title>Node10</title>
<g id="a_Node000010"><a xlink:href="../../d4/d71/ComponentNotFoundException_8hpp.html" target="_top" xlink:title=" ">
<polygon fill="white" stroke="#666666" points="626,-85 450,-85 450,-55 626,-55 626,-85"/>
<text text-anchor="start" x="458" y="-73" font-family="Helvetica,sans-Serif" font-size="10.00">exceptions/ComponentNotFound</text>
<text text-anchor="middle" x="538" y="-62" font-family="Helvetica,sans-Serif" font-size="10.00">Exception.hpp</text>
</a>
</g>
</g>
<!-- Node8&#45;&gt;Node10 -->
<g id="edge9_Node000008_Node000010" class="edge">
<title>Node8&#45;&gt;Node10</title>
<g id="a_edge9_Node000008_Node000010"><a xlink:title=" ">
<path fill="none" stroke="#63b8ff" d="M609.61,-120.87C598.31,-113 581.21,-101.09 566.55,-90.89"/>
<polygon fill="#63b8ff" stroke="#63b8ff" points="568.47,-87.96 558.27,-85.11 564.47,-93.7 568.47,-87.96"/>
</a>
</g>
</g>
<!-- Node8&#45;&gt;Node12 -->
<g id="edge11_Node000008_Node000012" class="edge">
<title>Node8&#45;&gt;Node12</title>
<g id="a_edge11_Node000008_Node000012"><a xlink:title=" ">
<path fill="none" stroke="#63b8ff" d="M581.75,-120.96C544.83,-112.81 488.81,-99.63 441,-85 438.87,-84.35 436.68,-83.64 434.49,-82.91"/>
<polygon fill="#63b8ff" stroke="#63b8ff" points="435.56,-79.57 424.96,-79.56 433.24,-86.18 435.56,-79.57"/>
</a>
</g>
</g>
<!-- Node13 -->
<g id="Node000013" class="node">
<title>Node13</title>
<g id="a_Node000013"><a xlink:title=" ">
<polygon fill="#e0e0e0" stroke="#999999" points="688,-79.5 644,-79.5 644,-60.5 688,-60.5 688,-79.5"/>
<text text-anchor="middle" x="666" y="-67.5" font-family="Helvetica,sans-Serif" font-size="10.00">string</text>
</a>
</g>
</g>
<!-- Node8&#45;&gt;Node13 -->
<g id="edge12_Node000008_Node000013" class="edge">
<title>Node8&#45;&gt;Node13</title>
<g id="a_edge12_Node000008_Node000013"><a xlink:title=" ">
<path fill="none" stroke="#63b8ff" d="M628.49,-120.87C634.99,-112.23 645.16,-98.7 653.28,-87.92"/>
<polygon fill="#63b8ff" stroke="#63b8ff" points="656.27,-89.76 659.48,-79.67 650.67,-85.56 656.27,-89.76"/>
</a>
</g>
</g>
<!-- Node14 -->
<g id="Node000014" class="node">
<title>Node14</title>
<g id="a_Node000014"><a xlink:title=" ">
<polygon fill="#e0e0e0" stroke="#999999" points="845.5,-79.5 798.5,-79.5 798.5,-60.5 845.5,-60.5 845.5,-79.5"/>
<text text-anchor="middle" x="822" y="-67.5" font-family="Helvetica,sans-Serif" font-size="10.00">vector</text>
</a>
</g>
</g>
<!-- Node8&#45;&gt;Node14 -->
<g id="edge13_Node000008_Node000014" class="edge">
<title>Node8&#45;&gt;Node14</title>
<g id="a_edge13_Node000008_Node000014"><a xlink:title=" ">
<path fill="none" stroke="#63b8ff" d="M660.26,-120.93C694.41,-112.89 745.58,-99.91 789,-85 790.43,-84.51 791.9,-83.98 793.36,-83.43"/>
<polygon fill="#63b8ff" stroke="#63b8ff" points="794.99,-86.56 802.98,-79.61 792.4,-80.05 794.99,-86.56"/>
</a>
</g>
</g>
<!-- Node11 -->
<g id="Node000011" class="node">
<title>Node11</title>
<g id="a_Node000011"><a xlink:title=" ">
<polygon fill="#e0e0e0" stroke="#999999" points="570.5,-19 505.5,-19 505.5,0 570.5,0 570.5,-19"/>
<text text-anchor="middle" x="538" y="-7" font-family="Helvetica,sans-Serif" font-size="10.00">exception</text>
</a>
</g>
</g>
<!-- Node10&#45;&gt;Node11 -->
<g id="edge10_Node000010_Node000011" class="edge">
<title>Node10&#45;&gt;Node11</title>
<g id="a_edge10_Node000010_Node000011"><a xlink:title=" ">
<path fill="none" stroke="#63b8ff" d="M538,-54.84C538,-47.21 538,-37.7 538,-29.45"/>
<polygon fill="#63b8ff" stroke="#63b8ff" points="541.5,-29.27 538,-19.27 534.5,-29.27 541.5,-29.27"/>
</a>
</g>
</g>
<!-- Node15&#45;&gt;Node8 -->
<g id="edge18_Node000015_Node000008" class="edge">
<title>Node15&#45;&gt;Node8</title>
<g id="a_edge18_Node000015_Node000008"><a xlink:title=" ">
<path fill="none" stroke="#63b8ff" d="M622,-175.75C622,-168.8 622,-158.85 622,-150.13"/>
<polygon fill="#63b8ff" stroke="#63b8ff" points="625.5,-150.09 622,-140.09 618.5,-150.09 625.5,-150.09"/>
</a>
</g>
</g>
<!-- Node15&#45;&gt;Node12 -->
<g id="edge19_Node000015_Node000012" class="edge">
<title>Node15&#45;&gt;Node12</title>
<g id="a_edge19_Node000015_Node000012"><a xlink:title=" ">
<path fill="none" stroke="#63b8ff" d="M605.54,-175.97C567.65,-156.33 474.04,-107.82 428.58,-84.26"/>
<polygon fill="#63b8ff" stroke="#63b8ff" points="430.14,-81.12 419.65,-79.63 426.92,-87.34 430.14,-81.12"/>
</a>
</g>
</g>
<!-- Node15&#45;&gt;Node14 -->
<g id="edge20_Node000015_Node000014" class="edge">
<title>Node15&#45;&gt;Node14</title>
<g id="a_edge20_Node000015_Node000014"><a xlink:title=" ">
<path fill="none" stroke="#63b8ff" d="M637.03,-175.97C671.42,-156.46 756.06,-108.42 797.85,-84.71"/>
<polygon fill="#63b8ff" stroke="#63b8ff" points="799.82,-87.61 806.79,-79.63 796.37,-81.52 799.82,-87.61"/>
</a>
</g>
</g>
</g>
</svg>

<g id="navigator" transform="translate(0 0)" fill="#404254">
  <rect fill="#f2f5e9" fill-opacity="0.5" stroke="#606060" stroke-width=".5" x="0" y="0" width="60" height="60"/>
  <use id="zoomplus" xlink:href="#zoomPlus" x="17" y="9" onmousedown="handleZoom(evt,'in')"/>
  <use id="zoomminus" xlink:href="#zoomMin" x="42" y="9" onmousedown="handleZoom(evt,'out')"/>
  <use id="reset" xlink:href="#resetDef" x="30" y="36" onmousedown="handleReset()"/>
   <use id="arrowup" xlink:href="#arrowUp" x="0" y="0" onmousedown="handlePan(0,-1)"/>
  <use id="arrowright" xlink:href="#arrowRight" x="0" y="0" onmousedown="handlePan(1,0)"/>
  <use id="arrowdown" xlink:href="#arrowDown" x="0" y="0" onmousedown="handlePan(0,1)"/>
  <use id="arrowleft" xlink:href="#arrowLeft" x="0" y="0" onmousedown="handlePan(-1,0)"/>
</g>
<svg viewBox="0 0 15 15" width="100%" height="30px" preserveAspectRatio="xMaxYMin meet">
 <g id="arrow_out" transform="scale(0.3 0.3)">
  <a xlink:href="main_8cpp__incl_org.svg" target="_base">
   <rect id="button" ry="5" rx="5" y="6" x="6" height="38" width="38"
        fill="#f2f5e9" fill-opacity="0.5" stroke="#606060" stroke-width="1.0"/>
   <path id="arrow"
     d="M 11.500037,31.436501 C 11.940474,20.09759 22.043105,11.32322 32.158766,21.979434 L 37.068811,17.246167 C 37.068811,17.246167 37.088388,32 37.088388,32 L 22.160133,31.978069 C 22.160133,31.978069 26.997745,27.140456 26.997745,27.140456 C 18.528582,18.264221 13.291696,25.230495 11.500037,31.436501 z"
     style="fill:#404040;"/>
  </a>
 </g>
</svg>

<style type='text/css'>
<![CDATA[
[data-mouse-over-selected='false'] { opacity: 0.7; }
[data-mouse-over-selected='true']  { opacity: 1.0; }
]]>
</style>
<script type="application/ecmascript"><![CDATA[
document.addEventListener('DOMContentLoaded', (event) => {
  highlightEdges();
  highlightAdjacentNodes();
});
]]></script>
</svg>
