<?xml version="1.0" encoding="UTF-8" standalone="no"?>
<!DOCTYPE svg PUBLIC "-//W3C//DTD SVG 1.1//EN"
 "http://www.w3.org/Graphics/SVG/1.1/DTD/svg11.dtd">
<!-- Generated by graphviz version 2.43.0 (0)
 -->
<!-- Title: main.cpp Pages: 1 -->
<!--zoomable 258 -->

<svg id="main" version="1.1" xmlns="http://www.w3.org/2000/svg" xmlns:xlink="http://www.w3.org/1999/xlink" xml:space="preserve" onload="init(evt)">

<style type="text/css"><![CDATA[
.node, .edge {opacity: 0.7;}
.node.selected, .edge.selected {opacity: 1;}
.edge:hover path { stroke: red; }
.edge:hover polygon { stroke: red; fill: red; }
]]></style>

<defs>
  <circle id="rim" cx="0" cy="0" r="7"/>
  <circle id="rim2" cx="0" cy="0" r="3.5"/>
  <g id="zoomPlus">
    <use xlink:href="#rim" fill="#404040"><set attributeName="fill" to="#808080" begin="zoomplus.mouseover" end="zoomplus.mouseout"/></use>
    <path d="M-4,0h8M0,-4v8" fill="none" stroke="white" stroke-width="1.5" pointer-events="none"/>
  </g>
  <g id="zoomMin">
    <use xlink:href="#rim" fill="#404040"><set attributeName="fill" to="#808080" begin="zoomminus.mouseover" end="zoomminus.mouseout"/></use>
    <path d="M-4,0h8" fill="none" stroke="white" stroke-width="1.5" pointer-events="none"/>
  </g>
  <g id="arrowUp" transform="translate(30 24)">
    <use xlink:href="#rim"/>
    <path pointer-events="none" fill="none" stroke="white" stroke-width="1.5" d="M0,-3.0v7 M-2.5,-0.5L0,-3.0L2.5,-0.5"/>
  </g>
  <g id="arrowRight" transform="rotate(90) translate(36 -43)">
    <use xlink:href="#rim"/>
    <path pointer-events="none" fill="none" stroke="white" stroke-width="1.5" d="M0,-3.0v7 M-2.5,-0.5L0,-3.0L2.5,-0.5"/>
  </g>
  <g id="arrowDown" transform="rotate(180) translate(-30 -48)">
    <use xlink:href="#rim"/>
    <path pointer-events="none" fill="none" stroke="white" stroke-width="1.5" d="M0,-3.0v7 M-2.5,-0.5L0,-3.0L2.5,-0.5"/>
  </g>
  <g id="arrowLeft" transform="rotate(270) translate(-36 17)">
    <use xlink:href="#rim"/>
    <path pointer-events="none" fill="none" stroke="white" stroke-width="1.5" d="M0,-3.0v7 M-2.5,-0.5L0,-3.0L2.5,-0.5"/>
  </g>
  <g id="resetDef">
    <use xlink:href="#rim2" fill="#404040"><set attributeName="fill" to="#808080" begin="reset.mouseover" end="reset.mouseout"/></use>
  </g>
</defs>
<script type="application/ecmascript">
var viewWidth = 2050;
var viewHeight = 258;
var sectionId = 'dynsection-0';
</script>
<script type="application/ecmascript" xlink:href="../../svg.min.js"/>
<svg id="graph" class="graph">
<g id="viewport">
<title>main.cpp</title>
<!-- Node1 -->
<g id="Node000001" class="node">
<title>Node1</title>
<g id="a_Node000001"><a xlink:title=" ">
<polygon fill="#999999" stroke="#666666" points="1207.5,-250 1145.5,-250 1145.5,-231 1207.5,-231 1207.5,-250"/>
<text text-anchor="middle" x="1176.5" y="-238" font-family="Helvetica,sans-Serif" font-size="10.00">main.cpp</text>
</a>
</g>
</g>
<!-- Node2 -->
<g id="Node000002" class="node">
<title>Node2</title>
<g id="a_Node000002"><a xlink:href="../../d4/db4/EngineState_8hpp.html" target="_top" xlink:title=" ">
<polygon fill="white" stroke="#666666" points="490.5,-195 358.5,-195 358.5,-176 490.5,-176 490.5,-195"/>
<text text-anchor="middle" x="424.5" y="-183" font-family="Helvetica,sans-Serif" font-size="10.00">engine/EngineState.hpp</text>
</a>
</g>
</g>
<!-- Node1&#45;&gt;Node2 -->
<g id="edge1_Node000001_Node000002" class="edge">
<title>Node1&#45;&gt;Node2</title>
<g id="a_edge1_Node000001_Node000002"><a xlink:title=" ">
<path fill="none" stroke="#63b8ff" d="M1145.32,-237.88C1049.54,-232.8 751.17,-216.26 504.5,-195 503.39,-194.9 502.26,-194.81 501.14,-194.71"/>
<polygon fill="#63b8ff" stroke="#63b8ff" points="501.11,-191.19 490.83,-193.75 500.47,-198.16 501.11,-191.19"/>
</a>
</g>
</g>
<!-- Node10 -->
<g id="Node000010" class="node">
<title>Node10</title>
<g id="a_Node000010"><a xlink:title=" ">
<polygon fill="#e0e0e0" stroke="#999999" points="568.5,-140 462.5,-140 462.5,-121 568.5,-121 568.5,-140"/>
<text text-anchor="middle" x="515.5" y="-128" font-family="Helvetica,sans-Serif" font-size="10.00">SDL3/SDL_pixels.h</text>
</a>
</g>
</g>
<!-- Node1&#45;&gt;Node10 -->
<g id="edge25_Node000001_Node000010" class="edge">
<title>Node1&#45;&gt;Node10</title>
<g id="a_edge25_Node000001_Node000010"><a xlink:title=" ">
<path fill="none" stroke="#63b8ff" d="M1145.38,-239.34C1023.76,-238.45 584.93,-232.62 536.5,-195 522.91,-184.44 518.02,-164.82 516.31,-150.18"/>
<polygon fill="#63b8ff" stroke="#63b8ff" points="519.79,-149.87 515.53,-140.18 512.81,-150.42 519.79,-149.87"/>
</a>
</g>
</g>
<!-- Node11 -->
<g id="Node000011" class="node">
<title>Node11</title>
<g id="a_Node000011"><a xlink:title=" ">
<polygon fill="#e0e0e0" stroke="#999999" points="694.5,-140 586.5,-140 586.5,-121 694.5,-121 694.5,-140"/>
<text text-anchor="middle" x="640.5" y="-128" font-family="Helvetica,sans-Serif" font-size="10.00">SDL3/SDL_render.h</text>
</a>
</g>
</g>
<!-- Node1&#45;&gt;Node11 -->
<g id="edge27_Node000001_Node000011" class="edge">
<title>Node1&#45;&gt;Node11</title>
<g id="a_edge27_Node000001_Node000011"><a xlink:title=" ">
<path fill="none" stroke="#63b8ff" d="M1145.43,-240.14C1075.19,-240.74 899.42,-237.46 760.5,-195 750.5,-191.94 696.69,-162.6 664.62,-144.89"/>
<polygon fill="#63b8ff" stroke="#63b8ff" points="666.27,-141.8 655.82,-140.03 662.88,-147.93 666.27,-141.8"/>
</a>
</g>
</g>
<!-- Node12 -->
<g id="Node000012" class="node">
<title>Node12</title>
<g id="a_Node000012"><a xlink:href="../../d0/d4e/Events_8hpp.html" target="_top" xlink:title=" ">
<polygon fill="white" stroke="#666666" points="876,-195 769,-195 769,-176 876,-176 876,-195"/>
<text text-anchor="middle" x="822.5" y="-183" font-family="Helvetica,sans-Serif" font-size="10.00">engine/Events.hpp</text>
</a>
</g>
</g>
<!-- Node1&#45;&gt;Node12 -->
<g id="edge12_Node000001_Node000012" class="edge">
<title>Node1&#45;&gt;Node12</title>
<g id="a_edge12_Node000001_Node000012"><a xlink:title=" ">
<path fill="none" stroke="#63b8ff" d="M1145.4,-234.84C1087.59,-226.19 962.56,-207.47 886.16,-196.03"/>
<polygon fill="#63b8ff" stroke="#63b8ff" points="886.58,-192.55 876.17,-194.54 885.54,-199.48 886.58,-192.55"/>
</a>
</g>
</g>
<!-- Node14 -->
<g id="Node000014" class="node">
<title>Node14</title>
<g id="a_Node000014"><a xlink:href="../../d7/dd0/GameManagement_8hpp.html" target="_top" xlink:title=" ">
<polygon fill="white" stroke="#666666" points="713,-195 546,-195 546,-176 713,-176 713,-195"/>
<text text-anchor="middle" x="629.5" y="-183" font-family="Helvetica,sans-Serif" font-size="10.00">engine/GameManagement.hpp</text>
</a>
</g>
</g>
<!-- Node1&#45;&gt;Node14 -->
<g id="edge14_Node000001_Node000014" class="edge">
<title>Node1&#45;&gt;Node14</title>
<g id="a_edge14_Node000001_Node000014"><a xlink:title=" ">
<path fill="none" stroke="#63b8ff" d="M1145.13,-236.46C1064.67,-228.66 848.55,-207.72 723.12,-195.57"/>
<polygon fill="#63b8ff" stroke="#63b8ff" points="723.42,-192.08 713.13,-194.6 722.75,-199.05 723.42,-192.08"/>
</a>
</g>
</g>
<!-- Node15 -->
<g id="Node000015" class="node">
<title>Node15</title>
<g id="a_Node000015"><a xlink:href="../../d3/dfc/ObjectManagement_8hpp.html" target="_top" xlink:title=" ">
<polygon fill="white" stroke="#666666" points="340.5,-195 170.5,-195 170.5,-176 340.5,-176 340.5,-195"/>
<text text-anchor="middle" x="255.5" y="-183" font-family="Helvetica,sans-Serif" font-size="10.00">engine/ObjectManagement.hpp</text>
</a>
</g>
</g>
<!-- Node1&#45;&gt;Node15 -->
<g id="edge17_Node000001_Node000015" class="edge">
<title>Node1&#45;&gt;Node15</title>
<g id="a_edge17_Node000001_Node000015"><a xlink:title=" ">
<path fill="none" stroke="#63b8ff" d="M1145.31,-238.23C1037.1,-233.75 667.68,-217.71 350.85,-195.07"/>
<polygon fill="#63b8ff" stroke="#63b8ff" points="350.77,-191.56 340.54,-194.33 350.27,-198.54 350.77,-191.56"/>
</a>
</g>
</g>
<!-- Node16 -->
<g id="Node000016" class="node">
<title>Node16</title>
<g id="a_Node000016"><a xlink:href="../../d9/de7/Time_8hpp.html" target="_top" xlink:title=" ">
<polygon fill="white" stroke="#666666" points="992.5,-195 894.5,-195 894.5,-176 992.5,-176 992.5,-195"/>
<text text-anchor="middle" x="943.5" y="-183" font-family="Helvetica,sans-Serif" font-size="10.00">engine/Time.hpp</text>
</a>
</g>
</g>
<!-- Node1&#45;&gt;Node16 -->
<g id="edge21_Node000001_Node000016" class="edge">
<title>Node1&#45;&gt;Node16</title>
<g id="a_edge21_Node000001_Node000016"><a xlink:title=" ">
<path fill="none" stroke="#63b8ff" d="M1145.08,-232.35C1105.47,-223.34 1037,-207.77 990.99,-197.3"/>
<polygon fill="#63b8ff" stroke="#63b8ff" points="991.49,-193.83 980.96,-195.02 989.94,-200.65 991.49,-193.83"/>
</a>
</g>
</g>
<!-- Node17 -->
<g id="Node000017" class="node">
<title>Node17</title>
<g id="a_Node000017"><a xlink:href="../../d3/d67/Lifecycle_8hpp.html" target="_top" xlink:title=" ">
<polygon fill="white" stroke="#666666" points="1122.5,-195 1010.5,-195 1010.5,-176 1122.5,-176 1122.5,-195"/>
<text text-anchor="middle" x="1066.5" y="-183" font-family="Helvetica,sans-Serif" font-size="10.00">game/Lifecycle.hpp</text>
</a>
</g>
</g>
<!-- Node1&#45;&gt;Node17 -->
<g id="edge22_Node000001_Node000017" class="edge">
<title>Node1&#45;&gt;Node17</title>
<g id="a_edge22_Node000001_Node000017"><a xlink:title=" ">
<path fill="none" stroke="#63b8ff" d="M1158.83,-230.98C1141.21,-222.5 1113.92,-209.35 1093.57,-199.54"/>
<polygon fill="#63b8ff" stroke="#63b8ff" points="1095.02,-196.36 1084.49,-195.17 1091.98,-202.66 1095.02,-196.36"/>
</a>
</g>
</g>
<!-- Node18 -->
<g id="Node000018" class="node">
<title>Node18</title>
<g id="a_Node000018"><a xlink:title=" ">
<polygon fill="#e0e0e0" stroke="#999999" points="1212.5,-195 1140.5,-195 1140.5,-176 1212.5,-176 1212.5,-195"/>
<text text-anchor="middle" x="1176.5" y="-183" font-family="Helvetica,sans-Serif" font-size="10.00">SDL3/SDL.h</text>
</a>
</g>
</g>
<!-- Node1&#45;&gt;Node18 -->
<g id="edge23_Node000001_Node000018" class="edge">
<title>Node1&#45;&gt;Node18</title>
<g id="a_edge23_Node000001_Node000018"><a xlink:title=" ">
<path fill="none" stroke="#63b8ff" d="M1176.5,-230.75C1176.5,-223.8 1176.5,-213.85 1176.5,-205.13"/>
<polygon fill="#63b8ff" stroke="#63b8ff" points="1180,-205.09 1176.5,-195.09 1173,-205.09 1180,-205.09"/>
</a>
</g>
</g>
<!-- Node19 -->
<g id="Node000019" class="node">
<title>Node19</title>
<g id="a_Node000019"><a xlink:title=" ">
<polygon fill="#e0e0e0" stroke="#999999" points="1332.5,-195 1230.5,-195 1230.5,-176 1332.5,-176 1332.5,-195"/>
<text text-anchor="middle" x="1281.5" y="-183" font-family="Helvetica,sans-Serif" font-size="10.00">SDL3/SDL_main.h</text>
</a>
</g>
</g>
<!-- Node1&#45;&gt;Node19 -->
<g id="edge24_Node000001_Node000019" class="edge">
<title>Node1&#45;&gt;Node19</title>
<g id="a_edge24_Node000001_Node000019"><a xlink:title=" ">
<path fill="none" stroke="#63b8ff" d="M1193.37,-230.98C1210.11,-222.54 1236,-209.47 1255.39,-199.68"/>
<polygon fill="#63b8ff" stroke="#63b8ff" points="1256.97,-202.8 1264.32,-195.17 1253.82,-196.55 1256.97,-202.8"/>
</a>
</g>
</g>
<!-- Node20 -->
<g id="Node000020" class="node">
<title>Node20</title>
<g id="a_Node000020"><a xlink:title=" ">
<polygon fill="#e0e0e0" stroke="#999999" points="1446.5,-195 1350.5,-195 1350.5,-176 1446.5,-176 1446.5,-195"/>
<text text-anchor="middle" x="1398.5" y="-183" font-family="Helvetica,sans-Serif" font-size="10.00">SDL3/SDL_rect.h</text>
</a>
</g>
</g>
<!-- Node1&#45;&gt;Node20 -->
<g id="edge26_Node000001_Node000020" class="edge">
<title>Node1&#45;&gt;Node20</title>
<g id="a_edge26_Node000001_Node000020"><a xlink:title=" ">
<path fill="none" stroke="#63b8ff" d="M1207.84,-232.02C1245.57,-223.01 1309.26,-207.81 1352.55,-197.47"/>
<polygon fill="#63b8ff" stroke="#63b8ff" points="1353.63,-200.81 1362.54,-195.08 1352,-194 1353.63,-200.81"/>
</a>
</g>
</g>
<!-- Node21 -->
<g id="Node000021" class="node">
<title>Node21</title>
<g id="a_Node000021"><a xlink:title=" ">
<polygon fill="#e0e0e0" stroke="#999999" points="1578,-195 1465,-195 1465,-176 1578,-176 1578,-195"/>
<text text-anchor="middle" x="1521.5" y="-183" font-family="Helvetica,sans-Serif" font-size="10.00">SDL3/SDL_surface.h</text>
</a>
</g>
</g>
<!-- Node1&#45;&gt;Node21 -->
<g id="edge28_Node000001_Node000021" class="edge">
<title>Node1&#45;&gt;Node21</title>
<g id="a_edge28_Node000001_Node000021"><a xlink:title=" ">
<path fill="none" stroke="#63b8ff" d="M1207.72,-234.7C1263.57,-226.12 1381.64,-207.99 1455.96,-196.57"/>
<polygon fill="#63b8ff" stroke="#63b8ff" points="1456.79,-199.98 1466.14,-195 1455.73,-193.06 1456.79,-199.98"/>
</a>
</g>
</g>
<!-- Node22 -->
<g id="Node000022" class="node">
<title>Node22</title>
<g id="a_Node000022"><a xlink:title=" ">
<polygon fill="#e0e0e0" stroke="#999999" points="1700.5,-195 1596.5,-195 1596.5,-176 1700.5,-176 1700.5,-195"/>
<text text-anchor="middle" x="1648.5" y="-183" font-family="Helvetica,sans-Serif" font-size="10.00">SDL3/SDL_video.h</text>
</a>
</g>
</g>
<!-- Node1&#45;&gt;Node22 -->
<g id="edge29_Node000001_Node000022" class="edge">
<title>Node1&#45;&gt;Node22</title>
<g id="a_edge29_Node000001_Node000022"><a xlink:title=" ">
<path fill="none" stroke="#63b8ff" d="M1207.73,-236.45C1274.91,-229.81 1438.37,-213.29 1586.11,-195.14"/>
<polygon fill="#63b8ff" stroke="#63b8ff" points="1586.77,-198.58 1596.27,-193.88 1585.92,-191.64 1586.77,-198.58"/>
</a>
</g>
</g>
<!-- Node23 -->
<g id="Node000023" class="node">
<title>Node23</title>
<g id="a_Node000023"><a xlink:title=" ">
<polygon fill="#e0e0e0" stroke="#999999" points="1822.5,-195 1718.5,-195 1718.5,-176 1822.5,-176 1822.5,-195"/>
<text text-anchor="middle" x="1770.5" y="-183" font-family="Helvetica,sans-Serif" font-size="10.00">SDL3_ttf/SDL_ttf.h</text>
</a>
</g>
</g>
<!-- Node1&#45;&gt;Node23 -->
<g id="edge30_Node000001_Node000023" class="edge">
<title>Node1&#45;&gt;Node23</title>
<g id="a_edge30_Node000001_Node000023"><a xlink:title=" ">
<path fill="none" stroke="#63b8ff" d="M1207.8,-237.49C1288.7,-232.17 1511.6,-216.71 1708.06,-195.1"/>
<polygon fill="#63b8ff" stroke="#63b8ff" points="1708.73,-198.55 1718.28,-193.97 1707.96,-191.59 1708.73,-198.55"/>
</a>
</g>
</g>
<!-- Node24 -->
<g id="Node000024" class="node">
<title>Node24</title>
<g id="a_Node000024"><a xlink:title=" ">
<polygon fill="#e0e0e0" stroke="#999999" points="1890,-195 1841,-195 1841,-176 1890,-176 1890,-195"/>
<text text-anchor="middle" x="1865.5" y="-183" font-family="Helvetica,sans-Serif" font-size="10.00">cstdlib</text>
</a>
</g>
</g>
<!-- Node1&#45;&gt;Node24 -->
<g id="edge31_Node000001_Node000024" class="edge">
<title>Node1&#45;&gt;Node24</title>
<g id="a_edge31_Node000001_Node000024"><a xlink:title=" ">
<path fill="none" stroke="#63b8ff" d="M1207.74,-239.33C1301.04,-238.43 1585.73,-232.67 1830.56,-194.83"/>
<polygon fill="#63b8ff" stroke="#63b8ff" points="1831.38,-198.24 1840.72,-193.23 1830.3,-191.32 1831.38,-198.24"/>
</a>
</g>
</g>
<!-- Node25 -->
<g id="Node000025" class="node">
<title>Node25</title>
<g id="a_Node000025"><a xlink:title=" ">
<polygon fill="#e0e0e0" stroke="#999999" points="1970.5,-195 1908.5,-195 1908.5,-176 1970.5,-176 1970.5,-195"/>
<text text-anchor="middle" x="1939.5" y="-183" font-family="Helvetica,sans-Serif" font-size="10.00">stdbool.h</text>
</a>
</g>
</g>
<!-- Node1&#45;&gt;Node25 -->
<g id="edge32_Node000001_Node000025" class="edge">
<title>Node1&#45;&gt;Node25</title>
<g id="a_edge32_Node000001_Node000025"><a xlink:title=" ">
<path fill="none" stroke="#63b8ff" d="M1207.67,-239.23C1307.07,-238 1625.56,-231.41 1898.05,-194.99"/>
<polygon fill="#63b8ff" stroke="#63b8ff" points="1898.69,-198.43 1908.13,-193.62 1897.75,-191.5 1898.69,-198.43"/>
</a>
</g>
</g>
<!-- Node26 -->
<g id="Node000026" class="node">
<title>Node26</title>
<g id="a_Node000026"><a xlink:title=" ">
<polygon fill="#e0e0e0" stroke="#999999" points="2042,-195 1989,-195 1989,-176 2042,-176 2042,-195"/>
<text text-anchor="middle" x="2015.5" y="-183" font-family="Helvetica,sans-Serif" font-size="10.00">stdlib.h</text>
</a>
</g>
</g>
<!-- Node1&#45;&gt;Node26 -->
<g id="edge33_Node000001_Node000026" class="edge">
<title>Node1&#45;&gt;Node26</title>
<g id="a_edge33_Node000001_Node000026"><a xlink:title=" ">
<path fill="none" stroke="#63b8ff" d="M1207.7,-239.74C1314.25,-240.16 1673.53,-238.16 1978.93,-194.77"/>
<polygon fill="#63b8ff" stroke="#63b8ff" points="1979.46,-198.23 1988.86,-193.34 1978.47,-191.3 1979.46,-198.23"/>
</a>
</g>
</g>
<!-- Node3 -->
<g id="Node000003" class="node">
<title>Node3</title>
<g id="a_Node000003"><a xlink:href="../../d4/db5/GameObject_8hpp.html" target="_top" xlink:title=" ">
<polygon fill="white" stroke="#666666" points="304.5,-140 206.5,-140 206.5,-121 304.5,-121 304.5,-140"/>
<text text-anchor="middle" x="255.5" y="-128" font-family="Helvetica,sans-Serif" font-size="10.00">GameObject.hpp</text>
</a>
</g>
</g>
<!-- Node2&#45;&gt;Node3 -->
<g id="edge2_Node000002_Node000003" class="edge">
<title>Node2&#45;&gt;Node3</title>
<g id="a_edge2_Node000002_Node000003"><a xlink:title=" ">
<path fill="none" stroke="#63b8ff" d="M397.35,-175.98C368.97,-167.09 324.27,-153.07 292.64,-143.15"/>
<polygon fill="#63b8ff" stroke="#63b8ff" points="293.45,-139.73 282.87,-140.08 291.36,-146.41 293.45,-139.73"/>
</a>
</g>
</g>
<!-- Node7 -->
<g id="Node000007" class="node">
<title>Node7</title>
<g id="a_Node000007"><a xlink:title=" ">
<polygon fill="#e0e0e0" stroke="#999999" points="471.5,-79.5 413.5,-79.5 413.5,-60.5 471.5,-60.5 471.5,-79.5"/>
<text text-anchor="middle" x="442.5" y="-67.5" font-family="Helvetica,sans-Serif" font-size="10.00">memory</text>
</a>
</g>
</g>
<!-- Node2&#45;&gt;Node7 -->
<g id="edge11_Node000002_Node000007" class="edge">
<title>Node2&#45;&gt;Node7</title>
<g id="a_edge11_Node000002_Node000007"><a xlink:title=" ">
<path fill="none" stroke="#63b8ff" d="M425.85,-175.97C428.75,-157.73 435.59,-114.57 439.54,-89.64"/>
<polygon fill="#63b8ff" stroke="#63b8ff" points="443.02,-90.05 441.13,-79.63 436.11,-88.96 443.02,-90.05"/>
</a>
</g>
</g>
<!-- Node2&#45;&gt;Node10 -->
<g id="edge9_Node000002_Node000010" class="edge">
<title>Node2&#45;&gt;Node10</title>
<g id="a_edge9_Node000002_Node000010"><a xlink:title=" ">
<path fill="none" stroke="#63b8ff" d="M439.12,-175.98C453.36,-167.69 475.25,-154.94 491.95,-145.22"/>
<polygon fill="#63b8ff" stroke="#63b8ff" points="493.73,-148.23 500.61,-140.17 490.21,-142.18 493.73,-148.23"/>
</a>
</g>
</g>
<!-- Node2&#45;&gt;Node11 -->
<g id="edge10_Node000002_Node000011" class="edge">
<title>Node2&#45;&gt;Node11</title>
<g id="a_edge10_Node000002_Node000011"><a xlink:title=" ">
<path fill="none" stroke="#63b8ff" d="M459.2,-175.98C496.25,-166.89 555.09,-152.46 595.63,-142.51"/>
<polygon fill="#63b8ff" stroke="#63b8ff" points="596.65,-145.86 605.52,-140.08 594.98,-139.07 596.65,-145.86"/>
</a>
</g>
</g>
<!-- Node4 -->
<g id="Node000004" class="node">
<title>Node4</title>
<g id="a_Node000004"><a xlink:href="../../d9/d4a/Vector2_8hpp.html" target="_top" xlink:title=" ">
<polygon fill="white" stroke="#666666" points="139.5,-79.5 65.5,-79.5 65.5,-60.5 139.5,-60.5 139.5,-79.5"/>
<text text-anchor="middle" x="102.5" y="-67.5" font-family="Helvetica,sans-Serif" font-size="10.00">Vector2.hpp</text>
</a>
</g>
</g>
<!-- Node3&#45;&gt;Node4 -->
<g id="edge3_Node000003_Node000004" class="edge">
<title>Node3&#45;&gt;Node4</title>
<g id="a_edge3_Node000003_Node000004"><a xlink:title=" ">
<path fill="none" stroke="#63b8ff" d="M233.25,-120.99C207.19,-111.03 163.82,-94.45 134.23,-83.13"/>
<polygon fill="#63b8ff" stroke="#63b8ff" points="135.36,-79.82 124.77,-79.52 132.86,-86.36 135.36,-79.82"/>
</a>
</g>
</g>
<!-- Node5 -->
<g id="Node000005" class="node">
<title>Node5</title>
<g id="a_Node000005"><a xlink:href="../../d4/d71/ComponentNotFoundException_8hpp.html" target="_top" xlink:title=" ">
<polygon fill="white" stroke="#666666" points="333.5,-85 157.5,-85 157.5,-55 333.5,-55 333.5,-85"/>
<text text-anchor="start" x="165.5" y="-73" font-family="Helvetica,sans-Serif" font-size="10.00">exceptions/ComponentNotFound</text>
<text text-anchor="middle" x="245.5" y="-62" font-family="Helvetica,sans-Serif" font-size="10.00">Exception.hpp</text>
</a>
</g>
</g>
<!-- Node3&#45;&gt;Node5 -->
<g id="edge4_Node000003_Node000005" class="edge">
<title>Node3&#45;&gt;Node5</title>
<g id="a_edge4_Node000003_Node000005"><a xlink:title=" ">
<path fill="none" stroke="#63b8ff" d="M254.02,-120.87C252.87,-114.11 251.2,-104.35 249.65,-95.26"/>
<polygon fill="#63b8ff" stroke="#63b8ff" points="253.05,-94.38 247.91,-85.11 246.15,-95.56 253.05,-94.38"/>
</a>
</g>
</g>
<!-- Node3&#45;&gt;Node7 -->
<g id="edge6_Node000003_Node000007" class="edge">
<title>Node3&#45;&gt;Node7</title>
<g id="a_edge6_Node000003_Node000007"><a xlink:title=" ">
<path fill="none" stroke="#63b8ff" d="M286.21,-120.94C316.46,-112.36 363.9,-98.53 404.5,-85 406.4,-84.37 408.35,-83.7 410.31,-83.02"/>
<polygon fill="#63b8ff" stroke="#63b8ff" points="411.84,-86.19 420.08,-79.53 409.48,-79.6 411.84,-86.19"/>
</a>
</g>
</g>
<!-- Node8 -->
<g id="Node000008" class="node">
<title>Node8</title>
<g id="a_Node000008"><a xlink:title=" ">
<polygon fill="#e0e0e0" stroke="#999999" points="395.5,-79.5 351.5,-79.5 351.5,-60.5 395.5,-60.5 395.5,-79.5"/>
<text text-anchor="middle" x="373.5" y="-67.5" font-family="Helvetica,sans-Serif" font-size="10.00">string</text>
</a>
</g>
</g>
<!-- Node3&#45;&gt;Node8 -->
<g id="edge7_Node000003_Node000008" class="edge">
<title>Node3&#45;&gt;Node8</title>
<g id="a_edge7_Node000003_Node000008"><a xlink:title=" ">
<path fill="none" stroke="#63b8ff" d="M272.66,-120.99C292.23,-111.29 324.47,-95.31 347.22,-84.03"/>
<polygon fill="#63b8ff" stroke="#63b8ff" points="348.92,-87.09 356.32,-79.52 345.81,-80.82 348.92,-87.09"/>
</a>
</g>
</g>
<!-- Node9 -->
<g id="Node000009" class="node">
<title>Node9</title>
<g id="a_Node000009"><a xlink:title=" ">
<polygon fill="#e0e0e0" stroke="#999999" points="47,-79.5 0,-79.5 0,-60.5 47,-60.5 47,-79.5"/>
<text text-anchor="middle" x="23.5" y="-67.5" font-family="Helvetica,sans-Serif" font-size="10.00">vector</text>
</a>
</g>
</g>
<!-- Node3&#45;&gt;Node9 -->
<g id="edge8_Node000003_Node000009" class="edge">
<title>Node3&#45;&gt;Node9</title>
<g id="a_edge8_Node000003_Node000009"><a xlink:title=" ">
<path fill="none" stroke="#63b8ff" d="M206.18,-121.05C165.5,-113.47 106.56,-101.07 56.5,-85 54.87,-84.48 53.21,-83.9 51.54,-83.3"/>
<polygon fill="#63b8ff" stroke="#63b8ff" points="52.71,-80 42.12,-79.6 50.15,-86.51 52.71,-80"/>
</a>
</g>
</g>
<!-- Node6 -->
<g id="Node000006" class="node">
<title>Node6</title>
<g id="a_Node000006"><a xlink:title=" ">
<polygon fill="#e0e0e0" stroke="#999999" points="278,-19 213,-19 213,0 278,0 278,-19"/>
<text text-anchor="middle" x="245.5" y="-7" font-family="Helvetica,sans-Serif" font-size="10.00">exception</text>
</a>
</g>
</g>
<!-- Node5&#45;&gt;Node6 -->
<g id="edge5_Node000005_Node000006" class="edge">
<title>Node5&#45;&gt;Node6</title>
<g id="a_edge5_Node000005_Node000006"><a xlink:title=" ">
<path fill="none" stroke="#63b8ff" d="M245.5,-54.84C245.5,-47.21 245.5,-37.7 245.5,-29.45"/>
<polygon fill="#63b8ff" stroke="#63b8ff" points="249,-29.27 245.5,-19.27 242,-29.27 249,-29.27"/>
</a>
</g>
</g>
<!-- Node13 -->
<g id="Node000013" class="node">
<title>Node13</title>
<g id="a_Node000013"><a xlink:title=" ">
<polygon fill="#e0e0e0" stroke="#999999" points="877.5,-140 767.5,-140 767.5,-121 877.5,-121 877.5,-140"/>
<text text-anchor="middle" x="822.5" y="-128" font-family="Helvetica,sans-Serif" font-size="10.00">SDL3/SDL_events.h</text>
</a>
</g>
</g>
<!-- Node12&#45;&gt;Node13 -->
<g id="edge13_Node000012_Node000013" class="edge">
<title>Node12&#45;&gt;Node13</title>
<g id="a_edge13_Node000012_Node000013"><a xlink:title=" ">
<path fill="none" stroke="#63b8ff" d="M822.5,-175.75C822.5,-168.8 822.5,-158.85 822.5,-150.13"/>
<polygon fill="#63b8ff" stroke="#63b8ff" points="826,-150.09 822.5,-140.09 819,-150.09 826,-150.09"/>
</a>
</g>
</g>
<!-- Node14&#45;&gt;Node10 -->
<g id="edge15_Node000014_Node000010" class="edge">
<title>Node14&#45;&gt;Node10</title>
<g id="a_edge15_Node000014_Node000010"><a xlink:title=" ">
<path fill="none" stroke="#63b8ff" d="M611.18,-175.98C592.84,-167.46 564.39,-154.23 543.27,-144.41"/>
<polygon fill="#63b8ff" stroke="#63b8ff" points="544.69,-141.21 534.15,-140.17 541.74,-147.56 544.69,-141.21"/>
</a>
</g>
</g>
<!-- Node14&#45;&gt;Node11 -->
<g id="edge16_Node000014_Node000011" class="edge">
<title>Node14&#45;&gt;Node11</title>
<g id="a_edge16_Node000014_Node000011"><a xlink:title=" ">
<path fill="none" stroke="#63b8ff" d="M631.32,-175.75C632.76,-168.8 634.82,-158.85 636.63,-150.13"/>
<polygon fill="#63b8ff" stroke="#63b8ff" points="640.11,-150.59 638.72,-140.09 633.26,-149.17 640.11,-150.59"/>
</a>
</g>
</g>
<!-- Node15&#45;&gt;Node3 -->
<g id="edge18_Node000015_Node000003" class="edge">
<title>Node15&#45;&gt;Node3</title>
<g id="a_edge18_Node000015_Node000003"><a xlink:title=" ">
<path fill="none" stroke="#63b8ff" d="M255.5,-175.75C255.5,-168.8 255.5,-158.85 255.5,-150.13"/>
<polygon fill="#63b8ff" stroke="#63b8ff" points="259,-150.09 255.5,-140.09 252,-150.09 259,-150.09"/>
</a>
</g>
</g>
<!-- Node15&#45;&gt;Node7 -->
<g id="edge19_Node000015_Node000007" class="edge">
<title>Node15&#45;&gt;Node7</title>
<g id="a_edge19_Node000015_Node000007"><a xlink:title=" ">
<path fill="none" stroke="#63b8ff" d="M269.56,-175.97C301.64,-156.5 380.51,-108.63 419.67,-84.86"/>
<polygon fill="#63b8ff" stroke="#63b8ff" points="421.55,-87.81 428.28,-79.63 417.92,-81.83 421.55,-87.81"/>
</a>
</g>
</g>
<!-- Node15&#45;&gt;Node9 -->
<g id="edge20_Node000015_Node000009" class="edge">
<title>Node15&#45;&gt;Node9</title>
<g id="a_edge20_Node000015_Node000009"><a xlink:title=" ">
<path fill="none" stroke="#63b8ff" d="M238.06,-175.97C197.84,-156.29 98.34,-107.61 50.3,-84.11"/>
<polygon fill="#63b8ff" stroke="#63b8ff" points="51.66,-80.88 41.14,-79.63 48.58,-87.17 51.66,-80.88"/>
</a>
</g>
</g>
</g>
</svg>

<g id="navigator" transform="translate(0 0)" fill="#404254">
  <rect fill="#f2f5e9" fill-opacity="0.5" stroke="#606060" stroke-width=".5" x="0" y="0" width="60" height="60"/>
  <use id="zoomplus" xlink:href="#zoomPlus" x="17" y="9" onmousedown="handleZoom(evt,'in')"/>
  <use id="zoomminus" xlink:href="#zoomMin" x="42" y="9" onmousedown="handleZoom(evt,'out')"/>
  <use id="reset" xlink:href="#resetDef" x="30" y="36" onmousedown="handleReset()"/>
   <use id="arrowup" xlink:href="#arrowUp" x="0" y="0" onmousedown="handlePan(0,-1)"/>
  <use id="arrowright" xlink:href="#arrowRight" x="0" y="0" onmousedown="handlePan(1,0)"/>
  <use id="arrowdown" xlink:href="#arrowDown" x="0" y="0" onmousedown="handlePan(0,1)"/>
  <use id="arrowleft" xlink:href="#arrowLeft" x="0" y="0" onmousedown="handlePan(-1,0)"/>
</g>
<svg viewBox="0 0 15 15" width="100%" height="30px" preserveAspectRatio="xMaxYMin meet">
 <g id="arrow_out" transform="scale(0.3 0.3)">
  <a xlink:href="main_8cpp__incl_org.svg" target="_base">
   <rect id="button" ry="5" rx="5" y="6" x="6" height="38" width="38"
        fill="#f2f5e9" fill-opacity="0.5" stroke="#606060" stroke-width="1.0"/>
   <path id="arrow"
     d="M 11.500037,31.436501 C 11.940474,20.09759 22.043105,11.32322 32.158766,21.979434 L 37.068811,17.246167 C 37.068811,17.246167 37.088388,32 37.088388,32 L 22.160133,31.978069 C 22.160133,31.978069 26.997745,27.140456 26.997745,27.140456 C 18.528582,18.264221 13.291696,25.230495 11.500037,31.436501 z"
     style="fill:#404040;"/>
  </a>
 </g>
</svg>

<style type='text/css'>
<![CDATA[
[data-mouse-over-selected='false'] { opacity: 0.7; }
[data-mouse-over-selected='true']  { opacity: 1.0; }
]]>
</style>
<script type="application/ecmascript"><![CDATA[
document.addEventListener('DOMContentLoaded', (event) => {
  highlightEdges();
  highlightAdjacentNodes();
});
]]></script>
</svg>
