<?xml version="1.0" encoding="UTF-8" standalone="no"?>
<!DOCTYPE svg PUBLIC "-//W3C//DTD SVG 1.1//EN"
 "http://www.w3.org/Graphics/SVG/1.1/DTD/svg11.dtd">
<!-- Generated by graphviz version 2.43.0 (0)
 -->
<!-- Title: main.cpp Pages: 1 -->
<svg width="1741pt" height="258pt"
 viewBox="0.00 0.00 1740.50 258.00" xmlns="http://www.w3.org/2000/svg" xmlns:xlink="http://www.w3.org/1999/xlink">
<g id="graph0" class="graph" transform="scale(1 1) rotate(0) translate(4 254)">
<title>main.cpp</title>
<!-- Node1 -->
<g id="Node000001" class="node">
<title>Node1</title>
<g id="a_Node000001"><a xlink:title=" ">
<polygon fill="#999999" stroke="#666666" points="1003,-250 941,-250 941,-231 1003,-231 1003,-250"/>
<text text-anchor="middle" x="972" y="-238" font-family="Helvetica,sans-Serif" font-size="10.00">main.cpp</text>
</a>
</g>
</g>
<!-- Node2 -->
<g id="Node000002" class="node">
<title>Node2</title>
<g id="a_Node000002"><a xlink:href="../../d0/d4e/Events_8hpp.html" target="_top" xlink:title=" ">
<polygon fill="white" stroke="#666666" points="280.5,-195 173.5,-195 173.5,-176 280.5,-176 280.5,-195"/>
<text text-anchor="middle" x="227" y="-183" font-family="Helvetica,sans-Serif" font-size="10.00">engine/Events.hpp</text>
</a>
</g>
</g>
<!-- Node1&#45;&gt;Node2 -->
<g id="edge1_Node000001_Node000002" class="edge">
<title>Node1&#45;&gt;Node2</title>
<g id="a_edge1_Node000001_Node000002"><a xlink:title=" ">
<path fill="none" stroke="#63b8ff" d="M940.86,-237.71C846.53,-232.21 555.7,-214.77 315,-195 307.26,-194.36 299.13,-193.65 291.08,-192.91"/>
<polygon fill="#63b8ff" stroke="#63b8ff" points="291.25,-189.41 280.96,-191.96 290.59,-196.38 291.25,-189.41"/>
</a>
</g>
</g>
<!-- Node4 -->
<g id="Node000004" class="node">
<title>Node4</title>
<g id="a_Node000004"><a xlink:href="../../d7/dd0/GameManagement_8hpp.html" target="_top" xlink:title=" ">
<polygon fill="white" stroke="#666666" points="491.5,-195 324.5,-195 324.5,-176 491.5,-176 491.5,-195"/>
<text text-anchor="middle" x="408" y="-183" font-family="Helvetica,sans-Serif" font-size="10.00">engine/GameManagement.hpp</text>
</a>
</g>
</g>
<!-- Node1&#45;&gt;Node4 -->
<g id="edge3_Node000001_Node000004" class="edge">
<title>Node1&#45;&gt;Node4</title>
<g id="a_edge3_Node000001_Node000004"><a xlink:title=" ">
<path fill="none" stroke="#63b8ff" d="M940.87,-236.57C858.36,-228.82 631.47,-207.5 501.92,-195.33"/>
<polygon fill="#63b8ff" stroke="#63b8ff" points="501.9,-191.81 491.62,-194.36 501.24,-198.78 501.9,-191.81"/>
</a>
</g>
</g>
<!-- Node12 -->
<g id="Node000012" class="node">
<title>Node12</title>
<g id="a_Node000012"><a xlink:title=" ">
<polygon fill="#e0e0e0" stroke="#999999" points="557,-140 451,-140 451,-121 557,-121 557,-140"/>
<text text-anchor="middle" x="504" y="-128" font-family="Helvetica,sans-Serif" font-size="10.00">SDL3/SDL_pixels.h</text>
</a>
</g>
</g>
<!-- Node1&#45;&gt;Node12 -->
<g id="edge19_Node000001_Node000012" class="edge">
<title>Node1&#45;&gt;Node12</title>
<g id="a_edge19_Node000001_Node000012"><a xlink:title=" ">
<path fill="none" stroke="#63b8ff" d="M940.72,-238.74C857.58,-236.29 633.02,-226.84 567,-195 545.45,-184.61 527.03,-163.73 515.77,-148.75"/>
<polygon fill="#63b8ff" stroke="#63b8ff" points="518.4,-146.41 509.72,-140.33 512.71,-150.5 518.4,-146.41"/>
</a>
</g>
</g>
<!-- Node13 -->
<g id="Node000013" class="node">
<title>Node13</title>
<g id="a_Node000013"><a xlink:title=" ">
<polygon fill="#e0e0e0" stroke="#999999" points="683,-140 575,-140 575,-121 683,-121 683,-140"/>
<text text-anchor="middle" x="629" y="-128" font-family="Helvetica,sans-Serif" font-size="10.00">SDL3/SDL_render.h</text>
</a>
</g>
</g>
<!-- Node1&#45;&gt;Node13 -->
<g id="edge21_Node000001_Node000013" class="edge">
<title>Node1&#45;&gt;Node13</title>
<g id="a_edge21_Node000001_Node000013"><a xlink:title=" ">
<path fill="none" stroke="#63b8ff" d="M940.9,-238.34C851.77,-234.71 600.24,-222.11 576,-195 561.08,-178.31 584,-158.39 604.19,-145.37"/>
<polygon fill="#63b8ff" stroke="#63b8ff" points="606.15,-148.28 612.85,-140.08 602.49,-142.31 606.15,-148.28"/>
</a>
</g>
</g>
<!-- Node14 -->
<g id="Node000014" class="node">
<title>Node14</title>
<g id="a_Node000014"><a xlink:href="../../d9/de7/Time_8hpp.html" target="_top" xlink:title=" ">
<polygon fill="white" stroke="#666666" points="683,-195 585,-195 585,-176 683,-176 683,-195"/>
<text text-anchor="middle" x="634" y="-183" font-family="Helvetica,sans-Serif" font-size="10.00">engine/Time.hpp</text>
</a>
</g>
</g>
<!-- Node1&#45;&gt;Node14 -->
<g id="edge15_Node000001_Node000014" class="edge">
<title>Node1&#45;&gt;Node14</title>
<g id="a_edge15_Node000001_Node000014"><a xlink:title=" ">
<path fill="none" stroke="#63b8ff" d="M940.81,-234.61C884.65,-225.8 765.69,-207.15 693.51,-195.83"/>
<polygon fill="#63b8ff" stroke="#63b8ff" points="693.64,-192.31 683.22,-194.22 692.55,-199.22 693.64,-192.31"/>
</a>
</g>
</g>
<!-- Node15 -->
<g id="Node000015" class="node">
<title>Node15</title>
<g id="a_Node000015"><a xlink:href="../../d3/d67/Lifecycle_8hpp.html" target="_top" xlink:title=" ">
<polygon fill="white" stroke="#666666" points="813,-195 701,-195 701,-176 813,-176 813,-195"/>
<text text-anchor="middle" x="757" y="-183" font-family="Helvetica,sans-Serif" font-size="10.00">game/Lifecycle.hpp</text>
</a>
</g>
</g>
<!-- Node1&#45;&gt;Node15 -->
<g id="edge16_Node000001_Node000015" class="edge">
<title>Node1&#45;&gt;Node15</title>
<g id="a_edge16_Node000001_Node000015"><a xlink:title=" ">
<path fill="none" stroke="#63b8ff" d="M940.74,-231.79C904.05,-222.75 842.95,-207.69 801.37,-197.44"/>
<polygon fill="#63b8ff" stroke="#63b8ff" points="802.05,-194 791.51,-195.01 800.38,-200.8 802.05,-194"/>
</a>
</g>
</g>
<!-- Node16 -->
<g id="Node000016" class="node">
<title>Node16</title>
<g id="a_Node000016"><a xlink:title=" ">
<polygon fill="#e0e0e0" stroke="#999999" points="903,-195 831,-195 831,-176 903,-176 903,-195"/>
<text text-anchor="middle" x="867" y="-183" font-family="Helvetica,sans-Serif" font-size="10.00">SDL3/SDL.h</text>
</a>
</g>
</g>
<!-- Node1&#45;&gt;Node16 -->
<g id="edge17_Node000001_Node000016" class="edge">
<title>Node1&#45;&gt;Node16</title>
<g id="a_edge17_Node000001_Node000016"><a xlink:title=" ">
<path fill="none" stroke="#63b8ff" d="M955.13,-230.98C938.39,-222.54 912.5,-209.47 893.11,-199.68"/>
<polygon fill="#63b8ff" stroke="#63b8ff" points="894.68,-196.55 884.18,-195.17 891.53,-202.8 894.68,-196.55"/>
</a>
</g>
</g>
<!-- Node17 -->
<g id="Node000017" class="node">
<title>Node17</title>
<g id="a_Node000017"><a xlink:title=" ">
<polygon fill="#e0e0e0" stroke="#999999" points="1023,-195 921,-195 921,-176 1023,-176 1023,-195"/>
<text text-anchor="middle" x="972" y="-183" font-family="Helvetica,sans-Serif" font-size="10.00">SDL3/SDL_main.h</text>
</a>
</g>
</g>
<!-- Node1&#45;&gt;Node17 -->
<g id="edge18_Node000001_Node000017" class="edge">
<title>Node1&#45;&gt;Node17</title>
<g id="a_edge18_Node000001_Node000017"><a xlink:title=" ">
<path fill="none" stroke="#63b8ff" d="M972,-230.75C972,-223.8 972,-213.85 972,-205.13"/>
<polygon fill="#63b8ff" stroke="#63b8ff" points="975.5,-205.09 972,-195.09 968.5,-205.09 975.5,-205.09"/>
</a>
</g>
</g>
<!-- Node18 -->
<g id="Node000018" class="node">
<title>Node18</title>
<g id="a_Node000018"><a xlink:title=" ">
<polygon fill="#e0e0e0" stroke="#999999" points="1137,-195 1041,-195 1041,-176 1137,-176 1137,-195"/>
<text text-anchor="middle" x="1089" y="-183" font-family="Helvetica,sans-Serif" font-size="10.00">SDL3/SDL_rect.h</text>
</a>
</g>
</g>
<!-- Node1&#45;&gt;Node18 -->
<g id="edge20_Node000001_Node000018" class="edge">
<title>Node1&#45;&gt;Node18</title>
<g id="a_edge20_Node000001_Node000018"><a xlink:title=" ">
<path fill="none" stroke="#63b8ff" d="M990.8,-230.98C1009.62,-222.46 1038.82,-209.23 1060.5,-199.41"/>
<polygon fill="#63b8ff" stroke="#63b8ff" points="1062.2,-202.48 1069.86,-195.17 1059.31,-196.11 1062.2,-202.48"/>
</a>
</g>
</g>
<!-- Node19 -->
<g id="Node000019" class="node">
<title>Node19</title>
<g id="a_Node000019"><a xlink:title=" ">
<polygon fill="#e0e0e0" stroke="#999999" points="1268.5,-195 1155.5,-195 1155.5,-176 1268.5,-176 1268.5,-195"/>
<text text-anchor="middle" x="1212" y="-183" font-family="Helvetica,sans-Serif" font-size="10.00">SDL3/SDL_surface.h</text>
</a>
</g>
</g>
<!-- Node1&#45;&gt;Node19 -->
<g id="edge22_Node000001_Node000019" class="edge">
<title>Node1&#45;&gt;Node19</title>
<g id="a_edge22_Node000001_Node000019"><a xlink:title=" ">
<path fill="none" stroke="#63b8ff" d="M1003.38,-232.57C1044.18,-223.56 1115.88,-207.73 1163.66,-197.18"/>
<polygon fill="#63b8ff" stroke="#63b8ff" points="1164.46,-200.58 1173.47,-195.01 1162.95,-193.75 1164.46,-200.58"/>
</a>
</g>
</g>
<!-- Node20 -->
<g id="Node000020" class="node">
<title>Node20</title>
<g id="a_Node000020"><a xlink:title=" ">
<polygon fill="#e0e0e0" stroke="#999999" points="1391,-195 1287,-195 1287,-176 1391,-176 1391,-195"/>
<text text-anchor="middle" x="1339" y="-183" font-family="Helvetica,sans-Serif" font-size="10.00">SDL3/SDL_video.h</text>
</a>
</g>
</g>
<!-- Node1&#45;&gt;Node20 -->
<g id="edge23_Node000001_Node000020" class="edge">
<title>Node1&#45;&gt;Node20</title>
<g id="a_edge23_Node000001_Node000020"><a xlink:title=" ">
<path fill="none" stroke="#63b8ff" d="M1003.29,-234.98C1063.68,-226.26 1197.3,-206.96 1276.55,-195.52"/>
<polygon fill="#63b8ff" stroke="#63b8ff" points="1277.48,-198.92 1286.88,-194.03 1276.48,-191.99 1277.48,-198.92"/>
</a>
</g>
</g>
<!-- Node21 -->
<g id="Node000021" class="node">
<title>Node21</title>
<g id="a_Node000021"><a xlink:title=" ">
<polygon fill="#e0e0e0" stroke="#999999" points="1513,-195 1409,-195 1409,-176 1513,-176 1513,-195"/>
<text text-anchor="middle" x="1461" y="-183" font-family="Helvetica,sans-Serif" font-size="10.00">SDL3_ttf/SDL_ttf.h</text>
</a>
</g>
</g>
<!-- Node1&#45;&gt;Node21 -->
<g id="edge24_Node000001_Node000021" class="edge">
<title>Node1&#45;&gt;Node21</title>
<g id="a_edge24_Node000001_Node000021"><a xlink:title=" ">
<path fill="none" stroke="#63b8ff" d="M1003.19,-236.63C1072.36,-230.19 1244.09,-213.76 1398.62,-195.13"/>
<polygon fill="#63b8ff" stroke="#63b8ff" points="1399.27,-198.58 1408.77,-193.9 1398.42,-191.63 1399.27,-198.58"/>
</a>
</g>
</g>
<!-- Node22 -->
<g id="Node000022" class="node">
<title>Node22</title>
<g id="a_Node000022"><a xlink:title=" ">
<polygon fill="#e0e0e0" stroke="#999999" points="1580.5,-195 1531.5,-195 1531.5,-176 1580.5,-176 1580.5,-195"/>
<text text-anchor="middle" x="1556" y="-183" font-family="Helvetica,sans-Serif" font-size="10.00">cstdlib</text>
</a>
</g>
</g>
<!-- Node1&#45;&gt;Node22 -->
<g id="edge25_Node000001_Node000022" class="edge">
<title>Node1&#45;&gt;Node22</title>
<g id="a_edge25_Node000001_Node000022"><a xlink:title=" ">
<path fill="none" stroke="#63b8ff" d="M1003.23,-238.77C1086.13,-236.44 1318.67,-227.45 1521.29,-194.82"/>
<polygon fill="#63b8ff" stroke="#63b8ff" points="1521.91,-198.26 1531.22,-193.2 1520.78,-191.35 1521.91,-198.26"/>
</a>
</g>
</g>
<!-- Node23 -->
<g id="Node000023" class="node">
<title>Node23</title>
<g id="a_Node000023"><a xlink:title=" ">
<polygon fill="#e0e0e0" stroke="#999999" points="1661,-195 1599,-195 1599,-176 1661,-176 1661,-195"/>
<text text-anchor="middle" x="1630" y="-183" font-family="Helvetica,sans-Serif" font-size="10.00">stdbool.h</text>
</a>
</g>
</g>
<!-- Node1&#45;&gt;Node23 -->
<g id="edge26_Node000001_Node000023" class="edge">
<title>Node1&#45;&gt;Node23</title>
<g id="a_edge26_Node000001_Node000023"><a xlink:title=" ">
<path fill="none" stroke="#63b8ff" d="M1003.03,-238.77C1092.43,-236.36 1358.39,-226.95 1588.4,-195.03"/>
<polygon fill="#63b8ff" stroke="#63b8ff" points="1589.21,-198.45 1598.63,-193.59 1588.24,-191.52 1589.21,-198.45"/>
</a>
</g>
</g>
<!-- Node24 -->
<g id="Node000024" class="node">
<title>Node24</title>
<g id="a_Node000024"><a xlink:title=" ">
<polygon fill="#e0e0e0" stroke="#999999" points="1732.5,-195 1679.5,-195 1679.5,-176 1732.5,-176 1732.5,-195"/>
<text text-anchor="middle" x="1706" y="-183" font-family="Helvetica,sans-Serif" font-size="10.00">stdlib.h</text>
</a>
</g>
</g>
<!-- Node1&#45;&gt;Node24 -->
<g id="edge27_Node000001_Node000024" class="edge">
<title>Node1&#45;&gt;Node24</title>
<g id="a_edge27_Node000001_Node000024"><a xlink:title=" ">
<path fill="none" stroke="#63b8ff" d="M1003.16,-239.38C1100.34,-238.6 1406.57,-233.17 1669.25,-194.81"/>
<polygon fill="#63b8ff" stroke="#63b8ff" points="1669.98,-198.24 1679.36,-193.32 1668.96,-191.32 1669.98,-198.24"/>
</a>
</g>
</g>
<!-- Node3 -->
<g id="Node000003" class="node">
<title>Node3</title>
<g id="a_Node000003"><a xlink:title=" ">
<polygon fill="#e0e0e0" stroke="#999999" points="241,-140 131,-140 131,-121 241,-121 241,-140"/>
<text text-anchor="middle" x="186" y="-128" font-family="Helvetica,sans-Serif" font-size="10.00">SDL3/SDL_events.h</text>
</a>
</g>
</g>
<!-- Node2&#45;&gt;Node3 -->
<g id="edge2_Node000002_Node000003" class="edge">
<title>Node2&#45;&gt;Node3</title>
<g id="a_edge2_Node000002_Node000003"><a xlink:title=" ">
<path fill="none" stroke="#63b8ff" d="M220.23,-175.75C214.44,-168.26 205.94,-157.28 198.86,-148.13"/>
<polygon fill="#63b8ff" stroke="#63b8ff" points="201.53,-145.86 192.64,-140.09 195.99,-150.14 201.53,-145.86"/>
</a>
</g>
</g>
<!-- Node5 -->
<g id="Node000005" class="node">
<title>Node5</title>
<g id="a_Node000005"><a xlink:href="../../d4/db5/GameObject_8hpp.html" target="_top" xlink:title=" ">
<polygon fill="white" stroke="#666666" points="357,-140 259,-140 259,-121 357,-121 357,-140"/>
<text text-anchor="middle" x="308" y="-128" font-family="Helvetica,sans-Serif" font-size="10.00">GameObject.hpp</text>
</a>
</g>
</g>
<!-- Node4&#45;&gt;Node5 -->
<g id="edge4_Node000004_Node000005" class="edge">
<title>Node4&#45;&gt;Node5</title>
<g id="a_edge4_Node000004_Node000005"><a xlink:title=" ">
<path fill="none" stroke="#63b8ff" d="M391.93,-175.98C376.14,-167.61 351.78,-154.7 333.37,-144.95"/>
<polygon fill="#63b8ff" stroke="#63b8ff" points="334.83,-141.76 324.36,-140.17 331.56,-147.95 334.83,-141.76"/>
</a>
</g>
</g>
<!-- Node9 -->
<g id="Node000009" class="node">
<title>Node9</title>
<g id="a_Node000009"><a xlink:title=" ">
<polygon fill="#e0e0e0" stroke="#999999" points="406,-79.5 348,-79.5 348,-60.5 406,-60.5 406,-79.5"/>
<text text-anchor="middle" x="377" y="-67.5" font-family="Helvetica,sans-Serif" font-size="10.00">memory</text>
</a>
</g>
</g>
<!-- Node4&#45;&gt;Node9 -->
<g id="edge13_Node000004_Node000009" class="edge">
<title>Node4&#45;&gt;Node9</title>
<g id="a_edge13_Node000004_Node000009"><a xlink:title=" ">
<path fill="none" stroke="#63b8ff" d="M405.67,-175.97C400.67,-157.65 388.79,-114.18 382,-89.31"/>
<polygon fill="#63b8ff" stroke="#63b8ff" points="385.37,-88.35 379.36,-79.63 378.62,-90.2 385.37,-88.35"/>
</a>
</g>
</g>
<!-- Node11 -->
<g id="Node000011" class="node">
<title>Node11</title>
<g id="a_Node000011"><a xlink:title=" ">
<polygon fill="#e0e0e0" stroke="#999999" points="471.5,-79.5 424.5,-79.5 424.5,-60.5 471.5,-60.5 471.5,-79.5"/>
<text text-anchor="middle" x="448" y="-67.5" font-family="Helvetica,sans-Serif" font-size="10.00">vector</text>
</a>
</g>
</g>
<!-- Node4&#45;&gt;Node11 -->
<g id="edge14_Node000004_Node000011" class="edge">
<title>Node4&#45;&gt;Node11</title>
<g id="a_edge14_Node000004_Node000011"><a xlink:title=" ">
<path fill="none" stroke="#63b8ff" d="M411.01,-175.97C417.46,-157.65 432.78,-114.18 441.55,-89.31"/>
<polygon fill="#63b8ff" stroke="#63b8ff" points="444.94,-90.22 444.96,-79.63 438.33,-87.9 444.94,-90.22"/>
</a>
</g>
</g>
<!-- Node4&#45;&gt;Node12 -->
<g id="edge11_Node000004_Node000012" class="edge">
<title>Node4&#45;&gt;Node12</title>
<g id="a_edge11_Node000004_Node000012"><a xlink:title=" ">
<path fill="none" stroke="#63b8ff" d="M423.42,-175.98C438.45,-167.69 461.54,-154.94 479.16,-145.22"/>
<polygon fill="#63b8ff" stroke="#63b8ff" points="481.23,-148.07 488.3,-140.17 477.85,-141.94 481.23,-148.07"/>
</a>
</g>
</g>
<!-- Node4&#45;&gt;Node13 -->
<g id="edge12_Node000004_Node000013" class="edge">
<title>Node4&#45;&gt;Node13</title>
<g id="a_edge12_Node000004_Node000013"><a xlink:title=" ">
<path fill="none" stroke="#63b8ff" d="M443.51,-175.98C481.49,-166.87 541.87,-152.4 583.36,-142.45"/>
<polygon fill="#63b8ff" stroke="#63b8ff" points="584.31,-145.82 593.21,-140.08 582.67,-139.01 584.31,-145.82"/>
</a>
</g>
</g>
<!-- Node6 -->
<g id="Node000006" class="node">
<title>Node6</title>
<g id="a_Node000006"><a xlink:href="../../d9/d4a/Vector2_8hpp.html" target="_top" xlink:title=" ">
<polygon fill="white" stroke="#666666" points="74,-79.5 0,-79.5 0,-60.5 74,-60.5 74,-79.5"/>
<text text-anchor="middle" x="37" y="-67.5" font-family="Helvetica,sans-Serif" font-size="10.00">Vector2.hpp</text>
</a>
</g>
</g>
<!-- Node5&#45;&gt;Node6 -->
<g id="edge5_Node000005_Node000006" class="edge">
<title>Node5&#45;&gt;Node6</title>
<g id="a_edge5_Node000005_Node000006"><a xlink:title=" ">
<path fill="none" stroke="#63b8ff" d="M258.97,-121.26C213.18,-113.23 143.06,-100.04 83,-85 79.84,-84.21 76.58,-83.33 73.31,-82.42"/>
<polygon fill="#63b8ff" stroke="#63b8ff" points="74.21,-79.03 63.63,-79.6 72.25,-85.76 74.21,-79.03"/>
</a>
</g>
</g>
<!-- Node7 -->
<g id="Node000007" class="node">
<title>Node7</title>
<g id="a_Node000007"><a xlink:href="../../d4/d71/ComponentNotFoundException_8hpp.html" target="_top" xlink:title=" ">
<polygon fill="white" stroke="#666666" points="268,-85 92,-85 92,-55 268,-55 268,-85"/>
<text text-anchor="start" x="100" y="-73" font-family="Helvetica,sans-Serif" font-size="10.00">exceptions/ComponentNotFound</text>
<text text-anchor="middle" x="180" y="-62" font-family="Helvetica,sans-Serif" font-size="10.00">Exception.hpp</text>
</a>
</g>
</g>
<!-- Node5&#45;&gt;Node7 -->
<g id="edge6_Node000005_Node000007" class="edge">
<title>Node5&#45;&gt;Node7</title>
<g id="a_edge6_Node000005_Node000007"><a xlink:title=" ">
<path fill="none" stroke="#63b8ff" d="M289.39,-120.99C271.35,-112.75 243.4,-99.98 220.27,-89.4"/>
<polygon fill="#63b8ff" stroke="#63b8ff" points="221.57,-86.15 211.02,-85.18 218.66,-92.52 221.57,-86.15"/>
</a>
</g>
</g>
<!-- Node5&#45;&gt;Node9 -->
<g id="edge8_Node000005_Node000009" class="edge">
<title>Node5&#45;&gt;Node9</title>
<g id="a_edge8_Node000005_Node000009"><a xlink:title=" ">
<path fill="none" stroke="#63b8ff" d="M318.18,-120.87C328.88,-111.8 345.94,-97.34 358.93,-86.32"/>
<polygon fill="#63b8ff" stroke="#63b8ff" points="361.41,-88.8 366.78,-79.67 356.89,-83.46 361.41,-88.8"/>
</a>
</g>
</g>
<!-- Node10 -->
<g id="Node000010" class="node">
<title>Node10</title>
<g id="a_Node000010"><a xlink:title=" ">
<polygon fill="#e0e0e0" stroke="#999999" points="330,-79.5 286,-79.5 286,-60.5 330,-60.5 330,-79.5"/>
<text text-anchor="middle" x="308" y="-67.5" font-family="Helvetica,sans-Serif" font-size="10.00">string</text>
</a>
</g>
</g>
<!-- Node5&#45;&gt;Node10 -->
<g id="edge9_Node000005_Node000010" class="edge">
<title>Node5&#45;&gt;Node10</title>
<g id="a_edge9_Node000005_Node000010"><a xlink:title=" ">
<path fill="none" stroke="#63b8ff" d="M308,-120.87C308,-112.75 308,-100.31 308,-89.89"/>
<polygon fill="#63b8ff" stroke="#63b8ff" points="311.5,-89.67 308,-79.67 304.5,-89.67 311.5,-89.67"/>
</a>
</g>
</g>
<!-- Node5&#45;&gt;Node11 -->
<g id="edge10_Node000005_Node000011" class="edge">
<title>Node5&#45;&gt;Node11</title>
<g id="a_edge10_Node000005_Node000011"><a xlink:title=" ">
<path fill="none" stroke="#63b8ff" d="M328.93,-120.85C350.51,-111.91 385.14,-97.54 415,-85 416.16,-84.51 417.35,-84.01 418.54,-83.51"/>
<polygon fill="#63b8ff" stroke="#63b8ff" points="419.92,-86.73 427.77,-79.61 417.19,-80.28 419.92,-86.73"/>
</a>
</g>
</g>
<!-- Node8 -->
<g id="Node000008" class="node">
<title>Node8</title>
<g id="a_Node000008"><a xlink:title=" ">
<polygon fill="#e0e0e0" stroke="#999999" points="212.5,-19 147.5,-19 147.5,0 212.5,0 212.5,-19"/>
<text text-anchor="middle" x="180" y="-7" font-family="Helvetica,sans-Serif" font-size="10.00">exception</text>
</a>
</g>
</g>
<!-- Node7&#45;&gt;Node8 -->
<g id="edge7_Node000007_Node000008" class="edge">
<title>Node7&#45;&gt;Node8</title>
<g id="a_edge7_Node000007_Node000008"><a xlink:title=" ">
<path fill="none" stroke="#63b8ff" d="M180,-54.84C180,-47.21 180,-37.7 180,-29.45"/>
<polygon fill="#63b8ff" stroke="#63b8ff" points="183.5,-29.27 180,-19.27 176.5,-29.27 183.5,-29.27"/>
</a>
</g>
</g>
</g>
</svg>
