<?xml version="1.0" encoding="UTF-8" standalone="no"?>
<!DOCTYPE svg PUBLIC "-//W3C//DTD SVG 1.1//EN"
 "http://www.w3.org/Graphics/SVG/1.1/DTD/svg11.dtd">
<!-- Generated by graphviz version 2.43.0 (0)
 -->
<!-- Title: ScoreCounterBehavior::OnTick Pages: 1 -->
<svg width="294pt" height="76pt"
 viewBox="0.00 0.00 294.00 75.50" xmlns="http://www.w3.org/2000/svg" xmlns:xlink="http://www.w3.org/1999/xlink">
<g id="graph0" class="graph" transform="scale(1 1) rotate(0) translate(4 71.5)">
<title>ScoreCounterBehavior::OnTick</title>
<!-- Node1 -->
<g id="Node000001" class="node">
<title>Node1</title>
<g id="a_Node000001"><a xlink:title=" ">
<polygon fill="#999999" stroke="#666666" points="125,-51 0,-51 0,-21 125,-21 125,-51"/>
<text text-anchor="start" x="8" y="-39" font-family="Helvetica,sans-Serif" font-size="10.00">ScoreCounterBehavior</text>
<text text-anchor="middle" x="62.5" y="-28" font-family="Helvetica,sans-Serif" font-size="10.00">::OnTick</text>
</a>
</g>
</g>
<!-- Node2 -->
<g id="Node000002" class="node">
<title>Node2</title>
<g id="a_Node000002"><a xlink:href="../../d8/d38/Time_8cpp.html#a5da05cbf25fbfbc8a9c6b8481ad23664" target="_top" xlink:title="Return the time it took to render the last frame in milliseconds.">
<polygon fill="white" stroke="#666666" points="266,-67.5 181,-67.5 181,-48.5 266,-48.5 266,-67.5"/>
<text text-anchor="middle" x="223.5" y="-55.5" font-family="Helvetica,sans-Serif" font-size="10.00">GetDeltaTime</text>
</a>
</g>
</g>
<!-- Node1&#45;&gt;Node2 -->
<g id="edge1_Node000001_Node000002" class="edge">
<title>Node1&#45;&gt;Node2</title>
<g id="a_edge1_Node000001_Node000002"><a xlink:title=" ">
<path fill="none" stroke="#63b8ff" d="M125.43,-44.57C140.3,-46.63 156.04,-48.8 170.42,-50.79"/>
<polygon fill="#63b8ff" stroke="#63b8ff" points="170.23,-54.3 180.61,-52.2 171.19,-47.37 170.23,-54.3"/>
</a>
</g>
</g>
<!-- Node3 -->
<g id="Node000003" class="node">
<title>Node3</title>
<g id="a_Node000003"><a xlink:href="../../db/d44/classScoreCounterBehavior.html#ac6f6d04e0ea1b2f196440dd66eab66b9" target="_top" xlink:title="Get the player score at the current time.">
<polygon fill="white" stroke="#666666" points="286,-30 161,-30 161,0 286,0 286,-30"/>
<text text-anchor="start" x="169" y="-18" font-family="Helvetica,sans-Serif" font-size="10.00">ScoreCounterBehavior</text>
<text text-anchor="middle" x="223.5" y="-7" font-family="Helvetica,sans-Serif" font-size="10.00">::GetPlayerScore</text>
</a>
</g>
</g>
<!-- Node1&#45;&gt;Node3 -->
<g id="edge2_Node000001_Node000003" class="edge">
<title>Node1&#45;&gt;Node3</title>
<g id="a_edge2_Node000001_Node000003"><a xlink:title=" ">
<path fill="none" stroke="#63b8ff" d="M125.43,-27.82C133.67,-26.73 142.18,-25.61 150.58,-24.5"/>
<polygon fill="#63b8ff" stroke="#63b8ff" points="151.28,-27.94 160.74,-23.16 150.37,-21 151.28,-27.94"/>
</a>
</g>
</g>
</g>
</svg>
