<?xml version="1.0" encoding="UTF-8" standalone="no"?>
<!DOCTYPE svg PUBLIC "-//W3C//DTD SVG 1.1//EN"
 "http://www.w3.org/Graphics/SVG/1.1/DTD/svg11.dtd">
<!-- Generated by graphviz version 2.43.0 (0)
 -->
<!-- Title: engine/GameObject.hpp Pages: 1 -->
<svg width="480pt" height="148pt"
 viewBox="0.00 0.00 479.50 148.00" xmlns="http://www.w3.org/2000/svg" xmlns:xlink="http://www.w3.org/1999/xlink">
<g id="graph0" class="graph" transform="scale(1 1) rotate(0) translate(4 144)">
<title>engine/GameObject.hpp</title>
<!-- Node1 -->
<g id="Node000001" class="node">
<title>Node1</title>
<g id="a_Node000001"><a xlink:title=" ">
<polygon fill="#999999" stroke="#666666" points="382,-140 248,-140 248,-121 382,-121 382,-140"/>
<text text-anchor="middle" x="315" y="-128" font-family="Helvetica,sans-Serif" font-size="10.00">engine/GameObject.hpp</text>
</a>
</g>
</g>
<!-- Node2 -->
<g id="Node000002" class="node">
<title>Node2</title>
<g id="a_Node000002"><a xlink:href="../../d9/d4a/Vector2_8hpp.html" target="_top" xlink:title=" ">
<polygon fill="white" stroke="#666666" points="74,-79.5 0,-79.5 0,-60.5 74,-60.5 74,-79.5"/>
<text text-anchor="middle" x="37" y="-67.5" font-family="Helvetica,sans-Serif" font-size="10.00">Vector2.hpp</text>
</a>
</g>
</g>
<!-- Node1&#45;&gt;Node2 -->
<g id="edge1_Node000001_Node000002" class="edge">
<title>Node1&#45;&gt;Node2</title>
<g id="a_edge1_Node000001_Node000002"><a xlink:title=" ">
<path fill="none" stroke="#63b8ff" d="M261.67,-120.92C214.42,-112.93 143.71,-100.02 83,-85 79.84,-84.22 76.57,-83.35 73.31,-82.44"/>
<polygon fill="#63b8ff" stroke="#63b8ff" points="74.2,-79.05 63.62,-79.63 72.25,-85.78 74.2,-79.05"/>
</a>
</g>
</g>
<!-- Node3 -->
<g id="Node000003" class="node">
<title>Node3</title>
<g id="a_Node000003"><a xlink:href="../../d4/d71/ComponentNotFoundException_8hpp.html" target="_top" xlink:title=" ">
<polygon fill="white" stroke="#666666" points="268,-85 92,-85 92,-55 268,-55 268,-85"/>
<text text-anchor="start" x="100" y="-73" font-family="Helvetica,sans-Serif" font-size="10.00">exceptions/ComponentNotFound</text>
<text text-anchor="middle" x="180" y="-62" font-family="Helvetica,sans-Serif" font-size="10.00">Exception.hpp</text>
</a>
</g>
</g>
<!-- Node1&#45;&gt;Node3 -->
<g id="edge2_Node000001_Node000003" class="edge">
<title>Node1&#45;&gt;Node3</title>
<g id="a_edge2_Node000001_Node000003"><a xlink:title=" ">
<path fill="none" stroke="#63b8ff" d="M295.37,-120.99C276.2,-112.68 246.4,-99.78 221.9,-89.16"/>
<polygon fill="#63b8ff" stroke="#63b8ff" points="223.02,-85.83 212.46,-85.06 220.24,-92.25 223.02,-85.83"/>
</a>
</g>
</g>
<!-- Node5 -->
<g id="Node000005" class="node">
<title>Node5</title>
<g id="a_Node000005"><a xlink:title=" ">
<polygon fill="#e0e0e0" stroke="#999999" points="344,-79.5 286,-79.5 286,-60.5 344,-60.5 344,-79.5"/>
<text text-anchor="middle" x="315" y="-67.5" font-family="Helvetica,sans-Serif" font-size="10.00">memory</text>
</a>
</g>
</g>
<!-- Node1&#45;&gt;Node5 -->
<g id="edge4_Node000001_Node000005" class="edge">
<title>Node1&#45;&gt;Node5</title>
<g id="a_edge4_Node000001_Node000005"><a xlink:title=" ">
<path fill="none" stroke="#63b8ff" d="M315,-120.87C315,-112.75 315,-100.31 315,-89.89"/>
<polygon fill="#63b8ff" stroke="#63b8ff" points="318.5,-89.67 315,-79.67 311.5,-89.67 318.5,-89.67"/>
</a>
</g>
</g>
<!-- Node6 -->
<g id="Node000006" class="node">
<title>Node6</title>
<g id="a_Node000006"><a xlink:title=" ">
<polygon fill="#e0e0e0" stroke="#999999" points="406,-79.5 362,-79.5 362,-60.5 406,-60.5 406,-79.5"/>
<text text-anchor="middle" x="384" y="-67.5" font-family="Helvetica,sans-Serif" font-size="10.00">string</text>
</a>
</g>
</g>
<!-- Node1&#45;&gt;Node6 -->
<g id="edge5_Node000001_Node000006" class="edge">
<title>Node1&#45;&gt;Node6</title>
<g id="a_edge5_Node000001_Node000006"><a xlink:title=" ">
<path fill="none" stroke="#63b8ff" d="M325.18,-120.87C335.88,-111.8 352.94,-97.34 365.93,-86.32"/>
<polygon fill="#63b8ff" stroke="#63b8ff" points="368.41,-88.8 373.78,-79.67 363.89,-83.46 368.41,-88.8"/>
</a>
</g>
</g>
<!-- Node7 -->
<g id="Node000007" class="node">
<title>Node7</title>
<g id="a_Node000007"><a xlink:title=" ">
<polygon fill="#e0e0e0" stroke="#999999" points="471.5,-79.5 424.5,-79.5 424.5,-60.5 471.5,-60.5 471.5,-79.5"/>
<text text-anchor="middle" x="448" y="-67.5" font-family="Helvetica,sans-Serif" font-size="10.00">vector</text>
</a>
</g>
</g>
<!-- Node1&#45;&gt;Node7 -->
<g id="edge6_Node000001_Node000007" class="edge">
<title>Node1&#45;&gt;Node7</title>
<g id="a_edge6_Node000001_Node000007"><a xlink:title=" ">
<path fill="none" stroke="#63b8ff" d="M334.34,-120.99C356.7,-111.16 393.71,-94.88 419.4,-83.58"/>
<polygon fill="#63b8ff" stroke="#63b8ff" points="420.89,-86.75 428.64,-79.52 418.07,-80.34 420.89,-86.75"/>
</a>
</g>
</g>
<!-- Node4 -->
<g id="Node000004" class="node">
<title>Node4</title>
<g id="a_Node000004"><a xlink:title=" ">
<polygon fill="#e0e0e0" stroke="#999999" points="212.5,-19 147.5,-19 147.5,0 212.5,0 212.5,-19"/>
<text text-anchor="middle" x="180" y="-7" font-family="Helvetica,sans-Serif" font-size="10.00">exception</text>
</a>
</g>
</g>
<!-- Node3&#45;&gt;Node4 -->
<g id="edge3_Node000003_Node000004" class="edge">
<title>Node3&#45;&gt;Node4</title>
<g id="a_edge3_Node000003_Node000004"><a xlink:title=" ">
<path fill="none" stroke="#63b8ff" d="M180,-54.84C180,-47.21 180,-37.7 180,-29.45"/>
<polygon fill="#63b8ff" stroke="#63b8ff" points="183.5,-29.27 180,-19.27 176.5,-29.27 183.5,-29.27"/>
</a>
</g>
</g>
</g>
</svg>
