<?xml version="1.0" encoding="UTF-8" standalone="no"?>
<!DOCTYPE svg PUBLIC "-//W3C//DTD SVG 1.1//EN"
 "http://www.w3.org/Graphics/SVG/1.1/DTD/svg11.dtd">
<!-- Generated by graphviz version 2.43.0 (0)
 -->
<!-- Title: GetDeltaTime Pages: 1 -->
<svg width="409pt" height="268pt"
 viewBox="0.00 0.00 409.00 268.00" xmlns="http://www.w3.org/2000/svg" xmlns:xlink="http://www.w3.org/1999/xlink">

<svg id="main" version="1.1" xmlns="http://www.w3.org/2000/svg" xmlns:xlink="http://www.w3.org/1999/xlink" xml:space="preserve">

<style type="text/css"><![CDATA[
.node, .edge {opacity: 0.7;}
.node.selected, .edge.selected {opacity: 1;}
.edge:hover path { stroke: red; }
.edge:hover polygon { stroke: red; fill: red; }
]]></style>
<script type="application/ecmascript" xlink:href="../../svg.min.js"/>
<svg id="graph" class="graph">
<g id="graph0" class="graph" transform="scale(1 1) rotate(0) translate(4 264)">
<title>GetDeltaTime</title>
<!-- Node1 -->
<g id="Node000001" class="node">
<title>Node1</title>
<g id="a_Node000001"><a xlink:title="Return the time it took to render the last frame in milliseconds.">
<polygon fill="#999999" stroke="#666666" points="401,-136.5 316,-136.5 316,-117.5 401,-117.5 401,-136.5"/>
<text text-anchor="middle" x="358.5" y="-124.5" font-family="Helvetica,sans-Serif" font-size="10.00">GetDeltaTime</text>
</a>
</g>
</g>
<!-- Node2 -->
<g id="Node000002" class="node">
<title>Node2</title>
<g id="a_Node000002"><a xlink:href="../../d9/df0/classCollisionBehavior.html#ac109e777e29c737c0454464e611a7449" target="_top" xlink:title="Check if this components parent will collide with the other object next frame.">
<polygon fill="white" stroke="#666666" points="266,-260 158,-260 158,-230 266,-230 266,-260"/>
<text text-anchor="start" x="166" y="-248" font-family="Helvetica,sans-Serif" font-size="10.00">CollisionBehavior::</text>
<text text-anchor="middle" x="212" y="-237" font-family="Helvetica,sans-Serif" font-size="10.00">CheckForCollision</text>
</a>
</g>
</g>
<!-- Node1&#45;&gt;Node2 -->
<g id="edge1_Node000001_Node000002" class="edge">
<title>Node1&#45;&gt;Node2</title>
<g id="a_edge1_Node000001_Node000002"><a xlink:title=" ">
<path fill="none" stroke="#63b8ff" d="M346.68,-145.35C333.43,-166.37 309.11,-200.54 280,-221 275.15,-224.41 269.76,-227.39 264.21,-229.97"/>
<polygon fill="#63b8ff" stroke="#63b8ff" points="349.73,-147.07 351.97,-136.72 343.76,-143.42 349.73,-147.07"/>
</a>
</g>
</g>
<!-- Node4 -->
<g id="Node000004" class="node">
<title>Node4</title>
<g id="a_Node000004"><a xlink:href="../../d4/dd8/classCoffeeMeterBehavior.html#ad649e271bb71e75dc7ffa5a3d458aa81" target="_top" xlink:title=" ">
<polygon fill="white" stroke="#666666" points="272,-212 152,-212 152,-182 272,-182 272,-212"/>
<text text-anchor="start" x="160" y="-200" font-family="Helvetica,sans-Serif" font-size="10.00">CoffeeMeterBehavior</text>
<text text-anchor="middle" x="212" y="-189" font-family="Helvetica,sans-Serif" font-size="10.00">::OnTick</text>
</a>
</g>
</g>
<!-- Node1&#45;&gt;Node4 -->
<g id="edge3_Node000001_Node000004" class="edge">
<title>Node1&#45;&gt;Node4</title>
<g id="a_edge3_Node000001_Node000004"><a xlink:title=" ">
<path fill="none" stroke="#63b8ff" d="M334.73,-142.09C319.61,-151.71 299.11,-164.01 280,-173 273.29,-176.16 266.05,-179.15 258.89,-181.89"/>
<polygon fill="#63b8ff" stroke="#63b8ff" points="336.88,-144.87 343.38,-136.5 333.08,-138.99 336.88,-144.87"/>
</a>
</g>
</g>
<!-- Node5 -->
<g id="Node000005" class="node">
<title>Node5</title>
<g id="a_Node000005"><a xlink:href="../../d1/d21/classGameManagerBehavior.html#a432014bfe65aa92c7f74b7e6e88c475a" target="_top" xlink:title=" ">
<polygon fill="white" stroke="#666666" points="278,-164 146,-164 146,-134 278,-134 278,-164"/>
<text text-anchor="start" x="154" y="-152" font-family="Helvetica,sans-Serif" font-size="10.00">GameManagerBehavior</text>
<text text-anchor="middle" x="212" y="-141" font-family="Helvetica,sans-Serif" font-size="10.00">::OnTick</text>
</a>
</g>
</g>
<!-- Node1&#45;&gt;Node5 -->
<g id="edge4_Node000001_Node000005" class="edge">
<title>Node1&#45;&gt;Node5</title>
<g id="a_edge4_Node000001_Node000005"><a xlink:title=" ">
<path fill="none" stroke="#63b8ff" d="M305.8,-134.87C296.83,-136.24 287.39,-137.67 278.11,-139.09"/>
<polygon fill="#63b8ff" stroke="#63b8ff" points="306.35,-138.33 315.7,-133.36 305.29,-131.41 306.35,-138.33"/>
</a>
</g>
</g>
<!-- Node6 -->
<g id="Node000006" class="node">
<title>Node6</title>
<g id="a_Node000006"><a xlink:href="../../d8/d05/classGravityBehavior.html#aa007d1996c5a1c0840f3957c724a4dee" target="_top" xlink:title=" ">
<polygon fill="white" stroke="#666666" points="280,-115.5 144,-115.5 144,-96.5 280,-96.5 280,-115.5"/>
<text text-anchor="middle" x="212" y="-103.5" font-family="Helvetica,sans-Serif" font-size="10.00">GravityBehavior::OnTick</text>
</a>
</g>
</g>
<!-- Node1&#45;&gt;Node6 -->
<g id="edge5_Node000001_Node000006" class="edge">
<title>Node1&#45;&gt;Node6</title>
<g id="a_edge5_Node000001_Node000006"><a xlink:title=" ">
<path fill="none" stroke="#63b8ff" d="M305.59,-119.46C296.76,-118.17 287.5,-116.83 278.39,-115.5"/>
<polygon fill="#63b8ff" stroke="#63b8ff" points="305.31,-122.95 315.7,-120.93 306.31,-116.02 305.31,-122.95"/>
</a>
</g>
</g>
<!-- Node7 -->
<g id="Node000007" class="node">
<title>Node7</title>
<g id="a_Node000007"><a xlink:href="../../dd/df8/classKinematicBehavior.html#a05b908feb480544ba5df204f4ea23f55" target="_top" xlink:title=" ">
<polygon fill="white" stroke="#666666" points="270,-78 154,-78 154,-48 270,-48 270,-78"/>
<text text-anchor="start" x="162" y="-66" font-family="Helvetica,sans-Serif" font-size="10.00">KinematicBehavior::</text>
<text text-anchor="middle" x="212" y="-55" font-family="Helvetica,sans-Serif" font-size="10.00">OnTick</text>
</a>
</g>
</g>
<!-- Node1&#45;&gt;Node7 -->
<g id="edge6_Node000001_Node000007" class="edge">
<title>Node1&#45;&gt;Node7</title>
<g id="a_edge6_Node000001_Node000007"><a xlink:title=" ">
<path fill="none" stroke="#63b8ff" d="M330.83,-112.68C316.04,-104.96 297.21,-95.52 280,-88 272.15,-84.57 263.66,-81.18 255.45,-78.04"/>
<polygon fill="#63b8ff" stroke="#63b8ff" points="329.43,-115.89 339.91,-117.46 332.69,-109.7 329.43,-115.89"/>
</a>
</g>
</g>
<!-- Node8 -->
<g id="Node000008" class="node">
<title>Node8</title>
<g id="a_Node000008"><a xlink:href="../../db/d44/classScoreCounterBehavior.html#a33d6680553208e93fc39a4edc9946232" target="_top" xlink:title=" ">
<polygon fill="white" stroke="#666666" points="274.5,-30 149.5,-30 149.5,0 274.5,0 274.5,-30"/>
<text text-anchor="start" x="157.5" y="-18" font-family="Helvetica,sans-Serif" font-size="10.00">ScoreCounterBehavior</text>
<text text-anchor="middle" x="212" y="-7" font-family="Helvetica,sans-Serif" font-size="10.00">::OnTick</text>
</a>
</g>
</g>
<!-- Node1&#45;&gt;Node8 -->
<g id="edge7_Node000001_Node000008" class="edge">
<title>Node1&#45;&gt;Node8</title>
<g id="a_edge7_Node000001_Node000008"><a xlink:title=" ">
<path fill="none" stroke="#63b8ff" d="M345.8,-108.97C332.17,-89.25 307.92,-57.95 280,-39 274.99,-35.6 269.44,-32.62 263.75,-30.03"/>
<polygon fill="#63b8ff" stroke="#63b8ff" points="342.97,-111.02 351.45,-117.37 348.78,-107.12 342.97,-111.02"/>
</a>
</g>
</g>
<!-- Node3 -->
<g id="Node000003" class="node">
<title>Node3</title>
<g id="a_Node000003"><a xlink:href="../../d9/df0/classCollisionBehavior.html#a687307bfe48808fb9b86434874368af8" target="_top" xlink:title=" ">
<polygon fill="white" stroke="#666666" points="108,-260 0,-260 0,-230 108,-230 108,-260"/>
<text text-anchor="start" x="8" y="-248" font-family="Helvetica,sans-Serif" font-size="10.00">CollisionBehavior::</text>
<text text-anchor="middle" x="54" y="-237" font-family="Helvetica,sans-Serif" font-size="10.00">OnTick</text>
</a>
</g>
</g>
<!-- Node2&#45;&gt;Node3 -->
<g id="edge2_Node000002_Node000003" class="edge">
<title>Node2&#45;&gt;Node3</title>
<g id="a_edge2_Node000002_Node000003"><a xlink:title=" ">
<path fill="none" stroke="#63b8ff" d="M147.41,-245C134.32,-245 120.67,-245 108.01,-245"/>
<polygon fill="#63b8ff" stroke="#63b8ff" points="147.75,-248.5 157.75,-245 147.75,-241.5 147.75,-248.5"/>
</a>
</g>
</g>
</g>
</svg>
</svg>

<style type='text/css'>
<![CDATA[
[data-mouse-over-selected='false'] { opacity: 0.7; }
[data-mouse-over-selected='true']  { opacity: 1.0; }
]]>
</style>
<script type="application/ecmascript"><![CDATA[
document.addEventListener('DOMContentLoaded', (event) => {
  highlightEdges();
  highlightAdjacentNodes();
});
]]></script>
</svg>
