<?xml version="1.0" encoding="UTF-8" standalone="no"?>
<!DOCTYPE svg PUBLIC "-//W3C//DTD SVG 1.1//EN"
 "http://www.w3.org/Graphics/SVG/1.1/DTD/svg11.dtd">
<!-- Generated by graphviz version 2.43.0 (0)
 -->
<!-- Title: GetTimeSinceGameStart Pages: 1 -->
<svg width="481pt" height="124pt"
 viewBox="0.00 0.00 481.00 124.00" xmlns="http://www.w3.org/2000/svg" xmlns:xlink="http://www.w3.org/1999/xlink">

<svg id="main" version="1.1" xmlns="http://www.w3.org/2000/svg" xmlns:xlink="http://www.w3.org/1999/xlink" xml:space="preserve">

<style type="text/css"><![CDATA[
.node, .edge {opacity: 0.7;}
.node.selected, .edge.selected {opacity: 1;}
.edge:hover path { stroke: red; }
.edge:hover polygon { stroke: red; fill: red; }
]]></style>
<script type="application/ecmascript" xlink:href="../../svg.min.js"/>
<svg id="graph" class="graph">
<g id="graph0" class="graph" transform="scale(1 1) rotate(0) translate(4 120)">
<title>GetTimeSinceGameStart</title>
<!-- Node1 -->
<g id="Node000001" class="node">
<title>Node1</title>
<g id="a_Node000001"><a xlink:title=" ">
<polygon fill="#999999" stroke="#666666" points="473,-67.5 336,-67.5 336,-48.5 473,-48.5 473,-67.5"/>
<text text-anchor="middle" x="404.5" y="-55.5" font-family="Helvetica,sans-Serif" font-size="10.00">GetTimeSinceGameStart</text>
</a>
</g>
</g>
<!-- Node2 -->
<g id="Node000002" class="node">
<title>Node2</title>
<g id="a_Node000002"><a xlink:href="../../d1/d21/classGameManagerBehavior.html#a03f055b9130a3014a32bf722ba48eebf" target="_top" xlink:title="Return the velocity of an object at the current time.">
<polygon fill="white" stroke="#666666" points="300,-116 168,-116 168,-86 300,-86 300,-116"/>
<text text-anchor="start" x="176" y="-104" font-family="Helvetica,sans-Serif" font-size="10.00">GameManagerBehavior</text>
<text text-anchor="middle" x="234" y="-93" font-family="Helvetica,sans-Serif" font-size="10.00">::GetObjectVelocity</text>
</a>
</g>
</g>
<!-- Node1&#45;&gt;Node2 -->
<g id="edge1_Node000001_Node000002" class="edge">
<title>Node1&#45;&gt;Node2</title>
<g id="a_edge1_Node000001_Node000002"><a xlink:title=" ">
<path fill="none" stroke="#63b8ff" d="M356.29,-70.05C336.91,-74.99 314.25,-80.78 293.8,-85.99"/>
<polygon fill="#63b8ff" stroke="#63b8ff" points="357.28,-73.41 366.1,-67.54 355.55,-66.62 357.28,-73.41"/>
</a>
</g>
</g>
<!-- Node3 -->
<g id="Node000003" class="node">
<title>Node3</title>
<g id="a_Node000003"><a xlink:href="../../d1/d21/classGameManagerBehavior.html#a432014bfe65aa92c7f74b7e6e88c475a" target="_top" xlink:title=" ">
<polygon fill="white" stroke="#666666" points="132,-97 0,-97 0,-67 132,-67 132,-97"/>
<text text-anchor="start" x="8" y="-85" font-family="Helvetica,sans-Serif" font-size="10.00">GameManagerBehavior</text>
<text text-anchor="middle" x="66" y="-74" font-family="Helvetica,sans-Serif" font-size="10.00">::OnTick</text>
</a>
</g>
</g>
<!-- Node1&#45;&gt;Node3 -->
<g id="edge5_Node000001_Node000003" class="edge">
<title>Node1&#45;&gt;Node3</title>
<g id="a_edge5_Node000001_Node000003"><a xlink:title=" ">
<path fill="none" stroke="#63b8ff" d="M325.47,-63.57C266.78,-67.75 187.28,-73.42 132.01,-77.36"/>
<polygon fill="#63b8ff" stroke="#63b8ff" points="326.08,-67.03 335.81,-62.83 325.59,-60.05 326.08,-67.03"/>
</a>
</g>
</g>
<!-- Node4 -->
<g id="Node000004" class="node">
<title>Node4</title>
<g id="a_Node000004"><a xlink:href="../../db/d44/classScoreCounterBehavior.html#ac6f6d04e0ea1b2f196440dd66eab66b9" target="_top" xlink:title="Get the player score at the current time.">
<polygon fill="white" stroke="#666666" points="296.5,-30 171.5,-30 171.5,0 296.5,0 296.5,-30"/>
<text text-anchor="start" x="179.5" y="-18" font-family="Helvetica,sans-Serif" font-size="10.00">ScoreCounterBehavior</text>
<text text-anchor="middle" x="234" y="-7" font-family="Helvetica,sans-Serif" font-size="10.00">::GetPlayerScore</text>
</a>
</g>
</g>
<!-- Node1&#45;&gt;Node4 -->
<g id="edge3_Node000001_Node000004" class="edge">
<title>Node1&#45;&gt;Node4</title>
<g id="a_edge3_Node000001_Node000004"><a xlink:title=" ">
<path fill="none" stroke="#63b8ff" d="M356.29,-45.95C336.91,-41.01 314.25,-35.22 293.8,-30.01"/>
<polygon fill="#63b8ff" stroke="#63b8ff" points="355.55,-49.38 366.1,-48.46 357.28,-42.59 355.55,-49.38"/>
</a>
</g>
</g>
<!-- Node2&#45;&gt;Node3 -->
<g id="edge2_Node000002_Node000003" class="edge">
<title>Node2&#45;&gt;Node3</title>
<g id="a_edge2_Node000002_Node000003"><a xlink:title=" ">
<path fill="none" stroke="#63b8ff" d="M157.89,-92.4C149.32,-91.42 140.64,-90.43 132.22,-89.46"/>
<polygon fill="#63b8ff" stroke="#63b8ff" points="157.54,-95.89 167.87,-93.55 158.33,-88.93 157.54,-95.89"/>
</a>
</g>
</g>
<!-- Node5 -->
<g id="Node000005" class="node">
<title>Node5</title>
<g id="a_Node000005"><a xlink:href="../../db/d44/classScoreCounterBehavior.html#a33d6680553208e93fc39a4edc9946232" target="_top" xlink:title=" ">
<polygon fill="white" stroke="#666666" points="128.5,-30 3.5,-30 3.5,0 128.5,0 128.5,-30"/>
<text text-anchor="start" x="11.5" y="-18" font-family="Helvetica,sans-Serif" font-size="10.00">ScoreCounterBehavior</text>
<text text-anchor="middle" x="66" y="-7" font-family="Helvetica,sans-Serif" font-size="10.00">::OnTick</text>
</a>
</g>
</g>
<!-- Node4&#45;&gt;Node5 -->
<g id="edge4_Node000004_Node000005" class="edge">
<title>Node4&#45;&gt;Node5</title>
<g id="a_edge4_Node000004_Node000005"><a xlink:title=" ">
<path fill="none" stroke="#63b8ff" d="M160.95,-15C150.16,-15 139.13,-15 128.59,-15"/>
<polygon fill="#63b8ff" stroke="#63b8ff" points="161.19,-18.5 171.19,-15 161.19,-11.5 161.19,-18.5"/>
</a>
</g>
</g>
</g>
</svg>
</svg>

<style type='text/css'>
<![CDATA[
[data-mouse-over-selected='false'] { opacity: 0.7; }
[data-mouse-over-selected='true']  { opacity: 1.0; }
]]>
</style>
<script type="application/ecmascript"><![CDATA[
document.addEventListener('DOMContentLoaded', (event) => {
  highlightEdges();
  highlightAdjacentNodes();
});
]]></script>
</svg>
