<?xml version="1.0" encoding="UTF-8" standalone="no"?>
<!DOCTYPE svg PUBLIC "-//W3C//DTD SVG 1.1//EN"
 "http://www.w3.org/Graphics/SVG/1.1/DTD/svg11.dtd">
<!-- Generated by graphviz version 2.43.0 (0)
 -->
<!-- Title: engine/Time.hpp Pages: 1 -->
<svg width="1276pt" height="93pt"
 viewBox="0.00 0.00 1276.00 93.00" xmlns="http://www.w3.org/2000/svg" xmlns:xlink="http://www.w3.org/1999/xlink">
<g id="graph0" class="graph" transform="scale(1 1) rotate(0) translate(4 89)">
<title>engine/Time.hpp</title>
<!-- Node1 -->
<g id="node1" class="node">
<title>Node1</title>
<g id="a_node1"><a xlink:title=" ">
<polygon fill="#999999" stroke="#666666" points="700,-85 602,-85 602,-66 700,-66 700,-85"/>
<text text-anchor="middle" x="651" y="-73" font-family="Helvetica,sans-Serif" font-size="10.00">engine/Time.hpp</text>
</a>
</g>
</g>
<!-- Node2 -->
<g id="node2" class="node">
<title>Node2</title>
<g id="a_node2"><a xlink:href="../../d8/d38/Time_8cpp.html" target="_top" xlink:title=" ">
<polygon fill="white" stroke="#666666" points="98,-24.5 0,-24.5 0,-5.5 98,-5.5 98,-24.5"/>
<text text-anchor="middle" x="49" y="-12.5" font-family="Helvetica,sans-Serif" font-size="10.00">engine/Time.cpp</text>
</a>
</g>
</g>
<!-- Node1&#45;&gt;Node2 -->
<g id="edge1" class="edge">
<title>Node1&#45;&gt;Node2</title>
<path fill="none" stroke="#63b8ff" d="M591.69,-72.66C491.33,-68.88 281.85,-58.08 107,-30 98.31,-28.6 88.99,-26.59 80.43,-24.53"/>
<polygon fill="#63b8ff" stroke="#63b8ff" points="591.81,-76.17 601.93,-73.04 592.07,-69.17 591.81,-76.17"/>
</g>
<!-- Node3 -->
<g id="node3" class="node">
<title>Node3</title>
<g id="a_node3"><a xlink:href="../../d5/d92/CollisionBehavior_8cpp.html" target="_top" xlink:title=" ">
<polygon fill="white" stroke="#666666" points="280,-30 116,-30 116,0 280,0 280,-30"/>
<text text-anchor="start" x="124" y="-18" font-family="Helvetica,sans-Serif" font-size="10.00">engine/components/behaviors</text>
<text text-anchor="middle" x="198" y="-7" font-family="Helvetica,sans-Serif" font-size="10.00">/CollisionBehavior.cpp</text>
</a>
</g>
</g>
<!-- Node1&#45;&gt;Node3 -->
<g id="edge2" class="edge">
<title>Node1&#45;&gt;Node3</title>
<path fill="none" stroke="#63b8ff" d="M591.55,-67.75C519.77,-59.48 395.41,-44.72 289,-30 286.15,-29.61 283.25,-29.2 280.32,-28.78"/>
<polygon fill="#63b8ff" stroke="#63b8ff" points="591.42,-71.26 601.75,-68.93 592.22,-64.31 591.42,-71.26"/>
</g>
<!-- Node4 -->
<g id="node4" class="node">
<title>Node4</title>
<g id="a_node4"><a xlink:href="../../d5/d54/GravityBehavior_8cpp.html" target="_top" xlink:title=" ">
<polygon fill="white" stroke="#666666" points="462,-30 298,-30 298,0 462,0 462,-30"/>
<text text-anchor="start" x="306" y="-18" font-family="Helvetica,sans-Serif" font-size="10.00">engine/components/behaviors</text>
<text text-anchor="middle" x="380" y="-7" font-family="Helvetica,sans-Serif" font-size="10.00">/GravityBehavior.cpp</text>
</a>
</g>
</g>
<!-- Node1&#45;&gt;Node4 -->
<g id="edge3" class="edge">
<title>Node1&#45;&gt;Node4</title>
<path fill="none" stroke="#63b8ff" d="M601.71,-63.86C557.74,-54.37 493.06,-40.41 444.89,-30.01"/>
<polygon fill="#63b8ff" stroke="#63b8ff" points="601.08,-67.3 611.59,-65.99 602.56,-60.46 601.08,-67.3"/>
</g>
<!-- Node5 -->
<g id="node5" class="node">
<title>Node5</title>
<g id="a_node5"><a xlink:href="../../d6/d11/KinematicBehavior_8cpp.html" target="_top" xlink:title=" ">
<polygon fill="white" stroke="#666666" points="644,-30 480,-30 480,0 644,0 644,-30"/>
<text text-anchor="start" x="488" y="-18" font-family="Helvetica,sans-Serif" font-size="10.00">engine/components/behaviors</text>
<text text-anchor="middle" x="562" y="-7" font-family="Helvetica,sans-Serif" font-size="10.00">/KinematicBehavior.cpp</text>
</a>
</g>
</g>
<!-- Node1&#45;&gt;Node5 -->
<g id="edge4" class="edge">
<title>Node1&#45;&gt;Node5</title>
<path fill="none" stroke="#63b8ff" d="M629.39,-60.29C615.45,-51.13 597.39,-39.26 583.47,-30.11"/>
<polygon fill="#63b8ff" stroke="#63b8ff" points="627.59,-63.3 637.87,-65.87 631.43,-57.45 627.59,-63.3"/>
</g>
<!-- Node6 -->
<g id="node6" class="node">
<title>Node6</title>
<g id="a_node6"><a xlink:href="../../d7/d47/CoffeeMeterBehavior_8cpp.html" target="_top" xlink:title=" ">
<polygon fill="white" stroke="#666666" points="819.5,-30 662.5,-30 662.5,0 819.5,0 819.5,-30"/>
<text text-anchor="start" x="670.5" y="-18" font-family="Helvetica,sans-Serif" font-size="10.00">game/behaviors/coffeeMeter</text>
<text text-anchor="middle" x="741" y="-7" font-family="Helvetica,sans-Serif" font-size="10.00">/CoffeeMeterBehavior.cpp</text>
</a>
</g>
</g>
<!-- Node1&#45;&gt;Node6 -->
<g id="edge5" class="edge">
<title>Node1&#45;&gt;Node6</title>
<path fill="none" stroke="#63b8ff" d="M672.86,-60.29C686.95,-51.13 705.22,-39.26 719.29,-30.11"/>
<polygon fill="#63b8ff" stroke="#63b8ff" points="670.76,-57.48 664.28,-65.87 674.57,-63.35 670.76,-57.48"/>
</g>
<!-- Node7 -->
<g id="node7" class="node">
<title>Node7</title>
<g id="a_node7"><a xlink:href="../../df/d88/GameManagerBehavior_8cpp.html" target="_top" xlink:title=" ">
<polygon fill="white" stroke="#666666" points="1006.5,-30 837.5,-30 837.5,0 1006.5,0 1006.5,-30"/>
<text text-anchor="start" x="845.5" y="-18" font-family="Helvetica,sans-Serif" font-size="10.00">game/behaviors/gameManager</text>
<text text-anchor="middle" x="922" y="-7" font-family="Helvetica,sans-Serif" font-size="10.00">/GameManagerBehavior.cpp</text>
</a>
</g>
</g>
<!-- Node1&#45;&gt;Node7 -->
<g id="edge6" class="edge">
<title>Node1&#45;&gt;Node7</title>
<path fill="none" stroke="#63b8ff" d="M700.29,-63.86C744.26,-54.37 808.94,-40.41 857.11,-30.01"/>
<polygon fill="#63b8ff" stroke="#63b8ff" points="699.44,-60.46 690.41,-65.99 700.92,-67.3 699.44,-60.46"/>
</g>
<!-- Node8 -->
<g id="node8" class="node">
<title>Node8</title>
<g id="a_node8"><a xlink:href="../../dc/dda/ScoreCounterBehavior_8cpp.html" target="_top" xlink:title=" ">
<polygon fill="white" stroke="#666666" points="1187.5,-30 1024.5,-30 1024.5,0 1187.5,0 1187.5,-30"/>
<text text-anchor="start" x="1032.5" y="-18" font-family="Helvetica,sans-Serif" font-size="10.00">game/behaviors/scoreCounter</text>
<text text-anchor="middle" x="1106" y="-7" font-family="Helvetica,sans-Serif" font-size="10.00">/ScoreCounterBehavior.cpp</text>
</a>
</g>
</g>
<!-- Node1&#45;&gt;Node8 -->
<g id="edge7" class="edge">
<title>Node1&#45;&gt;Node8</title>
<path fill="none" stroke="#63b8ff" d="M710.34,-67.88C782.62,-59.66 908.42,-44.92 1016,-30 1018.66,-29.63 1021.37,-29.25 1024.1,-28.86"/>
<polygon fill="#63b8ff" stroke="#63b8ff" points="709.61,-64.43 700.07,-69.04 710.4,-71.39 709.61,-64.43"/>
</g>
<!-- Node9 -->
<g id="node9" class="node">
<title>Node9</title>
<g id="a_node9"><a xlink:href="../../df/d0a/main_8cpp.html" target="_top" xlink:title=" ">
<polygon fill="white" stroke="#666666" points="1268,-24.5 1206,-24.5 1206,-5.5 1268,-5.5 1268,-24.5"/>
<text text-anchor="middle" x="1237" y="-12.5" font-family="Helvetica,sans-Serif" font-size="10.00">main.cpp</text>
</a>
</g>
</g>
<!-- Node1&#45;&gt;Node9 -->
<g id="edge8" class="edge">
<title>Node1&#45;&gt;Node9</title>
<path fill="none" stroke="#63b8ff" d="M710.18,-74.59C811.16,-73.66 1022.73,-66.96 1197,-30 1203.19,-28.69 1209.73,-26.68 1215.7,-24.58"/>
<polygon fill="#63b8ff" stroke="#63b8ff" points="710.15,-71.09 700.18,-74.67 710.2,-78.09 710.15,-71.09"/>
</g>
</g>
</svg>
