<?xml version="1.0" encoding="UTF-8" standalone="no"?>
<!DOCTYPE svg PUBLIC "-//W3C//DTD SVG 1.1//EN"
 "http://www.w3.org/Graphics/SVG/1.1/DTD/svg11.dtd">
<!-- Generated by graphviz version 2.43.0 (0)
 -->
<!-- Title: game/behaviors/gameManager/GameManagerBehavior.cpp Pages: 1 -->
<svg width="1324pt" height="467pt"
 viewBox="0.00 0.00 1324.22 467.00" xmlns="http://www.w3.org/2000/svg" xmlns:xlink="http://www.w3.org/1999/xlink">
<g id="graph0" class="graph" transform="scale(1 1) rotate(0) translate(4 463)">
<title>game/behaviors/gameManager/GameManagerBehavior.cpp</title>
<!-- Node1 -->
<g id="Node000001" class="node">
<title>Node1</title>
<g id="a_Node000001"><a xlink:title=" ">
<polygon fill="#999999" stroke="#666666" points="832.72,-459 663.72,-459 663.72,-429 832.72,-429 832.72,-459"/>
<text text-anchor="start" x="671.72" y="-447" font-family="Helvetica,sans-Serif" font-size="10.00">game/behaviors/gameManager</text>
<text text-anchor="middle" x="748.22" y="-436" font-family="Helvetica,sans-Serif" font-size="10.00">/GameManagerBehavior.cpp</text>
</a>
</g>
</g>
<!-- Node2 -->
<g id="Node000002" class="node">
<title>Node2</title>
<g id="a_Node000002"><a xlink:href="../../d2/d74/GameManagerBehavior_8hpp.html" target="_top" xlink:title=" ">
<polygon fill="white" stroke="#666666" points="979.22,-321.5 827.22,-321.5 827.22,-302.5 979.22,-302.5 979.22,-321.5"/>
<text text-anchor="middle" x="903.22" y="-309.5" font-family="Helvetica,sans-Serif" font-size="10.00">GameManagerBehavior.hpp</text>
</a>
</g>
</g>
<!-- Node1&#45;&gt;Node2 -->
<g id="edge1_Node000001_Node000002" class="edge">
<title>Node1&#45;&gt;Node2</title>
<g id="a_edge1_Node000001_Node000002"><a xlink:title=" ">
<path fill="none" stroke="#63b8ff" d="M752.65,-428.78C758.77,-411.23 771.35,-381.46 791.22,-363 810.65,-344.94 837.69,-332.62 860.33,-324.73"/>
<polygon fill="#63b8ff" stroke="#63b8ff" points="861.66,-327.97 870.06,-321.51 859.46,-321.33 861.66,-327.97"/>
</a>
</g>
</g>
<!-- Node10 -->
<g id="Node000010" class="node">
<title>Node10</title>
<g id="a_Node000010"><a xlink:title=" ">
<polygon fill="#e0e0e0" stroke="#999999" points="357.22,-79.5 299.22,-79.5 299.22,-60.5 357.22,-60.5 357.22,-79.5"/>
<text text-anchor="middle" x="328.22" y="-67.5" font-family="Helvetica,sans-Serif" font-size="10.00">memory</text>
</a>
</g>
</g>
<!-- Node1&#45;&gt;Node10 -->
<g id="edge43_Node000001_Node000010" class="edge">
<title>Node1&#45;&gt;Node10</title>
<g id="a_edge43_Node000001_Node000010"><a xlink:title=" ">
<path fill="none" stroke="#63b8ff" d="M663.63,-442.72C482.42,-441.35 69.26,-433.72 21.22,-393 -6.66,-369.37 2.22,-349.54 2.22,-313 2.22,-313 2.22,-313 2.22,-184.5 2.22,-124.39 202.38,-88.79 289.02,-76.2"/>
<polygon fill="#63b8ff" stroke="#63b8ff" points="289.6,-79.65 299,-74.78 288.61,-72.72 289.6,-79.65"/>
</a>
</g>
</g>
<!-- Node13 -->
<g id="Node000013" class="node">
<title>Node13</title>
<g id="a_Node000013"><a xlink:href="../../d6/d76/AssetLoading_8hpp.html" target="_top" xlink:title=" ">
<polygon fill="white" stroke="#666666" points="1249.22,-140 1083.22,-140 1083.22,-121 1249.22,-121 1249.22,-140"/>
<text text-anchor="middle" x="1166.22" y="-128" font-family="Helvetica,sans-Serif" font-size="10.00">../../../engine/AssetLoading.hpp</text>
</a>
</g>
</g>
<!-- Node1&#45;&gt;Node13 -->
<g id="edge12_Node000001_Node000013" class="edge">
<title>Node1&#45;&gt;Node13</title>
<g id="a_edge12_Node000001_Node000013"><a xlink:title=" ">
<path fill="none" stroke="#63b8ff" d="M771.94,-428.86C787.66,-419.23 808.57,-405.93 826.22,-393 843.02,-380.69 843.07,-371.2 862.22,-363 926.79,-335.36 1129.47,-379.42 1176.22,-327 1220.88,-276.92 1190.71,-187.8 1174.56,-149.65"/>
<polygon fill="#63b8ff" stroke="#63b8ff" points="1177.69,-148.06 1170.45,-140.31 1171.28,-150.88 1177.69,-148.06"/>
</a>
</g>
</g>
<!-- Node14 -->
<g id="Node000014" class="node">
<title>Node14</title>
<g id="a_Node000014"><a xlink:href="../../d7/dd0/GameManagement_8hpp.html" target="_top" xlink:title=" ">
<polygon fill="white" stroke="#666666" points="466.22,-255.5 272.22,-255.5 272.22,-236.5 466.22,-236.5 466.22,-255.5"/>
<text text-anchor="middle" x="369.22" y="-243.5" font-family="Helvetica,sans-Serif" font-size="10.00">../../../engine/GameManagement.hpp</text>
</a>
</g>
</g>
<!-- Node1&#45;&gt;Node14 -->
<g id="edge14_Node000001_Node000014" class="edge">
<title>Node1&#45;&gt;Node14</title>
<g id="a_edge14_Node000001_Node000014"><a xlink:title=" ">
<path fill="none" stroke="#63b8ff" d="M680.72,-428.91C635.26,-419.24 574.01,-405.88 520.22,-393 513.13,-391.3 270.68,-332.77 266.22,-327 243.4,-297.49 292.62,-272.82 330.61,-258.99"/>
<polygon fill="#63b8ff" stroke="#63b8ff" points="332.18,-262.15 340.46,-255.55 329.87,-255.54 332.18,-262.15"/>
</a>
</g>
</g>
<!-- Node17 -->
<g id="Node000017" class="node">
<title>Node17</title>
<g id="a_Node000017"><a xlink:href="../../d4/d1a/RandomNumberGenerator_8hpp.html" target="_top" xlink:title=" ">
<polygon fill="white" stroke="#666666" points="1029.72,-393 870.72,-393 870.72,-363 1029.72,-363 1029.72,-393"/>
<text text-anchor="start" x="878.72" y="-381" font-family="Helvetica,sans-Serif" font-size="10.00">../../../engine/RandomNumber</text>
<text text-anchor="middle" x="950.22" y="-370" font-family="Helvetica,sans-Serif" font-size="10.00">Generator.hpp</text>
</a>
</g>
</g>
<!-- Node1&#45;&gt;Node17 -->
<g id="edge20_Node000001_Node000017" class="edge">
<title>Node1&#45;&gt;Node17</title>
<g id="a_edge20_Node000001_Node000017"><a xlink:title=" ">
<path fill="none" stroke="#63b8ff" d="M792.55,-428.95C823.07,-419.28 863.8,-406.38 896.22,-396.11"/>
<polygon fill="#63b8ff" stroke="#63b8ff" points="897.52,-399.37 905.99,-393.01 895.4,-392.7 897.52,-399.37"/>
</a>
</g>
</g>
<!-- Node18 -->
<g id="Node000018" class="node">
<title>Node18</title>
<g id="a_Node000018"><a xlink:href="../../d9/de7/Time_8hpp.html" target="_top" xlink:title=" ">
<polygon fill="white" stroke="#666666" points="1172.72,-387.5 1047.72,-387.5 1047.72,-368.5 1172.72,-368.5 1172.72,-387.5"/>
<text text-anchor="middle" x="1110.22" y="-375.5" font-family="Helvetica,sans-Serif" font-size="10.00">../../../engine/Time.hpp</text>
</a>
</g>
</g>
<!-- Node1&#45;&gt;Node18 -->
<g id="edge21_Node000001_Node000018" class="edge">
<title>Node1&#45;&gt;Node18</title>
<g id="a_edge21_Node000001_Node000018"><a xlink:title=" ">
<path fill="none" stroke="#63b8ff" d="M833,-429C891.1,-419.26 969.9,-405.79 1039.22,-393 1045.3,-391.88 1051.67,-390.67 1057.99,-389.45"/>
<polygon fill="#63b8ff" stroke="#63b8ff" points="1058.68,-392.88 1067.83,-387.54 1057.34,-386.01 1058.68,-392.88"/>
</a>
</g>
</g>
<!-- Node19 -->
<g id="Node000019" class="node">
<title>Node19</title>
<g id="a_Node000019"><a xlink:href="../../dc/da8/KinematicBehavior_8hpp.html" target="_top" xlink:title=" ">
<polygon fill="white" stroke="#666666" points="459.22,-327 275.22,-327 275.22,-297 459.22,-297 459.22,-327"/>
<text text-anchor="start" x="283.22" y="-315" font-family="Helvetica,sans-Serif" font-size="10.00">../../../engine/components</text>
<text text-anchor="middle" x="367.22" y="-304" font-family="Helvetica,sans-Serif" font-size="10.00">/behaviors/KinematicBehavior.hpp</text>
</a>
</g>
</g>
<!-- Node1&#45;&gt;Node19 -->
<g id="edge22_Node000001_Node000019" class="edge">
<title>Node1&#45;&gt;Node19</title>
<g id="a_edge22_Node000001_Node000019"><a xlink:title=" ">
<path fill="none" stroke="#63b8ff" d="M707.08,-428.96C637.01,-405.06 494.7,-356.5 418.34,-330.44"/>
<polygon fill="#63b8ff" stroke="#63b8ff" points="419.07,-326.99 408.47,-327.08 416.81,-333.62 419.07,-326.99"/>
</a>
</g>
</g>
<!-- Node20 -->
<g id="Node000020" class="node">
<title>Node20</title>
<g id="a_Node000020"><a xlink:href="../../d6/d02/TextureRenderer_8hpp.html" target="_top" xlink:title=" ">
<polygon fill="white" stroke="#666666" points="1167.22,-327 997.22,-327 997.22,-297 1167.22,-297 1167.22,-327"/>
<text text-anchor="start" x="1005.22" y="-315" font-family="Helvetica,sans-Serif" font-size="10.00">../../../engine/components</text>
<text text-anchor="middle" x="1082.22" y="-304" font-family="Helvetica,sans-Serif" font-size="10.00">/renderers/TextureRenderer.hpp</text>
</a>
</g>
</g>
<!-- Node1&#45;&gt;Node20 -->
<g id="edge24_Node000001_Node000020" class="edge">
<title>Node1&#45;&gt;Node20</title>
<g id="a_edge24_Node000001_Node000020"><a xlink:title=" ">
<path fill="none" stroke="#63b8ff" d="M760.63,-428.92C779.09,-408.3 813.33,-371.42 829.22,-363 843.54,-355.41 922.62,-340.41 988.61,-328.81"/>
<polygon fill="#63b8ff" stroke="#63b8ff" points="989.41,-332.22 998.66,-327.05 988.2,-325.33 989.41,-332.22"/>
</a>
</g>
</g>
<!-- Node23 -->
<g id="Node000023" class="node">
<title>Node23</title>
<g id="a_Node000023"><a xlink:href="../../db/d99/CoffeeBehavior_8hpp.html" target="_top" xlink:title=" ">
<polygon fill="white" stroke="#666666" points="631.22,-321.5 477.22,-321.5 477.22,-302.5 631.22,-302.5 631.22,-321.5"/>
<text text-anchor="middle" x="554.22" y="-309.5" font-family="Helvetica,sans-Serif" font-size="10.00">../coffee/CoffeeBehavior.hpp</text>
</a>
</g>
</g>
<!-- Node1&#45;&gt;Node23 -->
<g id="edge31_Node000001_Node000023" class="edge">
<title>Node1&#45;&gt;Node23</title>
<g id="a_edge31_Node000001_Node000023"><a xlink:title=" ">
<path fill="none" stroke="#63b8ff" d="M727.09,-428.84C689.97,-403.97 613.45,-352.69 575.93,-327.55"/>
<polygon fill="#63b8ff" stroke="#63b8ff" points="577.53,-324.41 567.27,-321.75 573.63,-330.22 577.53,-324.41"/>
</a>
</g>
</g>
<!-- Node24 -->
<g id="Node000024" class="node">
<title>Node24</title>
<g id="a_Node000024"><a xlink:href="../../d3/d9f/CoffeeCollisionBehavior_8hpp.html" target="_top" xlink:title=" ">
<polygon fill="white" stroke="#666666" points="382.22,-393 250.22,-393 250.22,-363 382.22,-363 382.22,-393"/>
<text text-anchor="start" x="258.22" y="-381" font-family="Helvetica,sans-Serif" font-size="10.00">../coffee/CoffeeCollision</text>
<text text-anchor="middle" x="316.22" y="-370" font-family="Helvetica,sans-Serif" font-size="10.00">Behavior.hpp</text>
</a>
</g>
</g>
<!-- Node1&#45;&gt;Node24 -->
<g id="edge33_Node000001_Node000024" class="edge">
<title>Node1&#45;&gt;Node24</title>
<g id="a_edge33_Node000001_Node000024"><a xlink:title=" ">
<path fill="none" stroke="#63b8ff" d="M663.47,-431.74C592.1,-422.07 487.36,-407.44 396.22,-393 394.97,-392.8 393.7,-392.6 392.43,-392.39"/>
<polygon fill="#63b8ff" stroke="#63b8ff" points="392.98,-388.94 382.55,-390.78 391.85,-395.85 392.98,-388.94"/>
</a>
</g>
</g>
<!-- Node26 -->
<g id="Node000026" class="node">
<title>Node26</title>
<g id="a_Node000026"><a xlink:href="../../de/d48/EnemyBehavior_8hpp.html" target="_top" xlink:title=" ">
<polygon fill="white" stroke="#666666" points="809.22,-321.5 649.22,-321.5 649.22,-302.5 809.22,-302.5 809.22,-321.5"/>
<text text-anchor="middle" x="729.22" y="-309.5" font-family="Helvetica,sans-Serif" font-size="10.00">../enemy/EnemyBehavior.hpp</text>
</a>
</g>
</g>
<!-- Node1&#45;&gt;Node26 -->
<g id="edge37_Node000001_Node000026" class="edge">
<title>Node1&#45;&gt;Node26</title>
<g id="a_edge37_Node000001_Node000026"><a xlink:title=" ">
<path fill="none" stroke="#63b8ff" d="M746.15,-428.84C742.71,-405.34 735.83,-358.26 731.99,-331.93"/>
<polygon fill="#63b8ff" stroke="#63b8ff" points="735.41,-331.14 730.5,-321.75 728.48,-332.15 735.41,-331.14"/>
</a>
</g>
</g>
<!-- Node27 -->
<g id="Node000027" class="node">
<title>Node27</title>
<g id="a_Node000027"><a xlink:href="../../dc/d17/EnemyCollisionBehavior_8hpp.html" target="_top" xlink:title=" ">
<polygon fill="white" stroke="#666666" points="232.22,-387.5 30.22,-387.5 30.22,-368.5 232.22,-368.5 232.22,-387.5"/>
<text text-anchor="middle" x="131.22" y="-375.5" font-family="Helvetica,sans-Serif" font-size="10.00">../enemy/EnemyCollisionBehavior.hpp</text>
</a>
</g>
</g>
<!-- Node1&#45;&gt;Node27 -->
<g id="edge39_Node000001_Node000027" class="edge">
<title>Node1&#45;&gt;Node27</title>
<g id="a_edge39_Node000001_Node000027"><a xlink:title=" ">
<path fill="none" stroke="#63b8ff" d="M663.37,-435.37C562.62,-426.14 389.53,-409.75 241.22,-393 229.83,-391.71 217.78,-390.27 206,-388.81"/>
<polygon fill="#63b8ff" stroke="#63b8ff" points="206.1,-385.29 195.75,-387.52 205.23,-392.24 206.1,-385.29"/>
</a>
</g>
</g>
<!-- Node28 -->
<g id="Node000028" class="node">
<title>Node28</title>
<g id="a_Node000028"><a xlink:title=" ">
<polygon fill="#e0e0e0" stroke="#999999" points="1237.72,-387.5 1190.72,-387.5 1190.72,-368.5 1237.72,-368.5 1237.72,-387.5"/>
<text text-anchor="middle" x="1214.22" y="-375.5" font-family="Helvetica,sans-Serif" font-size="10.00">cmath</text>
</a>
</g>
</g>
<!-- Node1&#45;&gt;Node28 -->
<g id="edge41_Node000001_Node000028" class="edge">
<title>Node1&#45;&gt;Node28</title>
<g id="a_edge41_Node000001_Node000028"><a xlink:title=" ">
<path fill="none" stroke="#63b8ff" d="M832.81,-440.67C921.31,-436.53 1063.59,-425.01 1182.22,-393 1184.11,-392.49 1186.03,-391.89 1187.94,-391.22"/>
<polygon fill="#63b8ff" stroke="#63b8ff" points="1189.28,-394.46 1197.29,-387.52 1186.7,-387.95 1189.28,-394.46"/>
</a>
</g>
</g>
<!-- Node29 -->
<g id="Node000029" class="node">
<title>Node29</title>
<g id="a_Node000029"><a xlink:title=" ">
<polygon fill="#e0e0e0" stroke="#999999" points="1316.22,-387.5 1256.22,-387.5 1256.22,-368.5 1316.22,-368.5 1316.22,-387.5"/>
<text text-anchor="middle" x="1286.22" y="-375.5" font-family="Helvetica,sans-Serif" font-size="10.00">iostream</text>
</a>
</g>
</g>
<!-- Node1&#45;&gt;Node29 -->
<g id="edge42_Node000001_Node000029" class="edge">
<title>Node1&#45;&gt;Node29</title>
<g id="a_edge42_Node000001_Node000029"><a xlink:title=" ">
<path fill="none" stroke="#63b8ff" d="M833.1,-440.8C933.22,-436.77 1104.12,-425.34 1247.22,-393 1250.05,-392.36 1252.95,-391.58 1255.84,-390.71"/>
<polygon fill="#63b8ff" stroke="#63b8ff" points="1257.06,-393.99 1265.45,-387.52 1254.86,-387.35 1257.06,-393.99"/>
</a>
</g>
</g>
<!-- Node3 -->
<g id="Node000003" class="node">
<title>Node3</title>
<g id="a_Node000003"><a xlink:href="../../d4/d8e/Behavior_8hpp.html" target="_top" xlink:title=" ">
<polygon fill="white" stroke="#666666" points="624.22,-261 484.22,-261 484.22,-231 624.22,-231 624.22,-261"/>
<text text-anchor="start" x="492.22" y="-249" font-family="Helvetica,sans-Serif" font-size="10.00">../../../engine/components</text>
<text text-anchor="middle" x="554.22" y="-238" font-family="Helvetica,sans-Serif" font-size="10.00">/behaviors/Behavior.hpp</text>
</a>
</g>
</g>
<!-- Node2&#45;&gt;Node3 -->
<g id="edge2_Node000002_Node000003" class="edge">
<title>Node2&#45;&gt;Node3</title>
<g id="a_edge2_Node000002_Node000003"><a xlink:title=" ">
<path fill="none" stroke="#63b8ff" d="M856.51,-302.44C799.77,-292.03 703.13,-274.31 634.4,-261.7"/>
<polygon fill="#63b8ff" stroke="#63b8ff" points="634.94,-258.24 624.47,-259.88 633.67,-265.13 634.94,-258.24"/>
</a>
</g>
</g>
<!-- Node4 -->
<g id="Node000004" class="node">
<title>Node4</title>
<g id="a_Node000004"><a xlink:href="../../d2/d69/GameObjectComponent_8hpp.html" target="_top" xlink:title=" ">
<polygon fill="white" stroke="#666666" points="868.22,-195 704.22,-195 704.22,-176 868.22,-176 868.22,-195"/>
<text text-anchor="middle" x="786.22" y="-183" font-family="Helvetica,sans-Serif" font-size="10.00">../GameObjectComponent.hpp</text>
</a>
</g>
</g>
<!-- Node3&#45;&gt;Node4 -->
<g id="edge3_Node000003_Node000004" class="edge">
<title>Node3&#45;&gt;Node4</title>
<g id="a_edge3_Node000003_Node000004"><a xlink:title=" ">
<path fill="none" stroke="#63b8ff" d="M609.79,-230.99C650.35,-220.76 704.58,-207.09 742.16,-197.61"/>
<polygon fill="#63b8ff" stroke="#63b8ff" points="743.46,-200.89 752.3,-195.05 741.74,-194.1 743.46,-200.89"/>
</a>
</g>
</g>
<!-- Node5 -->
<g id="Node000005" class="node">
<title>Node5</title>
<g id="a_Node000005"><a xlink:title=" ">
<polygon fill="#e0e0e0" stroke="#999999" points="812.72,-140 759.72,-140 759.72,-121 812.72,-121 812.72,-140"/>
<text text-anchor="middle" x="786.22" y="-128" font-family="Helvetica,sans-Serif" font-size="10.00">cstddef</text>
</a>
</g>
</g>
<!-- Node4&#45;&gt;Node5 -->
<g id="edge4_Node000004_Node000005" class="edge">
<title>Node4&#45;&gt;Node5</title>
<g id="a_edge4_Node000004_Node000005"><a xlink:title=" ">
<path fill="none" stroke="#63b8ff" d="M786.22,-175.75C786.22,-168.8 786.22,-158.85 786.22,-150.13"/>
<polygon fill="#63b8ff" stroke="#63b8ff" points="789.72,-150.09 786.22,-140.09 782.72,-150.09 789.72,-150.09"/>
</a>
</g>
</g>
<!-- Node6 -->
<g id="Node000006" class="node">
<title>Node6</title>
<g id="a_Node000006"><a xlink:href="../../d4/db5/GameObject_8hpp.html" target="_top" xlink:title=" ">
<polygon fill="white" stroke="#666666" points="735.72,-140 628.72,-140 628.72,-121 735.72,-121 735.72,-140"/>
<text text-anchor="middle" x="682.22" y="-128" font-family="Helvetica,sans-Serif" font-size="10.00">../GameObject.hpp</text>
</a>
</g>
</g>
<!-- Node4&#45;&gt;Node6 -->
<g id="edge5_Node000004_Node000006" class="edge">
<title>Node4&#45;&gt;Node6</title>
<g id="a_edge5_Node000004_Node000006"><a xlink:title=" ">
<path fill="none" stroke="#63b8ff" d="M769.51,-175.98C753.01,-167.57 727.52,-154.59 708.34,-144.81"/>
<polygon fill="#63b8ff" stroke="#63b8ff" points="709.73,-141.59 699.23,-140.17 706.55,-147.83 709.73,-141.59"/>
</a>
</g>
</g>
<!-- Node7 -->
<g id="Node000007" class="node">
<title>Node7</title>
<g id="a_Node000007"><a xlink:href="../../d9/d4a/Vector2_8hpp.html" target="_top" xlink:title=" ">
<polygon fill="white" stroke="#666666" points="718.22,-79.5 644.22,-79.5 644.22,-60.5 718.22,-60.5 718.22,-79.5"/>
<text text-anchor="middle" x="681.22" y="-67.5" font-family="Helvetica,sans-Serif" font-size="10.00">Vector2.hpp</text>
</a>
</g>
</g>
<!-- Node6&#45;&gt;Node7 -->
<g id="edge6_Node000006_Node000007" class="edge">
<title>Node6&#45;&gt;Node7</title>
<g id="a_edge6_Node000006_Node000007"><a xlink:title=" ">
<path fill="none" stroke="#63b8ff" d="M682.07,-120.87C681.93,-112.75 681.72,-100.31 681.54,-89.89"/>
<polygon fill="#63b8ff" stroke="#63b8ff" points="685.04,-89.61 681.37,-79.67 678.04,-89.73 685.04,-89.61"/>
</a>
</g>
</g>
<!-- Node8 -->
<g id="Node000008" class="node">
<title>Node8</title>
<g id="a_Node000008"><a xlink:href="../../d4/d71/ComponentNotFoundException_8hpp.html" target="_top" xlink:title=" ">
<polygon fill="white" stroke="#666666" points="912.22,-85 736.22,-85 736.22,-55 912.22,-55 912.22,-85"/>
<text text-anchor="start" x="744.22" y="-73" font-family="Helvetica,sans-Serif" font-size="10.00">exceptions/ComponentNotFound</text>
<text text-anchor="middle" x="824.22" y="-62" font-family="Helvetica,sans-Serif" font-size="10.00">Exception.hpp</text>
</a>
</g>
</g>
<!-- Node6&#45;&gt;Node8 -->
<g id="edge7_Node000006_Node000008" class="edge">
<title>Node6&#45;&gt;Node8</title>
<g id="a_edge7_Node000006_Node000008"><a xlink:title=" ">
<path fill="none" stroke="#63b8ff" d="M702.87,-120.99C723.21,-112.61 754.93,-99.55 780.83,-88.87"/>
<polygon fill="#63b8ff" stroke="#63b8ff" points="782.17,-92.11 790.08,-85.06 779.5,-85.64 782.17,-92.11"/>
</a>
</g>
</g>
<!-- Node6&#45;&gt;Node10 -->
<g id="edge9_Node000006_Node000010" class="edge">
<title>Node6&#45;&gt;Node10</title>
<g id="a_edge9_Node000006_Node000010"><a xlink:title=" ">
<path fill="none" stroke="#63b8ff" d="M630.74,-120.99C559.36,-109.2 431.84,-88.12 367.56,-77.5"/>
<polygon fill="#63b8ff" stroke="#63b8ff" points="367.87,-74.01 357.44,-75.83 366.73,-80.91 367.87,-74.01"/>
</a>
</g>
</g>
<!-- Node11 -->
<g id="Node000011" class="node">
<title>Node11</title>
<g id="a_Node000011"><a xlink:title=" ">
<polygon fill="#e0e0e0" stroke="#999999" points="1045.22,-79.5 1001.22,-79.5 1001.22,-60.5 1045.22,-60.5 1045.22,-79.5"/>
<text text-anchor="middle" x="1023.22" y="-67.5" font-family="Helvetica,sans-Serif" font-size="10.00">string</text>
</a>
</g>
</g>
<!-- Node6&#45;&gt;Node11 -->
<g id="edge10_Node000006_Node000011" class="edge">
<title>Node6&#45;&gt;Node11</title>
<g id="a_edge10_Node000006_Node000011"><a xlink:title=" ">
<path fill="none" stroke="#63b8ff" d="M731.8,-120.99C802.73,-108.83 931.16,-86.79 990.96,-76.53"/>
<polygon fill="#63b8ff" stroke="#63b8ff" points="991.7,-79.96 1000.96,-74.82 990.52,-73.06 991.7,-79.96"/>
</a>
</g>
</g>
<!-- Node12 -->
<g id="Node000012" class="node">
<title>Node12</title>
<g id="a_Node000012"><a xlink:title=" ">
<polygon fill="#e0e0e0" stroke="#999999" points="624.72,-79.5 577.72,-79.5 577.72,-60.5 624.72,-60.5 624.72,-79.5"/>
<text text-anchor="middle" x="601.22" y="-67.5" font-family="Helvetica,sans-Serif" font-size="10.00">vector</text>
</a>
</g>
</g>
<!-- Node6&#45;&gt;Node12 -->
<g id="edge11_Node000006_Node000012" class="edge">
<title>Node6&#45;&gt;Node12</title>
<g id="a_edge11_Node000006_Node000012"><a xlink:title=" ">
<path fill="none" stroke="#63b8ff" d="M670.27,-120.87C657.47,-111.62 636.92,-96.78 621.56,-85.69"/>
<polygon fill="#63b8ff" stroke="#63b8ff" points="623.38,-82.68 613.22,-79.67 619.28,-88.36 623.38,-82.68"/>
</a>
</g>
</g>
<!-- Node9 -->
<g id="Node000009" class="node">
<title>Node9</title>
<g id="a_Node000009"><a xlink:title=" ">
<polygon fill="#e0e0e0" stroke="#999999" points="856.72,-19 791.72,-19 791.72,0 856.72,0 856.72,-19"/>
<text text-anchor="middle" x="824.22" y="-7" font-family="Helvetica,sans-Serif" font-size="10.00">exception</text>
</a>
</g>
</g>
<!-- Node8&#45;&gt;Node9 -->
<g id="edge8_Node000008_Node000009" class="edge">
<title>Node8&#45;&gt;Node9</title>
<g id="a_edge8_Node000008_Node000009"><a xlink:title=" ">
<path fill="none" stroke="#63b8ff" d="M824.22,-54.84C824.22,-47.21 824.22,-37.7 824.22,-29.45"/>
<polygon fill="#63b8ff" stroke="#63b8ff" points="827.72,-29.27 824.22,-19.27 820.72,-29.27 827.72,-29.27"/>
</a>
</g>
</g>
<!-- Node13&#45;&gt;Node11 -->
<g id="edge13_Node000013_Node000011" class="edge">
<title>Node13&#45;&gt;Node11</title>
<g id="a_edge13_Node000013_Node000011"><a xlink:title=" ">
<path fill="none" stroke="#63b8ff" d="M1145.43,-120.99C1121.28,-111.12 1081.24,-94.73 1053.6,-83.43"/>
<polygon fill="#63b8ff" stroke="#63b8ff" points="1054.62,-80.06 1044.04,-79.52 1051.97,-86.54 1054.62,-80.06"/>
</a>
</g>
</g>
<!-- Node14&#45;&gt;Node6 -->
<g id="edge15_Node000014_Node000006" class="edge">
<title>Node14&#45;&gt;Node6</title>
<g id="a_edge15_Node000014_Node000006"><a xlink:title=" ">
<path fill="none" stroke="#63b8ff" d="M429.99,-236.46C491.77,-227.1 582.73,-211.25 614.22,-195 636.54,-183.49 656.83,-162.53 669.32,-147.86"/>
<polygon fill="#63b8ff" stroke="#63b8ff" points="672.09,-150 675.74,-140.06 666.68,-145.56 672.09,-150"/>
</a>
</g>
</g>
<!-- Node14&#45;&gt;Node10 -->
<g id="edge18_Node000014_Node000010" class="edge">
<title>Node14&#45;&gt;Node10</title>
<g id="a_edge18_Node000014_Node000010"><a xlink:title=" ">
<path fill="none" stroke="#63b8ff" d="M364.61,-236.41C359.56,-226.65 351.62,-210.12 347.22,-195 336.6,-158.53 331.63,-114.21 329.54,-89.66"/>
<polygon fill="#63b8ff" stroke="#63b8ff" points="333.03,-89.28 328.76,-79.59 326.05,-89.83 333.03,-89.28"/>
</a>
</g>
</g>
<!-- Node14&#45;&gt;Node12 -->
<g id="edge19_Node000014_Node000012" class="edge">
<title>Node14&#45;&gt;Node12</title>
<g id="a_edge19_Node000014_Node000012"><a xlink:title=" ">
<path fill="none" stroke="#63b8ff" d="M391.38,-236.46C412.79,-227.69 445.66,-212.82 471.22,-195 518.11,-162.31 564.5,-112.87 587.06,-87.42"/>
<polygon fill="#63b8ff" stroke="#63b8ff" points="589.81,-89.59 593.77,-79.77 584.54,-84.98 589.81,-89.59"/>
</a>
</g>
</g>
<!-- Node15 -->
<g id="Node000015" class="node">
<title>Node15</title>
<g id="a_Node000015"><a xlink:title=" ">
<polygon fill="#e0e0e0" stroke="#999999" points="462.22,-195 356.22,-195 356.22,-176 462.22,-176 462.22,-195"/>
<text text-anchor="middle" x="409.22" y="-183" font-family="Helvetica,sans-Serif" font-size="10.00">SDL3/SDL_pixels.h</text>
</a>
</g>
</g>
<!-- Node14&#45;&gt;Node15 -->
<g id="edge16_Node000014_Node000015" class="edge">
<title>Node14&#45;&gt;Node15</title>
<g id="a_edge16_Node000014_Node000015"><a xlink:title=" ">
<path fill="none" stroke="#63b8ff" d="M375.12,-236.37C380.97,-227.81 390.09,-214.47 397.43,-203.74"/>
<polygon fill="#63b8ff" stroke="#63b8ff" points="400.54,-205.4 403.29,-195.17 394.76,-201.45 400.54,-205.4"/>
</a>
</g>
</g>
<!-- Node16 -->
<g id="Node000016" class="node">
<title>Node16</title>
<g id="a_Node000016"><a xlink:title=" ">
<polygon fill="#e0e0e0" stroke="#999999" points="994.22,-195 886.22,-195 886.22,-176 994.22,-176 994.22,-195"/>
<text text-anchor="middle" x="940.22" y="-183" font-family="Helvetica,sans-Serif" font-size="10.00">SDL3/SDL_render.h</text>
</a>
</g>
</g>
<!-- Node14&#45;&gt;Node16 -->
<g id="edge17_Node000014_Node000016" class="edge">
<title>Node14&#45;&gt;Node16</title>
<g id="a_edge17_Node000014_Node000016"><a xlink:title=" ">
<path fill="none" stroke="#63b8ff" d="M430.26,-236.49C444.97,-234.57 460.64,-232.61 475.22,-231 650.29,-211.61 697.27,-214.87 875.94,-195.1"/>
<polygon fill="#63b8ff" stroke="#63b8ff" points="876.39,-198.57 885.94,-193.98 875.62,-191.61 876.39,-198.57"/>
</a>
</g>
</g>
<!-- Node19&#45;&gt;Node3 -->
<g id="edge23_Node000019_Node000003" class="edge">
<title>Node19&#45;&gt;Node3</title>
<g id="a_edge23_Node000019_Node000003"><a xlink:title=" ">
<path fill="none" stroke="#63b8ff" d="M408.26,-296.95C436.27,-287.37 473.57,-274.6 503.45,-264.37"/>
<polygon fill="#63b8ff" stroke="#63b8ff" points="504.95,-267.56 513.28,-261.01 502.68,-260.94 504.95,-267.56"/>
</a>
</g>
</g>
<!-- Node20&#45;&gt;Node10 -->
<g id="edge30_Node000020_Node000010" class="edge">
<title>Node20&#45;&gt;Node10</title>
<g id="a_edge30_Node000020_Node000010"><a xlink:title=" ">
<path fill="none" stroke="#63b8ff" d="M1018.09,-296.99C977.47,-287.71 923.96,-274.76 877.22,-261 677.78,-202.31 443.6,-114.96 359.91,-83.14"/>
<polygon fill="#63b8ff" stroke="#63b8ff" points="361.05,-79.83 350.46,-79.55 358.56,-86.38 361.05,-79.83"/>
</a>
</g>
</g>
<!-- Node20&#45;&gt;Node16 -->
<g id="edge29_Node000020_Node000016" class="edge">
<title>Node20&#45;&gt;Node16</title>
<g id="a_edge29_Node000020_Node000016"><a xlink:title=" ">
<path fill="none" stroke="#63b8ff" d="M1089,-296.72C1096.13,-279.4 1104.5,-250.13 1090.22,-231 1070.43,-204.48 1035.51,-193.13 1004.34,-188.51"/>
<polygon fill="#63b8ff" stroke="#63b8ff" points="1004.74,-185.03 994.37,-187.23 1003.85,-191.97 1004.74,-185.03"/>
</a>
</g>
</g>
<!-- Node21 -->
<g id="Node000021" class="node">
<title>Node21</title>
<g id="a_Node000021"><a xlink:href="../../dd/db8/Renderer_8hpp.html" target="_top" xlink:title=" ">
<polygon fill="white" stroke="#666666" points="966.72,-255.5 885.72,-255.5 885.72,-236.5 966.72,-236.5 966.72,-255.5"/>
<text text-anchor="middle" x="926.22" y="-243.5" font-family="Helvetica,sans-Serif" font-size="10.00">Renderer.hpp</text>
</a>
</g>
</g>
<!-- Node20&#45;&gt;Node21 -->
<g id="edge25_Node000020_Node000021" class="edge">
<title>Node20&#45;&gt;Node21</title>
<g id="a_edge25_Node000020_Node000021"><a xlink:title=" ">
<path fill="none" stroke="#63b8ff" d="M1047.98,-296.95C1020.63,-285.73 982.65,-270.15 956.41,-259.39"/>
<polygon fill="#63b8ff" stroke="#63b8ff" points="957.56,-256.07 946.98,-255.52 954.9,-262.55 957.56,-256.07"/>
</a>
</g>
</g>
<!-- Node22 -->
<g id="Node000022" class="node">
<title>Node22</title>
<g id="a_Node000022"><a xlink:title=" ">
<polygon fill="#e0e0e0" stroke="#999999" points="1081.22,-255.5 985.22,-255.5 985.22,-236.5 1081.22,-236.5 1081.22,-255.5"/>
<text text-anchor="middle" x="1033.22" y="-243.5" font-family="Helvetica,sans-Serif" font-size="10.00">SDL3/SDL_rect.h</text>
</a>
</g>
</g>
<!-- Node20&#45;&gt;Node22 -->
<g id="edge28_Node000020_Node000022" class="edge">
<title>Node20&#45;&gt;Node22</title>
<g id="a_edge28_Node000020_Node000022"><a xlink:title=" ">
<path fill="none" stroke="#63b8ff" d="M1071.34,-296.8C1063.93,-287.11 1054.07,-274.24 1046.24,-264.01"/>
<polygon fill="#63b8ff" stroke="#63b8ff" points="1048.85,-261.66 1039.99,-255.84 1043.29,-265.91 1048.85,-261.66"/>
</a>
</g>
</g>
<!-- Node21&#45;&gt;Node4 -->
<g id="edge26_Node000021_Node000004" class="edge">
<title>Node21&#45;&gt;Node4</title>
<g id="a_edge26_Node000021_Node000004"><a xlink:title=" ">
<path fill="none" stroke="#63b8ff" d="M905.86,-236.49C882.22,-226.62 843.02,-210.23 815.97,-198.93"/>
<polygon fill="#63b8ff" stroke="#63b8ff" points="817.18,-195.64 806.6,-195.02 814.48,-202.1 817.18,-195.64"/>
</a>
</g>
</g>
<!-- Node21&#45;&gt;Node16 -->
<g id="edge27_Node000021_Node000016" class="edge">
<title>Node21&#45;&gt;Node16</title>
<g id="a_edge27_Node000021_Node000016"><a xlink:title=" ">
<path fill="none" stroke="#63b8ff" d="M928.28,-236.37C930.25,-228.16 933.27,-215.54 935.78,-205.05"/>
<polygon fill="#63b8ff" stroke="#63b8ff" points="939.22,-205.71 938.14,-195.17 932.41,-204.08 939.22,-205.71"/>
</a>
</g>
</g>
<!-- Node23&#45;&gt;Node3 -->
<g id="edge32_Node000023_Node000003" class="edge">
<title>Node23&#45;&gt;Node3</title>
<g id="a_edge32_Node000023_Node000003"><a xlink:title=" ">
<path fill="none" stroke="#63b8ff" d="M554.22,-302.37C554.22,-294.49 554.22,-282.45 554.22,-271.6"/>
<polygon fill="#63b8ff" stroke="#63b8ff" points="557.72,-271.36 554.22,-261.36 550.72,-271.36 557.72,-271.36"/>
</a>
</g>
</g>
<!-- Node25 -->
<g id="Node000025" class="node">
<title>Node25</title>
<g id="a_Node000025"><a xlink:href="../../dc/d19/CollisionBehavior_8hpp.html" target="_top" xlink:title=" ">
<polygon fill="white" stroke="#666666" points="219.22,-327 43.22,-327 43.22,-297 219.22,-297 219.22,-327"/>
<text text-anchor="start" x="51.22" y="-315" font-family="Helvetica,sans-Serif" font-size="10.00">../../../engine/components</text>
<text text-anchor="middle" x="131.22" y="-304" font-family="Helvetica,sans-Serif" font-size="10.00">/behaviors/CollisionBehavior.hpp</text>
</a>
</g>
</g>
<!-- Node24&#45;&gt;Node25 -->
<g id="edge34_Node000024_Node000025" class="edge">
<title>Node24&#45;&gt;Node25</title>
<g id="a_edge34_Node000024_Node000025"><a xlink:title=" ">
<path fill="none" stroke="#63b8ff" d="M275.62,-362.95C247.91,-353.37 211.01,-340.6 181.44,-330.37"/>
<polygon fill="#63b8ff" stroke="#63b8ff" points="182.32,-326.97 171.72,-327.01 180.03,-333.59 182.32,-326.97"/>
</a>
</g>
</g>
<!-- Node25&#45;&gt;Node3 -->
<g id="edge35_Node000025_Node000003" class="edge">
<title>Node25&#45;&gt;Node3</title>
<g id="a_edge35_Node000025_Node000003"><a xlink:title=" ">
<path fill="none" stroke="#63b8ff" d="M219.35,-298.96C286.47,-289.61 381.42,-276 473.93,-261.18"/>
<polygon fill="#63b8ff" stroke="#63b8ff" points="474.71,-264.6 484.03,-259.56 473.6,-257.69 474.71,-264.6"/>
</a>
</g>
</g>
<!-- Node25&#45;&gt;Node10 -->
<g id="edge36_Node000025_Node000010" class="edge">
<title>Node25&#45;&gt;Node10</title>
<g id="a_edge36_Node000025_Node000010"><a xlink:title=" ">
<path fill="none" stroke="#63b8ff" d="M142.95,-296.71C177.43,-254.7 278.3,-131.81 314.82,-87.32"/>
<polygon fill="#63b8ff" stroke="#63b8ff" points="317.59,-89.47 321.23,-79.52 312.18,-85.02 317.59,-89.47"/>
</a>
</g>
</g>
<!-- Node26&#45;&gt;Node3 -->
<g id="edge38_Node000026_Node000003" class="edge">
<title>Node26&#45;&gt;Node3</title>
<g id="a_edge38_Node000026_Node000003"><a xlink:title=" ">
<path fill="none" stroke="#63b8ff" d="M705.62,-302.37C679.29,-292.74 636.01,-276.91 602.45,-264.64"/>
<polygon fill="#63b8ff" stroke="#63b8ff" points="603.41,-261.26 592.82,-261.12 601.01,-267.84 603.41,-261.26"/>
</a>
</g>
</g>
<!-- Node27&#45;&gt;Node25 -->
<g id="edge40_Node000027_Node000025" class="edge">
<title>Node27&#45;&gt;Node25</title>
<g id="a_edge40_Node000027_Node000025"><a xlink:title=" ">
<path fill="none" stroke="#63b8ff" d="M131.22,-368.37C131.22,-360.49 131.22,-348.45 131.22,-337.6"/>
<polygon fill="#63b8ff" stroke="#63b8ff" points="134.72,-337.36 131.22,-327.36 127.72,-337.36 134.72,-337.36"/>
</a>
</g>
</g>
</g>
</svg>
