<?xml version="1.0" encoding="UTF-8" standalone="no"?>
<!DOCTYPE svg PUBLIC "-//W3C//DTD SVG 1.1//EN"
 "http://www.w3.org/Graphics/SVG/1.1/DTD/svg11.dtd">
<!-- Generated by graphviz version 2.43.0 (0)
 -->
<!-- Title: UpdateObjects Pages: 1 -->
<svg width="608pt" height="82pt"
 viewBox="0.00 0.00 608.00 82.00" xmlns="http://www.w3.org/2000/svg" xmlns:xlink="http://www.w3.org/1999/xlink">
<g id="graph0" class="graph" transform="scale(1 1) rotate(0) translate(4 78)">
<title>UpdateObjects</title>
<!-- Node1 -->
<g id="Node000001" class="node">
<title>Node1</title>
<g id="a_Node000001"><a xlink:title="Iterate over all objects, and update the appropriately, using OnTick() or Component specific methods.">
<polygon fill="#999999" stroke="#666666" points="89,-55 0,-55 0,-36 89,-36 89,-55"/>
<text text-anchor="middle" x="44.5" y="-43" font-family="Helvetica,sans-Serif" font-size="10.00">UpdateObjects</text>
</a>
</g>
</g>
<!-- Node2 -->
<g id="Node000002" class="node">
<title>Node2</title>
<g id="a_Node000002"><a xlink:href="../../d2/d41/ObjectManagement_8cpp.html#abb664488d26ac602b11cc22de7243458" target="_top" xlink:title=" ">
<polygon fill="white" stroke="#666666" points="268,-74 125,-74 125,-55 268,-55 268,-74"/>
<text text-anchor="middle" x="196.5" y="-62" font-family="Helvetica,sans-Serif" font-size="10.00">HandleComponentUpdate</text>
</a>
</g>
</g>
<!-- Node1&#45;&gt;Node2 -->
<g id="edge1_Node000001_Node000002" class="edge">
<title>Node1&#45;&gt;Node2</title>
<g id="a_edge1_Node000001_Node000002"><a xlink:title=" ">
<path fill="none" stroke="#63b8ff" d="M89.29,-51.05C97.39,-52.07 106.09,-53.17 114.89,-54.29"/>
<polygon fill="#63b8ff" stroke="#63b8ff" points="114.48,-57.77 124.85,-55.55 115.36,-50.82 114.48,-57.77"/>
</a>
</g>
</g>
<!-- Node3 -->
<g id="Node000003" class="node">
<title>Node3</title>
<g id="a_Node000003"><a xlink:href="../../d2/d41/ObjectManagement_8cpp.html#a95ff1ee6a57e678376b2eae2ef499ab3" target="_top" xlink:title=" ">
<polygon fill="white" stroke="#666666" points="268,-37 125,-37 125,-18 268,-18 268,-37"/>
<text text-anchor="middle" x="196.5" y="-25" font-family="Helvetica,sans-Serif" font-size="10.00">WorkThroughFrameQueue</text>
</a>
</g>
</g>
<!-- Node1&#45;&gt;Node3 -->
<g id="edge2_Node000001_Node000003" class="edge">
<title>Node1&#45;&gt;Node3</title>
<g id="a_edge2_Node000001_Node000003"><a xlink:title=" ">
<path fill="none" stroke="#63b8ff" d="M89.29,-40.25C97.39,-39.27 106.09,-38.23 114.89,-37.17"/>
<polygon fill="#63b8ff" stroke="#63b8ff" points="115.33,-40.65 124.85,-35.98 114.5,-33.7 115.33,-40.65"/>
</a>
</g>
</g>
<!-- Node4 -->
<g id="Node000004" class="node">
<title>Node4</title>
<g id="a_Node000004"><a xlink:href="../../d2/d41/ObjectManagement_8cpp.html#ad487b4c14d5f4bf65d056f5c90ac4d72" target="_top" xlink:title=" ">
<polygon fill="white" stroke="#666666" points="445,-56 305,-56 305,-37 445,-37 445,-56"/>
<text text-anchor="middle" x="375" y="-44" font-family="Helvetica,sans-Serif" font-size="10.00">DestroyEnqueuedObjects</text>
</a>
</g>
</g>
<!-- Node3&#45;&gt;Node4 -->
<g id="edge3_Node000003_Node000004" class="edge">
<title>Node3&#45;&gt;Node4</title>
<g id="a_edge3_Node000003_Node000004"><a xlink:title=" ">
<path fill="none" stroke="#63b8ff" d="M268.02,-35.09C276.81,-36.04 285.84,-37.01 294.76,-37.97"/>
<polygon fill="#63b8ff" stroke="#63b8ff" points="294.43,-41.45 304.74,-39.04 295.18,-34.49 294.43,-41.45"/>
</a>
</g>
</g>
<!-- Node6 -->
<g id="Node000006" class="node">
<title>Node6</title>
<g id="a_Node000006"><a xlink:href="../../d2/d41/ObjectManagement_8cpp.html#a25053f13bc5fe6ea1caf5f343cbb30b8" target="_top" xlink:title=" ">
<polygon fill="white" stroke="#666666" points="446,-19 304,-19 304,0 446,0 446,-19"/>
<text text-anchor="middle" x="375" y="-7" font-family="Helvetica,sans-Serif" font-size="10.00">RegisterEnqueuedObjects</text>
</a>
</g>
</g>
<!-- Node3&#45;&gt;Node6 -->
<g id="edge5_Node000003_Node000006" class="edge">
<title>Node3&#45;&gt;Node6</title>
<g id="a_edge5_Node000003_Node000006"><a xlink:title=" ">
<path fill="none" stroke="#63b8ff" d="M268.02,-20.31C276.51,-19.44 285.22,-18.55 293.84,-17.68"/>
<polygon fill="#63b8ff" stroke="#63b8ff" points="294.29,-21.15 303.88,-16.65 293.58,-14.18 294.29,-21.15"/>
</a>
</g>
</g>
<!-- Node5 -->
<g id="Node000005" class="node">
<title>Node5</title>
<g id="a_Node000005"><a xlink:href="../../d2/d41/ObjectManagement_8cpp.html#ab91c7a16c0d19bae45779c2b3eb207f9" target="_top" xlink:title=" ">
<polygon fill="white" stroke="#666666" points="599,-56 483,-56 483,-37 599,-37 599,-56"/>
<text text-anchor="middle" x="541" y="-44" font-family="Helvetica,sans-Serif" font-size="10.00">DestroyGameObject</text>
</a>
</g>
</g>
<!-- Node4&#45;&gt;Node5 -->
<g id="edge4_Node000004_Node000005" class="edge">
<title>Node4&#45;&gt;Node5</title>
<g id="a_edge4_Node000004_Node000005"><a xlink:title=" ">
<path fill="none" stroke="#63b8ff" d="M445.08,-46.5C454.23,-46.5 463.61,-46.5 472.74,-46.5"/>
<polygon fill="#63b8ff" stroke="#63b8ff" points="472.91,-50 482.91,-46.5 472.91,-43 472.91,-50"/>
</a>
</g>
</g>
<!-- Node7 -->
<g id="Node000007" class="node">
<title>Node7</title>
<g id="a_Node000007"><a xlink:href="../../d2/d41/ObjectManagement_8cpp.html#a4eacad131651d21ffbebf4a2108a175c" target="_top" xlink:title=" ">
<polygon fill="white" stroke="#666666" points="600,-19 482,-19 482,0 600,0 600,-19"/>
<text text-anchor="middle" x="541" y="-7" font-family="Helvetica,sans-Serif" font-size="10.00">RegisterGameObject</text>
</a>
</g>
</g>
<!-- Node6&#45;&gt;Node7 -->
<g id="edge6_Node000006_Node000007" class="edge">
<title>Node6&#45;&gt;Node7</title>
<g id="a_edge6_Node000006_Node000007"><a xlink:title=" ">
<path fill="none" stroke="#63b8ff" d="M446.03,-9.5C454.51,-9.5 463.16,-9.5 471.62,-9.5"/>
<polygon fill="#63b8ff" stroke="#63b8ff" points="471.81,-13 481.81,-9.5 471.81,-6 471.81,-13"/>
</a>
</g>
</g>
</g>
</svg>
