<?xml version="1.0" encoding="UTF-8" standalone="no"?>
<!DOCTYPE svg PUBLIC "-//W3C//DTD SVG 1.1//EN"
 "http://www.w3.org/Graphics/SVG/1.1/DTD/svg11.dtd">
<!-- Generated by graphviz version 2.43.0 (0)
 -->
<!-- Title: EnqueueRegisterGameObject Pages: 1 -->
<!--zoomable 362 -->

<svg id="main" version="1.1" xmlns="http://www.w3.org/2000/svg" xmlns:xlink="http://www.w3.org/1999/xlink" xml:space="preserve" onload="init(evt)">

<style type="text/css"><![CDATA[
.node, .edge {opacity: 0.7;}
.node.selected, .edge.selected {opacity: 1;}
.edge:hover path { stroke: red; }
.edge:hover polygon { stroke: red; fill: red; }
]]></style>

<defs>
  <circle id="rim" cx="0" cy="0" r="7"/>
  <circle id="rim2" cx="0" cy="0" r="3.5"/>
  <g id="zoomPlus">
    <use xlink:href="#rim" fill="#404040"><set attributeName="fill" to="#808080" begin="zoomplus.mouseover" end="zoomplus.mouseout"/></use>
    <path d="M-4,0h8M0,-4v8" fill="none" stroke="white" stroke-width="1.5" pointer-events="none"/>
  </g>
  <g id="zoomMin">
    <use xlink:href="#rim" fill="#404040"><set attributeName="fill" to="#808080" begin="zoomminus.mouseover" end="zoomminus.mouseout"/></use>
    <path d="M-4,0h8" fill="none" stroke="white" stroke-width="1.5" pointer-events="none"/>
  </g>
  <g id="arrowUp" transform="translate(30 24)">
    <use xlink:href="#rim"/>
    <path pointer-events="none" fill="none" stroke="white" stroke-width="1.5" d="M0,-3.0v7 M-2.5,-0.5L0,-3.0L2.5,-0.5"/>
  </g>
  <g id="arrowRight" transform="rotate(90) translate(36 -43)">
    <use xlink:href="#rim"/>
    <path pointer-events="none" fill="none" stroke="white" stroke-width="1.5" d="M0,-3.0v7 M-2.5,-0.5L0,-3.0L2.5,-0.5"/>
  </g>
  <g id="arrowDown" transform="rotate(180) translate(-30 -48)">
    <use xlink:href="#rim"/>
    <path pointer-events="none" fill="none" stroke="white" stroke-width="1.5" d="M0,-3.0v7 M-2.5,-0.5L0,-3.0L2.5,-0.5"/>
  </g>
  <g id="arrowLeft" transform="rotate(270) translate(-36 17)">
    <use xlink:href="#rim"/>
    <path pointer-events="none" fill="none" stroke="white" stroke-width="1.5" d="M0,-3.0v7 M-2.5,-0.5L0,-3.0L2.5,-0.5"/>
  </g>
  <g id="resetDef">
    <use xlink:href="#rim2" fill="#404040"><set attributeName="fill" to="#808080" begin="reset.mouseover" end="reset.mouseout"/></use>
  </g>
</defs>
<script type="application/ecmascript">
var viewWidth = 1185;
var viewHeight = 362;
var sectionId = 'dynsection-5';
</script>
<script type="application/ecmascript" xlink:href="../../svg.min.js"/>
<svg id="graph" class="graph">
<g id="viewport">
<title>EnqueueRegisterGameObject</title>
<!-- Node1 -->
<g id="Node000001" class="node">
<title>Node1</title>
<g id="a_Node000001"><a xlink:title="Enqueue an object to be registered on the next frame.">
<polygon fill="#999999" stroke="#666666" points="1177,-185 1017,-185 1017,-166 1177,-166 1177,-185"/>
<text text-anchor="middle" x="1097" y="-173" font-family="Helvetica,sans-Serif" font-size="10.00">EnqueueRegisterGameObject</text>
</a>
</g>
</g>
<!-- Node2 -->
<g id="Node000002" class="node">
<title>Node2</title>
<g id="a_Node000002"><a xlink:href="../../d9/dfa/Init_8cpp.html#a3ff595c2af791c369e2318510062ce14" target="_top" xlink:title="Create the coffee meter bar.">
<polygon fill="white" stroke="#666666" points="971,-354 862,-354 862,-335 971,-335 971,-354"/>
<text text-anchor="middle" x="916.5" y="-342" font-family="Helvetica,sans-Serif" font-size="10.00">CreateCoffeeMeter</text>
</a>
</g>
</g>
<!-- Node1&#45;&gt;Node2 -->
<g id="edge1_Node000001_Node000002" class="edge">
<title>Node1&#45;&gt;Node2</title>
<g id="a_edge1_Node000001_Node000002"><a xlink:title=" ">
<path fill="none" stroke="#63b8ff" d="M1085.95,-193.8C1068.43,-224.17 1029.46,-285.1 981,-320.5 972.62,-326.62 962.5,-331.36 952.83,-334.96"/>
<polygon fill="#63b8ff" stroke="#63b8ff" points="1089.01,-195.52 1090.88,-185.09 1082.91,-192.08 1089.01,-195.52"/>
</a>
</g>
</g>
<!-- Node3 -->
<g id="Node000003" class="node">
<title>Node3</title>
<g id="a_Node000003"><a xlink:href="../../d9/dfa/Init_8cpp.html#aaa64e8fd06230fa14e507cef71a3217d" target="_top" xlink:title="Create the initial gameobjects required for the game.">
<polygon fill="white" stroke="#666666" points="816,-222 673,-222 673,-203 816,-203 816,-222"/>
<text text-anchor="middle" x="744.5" y="-210" font-family="Helvetica,sans-Serif" font-size="10.00">CreateInitialGameObjects</text>
</a>
</g>
</g>
<!-- Node1&#45;&gt;Node3 -->
<g id="edge15_Node000001_Node000003" class="edge">
<title>Node1&#45;&gt;Node3</title>
<g id="a_edge15_Node000001_Node000003"><a xlink:title=" ">
<path fill="none" stroke="#63b8ff" d="M1084.38,-193.56C1066.12,-220.07 1027.88,-268.44 981,-287.5 927.89,-309.09 906.66,-304.81 852,-287.5 810.82,-274.46 771.81,-239.13 754.65,-222.03"/>
<polygon fill="#63b8ff" stroke="#63b8ff" points="1087.34,-195.43 1089.99,-185.17 1081.52,-191.54 1087.34,-195.43"/>
</a>
</g>
</g>
<!-- Node11 -->
<g id="Node000011" class="node">
<title>Node11</title>
<g id="a_Node000011"><a xlink:href="../../d9/dfa/Init_8cpp.html#a1bfb628b6cd503e396bae0796f2051c1" target="_top" xlink:title="Create the icon next to the coffee meter.">
<polygon fill="white" stroke="#666666" points="981,-278 852,-278 852,-259 981,-259 981,-278"/>
<text text-anchor="middle" x="916.5" y="-266" font-family="Helvetica,sans-Serif" font-size="10.00">CreateCoffeeMeterIcon</text>
</a>
</g>
</g>
<!-- Node1&#45;&gt;Node11 -->
<g id="edge11_Node000001_Node000011" class="edge">
<title>Node1&#45;&gt;Node11</title>
<g id="a_edge11_Node000001_Node000011"><a xlink:title=" ">
<path fill="none" stroke="#63b8ff" d="M1075.99,-191.26C1053.86,-208.02 1016.62,-234.29 981,-250.5 973.8,-253.77 965.87,-256.59 958.13,-258.96"/>
<polygon fill="#63b8ff" stroke="#63b8ff" points="1078.16,-194 1083.96,-185.14 1073.9,-188.45 1078.16,-194"/>
</a>
</g>
</g>
<!-- Node12 -->
<g id="Node000012" class="node">
<title>Node12</title>
<g id="a_Node000012"><a xlink:href="../../d9/dfa/Init_8cpp.html#a7577908172d93807ef67f163f851fe5e" target="_top" xlink:title="Create the floor and register it.">
<polygon fill="white" stroke="#666666" points="953.5,-241 879.5,-241 879.5,-222 953.5,-222 953.5,-241"/>
<text text-anchor="middle" x="916.5" y="-229" font-family="Helvetica,sans-Serif" font-size="10.00">CreateFloor</text>
</a>
</g>
</g>
<!-- Node1&#45;&gt;Node12 -->
<g id="edge13_Node000001_Node000012" class="edge">
<title>Node1&#45;&gt;Node12</title>
<g id="a_edge13_Node000001_Node000012"><a xlink:title=" ">
<path fill="none" stroke="#63b8ff" d="M1058.73,-188.26C1036.29,-195.84 1007.09,-205.5 981,-213.5 971.69,-216.36 961.56,-219.3 952.18,-221.96"/>
<polygon fill="#63b8ff" stroke="#63b8ff" points="1059.87,-191.57 1068.22,-185.05 1057.63,-184.94 1059.87,-191.57"/>
</a>
</g>
</g>
<!-- Node13 -->
<g id="Node000013" class="node">
<title>Node13</title>
<g id="a_Node000013"><a xlink:href="../../d9/dfa/Init_8cpp.html#a8ad8206fa2846739c5e76ce97b6b2783" target="_top" xlink:title="Create the score counter and register it.">
<polygon fill="white" stroke="#666666" points="973.5,-204 859.5,-204 859.5,-185 973.5,-185 973.5,-204"/>
<text text-anchor="middle" x="916.5" y="-192" font-family="Helvetica,sans-Serif" font-size="10.00">CreateScoreCounter</text>
</a>
</g>
</g>
<!-- Node1&#45;&gt;Node13 -->
<g id="edge16_Node000001_Node000013" class="edge">
<title>Node1&#45;&gt;Node13</title>
<g id="a_edge16_Node000001_Node000013"><a xlink:title=" ">
<path fill="none" stroke="#63b8ff" d="M1006.66,-185.01C995.46,-186.2 984.26,-187.39 973.76,-188.51"/>
<polygon fill="#63b8ff" stroke="#63b8ff" points="1007.35,-188.46 1016.93,-183.92 1006.61,-181.49 1007.35,-188.46"/>
</a>
</g>
</g>
<!-- Node14 -->
<g id="Node000014" class="node">
<title>Node14</title>
<g id="a_Node000014"><a xlink:href="../../d5/dda/ObjectSpawning_8cpp.html#ad8f89b5d9076607112a750cc140f07ec" target="_top" xlink:title="Spawn a new coffee object.">
<polygon fill="white" stroke="#666666" points="956.5,-56 876.5,-56 876.5,-37 956.5,-37 956.5,-56"/>
<text text-anchor="middle" x="916.5" y="-44" font-family="Helvetica,sans-Serif" font-size="10.00">SpawnCoffee</text>
</a>
</g>
</g>
<!-- Node1&#45;&gt;Node14 -->
<g id="edge18_Node000001_Node000014" class="edge">
<title>Node1&#45;&gt;Node14</title>
<g id="a_edge18_Node000001_Node000014"><a xlink:title=" ">
<path fill="none" stroke="#63b8ff" d="M1082.06,-157.66C1062.16,-133.38 1023.32,-90.13 981,-65.5 973.54,-61.16 965,-57.73 956.66,-55.05"/>
<polygon fill="#63b8ff" stroke="#63b8ff" points="1079.51,-160.08 1088.5,-165.68 1084.97,-155.69 1079.51,-160.08"/>
</a>
</g>
</g>
<!-- Node16 -->
<g id="Node000016" class="node">
<title>Node16</title>
<g id="a_Node000016"><a xlink:href="../../d5/dda/ObjectSpawning_8cpp.html#abb03ee227a4d9759be2916f379f21c86" target="_top" xlink:title="Spawn a new enemy.">
<polygon fill="white" stroke="#666666" points="958,-19 875,-19 875,0 958,0 958,-19"/>
<text text-anchor="middle" x="916.5" y="-7" font-family="Helvetica,sans-Serif" font-size="10.00">SpawnEnemy</text>
</a>
</g>
</g>
<!-- Node1&#45;&gt;Node16 -->
<g id="edge20_Node000001_Node000016" class="edge">
<title>Node1&#45;&gt;Node16</title>
<g id="a_edge20_Node000001_Node000016"><a xlink:title=" ">
<path fill="none" stroke="#63b8ff" d="M1086.62,-156.8C1069.84,-125.27 1031.64,-61.64 981,-27.5 974.16,-22.89 966.14,-19.45 958.15,-16.88"/>
<polygon fill="#63b8ff" stroke="#63b8ff" points="1083.59,-158.57 1091.31,-165.83 1089.81,-155.34 1083.59,-158.57"/>
</a>
</g>
</g>
<!-- Node17 -->
<g id="Node000017" class="node">
<title>Node17</title>
<g id="a_Node000017"><a xlink:href="../../d9/dfa/Init_8cpp.html#a374cb6f303f72b5af970063ff1318f24" target="_top" xlink:title="Create the left wall and register it.">
<polygon fill="white" stroke="#666666" points="960.5,-167 872.5,-167 872.5,-148 960.5,-148 960.5,-167"/>
<text text-anchor="middle" x="916.5" y="-155" font-family="Helvetica,sans-Serif" font-size="10.00">SpawnLeftWall</text>
</a>
</g>
</g>
<!-- Node1&#45;&gt;Node17 -->
<g id="edge22_Node000001_Node000017" class="edge">
<title>Node1&#45;&gt;Node17</title>
<g id="a_edge22_Node000001_Node000017"><a xlink:title=" ">
<path fill="none" stroke="#63b8ff" d="M1006.89,-166.51C990.73,-164.88 974.57,-163.25 960.52,-161.84"/>
<polygon fill="#63b8ff" stroke="#63b8ff" points="1006.63,-170.01 1016.93,-167.53 1007.33,-163.04 1006.63,-170.01"/>
</a>
</g>
</g>
<!-- Node18 -->
<g id="Node000018" class="node">
<title>Node18</title>
<g id="a_Node000018"><a xlink:href="../../d9/dfa/Init_8cpp.html#aa021dfea28868af5fdc6eb97fdf11395" target="_top" xlink:title="Create the player and register it.">
<polygon fill="white" stroke="#666666" points="956.5,-130 876.5,-130 876.5,-111 956.5,-111 956.5,-130"/>
<text text-anchor="middle" x="916.5" y="-118" font-family="Helvetica,sans-Serif" font-size="10.00">SpawnPlayer</text>
</a>
</g>
</g>
<!-- Node1&#45;&gt;Node18 -->
<g id="edge24_Node000001_Node000018" class="edge">
<title>Node1&#45;&gt;Node18</title>
<g id="a_edge24_Node000001_Node000018"><a xlink:title=" ">
<path fill="none" stroke="#63b8ff" d="M1056.06,-162.86C1033.95,-155.9 1005.98,-147.15 981,-139.5 970.88,-136.4 959.83,-133.08 949.83,-130.09"/>
<polygon fill="#63b8ff" stroke="#63b8ff" points="1055.18,-166.25 1065.77,-165.92 1057.28,-159.58 1055.18,-166.25"/>
</a>
</g>
</g>
<!-- Node19 -->
<g id="Node000019" class="node">
<title>Node19</title>
<g id="a_Node000019"><a xlink:href="../../d9/dfa/Init_8cpp.html#a0e2d0321a787eb9a3b705489c8f2b86b" target="_top" xlink:title="Create the right wall and register it.">
<polygon fill="white" stroke="#666666" points="964,-93 869,-93 869,-74 964,-74 964,-93"/>
<text text-anchor="middle" x="916.5" y="-81" font-family="Helvetica,sans-Serif" font-size="10.00">SpawnRightWall</text>
</a>
</g>
</g>
<!-- Node1&#45;&gt;Node19 -->
<g id="edge26_Node000001_Node000019" class="edge">
<title>Node1&#45;&gt;Node19</title>
<g id="a_edge26_Node000001_Node000019"><a xlink:title=" ">
<path fill="none" stroke="#63b8ff" d="M1075.21,-159.81C1052.92,-143.6 1015.98,-118.47 981,-102.5 973.04,-98.87 964.22,-95.72 955.73,-93.08"/>
<polygon fill="#63b8ff" stroke="#63b8ff" points="1073.43,-162.84 1083.55,-165.96 1077.58,-157.21 1073.43,-162.84"/>
</a>
</g>
</g>
<!-- Node2&#45;&gt;Node3 -->
<g id="edge2_Node000002_Node000003" class="edge">
<title>Node2&#45;&gt;Node3</title>
<g id="a_edge2_Node000002_Node000003"><a xlink:title=" ">
<path fill="none" stroke="#63b8ff" d="M872.57,-331.18C865.44,-328.16 858.32,-324.61 852,-320.5 808.3,-292.06 768.49,-243.01 752.69,-222.24"/>
<polygon fill="#63b8ff" stroke="#63b8ff" points="871.64,-334.58 882.23,-334.97 874.19,-328.06 871.64,-334.58"/>
</a>
</g>
</g>
<!-- Node4 -->
<g id="Node000004" class="node">
<title>Node4</title>
<g id="a_Node000004"><a xlink:href="../../d1/d99/Lifecycle_8cpp.html#af0000b43ed614b94179e358d523c9245" target="_top" xlink:title="Initialize the game to the default state.">
<polygon fill="white" stroke="#666666" points="509,-241 421,-241 421,-222 509,-222 509,-241"/>
<text text-anchor="middle" x="465" y="-229" font-family="Helvetica,sans-Serif" font-size="10.00">InitializeGame</text>
</a>
</g>
</g>
<!-- Node3&#45;&gt;Node4 -->
<g id="edge3_Node000003_Node000004" class="edge">
<title>Node3&#45;&gt;Node4</title>
<g id="a_edge3_Node000003_Node000004"><a xlink:title=" ">
<path fill="none" stroke="#63b8ff" d="M662.59,-218.04C612.52,-221.47 550.21,-225.73 509.33,-228.53"/>
<polygon fill="#63b8ff" stroke="#63b8ff" points="663.02,-221.52 672.76,-217.34 662.54,-214.54 663.02,-221.52"/>
</a>
</g>
</g>
<!-- Node6 -->
<g id="Node000006" class="node">
<title>Node6</title>
<g id="a_Node000006"><a xlink:href="../../d1/d99/Lifecycle_8cpp.html#a7be4f604c1baeb7cac84122a7f2438cf" target="_top" xlink:title="Reset the game to the initial state.">
<polygon fill="white" stroke="#666666" points="637,-203 563,-203 563,-184 637,-184 637,-203"/>
<text text-anchor="middle" x="600" y="-191" font-family="Helvetica,sans-Serif" font-size="10.00">ResetGame</text>
</a>
</g>
</g>
<!-- Node3&#45;&gt;Node6 -->
<g id="edge5_Node000003_Node000006" class="edge">
<title>Node3&#45;&gt;Node6</title>
<g id="a_edge5_Node000003_Node000006"><a xlink:title=" ">
<path fill="none" stroke="#63b8ff" d="M662.61,-201.71C653.75,-200.53 645.09,-199.38 637.2,-198.33"/>
<polygon fill="#63b8ff" stroke="#63b8ff" points="662.29,-205.2 672.67,-203.06 663.22,-198.26 662.29,-205.2"/>
</a>
</g>
</g>
<!-- Node5 -->
<g id="Node000005" class="node">
<title>Node5</title>
<g id="a_Node000005"><a xlink:href="../../df/d0a/main_8cpp.html#ae66f6b31b5ad750f1fe042a706a4e3d4" target="_top" xlink:title="Entry point of the program.">
<polygon fill="white" stroke="#666666" points="41,-222 0,-222 0,-203 41,-203 41,-222"/>
<text text-anchor="middle" x="20.5" y="-210" font-family="Helvetica,sans-Serif" font-size="10.00">main</text>
</a>
</g>
</g>
<!-- Node4&#45;&gt;Node5 -->
<g id="edge4_Node000004_Node000005" class="edge">
<title>Node4&#45;&gt;Node5</title>
<g id="a_edge4_Node000004_Node000005"><a xlink:title=" ">
<path fill="none" stroke="#63b8ff" d="M410.73,-229.21C312.25,-224.98 105.89,-216.12 41.28,-213.35"/>
<polygon fill="#63b8ff" stroke="#63b8ff" points="410.62,-232.71 420.77,-229.64 410.92,-225.72 410.62,-232.71"/>
</a>
</g>
</g>
<!-- Node7 -->
<g id="Node000007" class="node">
<title>Node7</title>
<g id="a_Node000007"><a xlink:href="../../de/dfd/GameManagement_8cpp.html#a2877bc3a946eb46940e5cdedcaf4e3f6" target="_top" xlink:title=" ">
<polygon fill="white" stroke="#666666" points="527,-203 403,-203 403,-184 527,-184 527,-203"/>
<text text-anchor="middle" x="465" y="-191" font-family="Helvetica,sans-Serif" font-size="10.00">ResetGameIfRequired</text>
</a>
</g>
</g>
<!-- Node6&#45;&gt;Node7 -->
<g id="edge6_Node000006_Node000007" class="edge">
<title>Node6&#45;&gt;Node7</title>
<g id="a_edge6_Node000006_Node000007"><a xlink:title=" ">
<path fill="none" stroke="#63b8ff" d="M552.54,-193.5C544.32,-193.5 535.66,-193.5 527.11,-193.5"/>
<polygon fill="#63b8ff" stroke="#63b8ff" points="552.66,-197 562.66,-193.5 552.66,-190 552.66,-197"/>
</a>
</g>
</g>
<!-- Node8 -->
<g id="Node000008" class="node">
<title>Node8</title>
<g id="a_Node000008"><a xlink:href="../../de/dfd/GameManagement_8cpp.html#a96314a1ad91ef741694603ff58e7bee7" target="_top" xlink:title="Run the actions that have to be run every frame.">
<polygon fill="white" stroke="#666666" points="367,-203 265,-203 265,-184 367,-184 367,-203"/>
<text text-anchor="middle" x="316" y="-191" font-family="Helvetica,sans-Serif" font-size="10.00">RunFrameActions</text>
</a>
</g>
</g>
<!-- Node7&#45;&gt;Node8 -->
<g id="edge7_Node000007_Node000008" class="edge">
<title>Node7&#45;&gt;Node8</title>
<g id="a_edge7_Node000007_Node000008"><a xlink:title=" ">
<path fill="none" stroke="#63b8ff" d="M392.88,-193.5C384.26,-193.5 375.61,-193.5 367.39,-193.5"/>
<polygon fill="#63b8ff" stroke="#63b8ff" points="392.94,-197 402.94,-193.5 392.94,-190 392.94,-197"/>
</a>
</g>
</g>
<!-- Node9 -->
<g id="Node000009" class="node">
<title>Node9</title>
<g id="a_Node000009"><a xlink:href="../../df/d0a/main_8cpp.html#a7086da5d86cc10820ea267aaef1e8439" target="_top" xlink:title="Executed every frame.">
<polygon fill="white" stroke="#666666" points="229,-203 182,-203 182,-184 229,-184 229,-203"/>
<text text-anchor="middle" x="205.5" y="-191" font-family="Helvetica,sans-Serif" font-size="10.00">Frame</text>
</a>
</g>
</g>
<!-- Node8&#45;&gt;Node9 -->
<g id="edge8_Node000008_Node000009" class="edge">
<title>Node8&#45;&gt;Node9</title>
<g id="a_edge8_Node000008_Node000009"><a xlink:title=" ">
<path fill="none" stroke="#63b8ff" d="M254.87,-193.5C245.68,-193.5 236.71,-193.5 229.05,-193.5"/>
<polygon fill="#63b8ff" stroke="#63b8ff" points="254.88,-197 264.88,-193.5 254.88,-190 254.88,-197"/>
</a>
</g>
</g>
<!-- Node10 -->
<g id="Node000010" class="node">
<title>Node10</title>
<g id="a_Node000010"><a xlink:href="../../df/d0a/main_8cpp.html#a1ccba604c34743e18775c4c72ff36948" target="_top" xlink:title="The main game loop, runs until QuitGame is set to true.">
<polygon fill="white" stroke="#666666" points="146,-203 77,-203 77,-184 146,-184 146,-203"/>
<text text-anchor="middle" x="111.5" y="-191" font-family="Helvetica,sans-Serif" font-size="10.00">GameLoop</text>
</a>
</g>
</g>
<!-- Node9&#45;&gt;Node10 -->
<g id="edge9_Node000009_Node000010" class="edge">
<title>Node9&#45;&gt;Node10</title>
<g id="a_edge9_Node000009_Node000010"><a xlink:title=" ">
<path fill="none" stroke="#63b8ff" d="M171.67,-193.5C163.37,-193.5 154.44,-193.5 146.1,-193.5"/>
<polygon fill="#63b8ff" stroke="#63b8ff" points="171.76,-197 181.76,-193.5 171.76,-190 171.76,-197"/>
</a>
</g>
</g>
<!-- Node10&#45;&gt;Node5 -->
<g id="edge10_Node000010_Node000005" class="edge">
<title>Node10&#45;&gt;Node5</title>
<g id="a_edge10_Node000010_Node000005"><a xlink:title=" ">
<path fill="none" stroke="#63b8ff" d="M66.83,-202.82C57.86,-204.74 48.85,-206.66 41.25,-208.28"/>
<polygon fill="#63b8ff" stroke="#63b8ff" points="67.8,-206.19 76.85,-200.68 66.34,-199.35 67.8,-206.19"/>
</a>
</g>
</g>
<!-- Node11&#45;&gt;Node3 -->
<g id="edge12_Node000011_Node000003" class="edge">
<title>Node11&#45;&gt;Node3</title>
<g id="a_edge12_Node000011_Node000003"><a xlink:title=" ">
<path fill="none" stroke="#63b8ff" d="M870.45,-256.13C864.23,-254.31 857.94,-252.4 852,-250.5 823.95,-241.53 792.21,-230.03 770.73,-222.04"/>
<polygon fill="#63b8ff" stroke="#63b8ff" points="869.53,-259.51 880.11,-258.92 871.47,-252.78 869.53,-259.51"/>
</a>
</g>
</g>
<!-- Node12&#45;&gt;Node3 -->
<g id="edge14_Node000012_Node000003" class="edge">
<title>Node12&#45;&gt;Node3</title>
<g id="a_edge14_Node000012_Node000003"><a xlink:title=" ">
<path fill="none" stroke="#63b8ff" d="M869.1,-226.31C852.78,-224.49 834.04,-222.4 816.17,-220.4"/>
<polygon fill="#63b8ff" stroke="#63b8ff" points="869.12,-229.84 879.45,-227.47 869.9,-222.88 869.12,-229.84"/>
</a>
</g>
</g>
<!-- Node13&#45;&gt;Node3 -->
<g id="edge17_Node000013_Node000003" class="edge">
<title>Node13&#45;&gt;Node3</title>
<g id="a_edge17_Node000013_Node000003"><a xlink:title=" ">
<path fill="none" stroke="#63b8ff" d="M849.14,-201.53C838.31,-202.67 827.06,-203.86 816.13,-205.02"/>
<polygon fill="#63b8ff" stroke="#63b8ff" points="849.79,-204.98 859.36,-200.44 849.05,-198.02 849.79,-204.98"/>
</a>
</g>
</g>
<!-- Node15 -->
<g id="Node000015" class="node">
<title>Node15</title>
<g id="a_Node000015"><a xlink:href="../../d1/d21/classGameManagerBehavior.html#a432014bfe65aa92c7f74b7e6e88c475a" target="_top" xlink:title="Executed every frame.">
<polygon fill="white" stroke="#666666" points="810.5,-43.5 678.5,-43.5 678.5,-13.5 810.5,-13.5 810.5,-43.5"/>
<text text-anchor="start" x="686.5" y="-31.5" font-family="Helvetica,sans-Serif" font-size="10.00">GameManagerBehavior</text>
<text text-anchor="middle" x="744.5" y="-20.5" font-family="Helvetica,sans-Serif" font-size="10.00">::OnTick</text>
</a>
</g>
</g>
<!-- Node14&#45;&gt;Node15 -->
<g id="edge19_Node000014_Node000015" class="edge">
<title>Node14&#45;&gt;Node15</title>
<g id="a_edge19_Node000014_Node000015"><a xlink:title=" ">
<path fill="none" stroke="#63b8ff" d="M866.55,-41.32C849.12,-39.47 829.21,-37.36 810.64,-35.4"/>
<polygon fill="#63b8ff" stroke="#63b8ff" points="866.19,-44.8 876.5,-42.37 866.92,-37.84 866.19,-44.8"/>
</a>
</g>
</g>
<!-- Node16&#45;&gt;Node15 -->
<g id="edge21_Node000016_Node000015" class="edge">
<title>Node16&#45;&gt;Node15</title>
<g id="a_edge21_Node000016_Node000015"><a xlink:title=" ">
<path fill="none" stroke="#63b8ff" d="M864.57,-15.19C847.66,-17.08 828.61,-19.21 810.78,-21.2"/>
<polygon fill="#63b8ff" stroke="#63b8ff" points="865.23,-18.64 874.78,-14.05 864.45,-11.68 865.23,-18.64"/>
</a>
</g>
</g>
<!-- Node17&#45;&gt;Node3 -->
<g id="edge23_Node000017_Node000003" class="edge">
<title>Node17&#45;&gt;Node3</title>
<g id="a_edge23_Node000017_Node000003"><a xlink:title=" ">
<path fill="none" stroke="#63b8ff" d="M872.79,-170.06C865.83,-172.17 858.7,-174.36 852,-176.5 825.03,-185.09 794.45,-195.5 773,-202.91"/>
<polygon fill="#63b8ff" stroke="#63b8ff" points="874.23,-173.28 882.8,-167.04 872.22,-166.57 874.23,-173.28"/>
</a>
</g>
</g>
<!-- Node18&#45;&gt;Node3 -->
<g id="edge25_Node000018_Node000003" class="edge">
<title>Node18&#45;&gt;Node3</title>
<g id="a_edge25_Node000018_Node000003"><a xlink:title=" ">
<path fill="none" stroke="#63b8ff" d="M866.75,-133.38C861.68,-135.22 856.68,-137.26 852,-139.5 814.58,-157.38 775.63,-187.54 756.9,-202.9"/>
<polygon fill="#63b8ff" stroke="#63b8ff" points="868.15,-136.61 876.5,-130.09 865.91,-129.97 868.15,-136.61"/>
</a>
</g>
</g>
<!-- Node19&#45;&gt;Node3 -->
<g id="edge27_Node000019_Node000003" class="edge">
<title>Node19&#45;&gt;Node3</title>
<g id="a_edge27_Node000019_Node000003"><a xlink:title=" ">
<path fill="none" stroke="#63b8ff" d="M862.93,-96.85C859.13,-98.53 855.44,-100.41 852,-102.5 806.57,-130.11 767.12,-181.72 752.04,-202.98"/>
<polygon fill="#63b8ff" stroke="#63b8ff" points="864.52,-99.99 872.54,-93.08 861.95,-93.48 864.52,-99.99"/>
</a>
</g>
</g>
</g>
</svg>

<g id="navigator" transform="translate(0 0)" fill="#404254">
  <rect fill="#f2f5e9" fill-opacity="0.5" stroke="#606060" stroke-width=".5" x="0" y="0" width="60" height="60"/>
  <use id="zoomplus" xlink:href="#zoomPlus" x="17" y="9" onmousedown="handleZoom(evt,'in')"/>
  <use id="zoomminus" xlink:href="#zoomMin" x="42" y="9" onmousedown="handleZoom(evt,'out')"/>
  <use id="reset" xlink:href="#resetDef" x="30" y="36" onmousedown="handleReset()"/>
   <use id="arrowup" xlink:href="#arrowUp" x="0" y="0" onmousedown="handlePan(0,-1)"/>
  <use id="arrowright" xlink:href="#arrowRight" x="0" y="0" onmousedown="handlePan(1,0)"/>
  <use id="arrowdown" xlink:href="#arrowDown" x="0" y="0" onmousedown="handlePan(0,1)"/>
  <use id="arrowleft" xlink:href="#arrowLeft" x="0" y="0" onmousedown="handlePan(-1,0)"/>
</g>
<svg viewBox="0 0 15 15" width="100%" height="30px" preserveAspectRatio="xMaxYMin meet">
 <g id="arrow_out" transform="scale(0.3 0.3)">
  <a xlink:href="ObjectManagement_8cpp_a9f8d0a459a7758c8b2d0b72cdd8adad0_icgraph_org.svg" target="_base">
   <rect id="button" ry="5" rx="5" y="6" x="6" height="38" width="38"
        fill="#f2f5e9" fill-opacity="0.5" stroke="#606060" stroke-width="1.0"/>
   <path id="arrow"
     d="M 11.500037,31.436501 C 11.940474,20.09759 22.043105,11.32322 32.158766,21.979434 L 37.068811,17.246167 C 37.068811,17.246167 37.088388,32 37.088388,32 L 22.160133,31.978069 C 22.160133,31.978069 26.997745,27.140456 26.997745,27.140456 C 18.528582,18.264221 13.291696,25.230495 11.500037,31.436501 z"
     style="fill:#404040;"/>
  </a>
 </g>
</svg>

<style type='text/css'>
<![CDATA[
[data-mouse-over-selected='false'] { opacity: 0.7; }
[data-mouse-over-selected='true']  { opacity: 1.0; }
]]>
</style>
<script type="application/ecmascript"><![CDATA[
document.addEventListener('DOMContentLoaded', (event) => {
  highlightEdges();
  highlightAdjacentNodes();
});
]]></script>
</svg>
