<?xml version="1.0" encoding="UTF-8" standalone="no"?>
<!DOCTYPE svg PUBLIC "-//W3C//DTD SVG 1.1//EN"
 "http://www.w3.org/Graphics/SVG/1.1/DTD/svg11.dtd">
<!-- Generated by graphviz version 2.43.0 (0)
 -->
<!-- Title: ResetGame Pages: 1 -->
<!--zoomable 286 -->

<svg id="main" version="1.1" xmlns="http://www.w3.org/2000/svg" xmlns:xlink="http://www.w3.org/1999/xlink" xml:space="preserve" onload="init(evt)">

<style type="text/css"><![CDATA[
.node, .edge {opacity: 0.7;}
.node.selected, .edge.selected {opacity: 1;}
.edge:hover path { stroke: red; }
.edge:hover polygon { stroke: red; fill: red; }
]]></style>

<defs>
  <circle id="rim" cx="0" cy="0" r="7"/>
  <circle id="rim2" cx="0" cy="0" r="3.5"/>
  <g id="zoomPlus">
    <use xlink:href="#rim" fill="#404040"><set attributeName="fill" to="#808080" begin="zoomplus.mouseover" end="zoomplus.mouseout"/></use>
    <path d="M-4,0h8M0,-4v8" fill="none" stroke="white" stroke-width="1.5" pointer-events="none"/>
  </g>
  <g id="zoomMin">
    <use xlink:href="#rim" fill="#404040"><set attributeName="fill" to="#808080" begin="zoomminus.mouseover" end="zoomminus.mouseout"/></use>
    <path d="M-4,0h8" fill="none" stroke="white" stroke-width="1.5" pointer-events="none"/>
  </g>
  <g id="arrowUp" transform="translate(30 24)">
    <use xlink:href="#rim"/>
    <path pointer-events="none" fill="none" stroke="white" stroke-width="1.5" d="M0,-3.0v7 M-2.5,-0.5L0,-3.0L2.5,-0.5"/>
  </g>
  <g id="arrowRight" transform="rotate(90) translate(36 -43)">
    <use xlink:href="#rim"/>
    <path pointer-events="none" fill="none" stroke="white" stroke-width="1.5" d="M0,-3.0v7 M-2.5,-0.5L0,-3.0L2.5,-0.5"/>
  </g>
  <g id="arrowDown" transform="rotate(180) translate(-30 -48)">
    <use xlink:href="#rim"/>
    <path pointer-events="none" fill="none" stroke="white" stroke-width="1.5" d="M0,-3.0v7 M-2.5,-0.5L0,-3.0L2.5,-0.5"/>
  </g>
  <g id="arrowLeft" transform="rotate(270) translate(-36 17)">
    <use xlink:href="#rim"/>
    <path pointer-events="none" fill="none" stroke="white" stroke-width="1.5" d="M0,-3.0v7 M-2.5,-0.5L0,-3.0L2.5,-0.5"/>
  </g>
  <g id="resetDef">
    <use xlink:href="#rim2" fill="#404040"><set attributeName="fill" to="#808080" begin="reset.mouseover" end="reset.mouseout"/></use>
  </g>
</defs>
<script type="application/ecmascript">
var viewWidth = 591;
var viewHeight = 286;
var sectionId = 'dynsection-5';
</script>
<script type="application/ecmascript" xlink:href="../../svg.min.js"/>
<svg id="graph" class="graph">
<g id="viewport">
<title>ResetGame</title>
<!-- Node1 -->
<g id="Node000001" class="node">
<title>Node1</title>
<g id="a_Node000001"><a xlink:title="Reset the game to the initial state.">
<polygon fill="#999999" stroke="#666666" points="74,-129 0,-129 0,-110 74,-110 74,-129"/>
<text text-anchor="middle" x="37" y="-117" font-family="Helvetica,sans-Serif" font-size="10.00">ResetGame</text>
</a>
</g>
</g>
<!-- Node2 -->
<g id="Node000002" class="node">
<title>Node2</title>
<g id="a_Node000002"><a xlink:href="../../d9/dfa/Init_8cpp.html#aaa64e8fd06230fa14e507cef71a3217d" target="_top" xlink:title="Create the initial gameobjects required for the game.">
<polygon fill="white" stroke="#666666" points="253,-148 110,-148 110,-129 253,-129 253,-148"/>
<text text-anchor="middle" x="181.5" y="-136" font-family="Helvetica,sans-Serif" font-size="10.00">CreateInitialGameObjects</text>
</a>
</g>
</g>
<!-- Node1&#45;&gt;Node2 -->
<g id="edge1_Node000001_Node000002" class="edge">
<title>Node1&#45;&gt;Node2</title>
<g id="a_edge1_Node000001_Node000002"><a xlink:title=" ">
<path fill="none" stroke="#63b8ff" d="M74.33,-124.34C82.24,-125.4 90.91,-126.55 99.78,-127.74"/>
<polygon fill="#63b8ff" stroke="#63b8ff" points="99.47,-131.23 109.85,-129.08 100.4,-124.29 99.47,-131.23"/>
</a>
</g>
</g>
<!-- Node13 -->
<g id="Node000013" class="node">
<title>Node13</title>
<g id="a_Node000013"><a xlink:href="../../de/dfd/GameManagement_8cpp.html#ae5ee3f705fc506491ca2b0c7cf059c75" target="_top" xlink:title="Initialize all gameobjects and call the OnStart() methods.">
<polygon fill="white" stroke="#666666" points="223,-111 140,-111 140,-92 223,-92 223,-111"/>
<text text-anchor="middle" x="181.5" y="-99" font-family="Helvetica,sans-Serif" font-size="10.00">OnGameStart</text>
</a>
</g>
</g>
<!-- Node1&#45;&gt;Node13 -->
<g id="edge18_Node000001_Node000013" class="edge">
<title>Node1&#45;&gt;Node13</title>
<g id="a_edge18_Node000001_Node000013"><a xlink:title=" ">
<path fill="none" stroke="#63b8ff" d="M74.33,-114.91C91.23,-112.78 111.63,-110.2 130,-107.88"/>
<polygon fill="#63b8ff" stroke="#63b8ff" points="130.48,-111.35 139.97,-106.62 129.61,-104.4 130.48,-111.35"/>
</a>
</g>
</g>
<!-- Node3 -->
<g id="Node000003" class="node">
<title>Node3</title>
<g id="a_Node000003"><a xlink:href="../../d9/dfa/Init_8cpp.html#a3ff595c2af791c369e2318510062ce14" target="_top" xlink:title="Create the coffee meter bar.">
<polygon fill="white" stroke="#666666" points="413.5,-241 304.5,-241 304.5,-222 413.5,-222 413.5,-241"/>
<text text-anchor="middle" x="359" y="-229" font-family="Helvetica,sans-Serif" font-size="10.00">CreateCoffeeMeter</text>
</a>
</g>
</g>
<!-- Node2&#45;&gt;Node3 -->
<g id="edge2_Node000002_Node000003" class="edge">
<title>Node2&#45;&gt;Node3</title>
<g id="a_edge2_Node000002_Node000003"><a xlink:title=" ">
<path fill="none" stroke="#63b8ff" d="M193.18,-148.03C211.49,-163.89 250.64,-195.7 289,-213.5 293.16,-215.43 297.55,-217.17 302.03,-218.75"/>
<polygon fill="#63b8ff" stroke="#63b8ff" points="301.32,-222.2 311.91,-221.94 303.47,-215.54 301.32,-222.2"/>
</a>
</g>
</g>
<!-- Node5 -->
<g id="Node000005" class="node">
<title>Node5</title>
<g id="a_Node000005"><a xlink:href="../../d9/dfa/Init_8cpp.html#a1bfb628b6cd503e396bae0796f2051c1" target="_top" xlink:title="Create the icon next to the coffee meter.">
<polygon fill="white" stroke="#666666" points="423.5,-278 294.5,-278 294.5,-259 423.5,-259 423.5,-278"/>
<text text-anchor="middle" x="359" y="-266" font-family="Helvetica,sans-Serif" font-size="10.00">CreateCoffeeMeterIcon</text>
</a>
</g>
</g>
<!-- Node2&#45;&gt;Node5 -->
<g id="edge4_Node000002_Node000005" class="edge">
<title>Node2&#45;&gt;Node5</title>
<g id="a_edge4_Node000002_Node000005"><a xlink:title=" ">
<path fill="none" stroke="#63b8ff" d="M188.92,-148.32C203.77,-170.21 242.78,-223.24 289,-250.5 291.97,-252.25 295.11,-253.83 298.35,-255.27"/>
<polygon fill="#63b8ff" stroke="#63b8ff" points="297.08,-258.53 307.67,-258.91 299.63,-252.01 297.08,-258.53"/>
</a>
</g>
</g>
<!-- Node7 -->
<g id="Node000007" class="node">
<title>Node7</title>
<g id="a_Node000007"><a xlink:href="../../d9/dfa/Init_8cpp.html#a7577908172d93807ef67f163f851fe5e" target="_top" xlink:title="Create the floor and register it.">
<polygon fill="white" stroke="#666666" points="396,-204 322,-204 322,-185 396,-185 396,-204"/>
<text text-anchor="middle" x="359" y="-192" font-family="Helvetica,sans-Serif" font-size="10.00">CreateFloor</text>
</a>
</g>
</g>
<!-- Node2&#45;&gt;Node7 -->
<g id="edge7_Node000002_Node000007" class="edge">
<title>Node2&#45;&gt;Node7</title>
<g id="a_edge7_Node000002_Node000007"><a xlink:title=" ">
<path fill="none" stroke="#63b8ff" d="M207.26,-148.03C228.71,-156.12 260.67,-167.77 289,-176.5 296.32,-178.76 304.13,-180.97 311.78,-183.04"/>
<polygon fill="#63b8ff" stroke="#63b8ff" points="311.1,-186.48 321.66,-185.66 312.89,-179.71 311.1,-186.48"/>
</a>
</g>
</g>
<!-- Node8 -->
<g id="Node000008" class="node">
<title>Node8</title>
<g id="a_Node000008"><a xlink:href="../../d9/dfa/Init_8cpp.html#a8ad8206fa2846739c5e76ce97b6b2783" target="_top" xlink:title="Create the score counter and register it.">
<polygon fill="white" stroke="#666666" points="416,-167 302,-167 302,-148 416,-148 416,-167"/>
<text text-anchor="middle" x="359" y="-155" font-family="Helvetica,sans-Serif" font-size="10.00">CreateScoreCounter</text>
</a>
</g>
</g>
<!-- Node2&#45;&gt;Node8 -->
<g id="edge9_Node000002_Node000008" class="edge">
<title>Node2&#45;&gt;Node8</title>
<g id="a_edge9_Node000002_Node000008"><a xlink:title=" ">
<path fill="none" stroke="#63b8ff" d="M253.12,-146.15C265.9,-147.53 279.18,-148.97 291.82,-150.34"/>
<polygon fill="#63b8ff" stroke="#63b8ff" points="291.49,-153.82 301.81,-151.42 292.24,-146.86 291.49,-153.82"/>
</a>
</g>
</g>
<!-- Node9 -->
<g id="Node000009" class="node">
<title>Node9</title>
<g id="a_Node000009"><a xlink:href="../../d9/dfa/Init_8cpp.html#ac07b948048071cbf70f69aa9d691a93f" target="_top" xlink:title="Set the window background to white.">
<polygon fill="white" stroke="#666666" points="429,-130 289,-130 289,-111 429,-111 429,-130"/>
<text text-anchor="middle" x="359" y="-118" font-family="Helvetica,sans-Serif" font-size="10.00">SetupWindowbackground</text>
</a>
</g>
</g>
<!-- Node2&#45;&gt;Node9 -->
<g id="edge11_Node000002_Node000009" class="edge">
<title>Node2&#45;&gt;Node9</title>
<g id="a_edge11_Node000002_Node000009"><a xlink:title=" ">
<path fill="none" stroke="#63b8ff" d="M253.12,-131.26C261.61,-130.39 270.32,-129.49 278.92,-128.61"/>
<polygon fill="#63b8ff" stroke="#63b8ff" points="279.36,-132.08 288.95,-127.58 278.64,-125.12 279.36,-132.08"/>
</a>
</g>
</g>
<!-- Node10 -->
<g id="Node000010" class="node">
<title>Node10</title>
<g id="a_Node000010"><a xlink:href="../../d9/dfa/Init_8cpp.html#a374cb6f303f72b5af970063ff1318f24" target="_top" xlink:title="Create the left wall and register it.">
<polygon fill="white" stroke="#666666" points="403,-93 315,-93 315,-74 403,-74 403,-93"/>
<text text-anchor="middle" x="359" y="-81" font-family="Helvetica,sans-Serif" font-size="10.00">SpawnLeftWall</text>
</a>
</g>
</g>
<!-- Node2&#45;&gt;Node10 -->
<g id="edge12_Node000002_Node000010" class="edge">
<title>Node2&#45;&gt;Node10</title>
<g id="a_edge12_Node000002_Node000010"><a xlink:title=" ">
<path fill="none" stroke="#63b8ff" d="M225.83,-128.99C234.91,-126.57 244.36,-123.72 253,-120.5 269.76,-114.25 272.3,-108.9 289,-102.5 295.24,-100.11 301.89,-97.88 308.52,-95.86"/>
<polygon fill="#63b8ff" stroke="#63b8ff" points="309.55,-99.21 318.16,-93.05 307.58,-92.49 309.55,-99.21"/>
</a>
</g>
</g>
<!-- Node11 -->
<g id="Node000011" class="node">
<title>Node11</title>
<g id="a_Node000011"><a xlink:href="../../d9/dfa/Init_8cpp.html#aa021dfea28868af5fdc6eb97fdf11395" target="_top" xlink:title="Create the player and register it.">
<polygon fill="white" stroke="#666666" points="399,-56 319,-56 319,-37 399,-37 399,-56"/>
<text text-anchor="middle" x="359" y="-44" font-family="Helvetica,sans-Serif" font-size="10.00">SpawnPlayer</text>
</a>
</g>
</g>
<!-- Node2&#45;&gt;Node11 -->
<g id="edge14_Node000002_Node000011" class="edge">
<title>Node2&#45;&gt;Node11</title>
<g id="a_edge14_Node000002_Node000011"><a xlink:title=" ">
<path fill="none" stroke="#63b8ff" d="M237.45,-128.86C242.97,-126.63 248.27,-123.88 253,-120.5 276.77,-103.51 265.39,-82.71 289,-65.5 295.01,-61.12 301.97,-57.75 309.12,-55.16"/>
<polygon fill="#63b8ff" stroke="#63b8ff" points="310.42,-58.42 318.91,-52.08 308.32,-51.74 310.42,-58.42"/>
</a>
</g>
</g>
<!-- Node12 -->
<g id="Node000012" class="node">
<title>Node12</title>
<g id="a_Node000012"><a xlink:href="../../d9/dfa/Init_8cpp.html#a0e2d0321a787eb9a3b705489c8f2b86b" target="_top" xlink:title="Create the right wall and register it.">
<polygon fill="white" stroke="#666666" points="406.5,-19 311.5,-19 311.5,0 406.5,0 406.5,-19"/>
<text text-anchor="middle" x="359" y="-7" font-family="Helvetica,sans-Serif" font-size="10.00">SpawnRightWall</text>
</a>
</g>
</g>
<!-- Node2&#45;&gt;Node12 -->
<g id="edge16_Node000002_Node000012" class="edge">
<title>Node2&#45;&gt;Node12</title>
<g id="a_edge16_Node000002_Node000012"><a xlink:title=" ">
<path fill="none" stroke="#63b8ff" d="M239.94,-129C244.67,-126.72 249.12,-123.93 253,-120.5 285.9,-91.42 256.38,-57.89 289,-28.5 292.83,-25.05 297.22,-22.23 301.9,-19.91"/>
<polygon fill="#63b8ff" stroke="#63b8ff" points="303.29,-23.12 311.18,-16.04 300.6,-16.66 303.29,-23.12"/>
</a>
</g>
</g>
<!-- Node4 -->
<g id="Node000004" class="node">
<title>Node4</title>
<g id="a_Node000004"><a xlink:href="../../de/dfd/GameManagement_8cpp.html#a40f7d4339a01b155a82745c5bd8ead6a" target="_top" xlink:title="Directly register a gameobject. Will push the object into the GameObjects vector.">
<polygon fill="white" stroke="#666666" points="583,-167 465,-167 465,-148 583,-148 583,-167"/>
<text text-anchor="middle" x="524" y="-155" font-family="Helvetica,sans-Serif" font-size="10.00">RegisterGameObject</text>
</a>
</g>
</g>
<!-- Node3&#45;&gt;Node4 -->
<g id="edge3_Node000003_Node000004" class="edge">
<title>Node3&#45;&gt;Node4</title>
<g id="a_edge3_Node000003_Node000004"><a xlink:title=" ">
<path fill="none" stroke="#63b8ff" d="M404.05,-222C412.47,-219.62 421.12,-216.8 429,-213.5 455.2,-202.54 482.87,-185.28 501.34,-172.81"/>
<polygon fill="#63b8ff" stroke="#63b8ff" points="503.36,-175.67 509.63,-167.13 499.4,-169.9 503.36,-175.67"/>
</a>
</g>
</g>
<!-- Node5&#45;&gt;Node4 -->
<g id="edge6_Node000005_Node000004" class="edge">
<title>Node5&#45;&gt;Node4</title>
<g id="a_edge6_Node000005_Node000004"><a xlink:title=" ">
<path fill="none" stroke="#63b8ff" d="M409.51,-258.99C416.28,-256.72 422.98,-253.93 429,-250.5 463.04,-231.12 493.46,-196.26 509.97,-175.16"/>
<polygon fill="#63b8ff" stroke="#63b8ff" points="512.87,-177.12 516.16,-167.05 507.31,-172.88 512.87,-177.12"/>
</a>
</g>
</g>
<!-- Node6 -->
<g id="Node000006" class="node">
<title>Node6</title>
<g id="a_Node000006"><a xlink:href="../../d1/da9/AssetLoading_8cpp.html#a07739f40c13743b2dfceefb659d6d455" target="_top" xlink:title=" ">
<polygon fill="white" stroke="#666666" points="565,-278 483,-278 483,-259 565,-259 565,-278"/>
<text text-anchor="middle" x="524" y="-266" font-family="Helvetica,sans-Serif" font-size="10.00">GetAssetPath</text>
</a>
</g>
</g>
<!-- Node5&#45;&gt;Node6 -->
<g id="edge5_Node000005_Node000006" class="edge">
<title>Node5&#45;&gt;Node6</title>
<g id="a_edge5_Node000005_Node000006"><a xlink:title=" ">
<path fill="none" stroke="#63b8ff" d="M423.95,-268.5C440.04,-268.5 457.09,-268.5 472.42,-268.5"/>
<polygon fill="#63b8ff" stroke="#63b8ff" points="472.73,-272 482.73,-268.5 472.73,-265 472.73,-272"/>
</a>
</g>
</g>
<!-- Node7&#45;&gt;Node4 -->
<g id="edge8_Node000007_Node000004" class="edge">
<title>Node7&#45;&gt;Node4</title>
<g id="a_edge8_Node000007_Node000004"><a xlink:title=" ">
<path fill="none" stroke="#63b8ff" d="M396.17,-186.29C418.18,-181.29 446.66,-174.83 471.05,-169.29"/>
<polygon fill="#63b8ff" stroke="#63b8ff" points="471.9,-172.69 480.87,-167.06 470.35,-165.86 471.9,-172.69"/>
</a>
</g>
</g>
<!-- Node8&#45;&gt;Node4 -->
<g id="edge10_Node000008_Node000004" class="edge">
<title>Node8&#45;&gt;Node4</title>
<g id="a_edge10_Node000008_Node000004"><a xlink:title=" ">
<path fill="none" stroke="#63b8ff" d="M416.1,-157.5C428.52,-157.5 441.82,-157.5 454.67,-157.5"/>
<polygon fill="#63b8ff" stroke="#63b8ff" points="454.86,-161 464.86,-157.5 454.86,-154 454.86,-161"/>
</a>
</g>
</g>
<!-- Node10&#45;&gt;Node4 -->
<g id="edge13_Node000010_Node000004" class="edge">
<title>Node10&#45;&gt;Node4</title>
<g id="a_edge13_Node000010_Node000004"><a xlink:title=" ">
<path fill="none" stroke="#63b8ff" d="M401.46,-93.03C410.68,-95.67 420.3,-98.83 429,-102.5 454.9,-113.42 482.42,-130.21 500.95,-142.36"/>
<polygon fill="#63b8ff" stroke="#63b8ff" points="499.01,-145.28 509.27,-147.91 502.89,-139.45 499.01,-145.28"/>
</a>
</g>
</g>
<!-- Node11&#45;&gt;Node4 -->
<g id="edge15_Node000011_Node000004" class="edge">
<title>Node11&#45;&gt;Node4</title>
<g id="a_edge15_Node000011_Node000004"><a xlink:title=" ">
<path fill="none" stroke="#63b8ff" d="M399.33,-53.66C409.41,-56.47 419.95,-60.3 429,-65.5 462.61,-84.82 492.98,-118.97 509.62,-139.79"/>
<polygon fill="#63b8ff" stroke="#63b8ff" points="506.98,-142.08 515.89,-147.81 512.49,-137.77 506.98,-142.08"/>
</a>
</g>
</g>
<!-- Node12&#45;&gt;Node4 -->
<g id="edge17_Node000012_Node000004" class="edge">
<title>Node12&#45;&gt;Node4</title>
<g id="a_edge17_Node000012_Node000004"><a xlink:title=" ">
<path fill="none" stroke="#63b8ff" d="M406.82,-17.78C414.64,-20.42 422.36,-23.91 429,-28.5 470.41,-57.13 500.39,-110.1 514.31,-138.44"/>
<polygon fill="#63b8ff" stroke="#63b8ff" points="511.24,-140.15 518.7,-147.67 517.56,-137.14 511.24,-140.15"/>
</a>
</g>
</g>
</g>
</svg>

<g id="navigator" transform="translate(0 0)" fill="#404254">
  <rect fill="#f2f5e9" fill-opacity="0.5" stroke="#606060" stroke-width=".5" x="0" y="0" width="60" height="60"/>
  <use id="zoomplus" xlink:href="#zoomPlus" x="17" y="9" onmousedown="handleZoom(evt,'in')"/>
  <use id="zoomminus" xlink:href="#zoomMin" x="42" y="9" onmousedown="handleZoom(evt,'out')"/>
  <use id="reset" xlink:href="#resetDef" x="30" y="36" onmousedown="handleReset()"/>
   <use id="arrowup" xlink:href="#arrowUp" x="0" y="0" onmousedown="handlePan(0,-1)"/>
  <use id="arrowright" xlink:href="#arrowRight" x="0" y="0" onmousedown="handlePan(1,0)"/>
  <use id="arrowdown" xlink:href="#arrowDown" x="0" y="0" onmousedown="handlePan(0,1)"/>
  <use id="arrowleft" xlink:href="#arrowLeft" x="0" y="0" onmousedown="handlePan(-1,0)"/>
</g>
<svg viewBox="0 0 15 15" width="100%" height="30px" preserveAspectRatio="xMaxYMin meet">
 <g id="arrow_out" transform="scale(0.3 0.3)">
  <a xlink:href="Lifecycle_8cpp_a7be4f604c1baeb7cac84122a7f2438cf_cgraph_org.svg" target="_base">
   <rect id="button" ry="5" rx="5" y="6" x="6" height="38" width="38"
        fill="#f2f5e9" fill-opacity="0.5" stroke="#606060" stroke-width="1.0"/>
   <path id="arrow"
     d="M 11.500037,31.436501 C 11.940474,20.09759 22.043105,11.32322 32.158766,21.979434 L 37.068811,17.246167 C 37.068811,17.246167 37.088388,32 37.088388,32 L 22.160133,31.978069 C 22.160133,31.978069 26.997745,27.140456 26.997745,27.140456 C 18.528582,18.264221 13.291696,25.230495 11.500037,31.436501 z"
     style="fill:#404040;"/>
  </a>
 </g>
</svg>

<style type='text/css'>
<![CDATA[
[data-mouse-over-selected='false'] { opacity: 0.7; }
[data-mouse-over-selected='true']  { opacity: 1.0; }
]]>
</style>
<script type="application/ecmascript"><![CDATA[
document.addEventListener('DOMContentLoaded', (event) => {
  highlightEdges();
  highlightAdjacentNodes();
});
]]></script>
</svg>
