<?xml version="1.0" encoding="UTF-8" standalone="no"?>
<!DOCTYPE svg PUBLIC "-//W3C//DTD SVG 1.1//EN"
 "http://www.w3.org/Graphics/SVG/1.1/DTD/svg11.dtd">
<!-- Generated by graphviz version 2.43.0 (0)
 -->
<!-- Title: frame Pages: 1 -->
<svg width="1087pt" height="399pt"
 viewBox="0.00 0.00 1087.00 399.00" xmlns="http://www.w3.org/2000/svg" xmlns:xlink="http://www.w3.org/1999/xlink">
<g id="graph0" class="graph" transform="scale(1 1) rotate(0) translate(4 395)">
<title>frame</title>
<!-- Node1 -->
<g id="Node000001" class="node">
<title>Node1</title>
<g id="a_Node000001"><a xlink:title="Executed every frame.">
<polygon fill="#999999" stroke="#666666" points="46,-116 0,-116 0,-97 46,-97 46,-116"/>
<text text-anchor="middle" x="23" y="-104" font-family="Helvetica,sans-Serif" font-size="10.00">frame</text>
</a>
</g>
</g>
<!-- Node2 -->
<g id="Node000002" class="node">
<title>Node2</title>
<g id="a_Node000002"><a xlink:href="../../de/dfd/GameManagement_8cpp.html#a96314a1ad91ef741694603ff58e7bee7" target="_top" xlink:title=" ">
<polygon fill="white" stroke="#666666" points="184,-116 82,-116 82,-97 184,-97 184,-116"/>
<text text-anchor="middle" x="133" y="-104" font-family="Helvetica,sans-Serif" font-size="10.00">RunFrameActions</text>
</a>
</g>
</g>
<!-- Node1&#45;&gt;Node2 -->
<g id="edge1_Node000001_Node000002" class="edge">
<title>Node1&#45;&gt;Node2</title>
<g id="a_edge1_Node000001_Node000002"><a xlink:title=" ">
<path fill="none" stroke="#63b8ff" d="M46.12,-106.5C53.65,-106.5 62.47,-106.5 71.54,-106.5"/>
<polygon fill="#63b8ff" stroke="#63b8ff" points="71.83,-110 81.83,-106.5 71.83,-103 71.83,-110"/>
</a>
</g>
</g>
<!-- Node3 -->
<g id="Node000003" class="node">
<title>Node3</title>
<g id="a_Node000003"><a xlink:href="../../de/dfd/GameManagement_8cpp.html#a2877bc3a946eb46940e5cdedcaf4e3f6" target="_top" xlink:title=" ">
<polygon fill="white" stroke="#666666" points="344,-144 220,-144 220,-125 344,-125 344,-144"/>
<text text-anchor="middle" x="282" y="-132" font-family="Helvetica,sans-Serif" font-size="10.00">ResetGameIfRequired</text>
</a>
</g>
</g>
<!-- Node2&#45;&gt;Node3 -->
<g id="edge2_Node000002_Node000003" class="edge">
<title>Node2&#45;&gt;Node3</title>
<g id="a_edge2_Node000002_Node000003"><a xlink:title=" ">
<path fill="none" stroke="#63b8ff" d="M184.18,-116.06C196,-118.31 208.73,-120.73 220.94,-123.06"/>
<polygon fill="#63b8ff" stroke="#63b8ff" points="220.57,-126.55 231.05,-124.99 221.88,-119.68 220.57,-126.55"/>
</a>
</g>
</g>
<!-- Node17 -->
<g id="Node000017" class="node">
<title>Node17</title>
<g id="a_Node000017"><a xlink:href="../../d2/d41/ObjectManagement_8cpp.html#a522912d67446895b0a03d01837b75a99" target="_top" xlink:title="Iterate over all objects, and update the appropriately, using OnTick() or Component specific methods.">
<polygon fill="white" stroke="#666666" points="326.5,-98 237.5,-98 237.5,-79 326.5,-79 326.5,-98"/>
<text text-anchor="middle" x="282" y="-86" font-family="Helvetica,sans-Serif" font-size="10.00">UpdateObjects</text>
</a>
</g>
</g>
<!-- Node2&#45;&gt;Node17 -->
<g id="edge23_Node000002_Node000017" class="edge">
<title>Node2&#45;&gt;Node17</title>
<g id="a_edge23_Node000002_Node000017"><a xlink:title=" ">
<path fill="none" stroke="#63b8ff" d="M184.18,-100.36C198.1,-98.65 213.27,-96.79 227.38,-95.07"/>
<polygon fill="#63b8ff" stroke="#63b8ff" points="227.93,-98.52 237.43,-93.84 227.08,-91.58 227.93,-98.52"/>
</a>
</g>
</g>
<!-- Node4 -->
<g id="Node000004" class="node">
<title>Node4</title>
<g id="a_Node000004"><a xlink:href="../../d1/d99/Lifecycle_8cpp.html#a7be4f604c1baeb7cac84122a7f2438cf" target="_top" xlink:title="Reset the game to the initial state.">
<polygon fill="white" stroke="#666666" points="488.5,-162 414.5,-162 414.5,-143 488.5,-143 488.5,-162"/>
<text text-anchor="middle" x="451.5" y="-150" font-family="Helvetica,sans-Serif" font-size="10.00">ResetGame</text>
</a>
</g>
</g>
<!-- Node3&#45;&gt;Node4 -->
<g id="edge3_Node000003_Node000004" class="edge">
<title>Node3&#45;&gt;Node4</title>
<g id="a_edge3_Node000003_Node000004"><a xlink:title=" ">
<path fill="none" stroke="#63b8ff" d="M344.42,-141.1C364.27,-143.23 385.93,-145.56 404.47,-147.55"/>
<polygon fill="#63b8ff" stroke="#63b8ff" points="404.1,-151.03 414.42,-148.62 404.85,-144.07 404.1,-151.03"/>
</a>
</g>
</g>
<!-- Node5 -->
<g id="Node000005" class="node">
<title>Node5</title>
<g id="a_Node000005"><a xlink:href="../../d9/dfa/Init_8cpp.html#aaa64e8fd06230fa14e507cef71a3217d" target="_top" xlink:title="Create the initial gameobjects required for the game.">
<polygon fill="white" stroke="#666666" points="704.5,-221 561.5,-221 561.5,-202 704.5,-202 704.5,-221"/>
<text text-anchor="middle" x="633" y="-209" font-family="Helvetica,sans-Serif" font-size="10.00">CreateInitialGameObjects</text>
</a>
</g>
</g>
<!-- Node4&#45;&gt;Node5 -->
<g id="edge4_Node000004_Node000005" class="edge">
<title>Node4&#45;&gt;Node5</title>
<g id="a_edge4_Node000004_Node000005"><a xlink:title=" ">
<path fill="none" stroke="#63b8ff" d="M476.83,-162.07C498.29,-170.35 530.49,-182.39 559,-191.5 567.37,-194.17 576.34,-196.81 585.04,-199.26"/>
<polygon fill="#63b8ff" stroke="#63b8ff" points="584.12,-202.63 594.69,-201.92 585.98,-195.89 584.12,-202.63"/>
</a>
</g>
</g>
<!-- Node15 -->
<g id="Node000015" class="node">
<title>Node15</title>
<g id="a_Node000015"><a xlink:href="../../d2/d41/ObjectManagement_8cpp.html#ae5ee3f705fc506491ca2b0c7cf059c75" target="_top" xlink:title="Initialize all gameobjects and call the OnStart() methods.">
<polygon fill="white" stroke="#666666" points="674.5,-182 591.5,-182 591.5,-163 674.5,-163 674.5,-182"/>
<text text-anchor="middle" x="633" y="-170" font-family="Helvetica,sans-Serif" font-size="10.00">OnGameStart</text>
</a>
</g>
</g>
<!-- Node4&#45;&gt;Node15 -->
<g id="edge21_Node000004_Node000015" class="edge">
<title>Node4&#45;&gt;Node15</title>
<g id="a_edge21_Node000004_Node000015"><a xlink:title=" ">
<path fill="none" stroke="#63b8ff" d="M488.82,-156.55C515.4,-159.51 551.8,-163.56 581.25,-166.85"/>
<polygon fill="#63b8ff" stroke="#63b8ff" points="581.02,-170.34 591.35,-167.97 581.79,-163.38 581.02,-170.34"/>
</a>
</g>
</g>
<!-- Node16 -->
<g id="Node000016" class="node">
<title>Node16</title>
<g id="a_Node000016"><a xlink:href="../../d8/d38/Time_8cpp.html#ae55fb718253dda2137a189d792bda7b9" target="_top" xlink:title="Reset the time since the game has started.">
<polygon fill="white" stroke="#666666" points="707,-145 559,-145 559,-126 707,-126 707,-145"/>
<text text-anchor="middle" x="633" y="-133" font-family="Helvetica,sans-Serif" font-size="10.00">ResetTimeSinceGameStart</text>
</a>
</g>
</g>
<!-- Node4&#45;&gt;Node16 -->
<g id="edge22_Node000004_Node000016" class="edge">
<title>Node4&#45;&gt;Node16</title>
<g id="a_edge22_Node000004_Node000016"><a xlink:title=" ">
<path fill="none" stroke="#63b8ff" d="M488.82,-149.06C506.08,-147.43 527.48,-145.4 548.42,-143.42"/>
<polygon fill="#63b8ff" stroke="#63b8ff" points="549.03,-146.87 558.65,-142.45 548.37,-139.91 549.03,-146.87"/>
</a>
</g>
</g>
<!-- Node6 -->
<g id="Node000006" class="node">
<title>Node6</title>
<g id="a_Node000006"><a xlink:href="../../d9/dfa/Init_8cpp.html#a3ff595c2af791c369e2318510062ce14" target="_top" xlink:title="Create the coffee meter bar.">
<polygon fill="white" stroke="#666666" points="867.5,-391 758.5,-391 758.5,-372 867.5,-372 867.5,-391"/>
<text text-anchor="middle" x="813" y="-379" font-family="Helvetica,sans-Serif" font-size="10.00">CreateCoffeeMeter</text>
</a>
</g>
</g>
<!-- Node5&#45;&gt;Node6 -->
<g id="edge5_Node000005_Node000006" class="edge">
<title>Node5&#45;&gt;Node6</title>
<g id="a_edge5_Node000005_Node000006"><a xlink:title=" ">
<path fill="none" stroke="#63b8ff" d="M638.65,-221.25C651.51,-247.23 690.17,-318.81 743,-357.5 748.84,-361.78 755.5,-365.34 762.33,-368.29"/>
<polygon fill="#63b8ff" stroke="#63b8ff" points="761.1,-371.57 771.69,-371.95 763.65,-365.05 761.1,-371.57"/>
</a>
</g>
</g>
<!-- Node7 -->
<g id="Node000007" class="node">
<title>Node7</title>
<g id="a_Node000007"><a xlink:href="../../d2/d41/ObjectManagement_8cpp.html#a9f8d0a459a7758c8b2d0b72cdd8adad0" target="_top" xlink:title="Enqueue an object to be registered on the next frame.">
<polygon fill="white" stroke="#666666" points="1079,-259 919,-259 919,-240 1079,-240 1079,-259"/>
<text text-anchor="middle" x="999" y="-247" font-family="Helvetica,sans-Serif" font-size="10.00">EnqueueRegisterGameObject</text>
</a>
</g>
</g>
<!-- Node5&#45;&gt;Node7 -->
<g id="edge13_Node000005_Node000007" class="edge">
<title>Node5&#45;&gt;Node7</title>
<g id="a_edge13_Node000005_Node000007"><a xlink:title=" ">
<path fill="none" stroke="#63b8ff" d="M639.53,-221.24C653.37,-244.49 692.07,-302.87 743,-324.5 800.27,-348.83 823.36,-342.23 883,-324.5 921.53,-313.05 959.19,-284.14 980.42,-265.75"/>
<polygon fill="#63b8ff" stroke="#63b8ff" points="982.81,-268.3 987.96,-259.04 978.16,-263.07 982.81,-268.3"/>
</a>
</g>
</g>
<!-- Node8 -->
<g id="Node000008" class="node">
<title>Node8</title>
<g id="a_Node000008"><a xlink:href="../../d9/dfa/Init_8cpp.html#a1bfb628b6cd503e396bae0796f2051c1" target="_top" xlink:title="Create the icon next to the coffee meter.">
<polygon fill="white" stroke="#666666" points="877.5,-315 748.5,-315 748.5,-296 877.5,-296 877.5,-315"/>
<text text-anchor="middle" x="813" y="-303" font-family="Helvetica,sans-Serif" font-size="10.00">CreateCoffeeMeterIcon</text>
</a>
</g>
</g>
<!-- Node5&#45;&gt;Node8 -->
<g id="edge7_Node000005_Node000008" class="edge">
<title>Node5&#45;&gt;Node8</title>
<g id="a_edge7_Node000005_Node000008"><a xlink:title=" ">
<path fill="none" stroke="#63b8ff" d="M644.95,-221.15C663.72,-237.21 703.82,-269.44 743,-287.5 747.16,-289.42 751.56,-291.16 756.04,-292.73"/>
<polygon fill="#63b8ff" stroke="#63b8ff" points="755.33,-296.18 765.92,-295.91 757.48,-289.52 755.33,-296.18"/>
</a>
</g>
</g>
<!-- Node9 -->
<g id="Node000009" class="node">
<title>Node9</title>
<g id="a_Node000009"><a xlink:href="../../d9/dfa/Init_8cpp.html#a7577908172d93807ef67f163f851fe5e" target="_top" xlink:title="Create the floor and register it.">
<polygon fill="white" stroke="#666666" points="850,-278 776,-278 776,-259 850,-259 850,-278"/>
<text text-anchor="middle" x="813" y="-266" font-family="Helvetica,sans-Serif" font-size="10.00">CreateFloor</text>
</a>
</g>
</g>
<!-- Node5&#45;&gt;Node9 -->
<g id="edge9_Node000005_Node000009" class="edge">
<title>Node5&#45;&gt;Node9</title>
<g id="a_edge9_Node000005_Node000009"><a xlink:title=" ">
<path fill="none" stroke="#63b8ff" d="M658.9,-221.12C680.86,-229.43 713.81,-241.49 743,-250.5 750.32,-252.76 758.13,-254.98 765.77,-257.04"/>
<polygon fill="#63b8ff" stroke="#63b8ff" points="765.1,-260.49 775.66,-259.66 766.89,-253.72 765.1,-260.49"/>
</a>
</g>
</g>
<!-- Node10 -->
<g id="Node000010" class="node">
<title>Node10</title>
<g id="a_Node000010"><a xlink:href="../../d9/dfa/Init_8cpp.html#a8ad8206fa2846739c5e76ce97b6b2783" target="_top" xlink:title="Create the score counter and register it.">
<polygon fill="white" stroke="#666666" points="870,-241 756,-241 756,-222 870,-222 870,-241"/>
<text text-anchor="middle" x="813" y="-229" font-family="Helvetica,sans-Serif" font-size="10.00">CreateScoreCounter</text>
</a>
</g>
</g>
<!-- Node5&#45;&gt;Node10 -->
<g id="edge11_Node000005_Node000010" class="edge">
<title>Node5&#45;&gt;Node10</title>
<g id="a_edge11_Node000005_Node000010"><a xlink:title=" ">
<path fill="none" stroke="#63b8ff" d="M704.61,-219.43C718.14,-220.95 732.27,-222.54 745.67,-224.05"/>
<polygon fill="#63b8ff" stroke="#63b8ff" points="745.42,-227.54 755.75,-225.18 746.2,-220.58 745.42,-227.54"/>
</a>
</g>
</g>
<!-- Node11 -->
<g id="Node000011" class="node">
<title>Node11</title>
<g id="a_Node000011"><a xlink:href="../../d9/dfa/Init_8cpp.html#ac07b948048071cbf70f69aa9d691a93f" target="_top" xlink:title="Set the window background to white.">
<polygon fill="white" stroke="#666666" points="883,-204 743,-204 743,-185 883,-185 883,-204"/>
<text text-anchor="middle" x="813" y="-192" font-family="Helvetica,sans-Serif" font-size="10.00">SetupWindowbackground</text>
</a>
</g>
</g>
<!-- Node5&#45;&gt;Node11 -->
<g id="edge14_Node000005_Node000011" class="edge">
<title>Node5&#45;&gt;Node11</title>
<g id="a_edge14_Node000005_Node000011"><a xlink:title=" ">
<path fill="none" stroke="#63b8ff" d="M704.61,-204.76C713.87,-203.87 723.42,-202.96 732.81,-202.06"/>
<polygon fill="#63b8ff" stroke="#63b8ff" points="733.31,-205.53 742.93,-201.1 732.65,-198.56 733.31,-205.53"/>
</a>
</g>
</g>
<!-- Node12 -->
<g id="Node000012" class="node">
<title>Node12</title>
<g id="a_Node000012"><a xlink:href="../../d9/dfa/Init_8cpp.html#a374cb6f303f72b5af970063ff1318f24" target="_top" xlink:title="Create the left wall and register it.">
<polygon fill="white" stroke="#666666" points="857,-167 769,-167 769,-148 857,-148 857,-167"/>
<text text-anchor="middle" x="813" y="-155" font-family="Helvetica,sans-Serif" font-size="10.00">SpawnLeftWall</text>
</a>
</g>
</g>
<!-- Node5&#45;&gt;Node12 -->
<g id="edge15_Node000005_Node000012" class="edge">
<title>Node5&#45;&gt;Node12</title>
<g id="a_edge15_Node000005_Node000012"><a xlink:title=" ">
<path fill="none" stroke="#63b8ff" d="M672.55,-201.92C683.75,-198.88 695.94,-195.3 707,-191.5 723.39,-185.87 726.61,-182.15 743,-176.5 749.86,-174.14 757.19,-171.86 764.41,-169.76"/>
<polygon fill="#63b8ff" stroke="#63b8ff" points="765.47,-173.1 774.14,-167 763.56,-166.36 765.47,-173.1"/>
</a>
</g>
</g>
<!-- Node13 -->
<g id="Node000013" class="node">
<title>Node13</title>
<g id="a_Node000013"><a xlink:href="../../d9/dfa/Init_8cpp.html#aa021dfea28868af5fdc6eb97fdf11395" target="_top" xlink:title="Create the player and register it.">
<polygon fill="white" stroke="#666666" points="853,-130 773,-130 773,-111 853,-111 853,-130"/>
<text text-anchor="middle" x="813" y="-118" font-family="Helvetica,sans-Serif" font-size="10.00">SpawnPlayer</text>
</a>
</g>
</g>
<!-- Node5&#45;&gt;Node13 -->
<g id="edge17_Node000005_Node000013" class="edge">
<title>Node5&#45;&gt;Node13</title>
<g id="a_edge17_Node000005_Node000013"><a xlink:title=" ">
<path fill="none" stroke="#63b8ff" d="M686.67,-201.88C693.88,-199.22 700.89,-195.83 707,-191.5 729.94,-175.25 720.07,-155.76 743,-139.5 748.99,-135.25 755.9,-131.95 762.97,-129.39"/>
<polygon fill="#63b8ff" stroke="#63b8ff" points="764.18,-132.68 772.66,-126.33 762.07,-126 764.18,-132.68"/>
</a>
</g>
</g>
<!-- Node14 -->
<g id="Node000014" class="node">
<title>Node14</title>
<g id="a_Node000014"><a xlink:href="../../d9/dfa/Init_8cpp.html#a0e2d0321a787eb9a3b705489c8f2b86b" target="_top" xlink:title="Create the right wall and register it.">
<polygon fill="white" stroke="#666666" points="860.5,-93 765.5,-93 765.5,-74 860.5,-74 860.5,-93"/>
<text text-anchor="middle" x="813" y="-81" font-family="Helvetica,sans-Serif" font-size="10.00">SpawnRightWall</text>
</a>
</g>
</g>
<!-- Node5&#45;&gt;Node14 -->
<g id="edge19_Node000005_Node000014" class="edge">
<title>Node5&#45;&gt;Node14</title>
<g id="a_edge19_Node000005_Node000014"><a xlink:title=" ">
<path fill="none" stroke="#63b8ff" d="M690.2,-201.97C696.31,-199.29 702.09,-195.87 707,-191.5 738.88,-163.14 711.13,-130.88 743,-102.5 746.84,-99.08 751.25,-96.26 755.94,-93.95"/>
<polygon fill="#63b8ff" stroke="#63b8ff" points="757.33,-97.16 765.23,-90.1 754.65,-90.7 757.33,-97.16"/>
</a>
</g>
</g>
<!-- Node6&#45;&gt;Node7 -->
<g id="edge6_Node000006_Node000007" class="edge">
<title>Node6&#45;&gt;Node7</title>
<g id="a_edge6_Node000006_Node000007"><a xlink:title=" ">
<path fill="none" stroke="#63b8ff" d="M850.74,-371.89C861.55,-368.24 873.13,-363.48 883,-357.5 924.32,-332.49 963.28,-290.69 983.53,-267.1"/>
<polygon fill="#63b8ff" stroke="#63b8ff" points="986.34,-269.19 990.11,-259.29 980.99,-264.68 986.34,-269.19"/>
</a>
</g>
</g>
<!-- Node8&#45;&gt;Node7 -->
<g id="edge8_Node000008_Node000007" class="edge">
<title>Node8&#45;&gt;Node7</title>
<g id="a_edge8_Node000008_Node000007"><a xlink:title=" ">
<path fill="none" stroke="#63b8ff" d="M852.44,-295.94C862.43,-293.33 873.15,-290.41 883,-287.5 909.35,-279.72 938.76,-269.98 961.24,-262.31"/>
<polygon fill="#63b8ff" stroke="#63b8ff" points="962.41,-265.61 970.74,-259.06 960.14,-258.99 962.41,-265.61"/>
</a>
</g>
</g>
<!-- Node9&#45;&gt;Node7 -->
<g id="edge10_Node000009_Node000007" class="edge">
<title>Node9&#45;&gt;Node7</title>
<g id="a_edge10_Node000009_Node000007"><a xlink:title=" ">
<path fill="none" stroke="#63b8ff" d="M850.35,-264.75C867.18,-263.01 887.99,-260.86 908.63,-258.73"/>
<polygon fill="#63b8ff" stroke="#63b8ff" points="909.14,-262.19 918.73,-257.69 908.42,-255.23 909.14,-262.19"/>
</a>
</g>
</g>
<!-- Node10&#45;&gt;Node7 -->
<g id="edge12_Node000010_Node000007" class="edge">
<title>Node10&#45;&gt;Node7</title>
<g id="a_edge12_Node000010_Node000007"><a xlink:title=" ">
<path fill="none" stroke="#63b8ff" d="M870.21,-237C882.42,-238.19 895.63,-239.49 908.76,-240.77"/>
<polygon fill="#63b8ff" stroke="#63b8ff" points="908.48,-244.26 918.77,-241.75 909.16,-237.29 908.48,-244.26"/>
</a>
</g>
</g>
<!-- Node12&#45;&gt;Node7 -->
<g id="edge16_Node000012_Node000007" class="edge">
<title>Node12&#45;&gt;Node7</title>
<g id="a_edge16_Node000012_Node000007"><a xlink:title=" ">
<path fill="none" stroke="#63b8ff" d="M856.29,-167.01C865.28,-169.62 874.59,-172.77 883,-176.5 918.31,-192.15 955.37,-217.54 977.58,-233.88"/>
<polygon fill="#63b8ff" stroke="#63b8ff" points="975.49,-236.69 985.6,-239.86 979.68,-231.07 975.49,-236.69"/>
</a>
</g>
</g>
<!-- Node13&#45;&gt;Node7 -->
<g id="edge18_Node000013_Node000007" class="edge">
<title>Node13&#45;&gt;Node7</title>
<g id="a_edge18_Node000013_Node000007"><a xlink:title=" ">
<path fill="none" stroke="#63b8ff" d="M853.29,-127.73C863.37,-130.54 873.92,-134.35 883,-139.5 925.81,-163.78 964.72,-207.53 984.43,-231.9"/>
<polygon fill="#63b8ff" stroke="#63b8ff" points="981.84,-234.26 990.8,-239.93 987.33,-229.91 981.84,-234.26"/>
</a>
</g>
</g>
<!-- Node14&#45;&gt;Node7 -->
<g id="edge20_Node000014_Node000007" class="edge">
<title>Node14&#45;&gt;Node7</title>
<g id="a_edge20_Node000014_Node000007"><a xlink:title=" ">
<path fill="none" stroke="#63b8ff" d="M860.69,-91.97C868.52,-94.59 876.28,-98.02 883,-102.5 933.61,-136.23 971.82,-199.51 988.61,-230.89"/>
<polygon fill="#63b8ff" stroke="#63b8ff" points="985.57,-232.63 993.3,-239.88 991.78,-229.39 985.57,-232.63"/>
</a>
</g>
</g>
<!-- Node18 -->
<g id="Node000018" class="node">
<title>Node18</title>
<g id="a_Node000018"><a xlink:href="../../d2/d41/ObjectManagement_8cpp.html#abb664488d26ac602b11cc22de7243458" target="_top" xlink:title=" ">
<polygon fill="white" stroke="#666666" points="523,-98 380,-98 380,-79 523,-79 523,-98"/>
<text text-anchor="middle" x="451.5" y="-86" font-family="Helvetica,sans-Serif" font-size="10.00">HandleComponentUpdate</text>
</a>
</g>
</g>
<!-- Node17&#45;&gt;Node18 -->
<g id="edge24_Node000017_Node000018" class="edge">
<title>Node17&#45;&gt;Node18</title>
<g id="a_edge24_Node000017_Node000018"><a xlink:title=" ">
<path fill="none" stroke="#63b8ff" d="M326.57,-88.5C339.8,-88.5 354.79,-88.5 369.65,-88.5"/>
<polygon fill="#63b8ff" stroke="#63b8ff" points="369.9,-92 379.9,-88.5 369.9,-85 369.9,-92"/>
</a>
</g>
</g>
<!-- Node19 -->
<g id="Node000019" class="node">
<title>Node19</title>
<g id="a_Node000019"><a xlink:href="../../d2/d41/ObjectManagement_8cpp.html#a95ff1ee6a57e678376b2eae2ef499ab3" target="_top" xlink:title=" ">
<polygon fill="white" stroke="#666666" points="523,-56 380,-56 380,-37 523,-37 523,-56"/>
<text text-anchor="middle" x="451.5" y="-44" font-family="Helvetica,sans-Serif" font-size="10.00">WorkThroughFrameQueue</text>
</a>
</g>
</g>
<!-- Node17&#45;&gt;Node19 -->
<g id="edge25_Node000017_Node000019" class="edge">
<title>Node17&#45;&gt;Node19</title>
<g id="a_edge25_Node000017_Node000019"><a xlink:title=" ">
<path fill="none" stroke="#63b8ff" d="M321.01,-78.97C345.12,-72.92 376.54,-65.05 402.38,-58.56"/>
<polygon fill="#63b8ff" stroke="#63b8ff" points="403.5,-61.89 412.35,-56.07 401.8,-55.1 403.5,-61.89"/>
</a>
</g>
</g>
<!-- Node20 -->
<g id="Node000020" class="node">
<title>Node20</title>
<g id="a_Node000020"><a xlink:href="../../d2/d41/ObjectManagement_8cpp.html#ad487b4c14d5f4bf65d056f5c90ac4d72" target="_top" xlink:title=" ">
<polygon fill="white" stroke="#666666" points="703,-56 563,-56 563,-37 703,-37 703,-56"/>
<text text-anchor="middle" x="633" y="-44" font-family="Helvetica,sans-Serif" font-size="10.00">DestroyEnqueuedObjects</text>
</a>
</g>
</g>
<!-- Node19&#45;&gt;Node20 -->
<g id="edge26_Node000019_Node000020" class="edge">
<title>Node19&#45;&gt;Node20</title>
<g id="a_edge26_Node000019_Node000020"><a xlink:title=" ">
<path fill="none" stroke="#63b8ff" d="M523.19,-46.5C532.87,-46.5 542.86,-46.5 552.69,-46.5"/>
<polygon fill="#63b8ff" stroke="#63b8ff" points="552.85,-50 562.85,-46.5 552.85,-43 552.85,-50"/>
</a>
</g>
</g>
<!-- Node22 -->
<g id="Node000022" class="node">
<title>Node22</title>
<g id="a_Node000022"><a xlink:href="../../d2/d41/ObjectManagement_8cpp.html#a25053f13bc5fe6ea1caf5f343cbb30b8" target="_top" xlink:title=" ">
<polygon fill="white" stroke="#666666" points="704,-19 562,-19 562,0 704,0 704,-19"/>
<text text-anchor="middle" x="633" y="-7" font-family="Helvetica,sans-Serif" font-size="10.00">RegisterEnqueuedObjects</text>
</a>
</g>
</g>
<!-- Node19&#45;&gt;Node22 -->
<g id="edge28_Node000019_Node000022" class="edge">
<title>Node19&#45;&gt;Node22</title>
<g id="a_edge28_Node000019_Node000022"><a xlink:title=" ">
<path fill="none" stroke="#63b8ff" d="M498.73,-36.97C522.19,-32.14 550.89,-26.22 575.64,-21.12"/>
<polygon fill="#63b8ff" stroke="#63b8ff" points="576.53,-24.51 585.62,-19.06 575.12,-17.65 576.53,-24.51"/>
</a>
</g>
</g>
<!-- Node21 -->
<g id="Node000021" class="node">
<title>Node21</title>
<g id="a_Node000021"><a xlink:href="../../d2/d41/ObjectManagement_8cpp.html#ab91c7a16c0d19bae45779c2b3eb207f9" target="_top" xlink:title=" ">
<polygon fill="white" stroke="#666666" points="871,-56 755,-56 755,-37 871,-37 871,-56"/>
<text text-anchor="middle" x="813" y="-44" font-family="Helvetica,sans-Serif" font-size="10.00">DestroyGameObject</text>
</a>
</g>
</g>
<!-- Node20&#45;&gt;Node21 -->
<g id="edge27_Node000020_Node000021" class="edge">
<title>Node20&#45;&gt;Node21</title>
<g id="a_edge27_Node000020_Node000021"><a xlink:title=" ">
<path fill="none" stroke="#63b8ff" d="M703.07,-46.5C716.7,-46.5 730.99,-46.5 744.56,-46.5"/>
<polygon fill="#63b8ff" stroke="#63b8ff" points="744.78,-50 754.78,-46.5 744.78,-43 744.78,-50"/>
</a>
</g>
</g>
<!-- Node23 -->
<g id="Node000023" class="node">
<title>Node23</title>
<g id="a_Node000023"><a xlink:href="../../d2/d41/ObjectManagement_8cpp.html#a4eacad131651d21ffbebf4a2108a175c" target="_top" xlink:title=" ">
<polygon fill="white" stroke="#666666" points="872,-19 754,-19 754,0 872,0 872,-19"/>
<text text-anchor="middle" x="813" y="-7" font-family="Helvetica,sans-Serif" font-size="10.00">RegisterGameObject</text>
</a>
</g>
</g>
<!-- Node22&#45;&gt;Node23 -->
<g id="edge29_Node000022_Node000023" class="edge">
<title>Node22&#45;&gt;Node23</title>
<g id="a_edge29_Node000022_Node000023"><a xlink:title=" ">
<path fill="none" stroke="#63b8ff" d="M704.09,-9.5C717.07,-9.5 730.6,-9.5 743.53,-9.5"/>
<polygon fill="#63b8ff" stroke="#63b8ff" points="743.74,-13 753.74,-9.5 743.74,-6 743.74,-13"/>
</a>
</g>
</g>
</g>
</svg>
