<?xml version="1.0" encoding="UTF-8" standalone="no"?>
<!DOCTYPE svg PUBLIC "-//W3C//DTD SVG 1.1//EN"
 "http://www.w3.org/Graphics/SVG/1.1/DTD/svg11.dtd">
<!-- Generated by graphviz version 2.43.0 (0)
 -->
<!-- Title: gameLoop Pages: 1 -->
<svg width="1291pt" height="470pt"
 viewBox="0.00 0.00 1291.00 469.50" xmlns="http://www.w3.org/2000/svg" xmlns:xlink="http://www.w3.org/1999/xlink">
<g id="graph0" class="graph" transform="scale(1 1) rotate(0) translate(4 465.5)">
<title>gameLoop</title>
<!-- Node1 -->
<g id="Node000001" class="node">
<title>Node1</title>
<g id="a_Node000001"><a xlink:title="The main game loop, runs until QuitGame is set to true.">
<polygon fill="#999999" stroke="#666666" points="68,-103.5 0,-103.5 0,-84.5 68,-84.5 68,-103.5"/>
<text text-anchor="middle" x="34" y="-91.5" font-family="Helvetica,sans-Serif" font-size="10.00">gameLoop</text>
</a>
</g>
</g>
<!-- Node2 -->
<g id="Node000002" class="node">
<title>Node2</title>
<g id="a_Node000002"><a xlink:href="../../df/d0a/main_8cpp.html#ae8fa368bbea5177612cd2cf333448c66" target="_top" xlink:title="Executed every frame.">
<polygon fill="white" stroke="#666666" points="178.5,-155.5 132.5,-155.5 132.5,-136.5 178.5,-136.5 178.5,-155.5"/>
<text text-anchor="middle" x="155.5" y="-143.5" font-family="Helvetica,sans-Serif" font-size="10.00">frame</text>
</a>
</g>
</g>
<!-- Node1&#45;&gt;Node2 -->
<g id="edge1_Node000001_Node000002" class="edge">
<title>Node1&#45;&gt;Node2</title>
<g id="a_edge1_Node000001_Node000002"><a xlink:title=" ">
<path fill="none" stroke="#63b8ff" d="M56.92,-103.54C75.42,-111.59 102.13,-123.21 122.93,-132.26"/>
<polygon fill="#63b8ff" stroke="#63b8ff" points="121.75,-135.57 132.32,-136.35 124.54,-129.15 121.75,-135.57"/>
</a>
</g>
</g>
<!-- Node26 -->
<g id="Node000026" class="node">
<title>Node26</title>
<g id="a_Node000026"><a xlink:href="../../de/db0/Events_8cpp.html#a26867d84edb0f52a75127cf66c64c9a9" target="_top" xlink:title="Handles an event that has occoured.">
<polygon fill="white" stroke="#666666" points="195,-103.5 116,-103.5 116,-84.5 195,-84.5 195,-103.5"/>
<text text-anchor="middle" x="155.5" y="-91.5" font-family="Helvetica,sans-Serif" font-size="10.00">HandleEvent</text>
</a>
</g>
</g>
<!-- Node1&#45;&gt;Node26 -->
<g id="edge32_Node000001_Node000026" class="edge">
<title>Node1&#45;&gt;Node26</title>
<g id="a_edge32_Node000001_Node000026"><a xlink:title=" ">
<path fill="none" stroke="#63b8ff" d="M68.29,-94C79.83,-94 93.03,-94 105.57,-94"/>
<polygon fill="#63b8ff" stroke="#63b8ff" points="105.9,-97.5 115.9,-94 105.9,-90.5 105.9,-97.5"/>
</a>
</g>
</g>
<!-- Node31 -->
<g id="Node000031" class="node">
<title>Node31</title>
<g id="a_Node000031"><a xlink:href="../../d8/d38/Time_8cpp.html#a150f12b48e13e1c14a4e7646137c74a4" target="_top" xlink:title="Update the stored deltatime. Should be executed each frame.">
<polygon fill="white" stroke="#666666" points="207,-66.5 104,-66.5 104,-47.5 207,-47.5 207,-66.5"/>
<text text-anchor="middle" x="155.5" y="-54.5" font-family="Helvetica,sans-Serif" font-size="10.00">UpdateDeltaTime</text>
</a>
</g>
</g>
<!-- Node1&#45;&gt;Node31 -->
<g id="edge37_Node000001_Node000031" class="edge">
<title>Node1&#45;&gt;Node31</title>
<g id="a_edge37_Node000001_Node000031"><a xlink:title=" ">
<path fill="none" stroke="#63b8ff" d="M65.77,-84.47C80.3,-79.98 97.83,-74.55 113.47,-69.7"/>
<polygon fill="#63b8ff" stroke="#63b8ff" points="114.9,-72.93 123.41,-66.62 112.83,-66.24 114.9,-72.93"/>
</a>
</g>
</g>
<!-- Node3 -->
<g id="Node000003" class="node">
<title>Node3</title>
<g id="a_Node000003"><a xlink:href="../../de/dfd/GameManagement_8cpp.html#a96314a1ad91ef741694603ff58e7bee7" target="_top" xlink:title=" ">
<polygon fill="white" stroke="#666666" points="356.5,-163.5 254.5,-163.5 254.5,-144.5 356.5,-144.5 356.5,-163.5"/>
<text text-anchor="middle" x="305.5" y="-151.5" font-family="Helvetica,sans-Serif" font-size="10.00">RunFrameActions</text>
</a>
</g>
</g>
<!-- Node2&#45;&gt;Node3 -->
<g id="edge2_Node000002_Node000003" class="edge">
<title>Node2&#45;&gt;Node3</title>
<g id="a_edge2_Node000002_Node000003"><a xlink:title=" ">
<path fill="none" stroke="#63b8ff" d="M178.66,-147.2C196.01,-148.14 221,-149.49 244.15,-150.74"/>
<polygon fill="#63b8ff" stroke="#63b8ff" points="244.09,-154.24 254.27,-151.28 244.47,-147.25 244.09,-154.24"/>
</a>
</g>
</g>
<!-- Node4 -->
<g id="Node000004" class="node">
<title>Node4</title>
<g id="a_Node000004"><a xlink:href="../../de/dfd/GameManagement_8cpp.html#a2877bc3a946eb46940e5cdedcaf4e3f6" target="_top" xlink:title=" ">
<polygon fill="white" stroke="#666666" points="538,-200.5 414,-200.5 414,-181.5 538,-181.5 538,-200.5"/>
<text text-anchor="middle" x="476" y="-188.5" font-family="Helvetica,sans-Serif" font-size="10.00">ResetGameIfRequired</text>
</a>
</g>
</g>
<!-- Node3&#45;&gt;Node4 -->
<g id="edge3_Node000003_Node000004" class="edge">
<title>Node3&#45;&gt;Node4</title>
<g id="a_edge3_Node000003_Node000004"><a xlink:title=" ">
<path fill="none" stroke="#63b8ff" d="M349.89,-163.53C371.72,-168.32 398.38,-174.18 421.47,-179.25"/>
<polygon fill="#63b8ff" stroke="#63b8ff" points="420.94,-182.71 431.46,-181.44 422.44,-175.88 420.94,-182.71"/>
</a>
</g>
</g>
<!-- Node19 -->
<g id="Node000019" class="node">
<title>Node19</title>
<g id="a_Node000019"><a xlink:href="../../d2/d41/ObjectManagement_8cpp.html#a522912d67446895b0a03d01837b75a99" target="_top" xlink:title="Iterate over all objects, and update the appropriately, using OnTick() or Component specific methods.">
<polygon fill="white" stroke="#666666" points="520.5,-163.5 431.5,-163.5 431.5,-144.5 520.5,-144.5 520.5,-163.5"/>
<text text-anchor="middle" x="476" y="-151.5" font-family="Helvetica,sans-Serif" font-size="10.00">UpdateObjects</text>
</a>
</g>
</g>
<!-- Node3&#45;&gt;Node19 -->
<g id="edge25_Node000003_Node000019" class="edge">
<title>Node3&#45;&gt;Node19</title>
<g id="a_edge25_Node000003_Node000019"><a xlink:title=" ">
<path fill="none" stroke="#63b8ff" d="M356.6,-154C376.93,-154 400.46,-154 421.16,-154"/>
<polygon fill="#63b8ff" stroke="#63b8ff" points="421.38,-157.5 431.38,-154 421.38,-150.5 421.38,-157.5"/>
</a>
</g>
</g>
<!-- Node5 -->
<g id="Node000005" class="node">
<title>Node5</title>
<g id="a_Node000005"><a xlink:href="../../d1/d99/Lifecycle_8cpp.html#a7be4f604c1baeb7cac84122a7f2438cf" target="_top" xlink:title="Reset the game to the initial state.">
<polygon fill="white" stroke="#666666" points="692.5,-200.5 618.5,-200.5 618.5,-181.5 692.5,-181.5 692.5,-200.5"/>
<text text-anchor="middle" x="655.5" y="-188.5" font-family="Helvetica,sans-Serif" font-size="10.00">ResetGame</text>
</a>
</g>
</g>
<!-- Node4&#45;&gt;Node5 -->
<g id="edge4_Node000004_Node000005" class="edge">
<title>Node4&#45;&gt;Node5</title>
<g id="a_edge4_Node000004_Node000005"><a xlink:title=" ">
<path fill="none" stroke="#63b8ff" d="M538.09,-191C561.1,-191 586.86,-191 608.29,-191"/>
<polygon fill="#63b8ff" stroke="#63b8ff" points="608.43,-194.5 618.43,-191 608.43,-187.5 608.43,-194.5"/>
</a>
</g>
</g>
<!-- Node6 -->
<g id="Node000006" class="node">
<title>Node6</title>
<g id="a_Node000006"><a xlink:href="../../d9/dfa/Init_8cpp.html#aaa64e8fd06230fa14e507cef71a3217d" target="_top" xlink:title="Create the initial gameobjects required for the game.">
<polygon fill="white" stroke="#666666" points="908.5,-292.5 765.5,-292.5 765.5,-273.5 908.5,-273.5 908.5,-292.5"/>
<text text-anchor="middle" x="837" y="-280.5" font-family="Helvetica,sans-Serif" font-size="10.00">CreateInitialGameObjects</text>
</a>
</g>
</g>
<!-- Node5&#45;&gt;Node6 -->
<g id="edge5_Node000005_Node000006" class="edge">
<title>Node5&#45;&gt;Node6</title>
<g id="a_edge5_Node000005_Node000006"><a xlink:title=" ">
<path fill="none" stroke="#63b8ff" d="M675.37,-200.67C707.1,-216.93 771.28,-249.83 808.18,-268.74"/>
<polygon fill="#63b8ff" stroke="#63b8ff" points="806.89,-272.01 817.38,-273.46 810.08,-265.78 806.89,-272.01"/>
</a>
</g>
</g>
<!-- Node17 -->
<g id="Node000017" class="node">
<title>Node17</title>
<g id="a_Node000017"><a xlink:href="../../d2/d41/ObjectManagement_8cpp.html#ae5ee3f705fc506491ca2b0c7cf059c75" target="_top" xlink:title="Initialize all gameobjects and call the OnStart() methods.">
<polygon fill="white" stroke="#666666" points="878.5,-219.5 795.5,-219.5 795.5,-200.5 878.5,-200.5 878.5,-219.5"/>
<text text-anchor="middle" x="837" y="-207.5" font-family="Helvetica,sans-Serif" font-size="10.00">OnGameStart</text>
</a>
</g>
</g>
<!-- Node5&#45;&gt;Node17 -->
<g id="edge23_Node000005_Node000017" class="edge">
<title>Node5&#45;&gt;Node17</title>
<g id="a_edge23_Node000005_Node000017"><a xlink:title=" ">
<path fill="none" stroke="#63b8ff" d="M692.82,-194.84C719.4,-197.66 755.8,-201.51 785.25,-204.63"/>
<polygon fill="#63b8ff" stroke="#63b8ff" points="785.03,-208.12 795.35,-205.7 785.77,-201.16 785.03,-208.12"/>
</a>
</g>
</g>
<!-- Node18 -->
<g id="Node000018" class="node">
<title>Node18</title>
<g id="a_Node000018"><a xlink:href="../../d8/d38/Time_8cpp.html#ae55fb718253dda2137a189d792bda7b9" target="_top" xlink:title="Reset the time since the game has started.">
<polygon fill="white" stroke="#666666" points="911,-182.5 763,-182.5 763,-163.5 911,-163.5 911,-182.5"/>
<text text-anchor="middle" x="837" y="-170.5" font-family="Helvetica,sans-Serif" font-size="10.00">ResetTimeSinceGameStart</text>
</a>
</g>
</g>
<!-- Node5&#45;&gt;Node18 -->
<g id="edge24_Node000005_Node000018" class="edge">
<title>Node5&#45;&gt;Node18</title>
<g id="a_edge24_Node000005_Node000018"><a xlink:title=" ">
<path fill="none" stroke="#63b8ff" d="M692.82,-187.36C710.08,-185.63 731.48,-183.48 752.42,-181.38"/>
<polygon fill="#63b8ff" stroke="#63b8ff" points="753.05,-184.84 762.65,-180.36 752.35,-177.87 753.05,-184.84"/>
</a>
</g>
</g>
<!-- Node7 -->
<g id="Node000007" class="node">
<title>Node7</title>
<g id="a_Node000007"><a xlink:href="../../d9/dfa/Init_8cpp.html#a3ff595c2af791c369e2318510062ce14" target="_top" xlink:title="Create the coffee meter bar.">
<polygon fill="white" stroke="#666666" points="1071.5,-424.5 962.5,-424.5 962.5,-405.5 1071.5,-405.5 1071.5,-424.5"/>
<text text-anchor="middle" x="1017" y="-412.5" font-family="Helvetica,sans-Serif" font-size="10.00">CreateCoffeeMeter</text>
</a>
</g>
</g>
<!-- Node6&#45;&gt;Node7 -->
<g id="edge6_Node000006_Node000007" class="edge">
<title>Node6&#45;&gt;Node7</title>
<g id="a_edge6_Node000006_Node000007"><a xlink:title=" ">
<path fill="none" stroke="#63b8ff" d="M845.12,-292.51C861.11,-313.24 902.02,-362.94 947,-391 953.89,-395.3 961.64,-398.94 969.4,-402"/>
<polygon fill="#63b8ff" stroke="#63b8ff" points="968.21,-405.29 978.8,-405.43 970.61,-398.72 968.21,-405.29"/>
</a>
</g>
</g>
<!-- Node8 -->
<g id="Node000008" class="node">
<title>Node8</title>
<g id="a_Node000008"><a xlink:href="../../d2/d41/ObjectManagement_8cpp.html#a9f8d0a459a7758c8b2d0b72cdd8adad0" target="_top" xlink:title="Enqueue an object to be registered on the next frame.">
<polygon fill="white" stroke="#666666" points="1283,-330.5 1123,-330.5 1123,-311.5 1283,-311.5 1283,-330.5"/>
<text text-anchor="middle" x="1203" y="-318.5" font-family="Helvetica,sans-Serif" font-size="10.00">EnqueueRegisterGameObject</text>
</a>
</g>
</g>
<!-- Node6&#45;&gt;Node8 -->
<g id="edge15_Node000006_Node000008" class="edge">
<title>Node6&#45;&gt;Node8</title>
<g id="a_edge15_Node000006_Node000008"><a xlink:title=" ">
<path fill="none" stroke="#63b8ff" d="M847.41,-292.53C865.05,-309.64 905.1,-344.98 947,-358 1025.13,-382.28 1121.78,-352.98 1170.61,-334.27"/>
<polygon fill="#63b8ff" stroke="#63b8ff" points="1171.98,-337.49 1180,-330.57 1169.41,-330.98 1171.98,-337.49"/>
</a>
</g>
</g>
<!-- Node9 -->
<g id="Node000009" class="node">
<title>Node9</title>
<g id="a_Node000009"><a xlink:href="../../d9/dfa/Init_8cpp.html#a1bfb628b6cd503e396bae0796f2051c1" target="_top" xlink:title="Create the icon next to the coffee meter.">
<polygon fill="white" stroke="#666666" points="1081.5,-461.5 952.5,-461.5 952.5,-442.5 1081.5,-442.5 1081.5,-461.5"/>
<text text-anchor="middle" x="1017" y="-449.5" font-family="Helvetica,sans-Serif" font-size="10.00">CreateCoffeeMeterIcon</text>
</a>
</g>
</g>
<!-- Node6&#45;&gt;Node9 -->
<g id="edge8_Node000006_Node000009" class="edge">
<title>Node6&#45;&gt;Node9</title>
<g id="a_edge8_Node000006_Node000009"><a xlink:title=" ">
<path fill="none" stroke="#63b8ff" d="M842.03,-292.54C853.88,-319.34 891.24,-395.82 947,-434 949.27,-435.55 951.66,-436.97 954.14,-438.27"/>
<polygon fill="#63b8ff" stroke="#63b8ff" points="952.88,-441.54 963.43,-442.45 955.75,-435.15 952.88,-441.54"/>
</a>
</g>
</g>
<!-- Node11 -->
<g id="Node000011" class="node">
<title>Node11</title>
<g id="a_Node000011"><a xlink:href="../../d9/dfa/Init_8cpp.html#a7577908172d93807ef67f163f851fe5e" target="_top" xlink:title="Create the floor and register it.">
<polygon fill="white" stroke="#666666" points="1054,-348.5 980,-348.5 980,-329.5 1054,-329.5 1054,-348.5"/>
<text text-anchor="middle" x="1017" y="-336.5" font-family="Helvetica,sans-Serif" font-size="10.00">CreateFloor</text>
</a>
</g>
</g>
<!-- Node6&#45;&gt;Node11 -->
<g id="edge11_Node000006_Node000011" class="edge">
<title>Node6&#45;&gt;Node11</title>
<g id="a_edge11_Node000006_Node000011"><a xlink:title=" ">
<path fill="none" stroke="#63b8ff" d="M863.8,-292.65C885.76,-300.71 918.24,-312.25 947,-321 954.33,-323.23 962.15,-325.43 969.79,-327.49"/>
<polygon fill="#63b8ff" stroke="#63b8ff" points="969.12,-330.94 979.68,-330.11 970.91,-324.17 969.12,-330.94"/>
</a>
</g>
</g>
<!-- Node12 -->
<g id="Node000012" class="node">
<title>Node12</title>
<g id="a_Node000012"><a xlink:href="../../d9/dfa/Init_8cpp.html#a8ad8206fa2846739c5e76ce97b6b2783" target="_top" xlink:title="Create the score counter and register it.">
<polygon fill="white" stroke="#666666" points="1074,-311.5 960,-311.5 960,-292.5 1074,-292.5 1074,-311.5"/>
<text text-anchor="middle" x="1017" y="-299.5" font-family="Helvetica,sans-Serif" font-size="10.00">CreateScoreCounter</text>
</a>
</g>
</g>
<!-- Node6&#45;&gt;Node12 -->
<g id="edge13_Node000006_Node000012" class="edge">
<title>Node6&#45;&gt;Node12</title>
<g id="a_edge13_Node000006_Node000012"><a xlink:title=" ">
<path fill="none" stroke="#63b8ff" d="M908.61,-290.54C922.14,-291.98 936.27,-293.49 949.67,-294.92"/>
<polygon fill="#63b8ff" stroke="#63b8ff" points="949.43,-298.41 959.75,-296 950.17,-291.45 949.43,-298.41"/>
</a>
</g>
</g>
<!-- Node13 -->
<g id="Node000013" class="node">
<title>Node13</title>
<g id="a_Node000013"><a xlink:href="../../d9/dfa/Init_8cpp.html#ac07b948048071cbf70f69aa9d691a93f" target="_top" xlink:title="Set the window background to white.">
<polygon fill="white" stroke="#666666" points="1087,-274.5 947,-274.5 947,-255.5 1087,-255.5 1087,-274.5"/>
<text text-anchor="middle" x="1017" y="-262.5" font-family="Helvetica,sans-Serif" font-size="10.00">SetupWindowbackground</text>
</a>
</g>
</g>
<!-- Node6&#45;&gt;Node13 -->
<g id="edge16_Node000006_Node000013" class="edge">
<title>Node6&#45;&gt;Node13</title>
<g id="a_edge16_Node000006_Node000013"><a xlink:title=" ">
<path fill="none" stroke="#63b8ff" d="M908.61,-275.86C917.87,-274.92 927.42,-273.96 936.81,-273.01"/>
<polygon fill="#63b8ff" stroke="#63b8ff" points="937.34,-276.47 946.93,-271.98 936.63,-269.51 937.34,-276.47"/>
</a>
</g>
</g>
<!-- Node14 -->
<g id="Node000014" class="node">
<title>Node14</title>
<g id="a_Node000014"><a xlink:href="../../d9/dfa/Init_8cpp.html#a374cb6f303f72b5af970063ff1318f24" target="_top" xlink:title="Create the left wall and register it.">
<polygon fill="white" stroke="#666666" points="1061,-237.5 973,-237.5 973,-218.5 1061,-218.5 1061,-237.5"/>
<text text-anchor="middle" x="1017" y="-225.5" font-family="Helvetica,sans-Serif" font-size="10.00">SpawnLeftWall</text>
</a>
</g>
</g>
<!-- Node6&#45;&gt;Node14 -->
<g id="edge17_Node000006_Node000014" class="edge">
<title>Node6&#45;&gt;Node14</title>
<g id="a_edge17_Node000006_Node000014"><a xlink:title=" ">
<path fill="none" stroke="#63b8ff" d="M865.65,-273.44C887.61,-265.95 919.15,-255.43 947,-247 954.53,-244.72 962.55,-242.41 970.36,-240.22"/>
<polygon fill="#63b8ff" stroke="#63b8ff" points="971.39,-243.57 980.09,-237.52 969.52,-236.82 971.39,-243.57"/>
</a>
</g>
</g>
<!-- Node15 -->
<g id="Node000015" class="node">
<title>Node15</title>
<g id="a_Node000015"><a xlink:href="../../d9/dfa/Init_8cpp.html#aa021dfea28868af5fdc6eb97fdf11395" target="_top" xlink:title="Create the player and register it.">
<polygon fill="white" stroke="#666666" points="1057,-200.5 977,-200.5 977,-181.5 1057,-181.5 1057,-200.5"/>
<text text-anchor="middle" x="1017" y="-188.5" font-family="Helvetica,sans-Serif" font-size="10.00">SpawnPlayer</text>
</a>
</g>
</g>
<!-- Node6&#45;&gt;Node15 -->
<g id="edge19_Node000006_Node000015" class="edge">
<title>Node6&#45;&gt;Node15</title>
<g id="a_edge19_Node000006_Node000015"><a xlink:title=" ">
<path fill="none" stroke="#63b8ff" d="M849.66,-273.32C868.83,-257.85 908.69,-227.54 947,-210 953.3,-207.12 960.13,-204.59 966.96,-202.39"/>
<polygon fill="#63b8ff" stroke="#63b8ff" points="968.32,-205.64 976.9,-199.42 966.32,-198.93 968.32,-205.64"/>
</a>
</g>
</g>
<!-- Node16 -->
<g id="Node000016" class="node">
<title>Node16</title>
<g id="a_Node000016"><a xlink:href="../../d9/dfa/Init_8cpp.html#a0e2d0321a787eb9a3b705489c8f2b86b" target="_top" xlink:title="Create the right wall and register it.">
<polygon fill="white" stroke="#666666" points="1064.5,-163.5 969.5,-163.5 969.5,-144.5 1064.5,-144.5 1064.5,-163.5"/>
<text text-anchor="middle" x="1017" y="-151.5" font-family="Helvetica,sans-Serif" font-size="10.00">SpawnRightWall</text>
</a>
</g>
</g>
<!-- Node6&#45;&gt;Node16 -->
<g id="edge21_Node000006_Node000016" class="edge">
<title>Node6&#45;&gt;Node16</title>
<g id="a_edge21_Node000006_Node000016"><a xlink:title=" ">
<path fill="none" stroke="#63b8ff" d="M854.12,-273.5C869.86,-263.7 893.87,-247.3 911,-229 931.23,-207.4 923.16,-190.53 947,-173 950.92,-170.12 955.26,-167.67 959.8,-165.59"/>
<polygon fill="#63b8ff" stroke="#63b8ff" points="961.3,-168.76 969.31,-161.83 958.72,-162.25 961.3,-168.76"/>
</a>
</g>
</g>
<!-- Node7&#45;&gt;Node8 -->
<g id="edge7_Node000007_Node000008" class="edge">
<title>Node7&#45;&gt;Node8</title>
<g id="a_edge7_Node000007_Node000008"><a xlink:title=" ">
<path fill="none" stroke="#63b8ff" d="M1050.16,-405.39C1061.97,-401.45 1075.3,-396.52 1087,-391 1120.81,-375.05 1157.27,-351.7 1179.87,-336.43"/>
<polygon fill="#63b8ff" stroke="#63b8ff" points="1182.09,-339.15 1188.37,-330.62 1178.14,-333.37 1182.09,-339.15"/>
</a>
</g>
</g>
<!-- Node9&#45;&gt;Node8 -->
<g id="edge9_Node000009_Node000008" class="edge">
<title>Node9&#45;&gt;Node8</title>
<g id="a_edge9_Node000009_Node000008"><a xlink:title=" ">
<path fill="none" stroke="#63b8ff" d="M1067.5,-442.47C1074.28,-440.21 1080.97,-437.42 1087,-434 1130.59,-409.28 1169.45,-363.88 1188.88,-338.8"/>
<polygon fill="#63b8ff" stroke="#63b8ff" points="1191.88,-340.65 1195.13,-330.56 1186.3,-336.41 1191.88,-340.65"/>
</a>
</g>
</g>
<!-- Node10 -->
<g id="Node000010" class="node">
<title>Node10</title>
<g id="a_Node000010"><a xlink:href="../../d1/da9/AssetLoading_8cpp.html#a07739f40c13743b2dfceefb659d6d455" target="_top" xlink:title="Return the correct asset path for the asset depending on the current environment.">
<polygon fill="white" stroke="#666666" points="1244,-461.5 1162,-461.5 1162,-442.5 1244,-442.5 1244,-461.5"/>
<text text-anchor="middle" x="1203" y="-449.5" font-family="Helvetica,sans-Serif" font-size="10.00">GetAssetPath</text>
</a>
</g>
</g>
<!-- Node9&#45;&gt;Node10 -->
<g id="edge10_Node000009_Node000010" class="edge">
<title>Node9&#45;&gt;Node10</title>
<g id="a_edge10_Node000009_Node000010"><a xlink:title=" ">
<path fill="none" stroke="#63b8ff" d="M1081.58,-452C1104.43,-452 1129.88,-452 1151.47,-452"/>
<polygon fill="#63b8ff" stroke="#63b8ff" points="1151.73,-455.5 1161.73,-452 1151.73,-448.5 1151.73,-455.5"/>
</a>
</g>
</g>
<!-- Node11&#45;&gt;Node8 -->
<g id="edge12_Node000011_Node000008" class="edge">
<title>Node11&#45;&gt;Node8</title>
<g id="a_edge12_Node000011_Node000008"><a xlink:title=" ">
<path fill="none" stroke="#63b8ff" d="M1054.35,-335.44C1071.18,-333.8 1091.99,-331.76 1112.63,-329.74"/>
<polygon fill="#63b8ff" stroke="#63b8ff" points="1113.11,-333.21 1122.73,-328.76 1112.43,-326.25 1113.11,-333.21"/>
</a>
</g>
</g>
<!-- Node12&#45;&gt;Node8 -->
<g id="edge14_Node000012_Node000008" class="edge">
<title>Node12&#45;&gt;Node8</title>
<g id="a_edge14_Node000012_Node000008"><a xlink:title=" ">
<path fill="none" stroke="#63b8ff" d="M1074.21,-307.8C1086.42,-309.06 1099.63,-310.43 1112.76,-311.78"/>
<polygon fill="#63b8ff" stroke="#63b8ff" points="1112.46,-315.27 1122.77,-312.82 1113.18,-308.31 1112.46,-315.27"/>
</a>
</g>
</g>
<!-- Node14&#45;&gt;Node8 -->
<g id="edge18_Node000014_Node000008" class="edge">
<title>Node14&#45;&gt;Node8</title>
<g id="a_edge18_Node000014_Node000008"><a xlink:title=" ">
<path fill="none" stroke="#63b8ff" d="M1060.67,-237.57C1069.55,-240.16 1078.72,-243.3 1087,-247 1122.59,-262.9 1159.84,-288.85 1181.97,-305.41"/>
<polygon fill="#63b8ff" stroke="#63b8ff" points="1179.87,-308.21 1189.95,-311.47 1184.1,-302.63 1179.87,-308.21"/>
</a>
</g>
</g>
<!-- Node15&#45;&gt;Node8 -->
<g id="edge20_Node000015_Node000008" class="edge">
<title>Node15&#45;&gt;Node8</title>
<g id="a_edge20_Node000015_Node000008"><a xlink:title=" ">
<path fill="none" stroke="#63b8ff" d="M1057.31,-198.2C1067.39,-201.01 1077.93,-204.83 1087,-210 1129.94,-234.48 1168.8,-278.63 1188.47,-303.23"/>
<polygon fill="#63b8ff" stroke="#63b8ff" points="1185.9,-305.62 1194.82,-311.34 1191.41,-301.31 1185.9,-305.62"/>
</a>
</g>
</g>
<!-- Node16&#45;&gt;Node8 -->
<g id="edge22_Node000016_Node000008" class="edge">
<title>Node16&#45;&gt;Node8</title>
<g id="a_edge22_Node000016_Node000008"><a xlink:title=" ">
<path fill="none" stroke="#63b8ff" d="M1064.7,-162.45C1072.53,-165.08 1080.29,-168.51 1087,-173 1137.77,-206.95 1175.91,-270.67 1192.65,-302.26"/>
<polygon fill="#63b8ff" stroke="#63b8ff" points="1189.62,-304.03 1197.32,-311.31 1195.84,-300.82 1189.62,-304.03"/>
</a>
</g>
</g>
<!-- Node20 -->
<g id="Node000020" class="node">
<title>Node20</title>
<g id="a_Node000020"><a xlink:href="../../d2/d41/ObjectManagement_8cpp.html#abb664488d26ac602b11cc22de7243458" target="_top" xlink:title=" ">
<polygon fill="white" stroke="#666666" points="727,-163.5 584,-163.5 584,-144.5 727,-144.5 727,-163.5"/>
<text text-anchor="middle" x="655.5" y="-151.5" font-family="Helvetica,sans-Serif" font-size="10.00">HandleComponentUpdate</text>
</a>
</g>
</g>
<!-- Node19&#45;&gt;Node20 -->
<g id="edge26_Node000019_Node000020" class="edge">
<title>Node19&#45;&gt;Node20</title>
<g id="a_edge26_Node000019_Node000020"><a xlink:title=" ">
<path fill="none" stroke="#63b8ff" d="M520.88,-154C536.9,-154 555.57,-154 573.79,-154"/>
<polygon fill="#63b8ff" stroke="#63b8ff" points="573.85,-157.5 583.85,-154 573.85,-150.5 573.85,-157.5"/>
</a>
</g>
</g>
<!-- Node21 -->
<g id="Node000021" class="node">
<title>Node21</title>
<g id="a_Node000021"><a xlink:href="../../d2/d41/ObjectManagement_8cpp.html#a95ff1ee6a57e678376b2eae2ef499ab3" target="_top" xlink:title=" ">
<polygon fill="white" stroke="#666666" points="727,-126.5 584,-126.5 584,-107.5 727,-107.5 727,-126.5"/>
<text text-anchor="middle" x="655.5" y="-114.5" font-family="Helvetica,sans-Serif" font-size="10.00">WorkThroughFrameQueue</text>
</a>
</g>
</g>
<!-- Node19&#45;&gt;Node21 -->
<g id="edge27_Node000019_Node000021" class="edge">
<title>Node19&#45;&gt;Node21</title>
<g id="a_edge27_Node000019_Node000021"><a xlink:title=" ">
<path fill="none" stroke="#63b8ff" d="M520.88,-144.85C544.34,-139.96 573.47,-133.89 598.55,-128.66"/>
<polygon fill="#63b8ff" stroke="#63b8ff" points="599.58,-132.02 608.65,-126.56 598.15,-125.17 599.58,-132.02"/>
</a>
</g>
</g>
<!-- Node22 -->
<g id="Node000022" class="node">
<title>Node22</title>
<g id="a_Node000022"><a xlink:href="../../d2/d41/ObjectManagement_8cpp.html#ad487b4c14d5f4bf65d056f5c90ac4d72" target="_top" xlink:title=" ">
<polygon fill="white" stroke="#666666" points="907,-126.5 767,-126.5 767,-107.5 907,-107.5 907,-126.5"/>
<text text-anchor="middle" x="837" y="-114.5" font-family="Helvetica,sans-Serif" font-size="10.00">DestroyEnqueuedObjects</text>
</a>
</g>
</g>
<!-- Node21&#45;&gt;Node22 -->
<g id="edge28_Node000021_Node000022" class="edge">
<title>Node21&#45;&gt;Node22</title>
<g id="a_edge28_Node000021_Node000022"><a xlink:title=" ">
<path fill="none" stroke="#63b8ff" d="M727.19,-117C736.87,-117 746.86,-117 756.69,-117"/>
<polygon fill="#63b8ff" stroke="#63b8ff" points="756.85,-120.5 766.85,-117 756.85,-113.5 756.85,-120.5"/>
</a>
</g>
</g>
<!-- Node24 -->
<g id="Node000024" class="node">
<title>Node24</title>
<g id="a_Node000024"><a xlink:href="../../d2/d41/ObjectManagement_8cpp.html#a25053f13bc5fe6ea1caf5f343cbb30b8" target="_top" xlink:title=" ">
<polygon fill="white" stroke="#666666" points="908,-89.5 766,-89.5 766,-70.5 908,-70.5 908,-89.5"/>
<text text-anchor="middle" x="837" y="-77.5" font-family="Helvetica,sans-Serif" font-size="10.00">RegisterEnqueuedObjects</text>
</a>
</g>
</g>
<!-- Node21&#45;&gt;Node24 -->
<g id="edge30_Node000021_Node000024" class="edge">
<title>Node21&#45;&gt;Node24</title>
<g id="a_edge30_Node000021_Node000024"><a xlink:title=" ">
<path fill="none" stroke="#63b8ff" d="M702.73,-107.47C726.19,-102.64 754.89,-96.72 779.64,-91.62"/>
<polygon fill="#63b8ff" stroke="#63b8ff" points="780.53,-95.01 789.62,-89.56 779.12,-88.15 780.53,-95.01"/>
</a>
</g>
</g>
<!-- Node23 -->
<g id="Node000023" class="node">
<title>Node23</title>
<g id="a_Node000023"><a xlink:href="../../d2/d41/ObjectManagement_8cpp.html#ab91c7a16c0d19bae45779c2b3eb207f9" target="_top" xlink:title=" ">
<polygon fill="white" stroke="#666666" points="1075,-126.5 959,-126.5 959,-107.5 1075,-107.5 1075,-126.5"/>
<text text-anchor="middle" x="1017" y="-114.5" font-family="Helvetica,sans-Serif" font-size="10.00">DestroyGameObject</text>
</a>
</g>
</g>
<!-- Node22&#45;&gt;Node23 -->
<g id="edge29_Node000022_Node000023" class="edge">
<title>Node22&#45;&gt;Node23</title>
<g id="a_edge29_Node000022_Node000023"><a xlink:title=" ">
<path fill="none" stroke="#63b8ff" d="M907.07,-117C920.7,-117 934.99,-117 948.56,-117"/>
<polygon fill="#63b8ff" stroke="#63b8ff" points="948.78,-120.5 958.78,-117 948.78,-113.5 948.78,-120.5"/>
</a>
</g>
</g>
<!-- Node25 -->
<g id="Node000025" class="node">
<title>Node25</title>
<g id="a_Node000025"><a xlink:href="../../d2/d41/ObjectManagement_8cpp.html#a4eacad131651d21ffbebf4a2108a175c" target="_top" xlink:title=" ">
<polygon fill="white" stroke="#666666" points="1076,-89.5 958,-89.5 958,-70.5 1076,-70.5 1076,-89.5"/>
<text text-anchor="middle" x="1017" y="-77.5" font-family="Helvetica,sans-Serif" font-size="10.00">RegisterGameObject</text>
</a>
</g>
</g>
<!-- Node24&#45;&gt;Node25 -->
<g id="edge31_Node000024_Node000025" class="edge">
<title>Node24&#45;&gt;Node25</title>
<g id="a_edge31_Node000024_Node000025"><a xlink:title=" ">
<path fill="none" stroke="#63b8ff" d="M908.09,-80C921.07,-80 934.6,-80 947.53,-80"/>
<polygon fill="#63b8ff" stroke="#63b8ff" points="947.74,-83.5 957.74,-80 947.74,-76.5 947.74,-83.5"/>
</a>
</g>
</g>
<!-- Node27 -->
<g id="Node000027" class="node">
<title>Node27</title>
<g id="a_Node000027"><a xlink:href="../../d2/d3b/KeyboardHandling_8cpp.html#a2b6d8aae8fe15780544c6ada95a93033" target="_top" xlink:title="Handle a keyboard event.">
<polygon fill="white" stroke="#666666" points="368,-96.5 243,-96.5 243,-77.5 368,-77.5 368,-96.5"/>
<text text-anchor="middle" x="305.5" y="-84.5" font-family="Helvetica,sans-Serif" font-size="10.00">HandleKeyboardEvent</text>
</a>
</g>
</g>
<!-- Node26&#45;&gt;Node27 -->
<g id="edge33_Node000026_Node000027" class="edge">
<title>Node26&#45;&gt;Node27</title>
<g id="a_edge33_Node000026_Node000027"><a xlink:title=" ">
<path fill="none" stroke="#63b8ff" d="M195.39,-92.16C206.87,-91.62 219.83,-91 232.7,-90.4"/>
<polygon fill="#63b8ff" stroke="#63b8ff" points="233.15,-93.88 242.97,-89.91 232.82,-86.89 233.15,-93.88"/>
</a>
</g>
</g>
<!-- Node28 -->
<g id="Node000028" class="node">
<title>Node28</title>
<g id="a_Node000028"><a xlink:href="../../de/d47/classKeyboardHandlerBehavior.html#aedfbd0872b0f5331ffece766aaa7b3c2" target="_top" xlink:title="Called when a key is pressed (or held) down.">
<polygon fill="white" stroke="#666666" points="548,-126 404,-126 404,-96 548,-96 548,-126"/>
<text text-anchor="start" x="412" y="-114" font-family="Helvetica,sans-Serif" font-size="10.00">KeyboardHandlerBehavior</text>
<text text-anchor="middle" x="476" y="-103" font-family="Helvetica,sans-Serif" font-size="10.00">::OnKeyDown</text>
</a>
</g>
</g>
<!-- Node27&#45;&gt;Node28 -->
<g id="edge34_Node000027_Node000028" class="edge">
<title>Node27&#45;&gt;Node28</title>
<g id="a_edge34_Node000027_Node000028"><a xlink:title=" ">
<path fill="none" stroke="#63b8ff" d="M368.29,-95.8C376.59,-96.98 385.21,-98.21 393.78,-99.43"/>
<polygon fill="#63b8ff" stroke="#63b8ff" points="393.42,-102.92 403.81,-100.86 394.4,-95.98 393.42,-102.92"/>
</a>
</g>
</g>
<!-- Node29 -->
<g id="Node000029" class="node">
<title>Node29</title>
<g id="a_Node000029"><a xlink:href="../../de/d47/classKeyboardHandlerBehavior.html#a2ffe164cb50551f0d20b40753b0d193d" target="_top" xlink:title="Called when a key is released.">
<polygon fill="white" stroke="#666666" points="548,-78 404,-78 404,-48 548,-48 548,-78"/>
<text text-anchor="start" x="412" y="-66" font-family="Helvetica,sans-Serif" font-size="10.00">KeyboardHandlerBehavior</text>
<text text-anchor="middle" x="476" y="-55" font-family="Helvetica,sans-Serif" font-size="10.00">::OnKeyUp</text>
</a>
</g>
</g>
<!-- Node27&#45;&gt;Node29 -->
<g id="edge35_Node000027_Node000029" class="edge">
<title>Node27&#45;&gt;Node29</title>
<g id="a_edge35_Node000027_Node000029"><a xlink:title=" ">
<path fill="none" stroke="#63b8ff" d="M368.29,-78.2C376.59,-77.02 385.21,-75.79 393.78,-74.57"/>
<polygon fill="#63b8ff" stroke="#63b8ff" points="394.4,-78.02 403.81,-73.14 393.42,-71.08 394.4,-78.02"/>
</a>
</g>
</g>
<!-- Node30 -->
<g id="Node000030" class="node">
<title>Node30</title>
<g id="a_Node000030"><a xlink:href="../../d9/df7/classGameObjectComponent.html#ade2db51ea6caeaa80b1a80395ffbb779" target="_top" xlink:title=" ">
<polygon fill="white" stroke="#666666" points="543,-30 409,-30 409,0 543,0 543,-30"/>
<text text-anchor="start" x="417" y="-18" font-family="Helvetica,sans-Serif" font-size="10.00">GameObjectComponent</text>
<text text-anchor="middle" x="476" y="-7" font-family="Helvetica,sans-Serif" font-size="10.00">::OnTick</text>
</a>
</g>
</g>
<!-- Node27&#45;&gt;Node30 -->
<g id="edge36_Node000027_Node000030" class="edge">
<title>Node27&#45;&gt;Node30</title>
<g id="a_edge36_Node000027_Node000030"><a xlink:title=" ">
<path fill="none" stroke="#63b8ff" d="M324.15,-77.44C343.43,-67.19 375.4,-50.81 404,-39 408.5,-37.14 413.2,-35.31 417.94,-33.55"/>
<polygon fill="#63b8ff" stroke="#63b8ff" points="419.49,-36.71 427.7,-30.02 417.11,-30.13 419.49,-36.71"/>
</a>
</g>
</g>
</g>
</svg>
