<?xml version="1.0" encoding="UTF-8" standalone="no"?>
<!DOCTYPE svg PUBLIC "-//W3C//DTD SVG 1.1//EN"
 "http://www.w3.org/Graphics/SVG/1.1/DTD/svg11.dtd">
<!-- Generated by graphviz version 2.43.0 (0)
 -->
<!-- Title: frame Pages: 1 -->
<svg width="1221pt" height="352pt"
 viewBox="0.00 0.00 1221.00 352.00" xmlns="http://www.w3.org/2000/svg" xmlns:xlink="http://www.w3.org/1999/xlink">
<g id="graph0" class="graph" transform="scale(1 1) rotate(0) translate(4 348)">
<title>frame</title>
<!-- Node1 -->
<g id="Node000001" class="node">
<title>Node1</title>
<g id="a_Node000001"><a xlink:title="Executed every frame.">
<polygon fill="#999999" stroke="#666666" points="46,-324 0,-324 0,-305 46,-305 46,-324"/>
<text text-anchor="middle" x="23" y="-312" font-family="Helvetica,sans-Serif" font-size="10.00">frame</text>
</a>
</g>
</g>
<!-- Node2 -->
<g id="Node000002" class="node">
<title>Node2</title>
<g id="a_Node000002"><a xlink:href="../../de/dfd/GameManagement_8cpp.html#a522912d67446895b0a03d01837b75a99" target="_top" xlink:title="Iterate over all objects, and update the appropriately, using OnTick() or Component specific methods.">
<polygon fill="white" stroke="#666666" points="171,-324 82,-324 82,-305 171,-305 171,-324"/>
<text text-anchor="middle" x="126.5" y="-312" font-family="Helvetica,sans-Serif" font-size="10.00">UpdateObjects</text>
</a>
</g>
</g>
<!-- Node1&#45;&gt;Node2 -->
<g id="edge1_Node000001_Node000002" class="edge">
<title>Node1&#45;&gt;Node2</title>
<g id="a_edge1_Node000001_Node000002"><a xlink:title=" ">
<path fill="none" stroke="#63b8ff" d="M46.02,-314.5C53.65,-314.5 62.56,-314.5 71.61,-314.5"/>
<polygon fill="#63b8ff" stroke="#63b8ff" points="71.82,-318 81.82,-314.5 71.82,-311 71.82,-318"/>
</a>
</g>
</g>
<!-- Node3 -->
<g id="Node000003" class="node">
<title>Node3</title>
<g id="a_Node000003"><a xlink:href="../../de/dfd/GameManagement_8cpp.html#abb664488d26ac602b11cc22de7243458" target="_top" xlink:title=" ">
<polygon fill="white" stroke="#666666" points="350,-343 207,-343 207,-324 350,-324 350,-343"/>
<text text-anchor="middle" x="278.5" y="-331" font-family="Helvetica,sans-Serif" font-size="10.00">HandleComponentUpdate</text>
</a>
</g>
</g>
<!-- Node2&#45;&gt;Node3 -->
<g id="edge2_Node000002_Node000003" class="edge">
<title>Node2&#45;&gt;Node3</title>
<g id="a_edge2_Node000002_Node000003"><a xlink:title=" ">
<path fill="none" stroke="#63b8ff" d="M171.29,-320.05C179.39,-321.07 188.09,-322.17 196.89,-323.29"/>
<polygon fill="#63b8ff" stroke="#63b8ff" points="196.48,-326.77 206.85,-324.55 197.36,-319.82 196.48,-326.77"/>
</a>
</g>
</g>
<!-- Node4 -->
<g id="Node000004" class="node">
<title>Node4</title>
<g id="a_Node000004"><a xlink:href="../../de/dfd/GameManagement_8cpp.html#a95ff1ee6a57e678376b2eae2ef499ab3" target="_top" xlink:title=" ">
<polygon fill="white" stroke="#666666" points="350,-306 207,-306 207,-287 350,-287 350,-306"/>
<text text-anchor="middle" x="278.5" y="-294" font-family="Helvetica,sans-Serif" font-size="10.00">WorkThroughFrameQueue</text>
</a>
</g>
</g>
<!-- Node2&#45;&gt;Node4 -->
<g id="edge3_Node000002_Node000004" class="edge">
<title>Node2&#45;&gt;Node4</title>
<g id="a_edge3_Node000002_Node000004"><a xlink:title=" ">
<path fill="none" stroke="#63b8ff" d="M171.29,-309.25C179.39,-308.27 188.09,-307.23 196.89,-306.17"/>
<polygon fill="#63b8ff" stroke="#63b8ff" points="197.33,-309.65 206.85,-304.98 196.5,-302.7 197.33,-309.65"/>
</a>
</g>
</g>
<!-- Node5 -->
<g id="Node000005" class="node">
<title>Node5</title>
<g id="a_Node000005"><a xlink:href="../../de/dfd/GameManagement_8cpp.html#ad487b4c14d5f4bf65d056f5c90ac4d72" target="_top" xlink:title=" ">
<polygon fill="white" stroke="#666666" points="526,-344 386,-344 386,-325 526,-325 526,-344"/>
<text text-anchor="middle" x="456" y="-332" font-family="Helvetica,sans-Serif" font-size="10.00">DestroyEnqueuedObjects</text>
</a>
</g>
</g>
<!-- Node4&#45;&gt;Node5 -->
<g id="edge4_Node000004_Node000005" class="edge">
<title>Node4&#45;&gt;Node5</title>
<g id="a_edge4_Node000004_Node000005"><a xlink:title=" ">
<path fill="none" stroke="#63b8ff" d="M323.79,-306.09C347.26,-311.17 376.28,-317.46 401.06,-322.82"/>
<polygon fill="#63b8ff" stroke="#63b8ff" points="400.52,-326.28 411.03,-324.98 402,-319.44 400.52,-326.28"/>
</a>
</g>
</g>
<!-- Node7 -->
<g id="Node000007" class="node">
<title>Node7</title>
<g id="a_Node000007"><a xlink:href="../../de/dfd/GameManagement_8cpp.html#a25053f13bc5fe6ea1caf5f343cbb30b8" target="_top" xlink:title=" ">
<polygon fill="white" stroke="#666666" points="704,-306 562,-306 562,-287 704,-287 704,-306"/>
<text text-anchor="middle" x="633" y="-294" font-family="Helvetica,sans-Serif" font-size="10.00">RegisterEnqueuedObjects</text>
</a>
</g>
</g>
<!-- Node4&#45;&gt;Node7 -->
<g id="edge6_Node000004_Node000007" class="edge">
<title>Node4&#45;&gt;Node7</title>
<g id="a_edge6_Node000004_Node000007"><a xlink:title=" ">
<path fill="none" stroke="#63b8ff" d="M350.41,-296.5C408.57,-296.5 490.89,-296.5 551.51,-296.5"/>
<polygon fill="#63b8ff" stroke="#63b8ff" points="551.81,-300 561.81,-296.5 551.81,-293 551.81,-300"/>
</a>
</g>
</g>
<!-- Node9 -->
<g id="Node000009" class="node">
<title>Node9</title>
<g id="a_Node000009"><a xlink:href="../../de/dfd/GameManagement_8cpp.html#a2877bc3a946eb46940e5cdedcaf4e3f6" target="_top" xlink:title=" ">
<polygon fill="white" stroke="#666666" points="518,-250 394,-250 394,-231 518,-231 518,-250"/>
<text text-anchor="middle" x="456" y="-238" font-family="Helvetica,sans-Serif" font-size="10.00">ResetGameIfRequired</text>
</a>
</g>
</g>
<!-- Node4&#45;&gt;Node9 -->
<g id="edge8_Node000004_Node000009" class="edge">
<title>Node4&#45;&gt;Node9</title>
<g id="a_edge8_Node000004_Node000009"><a xlink:title=" ">
<path fill="none" stroke="#63b8ff" d="M309.67,-286.87C338.85,-277.56 383.25,-263.4 415.29,-253.17"/>
<polygon fill="#63b8ff" stroke="#63b8ff" points="416.76,-256.38 425.22,-250 414.63,-249.71 416.76,-256.38"/>
</a>
</g>
</g>
<!-- Node6 -->
<g id="Node000006" class="node">
<title>Node6</title>
<g id="a_Node000006"><a xlink:href="../../de/dfd/GameManagement_8cpp.html#abc0ac24a5725e21af2dcc9eb0d0c40ae" target="_top" xlink:title="Immediately destroy a GameObject.">
<polygon fill="white" stroke="#666666" points="691,-344 575,-344 575,-325 691,-325 691,-344"/>
<text text-anchor="middle" x="633" y="-332" font-family="Helvetica,sans-Serif" font-size="10.00">DestroyGameObject</text>
</a>
</g>
</g>
<!-- Node5&#45;&gt;Node6 -->
<g id="edge5_Node000005_Node000006" class="edge">
<title>Node5&#45;&gt;Node6</title>
<g id="a_edge5_Node000005_Node000006"><a xlink:title=" ">
<path fill="none" stroke="#63b8ff" d="M526.16,-334.5C538.9,-334.5 552.19,-334.5 564.87,-334.5"/>
<polygon fill="#63b8ff" stroke="#63b8ff" points="564.88,-338 574.88,-334.5 564.88,-331 564.88,-338"/>
</a>
</g>
</g>
<!-- Node8 -->
<g id="Node000008" class="node">
<title>Node8</title>
<g id="a_Node000008"><a xlink:href="../../de/dfd/GameManagement_8cpp.html#a40f7d4339a01b155a82745c5bd8ead6a" target="_top" xlink:title="Directly register a gameobject. Will push the object into the GameObjects vector.">
<polygon fill="white" stroke="#666666" points="1213,-167 1095,-167 1095,-148 1213,-148 1213,-167"/>
<text text-anchor="middle" x="1154" y="-155" font-family="Helvetica,sans-Serif" font-size="10.00">RegisterGameObject</text>
</a>
</g>
</g>
<!-- Node7&#45;&gt;Node8 -->
<g id="edge7_Node000007_Node000008" class="edge">
<title>Node7&#45;&gt;Node8</title>
<g id="a_edge7_Node000007_Node000008"><a xlink:title=" ">
<path fill="none" stroke="#63b8ff" d="M670.8,-306.05C747.97,-323.95 930.24,-355.02 1059,-287.5 1082.57,-275.14 1123.34,-208.77 1142.49,-175.93"/>
<polygon fill="#63b8ff" stroke="#63b8ff" points="1145.52,-177.68 1147.49,-167.27 1139.46,-174.18 1145.52,-177.68"/>
</a>
</g>
</g>
<!-- Node10 -->
<g id="Node000010" class="node">
<title>Node10</title>
<g id="a_Node000010"><a xlink:href="../../d1/d99/Lifecycle_8cpp.html#a7be4f604c1baeb7cac84122a7f2438cf" target="_top" xlink:title="Reset the game to the initial state.">
<polygon fill="white" stroke="#666666" points="670,-213 596,-213 596,-194 670,-194 670,-213"/>
<text text-anchor="middle" x="633" y="-201" font-family="Helvetica,sans-Serif" font-size="10.00">ResetGame</text>
</a>
</g>
</g>
<!-- Node9&#45;&gt;Node10 -->
<g id="edge9_Node000009_Node000010" class="edge">
<title>Node9&#45;&gt;Node10</title>
<g id="a_edge9_Node000009_Node000010"><a xlink:title=" ">
<path fill="none" stroke="#63b8ff" d="M502.07,-230.97C527.82,-225.53 560.03,-218.72 585.94,-213.24"/>
<polygon fill="#63b8ff" stroke="#63b8ff" points="586.84,-216.63 595.9,-211.13 585.39,-209.78 586.84,-216.63"/>
</a>
</g>
</g>
<!-- Node11 -->
<g id="Node000011" class="node">
<title>Node11</title>
<g id="a_Node000011"><a xlink:href="../../d9/dfa/Init_8cpp.html#aaa64e8fd06230fa14e507cef71a3217d" target="_top" xlink:title="Create the initial gameobjects required for the game.">
<polygon fill="white" stroke="#666666" points="883,-167 740,-167 740,-148 883,-148 883,-167"/>
<text text-anchor="middle" x="811.5" y="-155" font-family="Helvetica,sans-Serif" font-size="10.00">CreateInitialGameObjects</text>
</a>
</g>
</g>
<!-- Node10&#45;&gt;Node11 -->
<g id="edge10_Node000010_Node000011" class="edge">
<title>Node10&#45;&gt;Node11</title>
<g id="a_edge10_Node000010_Node000011"><a xlink:title=" ">
<path fill="none" stroke="#63b8ff" d="M670.14,-194.08C697.21,-187.03 734.46,-177.32 763.79,-169.67"/>
<polygon fill="#63b8ff" stroke="#63b8ff" points="765,-172.97 773.8,-167.07 763.24,-166.2 765,-172.97"/>
</a>
</g>
</g>
<!-- Node21 -->
<g id="Node000021" class="node">
<title>Node21</title>
<g id="a_Node000021"><a xlink:href="../../de/dfd/GameManagement_8cpp.html#ae5ee3f705fc506491ca2b0c7cf059c75" target="_top" xlink:title="Initialize all gameobjects and call the OnStart() methods.">
<polygon fill="white" stroke="#666666" points="853,-213 770,-213 770,-194 853,-194 853,-213"/>
<text text-anchor="middle" x="811.5" y="-201" font-family="Helvetica,sans-Serif" font-size="10.00">OnGameStart</text>
</a>
</g>
</g>
<!-- Node10&#45;&gt;Node21 -->
<g id="edge27_Node000010_Node000021" class="edge">
<title>Node10&#45;&gt;Node21</title>
<g id="a_edge27_Node000010_Node000021"><a xlink:title=" ">
<path fill="none" stroke="#63b8ff" d="M670.14,-203.5C695.92,-203.5 730.94,-203.5 759.55,-203.5"/>
<polygon fill="#63b8ff" stroke="#63b8ff" points="759.78,-207 769.78,-203.5 759.78,-200 759.78,-207"/>
</a>
</g>
</g>
<!-- Node12 -->
<g id="Node000012" class="node">
<title>Node12</title>
<g id="a_Node000012"><a xlink:href="../../d9/dfa/Init_8cpp.html#a3ff595c2af791c369e2318510062ce14" target="_top" xlink:title="Create the coffee meter bar.">
<polygon fill="white" stroke="#666666" points="1043.5,-130 934.5,-130 934.5,-111 1043.5,-111 1043.5,-130"/>
<text text-anchor="middle" x="989" y="-118" font-family="Helvetica,sans-Serif" font-size="10.00">CreateCoffeeMeter</text>
</a>
</g>
</g>
<!-- Node11&#45;&gt;Node12 -->
<g id="edge11_Node000011_Node000012" class="edge">
<title>Node11&#45;&gt;Node12</title>
<g id="a_edge11_Node000011_Node000012"><a xlink:title=" ">
<path fill="none" stroke="#63b8ff" d="M857.7,-147.97C880.53,-143.16 908.45,-137.27 932.57,-132.19"/>
<polygon fill="#63b8ff" stroke="#63b8ff" points="933.59,-135.55 942.65,-130.06 932.15,-128.7 933.59,-135.55"/>
</a>
</g>
</g>
<!-- Node13 -->
<g id="Node000013" class="node">
<title>Node13</title>
<g id="a_Node000013"><a xlink:href="../../d9/dfa/Init_8cpp.html#a1bfb628b6cd503e396bae0796f2051c1" target="_top" xlink:title="Create the icon next to the coffee meter.">
<polygon fill="white" stroke="#666666" points="1053.5,-278 924.5,-278 924.5,-259 1053.5,-259 1053.5,-278"/>
<text text-anchor="middle" x="989" y="-266" font-family="Helvetica,sans-Serif" font-size="10.00">CreateCoffeeMeterIcon</text>
</a>
</g>
</g>
<!-- Node11&#45;&gt;Node13 -->
<g id="edge13_Node000011_Node000013" class="edge">
<title>Node11&#45;&gt;Node13</title>
<g id="a_edge13_Node000011_Node000013"><a xlink:title=" ">
<path fill="none" stroke="#63b8ff" d="M851.79,-167.04C862.77,-171.09 874.12,-176.73 883,-184.5 908.15,-206.5 892.67,-229.93 919,-250.5 920.78,-251.89 922.66,-253.18 924.62,-254.37"/>
<polygon fill="#63b8ff" stroke="#63b8ff" points="923.1,-257.52 933.59,-258.96 926.29,-251.29 923.1,-257.52"/>
</a>
</g>
</g>
<!-- Node15 -->
<g id="Node000015" class="node">
<title>Node15</title>
<g id="a_Node000015"><a xlink:href="../../d9/dfa/Init_8cpp.html#a7577908172d93807ef67f163f851fe5e" target="_top" xlink:title="Create the floor and register it.">
<polygon fill="white" stroke="#666666" points="1026,-93 952,-93 952,-74 1026,-74 1026,-93"/>
<text text-anchor="middle" x="989" y="-81" font-family="Helvetica,sans-Serif" font-size="10.00">CreateFloor</text>
</a>
</g>
</g>
<!-- Node11&#45;&gt;Node15 -->
<g id="edge16_Node000011_Node000015" class="edge">
<title>Node11&#45;&gt;Node15</title>
<g id="a_edge16_Node000011_Node000015"><a xlink:title=" ">
<path fill="none" stroke="#63b8ff" d="M827.85,-147.99C848.09,-135.78 885.11,-114.63 919,-101.5 926.31,-98.67 934.21,-96.14 941.98,-93.93"/>
<polygon fill="#63b8ff" stroke="#63b8ff" points="942.95,-97.3 951.69,-91.31 941.13,-90.54 942.95,-97.3"/>
</a>
</g>
</g>
<!-- Node16 -->
<g id="Node000016" class="node">
<title>Node16</title>
<g id="a_Node000016"><a xlink:href="../../d9/dfa/Init_8cpp.html#a8ad8206fa2846739c5e76ce97b6b2783" target="_top" xlink:title="Create the score counter and register it.">
<polygon fill="white" stroke="#666666" points="1046,-56 932,-56 932,-37 1046,-37 1046,-56"/>
<text text-anchor="middle" x="989" y="-44" font-family="Helvetica,sans-Serif" font-size="10.00">CreateScoreCounter</text>
</a>
</g>
</g>
<!-- Node11&#45;&gt;Node16 -->
<g id="edge18_Node000011_Node000016" class="edge">
<title>Node11&#45;&gt;Node16</title>
<g id="a_edge18_Node000011_Node000016"><a xlink:title=" ">
<path fill="none" stroke="#63b8ff" d="M820.55,-147.99C837.04,-129.13 876.69,-86.88 919,-64.5 922.53,-62.63 926.27,-60.95 930.1,-59.43"/>
<polygon fill="#63b8ff" stroke="#63b8ff" points="931.52,-62.65 939.78,-56.01 929.18,-56.05 931.52,-62.65"/>
</a>
</g>
</g>
<!-- Node17 -->
<g id="Node000017" class="node">
<title>Node17</title>
<g id="a_Node000017"><a xlink:href="../../d9/dfa/Init_8cpp.html#ac07b948048071cbf70f69aa9d691a93f" target="_top" xlink:title="Set the window background to white.">
<polygon fill="white" stroke="#666666" points="1059,-167 919,-167 919,-148 1059,-148 1059,-167"/>
<text text-anchor="middle" x="989" y="-155" font-family="Helvetica,sans-Serif" font-size="10.00">SetupWindowbackground</text>
</a>
</g>
</g>
<!-- Node11&#45;&gt;Node17 -->
<g id="edge20_Node000011_Node000017" class="edge">
<title>Node11&#45;&gt;Node17</title>
<g id="a_edge20_Node000011_Node000017"><a xlink:title=" ">
<path fill="none" stroke="#63b8ff" d="M883.12,-157.5C891.61,-157.5 900.32,-157.5 908.92,-157.5"/>
<polygon fill="#63b8ff" stroke="#63b8ff" points="908.95,-161 918.95,-157.5 908.95,-154 908.95,-161"/>
</a>
</g>
</g>
<!-- Node18 -->
<g id="Node000018" class="node">
<title>Node18</title>
<g id="a_Node000018"><a xlink:href="../../d9/dfa/Init_8cpp.html#a374cb6f303f72b5af970063ff1318f24" target="_top" xlink:title="Create the left wall and register it.">
<polygon fill="white" stroke="#666666" points="1033,-19 945,-19 945,0 1033,0 1033,-19"/>
<text text-anchor="middle" x="989" y="-7" font-family="Helvetica,sans-Serif" font-size="10.00">SpawnLeftWall</text>
</a>
</g>
</g>
<!-- Node11&#45;&gt;Node18 -->
<g id="edge21_Node000011_Node000018" class="edge">
<title>Node11&#45;&gt;Node18</title>
<g id="a_edge21_Node000011_Node000018"><a xlink:title=" ">
<path fill="none" stroke="#63b8ff" d="M817.5,-147.92C830.64,-123.72 868.64,-59.77 919,-27.5 923.94,-24.33 929.42,-21.72 935.06,-19.57"/>
<polygon fill="#63b8ff" stroke="#63b8ff" points="936.28,-22.85 944.66,-16.36 934.07,-16.21 936.28,-22.85"/>
</a>
</g>
</g>
<!-- Node19 -->
<g id="Node000019" class="node">
<title>Node19</title>
<g id="a_Node000019"><a xlink:href="../../d9/dfa/Init_8cpp.html#aa021dfea28868af5fdc6eb97fdf11395" target="_top" xlink:title="Create the player and register it.">
<polygon fill="white" stroke="#666666" points="1029,-241 949,-241 949,-222 1029,-222 1029,-241"/>
<text text-anchor="middle" x="989" y="-229" font-family="Helvetica,sans-Serif" font-size="10.00">SpawnPlayer</text>
</a>
</g>
</g>
<!-- Node11&#45;&gt;Node19 -->
<g id="edge23_Node000011_Node000019" class="edge">
<title>Node11&#45;&gt;Node19</title>
<g id="a_edge23_Node000011_Node000019"><a xlink:title=" ">
<path fill="none" stroke="#63b8ff" d="M843.23,-167.04C855.93,-171.55 870.56,-177.48 883,-184.5 900.66,-194.46 900.88,-203.41 919,-212.5 925.19,-215.61 931.96,-218.26 938.76,-220.51"/>
<polygon fill="#63b8ff" stroke="#63b8ff" points="938.1,-223.97 948.69,-223.53 940.14,-217.27 938.1,-223.97"/>
</a>
</g>
</g>
<!-- Node20 -->
<g id="Node000020" class="node">
<title>Node20</title>
<g id="a_Node000020"><a xlink:href="../../d9/dfa/Init_8cpp.html#a0e2d0321a787eb9a3b705489c8f2b86b" target="_top" xlink:title="Create the right wall and register it.">
<polygon fill="white" stroke="#666666" points="1036.5,-204 941.5,-204 941.5,-185 1036.5,-185 1036.5,-204"/>
<text text-anchor="middle" x="989" y="-192" font-family="Helvetica,sans-Serif" font-size="10.00">SpawnRightWall</text>
</a>
</g>
</g>
<!-- Node11&#45;&gt;Node20 -->
<g id="edge25_Node000011_Node000020" class="edge">
<title>Node11&#45;&gt;Node20</title>
<g id="a_edge25_Node000011_Node000020"><a xlink:title=" ">
<path fill="none" stroke="#63b8ff" d="M857.7,-167.03C880.53,-171.84 908.45,-177.73 932.57,-182.81"/>
<polygon fill="#63b8ff" stroke="#63b8ff" points="932.15,-186.3 942.65,-184.94 933.59,-179.45 932.15,-186.3"/>
</a>
</g>
</g>
<!-- Node12&#45;&gt;Node8 -->
<g id="edge12_Node000012_Node000008" class="edge">
<title>Node12&#45;&gt;Node8</title>
<g id="a_edge12_Node000012_Node000008"><a xlink:title=" ">
<path fill="none" stroke="#63b8ff" d="M1031.98,-130.03C1053,-134.8 1078.65,-140.62 1100.92,-145.68"/>
<polygon fill="#63b8ff" stroke="#63b8ff" points="1100.36,-149.14 1110.88,-147.94 1101.91,-142.31 1100.36,-149.14"/>
</a>
</g>
</g>
<!-- Node13&#45;&gt;Node8 -->
<g id="edge15_Node000013_Node000008" class="edge">
<title>Node13&#45;&gt;Node8</title>
<g id="a_edge15_Node000013_Node000008"><a xlink:title=" ">
<path fill="none" stroke="#63b8ff" d="M1039.51,-258.99C1046.28,-256.72 1052.98,-253.93 1059,-250.5 1093.04,-231.12 1123.46,-196.26 1139.97,-175.16"/>
<polygon fill="#63b8ff" stroke="#63b8ff" points="1142.87,-177.12 1146.16,-167.05 1137.31,-172.88 1142.87,-177.12"/>
</a>
</g>
</g>
<!-- Node14 -->
<g id="Node000014" class="node">
<title>Node14</title>
<g id="a_Node000014"><a xlink:href="../../d1/da9/AssetLoading_8cpp.html#a07739f40c13743b2dfceefb659d6d455" target="_top" xlink:title="Return the correct asset path for the asset depending on the current environment.">
<polygon fill="white" stroke="#666666" points="1195,-278 1113,-278 1113,-259 1195,-259 1195,-278"/>
<text text-anchor="middle" x="1154" y="-266" font-family="Helvetica,sans-Serif" font-size="10.00">GetAssetPath</text>
</a>
</g>
</g>
<!-- Node13&#45;&gt;Node14 -->
<g id="edge14_Node000013_Node000014" class="edge">
<title>Node13&#45;&gt;Node14</title>
<g id="a_edge14_Node000013_Node000014"><a xlink:title=" ">
<path fill="none" stroke="#63b8ff" d="M1053.95,-268.5C1070.04,-268.5 1087.09,-268.5 1102.42,-268.5"/>
<polygon fill="#63b8ff" stroke="#63b8ff" points="1102.73,-272 1112.73,-268.5 1102.73,-265 1102.73,-272"/>
</a>
</g>
</g>
<!-- Node15&#45;&gt;Node8 -->
<g id="edge17_Node000015_Node000008" class="edge">
<title>Node15&#45;&gt;Node8</title>
<g id="a_edge17_Node000015_Node000008"><a xlink:title=" ">
<path fill="none" stroke="#63b8ff" d="M1026.09,-90.87C1036.88,-93.62 1048.61,-97.15 1059,-101.5 1085.2,-112.46 1112.87,-129.72 1131.34,-142.19"/>
<polygon fill="#63b8ff" stroke="#63b8ff" points="1129.4,-145.1 1139.63,-147.87 1133.36,-139.33 1129.4,-145.1"/>
</a>
</g>
</g>
<!-- Node16&#45;&gt;Node8 -->
<g id="edge19_Node000016_Node000008" class="edge">
<title>Node16&#45;&gt;Node8</title>
<g id="a_edge19_Node000016_Node000008"><a xlink:title=" ">
<path fill="none" stroke="#63b8ff" d="M1039.51,-56.01C1046.28,-58.28 1052.98,-61.07 1059,-64.5 1093.04,-83.88 1123.46,-118.74 1139.97,-139.84"/>
<polygon fill="#63b8ff" stroke="#63b8ff" points="1137.31,-142.12 1146.16,-147.95 1142.87,-137.88 1137.31,-142.12"/>
</a>
</g>
</g>
<!-- Node18&#45;&gt;Node8 -->
<g id="edge22_Node000018_Node000008" class="edge">
<title>Node18&#45;&gt;Node8</title>
<g id="a_edge22_Node000018_Node000008"><a xlink:title=" ">
<path fill="none" stroke="#63b8ff" d="M1033.21,-15.91C1042.24,-18.54 1051.34,-22.26 1059,-27.5 1100.97,-56.21 1130.89,-110.09 1144.6,-138.64"/>
<polygon fill="#63b8ff" stroke="#63b8ff" points="1141.52,-140.32 1148.91,-147.92 1147.87,-137.37 1141.52,-140.32"/>
</a>
</g>
</g>
<!-- Node19&#45;&gt;Node8 -->
<g id="edge24_Node000019_Node000008" class="edge">
<title>Node19&#45;&gt;Node8</title>
<g id="a_edge24_Node000019_Node000008"><a xlink:title=" ">
<path fill="none" stroke="#63b8ff" d="M1029.29,-222.59C1039.16,-219.83 1049.61,-216.46 1059,-212.5 1084.9,-201.58 1112.42,-184.79 1130.95,-172.64"/>
<polygon fill="#63b8ff" stroke="#63b8ff" points="1132.89,-175.55 1139.27,-167.09 1129.01,-169.72 1132.89,-175.55"/>
</a>
</g>
</g>
<!-- Node20&#45;&gt;Node8 -->
<g id="edge26_Node000020_Node000008" class="edge">
<title>Node20&#45;&gt;Node8</title>
<g id="a_edge26_Node000020_Node000008"><a xlink:title=" ">
<path fill="none" stroke="#63b8ff" d="M1031.98,-184.97C1053,-180.2 1078.65,-174.38 1100.92,-169.32"/>
<polygon fill="#63b8ff" stroke="#63b8ff" points="1101.91,-172.69 1110.88,-167.06 1100.36,-165.86 1101.91,-172.69"/>
</a>
</g>
</g>
</g>
</svg>
