<?xml version="1.0" encoding="UTF-8" standalone="no"?>
<!DOCTYPE svg PUBLIC "-//W3C//DTD SVG 1.1//EN"
 "http://www.w3.org/Graphics/SVG/1.1/DTD/svg11.dtd">
<!-- Generated by graphviz version 2.43.0 (0)
 -->
<!-- Title: main Pages: 1 -->
<svg width="1407pt" height="399pt"
 viewBox="0.00 0.00 1407.00 399.00" xmlns="http://www.w3.org/2000/svg" xmlns:xlink="http://www.w3.org/1999/xlink">
<g id="graph0" class="graph" transform="scale(1 1) rotate(0) translate(4 395)">
<title>main</title>
<!-- Node1 -->
<g id="Node000001" class="node">
<title>Node1</title>
<g id="a_Node000001"><a xlink:title="Entry point of the program.">
<polygon fill="#999999" stroke="#666666" points="41,-276 0,-276 0,-257 41,-257 41,-276"/>
<text text-anchor="middle" x="20.5" y="-264" font-family="Helvetica,sans-Serif" font-size="10.00">main</text>
</a>
</g>
</g>
<!-- Node2 -->
<g id="Node000002" class="node">
<title>Node2</title>
<g id="a_Node000002"><a xlink:href="../../df/d0a/main_8cpp.html#aed6a965c795e2202196ce9dc698d8046" target="_top" xlink:title="Destroy all objects, the renderer and window, and quit SDL and TTF.">
<polygon fill="white" stroke="#666666" points="184,-314 77,-314 77,-295 184,-295 184,-314"/>
<text text-anchor="middle" x="130.5" y="-302" font-family="Helvetica,sans-Serif" font-size="10.00">CleanupBeforeExit</text>
</a>
</g>
</g>
<!-- Node1&#45;&gt;Node2 -->
<g id="edge1_Node000001_Node000002" class="edge">
<title>Node1&#45;&gt;Node2</title>
<g id="a_edge1_Node000001_Node000002"><a xlink:title=" ">
<path fill="none" stroke="#63b8ff" d="M41.06,-273.38C55.39,-278.42 75.27,-285.42 92.55,-291.5"/>
<polygon fill="#63b8ff" stroke="#63b8ff" points="91.78,-294.94 102.37,-294.95 94.1,-288.33 91.78,-294.94"/>
</a>
</g>
</g>
<!-- Node3 -->
<g id="Node000003" class="node">
<title>Node3</title>
<g id="a_Node000003"><a xlink:href="../../df/d0a/main_8cpp.html#a1ccba604c34743e18775c4c72ff36948" target="_top" xlink:title="The main game loop, runs until QuitGame is set to true.">
<polygon fill="white" stroke="#666666" points="165,-230 96,-230 96,-211 165,-211 165,-230"/>
<text text-anchor="middle" x="130.5" y="-218" font-family="Helvetica,sans-Serif" font-size="10.00">GameLoop</text>
</a>
</g>
</g>
<!-- Node1&#45;&gt;Node3 -->
<g id="edge2_Node000001_Node000003" class="edge">
<title>Node1&#45;&gt;Node3</title>
<g id="a_edge2_Node000001_Node000003"><a xlink:title=" ">
<path fill="none" stroke="#63b8ff" d="M41.06,-258.17C56.82,-251.45 79.32,-241.87 97.67,-234.06"/>
<polygon fill="#63b8ff" stroke="#63b8ff" points="99.27,-237.18 107.1,-230.04 96.53,-230.74 99.27,-237.18"/>
</a>
</g>
</g>
<!-- Node32 -->
<g id="Node000032" class="node">
<title>Node32</title>
<g id="a_Node000032"><a xlink:href="../../d1/d99/Lifecycle_8cpp.html#af0000b43ed614b94179e358d523c9245" target="_top" xlink:title="Initialize the game to the default state.">
<polygon fill="white" stroke="#666666" points="815.5,-276 727.5,-276 727.5,-257 815.5,-257 815.5,-276"/>
<text text-anchor="middle" x="771.5" y="-264" font-family="Helvetica,sans-Serif" font-size="10.00">InitializeGame</text>
</a>
</g>
</g>
<!-- Node1&#45;&gt;Node32 -->
<g id="edge38_Node000001_Node000032" class="edge">
<title>Node1&#45;&gt;Node32</title>
<g id="a_edge38_Node000001_Node000032"><a xlink:title=" ">
<path fill="none" stroke="#63b8ff" d="M41.19,-266.5C83.28,-266.5 185.12,-266.5 270.5,-266.5 270.5,-266.5 270.5,-266.5 422.5,-266.5 526.95,-266.5 649.02,-266.5 717.29,-266.5"/>
<polygon fill="#63b8ff" stroke="#63b8ff" points="717.37,-270 727.37,-266.5 717.37,-263 717.37,-270"/>
</a>
</g>
</g>
<!-- Node4 -->
<g id="Node000004" class="node">
<title>Node4</title>
<g id="a_Node000004"><a xlink:href="../../df/d0a/main_8cpp.html#a7086da5d86cc10820ea267aaef1e8439" target="_top" xlink:title="Executed every frame.">
<polygon fill="white" stroke="#666666" points="295,-153 248,-153 248,-134 295,-134 295,-153"/>
<text text-anchor="middle" x="271.5" y="-141" font-family="Helvetica,sans-Serif" font-size="10.00">Frame</text>
</a>
</g>
</g>
<!-- Node3&#45;&gt;Node4 -->
<g id="edge3_Node000003_Node000004" class="edge">
<title>Node3&#45;&gt;Node4</title>
<g id="a_edge3_Node000003_Node000004"><a xlink:title=" ">
<path fill="none" stroke="#63b8ff" d="M146.97,-210.95C164.49,-200.25 193.98,-182.56 220,-168.5 226.75,-164.85 234.09,-161.1 241.04,-157.64"/>
<polygon fill="#63b8ff" stroke="#63b8ff" points="242.75,-160.7 250.18,-153.15 239.66,-154.42 242.75,-160.7"/>
</a>
</g>
</g>
<!-- Node27 -->
<g id="Node000027" class="node">
<title>Node27</title>
<g id="a_Node000027"><a xlink:href="../../de/db0/Events_8cpp.html#a26867d84edb0f52a75127cf66c64c9a9" target="_top" xlink:title="Handles an event that has occoured.">
<polygon fill="white" stroke="#666666" points="311,-197 232,-197 232,-178 311,-178 311,-197"/>
<text text-anchor="middle" x="271.5" y="-185" font-family="Helvetica,sans-Serif" font-size="10.00">HandleEvent</text>
</a>
</g>
</g>
<!-- Node3&#45;&gt;Node27 -->
<g id="edge33_Node000003_Node000027" class="edge">
<title>Node3&#45;&gt;Node27</title>
<g id="a_edge33_Node000003_Node000027"><a xlink:title=" ">
<path fill="none" stroke="#63b8ff" d="M165.15,-212.51C182.17,-208.47 203.15,-203.49 221.9,-199.04"/>
<polygon fill="#63b8ff" stroke="#63b8ff" points="222.83,-202.41 231.75,-196.7 221.21,-195.6 222.83,-202.41"/>
</a>
</g>
</g>
<!-- Node31 -->
<g id="Node000031" class="node">
<title>Node31</title>
<g id="a_Node000031"><a xlink:href="../../d8/d38/Time_8cpp.html#a150f12b48e13e1c14a4e7646137c74a4" target="_top" xlink:title="Update the stored deltatime. Should be executed each frame.">
<polygon fill="white" stroke="#666666" points="323,-234 220,-234 220,-215 323,-215 323,-234"/>
<text text-anchor="middle" x="271.5" y="-222" font-family="Helvetica,sans-Serif" font-size="10.00">UpdateDeltaTime</text>
</a>
</g>
</g>
<!-- Node3&#45;&gt;Node31 -->
<g id="edge37_Node000003_Node000031" class="edge">
<title>Node3&#45;&gt;Node31</title>
<g id="a_edge37_Node000003_Node000031"><a xlink:title=" ">
<path fill="none" stroke="#63b8ff" d="M165.15,-221.47C178.47,-221.85 194.2,-222.3 209.39,-222.74"/>
<polygon fill="#63b8ff" stroke="#63b8ff" points="209.69,-226.25 219.79,-223.04 209.89,-219.25 209.69,-226.25"/>
</a>
</g>
</g>
<!-- Node5 -->
<g id="Node000005" class="node">
<title>Node5</title>
<g id="a_Node000005"><a xlink:href="../../de/dfd/GameManagement_8cpp.html#a96314a1ad91ef741694603ff58e7bee7" target="_top" xlink:title="Run the actions that have to be run every frame.">
<polygon fill="white" stroke="#666666" points="472.5,-142 370.5,-142 370.5,-123 472.5,-123 472.5,-142"/>
<text text-anchor="middle" x="421.5" y="-130" font-family="Helvetica,sans-Serif" font-size="10.00">RunFrameActions</text>
</a>
</g>
</g>
<!-- Node4&#45;&gt;Node5 -->
<g id="edge4_Node000004_Node000005" class="edge">
<title>Node4&#45;&gt;Node5</title>
<g id="a_edge4_Node000004_Node000005"><a xlink:title=" ">
<path fill="none" stroke="#63b8ff" d="M295.3,-141.81C312.68,-140.51 337.44,-138.67 360.36,-136.97"/>
<polygon fill="#63b8ff" stroke="#63b8ff" points="360.67,-140.46 370.39,-136.22 360.15,-133.48 360.67,-140.46"/>
</a>
</g>
</g>
<!-- Node6 -->
<g id="Node000006" class="node">
<title>Node6</title>
<g id="a_Node000006"><a xlink:href="../../de/dfd/GameManagement_8cpp.html#a2877bc3a946eb46940e5cdedcaf4e3f6" target="_top" xlink:title=" ">
<polygon fill="white" stroke="#666666" points="654,-142 530,-142 530,-123 654,-123 654,-142"/>
<text text-anchor="middle" x="592" y="-130" font-family="Helvetica,sans-Serif" font-size="10.00">ResetGameIfRequired</text>
</a>
</g>
</g>
<!-- Node5&#45;&gt;Node6 -->
<g id="edge5_Node000005_Node000006" class="edge">
<title>Node5&#45;&gt;Node6</title>
<g id="a_edge5_Node000005_Node000006"><a xlink:title=" ">
<path fill="none" stroke="#63b8ff" d="M472.6,-132.5C487.32,-132.5 503.72,-132.5 519.5,-132.5"/>
<polygon fill="#63b8ff" stroke="#63b8ff" points="519.76,-136 529.76,-132.5 519.76,-129 519.76,-136"/>
</a>
</g>
</g>
<!-- Node20 -->
<g id="Node000020" class="node">
<title>Node20</title>
<g id="a_Node000020"><a xlink:href="../../d2/d41/ObjectManagement_8cpp.html#a522912d67446895b0a03d01837b75a99" target="_top" xlink:title="Iterate over all objects, and update the appropriately, using OnTick() or Component specific methods.">
<polygon fill="white" stroke="#666666" points="636.5,-97 547.5,-97 547.5,-78 636.5,-78 636.5,-97"/>
<text text-anchor="middle" x="592" y="-85" font-family="Helvetica,sans-Serif" font-size="10.00">UpdateObjects</text>
</a>
</g>
</g>
<!-- Node5&#45;&gt;Node20 -->
<g id="edge26_Node000005_Node000020" class="edge">
<title>Node5&#45;&gt;Node20</title>
<g id="a_edge26_Node000005_Node000020"><a xlink:title=" ">
<path fill="none" stroke="#63b8ff" d="M458.23,-122.96C483.7,-116.16 518.14,-106.96 545.56,-99.63"/>
<polygon fill="#63b8ff" stroke="#63b8ff" points="546.56,-102.99 555.32,-97.03 544.75,-96.23 546.56,-102.99"/>
</a>
</g>
</g>
<!-- Node7 -->
<g id="Node000007" class="node">
<title>Node7</title>
<g id="a_Node000007"><a xlink:href="../../d1/d99/Lifecycle_8cpp.html#a7be4f604c1baeb7cac84122a7f2438cf" target="_top" xlink:title="Reset the game to the initial state.">
<polygon fill="white" stroke="#666666" points="808.5,-220 734.5,-220 734.5,-201 808.5,-201 808.5,-220"/>
<text text-anchor="middle" x="771.5" y="-208" font-family="Helvetica,sans-Serif" font-size="10.00">ResetGame</text>
</a>
</g>
</g>
<!-- Node6&#45;&gt;Node7 -->
<g id="edge6_Node000006_Node000007" class="edge">
<title>Node6&#45;&gt;Node7</title>
<g id="a_edge6_Node000006_Node000007"><a xlink:title=" ">
<path fill="none" stroke="#63b8ff" d="M635.61,-142.09C645.1,-144.72 655.01,-147.87 664,-151.5 694.05,-163.63 726.3,-182.39 747.34,-195.49"/>
<polygon fill="#63b8ff" stroke="#63b8ff" points="745.58,-198.52 755.91,-200.9 749.32,-192.6 745.58,-198.52"/>
</a>
</g>
</g>
<!-- Node8 -->
<g id="Node000008" class="node">
<title>Node8</title>
<g id="a_Node000008"><a xlink:href="../../d9/dfa/Init_8cpp.html#aaa64e8fd06230fa14e507cef71a3217d" target="_top" xlink:title="Create the initial gameobjects required for the game.">
<polygon fill="white" stroke="#666666" points="1024.5,-239 881.5,-239 881.5,-220 1024.5,-220 1024.5,-239"/>
<text text-anchor="middle" x="953" y="-227" font-family="Helvetica,sans-Serif" font-size="10.00">CreateInitialGameObjects</text>
</a>
</g>
</g>
<!-- Node7&#45;&gt;Node8 -->
<g id="edge7_Node000007_Node000008" class="edge">
<title>Node7&#45;&gt;Node8</title>
<g id="a_edge7_Node000007_Node000008"><a xlink:title=" ">
<path fill="none" stroke="#63b8ff" d="M808.82,-214.34C826.86,-216.25 849.42,-218.64 871.26,-220.95"/>
<polygon fill="#63b8ff" stroke="#63b8ff" points="870.91,-224.44 881.22,-222.01 871.65,-217.47 870.91,-224.44"/>
</a>
</g>
</g>
<!-- Node18 -->
<g id="Node000018" class="node">
<title>Node18</title>
<g id="a_Node000018"><a xlink:href="../../d2/d41/ObjectManagement_8cpp.html#ae5ee3f705fc506491ca2b0c7cf059c75" target="_top" xlink:title="Initialize all gameobjects and call the OnStart() methods.">
<polygon fill="white" stroke="#666666" points="994.5,-276 911.5,-276 911.5,-257 994.5,-257 994.5,-276"/>
<text text-anchor="middle" x="953" y="-264" font-family="Helvetica,sans-Serif" font-size="10.00">OnGameStart</text>
</a>
</g>
</g>
<!-- Node7&#45;&gt;Node18 -->
<g id="edge24_Node000007_Node000018" class="edge">
<title>Node7&#45;&gt;Node18</title>
<g id="a_edge24_Node000007_Node000018"><a xlink:title=" ">
<path fill="none" stroke="#63b8ff" d="M797.23,-220.12C818.66,-228.27 850.61,-239.96 879,-248.5 886.21,-250.67 893.88,-252.78 901.44,-254.74"/>
<polygon fill="#63b8ff" stroke="#63b8ff" points="900.71,-258.16 911.26,-257.23 902.42,-251.38 900.71,-258.16"/>
</a>
</g>
</g>
<!-- Node19 -->
<g id="Node000019" class="node">
<title>Node19</title>
<g id="a_Node000019"><a xlink:href="../../d8/d38/Time_8cpp.html#ae55fb718253dda2137a189d792bda7b9" target="_top" xlink:title="Reset the time since the game has started.">
<polygon fill="white" stroke="#666666" points="1027,-202 879,-202 879,-183 1027,-183 1027,-202"/>
<text text-anchor="middle" x="953" y="-190" font-family="Helvetica,sans-Serif" font-size="10.00">ResetTimeSinceGameStart</text>
</a>
</g>
</g>
<!-- Node7&#45;&gt;Node19 -->
<g id="edge25_Node000007_Node000019" class="edge">
<title>Node7&#45;&gt;Node19</title>
<g id="a_edge25_Node000007_Node000019"><a xlink:title=" ">
<path fill="none" stroke="#63b8ff" d="M808.82,-206.86C826.08,-205.13 847.48,-202.98 868.42,-200.88"/>
<polygon fill="#63b8ff" stroke="#63b8ff" points="869.05,-204.34 878.65,-199.86 868.35,-197.37 869.05,-204.34"/>
</a>
</g>
</g>
<!-- Node9 -->
<g id="Node000009" class="node">
<title>Node9</title>
<g id="a_Node000009"><a xlink:href="../../d9/dfa/Init_8cpp.html#a3ff595c2af791c369e2318510062ce14" target="_top" xlink:title="Create the coffee meter bar.">
<polygon fill="white" stroke="#666666" points="1187.5,-93 1078.5,-93 1078.5,-74 1187.5,-74 1187.5,-93"/>
<text text-anchor="middle" x="1133" y="-81" font-family="Helvetica,sans-Serif" font-size="10.00">CreateCoffeeMeter</text>
</a>
</g>
</g>
<!-- Node8&#45;&gt;Node9 -->
<g id="edge8_Node000008_Node000009" class="edge">
<title>Node8&#45;&gt;Node9</title>
<g id="a_edge8_Node000008_Node000009"><a xlink:title=" ">
<path fill="none" stroke="#63b8ff" d="M1014.68,-219.85C1019.15,-217.59 1023.34,-214.84 1027,-211.5 1063.13,-178.53 1028.44,-142.11 1063,-107.5 1066.98,-103.52 1071.65,-100.19 1076.65,-97.42"/>
<polygon fill="#63b8ff" stroke="#63b8ff" points="1078.42,-100.46 1085.95,-93 1075.41,-94.14 1078.42,-100.46"/>
</a>
</g>
</g>
<!-- Node10 -->
<g id="Node000010" class="node">
<title>Node10</title>
<g id="a_Node000010"><a xlink:href="../../d2/d41/ObjectManagement_8cpp.html#a9f8d0a459a7758c8b2d0b72cdd8adad0" target="_top" xlink:title="Enqueue an object to be registered on the next frame.">
<polygon fill="white" stroke="#666666" points="1399,-261 1239,-261 1239,-242 1399,-242 1399,-261"/>
<text text-anchor="middle" x="1319" y="-249" font-family="Helvetica,sans-Serif" font-size="10.00">EnqueueRegisterGameObject</text>
</a>
</g>
</g>
<!-- Node8&#45;&gt;Node10 -->
<g id="edge16_Node000008_Node000010" class="edge">
<title>Node8&#45;&gt;Node10</title>
<g id="a_edge16_Node000008_Node000010"><a xlink:title=" ">
<path fill="none" stroke="#63b8ff" d="M1012.75,-219.95C1017.86,-217.69 1022.71,-214.91 1027,-211.5 1054.7,-189.48 1032.85,-159.02 1063,-140.5 1116.02,-107.94 1145.31,-117.2 1203,-140.5 1249.72,-159.37 1288.02,-207.32 1306.34,-233.6"/>
<polygon fill="#63b8ff" stroke="#63b8ff" points="1303.46,-235.59 1311.97,-241.91 1309.26,-231.67 1303.46,-235.59"/>
</a>
</g>
</g>
<!-- Node11 -->
<g id="Node000011" class="node">
<title>Node11</title>
<g id="a_Node000011"><a xlink:href="../../d9/dfa/Init_8cpp.html#a1bfb628b6cd503e396bae0796f2051c1" target="_top" xlink:title="Create the icon next to the coffee meter.">
<polygon fill="white" stroke="#666666" points="1197.5,-391 1068.5,-391 1068.5,-372 1197.5,-372 1197.5,-391"/>
<text text-anchor="middle" x="1133" y="-379" font-family="Helvetica,sans-Serif" font-size="10.00">CreateCoffeeMeterIcon</text>
</a>
</g>
</g>
<!-- Node8&#45;&gt;Node11 -->
<g id="edge10_Node000008_Node000011" class="edge">
<title>Node8&#45;&gt;Node11</title>
<g id="a_edge10_Node000008_Node000011"><a xlink:title=" ">
<path fill="none" stroke="#63b8ff" d="M1013.04,-239.01C1018.15,-241.5 1022.92,-244.62 1027,-248.5 1065.78,-285.44 1024.23,-326.55 1063,-363.5 1064.12,-364.57 1065.3,-365.57 1066.52,-366.52"/>
<polygon fill="#63b8ff" stroke="#63b8ff" points="1064.86,-369.61 1075.18,-371.98 1068.59,-363.69 1064.86,-369.61"/>
</a>
</g>
</g>
<!-- Node12 -->
<g id="Node000012" class="node">
<title>Node12</title>
<g id="a_Node000012"><a xlink:href="../../d9/dfa/Init_8cpp.html#a7577908172d93807ef67f163f851fe5e" target="_top" xlink:title="Create the floor and register it.">
<polygon fill="white" stroke="#666666" points="1170,-354 1096,-354 1096,-335 1170,-335 1170,-354"/>
<text text-anchor="middle" x="1133" y="-342" font-family="Helvetica,sans-Serif" font-size="10.00">CreateFloor</text>
</a>
</g>
</g>
<!-- Node8&#45;&gt;Node12 -->
<g id="edge12_Node000008_Node000012" class="edge">
<title>Node8&#45;&gt;Node12</title>
<g id="a_edge12_Node000008_Node000012"><a xlink:title=" ">
<path fill="none" stroke="#63b8ff" d="M1011.45,-239.08C1017.06,-241.55 1022.38,-244.64 1027,-248.5 1056.29,-272.99 1033.72,-302 1063,-326.5 1069.62,-332.04 1077.75,-335.9 1086.08,-338.58"/>
<polygon fill="#63b8ff" stroke="#63b8ff" points="1085.3,-341.99 1095.87,-341.21 1087.12,-335.23 1085.3,-341.99"/>
</a>
</g>
</g>
<!-- Node13 -->
<g id="Node000013" class="node">
<title>Node13</title>
<g id="a_Node000013"><a xlink:href="../../d9/dfa/Init_8cpp.html#a8ad8206fa2846739c5e76ce97b6b2783" target="_top" xlink:title="Create the score counter and register it.">
<polygon fill="white" stroke="#666666" points="1190,-317 1076,-317 1076,-298 1190,-298 1190,-317"/>
<text text-anchor="middle" x="1133" y="-305" font-family="Helvetica,sans-Serif" font-size="10.00">CreateScoreCounter</text>
</a>
</g>
</g>
<!-- Node8&#45;&gt;Node13 -->
<g id="edge14_Node000008_Node000013" class="edge">
<title>Node8&#45;&gt;Node13</title>
<g id="a_edge14_Node000008_Node000013"><a xlink:title=" ">
<path fill="none" stroke="#63b8ff" d="M1006.62,-239.12C1013.75,-241.58 1020.76,-244.65 1027,-248.5 1047.64,-261.23 1042.36,-276.77 1063,-289.5 1065.79,-291.22 1068.75,-292.78 1071.8,-294.19"/>
<polygon fill="#63b8ff" stroke="#63b8ff" points="1070.6,-297.48 1081.18,-297.99 1073.23,-290.99 1070.6,-297.48"/>
</a>
</g>
</g>
<!-- Node14 -->
<g id="Node000014" class="node">
<title>Node14</title>
<g id="a_Node000014"><a xlink:href="../../d9/dfa/Init_8cpp.html#ac07b948048071cbf70f69aa9d691a93f" target="_top" xlink:title="Set the window background to white.">
<polygon fill="white" stroke="#666666" points="1203,-206 1063,-206 1063,-187 1203,-187 1203,-206"/>
<text text-anchor="middle" x="1133" y="-194" font-family="Helvetica,sans-Serif" font-size="10.00">SetupWindowbackground</text>
</a>
</g>
</g>
<!-- Node8&#45;&gt;Node14 -->
<g id="edge17_Node000008_Node000014" class="edge">
<title>Node8&#45;&gt;Node14</title>
<g id="a_edge17_Node000008_Node000014"><a xlink:title=" ">
<path fill="none" stroke="#63b8ff" d="M1005.48,-219.96C1025.87,-216.18 1049.47,-211.8 1070.73,-207.86"/>
<polygon fill="#63b8ff" stroke="#63b8ff" points="1071.44,-211.29 1080.63,-206.02 1070.16,-204.41 1071.44,-211.29"/>
</a>
</g>
</g>
<!-- Node15 -->
<g id="Node000015" class="node">
<title>Node15</title>
<g id="a_Node000015"><a xlink:href="../../d9/dfa/Init_8cpp.html#a374cb6f303f72b5af970063ff1318f24" target="_top" xlink:title="Create the left wall and register it.">
<polygon fill="white" stroke="#666666" points="1177,-280 1089,-280 1089,-261 1177,-261 1177,-280"/>
<text text-anchor="middle" x="1133" y="-268" font-family="Helvetica,sans-Serif" font-size="10.00">SpawnLeftWall</text>
</a>
</g>
</g>
<!-- Node8&#45;&gt;Node15 -->
<g id="edge18_Node000008_Node000015" class="edge">
<title>Node8&#45;&gt;Node15</title>
<g id="a_edge18_Node000008_Node000015"><a xlink:title=" ">
<path fill="none" stroke="#63b8ff" d="M995.28,-239.01C1020.69,-244.86 1053.47,-252.41 1080.56,-258.65"/>
<polygon fill="#63b8ff" stroke="#63b8ff" points="1080.1,-262.14 1090.63,-260.97 1081.67,-255.32 1080.1,-262.14"/>
</a>
</g>
</g>
<!-- Node16 -->
<g id="Node000016" class="node">
<title>Node16</title>
<g id="a_Node000016"><a xlink:href="../../d9/dfa/Init_8cpp.html#aa021dfea28868af5fdc6eb97fdf11395" target="_top" xlink:title="Create the player and register it.">
<polygon fill="white" stroke="#666666" points="1173,-243 1093,-243 1093,-224 1173,-224 1173,-243"/>
<text text-anchor="middle" x="1133" y="-231" font-family="Helvetica,sans-Serif" font-size="10.00">SpawnPlayer</text>
</a>
</g>
</g>
<!-- Node8&#45;&gt;Node16 -->
<g id="edge20_Node000008_Node000016" class="edge">
<title>Node8&#45;&gt;Node16</title>
<g id="a_edge20_Node000008_Node000016"><a xlink:title=" ">
<path fill="none" stroke="#63b8ff" d="M1024.61,-231.09C1044.08,-231.52 1064.78,-231.99 1082.76,-232.39"/>
<polygon fill="#63b8ff" stroke="#63b8ff" points="1082.92,-235.9 1093,-232.62 1083.08,-228.9 1082.92,-235.9"/>
</a>
</g>
</g>
<!-- Node17 -->
<g id="Node000017" class="node">
<title>Node17</title>
<g id="a_Node000017"><a xlink:href="../../d9/dfa/Init_8cpp.html#a0e2d0321a787eb9a3b705489c8f2b86b" target="_top" xlink:title="Create the right wall and register it.">
<polygon fill="white" stroke="#666666" points="1180.5,-169 1085.5,-169 1085.5,-150 1180.5,-150 1180.5,-169"/>
<text text-anchor="middle" x="1133" y="-157" font-family="Helvetica,sans-Serif" font-size="10.00">SpawnRightWall</text>
</a>
</g>
</g>
<!-- Node8&#45;&gt;Node17 -->
<g id="edge22_Node000008_Node000017" class="edge">
<title>Node8&#45;&gt;Node17</title>
<g id="a_edge22_Node000008_Node000017"><a xlink:title=" ">
<path fill="none" stroke="#63b8ff" d="M1006.68,-219.99C1013.73,-217.73 1020.7,-214.94 1027,-211.5 1046.32,-200.96 1043.75,-188.17 1063,-177.5 1067.01,-175.28 1071.3,-173.33 1075.7,-171.61"/>
<polygon fill="#63b8ff" stroke="#63b8ff" points="1077.18,-174.8 1085.48,-168.21 1074.88,-168.19 1077.18,-174.8"/>
</a>
</g>
</g>
<!-- Node9&#45;&gt;Node10 -->
<g id="edge9_Node000009_Node000010" class="edge">
<title>Node9&#45;&gt;Node10</title>
<g id="a_edge9_Node000009_Node000010"><a xlink:title=" ">
<path fill="none" stroke="#63b8ff" d="M1173.81,-93.11C1183.88,-96.65 1194.3,-101.35 1203,-107.5 1251.57,-141.87 1290.26,-202.3 1307.8,-232.79"/>
<polygon fill="#63b8ff" stroke="#63b8ff" points="1304.97,-234.89 1312.92,-241.9 1311.07,-231.46 1304.97,-234.89"/>
</a>
</g>
</g>
<!-- Node11&#45;&gt;Node10 -->
<g id="edge11_Node000011_Node000010" class="edge">
<title>Node11&#45;&gt;Node10</title>
<g id="a_edge11_Node000011_Node000010"><a xlink:title=" ">
<path fill="none" stroke="#63b8ff" d="M1183.48,-371.95C1190.26,-369.68 1196.96,-366.91 1203,-363.5 1246.24,-339.11 1284.98,-294.44 1304.55,-269.52"/>
<polygon fill="#63b8ff" stroke="#63b8ff" points="1307.55,-271.36 1310.87,-261.3 1302,-267.1 1307.55,-271.36"/>
</a>
</g>
</g>
<!-- Node12&#45;&gt;Node10 -->
<g id="edge13_Node000012_Node000010" class="edge">
<title>Node12&#45;&gt;Node10</title>
<g id="a_edge13_Node000012_Node000010"><a xlink:title=" ">
<path fill="none" stroke="#63b8ff" d="M1170.2,-337.39C1181,-334.65 1192.7,-331.06 1203,-326.5 1238.79,-310.66 1275.98,-284.29 1298.05,-267.41"/>
<polygon fill="#63b8ff" stroke="#63b8ff" points="1300.25,-270.13 1306,-261.23 1295.96,-264.6 1300.25,-270.13"/>
</a>
</g>
</g>
<!-- Node13&#45;&gt;Node10 -->
<g id="edge15_Node000013_Node000010" class="edge">
<title>Node13&#45;&gt;Node10</title>
<g id="a_edge15_Node000013_Node000010"><a xlink:title=" ">
<path fill="none" stroke="#63b8ff" d="M1172.44,-297.94C1182.43,-295.33 1193.15,-292.41 1203,-289.5 1229.35,-281.72 1258.76,-271.98 1281.24,-264.31"/>
<polygon fill="#63b8ff" stroke="#63b8ff" points="1282.41,-267.61 1290.74,-261.06 1280.14,-260.99 1282.41,-267.61"/>
</a>
</g>
</g>
<!-- Node15&#45;&gt;Node10 -->
<g id="edge19_Node000015_Node000010" class="edge">
<title>Node15&#45;&gt;Node10</title>
<g id="a_edge19_Node000015_Node000010"><a xlink:title=" ">
<path fill="none" stroke="#63b8ff" d="M1177.14,-266.05C1192.64,-264.44 1210.76,-262.57 1228.73,-260.72"/>
<polygon fill="#63b8ff" stroke="#63b8ff" points="1229.1,-264.2 1238.69,-259.69 1228.38,-257.24 1229.1,-264.2"/>
</a>
</g>
</g>
<!-- Node16&#45;&gt;Node10 -->
<g id="edge21_Node000016_Node000010" class="edge">
<title>Node16&#45;&gt;Node10</title>
<g id="a_edge21_Node000016_Node000010"><a xlink:title=" ">
<path fill="none" stroke="#63b8ff" d="M1173.02,-237.32C1189.37,-238.92 1209.11,-240.85 1228.68,-242.76"/>
<polygon fill="#63b8ff" stroke="#63b8ff" points="1228.59,-246.27 1238.88,-243.76 1229.27,-239.3 1228.59,-246.27"/>
</a>
</g>
</g>
<!-- Node17&#45;&gt;Node10 -->
<g id="edge23_Node000017_Node000010" class="edge">
<title>Node17&#45;&gt;Node10</title>
<g id="a_edge23_Node000017_Node000010"><a xlink:title=" ">
<path fill="none" stroke="#63b8ff" d="M1179.24,-169.1C1187.31,-171.43 1195.52,-174.22 1203,-177.5 1238.7,-193.16 1275.92,-219.18 1298.01,-235.82"/>
<polygon fill="#63b8ff" stroke="#63b8ff" points="1295.91,-238.62 1305.98,-241.91 1300.16,-233.05 1295.91,-238.62"/>
</a>
</g>
</g>
<!-- Node21 -->
<g id="Node000021" class="node">
<title>Node21</title>
<g id="a_Node000021"><a xlink:href="../../d2/d41/ObjectManagement_8cpp.html#abb664488d26ac602b11cc22de7243458" target="_top" xlink:title=" ">
<polygon fill="white" stroke="#666666" points="843,-97 700,-97 700,-78 843,-78 843,-97"/>
<text text-anchor="middle" x="771.5" y="-85" font-family="Helvetica,sans-Serif" font-size="10.00">HandleComponentUpdate</text>
</a>
</g>
</g>
<!-- Node20&#45;&gt;Node21 -->
<g id="edge27_Node000020_Node000021" class="edge">
<title>Node20&#45;&gt;Node21</title>
<g id="a_edge27_Node000020_Node000021"><a xlink:title=" ">
<path fill="none" stroke="#63b8ff" d="M636.88,-87.5C652.9,-87.5 671.57,-87.5 689.79,-87.5"/>
<polygon fill="#63b8ff" stroke="#63b8ff" points="689.85,-91 699.85,-87.5 689.85,-84 689.85,-91"/>
</a>
</g>
</g>
<!-- Node22 -->
<g id="Node000022" class="node">
<title>Node22</title>
<g id="a_Node000022"><a xlink:href="../../d2/d41/ObjectManagement_8cpp.html#a95ff1ee6a57e678376b2eae2ef499ab3" target="_top" xlink:title=" ">
<polygon fill="white" stroke="#666666" points="843,-56 700,-56 700,-37 843,-37 843,-56"/>
<text text-anchor="middle" x="771.5" y="-44" font-family="Helvetica,sans-Serif" font-size="10.00">WorkThroughFrameQueue</text>
</a>
</g>
</g>
<!-- Node20&#45;&gt;Node22 -->
<g id="edge28_Node000020_Node000022" class="edge">
<title>Node20&#45;&gt;Node22</title>
<g id="a_edge28_Node000020_Node000022"><a xlink:title=" ">
<path fill="none" stroke="#63b8ff" d="M634.17,-77.99C659.5,-72.14 692.19,-64.59 719.2,-58.35"/>
<polygon fill="#63b8ff" stroke="#63b8ff" points="720.29,-61.69 729.25,-56.03 718.72,-54.87 720.29,-61.69"/>
</a>
</g>
</g>
<!-- Node23 -->
<g id="Node000023" class="node">
<title>Node23</title>
<g id="a_Node000023"><a xlink:href="../../d2/d41/ObjectManagement_8cpp.html#ad487b4c14d5f4bf65d056f5c90ac4d72" target="_top" xlink:title=" ">
<polygon fill="white" stroke="#666666" points="1023,-56 883,-56 883,-37 1023,-37 1023,-56"/>
<text text-anchor="middle" x="953" y="-44" font-family="Helvetica,sans-Serif" font-size="10.00">DestroyEnqueuedObjects</text>
</a>
</g>
</g>
<!-- Node22&#45;&gt;Node23 -->
<g id="edge29_Node000022_Node000023" class="edge">
<title>Node22&#45;&gt;Node23</title>
<g id="a_edge29_Node000022_Node000023"><a xlink:title=" ">
<path fill="none" stroke="#63b8ff" d="M843.19,-46.5C852.87,-46.5 862.86,-46.5 872.69,-46.5"/>
<polygon fill="#63b8ff" stroke="#63b8ff" points="872.85,-50 882.85,-46.5 872.85,-43 872.85,-50"/>
</a>
</g>
</g>
<!-- Node25 -->
<g id="Node000025" class="node">
<title>Node25</title>
<g id="a_Node000025"><a xlink:href="../../d2/d41/ObjectManagement_8cpp.html#a25053f13bc5fe6ea1caf5f343cbb30b8" target="_top" xlink:title=" ">
<polygon fill="white" stroke="#666666" points="1024,-19 882,-19 882,0 1024,0 1024,-19"/>
<text text-anchor="middle" x="953" y="-7" font-family="Helvetica,sans-Serif" font-size="10.00">RegisterEnqueuedObjects</text>
</a>
</g>
</g>
<!-- Node22&#45;&gt;Node25 -->
<g id="edge31_Node000022_Node000025" class="edge">
<title>Node22&#45;&gt;Node25</title>
<g id="a_edge31_Node000022_Node000025"><a xlink:title=" ">
<path fill="none" stroke="#63b8ff" d="M818.73,-36.97C842.19,-32.14 870.89,-26.22 895.64,-21.12"/>
<polygon fill="#63b8ff" stroke="#63b8ff" points="896.53,-24.51 905.62,-19.06 895.12,-17.65 896.53,-24.51"/>
</a>
</g>
</g>
<!-- Node24 -->
<g id="Node000024" class="node">
<title>Node24</title>
<g id="a_Node000024"><a xlink:href="../../d2/d41/ObjectManagement_8cpp.html#ab91c7a16c0d19bae45779c2b3eb207f9" target="_top" xlink:title=" ">
<polygon fill="white" stroke="#666666" points="1191,-56 1075,-56 1075,-37 1191,-37 1191,-56"/>
<text text-anchor="middle" x="1133" y="-44" font-family="Helvetica,sans-Serif" font-size="10.00">DestroyGameObject</text>
</a>
</g>
</g>
<!-- Node23&#45;&gt;Node24 -->
<g id="edge30_Node000023_Node000024" class="edge">
<title>Node23&#45;&gt;Node24</title>
<g id="a_edge30_Node000023_Node000024"><a xlink:title=" ">
<path fill="none" stroke="#63b8ff" d="M1023.07,-46.5C1036.7,-46.5 1050.99,-46.5 1064.56,-46.5"/>
<polygon fill="#63b8ff" stroke="#63b8ff" points="1064.78,-50 1074.78,-46.5 1064.78,-43 1064.78,-50"/>
</a>
</g>
</g>
<!-- Node26 -->
<g id="Node000026" class="node">
<title>Node26</title>
<g id="a_Node000026"><a xlink:href="../../d2/d41/ObjectManagement_8cpp.html#a4eacad131651d21ffbebf4a2108a175c" target="_top" xlink:title=" ">
<polygon fill="white" stroke="#666666" points="1192,-19 1074,-19 1074,0 1192,0 1192,-19"/>
<text text-anchor="middle" x="1133" y="-7" font-family="Helvetica,sans-Serif" font-size="10.00">RegisterGameObject</text>
</a>
</g>
</g>
<!-- Node25&#45;&gt;Node26 -->
<g id="edge32_Node000025_Node000026" class="edge">
<title>Node25&#45;&gt;Node26</title>
<g id="a_edge32_Node000025_Node000026"><a xlink:title=" ">
<path fill="none" stroke="#63b8ff" d="M1024.09,-9.5C1037.07,-9.5 1050.6,-9.5 1063.53,-9.5"/>
<polygon fill="#63b8ff" stroke="#63b8ff" points="1063.74,-13 1073.74,-9.5 1063.74,-6 1063.74,-13"/>
</a>
</g>
</g>
<!-- Node28 -->
<g id="Node000028" class="node">
<title>Node28</title>
<g id="a_Node000028"><a xlink:href="../../d2/d3b/KeyboardHandling_8cpp.html#a2b6d8aae8fe15780544c6ada95a93033" target="_top" xlink:title="Handle a keyboard event.">
<polygon fill="white" stroke="#666666" points="484,-197 359,-197 359,-178 484,-178 484,-197"/>
<text text-anchor="middle" x="421.5" y="-185" font-family="Helvetica,sans-Serif" font-size="10.00">HandleKeyboardEvent</text>
</a>
</g>
</g>
<!-- Node27&#45;&gt;Node28 -->
<g id="edge34_Node000027_Node000028" class="edge">
<title>Node27&#45;&gt;Node28</title>
<g id="a_edge34_Node000027_Node000028"><a xlink:title=" ">
<path fill="none" stroke="#63b8ff" d="M311.39,-187.5C322.87,-187.5 335.83,-187.5 348.7,-187.5"/>
<polygon fill="#63b8ff" stroke="#63b8ff" points="348.97,-191 358.97,-187.5 348.97,-184 348.97,-191"/>
</a>
</g>
</g>
<!-- Node29 -->
<g id="Node000029" class="node">
<title>Node29</title>
<g id="a_Node000029"><a xlink:href="../../de/d47/classKeyboardHandlerBehavior.html#aedfbd0872b0f5331ffece766aaa7b3c2" target="_top" xlink:title="Called when a key is pressed (or held) down.">
<polygon fill="white" stroke="#666666" points="664,-190.5 520,-190.5 520,-160.5 664,-160.5 664,-190.5"/>
<text text-anchor="start" x="528" y="-178.5" font-family="Helvetica,sans-Serif" font-size="10.00">KeyboardHandlerBehavior</text>
<text text-anchor="middle" x="592" y="-167.5" font-family="Helvetica,sans-Serif" font-size="10.00">::OnKeyDown</text>
</a>
</g>
</g>
<!-- Node28&#45;&gt;Node29 -->
<g id="edge35_Node000028_Node000029" class="edge">
<title>Node28&#45;&gt;Node29</title>
<g id="a_edge35_Node000028_Node000029"><a xlink:title=" ">
<path fill="none" stroke="#63b8ff" d="M484.29,-183.1C492.59,-182.51 501.21,-181.89 509.78,-181.28"/>
<polygon fill="#63b8ff" stroke="#63b8ff" points="510.08,-184.77 519.81,-180.57 509.59,-177.79 510.08,-184.77"/>
</a>
</g>
</g>
<!-- Node30 -->
<g id="Node000030" class="node">
<title>Node30</title>
<g id="a_Node000030"><a xlink:href="../../de/d47/classKeyboardHandlerBehavior.html#a2ffe164cb50551f0d20b40753b0d193d" target="_top" xlink:title="Called when a key is released.">
<polygon fill="white" stroke="#666666" points="664,-238.5 520,-238.5 520,-208.5 664,-208.5 664,-238.5"/>
<text text-anchor="start" x="528" y="-226.5" font-family="Helvetica,sans-Serif" font-size="10.00">KeyboardHandlerBehavior</text>
<text text-anchor="middle" x="592" y="-215.5" font-family="Helvetica,sans-Serif" font-size="10.00">::OnKeyUp</text>
</a>
</g>
</g>
<!-- Node28&#45;&gt;Node30 -->
<g id="edge36_Node000028_Node000030" class="edge">
<title>Node28&#45;&gt;Node30</title>
<g id="a_edge36_Node000028_Node000030"><a xlink:title=" ">
<path fill="none" stroke="#63b8ff" d="M467.21,-197.05C480.65,-199.92 495.82,-203.16 510.82,-206.37"/>
<polygon fill="#63b8ff" stroke="#63b8ff" points="510.12,-209.8 520.63,-208.47 511.58,-202.95 510.12,-209.8"/>
</a>
</g>
</g>
<!-- Node32&#45;&gt;Node8 -->
<g id="edge40_Node000032_Node000008" class="edge">
<title>Node32&#45;&gt;Node8</title>
<g id="a_edge40_Node000032_Node000008"><a xlink:title=" ">
<path fill="none" stroke="#63b8ff" d="M815.95,-257.54C839.95,-252.6 870.03,-246.4 895.8,-241.08"/>
<polygon fill="#63b8ff" stroke="#63b8ff" points="896.72,-244.47 905.81,-239.02 895.31,-237.61 896.72,-244.47"/>
</a>
</g>
</g>
<!-- Node32&#45;&gt;Node18 -->
<g id="edge41_Node000032_Node000018" class="edge">
<title>Node32&#45;&gt;Node18</title>
<g id="a_edge41_Node000032_Node000018"><a xlink:title=" ">
<path fill="none" stroke="#63b8ff" d="M815.95,-266.5C841.71,-266.5 874.48,-266.5 901.4,-266.5"/>
<polygon fill="#63b8ff" stroke="#63b8ff" points="901.41,-270 911.41,-266.5 901.41,-263 901.41,-270"/>
</a>
</g>
</g>
<!-- Node33 -->
<g id="Node000033" class="node">
<title>Node33</title>
<g id="a_Node000033"><a xlink:href="../../d9/dfa/Init_8cpp.html#a8341384b2aebeb359aded0078e40d3e3" target="_top" xlink:title="Create the game manager object and register it.">
<polygon fill="white" stroke="#666666" points="1013.5,-313 892.5,-313 892.5,-294 1013.5,-294 1013.5,-313"/>
<text text-anchor="middle" x="953" y="-301" font-family="Helvetica,sans-Serif" font-size="10.00">CreateGameManager</text>
</a>
</g>
</g>
<!-- Node32&#45;&gt;Node33 -->
<g id="edge39_Node000032_Node000033" class="edge">
<title>Node32&#45;&gt;Node33</title>
<g id="a_edge39_Node000032_Node000033"><a xlink:title=" ">
<path fill="none" stroke="#63b8ff" d="M815.95,-275.46C839.95,-280.4 870.03,-286.6 895.8,-291.92"/>
<polygon fill="#63b8ff" stroke="#63b8ff" points="895.31,-295.39 905.81,-293.98 896.72,-288.53 895.31,-295.39"/>
</a>
</g>
</g>
</g>
</svg>
