<?xml version="1.0" encoding="UTF-8" standalone="no"?>
<!DOCTYPE svg PUBLIC "-//W3C//DTD SVG 1.1//EN"
 "http://www.w3.org/Graphics/SVG/1.1/DTD/svg11.dtd">
<!-- Generated by graphviz version 2.43.0 (0)
 -->
<!-- Title: main Pages: 1 -->
<svg width="1516pt" height="362pt"
 viewBox="0.00 0.00 1516.00 362.00" xmlns="http://www.w3.org/2000/svg" xmlns:xlink="http://www.w3.org/1999/xlink">
<g id="graph0" class="graph" transform="scale(1 1) rotate(0) translate(4 358)">
<title>main</title>
<!-- Node1 -->
<g id="Node000001" class="node">
<title>Node1</title>
<g id="a_Node000001"><a xlink:title="Entry point of the program.">
<polygon fill="#999999" stroke="#666666" points="41,-183 0,-183 0,-164 41,-164 41,-183"/>
<text text-anchor="middle" x="20.5" y="-171" font-family="Helvetica,sans-Serif" font-size="10.00">main</text>
</a>
</g>
</g>
<!-- Node2 -->
<g id="Node000002" class="node">
<title>Node2</title>
<g id="a_Node000002"><a xlink:href="../../df/d0a/main_8cpp.html#aed6a965c795e2202196ce9dc698d8046" target="_top" xlink:title="Destroy all objects, the renderer and window, and quit SDL and TTF.">
<polygon fill="white" stroke="#666666" points="184,-220 77,-220 77,-201 184,-201 184,-220"/>
<text text-anchor="middle" x="130.5" y="-208" font-family="Helvetica,sans-Serif" font-size="10.00">CleanupBeforeExit</text>
</a>
</g>
</g>
<!-- Node1&#45;&gt;Node2 -->
<g id="edge1_Node000001_Node000002" class="edge">
<title>Node1&#45;&gt;Node2</title>
<g id="a_edge1_Node000001_Node000002"><a xlink:title=" ">
<path fill="none" stroke="#63b8ff" d="M41.06,-180.2C55.18,-185.04 74.71,-191.73 91.82,-197.59"/>
<polygon fill="#63b8ff" stroke="#63b8ff" points="90.96,-201 101.55,-200.93 93.23,-194.37 90.96,-201"/>
</a>
</g>
</g>
<!-- Node3 -->
<g id="Node000003" class="node">
<title>Node3</title>
<g id="a_Node000003"><a xlink:href="../../df/d0a/main_8cpp.html#abfbee20b241e7d5bbbef9ab36fb201a4" target="_top" xlink:title="The main game loop, runs until QuitGame is set to true.">
<polygon fill="white" stroke="#666666" points="164.5,-183 96.5,-183 96.5,-164 164.5,-164 164.5,-183"/>
<text text-anchor="middle" x="130.5" y="-171" font-family="Helvetica,sans-Serif" font-size="10.00">gameLoop</text>
</a>
</g>
</g>
<!-- Node1&#45;&gt;Node3 -->
<g id="edge2_Node000001_Node000003" class="edge">
<title>Node1&#45;&gt;Node3</title>
<g id="a_edge2_Node000001_Node000003"><a xlink:title=" ">
<path fill="none" stroke="#63b8ff" d="M41.06,-173.5C53.62,-173.5 70.46,-173.5 86.07,-173.5"/>
<polygon fill="#63b8ff" stroke="#63b8ff" points="86.09,-177 96.09,-173.5 86.09,-170 86.09,-177"/>
</a>
</g>
</g>
<!-- Node32 -->
<g id="Node000032" class="node">
<title>Node32</title>
<g id="a_Node000032"><a xlink:href="../../d1/d99/Lifecycle_8cpp.html#af0000b43ed614b94179e358d523c9245" target="_top" xlink:title="Initialize the game to the default state.">
<polygon fill="white" stroke="#666666" points="980,-127 892,-127 892,-108 980,-108 980,-127"/>
<text text-anchor="middle" x="936" y="-115" font-family="Helvetica,sans-Serif" font-size="10.00">InitializeGame</text>
</a>
</g>
</g>
<!-- Node1&#45;&gt;Node32 -->
<g id="edge38_Node000001_Node000032" class="edge">
<title>Node1&#45;&gt;Node32</title>
<g id="a_edge38_Node000001_Node000032"><a xlink:title=" ">
<path fill="none" stroke="#63b8ff" d="M40.64,-163.94C81.68,-144.35 181.62,-101.5 270.5,-101.5 270.5,-101.5 270.5,-101.5 593,-101.5 695.12,-101.5 814.21,-108.71 881.5,-113.45"/>
<polygon fill="#63b8ff" stroke="#63b8ff" points="881.62,-116.96 891.84,-114.18 882.11,-109.98 881.62,-116.96"/>
</a>
</g>
</g>
<!-- Node4 -->
<g id="Node000004" class="node">
<title>Node4</title>
<g id="a_Node000004"><a xlink:href="../../df/d0a/main_8cpp.html#ae8fa368bbea5177612cd2cf333448c66" target="_top" xlink:title="Executed every frame.">
<polygon fill="white" stroke="#666666" points="294.5,-266 248.5,-266 248.5,-247 294.5,-247 294.5,-266"/>
<text text-anchor="middle" x="271.5" y="-254" font-family="Helvetica,sans-Serif" font-size="10.00">frame</text>
</a>
</g>
</g>
<!-- Node3&#45;&gt;Node4 -->
<g id="edge3_Node000003_Node000004" class="edge">
<title>Node3&#45;&gt;Node4</title>
<g id="a_edge3_Node000003_Node000004"><a xlink:title=" ">
<path fill="none" stroke="#63b8ff" d="M162.68,-183.1C169.86,-185.77 177.34,-188.93 184,-192.5 209.1,-205.95 234.97,-226.08 251.8,-240.16"/>
<polygon fill="#63b8ff" stroke="#63b8ff" points="249.85,-243.09 259.73,-246.9 254.38,-237.75 249.85,-243.09"/>
</a>
</g>
</g>
<!-- Node26 -->
<g id="Node000026" class="node">
<title>Node26</title>
<g id="a_Node000026"><a xlink:href="../../de/db0/Events_8cpp.html#a26867d84edb0f52a75127cf66c64c9a9" target="_top" xlink:title="Handles an event that has occoured.">
<polygon fill="white" stroke="#666666" points="311,-202 232,-202 232,-183 311,-183 311,-202"/>
<text text-anchor="middle" x="271.5" y="-190" font-family="Helvetica,sans-Serif" font-size="10.00">HandleEvent</text>
</a>
</g>
</g>
<!-- Node3&#45;&gt;Node26 -->
<g id="edge32_Node000003_Node000026" class="edge">
<title>Node3&#45;&gt;Node26</title>
<g id="a_edge32_Node000003_Node000026"><a xlink:title=" ">
<path fill="none" stroke="#63b8ff" d="M164.79,-178.05C181.88,-180.39 203.02,-183.28 221.9,-185.86"/>
<polygon fill="#63b8ff" stroke="#63b8ff" points="221.43,-189.33 231.81,-187.21 222.38,-182.39 221.43,-189.33"/>
</a>
</g>
</g>
<!-- Node31 -->
<g id="Node000031" class="node">
<title>Node31</title>
<g id="a_Node000031"><a xlink:href="../../d8/d38/Time_8cpp.html#a150f12b48e13e1c14a4e7646137c74a4" target="_top" xlink:title="Update the stored deltatime. Should be executed each frame.">
<polygon fill="white" stroke="#666666" points="323,-165 220,-165 220,-146 323,-146 323,-165"/>
<text text-anchor="middle" x="271.5" y="-153" font-family="Helvetica,sans-Serif" font-size="10.00">UpdateDeltaTime</text>
</a>
</g>
</g>
<!-- Node3&#45;&gt;Node31 -->
<g id="edge37_Node000003_Node000031" class="edge">
<title>Node3&#45;&gt;Node31</title>
<g id="a_edge37_Node000003_Node000031"><a xlink:title=" ">
<path fill="none" stroke="#63b8ff" d="M164.79,-169.19C178.3,-167.44 194.34,-165.36 209.79,-163.36"/>
<polygon fill="#63b8ff" stroke="#63b8ff" points="210.35,-166.82 219.82,-162.06 209.45,-159.88 210.35,-166.82"/>
</a>
</g>
</g>
<!-- Node5 -->
<g id="Node000005" class="node">
<title>Node5</title>
<g id="a_Node000005"><a xlink:href="../../de/dfd/GameManagement_8cpp.html#a522912d67446895b0a03d01837b75a99" target="_top" xlink:title="Iterate over all objects, and update the appropriately, using OnTick() or Component specific methods.">
<polygon fill="white" stroke="#666666" points="466,-293 377,-293 377,-274 466,-274 466,-293"/>
<text text-anchor="middle" x="421.5" y="-281" font-family="Helvetica,sans-Serif" font-size="10.00">UpdateObjects</text>
</a>
</g>
</g>
<!-- Node4&#45;&gt;Node5 -->
<g id="edge4_Node000004_Node000005" class="edge">
<title>Node4&#45;&gt;Node5</title>
<g id="a_edge4_Node000004_Node000005"><a xlink:title=" ">
<path fill="none" stroke="#63b8ff" d="M294.66,-260.54C313.65,-264.01 341.8,-269.14 366.67,-273.68"/>
<polygon fill="#63b8ff" stroke="#63b8ff" points="366.26,-277.16 376.72,-275.51 367.51,-270.28 366.26,-277.16"/>
</a>
</g>
</g>
<!-- Node6 -->
<g id="Node000006" class="node">
<title>Node6</title>
<g id="a_Node000006"><a xlink:href="../../de/dfd/GameManagement_8cpp.html#abb664488d26ac602b11cc22de7243458" target="_top" xlink:title=" ">
<polygon fill="white" stroke="#666666" points="663.5,-293 520.5,-293 520.5,-274 663.5,-274 663.5,-293"/>
<text text-anchor="middle" x="592" y="-281" font-family="Helvetica,sans-Serif" font-size="10.00">HandleComponentUpdate</text>
</a>
</g>
</g>
<!-- Node5&#45;&gt;Node6 -->
<g id="edge5_Node000005_Node000006" class="edge">
<title>Node5&#45;&gt;Node6</title>
<g id="a_edge5_Node000005_Node000006"><a xlink:title=" ">
<path fill="none" stroke="#63b8ff" d="M466.33,-283.5C479.72,-283.5 494.9,-283.5 509.93,-283.5"/>
<polygon fill="#63b8ff" stroke="#63b8ff" points="510.3,-287 520.3,-283.5 510.3,-280 510.3,-287"/>
</a>
</g>
</g>
<!-- Node7 -->
<g id="Node000007" class="node">
<title>Node7</title>
<g id="a_Node000007"><a xlink:href="../../de/dfd/GameManagement_8cpp.html#a95ff1ee6a57e678376b2eae2ef499ab3" target="_top" xlink:title=" ">
<polygon fill="white" stroke="#666666" points="663.5,-330 520.5,-330 520.5,-311 663.5,-311 663.5,-330"/>
<text text-anchor="middle" x="592" y="-318" font-family="Helvetica,sans-Serif" font-size="10.00">WorkThroughFrameQueue</text>
</a>
</g>
</g>
<!-- Node5&#45;&gt;Node7 -->
<g id="edge6_Node000005_Node000007" class="edge">
<title>Node5&#45;&gt;Node7</title>
<g id="a_edge6_Node000005_Node000007"><a xlink:title=" ">
<path fill="none" stroke="#63b8ff" d="M465.89,-293.03C487.72,-297.82 514.38,-303.68 537.47,-308.75"/>
<polygon fill="#63b8ff" stroke="#63b8ff" points="536.94,-312.21 547.46,-310.94 538.44,-305.38 536.94,-312.21"/>
</a>
</g>
</g>
<!-- Node8 -->
<g id="Node000008" class="node">
<title>Node8</title>
<g id="a_Node000008"><a xlink:href="../../de/dfd/GameManagement_8cpp.html#ad487b4c14d5f4bf65d056f5c90ac4d72" target="_top" xlink:title=" ">
<polygon fill="white" stroke="#666666" points="841,-353 701,-353 701,-334 841,-334 841,-353"/>
<text text-anchor="middle" x="771" y="-341" font-family="Helvetica,sans-Serif" font-size="10.00">DestroyEnqueuedObjects</text>
</a>
</g>
</g>
<!-- Node7&#45;&gt;Node8 -->
<g id="edge7_Node000007_Node000008" class="edge">
<title>Node7&#45;&gt;Node8</title>
<g id="a_edge7_Node000007_Node000008"><a xlink:title=" ">
<path fill="none" stroke="#63b8ff" d="M663.72,-329.69C672.6,-330.84 681.74,-332.03 690.74,-333.2"/>
<polygon fill="#63b8ff" stroke="#63b8ff" points="690.47,-336.69 700.84,-334.51 691.37,-329.75 690.47,-336.69"/>
</a>
</g>
</g>
<!-- Node10 -->
<g id="Node000010" class="node">
<title>Node10</title>
<g id="a_Node000010"><a xlink:href="../../de/dfd/GameManagement_8cpp.html#a25053f13bc5fe6ea1caf5f343cbb30b8" target="_top" xlink:title=" ">
<polygon fill="white" stroke="#666666" points="842,-316 700,-316 700,-297 842,-297 842,-316"/>
<text text-anchor="middle" x="771" y="-304" font-family="Helvetica,sans-Serif" font-size="10.00">RegisterEnqueuedObjects</text>
</a>
</g>
</g>
<!-- Node7&#45;&gt;Node10 -->
<g id="edge9_Node000007_Node000010" class="edge">
<title>Node7&#45;&gt;Node10</title>
<g id="a_edge9_Node000007_Node000010"><a xlink:title=" ">
<path fill="none" stroke="#63b8ff" d="M663.72,-314.91C672.3,-314.23 681.11,-313.53 689.82,-312.84"/>
<polygon fill="#63b8ff" stroke="#63b8ff" points="690.28,-316.32 699.97,-312.04 689.73,-309.34 690.28,-316.32"/>
</a>
</g>
</g>
<!-- Node12 -->
<g id="Node000012" class="node">
<title>Node12</title>
<g id="a_Node000012"><a xlink:href="../../de/dfd/GameManagement_8cpp.html#a2877bc3a946eb46940e5cdedcaf4e3f6" target="_top" xlink:title=" ">
<polygon fill="white" stroke="#666666" points="833,-223 709,-223 709,-204 833,-204 833,-223"/>
<text text-anchor="middle" x="771" y="-211" font-family="Helvetica,sans-Serif" font-size="10.00">ResetGameIfRequired</text>
</a>
</g>
</g>
<!-- Node7&#45;&gt;Node12 -->
<g id="edge11_Node000007_Node000012" class="edge">
<title>Node7&#45;&gt;Node12</title>
<g id="a_edge11_Node000007_Node000012"><a xlink:title=" ">
<path fill="none" stroke="#63b8ff" d="M642.94,-310.89C650.2,-308.63 657.44,-305.86 664,-302.5 700.28,-283.92 735.02,-250.89 754.33,-230.71"/>
<polygon fill="#63b8ff" stroke="#63b8ff" points="757.11,-232.86 761.4,-223.18 752.01,-228.08 757.11,-232.86"/>
</a>
</g>
</g>
<!-- Node9 -->
<g id="Node000009" class="node">
<title>Node9</title>
<g id="a_Node000009"><a xlink:href="../../de/dfd/GameManagement_8cpp.html#abc0ac24a5725e21af2dcc9eb0d0c40ae" target="_top" xlink:title="Immediately destroy a GameObject.">
<polygon fill="white" stroke="#666666" points="994,-354 878,-354 878,-335 994,-335 994,-354"/>
<text text-anchor="middle" x="936" y="-342" font-family="Helvetica,sans-Serif" font-size="10.00">DestroyGameObject</text>
</a>
</g>
</g>
<!-- Node8&#45;&gt;Node9 -->
<g id="edge8_Node000008_Node000009" class="edge">
<title>Node8&#45;&gt;Node9</title>
<g id="a_edge8_Node000008_Node000009"><a xlink:title=" ">
<path fill="none" stroke="#63b8ff" d="M841.13,-343.92C849.92,-343.98 858.91,-344.03 867.67,-344.09"/>
<polygon fill="#63b8ff" stroke="#63b8ff" points="867.81,-347.59 877.83,-344.15 867.86,-340.59 867.81,-347.59"/>
</a>
</g>
</g>
<!-- Node11 -->
<g id="Node000011" class="node">
<title>Node11</title>
<g id="a_Node000011"><a xlink:href="../../de/dfd/GameManagement_8cpp.html#a40f7d4339a01b155a82745c5bd8ead6a" target="_top" xlink:title="Directly register a gameobject. Will push the object into the GameObjects vector.">
<polygon fill="white" stroke="#666666" points="1508,-186 1390,-186 1390,-167 1508,-167 1508,-186"/>
<text text-anchor="middle" x="1449" y="-174" font-family="Helvetica,sans-Serif" font-size="10.00">RegisterGameObject</text>
</a>
</g>
</g>
<!-- Node10&#45;&gt;Node11 -->
<g id="edge10_Node000010_Node000011" class="edge">
<title>Node10&#45;&gt;Node11</title>
<g id="a_edge10_Node000010_Node000011"><a xlink:title=" ">
<path fill="none" stroke="#63b8ff" d="M842.08,-311.19C976.63,-319.07 1265.66,-330.22 1354,-287.5 1364.76,-282.3 1411.01,-224.09 1434.38,-194.11"/>
<polygon fill="#63b8ff" stroke="#63b8ff" points="1437.2,-196.18 1440.57,-186.14 1431.67,-191.89 1437.2,-196.18"/>
</a>
</g>
</g>
<!-- Node13 -->
<g id="Node000013" class="node">
<title>Node13</title>
<g id="a_Node000013"><a xlink:href="../../d1/d99/Lifecycle_8cpp.html#a7be4f604c1baeb7cac84122a7f2438cf" target="_top" xlink:title="Reset the game to the initial state.">
<polygon fill="white" stroke="#666666" points="973,-195 899,-195 899,-176 973,-176 973,-195"/>
<text text-anchor="middle" x="936" y="-183" font-family="Helvetica,sans-Serif" font-size="10.00">ResetGame</text>
</a>
</g>
</g>
<!-- Node12&#45;&gt;Node13 -->
<g id="edge12_Node000012_Node000013" class="edge">
<title>Node12&#45;&gt;Node13</title>
<g id="a_edge12_Node000012_Node000013"><a xlink:title=" ">
<path fill="none" stroke="#63b8ff" d="M827.64,-203.94C847.5,-200.53 869.64,-196.73 888.63,-193.47"/>
<polygon fill="#63b8ff" stroke="#63b8ff" points="889.27,-196.91 898.54,-191.76 888.09,-190.01 889.27,-196.91"/>
</a>
</g>
</g>
<!-- Node14 -->
<g id="Node000014" class="node">
<title>Node14</title>
<g id="a_Node000014"><a xlink:href="../../d9/dfa/Init_8cpp.html#aaa64e8fd06230fa14e507cef71a3217d" target="_top" xlink:title="Create the initial gameobjects required for the game.">
<polygon fill="white" stroke="#666666" points="1175.5,-140 1032.5,-140 1032.5,-121 1175.5,-121 1175.5,-140"/>
<text text-anchor="middle" x="1104" y="-128" font-family="Helvetica,sans-Serif" font-size="10.00">CreateInitialGameObjects</text>
</a>
</g>
</g>
<!-- Node13&#45;&gt;Node14 -->
<g id="edge13_Node000013_Node000014" class="edge">
<title>Node13&#45;&gt;Node14</title>
<g id="a_edge13_Node000013_Node000014"><a xlink:title=" ">
<path fill="none" stroke="#63b8ff" d="M958.49,-175.97C977.15,-167.94 1005.01,-156.51 1030,-148.5 1036.43,-146.44 1043.24,-144.48 1050.02,-142.65"/>
<polygon fill="#63b8ff" stroke="#63b8ff" points="1051.08,-146 1059.88,-140.09 1049.32,-139.22 1051.08,-146"/>
</a>
</g>
</g>
<!-- Node24 -->
<g id="Node000024" class="node">
<title>Node24</title>
<g id="a_Node000024"><a xlink:href="../../de/dfd/GameManagement_8cpp.html#ae5ee3f705fc506491ca2b0c7cf059c75" target="_top" xlink:title="Initialize all gameobjects and call the OnStart() methods.">
<polygon fill="white" stroke="#666666" points="1145.5,-177 1062.5,-177 1062.5,-158 1145.5,-158 1145.5,-177"/>
<text text-anchor="middle" x="1104" y="-165" font-family="Helvetica,sans-Serif" font-size="10.00">OnGameStart</text>
</a>
</g>
</g>
<!-- Node13&#45;&gt;Node24 -->
<g id="edge30_Node000013_Node000024" class="edge">
<title>Node13&#45;&gt;Node24</title>
<g id="a_edge30_Node000013_Node000024"><a xlink:title=" ">
<path fill="none" stroke="#63b8ff" d="M973.02,-181.59C996.15,-179.09 1026.54,-175.79 1052.12,-173.02"/>
<polygon fill="#63b8ff" stroke="#63b8ff" points="1052.82,-176.46 1062.39,-171.9 1052.07,-169.5 1052.82,-176.46"/>
</a>
</g>
</g>
<!-- Node25 -->
<g id="Node000025" class="node">
<title>Node25</title>
<g id="a_Node000025"><a xlink:href="../../d8/d38/Time_8cpp.html#ae55fb718253dda2137a189d792bda7b9" target="_top" xlink:title="Reset the time since the game has started.">
<polygon fill="white" stroke="#666666" points="1178,-214 1030,-214 1030,-195 1178,-195 1178,-214"/>
<text text-anchor="middle" x="1104" y="-202" font-family="Helvetica,sans-Serif" font-size="10.00">ResetTimeSinceGameStart</text>
</a>
</g>
</g>
<!-- Node13&#45;&gt;Node25 -->
<g id="edge31_Node000013_Node000025" class="edge">
<title>Node13&#45;&gt;Node25</title>
<g id="a_edge31_Node000013_Node000025"><a xlink:title=" ">
<path fill="none" stroke="#63b8ff" d="M973.02,-189.62C986.84,-191.2 1003.25,-193.08 1019.68,-194.96"/>
<polygon fill="#63b8ff" stroke="#63b8ff" points="1019.55,-198.47 1029.88,-196.13 1020.35,-191.52 1019.55,-198.47"/>
</a>
</g>
</g>
<!-- Node15 -->
<g id="Node000015" class="node">
<title>Node15</title>
<g id="a_Node000015"><a xlink:href="../../d9/dfa/Init_8cpp.html#a3ff595c2af791c369e2318510062ce14" target="_top" xlink:title="Create the coffee meter bar.">
<polygon fill="white" stroke="#666666" points="1338.5,-204 1229.5,-204 1229.5,-185 1338.5,-185 1338.5,-204"/>
<text text-anchor="middle" x="1284" y="-192" font-family="Helvetica,sans-Serif" font-size="10.00">CreateCoffeeMeter</text>
</a>
</g>
</g>
<!-- Node14&#45;&gt;Node15 -->
<g id="edge14_Node000014_Node000015" class="edge">
<title>Node14&#45;&gt;Node15</title>
<g id="a_edge14_Node000014_Node000015"><a xlink:title=" ">
<path fill="none" stroke="#63b8ff" d="M1155.4,-140.1C1163.15,-142.37 1170.92,-145.15 1178,-148.5 1196.07,-157.07 1196.04,-166.69 1214,-175.5 1218.69,-177.8 1223.7,-179.86 1228.8,-181.69"/>
<polygon fill="#63b8ff" stroke="#63b8ff" points="1228.06,-185.13 1238.66,-184.94 1230.26,-178.49 1228.06,-185.13"/>
</a>
</g>
</g>
<!-- Node16 -->
<g id="Node000016" class="node">
<title>Node16</title>
<g id="a_Node000016"><a xlink:href="../../d9/dfa/Init_8cpp.html#a1bfb628b6cd503e396bae0796f2051c1" target="_top" xlink:title="Create the icon next to the coffee meter.">
<polygon fill="white" stroke="#666666" points="1348.5,-278 1219.5,-278 1219.5,-259 1348.5,-259 1348.5,-278"/>
<text text-anchor="middle" x="1284" y="-266" font-family="Helvetica,sans-Serif" font-size="10.00">CreateCoffeeMeterIcon</text>
</a>
</g>
</g>
<!-- Node14&#45;&gt;Node16 -->
<g id="edge16_Node000014_Node000016" class="edge">
<title>Node14&#45;&gt;Node16</title>
<g id="a_edge16_Node000014_Node000016"><a xlink:title=" ">
<path fill="none" stroke="#63b8ff" d="M1165.31,-140C1169.91,-142.28 1174.23,-145.08 1178,-148.5 1213.61,-180.8 1178.61,-217.97 1214,-250.5 1215.14,-251.55 1216.33,-252.54 1217.57,-253.47"/>
<polygon fill="#63b8ff" stroke="#63b8ff" points="1215.96,-256.59 1226.31,-258.84 1219.62,-250.62 1215.96,-256.59"/>
</a>
</g>
</g>
<!-- Node18 -->
<g id="Node000018" class="node">
<title>Node18</title>
<g id="a_Node000018"><a xlink:href="../../d9/dfa/Init_8cpp.html#a7577908172d93807ef67f163f851fe5e" target="_top" xlink:title="Create the floor and register it.">
<polygon fill="white" stroke="#666666" points="1321,-167 1247,-167 1247,-148 1321,-148 1321,-167"/>
<text text-anchor="middle" x="1284" y="-155" font-family="Helvetica,sans-Serif" font-size="10.00">CreateFloor</text>
</a>
</g>
</g>
<!-- Node14&#45;&gt;Node18 -->
<g id="edge19_Node000014_Node000018" class="edge">
<title>Node14&#45;&gt;Node18</title>
<g id="a_edge19_Node000014_Node000018"><a xlink:title=" ">
<path fill="none" stroke="#63b8ff" d="M1167.76,-140.02C1190.55,-143.48 1215.87,-147.32 1236.95,-150.52"/>
<polygon fill="#63b8ff" stroke="#63b8ff" points="1236.52,-153.99 1246.93,-152.03 1237.57,-147.07 1236.52,-153.99"/>
</a>
</g>
</g>
<!-- Node19 -->
<g id="Node000019" class="node">
<title>Node19</title>
<g id="a_Node000019"><a xlink:href="../../d9/dfa/Init_8cpp.html#a8ad8206fa2846739c5e76ce97b6b2783" target="_top" xlink:title="Create the score counter and register it.">
<polygon fill="white" stroke="#666666" points="1341,-130 1227,-130 1227,-111 1341,-111 1341,-130"/>
<text text-anchor="middle" x="1284" y="-118" font-family="Helvetica,sans-Serif" font-size="10.00">CreateScoreCounter</text>
</a>
</g>
</g>
<!-- Node14&#45;&gt;Node19 -->
<g id="edge21_Node000014_Node000019" class="edge">
<title>Node14&#45;&gt;Node19</title>
<g id="a_edge21_Node000014_Node000019"><a xlink:title=" ">
<path fill="none" stroke="#63b8ff" d="M1175.61,-126.53C1189.14,-125.77 1203.27,-124.98 1216.67,-124.23"/>
<polygon fill="#63b8ff" stroke="#63b8ff" points="1216.96,-127.72 1226.75,-123.66 1216.56,-120.73 1216.96,-127.72"/>
</a>
</g>
</g>
<!-- Node20 -->
<g id="Node000020" class="node">
<title>Node20</title>
<g id="a_Node000020"><a xlink:href="../../d9/dfa/Init_8cpp.html#ac07b948048071cbf70f69aa9d691a93f" target="_top" xlink:title="Set the window background to white.">
<polygon fill="white" stroke="#666666" points="1354,-93 1214,-93 1214,-74 1354,-74 1354,-93"/>
<text text-anchor="middle" x="1284" y="-81" font-family="Helvetica,sans-Serif" font-size="10.00">SetupWindowbackground</text>
</a>
</g>
</g>
<!-- Node14&#45;&gt;Node20 -->
<g id="edge23_Node000014_Node000020" class="edge">
<title>Node14&#45;&gt;Node20</title>
<g id="a_edge23_Node000014_Node000020"><a xlink:title=" ">
<path fill="none" stroke="#63b8ff" d="M1142.17,-120.95C1153.67,-117.96 1166.37,-114.63 1178,-111.5 1194.04,-107.19 1197.97,-105.82 1214,-101.5 1221.23,-99.55 1228.9,-97.52 1236.39,-95.55"/>
<polygon fill="#63b8ff" stroke="#63b8ff" points="1237.3,-98.93 1246.09,-93.01 1235.53,-92.16 1237.3,-98.93"/>
</a>
</g>
</g>
<!-- Node21 -->
<g id="Node000021" class="node">
<title>Node21</title>
<g id="a_Node000021"><a xlink:href="../../d9/dfa/Init_8cpp.html#a374cb6f303f72b5af970063ff1318f24" target="_top" xlink:title="Create the left wall and register it.">
<polygon fill="white" stroke="#666666" points="1328,-56 1240,-56 1240,-37 1328,-37 1328,-56"/>
<text text-anchor="middle" x="1284" y="-44" font-family="Helvetica,sans-Serif" font-size="10.00">SpawnLeftWall</text>
</a>
</g>
</g>
<!-- Node14&#45;&gt;Node21 -->
<g id="edge24_Node000014_Node000021" class="edge">
<title>Node14&#45;&gt;Node21</title>
<g id="a_edge24_Node000014_Node000021"><a xlink:title=" ">
<path fill="none" stroke="#63b8ff" d="M1158.62,-120.98C1165.45,-118.52 1172.11,-115.41 1178,-111.5 1199.92,-96.95 1192.08,-79.06 1214,-64.5 1218.96,-61.21 1224.48,-58.52 1230.19,-56.32"/>
<polygon fill="#63b8ff" stroke="#63b8ff" points="1231.53,-59.56 1239.9,-53.07 1229.3,-52.93 1231.53,-59.56"/>
</a>
</g>
</g>
<!-- Node22 -->
<g id="Node000022" class="node">
<title>Node22</title>
<g id="a_Node000022"><a xlink:href="../../d9/dfa/Init_8cpp.html#aa021dfea28868af5fdc6eb97fdf11395" target="_top" xlink:title="Create the player and register it.">
<polygon fill="white" stroke="#666666" points="1324,-19 1244,-19 1244,0 1324,0 1324,-19"/>
<text text-anchor="middle" x="1284" y="-7" font-family="Helvetica,sans-Serif" font-size="10.00">SpawnPlayer</text>
</a>
</g>
</g>
<!-- Node14&#45;&gt;Node22 -->
<g id="edge26_Node000014_Node000022" class="edge">
<title>Node14&#45;&gt;Node22</title>
<g id="a_edge26_Node000014_Node000022"><a xlink:title=" ">
<path fill="none" stroke="#63b8ff" d="M1162.92,-120.89C1168.38,-118.42 1173.53,-115.34 1178,-111.5 1208.8,-85.02 1183.21,-53.99 1214,-27.5 1219.74,-22.56 1226.68,-18.95 1233.92,-16.32"/>
<polygon fill="#63b8ff" stroke="#63b8ff" points="1235.32,-19.55 1243.88,-13.31 1233.3,-12.85 1235.32,-19.55"/>
</a>
</g>
</g>
<!-- Node23 -->
<g id="Node000023" class="node">
<title>Node23</title>
<g id="a_Node000023"><a xlink:href="../../d9/dfa/Init_8cpp.html#a0e2d0321a787eb9a3b705489c8f2b86b" target="_top" xlink:title="Create the right wall and register it.">
<polygon fill="white" stroke="#666666" points="1331.5,-241 1236.5,-241 1236.5,-222 1331.5,-222 1331.5,-241"/>
<text text-anchor="middle" x="1284" y="-229" font-family="Helvetica,sans-Serif" font-size="10.00">SpawnRightWall</text>
</a>
</g>
</g>
<!-- Node14&#45;&gt;Node23 -->
<g id="edge28_Node000014_Node000023" class="edge">
<title>Node14&#45;&gt;Node23</title>
<g id="a_edge28_Node000014_Node000023"><a xlink:title=" ">
<path fill="none" stroke="#63b8ff" d="M1163.26,-140.06C1168.52,-142.31 1173.54,-145.09 1178,-148.5 1204.22,-168.57 1187.91,-193.25 1214,-213.5 1217.89,-216.52 1222.24,-219.04 1226.81,-221.13"/>
<polygon fill="#63b8ff" stroke="#63b8ff" points="1225.83,-224.51 1236.42,-224.87 1228.37,-217.98 1225.83,-224.51"/>
</a>
</g>
</g>
<!-- Node15&#45;&gt;Node11 -->
<g id="edge15_Node000015_Node000011" class="edge">
<title>Node15&#45;&gt;Node11</title>
<g id="a_edge15_Node000015_Node000011"><a xlink:title=" ">
<path fill="none" stroke="#63b8ff" d="M1338.82,-188.56C1351.83,-187.12 1365.9,-185.57 1379.48,-184.07"/>
<polygon fill="#63b8ff" stroke="#63b8ff" points="1380.19,-187.51 1389.74,-182.93 1379.42,-180.55 1380.19,-187.51"/>
</a>
</g>
</g>
<!-- Node16&#45;&gt;Node11 -->
<g id="edge18_Node000016_Node000011" class="edge">
<title>Node16&#45;&gt;Node11</title>
<g id="a_edge18_Node000016_Node000011"><a xlink:title=" ">
<path fill="none" stroke="#63b8ff" d="M1332.34,-258.93C1339.78,-256.64 1347.24,-253.86 1354,-250.5 1384,-235.6 1413.51,-210.1 1431.24,-193.27"/>
<polygon fill="#63b8ff" stroke="#63b8ff" points="1433.77,-195.69 1438.52,-186.22 1428.9,-190.66 1433.77,-195.69"/>
</a>
</g>
</g>
<!-- Node17 -->
<g id="Node000017" class="node">
<title>Node17</title>
<g id="a_Node000017"><a xlink:href="../../d1/da9/AssetLoading_8cpp.html#a07739f40c13743b2dfceefb659d6d455" target="_top" xlink:title="Return the correct asset path for the asset depending on the current environment.">
<polygon fill="white" stroke="#666666" points="1490,-278 1408,-278 1408,-259 1490,-259 1490,-278"/>
<text text-anchor="middle" x="1449" y="-266" font-family="Helvetica,sans-Serif" font-size="10.00">GetAssetPath</text>
</a>
</g>
</g>
<!-- Node16&#45;&gt;Node17 -->
<g id="edge17_Node000016_Node000017" class="edge">
<title>Node16&#45;&gt;Node17</title>
<g id="a_edge17_Node000016_Node000017"><a xlink:title=" ">
<path fill="none" stroke="#63b8ff" d="M1348.95,-268.5C1365.04,-268.5 1382.09,-268.5 1397.42,-268.5"/>
<polygon fill="#63b8ff" stroke="#63b8ff" points="1397.73,-272 1407.73,-268.5 1397.73,-265 1397.73,-272"/>
</a>
</g>
</g>
<!-- Node18&#45;&gt;Node11 -->
<g id="edge20_Node000018_Node000011" class="edge">
<title>Node18&#45;&gt;Node11</title>
<g id="a_edge20_Node000018_Node000011"><a xlink:title=" ">
<path fill="none" stroke="#63b8ff" d="M1321.17,-161.72C1338.43,-163.73 1359.65,-166.2 1379.76,-168.55"/>
<polygon fill="#63b8ff" stroke="#63b8ff" points="1379.5,-172.04 1389.84,-169.72 1380.31,-165.09 1379.5,-172.04"/>
</a>
</g>
</g>
<!-- Node19&#45;&gt;Node11 -->
<g id="edge22_Node000019_Node000011" class="edge">
<title>Node19&#45;&gt;Node11</title>
<g id="a_edge22_Node000019_Node000011"><a xlink:title=" ">
<path fill="none" stroke="#63b8ff" d="M1325.03,-130.01C1334.59,-132.54 1344.72,-135.43 1354,-138.5 1375.53,-145.63 1399.2,-155.21 1417.4,-162.96"/>
<polygon fill="#63b8ff" stroke="#63b8ff" points="1416.07,-166.2 1426.64,-166.94 1418.84,-159.77 1416.07,-166.2"/>
</a>
</g>
</g>
<!-- Node21&#45;&gt;Node11 -->
<g id="edge25_Node000021_Node000011" class="edge">
<title>Node21&#45;&gt;Node11</title>
<g id="a_edge25_Node000021_Node000011"><a xlink:title=" ">
<path fill="none" stroke="#63b8ff" d="M1328.3,-53.43C1337.22,-56.03 1346.26,-59.6 1354,-64.5 1392.07,-88.57 1422.53,-133.09 1437.63,-158.14"/>
<polygon fill="#63b8ff" stroke="#63b8ff" points="1434.75,-160.13 1442.82,-166.99 1440.79,-156.59 1434.75,-160.13"/>
</a>
</g>
</g>
<!-- Node22&#45;&gt;Node11 -->
<g id="edge27_Node000022_Node000011" class="edge">
<title>Node22&#45;&gt;Node11</title>
<g id="a_edge27_Node000022_Node000011"><a xlink:title=" ">
<path fill="none" stroke="#63b8ff" d="M1324.14,-14.36C1334.55,-17.02 1345.31,-21.14 1354,-27.5 1400.13,-61.25 1429,-125.12 1441.23,-157.16"/>
<polygon fill="#63b8ff" stroke="#63b8ff" points="1438.01,-158.53 1444.74,-166.71 1444.58,-156.12 1438.01,-158.53"/>
</a>
</g>
</g>
<!-- Node23&#45;&gt;Node11 -->
<g id="edge29_Node000023_Node000011" class="edge">
<title>Node23&#45;&gt;Node11</title>
<g id="a_edge29_Node000023_Node000011"><a xlink:title=" ">
<path fill="none" stroke="#63b8ff" d="M1325.01,-221.93C1334.57,-219.41 1344.7,-216.53 1354,-213.5 1375.1,-206.62 1398.32,-197.5 1416.39,-190.04"/>
<polygon fill="#63b8ff" stroke="#63b8ff" points="1417.98,-193.17 1425.86,-186.08 1415.29,-186.71 1417.98,-193.17"/>
</a>
</g>
</g>
<!-- Node27 -->
<g id="Node000027" class="node">
<title>Node27</title>
<g id="a_Node000027"><a xlink:href="../../d2/d3b/KeyboardHandling_8cpp.html#a2b6d8aae8fe15780544c6ada95a93033" target="_top" xlink:title="Handle a keyboard event.">
<polygon fill="white" stroke="#666666" points="484,-202 359,-202 359,-183 484,-183 484,-202"/>
<text text-anchor="middle" x="421.5" y="-190" font-family="Helvetica,sans-Serif" font-size="10.00">HandleKeyboardEvent</text>
</a>
</g>
</g>
<!-- Node26&#45;&gt;Node27 -->
<g id="edge33_Node000026_Node000027" class="edge">
<title>Node26&#45;&gt;Node27</title>
<g id="a_edge33_Node000026_Node000027"><a xlink:title=" ">
<path fill="none" stroke="#63b8ff" d="M311.39,-192.5C322.87,-192.5 335.83,-192.5 348.7,-192.5"/>
<polygon fill="#63b8ff" stroke="#63b8ff" points="348.97,-196 358.97,-192.5 348.97,-189 348.97,-196"/>
</a>
</g>
</g>
<!-- Node28 -->
<g id="Node000028" class="node">
<title>Node28</title>
<g id="a_Node000028"><a xlink:href="../../de/d47/classKeyboardHandlerBehavior.html#aedfbd0872b0f5331ffece766aaa7b3c2" target="_top" xlink:title="Called when a key is pressed (or held) down.">
<polygon fill="white" stroke="#666666" points="664,-207.5 520,-207.5 520,-177.5 664,-177.5 664,-207.5"/>
<text text-anchor="start" x="528" y="-195.5" font-family="Helvetica,sans-Serif" font-size="10.00">KeyboardHandlerBehavior</text>
<text text-anchor="middle" x="592" y="-184.5" font-family="Helvetica,sans-Serif" font-size="10.00">::OnKeyDown</text>
</a>
</g>
</g>
<!-- Node27&#45;&gt;Node28 -->
<g id="edge34_Node000027_Node000028" class="edge">
<title>Node27&#45;&gt;Node28</title>
<g id="a_edge34_Node000027_Node000028"><a xlink:title=" ">
<path fill="none" stroke="#63b8ff" d="M484.29,-192.5C492.59,-192.5 501.21,-192.5 509.78,-192.5"/>
<polygon fill="#63b8ff" stroke="#63b8ff" points="509.81,-196 519.81,-192.5 509.81,-189 509.81,-196"/>
</a>
</g>
</g>
<!-- Node29 -->
<g id="Node000029" class="node">
<title>Node29</title>
<g id="a_Node000029"><a xlink:href="../../de/d47/classKeyboardHandlerBehavior.html#a2ffe164cb50551f0d20b40753b0d193d" target="_top" xlink:title="Called when a key is released.">
<polygon fill="white" stroke="#666666" points="664,-159.5 520,-159.5 520,-129.5 664,-129.5 664,-159.5"/>
<text text-anchor="start" x="528" y="-147.5" font-family="Helvetica,sans-Serif" font-size="10.00">KeyboardHandlerBehavior</text>
<text text-anchor="middle" x="592" y="-136.5" font-family="Helvetica,sans-Serif" font-size="10.00">::OnKeyUp</text>
</a>
</g>
</g>
<!-- Node27&#45;&gt;Node29 -->
<g id="edge35_Node000027_Node000029" class="edge">
<title>Node27&#45;&gt;Node29</title>
<g id="a_edge35_Node000027_Node000029"><a xlink:title=" ">
<path fill="none" stroke="#63b8ff" d="M456.19,-182.9C476.79,-177.03 503.78,-169.35 528.2,-162.39"/>
<polygon fill="#63b8ff" stroke="#63b8ff" points="529.46,-165.67 538.12,-159.56 527.55,-158.94 529.46,-165.67"/>
</a>
</g>
</g>
<!-- Node30 -->
<g id="Node000030" class="node">
<title>Node30</title>
<g id="a_Node000030"><a xlink:href="../../d9/df7/classGameObjectComponent.html#ade2db51ea6caeaa80b1a80395ffbb779" target="_top" xlink:title=" ">
<polygon fill="white" stroke="#666666" points="659,-255.5 525,-255.5 525,-225.5 659,-225.5 659,-255.5"/>
<text text-anchor="start" x="533" y="-243.5" font-family="Helvetica,sans-Serif" font-size="10.00">GameObjectComponent</text>
<text text-anchor="middle" x="592" y="-232.5" font-family="Helvetica,sans-Serif" font-size="10.00">::OnTick</text>
</a>
</g>
</g>
<!-- Node27&#45;&gt;Node30 -->
<g id="edge36_Node000027_Node000030" class="edge">
<title>Node27&#45;&gt;Node30</title>
<g id="a_edge36_Node000027_Node000030"><a xlink:title=" ">
<path fill="none" stroke="#63b8ff" d="M456.19,-202.1C476.79,-207.97 503.78,-215.65 528.2,-222.61"/>
<polygon fill="#63b8ff" stroke="#63b8ff" points="527.55,-226.06 538.12,-225.44 529.46,-219.33 527.55,-226.06"/>
</a>
</g>
</g>
<!-- Node32&#45;&gt;Node14 -->
<g id="edge40_Node000032_Node000014" class="edge">
<title>Node32&#45;&gt;Node14</title>
<g id="a_edge40_Node000032_Node000014"><a xlink:title=" ">
<path fill="none" stroke="#63b8ff" d="M980.18,-120.88C993.14,-121.9 1007.79,-123.04 1022.35,-124.18"/>
<polygon fill="#63b8ff" stroke="#63b8ff" points="1022.15,-127.68 1032.39,-124.97 1022.69,-120.7 1022.15,-127.68"/>
</a>
</g>
</g>
<!-- Node32&#45;&gt;Node24 -->
<g id="edge41_Node000032_Node000024" class="edge">
<title>Node32&#45;&gt;Node24</title>
<g id="a_edge41_Node000032_Node000024"><a xlink:title=" ">
<path fill="none" stroke="#63b8ff" d="M964.11,-127.07C982.58,-133.46 1007.65,-141.87 1030,-148.5 1037.86,-150.83 1046.23,-153.15 1054.4,-155.34"/>
<polygon fill="#63b8ff" stroke="#63b8ff" points="1053.66,-158.76 1064.22,-157.92 1055.44,-151.99 1053.66,-158.76"/>
</a>
</g>
</g>
<!-- Node33 -->
<g id="Node000033" class="node">
<title>Node33</title>
<g id="a_Node000033"><a xlink:href="../../d9/dfa/Init_8cpp.html#a8341384b2aebeb359aded0078e40d3e3" target="_top" xlink:title="Create the game manager object and register it.">
<polygon fill="white" stroke="#666666" points="1164.5,-103 1043.5,-103 1043.5,-84 1164.5,-84 1164.5,-103"/>
<text text-anchor="middle" x="1104" y="-91" font-family="Helvetica,sans-Serif" font-size="10.00">CreateGameManager</text>
</a>
</g>
</g>
<!-- Node32&#45;&gt;Node33 -->
<g id="edge39_Node000032_Node000033" class="edge">
<title>Node32&#45;&gt;Node33</title>
<g id="a_edge39_Node000032_Node000033"><a xlink:title=" ">
<path fill="none" stroke="#63b8ff" d="M980.18,-111.26C996.47,-108.9 1015.45,-106.16 1033.54,-103.54"/>
<polygon fill="#63b8ff" stroke="#63b8ff" points="1034.08,-107 1043.48,-102.11 1033.08,-100.07 1034.08,-107"/>
</a>
</g>
</g>
</g>
</svg>
