<?xml version="1.0" encoding="UTF-8" standalone="no"?>
<!DOCTYPE svg PUBLIC "-//W3C//DTD SVG 1.1//EN"
 "http://www.w3.org/Graphics/SVG/1.1/DTD/svg11.dtd">
<!-- Generated by graphviz version 2.43.0 (0)
 -->
<!-- Title: main Pages: 1 -->
<!--zoomable 362 -->

<svg id="main" version="1.1" xmlns="http://www.w3.org/2000/svg" xmlns:xlink="http://www.w3.org/1999/xlink" xml:space="preserve" onload="init(evt)">

<style type="text/css"><![CDATA[
.node, .edge {opacity: 0.7;}
.node.selected, .edge.selected {opacity: 1;}
.edge:hover path { stroke: red; }
.edge:hover polygon { stroke: red; fill: red; }
]]></style>

<defs>
  <circle id="rim" cx="0" cy="0" r="7"/>
  <circle id="rim2" cx="0" cy="0" r="3.5"/>
  <g id="zoomPlus">
    <use xlink:href="#rim" fill="#404040"><set attributeName="fill" to="#808080" begin="zoomplus.mouseover" end="zoomplus.mouseout"/></use>
    <path d="M-4,0h8M0,-4v8" fill="none" stroke="white" stroke-width="1.5" pointer-events="none"/>
  </g>
  <g id="zoomMin">
    <use xlink:href="#rim" fill="#404040"><set attributeName="fill" to="#808080" begin="zoomminus.mouseover" end="zoomminus.mouseout"/></use>
    <path d="M-4,0h8" fill="none" stroke="white" stroke-width="1.5" pointer-events="none"/>
  </g>
  <g id="arrowUp" transform="translate(30 24)">
    <use xlink:href="#rim"/>
    <path pointer-events="none" fill="none" stroke="white" stroke-width="1.5" d="M0,-3.0v7 M-2.5,-0.5L0,-3.0L2.5,-0.5"/>
  </g>
  <g id="arrowRight" transform="rotate(90) translate(36 -43)">
    <use xlink:href="#rim"/>
    <path pointer-events="none" fill="none" stroke="white" stroke-width="1.5" d="M0,-3.0v7 M-2.5,-0.5L0,-3.0L2.5,-0.5"/>
  </g>
  <g id="arrowDown" transform="rotate(180) translate(-30 -48)">
    <use xlink:href="#rim"/>
    <path pointer-events="none" fill="none" stroke="white" stroke-width="1.5" d="M0,-3.0v7 M-2.5,-0.5L0,-3.0L2.5,-0.5"/>
  </g>
  <g id="arrowLeft" transform="rotate(270) translate(-36 17)">
    <use xlink:href="#rim"/>
    <path pointer-events="none" fill="none" stroke="white" stroke-width="1.5" d="M0,-3.0v7 M-2.5,-0.5L0,-3.0L2.5,-0.5"/>
  </g>
  <g id="resetDef">
    <use xlink:href="#rim2" fill="#404040"><set attributeName="fill" to="#808080" begin="reset.mouseover" end="reset.mouseout"/></use>
  </g>
</defs>
<script type="application/ecmascript">
var viewWidth = 1477;
var viewHeight = 362;
var sectionId = 'dynsection-5';
</script>
<script type="application/ecmascript" xlink:href="../../svg.min.js"/>
<svg id="graph" class="graph">
<g id="viewport">
<title>main</title>
<!-- Node1 -->
<g id="Node000001" class="node">
<title>Node1</title>
<g id="a_Node000001"><a xlink:title="Entry point of the program.">
<polygon fill="#999999" stroke="#666666" points="41,-138 0,-138 0,-119 41,-119 41,-138"/>
<text text-anchor="middle" x="20.5" y="-126" font-family="Helvetica,sans-Serif" font-size="10.00">main</text>
</a>
</g>
</g>
<!-- Node2 -->
<g id="Node000002" class="node">
<title>Node2</title>
<g id="a_Node000002"><a xlink:href="../../df/d0a/main_8cpp.html#abfbee20b241e7d5bbbef9ab36fb201a4" target="_top" xlink:title="The main game loop, runs until an exit event is sensed, and QuitGame is set to true.">
<polygon fill="white" stroke="#666666" points="145,-183 77,-183 77,-164 145,-164 145,-183"/>
<text text-anchor="middle" x="111" y="-171" font-family="Helvetica,sans-Serif" font-size="10.00">gameLoop</text>
</a>
</g>
</g>
<!-- Node1&#45;&gt;Node2 -->
<g id="edge1_Node000001_Node000002" class="edge">
<title>Node1&#45;&gt;Node2</title>
<g id="a_edge1_Node000001_Node000002"><a xlink:title=" ">
<path fill="none" stroke="#63b8ff" d="M40.27,-138.04C52.47,-144.25 68.6,-152.45 82.27,-159.4"/>
<polygon fill="#63b8ff" stroke="#63b8ff" points="80.76,-162.56 91.26,-163.97 83.93,-156.32 80.76,-162.56"/>
</a>
</g>
</g>
<!-- Node31 -->
<g id="Node000031" class="node">
<title>Node31</title>
<g id="a_Node000031"><a xlink:href="../../d1/d99/Lifecycle_8cpp.html#af0000b43ed614b94179e358d523c9245" target="_top" xlink:title="Initialize the game to the default state.">
<polygon fill="white" stroke="#666666" points="941,-127 853,-127 853,-108 941,-108 941,-127"/>
<text text-anchor="middle" x="897" y="-115" font-family="Helvetica,sans-Serif" font-size="10.00">InitializeGame</text>
</a>
</g>
</g>
<!-- Node1&#45;&gt;Node31 -->
<g id="edge37_Node000001_Node000031" class="edge">
<title>Node1&#45;&gt;Node31</title>
<g id="a_edge37_Node000001_Node000031"><a xlink:title=" ">
<path fill="none" stroke="#63b8ff" d="M41.08,-124.28C78.09,-116.69 160.92,-101.5 231.5,-101.5 231.5,-101.5 231.5,-101.5 554,-101.5 656.12,-101.5 775.21,-108.71 842.5,-113.45"/>
<polygon fill="#63b8ff" stroke="#63b8ff" points="842.62,-116.96 852.84,-114.18 843.11,-109.98 842.62,-116.96"/>
</a>
</g>
</g>
<!-- Node3 -->
<g id="Node000003" class="node">
<title>Node3</title>
<g id="a_Node000003"><a xlink:href="../../df/d0a/main_8cpp.html#ae8fa368bbea5177612cd2cf333448c66" target="_top" xlink:title="Executed every frame.">
<polygon fill="white" stroke="#666666" points="255.5,-266 209.5,-266 209.5,-247 255.5,-247 255.5,-266"/>
<text text-anchor="middle" x="232.5" y="-254" font-family="Helvetica,sans-Serif" font-size="10.00">frame</text>
</a>
</g>
</g>
<!-- Node2&#45;&gt;Node3 -->
<g id="edge2_Node000002_Node000003" class="edge">
<title>Node2&#45;&gt;Node3</title>
<g id="a_edge2_Node000002_Node000003"><a xlink:title=" ">
<path fill="none" stroke="#63b8ff" d="M125.71,-183.02C146.13,-197.2 184.76,-224.03 209.26,-241.05"/>
<polygon fill="#63b8ff" stroke="#63b8ff" points="207.37,-244 217.58,-246.83 211.37,-238.25 207.37,-244"/>
</a>
</g>
</g>
<!-- Node25 -->
<g id="Node000025" class="node">
<title>Node25</title>
<g id="a_Node000025"><a xlink:href="../../de/db0/Events_8cpp.html#a26867d84edb0f52a75127cf66c64c9a9" target="_top" xlink:title="Handles an event that has occoured.">
<polygon fill="white" stroke="#666666" points="272,-202 193,-202 193,-183 272,-183 272,-202"/>
<text text-anchor="middle" x="232.5" y="-190" font-family="Helvetica,sans-Serif" font-size="10.00">HandleEvent</text>
</a>
</g>
</g>
<!-- Node2&#45;&gt;Node25 -->
<g id="edge31_Node000002_Node000025" class="edge">
<title>Node2&#45;&gt;Node25</title>
<g id="a_edge31_Node000002_Node000025"><a xlink:title=" ">
<path fill="none" stroke="#63b8ff" d="M145.29,-178.79C156.95,-180.65 170.3,-182.77 182.95,-184.78"/>
<polygon fill="#63b8ff" stroke="#63b8ff" points="182.47,-188.25 192.9,-186.36 183.57,-181.34 182.47,-188.25"/>
</a>
</g>
</g>
<!-- Node30 -->
<g id="Node000030" class="node">
<title>Node30</title>
<g id="a_Node000030"><a xlink:href="../../d8/d38/Time_8cpp.html#a150f12b48e13e1c14a4e7646137c74a4" target="_top" xlink:title="Update the stored deltatime. Should be executed each frame.">
<polygon fill="white" stroke="#666666" points="284,-165 181,-165 181,-146 284,-146 284,-165"/>
<text text-anchor="middle" x="232.5" y="-153" font-family="Helvetica,sans-Serif" font-size="10.00">UpdateDeltaTime</text>
</a>
</g>
</g>
<!-- Node2&#45;&gt;Node30 -->
<g id="edge36_Node000002_Node000030" class="edge">
<title>Node2&#45;&gt;Node30</title>
<g id="a_edge36_Node000002_Node000030"><a xlink:title=" ">
<path fill="none" stroke="#63b8ff" d="M145.29,-168.49C153.32,-167.28 162.14,-165.95 170.99,-164.61"/>
<polygon fill="#63b8ff" stroke="#63b8ff" points="171.58,-168.06 180.95,-163.11 170.54,-161.14 171.58,-168.06"/>
</a>
</g>
</g>
<!-- Node4 -->
<g id="Node000004" class="node">
<title>Node4</title>
<g id="a_Node000004"><a xlink:href="../../de/dfd/GameManagement_8cpp.html#a522912d67446895b0a03d01837b75a99" target="_top" xlink:title="Iterate over all objects, and update the appropriately, using OnTick() or Component specific methods.">
<polygon fill="white" stroke="#666666" points="427,-293 338,-293 338,-274 427,-274 427,-293"/>
<text text-anchor="middle" x="382.5" y="-281" font-family="Helvetica,sans-Serif" font-size="10.00">UpdateObjects</text>
</a>
</g>
</g>
<!-- Node3&#45;&gt;Node4 -->
<g id="edge3_Node000003_Node000004" class="edge">
<title>Node3&#45;&gt;Node4</title>
<g id="a_edge3_Node000003_Node000004"><a xlink:title=" ">
<path fill="none" stroke="#63b8ff" d="M255.66,-260.54C274.65,-264.01 302.8,-269.14 327.67,-273.68"/>
<polygon fill="#63b8ff" stroke="#63b8ff" points="327.26,-277.16 337.72,-275.51 328.51,-270.28 327.26,-277.16"/>
</a>
</g>
</g>
<!-- Node5 -->
<g id="Node000005" class="node">
<title>Node5</title>
<g id="a_Node000005"><a xlink:href="../../de/dfd/GameManagement_8cpp.html#abb664488d26ac602b11cc22de7243458" target="_top" xlink:title=" ">
<polygon fill="white" stroke="#666666" points="624.5,-293 481.5,-293 481.5,-274 624.5,-274 624.5,-293"/>
<text text-anchor="middle" x="553" y="-281" font-family="Helvetica,sans-Serif" font-size="10.00">HandleComponentUpdate</text>
</a>
</g>
</g>
<!-- Node4&#45;&gt;Node5 -->
<g id="edge4_Node000004_Node000005" class="edge">
<title>Node4&#45;&gt;Node5</title>
<g id="a_edge4_Node000004_Node000005"><a xlink:title=" ">
<path fill="none" stroke="#63b8ff" d="M427.33,-283.5C440.72,-283.5 455.9,-283.5 470.93,-283.5"/>
<polygon fill="#63b8ff" stroke="#63b8ff" points="471.3,-287 481.3,-283.5 471.3,-280 471.3,-287"/>
</a>
</g>
</g>
<!-- Node6 -->
<g id="Node000006" class="node">
<title>Node6</title>
<g id="a_Node000006"><a xlink:href="../../de/dfd/GameManagement_8cpp.html#a95ff1ee6a57e678376b2eae2ef499ab3" target="_top" xlink:title=" ">
<polygon fill="white" stroke="#666666" points="624.5,-330 481.5,-330 481.5,-311 624.5,-311 624.5,-330"/>
<text text-anchor="middle" x="553" y="-318" font-family="Helvetica,sans-Serif" font-size="10.00">WorkThroughFrameQueue</text>
</a>
</g>
</g>
<!-- Node4&#45;&gt;Node6 -->
<g id="edge5_Node000004_Node000006" class="edge">
<title>Node4&#45;&gt;Node6</title>
<g id="a_edge5_Node000004_Node000006"><a xlink:title=" ">
<path fill="none" stroke="#63b8ff" d="M426.89,-293.03C448.72,-297.82 475.38,-303.68 498.47,-308.75"/>
<polygon fill="#63b8ff" stroke="#63b8ff" points="497.94,-312.21 508.46,-310.94 499.44,-305.38 497.94,-312.21"/>
</a>
</g>
</g>
<!-- Node7 -->
<g id="Node000007" class="node">
<title>Node7</title>
<g id="a_Node000007"><a xlink:href="../../de/dfd/GameManagement_8cpp.html#ad487b4c14d5f4bf65d056f5c90ac4d72" target="_top" xlink:title=" ">
<polygon fill="white" stroke="#666666" points="802,-353 662,-353 662,-334 802,-334 802,-353"/>
<text text-anchor="middle" x="732" y="-341" font-family="Helvetica,sans-Serif" font-size="10.00">DestroyEnqueuedObjects</text>
</a>
</g>
</g>
<!-- Node6&#45;&gt;Node7 -->
<g id="edge6_Node000006_Node000007" class="edge">
<title>Node6&#45;&gt;Node7</title>
<g id="a_edge6_Node000006_Node000007"><a xlink:title=" ">
<path fill="none" stroke="#63b8ff" d="M624.72,-329.69C633.6,-330.84 642.74,-332.03 651.74,-333.2"/>
<polygon fill="#63b8ff" stroke="#63b8ff" points="651.47,-336.69 661.84,-334.51 652.37,-329.75 651.47,-336.69"/>
</a>
</g>
</g>
<!-- Node9 -->
<g id="Node000009" class="node">
<title>Node9</title>
<g id="a_Node000009"><a xlink:href="../../de/dfd/GameManagement_8cpp.html#a25053f13bc5fe6ea1caf5f343cbb30b8" target="_top" xlink:title=" ">
<polygon fill="white" stroke="#666666" points="803,-316 661,-316 661,-297 803,-297 803,-316"/>
<text text-anchor="middle" x="732" y="-304" font-family="Helvetica,sans-Serif" font-size="10.00">RegisterEnqueuedObjects</text>
</a>
</g>
</g>
<!-- Node6&#45;&gt;Node9 -->
<g id="edge8_Node000006_Node000009" class="edge">
<title>Node6&#45;&gt;Node9</title>
<g id="a_edge8_Node000006_Node000009"><a xlink:title=" ">
<path fill="none" stroke="#63b8ff" d="M624.72,-314.91C633.3,-314.23 642.11,-313.53 650.82,-312.84"/>
<polygon fill="#63b8ff" stroke="#63b8ff" points="651.28,-316.32 660.97,-312.04 650.73,-309.34 651.28,-316.32"/>
</a>
</g>
</g>
<!-- Node11 -->
<g id="Node000011" class="node">
<title>Node11</title>
<g id="a_Node000011"><a xlink:href="../../de/dfd/GameManagement_8cpp.html#a2877bc3a946eb46940e5cdedcaf4e3f6" target="_top" xlink:title=" ">
<polygon fill="white" stroke="#666666" points="794,-223 670,-223 670,-204 794,-204 794,-223"/>
<text text-anchor="middle" x="732" y="-211" font-family="Helvetica,sans-Serif" font-size="10.00">ResetGameIfRequired</text>
</a>
</g>
</g>
<!-- Node6&#45;&gt;Node11 -->
<g id="edge10_Node000006_Node000011" class="edge">
<title>Node6&#45;&gt;Node11</title>
<g id="a_edge10_Node000006_Node000011"><a xlink:title=" ">
<path fill="none" stroke="#63b8ff" d="M603.94,-310.89C611.2,-308.63 618.44,-305.86 625,-302.5 661.28,-283.92 696.02,-250.89 715.33,-230.71"/>
<polygon fill="#63b8ff" stroke="#63b8ff" points="718.11,-232.86 722.4,-223.18 713.01,-228.08 718.11,-232.86"/>
</a>
</g>
</g>
<!-- Node8 -->
<g id="Node000008" class="node">
<title>Node8</title>
<g id="a_Node000008"><a xlink:href="../../de/dfd/GameManagement_8cpp.html#abc0ac24a5725e21af2dcc9eb0d0c40ae" target="_top" xlink:title="Immediately destroy a GameObject.">
<polygon fill="white" stroke="#666666" points="955,-354 839,-354 839,-335 955,-335 955,-354"/>
<text text-anchor="middle" x="897" y="-342" font-family="Helvetica,sans-Serif" font-size="10.00">DestroyGameObject</text>
</a>
</g>
</g>
<!-- Node7&#45;&gt;Node8 -->
<g id="edge7_Node000007_Node000008" class="edge">
<title>Node7&#45;&gt;Node8</title>
<g id="a_edge7_Node000007_Node000008"><a xlink:title=" ">
<path fill="none" stroke="#63b8ff" d="M802.13,-343.92C810.92,-343.98 819.91,-344.03 828.67,-344.09"/>
<polygon fill="#63b8ff" stroke="#63b8ff" points="828.81,-347.59 838.83,-344.15 828.86,-340.59 828.81,-347.59"/>
</a>
</g>
</g>
<!-- Node10 -->
<g id="Node000010" class="node">
<title>Node10</title>
<g id="a_Node000010"><a xlink:href="../../de/dfd/GameManagement_8cpp.html#a40f7d4339a01b155a82745c5bd8ead6a" target="_top" xlink:title="Directly register a gameobject. Will push the object into the GameObjects vector.">
<polygon fill="white" stroke="#666666" points="1469,-186 1351,-186 1351,-167 1469,-167 1469,-186"/>
<text text-anchor="middle" x="1410" y="-174" font-family="Helvetica,sans-Serif" font-size="10.00">RegisterGameObject</text>
</a>
</g>
</g>
<!-- Node9&#45;&gt;Node10 -->
<g id="edge9_Node000009_Node000010" class="edge">
<title>Node9&#45;&gt;Node10</title>
<g id="a_edge9_Node000009_Node000010"><a xlink:title=" ">
<path fill="none" stroke="#63b8ff" d="M803.08,-311.19C937.63,-319.07 1226.66,-330.22 1315,-287.5 1325.76,-282.3 1372.01,-224.09 1395.38,-194.11"/>
<polygon fill="#63b8ff" stroke="#63b8ff" points="1398.2,-196.18 1401.57,-186.14 1392.67,-191.89 1398.2,-196.18"/>
</a>
</g>
</g>
<!-- Node12 -->
<g id="Node000012" class="node">
<title>Node12</title>
<g id="a_Node000012"><a xlink:href="../../d1/d99/Lifecycle_8cpp.html#a7be4f604c1baeb7cac84122a7f2438cf" target="_top" xlink:title="Reset the game to the initial state.">
<polygon fill="white" stroke="#666666" points="934,-195 860,-195 860,-176 934,-176 934,-195"/>
<text text-anchor="middle" x="897" y="-183" font-family="Helvetica,sans-Serif" font-size="10.00">ResetGame</text>
</a>
</g>
</g>
<!-- Node11&#45;&gt;Node12 -->
<g id="edge11_Node000011_Node000012" class="edge">
<title>Node11&#45;&gt;Node12</title>
<g id="a_edge11_Node000011_Node000012"><a xlink:title=" ">
<path fill="none" stroke="#63b8ff" d="M788.64,-203.94C808.5,-200.53 830.64,-196.73 849.63,-193.47"/>
<polygon fill="#63b8ff" stroke="#63b8ff" points="850.27,-196.91 859.54,-191.76 849.09,-190.01 850.27,-196.91"/>
</a>
</g>
</g>
<!-- Node13 -->
<g id="Node000013" class="node">
<title>Node13</title>
<g id="a_Node000013"><a xlink:href="../../d9/dfa/Init_8cpp.html#aaa64e8fd06230fa14e507cef71a3217d" target="_top" xlink:title="Create the initial gameobjects required for the game.">
<polygon fill="white" stroke="#666666" points="1136.5,-140 993.5,-140 993.5,-121 1136.5,-121 1136.5,-140"/>
<text text-anchor="middle" x="1065" y="-128" font-family="Helvetica,sans-Serif" font-size="10.00">CreateInitialGameObjects</text>
</a>
</g>
</g>
<!-- Node12&#45;&gt;Node13 -->
<g id="edge12_Node000012_Node000013" class="edge">
<title>Node12&#45;&gt;Node13</title>
<g id="a_edge12_Node000012_Node000013"><a xlink:title=" ">
<path fill="none" stroke="#63b8ff" d="M919.49,-175.97C938.15,-167.94 966.01,-156.51 991,-148.5 997.43,-146.44 1004.24,-144.48 1011.02,-142.65"/>
<polygon fill="#63b8ff" stroke="#63b8ff" points="1012.08,-146 1020.88,-140.09 1010.32,-139.22 1012.08,-146"/>
</a>
</g>
</g>
<!-- Node23 -->
<g id="Node000023" class="node">
<title>Node23</title>
<g id="a_Node000023"><a xlink:href="../../de/dfd/GameManagement_8cpp.html#ae5ee3f705fc506491ca2b0c7cf059c75" target="_top" xlink:title="Initialize all gameobjects and call the OnStart() methods.">
<polygon fill="white" stroke="#666666" points="1106.5,-177 1023.5,-177 1023.5,-158 1106.5,-158 1106.5,-177"/>
<text text-anchor="middle" x="1065" y="-165" font-family="Helvetica,sans-Serif" font-size="10.00">OnGameStart</text>
</a>
</g>
</g>
<!-- Node12&#45;&gt;Node23 -->
<g id="edge29_Node000012_Node000023" class="edge">
<title>Node12&#45;&gt;Node23</title>
<g id="a_edge29_Node000012_Node000023"><a xlink:title=" ">
<path fill="none" stroke="#63b8ff" d="M934.02,-181.59C957.15,-179.09 987.54,-175.79 1013.12,-173.02"/>
<polygon fill="#63b8ff" stroke="#63b8ff" points="1013.82,-176.46 1023.39,-171.9 1013.07,-169.5 1013.82,-176.46"/>
</a>
</g>
</g>
<!-- Node24 -->
<g id="Node000024" class="node">
<title>Node24</title>
<g id="a_Node000024"><a xlink:href="../../d8/d38/Time_8cpp.html#ae55fb718253dda2137a189d792bda7b9" target="_top" xlink:title="Reset the time since the game has started.">
<polygon fill="white" stroke="#666666" points="1139,-214 991,-214 991,-195 1139,-195 1139,-214"/>
<text text-anchor="middle" x="1065" y="-202" font-family="Helvetica,sans-Serif" font-size="10.00">ResetTimeSinceGameStart</text>
</a>
</g>
</g>
<!-- Node12&#45;&gt;Node24 -->
<g id="edge30_Node000012_Node000024" class="edge">
<title>Node12&#45;&gt;Node24</title>
<g id="a_edge30_Node000012_Node000024"><a xlink:title=" ">
<path fill="none" stroke="#63b8ff" d="M934.02,-189.62C947.84,-191.2 964.25,-193.08 980.68,-194.96"/>
<polygon fill="#63b8ff" stroke="#63b8ff" points="980.55,-198.47 990.88,-196.13 981.35,-191.52 980.55,-198.47"/>
</a>
</g>
</g>
<!-- Node14 -->
<g id="Node000014" class="node">
<title>Node14</title>
<g id="a_Node000014"><a xlink:href="../../d9/dfa/Init_8cpp.html#a3ff595c2af791c369e2318510062ce14" target="_top" xlink:title="Create the coffee meter bar.">
<polygon fill="white" stroke="#666666" points="1299.5,-204 1190.5,-204 1190.5,-185 1299.5,-185 1299.5,-204"/>
<text text-anchor="middle" x="1245" y="-192" font-family="Helvetica,sans-Serif" font-size="10.00">CreateCoffeeMeter</text>
</a>
</g>
</g>
<!-- Node13&#45;&gt;Node14 -->
<g id="edge13_Node000013_Node000014" class="edge">
<title>Node13&#45;&gt;Node14</title>
<g id="a_edge13_Node000013_Node000014"><a xlink:title=" ">
<path fill="none" stroke="#63b8ff" d="M1116.4,-140.1C1124.15,-142.37 1131.92,-145.15 1139,-148.5 1157.07,-157.07 1157.04,-166.69 1175,-175.5 1179.69,-177.8 1184.7,-179.86 1189.8,-181.69"/>
<polygon fill="#63b8ff" stroke="#63b8ff" points="1189.06,-185.13 1199.66,-184.94 1191.26,-178.49 1189.06,-185.13"/>
</a>
</g>
</g>
<!-- Node15 -->
<g id="Node000015" class="node">
<title>Node15</title>
<g id="a_Node000015"><a xlink:href="../../d9/dfa/Init_8cpp.html#a1bfb628b6cd503e396bae0796f2051c1" target="_top" xlink:title="Create the icon next to the coffee meter.">
<polygon fill="white" stroke="#666666" points="1309.5,-278 1180.5,-278 1180.5,-259 1309.5,-259 1309.5,-278"/>
<text text-anchor="middle" x="1245" y="-266" font-family="Helvetica,sans-Serif" font-size="10.00">CreateCoffeeMeterIcon</text>
</a>
</g>
</g>
<!-- Node13&#45;&gt;Node15 -->
<g id="edge15_Node000013_Node000015" class="edge">
<title>Node13&#45;&gt;Node15</title>
<g id="a_edge15_Node000013_Node000015"><a xlink:title=" ">
<path fill="none" stroke="#63b8ff" d="M1126.31,-140C1130.91,-142.28 1135.23,-145.08 1139,-148.5 1174.61,-180.8 1139.61,-217.97 1175,-250.5 1176.14,-251.55 1177.33,-252.54 1178.57,-253.47"/>
<polygon fill="#63b8ff" stroke="#63b8ff" points="1176.96,-256.59 1187.31,-258.84 1180.62,-250.62 1176.96,-256.59"/>
</a>
</g>
</g>
<!-- Node17 -->
<g id="Node000017" class="node">
<title>Node17</title>
<g id="a_Node000017"><a xlink:href="../../d9/dfa/Init_8cpp.html#a7577908172d93807ef67f163f851fe5e" target="_top" xlink:title="Create the floor and register it.">
<polygon fill="white" stroke="#666666" points="1282,-167 1208,-167 1208,-148 1282,-148 1282,-167"/>
<text text-anchor="middle" x="1245" y="-155" font-family="Helvetica,sans-Serif" font-size="10.00">CreateFloor</text>
</a>
</g>
</g>
<!-- Node13&#45;&gt;Node17 -->
<g id="edge18_Node000013_Node000017" class="edge">
<title>Node13&#45;&gt;Node17</title>
<g id="a_edge18_Node000013_Node000017"><a xlink:title=" ">
<path fill="none" stroke="#63b8ff" d="M1128.76,-140.02C1151.55,-143.48 1176.87,-147.32 1197.95,-150.52"/>
<polygon fill="#63b8ff" stroke="#63b8ff" points="1197.52,-153.99 1207.93,-152.03 1198.57,-147.07 1197.52,-153.99"/>
</a>
</g>
</g>
<!-- Node18 -->
<g id="Node000018" class="node">
<title>Node18</title>
<g id="a_Node000018"><a xlink:href="../../d9/dfa/Init_8cpp.html#a8ad8206fa2846739c5e76ce97b6b2783" target="_top" xlink:title="Create the score counter and register it.">
<polygon fill="white" stroke="#666666" points="1302,-130 1188,-130 1188,-111 1302,-111 1302,-130"/>
<text text-anchor="middle" x="1245" y="-118" font-family="Helvetica,sans-Serif" font-size="10.00">CreateScoreCounter</text>
</a>
</g>
</g>
<!-- Node13&#45;&gt;Node18 -->
<g id="edge20_Node000013_Node000018" class="edge">
<title>Node13&#45;&gt;Node18</title>
<g id="a_edge20_Node000013_Node000018"><a xlink:title=" ">
<path fill="none" stroke="#63b8ff" d="M1136.61,-126.53C1150.14,-125.77 1164.27,-124.98 1177.67,-124.23"/>
<polygon fill="#63b8ff" stroke="#63b8ff" points="1177.96,-127.72 1187.75,-123.66 1177.56,-120.73 1177.96,-127.72"/>
</a>
</g>
</g>
<!-- Node19 -->
<g id="Node000019" class="node">
<title>Node19</title>
<g id="a_Node000019"><a xlink:href="../../d9/dfa/Init_8cpp.html#ac07b948048071cbf70f69aa9d691a93f" target="_top" xlink:title="Set the window background to white.">
<polygon fill="white" stroke="#666666" points="1315,-93 1175,-93 1175,-74 1315,-74 1315,-93"/>
<text text-anchor="middle" x="1245" y="-81" font-family="Helvetica,sans-Serif" font-size="10.00">SetupWindowbackground</text>
</a>
</g>
</g>
<!-- Node13&#45;&gt;Node19 -->
<g id="edge22_Node000013_Node000019" class="edge">
<title>Node13&#45;&gt;Node19</title>
<g id="a_edge22_Node000013_Node000019"><a xlink:title=" ">
<path fill="none" stroke="#63b8ff" d="M1103.17,-120.95C1114.67,-117.96 1127.37,-114.63 1139,-111.5 1155.04,-107.19 1158.97,-105.82 1175,-101.5 1182.23,-99.55 1189.9,-97.52 1197.39,-95.55"/>
<polygon fill="#63b8ff" stroke="#63b8ff" points="1198.3,-98.93 1207.09,-93.01 1196.53,-92.16 1198.3,-98.93"/>
</a>
</g>
</g>
<!-- Node20 -->
<g id="Node000020" class="node">
<title>Node20</title>
<g id="a_Node000020"><a xlink:href="../../d9/dfa/Init_8cpp.html#a374cb6f303f72b5af970063ff1318f24" target="_top" xlink:title="Create the left wall and register it.">
<polygon fill="white" stroke="#666666" points="1289,-56 1201,-56 1201,-37 1289,-37 1289,-56"/>
<text text-anchor="middle" x="1245" y="-44" font-family="Helvetica,sans-Serif" font-size="10.00">SpawnLeftWall</text>
</a>
</g>
</g>
<!-- Node13&#45;&gt;Node20 -->
<g id="edge23_Node000013_Node000020" class="edge">
<title>Node13&#45;&gt;Node20</title>
<g id="a_edge23_Node000013_Node000020"><a xlink:title=" ">
<path fill="none" stroke="#63b8ff" d="M1119.62,-120.98C1126.45,-118.52 1133.11,-115.41 1139,-111.5 1160.92,-96.95 1153.08,-79.06 1175,-64.5 1179.96,-61.21 1185.48,-58.52 1191.19,-56.32"/>
<polygon fill="#63b8ff" stroke="#63b8ff" points="1192.53,-59.56 1200.9,-53.07 1190.3,-52.93 1192.53,-59.56"/>
</a>
</g>
</g>
<!-- Node21 -->
<g id="Node000021" class="node">
<title>Node21</title>
<g id="a_Node000021"><a xlink:href="../../d9/dfa/Init_8cpp.html#aa021dfea28868af5fdc6eb97fdf11395" target="_top" xlink:title="Create the player and register it.">
<polygon fill="white" stroke="#666666" points="1285,-19 1205,-19 1205,0 1285,0 1285,-19"/>
<text text-anchor="middle" x="1245" y="-7" font-family="Helvetica,sans-Serif" font-size="10.00">SpawnPlayer</text>
</a>
</g>
</g>
<!-- Node13&#45;&gt;Node21 -->
<g id="edge25_Node000013_Node000021" class="edge">
<title>Node13&#45;&gt;Node21</title>
<g id="a_edge25_Node000013_Node000021"><a xlink:title=" ">
<path fill="none" stroke="#63b8ff" d="M1123.92,-120.89C1129.38,-118.42 1134.53,-115.34 1139,-111.5 1169.8,-85.02 1144.21,-53.99 1175,-27.5 1180.74,-22.56 1187.68,-18.95 1194.92,-16.32"/>
<polygon fill="#63b8ff" stroke="#63b8ff" points="1196.32,-19.55 1204.88,-13.31 1194.3,-12.85 1196.32,-19.55"/>
</a>
</g>
</g>
<!-- Node22 -->
<g id="Node000022" class="node">
<title>Node22</title>
<g id="a_Node000022"><a xlink:href="../../d9/dfa/Init_8cpp.html#a0e2d0321a787eb9a3b705489c8f2b86b" target="_top" xlink:title="Create the right wall and register it.">
<polygon fill="white" stroke="#666666" points="1292.5,-241 1197.5,-241 1197.5,-222 1292.5,-222 1292.5,-241"/>
<text text-anchor="middle" x="1245" y="-229" font-family="Helvetica,sans-Serif" font-size="10.00">SpawnRightWall</text>
</a>
</g>
</g>
<!-- Node13&#45;&gt;Node22 -->
<g id="edge27_Node000013_Node000022" class="edge">
<title>Node13&#45;&gt;Node22</title>
<g id="a_edge27_Node000013_Node000022"><a xlink:title=" ">
<path fill="none" stroke="#63b8ff" d="M1124.26,-140.06C1129.52,-142.31 1134.54,-145.09 1139,-148.5 1165.22,-168.57 1148.91,-193.25 1175,-213.5 1178.89,-216.52 1183.24,-219.04 1187.81,-221.13"/>
<polygon fill="#63b8ff" stroke="#63b8ff" points="1186.83,-224.51 1197.42,-224.87 1189.37,-217.98 1186.83,-224.51"/>
</a>
</g>
</g>
<!-- Node14&#45;&gt;Node10 -->
<g id="edge14_Node000014_Node000010" class="edge">
<title>Node14&#45;&gt;Node10</title>
<g id="a_edge14_Node000014_Node000010"><a xlink:title=" ">
<path fill="none" stroke="#63b8ff" d="M1299.82,-188.56C1312.83,-187.12 1326.9,-185.57 1340.48,-184.07"/>
<polygon fill="#63b8ff" stroke="#63b8ff" points="1341.19,-187.51 1350.74,-182.93 1340.42,-180.55 1341.19,-187.51"/>
</a>
</g>
</g>
<!-- Node15&#45;&gt;Node10 -->
<g id="edge17_Node000015_Node000010" class="edge">
<title>Node15&#45;&gt;Node10</title>
<g id="a_edge17_Node000015_Node000010"><a xlink:title=" ">
<path fill="none" stroke="#63b8ff" d="M1293.34,-258.93C1300.78,-256.64 1308.24,-253.86 1315,-250.5 1345,-235.6 1374.51,-210.1 1392.24,-193.27"/>
<polygon fill="#63b8ff" stroke="#63b8ff" points="1394.77,-195.69 1399.52,-186.22 1389.9,-190.66 1394.77,-195.69"/>
</a>
</g>
</g>
<!-- Node16 -->
<g id="Node000016" class="node">
<title>Node16</title>
<g id="a_Node000016"><a xlink:href="../../d1/da9/AssetLoading_8cpp.html#a07739f40c13743b2dfceefb659d6d455" target="_top" xlink:title="Return the correct asset path for the asset depending on the current environment.">
<polygon fill="white" stroke="#666666" points="1451,-278 1369,-278 1369,-259 1451,-259 1451,-278"/>
<text text-anchor="middle" x="1410" y="-266" font-family="Helvetica,sans-Serif" font-size="10.00">GetAssetPath</text>
</a>
</g>
</g>
<!-- Node15&#45;&gt;Node16 -->
<g id="edge16_Node000015_Node000016" class="edge">
<title>Node15&#45;&gt;Node16</title>
<g id="a_edge16_Node000015_Node000016"><a xlink:title=" ">
<path fill="none" stroke="#63b8ff" d="M1309.95,-268.5C1326.04,-268.5 1343.09,-268.5 1358.42,-268.5"/>
<polygon fill="#63b8ff" stroke="#63b8ff" points="1358.73,-272 1368.73,-268.5 1358.73,-265 1358.73,-272"/>
</a>
</g>
</g>
<!-- Node17&#45;&gt;Node10 -->
<g id="edge19_Node000017_Node000010" class="edge">
<title>Node17&#45;&gt;Node10</title>
<g id="a_edge19_Node000017_Node000010"><a xlink:title=" ">
<path fill="none" stroke="#63b8ff" d="M1282.17,-161.72C1299.43,-163.73 1320.65,-166.2 1340.76,-168.55"/>
<polygon fill="#63b8ff" stroke="#63b8ff" points="1340.5,-172.04 1350.84,-169.72 1341.31,-165.09 1340.5,-172.04"/>
</a>
</g>
</g>
<!-- Node18&#45;&gt;Node10 -->
<g id="edge21_Node000018_Node000010" class="edge">
<title>Node18&#45;&gt;Node10</title>
<g id="a_edge21_Node000018_Node000010"><a xlink:title=" ">
<path fill="none" stroke="#63b8ff" d="M1286.03,-130.01C1295.59,-132.54 1305.72,-135.43 1315,-138.5 1336.53,-145.63 1360.2,-155.21 1378.4,-162.96"/>
<polygon fill="#63b8ff" stroke="#63b8ff" points="1377.07,-166.2 1387.64,-166.94 1379.84,-159.77 1377.07,-166.2"/>
</a>
</g>
</g>
<!-- Node20&#45;&gt;Node10 -->
<g id="edge24_Node000020_Node000010" class="edge">
<title>Node20&#45;&gt;Node10</title>
<g id="a_edge24_Node000020_Node000010"><a xlink:title=" ">
<path fill="none" stroke="#63b8ff" d="M1289.3,-53.43C1298.22,-56.03 1307.26,-59.6 1315,-64.5 1353.07,-88.57 1383.53,-133.09 1398.63,-158.14"/>
<polygon fill="#63b8ff" stroke="#63b8ff" points="1395.75,-160.13 1403.82,-166.99 1401.79,-156.59 1395.75,-160.13"/>
</a>
</g>
</g>
<!-- Node21&#45;&gt;Node10 -->
<g id="edge26_Node000021_Node000010" class="edge">
<title>Node21&#45;&gt;Node10</title>
<g id="a_edge26_Node000021_Node000010"><a xlink:title=" ">
<path fill="none" stroke="#63b8ff" d="M1285.14,-14.36C1295.55,-17.02 1306.31,-21.14 1315,-27.5 1361.13,-61.25 1390,-125.12 1402.23,-157.16"/>
<polygon fill="#63b8ff" stroke="#63b8ff" points="1399.01,-158.53 1405.74,-166.71 1405.58,-156.12 1399.01,-158.53"/>
</a>
</g>
</g>
<!-- Node22&#45;&gt;Node10 -->
<g id="edge28_Node000022_Node000010" class="edge">
<title>Node22&#45;&gt;Node10</title>
<g id="a_edge28_Node000022_Node000010"><a xlink:title=" ">
<path fill="none" stroke="#63b8ff" d="M1286.01,-221.93C1295.57,-219.41 1305.7,-216.53 1315,-213.5 1336.1,-206.62 1359.32,-197.5 1377.39,-190.04"/>
<polygon fill="#63b8ff" stroke="#63b8ff" points="1378.98,-193.17 1386.86,-186.08 1376.29,-186.71 1378.98,-193.17"/>
</a>
</g>
</g>
<!-- Node26 -->
<g id="Node000026" class="node">
<title>Node26</title>
<g id="a_Node000026"><a xlink:href="../../d2/d3b/KeyboardHandling_8cpp.html#a2b6d8aae8fe15780544c6ada95a93033" target="_top" xlink:title="Handle a keyboard event.">
<polygon fill="white" stroke="#666666" points="445,-202 320,-202 320,-183 445,-183 445,-202"/>
<text text-anchor="middle" x="382.5" y="-190" font-family="Helvetica,sans-Serif" font-size="10.00">HandleKeyboardEvent</text>
</a>
</g>
</g>
<!-- Node25&#45;&gt;Node26 -->
<g id="edge32_Node000025_Node000026" class="edge">
<title>Node25&#45;&gt;Node26</title>
<g id="a_edge32_Node000025_Node000026"><a xlink:title=" ">
<path fill="none" stroke="#63b8ff" d="M272.39,-192.5C283.87,-192.5 296.83,-192.5 309.7,-192.5"/>
<polygon fill="#63b8ff" stroke="#63b8ff" points="309.97,-196 319.97,-192.5 309.97,-189 309.97,-196"/>
</a>
</g>
</g>
<!-- Node27 -->
<g id="Node000027" class="node">
<title>Node27</title>
<g id="a_Node000027"><a xlink:href="../../de/d47/classKeyboardHandlerBehavior.html#aedfbd0872b0f5331ffece766aaa7b3c2" target="_top" xlink:title="Called when a key is pressed (or held) down.">
<polygon fill="white" stroke="#666666" points="625,-207.5 481,-207.5 481,-177.5 625,-177.5 625,-207.5"/>
<text text-anchor="start" x="489" y="-195.5" font-family="Helvetica,sans-Serif" font-size="10.00">KeyboardHandlerBehavior</text>
<text text-anchor="middle" x="553" y="-184.5" font-family="Helvetica,sans-Serif" font-size="10.00">::OnKeyDown</text>
</a>
</g>
</g>
<!-- Node26&#45;&gt;Node27 -->
<g id="edge33_Node000026_Node000027" class="edge">
<title>Node26&#45;&gt;Node27</title>
<g id="a_edge33_Node000026_Node000027"><a xlink:title=" ">
<path fill="none" stroke="#63b8ff" d="M445.29,-192.5C453.59,-192.5 462.21,-192.5 470.78,-192.5"/>
<polygon fill="#63b8ff" stroke="#63b8ff" points="470.81,-196 480.81,-192.5 470.81,-189 470.81,-196"/>
</a>
</g>
</g>
<!-- Node28 -->
<g id="Node000028" class="node">
<title>Node28</title>
<g id="a_Node000028"><a xlink:href="../../de/d47/classKeyboardHandlerBehavior.html#a2ffe164cb50551f0d20b40753b0d193d" target="_top" xlink:title="Called when a key is released.">
<polygon fill="white" stroke="#666666" points="625,-159.5 481,-159.5 481,-129.5 625,-129.5 625,-159.5"/>
<text text-anchor="start" x="489" y="-147.5" font-family="Helvetica,sans-Serif" font-size="10.00">KeyboardHandlerBehavior</text>
<text text-anchor="middle" x="553" y="-136.5" font-family="Helvetica,sans-Serif" font-size="10.00">::OnKeyUp</text>
</a>
</g>
</g>
<!-- Node26&#45;&gt;Node28 -->
<g id="edge34_Node000026_Node000028" class="edge">
<title>Node26&#45;&gt;Node28</title>
<g id="a_edge34_Node000026_Node000028"><a xlink:title=" ">
<path fill="none" stroke="#63b8ff" d="M417.19,-182.9C437.79,-177.03 464.78,-169.35 489.2,-162.39"/>
<polygon fill="#63b8ff" stroke="#63b8ff" points="490.46,-165.67 499.12,-159.56 488.55,-158.94 490.46,-165.67"/>
</a>
</g>
</g>
<!-- Node29 -->
<g id="Node000029" class="node">
<title>Node29</title>
<g id="a_Node000029"><a xlink:href="../../d9/df7/classGameObjectComponent.html#ade2db51ea6caeaa80b1a80395ffbb779" target="_top" xlink:title=" ">
<polygon fill="white" stroke="#666666" points="620,-255.5 486,-255.5 486,-225.5 620,-225.5 620,-255.5"/>
<text text-anchor="start" x="494" y="-243.5" font-family="Helvetica,sans-Serif" font-size="10.00">GameObjectComponent</text>
<text text-anchor="middle" x="553" y="-232.5" font-family="Helvetica,sans-Serif" font-size="10.00">::OnTick</text>
</a>
</g>
</g>
<!-- Node26&#45;&gt;Node29 -->
<g id="edge35_Node000026_Node000029" class="edge">
<title>Node26&#45;&gt;Node29</title>
<g id="a_edge35_Node000026_Node000029"><a xlink:title=" ">
<path fill="none" stroke="#63b8ff" d="M417.19,-202.1C437.79,-207.97 464.78,-215.65 489.2,-222.61"/>
<polygon fill="#63b8ff" stroke="#63b8ff" points="488.55,-226.06 499.12,-225.44 490.46,-219.33 488.55,-226.06"/>
</a>
</g>
</g>
<!-- Node31&#45;&gt;Node13 -->
<g id="edge39_Node000031_Node000013" class="edge">
<title>Node31&#45;&gt;Node13</title>
<g id="a_edge39_Node000031_Node000013"><a xlink:title=" ">
<path fill="none" stroke="#63b8ff" d="M941.18,-120.88C954.14,-121.9 968.79,-123.04 983.35,-124.18"/>
<polygon fill="#63b8ff" stroke="#63b8ff" points="983.15,-127.68 993.39,-124.97 983.69,-120.7 983.15,-127.68"/>
</a>
</g>
</g>
<!-- Node31&#45;&gt;Node23 -->
<g id="edge40_Node000031_Node000023" class="edge">
<title>Node31&#45;&gt;Node23</title>
<g id="a_edge40_Node000031_Node000023"><a xlink:title=" ">
<path fill="none" stroke="#63b8ff" d="M925.11,-127.07C943.58,-133.46 968.65,-141.87 991,-148.5 998.86,-150.83 1007.23,-153.15 1015.4,-155.34"/>
<polygon fill="#63b8ff" stroke="#63b8ff" points="1014.66,-158.76 1025.22,-157.92 1016.44,-151.99 1014.66,-158.76"/>
</a>
</g>
</g>
<!-- Node32 -->
<g id="Node000032" class="node">
<title>Node32</title>
<g id="a_Node000032"><a xlink:href="../../d9/dfa/Init_8cpp.html#a8341384b2aebeb359aded0078e40d3e3" target="_top" xlink:title="Create the game manager object and register it.">
<polygon fill="white" stroke="#666666" points="1125.5,-103 1004.5,-103 1004.5,-84 1125.5,-84 1125.5,-103"/>
<text text-anchor="middle" x="1065" y="-91" font-family="Helvetica,sans-Serif" font-size="10.00">CreateGameManager</text>
</a>
</g>
</g>
<!-- Node31&#45;&gt;Node32 -->
<g id="edge38_Node000031_Node000032" class="edge">
<title>Node31&#45;&gt;Node32</title>
<g id="a_edge38_Node000031_Node000032"><a xlink:title=" ">
<path fill="none" stroke="#63b8ff" d="M941.18,-111.26C957.47,-108.9 976.45,-106.16 994.54,-103.54"/>
<polygon fill="#63b8ff" stroke="#63b8ff" points="995.08,-107 1004.48,-102.11 994.08,-100.07 995.08,-107"/>
</a>
</g>
</g>
</g>
</svg>

<g id="navigator" transform="translate(0 0)" fill="#404254">
  <rect fill="#f2f5e9" fill-opacity="0.5" stroke="#606060" stroke-width=".5" x="0" y="0" width="60" height="60"/>
  <use id="zoomplus" xlink:href="#zoomPlus" x="17" y="9" onmousedown="handleZoom(evt,'in')"/>
  <use id="zoomminus" xlink:href="#zoomMin" x="42" y="9" onmousedown="handleZoom(evt,'out')"/>
  <use id="reset" xlink:href="#resetDef" x="30" y="36" onmousedown="handleReset()"/>
   <use id="arrowup" xlink:href="#arrowUp" x="0" y="0" onmousedown="handlePan(0,-1)"/>
  <use id="arrowright" xlink:href="#arrowRight" x="0" y="0" onmousedown="handlePan(1,0)"/>
  <use id="arrowdown" xlink:href="#arrowDown" x="0" y="0" onmousedown="handlePan(0,1)"/>
  <use id="arrowleft" xlink:href="#arrowLeft" x="0" y="0" onmousedown="handlePan(-1,0)"/>
</g>
<svg viewBox="0 0 15 15" width="100%" height="30px" preserveAspectRatio="xMaxYMin meet">
 <g id="arrow_out" transform="scale(0.3 0.3)">
  <a xlink:href="main_8cpp_ae66f6b31b5ad750f1fe042a706a4e3d4_cgraph_org.svg" target="_base">
   <rect id="button" ry="5" rx="5" y="6" x="6" height="38" width="38"
        fill="#f2f5e9" fill-opacity="0.5" stroke="#606060" stroke-width="1.0"/>
   <path id="arrow"
     d="M 11.500037,31.436501 C 11.940474,20.09759 22.043105,11.32322 32.158766,21.979434 L 37.068811,17.246167 C 37.068811,17.246167 37.088388,32 37.088388,32 L 22.160133,31.978069 C 22.160133,31.978069 26.997745,27.140456 26.997745,27.140456 C 18.528582,18.264221 13.291696,25.230495 11.500037,31.436501 z"
     style="fill:#404040;"/>
  </a>
 </g>
</svg>

<style type='text/css'>
<![CDATA[
[data-mouse-over-selected='false'] { opacity: 0.7; }
[data-mouse-over-selected='true']  { opacity: 1.0; }
]]>
</style>
<script type="application/ecmascript"><![CDATA[
document.addEventListener('DOMContentLoaded', (event) => {
  highlightEdges();
  highlightAdjacentNodes();
});
]]></script>
</svg>
