<?xml version="1.0" encoding="UTF-8" standalone="no"?>
<!DOCTYPE svg PUBLIC "-//W3C//DTD SVG 1.1//EN"
 "http://www.w3.org/Graphics/SVG/1.1/DTD/svg11.dtd">
<!-- Generated by graphviz version 2.43.0 (0)
 -->
<!-- Title: main Pages: 1 -->
<svg width="1407pt" height="415pt"
 viewBox="0.00 0.00 1407.00 415.00" xmlns="http://www.w3.org/2000/svg" xmlns:xlink="http://www.w3.org/1999/xlink">
<g id="graph0" class="graph" transform="scale(1 1) rotate(0) translate(4 411)">
<title>main</title>
<!-- Node1 -->
<g id="Node000001" class="node">
<title>Node1</title>
<g id="a_Node000001"><a xlink:title="Entry point of the program.">
<polygon fill="#999999" stroke="#666666" points="41,-301 0,-301 0,-282 41,-282 41,-301"/>
<text text-anchor="middle" x="20.5" y="-289" font-family="Helvetica,sans-Serif" font-size="10.00">main</text>
</a>
</g>
</g>
<!-- Node2 -->
<g id="Node000002" class="node">
<title>Node2</title>
<g id="a_Node000002"><a xlink:href="../../df/d0a/main_8cpp.html#aed6a965c795e2202196ce9dc698d8046" target="_top" xlink:title="Destroy all objects, the renderer and window, and quit SDL and TTF.">
<polygon fill="white" stroke="#666666" points="184,-339 77,-339 77,-320 184,-320 184,-339"/>
<text text-anchor="middle" x="130.5" y="-327" font-family="Helvetica,sans-Serif" font-size="10.00">CleanupBeforeExit</text>
</a>
</g>
</g>
<!-- Node1&#45;&gt;Node2 -->
<g id="edge1_Node000001_Node000002" class="edge">
<title>Node1&#45;&gt;Node2</title>
<g id="a_edge1_Node000001_Node000002"><a xlink:title=" ">
<path fill="none" stroke="#63b8ff" d="M41.06,-298.38C55.39,-303.42 75.27,-310.42 92.55,-316.5"/>
<polygon fill="#63b8ff" stroke="#63b8ff" points="91.78,-319.94 102.37,-319.95 94.1,-313.33 91.78,-319.94"/>
</a>
</g>
</g>
<!-- Node3 -->
<g id="Node000003" class="node">
<title>Node3</title>
<g id="a_Node000003"><a xlink:href="../../df/d0a/main_8cpp.html#abfbee20b241e7d5bbbef9ab36fb201a4" target="_top" xlink:title="The main game loop, runs until QuitGame is set to true.">
<polygon fill="white" stroke="#666666" points="164.5,-229 96.5,-229 96.5,-210 164.5,-210 164.5,-229"/>
<text text-anchor="middle" x="130.5" y="-217" font-family="Helvetica,sans-Serif" font-size="10.00">gameLoop</text>
</a>
</g>
</g>
<!-- Node1&#45;&gt;Node3 -->
<g id="edge2_Node000001_Node000003" class="edge">
<title>Node1&#45;&gt;Node3</title>
<g id="a_edge2_Node000001_Node000003"><a xlink:title=" ">
<path fill="none" stroke="#63b8ff" d="M36.07,-281.79C54.2,-269.7 85.39,-248.91 106.7,-234.7"/>
<polygon fill="#63b8ff" stroke="#63b8ff" points="108.79,-237.52 115.17,-229.06 104.9,-231.69 108.79,-237.52"/>
</a>
</g>
</g>
<!-- Node34 -->
<g id="Node000034" class="node">
<title>Node34</title>
<g id="a_Node000034"><a xlink:href="../../d1/d99/Lifecycle_8cpp.html#af0000b43ed614b94179e358d523c9245" target="_top" xlink:title="Initialize the game to the default state.">
<polygon fill="white" stroke="#666666" points="815.5,-297 727.5,-297 727.5,-278 815.5,-278 815.5,-297"/>
<text text-anchor="middle" x="771.5" y="-285" font-family="Helvetica,sans-Serif" font-size="10.00">InitializeGame</text>
</a>
</g>
</g>
<!-- Node1&#45;&gt;Node34 -->
<g id="edge40_Node000001_Node000034" class="edge">
<title>Node1&#45;&gt;Node34</title>
<g id="a_edge40_Node000001_Node000034"><a xlink:title=" ">
<path fill="none" stroke="#63b8ff" d="M41.19,-291.5C83.28,-291.5 185.12,-291.5 270.5,-291.5 270.5,-291.5 270.5,-291.5 422.5,-291.5 526.95,-291.5 649.03,-289.68 717.29,-288.49"/>
<polygon fill="#63b8ff" stroke="#63b8ff" points="717.43,-291.99 727.37,-288.31 717.31,-284.99 717.43,-291.99"/>
</a>
</g>
</g>
<!-- Node4 -->
<g id="Node000004" class="node">
<title>Node4</title>
<g id="a_Node000004"><a xlink:href="../../df/d0a/main_8cpp.html#ae8fa368bbea5177612cd2cf333448c66" target="_top" xlink:title="Executed every frame.">
<polygon fill="white" stroke="#666666" points="294.5,-146 248.5,-146 248.5,-127 294.5,-127 294.5,-146"/>
<text text-anchor="middle" x="271.5" y="-134" font-family="Helvetica,sans-Serif" font-size="10.00">frame</text>
</a>
</g>
</g>
<!-- Node3&#45;&gt;Node4 -->
<g id="edge3_Node000003_Node000004" class="edge">
<title>Node3&#45;&gt;Node4</title>
<g id="a_edge3_Node000003_Node000004"><a xlink:title=" ">
<path fill="none" stroke="#63b8ff" d="M147.45,-209.98C171.41,-195.67 216.92,-168.5 245.37,-151.5"/>
<polygon fill="#63b8ff" stroke="#63b8ff" points="247.52,-154.3 254.31,-146.17 243.93,-148.29 247.52,-154.3"/>
</a>
</g>
</g>
<!-- Node28 -->
<g id="Node000028" class="node">
<title>Node28</title>
<g id="a_Node000028"><a xlink:href="../../de/db0/Events_8cpp.html#a26867d84edb0f52a75127cf66c64c9a9" target="_top" xlink:title="Handles an event that has occoured.">
<polygon fill="white" stroke="#666666" points="311,-210 232,-210 232,-191 311,-191 311,-210"/>
<text text-anchor="middle" x="271.5" y="-198" font-family="Helvetica,sans-Serif" font-size="10.00">HandleEvent</text>
</a>
</g>
</g>
<!-- Node3&#45;&gt;Node28 -->
<g id="edge34_Node000003_Node000028" class="edge">
<title>Node3&#45;&gt;Node28</title>
<g id="a_edge34_Node000003_Node000028"><a xlink:title=" ">
<path fill="none" stroke="#63b8ff" d="M164.79,-214.95C181.88,-212.61 203.02,-209.72 221.9,-207.14"/>
<polygon fill="#63b8ff" stroke="#63b8ff" points="222.38,-210.61 231.81,-205.79 221.43,-203.67 222.38,-210.61"/>
</a>
</g>
</g>
<!-- Node33 -->
<g id="Node000033" class="node">
<title>Node33</title>
<g id="a_Node000033"><a xlink:href="../../d8/d38/Time_8cpp.html#a150f12b48e13e1c14a4e7646137c74a4" target="_top" xlink:title="Update the stored deltatime. Should be executed each frame.">
<polygon fill="white" stroke="#666666" points="323,-247 220,-247 220,-228 323,-228 323,-247"/>
<text text-anchor="middle" x="271.5" y="-235" font-family="Helvetica,sans-Serif" font-size="10.00">UpdateDeltaTime</text>
</a>
</g>
</g>
<!-- Node3&#45;&gt;Node33 -->
<g id="edge39_Node000003_Node000033" class="edge">
<title>Node3&#45;&gt;Node33</title>
<g id="a_edge39_Node000003_Node000033"><a xlink:title=" ">
<path fill="none" stroke="#63b8ff" d="M164.79,-223.81C178.3,-225.56 194.34,-227.64 209.79,-229.64"/>
<polygon fill="#63b8ff" stroke="#63b8ff" points="209.45,-233.12 219.82,-230.94 210.35,-226.18 209.45,-233.12"/>
</a>
</g>
</g>
<!-- Node5 -->
<g id="Node000005" class="node">
<title>Node5</title>
<g id="a_Node000005"><a xlink:href="../../de/dfd/GameManagement_8cpp.html#a96314a1ad91ef741694603ff58e7bee7" target="_top" xlink:title=" ">
<polygon fill="white" stroke="#666666" points="472.5,-119 370.5,-119 370.5,-100 472.5,-100 472.5,-119"/>
<text text-anchor="middle" x="421.5" y="-107" font-family="Helvetica,sans-Serif" font-size="10.00">RunFrameActions</text>
</a>
</g>
</g>
<!-- Node4&#45;&gt;Node5 -->
<g id="edge4_Node000004_Node000005" class="edge">
<title>Node4&#45;&gt;Node5</title>
<g id="a_edge4_Node000004_Node000005"><a xlink:title=" ">
<path fill="none" stroke="#63b8ff" d="M294.66,-132.46C312.01,-129.29 337,-124.73 360.15,-120.51"/>
<polygon fill="#63b8ff" stroke="#63b8ff" points="361.06,-123.9 370.27,-118.66 359.8,-117.02 361.06,-123.9"/>
</a>
</g>
</g>
<!-- Node6 -->
<g id="Node000006" class="node">
<title>Node6</title>
<g id="a_Node000006"><a xlink:href="../../de/dfd/GameManagement_8cpp.html#a2877bc3a946eb46940e5cdedcaf4e3f6" target="_top" xlink:title=" ">
<polygon fill="white" stroke="#666666" points="654,-119 530,-119 530,-100 654,-100 654,-119"/>
<text text-anchor="middle" x="592" y="-107" font-family="Helvetica,sans-Serif" font-size="10.00">ResetGameIfRequired</text>
</a>
</g>
</g>
<!-- Node5&#45;&gt;Node6 -->
<g id="edge5_Node000005_Node000006" class="edge">
<title>Node5&#45;&gt;Node6</title>
<g id="a_edge5_Node000005_Node000006"><a xlink:title=" ">
<path fill="none" stroke="#63b8ff" d="M472.6,-109.5C487.32,-109.5 503.72,-109.5 519.5,-109.5"/>
<polygon fill="#63b8ff" stroke="#63b8ff" points="519.76,-113 529.76,-109.5 519.76,-106 519.76,-113"/>
</a>
</g>
</g>
<!-- Node21 -->
<g id="Node000021" class="node">
<title>Node21</title>
<g id="a_Node000021"><a xlink:href="../../d2/d41/ObjectManagement_8cpp.html#a522912d67446895b0a03d01837b75a99" target="_top" xlink:title="Iterate over all objects, and update the appropriately, using OnTick() or Component specific methods.">
<polygon fill="white" stroke="#666666" points="636.5,-82 547.5,-82 547.5,-63 636.5,-63 636.5,-82"/>
<text text-anchor="middle" x="592" y="-70" font-family="Helvetica,sans-Serif" font-size="10.00">UpdateObjects</text>
</a>
</g>
</g>
<!-- Node5&#45;&gt;Node21 -->
<g id="edge27_Node000005_Node000021" class="edge">
<title>Node5&#45;&gt;Node21</title>
<g id="a_edge27_Node000005_Node000021"><a xlink:title=" ">
<path fill="none" stroke="#63b8ff" d="M465.89,-99.97C487.72,-95.18 514.38,-89.32 537.47,-84.25"/>
<polygon fill="#63b8ff" stroke="#63b8ff" points="538.44,-87.62 547.46,-82.06 536.94,-80.79 538.44,-87.62"/>
</a>
</g>
</g>
<!-- Node7 -->
<g id="Node000007" class="node">
<title>Node7</title>
<g id="a_Node000007"><a xlink:href="../../d1/d99/Lifecycle_8cpp.html#a7be4f604c1baeb7cac84122a7f2438cf" target="_top" xlink:title="Reset the game to the initial state.">
<polygon fill="white" stroke="#666666" points="808.5,-239 734.5,-239 734.5,-220 808.5,-220 808.5,-239"/>
<text text-anchor="middle" x="771.5" y="-227" font-family="Helvetica,sans-Serif" font-size="10.00">ResetGame</text>
</a>
</g>
</g>
<!-- Node6&#45;&gt;Node7 -->
<g id="edge6_Node000006_Node000007" class="edge">
<title>Node6&#45;&gt;Node7</title>
<g id="a_edge6_Node000006_Node000007"><a xlink:title=" ">
<path fill="none" stroke="#63b8ff" d="M641.63,-119.04C649.37,-121.53 657.1,-124.64 664,-128.5 702.84,-150.24 738.26,-189.34 756.85,-211.98"/>
<polygon fill="#63b8ff" stroke="#63b8ff" points="754.13,-214.18 763.12,-219.79 759.58,-209.8 754.13,-214.18"/>
</a>
</g>
</g>
<!-- Node8 -->
<g id="Node000008" class="node">
<title>Node8</title>
<g id="a_Node000008"><a xlink:href="../../d9/dfa/Init_8cpp.html#aaa64e8fd06230fa14e507cef71a3217d" target="_top" xlink:title="Create the initial gameobjects required for the game.">
<polygon fill="white" stroke="#666666" points="1024.5,-258 881.5,-258 881.5,-239 1024.5,-239 1024.5,-258"/>
<text text-anchor="middle" x="953" y="-246" font-family="Helvetica,sans-Serif" font-size="10.00">CreateInitialGameObjects</text>
</a>
</g>
</g>
<!-- Node7&#45;&gt;Node8 -->
<g id="edge7_Node000007_Node000008" class="edge">
<title>Node7&#45;&gt;Node8</title>
<g id="a_edge7_Node000007_Node000008"><a xlink:title=" ">
<path fill="none" stroke="#63b8ff" d="M808.82,-233.34C826.86,-235.25 849.42,-237.64 871.26,-239.95"/>
<polygon fill="#63b8ff" stroke="#63b8ff" points="870.91,-243.44 881.22,-241.01 871.65,-236.47 870.91,-243.44"/>
</a>
</g>
</g>
<!-- Node19 -->
<g id="Node000019" class="node">
<title>Node19</title>
<g id="a_Node000019"><a xlink:href="../../d2/d41/ObjectManagement_8cpp.html#ae5ee3f705fc506491ca2b0c7cf059c75" target="_top" xlink:title="Initialize all gameobjects and call the OnStart() methods.">
<polygon fill="white" stroke="#666666" points="994.5,-295 911.5,-295 911.5,-276 994.5,-276 994.5,-295"/>
<text text-anchor="middle" x="953" y="-283" font-family="Helvetica,sans-Serif" font-size="10.00">OnGameStart</text>
</a>
</g>
</g>
<!-- Node7&#45;&gt;Node19 -->
<g id="edge25_Node000007_Node000019" class="edge">
<title>Node7&#45;&gt;Node19</title>
<g id="a_edge25_Node000007_Node000019"><a xlink:title=" ">
<path fill="none" stroke="#63b8ff" d="M797.23,-239.12C818.66,-247.27 850.61,-258.96 879,-267.5 886.21,-269.67 893.88,-271.78 901.44,-273.74"/>
<polygon fill="#63b8ff" stroke="#63b8ff" points="900.71,-277.16 911.26,-276.23 902.42,-270.38 900.71,-277.16"/>
</a>
</g>
</g>
<!-- Node20 -->
<g id="Node000020" class="node">
<title>Node20</title>
<g id="a_Node000020"><a xlink:href="../../d8/d38/Time_8cpp.html#ae55fb718253dda2137a189d792bda7b9" target="_top" xlink:title="Reset the time since the game has started.">
<polygon fill="white" stroke="#666666" points="1027,-221 879,-221 879,-202 1027,-202 1027,-221"/>
<text text-anchor="middle" x="953" y="-209" font-family="Helvetica,sans-Serif" font-size="10.00">ResetTimeSinceGameStart</text>
</a>
</g>
</g>
<!-- Node7&#45;&gt;Node20 -->
<g id="edge26_Node000007_Node000020" class="edge">
<title>Node7&#45;&gt;Node20</title>
<g id="a_edge26_Node000007_Node000020"><a xlink:title=" ">
<path fill="none" stroke="#63b8ff" d="M808.82,-225.86C826.08,-224.13 847.48,-221.98 868.42,-219.88"/>
<polygon fill="#63b8ff" stroke="#63b8ff" points="869.05,-223.34 878.65,-218.86 868.35,-216.37 869.05,-223.34"/>
</a>
</g>
</g>
<!-- Node9 -->
<g id="Node000009" class="node">
<title>Node9</title>
<g id="a_Node000009"><a xlink:href="../../d9/dfa/Init_8cpp.html#a3ff595c2af791c369e2318510062ce14" target="_top" xlink:title="Create the coffee meter bar.">
<polygon fill="white" stroke="#666666" points="1187.5,-183 1078.5,-183 1078.5,-164 1187.5,-164 1187.5,-183"/>
<text text-anchor="middle" x="1133" y="-171" font-family="Helvetica,sans-Serif" font-size="10.00">CreateCoffeeMeter</text>
</a>
</g>
</g>
<!-- Node8&#45;&gt;Node9 -->
<g id="edge8_Node000008_Node000009" class="edge">
<title>Node8&#45;&gt;Node9</title>
<g id="a_edge8_Node000008_Node000009"><a xlink:title=" ">
<path fill="none" stroke="#63b8ff" d="M1008.01,-238.93C1014.64,-236.68 1021.13,-233.91 1027,-230.5 1047.11,-218.8 1043.05,-204.47 1063,-192.5 1066.6,-190.34 1070.44,-188.42 1074.41,-186.72"/>
<polygon fill="#63b8ff" stroke="#63b8ff" points="1075.75,-189.95 1083.83,-183.11 1073.24,-183.42 1075.75,-189.95"/>
</a>
</g>
</g>
<!-- Node10 -->
<g id="Node000010" class="node">
<title>Node10</title>
<g id="a_Node000010"><a xlink:href="../../d2/d41/ObjectManagement_8cpp.html#a9f8d0a459a7758c8b2d0b72cdd8adad0" target="_top" xlink:title="Enqueue an object to be registered on the next frame.">
<polygon fill="white" stroke="#666666" points="1399,-277 1239,-277 1239,-258 1399,-258 1399,-277"/>
<text text-anchor="middle" x="1319" y="-265" font-family="Helvetica,sans-Serif" font-size="10.00">EnqueueRegisterGameObject</text>
</a>
</g>
</g>
<!-- Node8&#45;&gt;Node10 -->
<g id="edge17_Node000008_Node000010" class="edge">
<title>Node8&#45;&gt;Node10</title>
<g id="a_edge17_Node000008_Node000010"><a xlink:title=" ">
<path fill="none" stroke="#63b8ff" d="M1024.61,-252.19C1082.78,-255.22 1165.61,-259.55 1228.43,-262.82"/>
<polygon fill="#63b8ff" stroke="#63b8ff" points="1228.56,-266.34 1238.73,-263.36 1228.93,-259.35 1228.56,-266.34"/>
</a>
</g>
</g>
<!-- Node11 -->
<g id="Node000011" class="node">
<title>Node11</title>
<g id="a_Node000011"><a xlink:href="../../d9/dfa/Init_8cpp.html#a1bfb628b6cd503e396bae0796f2051c1" target="_top" xlink:title="Create the icon next to the coffee meter.">
<polygon fill="white" stroke="#666666" points="1197.5,-407 1068.5,-407 1068.5,-388 1197.5,-388 1197.5,-407"/>
<text text-anchor="middle" x="1133" y="-395" font-family="Helvetica,sans-Serif" font-size="10.00">CreateCoffeeMeterIcon</text>
</a>
</g>
</g>
<!-- Node8&#45;&gt;Node11 -->
<g id="edge10_Node000008_Node000011" class="edge">
<title>Node8&#45;&gt;Node11</title>
<g id="a_edge10_Node000008_Node000011"><a xlink:title=" ">
<path fill="none" stroke="#63b8ff" d="M1013.01,-258.04C1018.13,-260.53 1022.91,-263.63 1027,-267.5 1065,-303.42 1025.01,-343.57 1063,-379.5 1064.12,-380.56 1065.3,-381.57 1066.53,-382.51"/>
<polygon fill="#63b8ff" stroke="#63b8ff" points="1064.88,-385.61 1075.21,-387.95 1068.59,-379.67 1064.88,-385.61"/>
</a>
</g>
</g>
<!-- Node13 -->
<g id="Node000013" class="node">
<title>Node13</title>
<g id="a_Node000013"><a xlink:href="../../d9/dfa/Init_8cpp.html#a7577908172d93807ef67f163f851fe5e" target="_top" xlink:title="Create the floor and register it.">
<polygon fill="white" stroke="#666666" points="1170,-146 1096,-146 1096,-127 1170,-127 1170,-146"/>
<text text-anchor="middle" x="1133" y="-134" font-family="Helvetica,sans-Serif" font-size="10.00">CreateFloor</text>
</a>
</g>
</g>
<!-- Node8&#45;&gt;Node13 -->
<g id="edge13_Node000008_Node000013" class="edge">
<title>Node8&#45;&gt;Node13</title>
<g id="a_edge13_Node000008_Node000013"><a xlink:title=" ">
<path fill="none" stroke="#63b8ff" d="M1013.19,-238.88C1018.15,-236.63 1022.85,-233.88 1027,-230.5 1055.69,-207.18 1034.63,-179.21 1063,-155.5 1069.65,-149.95 1077.79,-146.01 1086.13,-143.22"/>
<polygon fill="#63b8ff" stroke="#63b8ff" points="1087.25,-146.54 1095.92,-140.44 1085.34,-139.8 1087.25,-146.54"/>
</a>
</g>
</g>
<!-- Node14 -->
<g id="Node000014" class="node">
<title>Node14</title>
<g id="a_Node000014"><a xlink:href="../../d9/dfa/Init_8cpp.html#a8ad8206fa2846739c5e76ce97b6b2783" target="_top" xlink:title="Create the score counter and register it.">
<polygon fill="white" stroke="#666666" points="1190,-109 1076,-109 1076,-90 1190,-90 1190,-109"/>
<text text-anchor="middle" x="1133" y="-97" font-family="Helvetica,sans-Serif" font-size="10.00">CreateScoreCounter</text>
</a>
</g>
</g>
<!-- Node8&#45;&gt;Node14 -->
<g id="edge15_Node000008_Node000014" class="edge">
<title>Node8&#45;&gt;Node14</title>
<g id="a_edge15_Node000008_Node000014"><a xlink:title=" ">
<path fill="none" stroke="#63b8ff" d="M1014.77,-238.94C1019.22,-236.67 1023.38,-233.89 1027,-230.5 1065.49,-194.49 1024.75,-153.77 1063,-117.5 1064.3,-116.27 1065.67,-115.12 1067.1,-114.05"/>
<polygon fill="#63b8ff" stroke="#63b8ff" points="1069.15,-116.9 1075.87,-108.71 1065.51,-110.92 1069.15,-116.9"/>
</a>
</g>
</g>
<!-- Node15 -->
<g id="Node000015" class="node">
<title>Node15</title>
<g id="a_Node000015"><a xlink:href="../../d9/dfa/Init_8cpp.html#ac07b948048071cbf70f69aa9d691a93f" target="_top" xlink:title="Set the window background to white.">
<polygon fill="white" stroke="#666666" points="1203,-220 1063,-220 1063,-201 1203,-201 1203,-220"/>
<text text-anchor="middle" x="1133" y="-208" font-family="Helvetica,sans-Serif" font-size="10.00">SetupWindowbackground</text>
</a>
</g>
</g>
<!-- Node8&#45;&gt;Node15 -->
<g id="edge18_Node000008_Node000015" class="edge">
<title>Node8&#45;&gt;Node15</title>
<g id="a_edge18_Node000008_Node000015"><a xlink:title=" ">
<path fill="none" stroke="#63b8ff" d="M998.92,-238.91C1022.83,-233.81 1052.42,-227.49 1077.62,-222.11"/>
<polygon fill="#63b8ff" stroke="#63b8ff" points="1078.36,-225.53 1087.41,-220.02 1076.9,-218.69 1078.36,-225.53"/>
</a>
</g>
</g>
<!-- Node16 -->
<g id="Node000016" class="node">
<title>Node16</title>
<g id="a_Node000016"><a xlink:href="../../d9/dfa/Init_8cpp.html#a374cb6f303f72b5af970063ff1318f24" target="_top" xlink:title="Create the left wall and register it.">
<polygon fill="white" stroke="#666666" points="1177,-370 1089,-370 1089,-351 1177,-351 1177,-370"/>
<text text-anchor="middle" x="1133" y="-358" font-family="Helvetica,sans-Serif" font-size="10.00">SpawnLeftWall</text>
</a>
</g>
</g>
<!-- Node8&#45;&gt;Node16 -->
<g id="edge19_Node000008_Node000016" class="edge">
<title>Node8&#45;&gt;Node16</title>
<g id="a_edge19_Node000008_Node000016"><a xlink:title=" ">
<path fill="none" stroke="#63b8ff" d="M1011.39,-258.15C1017.01,-260.6 1022.35,-263.67 1027,-267.5 1055.54,-291.01 1034.47,-318.99 1063,-342.5 1067.71,-346.38 1073.17,-349.44 1078.91,-351.84"/>
<polygon fill="#63b8ff" stroke="#63b8ff" points="1078.17,-355.29 1088.76,-355.3 1080.49,-348.68 1078.17,-355.29"/>
</a>
</g>
</g>
<!-- Node17 -->
<g id="Node000017" class="node">
<title>Node17</title>
<g id="a_Node000017"><a xlink:href="../../d9/dfa/Init_8cpp.html#aa021dfea28868af5fdc6eb97fdf11395" target="_top" xlink:title="Create the player and register it.">
<polygon fill="white" stroke="#666666" points="1173,-296 1093,-296 1093,-277 1173,-277 1173,-296"/>
<text text-anchor="middle" x="1133" y="-284" font-family="Helvetica,sans-Serif" font-size="10.00">SpawnPlayer</text>
</a>
</g>
</g>
<!-- Node8&#45;&gt;Node17 -->
<g id="edge21_Node000008_Node000017" class="edge">
<title>Node8&#45;&gt;Node17</title>
<g id="a_edge21_Node000008_Node000017"><a xlink:title=" ">
<path fill="none" stroke="#63b8ff" d="M998.92,-258.09C1024.47,-263.54 1056.5,-270.38 1082.73,-275.98"/>
<polygon fill="#63b8ff" stroke="#63b8ff" points="1082.34,-279.48 1092.85,-278.14 1083.8,-272.63 1082.34,-279.48"/>
</a>
</g>
</g>
<!-- Node18 -->
<g id="Node000018" class="node">
<title>Node18</title>
<g id="a_Node000018"><a xlink:href="../../d9/dfa/Init_8cpp.html#a0e2d0321a787eb9a3b705489c8f2b86b" target="_top" xlink:title="Create the right wall and register it.">
<polygon fill="white" stroke="#666666" points="1180.5,-333 1085.5,-333 1085.5,-314 1180.5,-314 1180.5,-333"/>
<text text-anchor="middle" x="1133" y="-321" font-family="Helvetica,sans-Serif" font-size="10.00">SpawnRightWall</text>
</a>
</g>
</g>
<!-- Node8&#45;&gt;Node18 -->
<g id="edge23_Node000008_Node000018" class="edge">
<title>Node8&#45;&gt;Node18</title>
<g id="a_edge23_Node000008_Node000018"><a xlink:title=" ">
<path fill="none" stroke="#63b8ff" d="M1005.72,-258.08C1013.14,-260.55 1020.46,-263.64 1027,-267.5 1047.03,-279.33 1042.97,-293.66 1063,-305.5 1066.94,-307.83 1071.19,-309.86 1075.57,-311.64"/>
<polygon fill="#63b8ff" stroke="#63b8ff" points="1074.7,-315.04 1085.29,-315.12 1077.05,-308.45 1074.7,-315.04"/>
</a>
</g>
</g>
<!-- Node9&#45;&gt;Node10 -->
<g id="edge9_Node000009_Node000010" class="edge">
<title>Node9&#45;&gt;Node10</title>
<g id="a_edge9_Node000009_Node000010"><a xlink:title=" ">
<path fill="none" stroke="#63b8ff" d="M1176.69,-183.03C1185.57,-185.63 1194.73,-188.77 1203,-192.5 1238.68,-208.58 1275.9,-234.89 1298.01,-251.69"/>
<polygon fill="#63b8ff" stroke="#63b8ff" points="1295.92,-254.49 1305.97,-257.83 1300.19,-248.95 1295.92,-254.49"/>
</a>
</g>
</g>
<!-- Node11&#45;&gt;Node10 -->
<g id="edge11_Node000011_Node000010" class="edge">
<title>Node11&#45;&gt;Node10</title>
<g id="a_edge11_Node000011_Node000010"><a xlink:title=" ">
<path fill="none" stroke="#63b8ff" d="M1183.48,-387.95C1190.26,-385.68 1196.96,-382.91 1203,-379.5 1246.24,-355.11 1284.98,-310.44 1304.55,-285.52"/>
<polygon fill="#63b8ff" stroke="#63b8ff" points="1307.55,-287.36 1310.87,-277.3 1302,-283.1 1307.55,-287.36"/>
</a>
</g>
</g>
<!-- Node12 -->
<g id="Node000012" class="node">
<title>Node12</title>
<g id="a_Node000012"><a xlink:href="../../d1/da9/AssetLoading_8cpp.html#a07739f40c13743b2dfceefb659d6d455" target="_top" xlink:title="Return the correct asset path for the asset depending on the current environment.">
<polygon fill="white" stroke="#666666" points="1360,-407 1278,-407 1278,-388 1360,-388 1360,-407"/>
<text text-anchor="middle" x="1319" y="-395" font-family="Helvetica,sans-Serif" font-size="10.00">GetAssetPath</text>
</a>
</g>
</g>
<!-- Node11&#45;&gt;Node12 -->
<g id="edge12_Node000011_Node000012" class="edge">
<title>Node11&#45;&gt;Node12</title>
<g id="a_edge12_Node000011_Node000012"><a xlink:title=" ">
<path fill="none" stroke="#63b8ff" d="M1197.58,-397.5C1220.43,-397.5 1245.88,-397.5 1267.47,-397.5"/>
<polygon fill="#63b8ff" stroke="#63b8ff" points="1267.73,-401 1277.73,-397.5 1267.73,-394 1267.73,-401"/>
</a>
</g>
</g>
<!-- Node13&#45;&gt;Node10 -->
<g id="edge14_Node000013_Node000010" class="edge">
<title>Node13&#45;&gt;Node10</title>
<g id="a_edge14_Node000013_Node000010"><a xlink:title=" ">
<path fill="none" stroke="#63b8ff" d="M1170.1,-142.81C1181.13,-145.68 1192.97,-149.75 1203,-155.5 1246.07,-180.19 1284.88,-224.74 1304.51,-249.57"/>
<polygon fill="#63b8ff" stroke="#63b8ff" points="1301.95,-251.98 1310.84,-257.75 1307.48,-247.7 1301.95,-251.98"/>
</a>
</g>
</g>
<!-- Node14&#45;&gt;Node10 -->
<g id="edge16_Node000014_Node000010" class="edge">
<title>Node14&#45;&gt;Node10</title>
<g id="a_edge16_Node000014_Node000010"><a xlink:title=" ">
<path fill="none" stroke="#63b8ff" d="M1186.11,-109.06C1192.07,-111.3 1197.84,-114.08 1203,-117.5 1254.31,-151.56 1292.2,-216.3 1308.77,-248.43"/>
<polygon fill="#63b8ff" stroke="#63b8ff" points="1305.77,-250.27 1313.39,-257.64 1312.03,-247.13 1305.77,-250.27"/>
</a>
</g>
</g>
<!-- Node16&#45;&gt;Node10 -->
<g id="edge20_Node000016_Node000010" class="edge">
<title>Node16&#45;&gt;Node10</title>
<g id="a_edge20_Node000016_Node000010"><a xlink:title=" ">
<path fill="none" stroke="#63b8ff" d="M1177.06,-351.56C1185.82,-349.11 1194.85,-346.11 1203,-342.5 1238.79,-326.66 1275.98,-300.29 1298.05,-283.41"/>
<polygon fill="#63b8ff" stroke="#63b8ff" points="1300.25,-286.13 1306,-277.23 1295.96,-280.6 1300.25,-286.13"/>
</a>
</g>
</g>
<!-- Node17&#45;&gt;Node10 -->
<g id="edge22_Node000017_Node000010" class="edge">
<title>Node17&#45;&gt;Node10</title>
<g id="a_edge22_Node000017_Node000010"><a xlink:title=" ">
<path fill="none" stroke="#63b8ff" d="M1173.02,-282.47C1189.37,-280.78 1209.11,-278.74 1228.68,-276.72"/>
<polygon fill="#63b8ff" stroke="#63b8ff" points="1229.3,-280.18 1238.88,-275.67 1228.58,-273.22 1229.3,-280.18"/>
</a>
</g>
</g>
<!-- Node18&#45;&gt;Node10 -->
<g id="edge24_Node000018_Node000010" class="edge">
<title>Node18&#45;&gt;Node10</title>
<g id="a_edge24_Node000018_Node000010"><a xlink:title=" ">
<path fill="none" stroke="#63b8ff" d="M1172.44,-313.94C1182.43,-311.33 1193.15,-308.41 1203,-305.5 1229.35,-297.72 1258.76,-287.98 1281.24,-280.31"/>
<polygon fill="#63b8ff" stroke="#63b8ff" points="1282.41,-283.61 1290.74,-277.06 1280.14,-276.99 1282.41,-283.61"/>
</a>
</g>
</g>
<!-- Node22 -->
<g id="Node000022" class="node">
<title>Node22</title>
<g id="a_Node000022"><a xlink:href="../../d2/d41/ObjectManagement_8cpp.html#abb664488d26ac602b11cc22de7243458" target="_top" xlink:title=" ">
<polygon fill="white" stroke="#666666" points="843,-85 700,-85 700,-66 843,-66 843,-85"/>
<text text-anchor="middle" x="771.5" y="-73" font-family="Helvetica,sans-Serif" font-size="10.00">HandleComponentUpdate</text>
</a>
</g>
</g>
<!-- Node21&#45;&gt;Node22 -->
<g id="edge28_Node000021_Node000022" class="edge">
<title>Node21&#45;&gt;Node22</title>
<g id="a_edge28_Node000021_Node000022"><a xlink:title=" ">
<path fill="none" stroke="#63b8ff" d="M636.88,-73.24C652.9,-73.51 671.57,-73.83 689.79,-74.14"/>
<polygon fill="#63b8ff" stroke="#63b8ff" points="689.79,-77.64 699.85,-74.31 689.91,-70.64 689.79,-77.64"/>
</a>
</g>
</g>
<!-- Node23 -->
<g id="Node000023" class="node">
<title>Node23</title>
<g id="a_Node000023"><a xlink:href="../../d2/d41/ObjectManagement_8cpp.html#a95ff1ee6a57e678376b2eae2ef499ab3" target="_top" xlink:title=" ">
<polygon fill="white" stroke="#666666" points="843,-48 700,-48 700,-29 843,-29 843,-48"/>
<text text-anchor="middle" x="771.5" y="-36" font-family="Helvetica,sans-Serif" font-size="10.00">WorkThroughFrameQueue</text>
</a>
</g>
</g>
<!-- Node21&#45;&gt;Node23 -->
<g id="edge29_Node000021_Node000023" class="edge">
<title>Node21&#45;&gt;Node23</title>
<g id="a_edge29_Node000021_Node000023"><a xlink:title=" ">
<path fill="none" stroke="#63b8ff" d="M636.88,-64.1C659.15,-59.83 686.55,-54.58 710.73,-49.95"/>
<polygon fill="#63b8ff" stroke="#63b8ff" points="711.7,-53.33 720.86,-48.01 710.38,-46.45 711.7,-53.33"/>
</a>
</g>
</g>
<!-- Node24 -->
<g id="Node000024" class="node">
<title>Node24</title>
<g id="a_Node000024"><a xlink:href="../../d2/d41/ObjectManagement_8cpp.html#ad487b4c14d5f4bf65d056f5c90ac4d72" target="_top" xlink:title=" ">
<polygon fill="white" stroke="#666666" points="1023,-56 883,-56 883,-37 1023,-37 1023,-56"/>
<text text-anchor="middle" x="953" y="-44" font-family="Helvetica,sans-Serif" font-size="10.00">DestroyEnqueuedObjects</text>
</a>
</g>
</g>
<!-- Node23&#45;&gt;Node24 -->
<g id="edge30_Node000023_Node000024" class="edge">
<title>Node23&#45;&gt;Node24</title>
<g id="a_edge30_Node000023_Node000024"><a xlink:title=" ">
<path fill="none" stroke="#63b8ff" d="M843.19,-41.65C852.87,-42.08 862.86,-42.53 872.69,-42.97"/>
<polygon fill="#63b8ff" stroke="#63b8ff" points="872.7,-46.47 882.85,-43.42 873.01,-39.48 872.7,-46.47"/>
</a>
</g>
</g>
<!-- Node26 -->
<g id="Node000026" class="node">
<title>Node26</title>
<g id="a_Node000026"><a xlink:href="../../d2/d41/ObjectManagement_8cpp.html#a25053f13bc5fe6ea1caf5f343cbb30b8" target="_top" xlink:title=" ">
<polygon fill="white" stroke="#666666" points="1024,-19 882,-19 882,0 1024,0 1024,-19"/>
<text text-anchor="middle" x="953" y="-7" font-family="Helvetica,sans-Serif" font-size="10.00">RegisterEnqueuedObjects</text>
</a>
</g>
</g>
<!-- Node23&#45;&gt;Node26 -->
<g id="edge32_Node000023_Node000026" class="edge">
<title>Node23&#45;&gt;Node26</title>
<g id="a_edge32_Node000023_Node000026"><a xlink:title=" ">
<path fill="none" stroke="#63b8ff" d="M831.77,-28.92C848.09,-26.29 865.94,-23.4 882.77,-20.68"/>
<polygon fill="#63b8ff" stroke="#63b8ff" points="883.78,-24.07 893.1,-19.02 882.67,-17.16 883.78,-24.07"/>
</a>
</g>
</g>
<!-- Node25 -->
<g id="Node000025" class="node">
<title>Node25</title>
<g id="a_Node000025"><a xlink:href="../../d2/d41/ObjectManagement_8cpp.html#ab91c7a16c0d19bae45779c2b3eb207f9" target="_top" xlink:title=" ">
<polygon fill="white" stroke="#666666" points="1191,-56 1075,-56 1075,-37 1191,-37 1191,-56"/>
<text text-anchor="middle" x="1133" y="-44" font-family="Helvetica,sans-Serif" font-size="10.00">DestroyGameObject</text>
</a>
</g>
</g>
<!-- Node24&#45;&gt;Node25 -->
<g id="edge31_Node000024_Node000025" class="edge">
<title>Node24&#45;&gt;Node25</title>
<g id="a_edge31_Node000024_Node000025"><a xlink:title=" ">
<path fill="none" stroke="#63b8ff" d="M1023.07,-46.5C1036.7,-46.5 1050.99,-46.5 1064.56,-46.5"/>
<polygon fill="#63b8ff" stroke="#63b8ff" points="1064.78,-50 1074.78,-46.5 1064.78,-43 1064.78,-50"/>
</a>
</g>
</g>
<!-- Node27 -->
<g id="Node000027" class="node">
<title>Node27</title>
<g id="a_Node000027"><a xlink:href="../../d2/d41/ObjectManagement_8cpp.html#a4eacad131651d21ffbebf4a2108a175c" target="_top" xlink:title=" ">
<polygon fill="white" stroke="#666666" points="1192,-19 1074,-19 1074,0 1192,0 1192,-19"/>
<text text-anchor="middle" x="1133" y="-7" font-family="Helvetica,sans-Serif" font-size="10.00">RegisterGameObject</text>
</a>
</g>
</g>
<!-- Node26&#45;&gt;Node27 -->
<g id="edge33_Node000026_Node000027" class="edge">
<title>Node26&#45;&gt;Node27</title>
<g id="a_edge33_Node000026_Node000027"><a xlink:title=" ">
<path fill="none" stroke="#63b8ff" d="M1024.09,-9.5C1037.07,-9.5 1050.6,-9.5 1063.53,-9.5"/>
<polygon fill="#63b8ff" stroke="#63b8ff" points="1063.74,-13 1073.74,-9.5 1063.74,-6 1063.74,-13"/>
</a>
</g>
</g>
<!-- Node29 -->
<g id="Node000029" class="node">
<title>Node29</title>
<g id="a_Node000029"><a xlink:href="../../d2/d3b/KeyboardHandling_8cpp.html#a2b6d8aae8fe15780544c6ada95a93033" target="_top" xlink:title="Handle a keyboard event.">
<polygon fill="white" stroke="#666666" points="484,-210 359,-210 359,-191 484,-191 484,-210"/>
<text text-anchor="middle" x="421.5" y="-198" font-family="Helvetica,sans-Serif" font-size="10.00">HandleKeyboardEvent</text>
</a>
</g>
</g>
<!-- Node28&#45;&gt;Node29 -->
<g id="edge35_Node000028_Node000029" class="edge">
<title>Node28&#45;&gt;Node29</title>
<g id="a_edge35_Node000028_Node000029"><a xlink:title=" ">
<path fill="none" stroke="#63b8ff" d="M311.39,-200.5C322.87,-200.5 335.83,-200.5 348.7,-200.5"/>
<polygon fill="#63b8ff" stroke="#63b8ff" points="348.97,-204 358.97,-200.5 348.97,-197 348.97,-204"/>
</a>
</g>
</g>
<!-- Node30 -->
<g id="Node000030" class="node">
<title>Node30</title>
<g id="a_Node000030"><a xlink:href="../../de/d47/classKeyboardHandlerBehavior.html#aedfbd0872b0f5331ffece766aaa7b3c2" target="_top" xlink:title="Called when a key is pressed (or held) down.">
<polygon fill="white" stroke="#666666" points="664,-263.5 520,-263.5 520,-233.5 664,-233.5 664,-263.5"/>
<text text-anchor="start" x="528" y="-251.5" font-family="Helvetica,sans-Serif" font-size="10.00">KeyboardHandlerBehavior</text>
<text text-anchor="middle" x="592" y="-240.5" font-family="Helvetica,sans-Serif" font-size="10.00">::OnKeyDown</text>
</a>
</g>
</g>
<!-- Node29&#45;&gt;Node30 -->
<g id="edge36_Node000029_Node000030" class="edge">
<title>Node29&#45;&gt;Node30</title>
<g id="a_edge36_Node000029_Node000030"><a xlink:title=" ">
<path fill="none" stroke="#63b8ff" d="M456.19,-210.1C476.79,-215.97 503.78,-223.65 528.2,-230.61"/>
<polygon fill="#63b8ff" stroke="#63b8ff" points="527.55,-234.06 538.12,-233.44 529.46,-227.33 527.55,-234.06"/>
</a>
</g>
</g>
<!-- Node31 -->
<g id="Node000031" class="node">
<title>Node31</title>
<g id="a_Node000031"><a xlink:href="../../de/d47/classKeyboardHandlerBehavior.html#a2ffe164cb50551f0d20b40753b0d193d" target="_top" xlink:title="Called when a key is released.">
<polygon fill="white" stroke="#666666" points="664,-215.5 520,-215.5 520,-185.5 664,-185.5 664,-215.5"/>
<text text-anchor="start" x="528" y="-203.5" font-family="Helvetica,sans-Serif" font-size="10.00">KeyboardHandlerBehavior</text>
<text text-anchor="middle" x="592" y="-192.5" font-family="Helvetica,sans-Serif" font-size="10.00">::OnKeyUp</text>
</a>
</g>
</g>
<!-- Node29&#45;&gt;Node31 -->
<g id="edge37_Node000029_Node000031" class="edge">
<title>Node29&#45;&gt;Node31</title>
<g id="a_edge37_Node000029_Node000031"><a xlink:title=" ">
<path fill="none" stroke="#63b8ff" d="M484.29,-200.5C492.59,-200.5 501.21,-200.5 509.78,-200.5"/>
<polygon fill="#63b8ff" stroke="#63b8ff" points="509.81,-204 519.81,-200.5 509.81,-197 509.81,-204"/>
</a>
</g>
</g>
<!-- Node32 -->
<g id="Node000032" class="node">
<title>Node32</title>
<g id="a_Node000032"><a xlink:href="../../d9/df7/classGameObjectComponent.html#ade2db51ea6caeaa80b1a80395ffbb779" target="_top" xlink:title=" ">
<polygon fill="white" stroke="#666666" points="659,-167.5 525,-167.5 525,-137.5 659,-137.5 659,-167.5"/>
<text text-anchor="start" x="533" y="-155.5" font-family="Helvetica,sans-Serif" font-size="10.00">GameObjectComponent</text>
<text text-anchor="middle" x="592" y="-144.5" font-family="Helvetica,sans-Serif" font-size="10.00">::OnTick</text>
</a>
</g>
</g>
<!-- Node29&#45;&gt;Node32 -->
<g id="edge38_Node000029_Node000032" class="edge">
<title>Node29&#45;&gt;Node32</title>
<g id="a_edge38_Node000029_Node000032"><a xlink:title=" ">
<path fill="none" stroke="#63b8ff" d="M456.19,-190.9C476.79,-185.03 503.78,-177.35 528.2,-170.39"/>
<polygon fill="#63b8ff" stroke="#63b8ff" points="529.46,-173.67 538.12,-167.56 527.55,-166.94 529.46,-173.67"/>
</a>
</g>
</g>
<!-- Node34&#45;&gt;Node8 -->
<g id="edge42_Node000034_Node000008" class="edge">
<title>Node34&#45;&gt;Node8</title>
<g id="a_edge42_Node000034_Node000008"><a xlink:title=" ">
<path fill="none" stroke="#63b8ff" d="M815.95,-278.06C840.7,-272.68 871.92,-265.9 898.2,-260.19"/>
<polygon fill="#63b8ff" stroke="#63b8ff" points="898.99,-263.6 908.01,-258.06 897.5,-256.76 898.99,-263.6"/>
</a>
</g>
</g>
<!-- Node34&#45;&gt;Node19 -->
<g id="edge43_Node000034_Node000019" class="edge">
<title>Node34&#45;&gt;Node19</title>
<g id="a_edge43_Node000034_Node000019"><a xlink:title=" ">
<path fill="none" stroke="#63b8ff" d="M815.95,-287.02C841.71,-286.73 874.48,-286.36 901.4,-286.06"/>
<polygon fill="#63b8ff" stroke="#63b8ff" points="901.45,-289.56 911.41,-285.95 901.37,-282.56 901.45,-289.56"/>
</a>
</g>
</g>
<!-- Node35 -->
<g id="Node000035" class="node">
<title>Node35</title>
<g id="a_Node000035"><a xlink:href="../../d9/dfa/Init_8cpp.html#a8341384b2aebeb359aded0078e40d3e3" target="_top" xlink:title="Create the game manager object and register it.">
<polygon fill="white" stroke="#666666" points="1013.5,-332 892.5,-332 892.5,-313 1013.5,-313 1013.5,-332"/>
<text text-anchor="middle" x="953" y="-320" font-family="Helvetica,sans-Serif" font-size="10.00">CreateGameManager</text>
</a>
</g>
</g>
<!-- Node34&#45;&gt;Node35 -->
<g id="edge41_Node000034_Node000035" class="edge">
<title>Node34&#45;&gt;Node35</title>
<g id="a_edge41_Node000034_Node000035"><a xlink:title=" ">
<path fill="none" stroke="#63b8ff" d="M815.95,-295.97C839.22,-300.51 868.2,-306.16 893.43,-311.08"/>
<polygon fill="#63b8ff" stroke="#63b8ff" points="892.77,-314.52 903.25,-313 894.11,-307.65 892.77,-314.52"/>
</a>
</g>
</g>
</g>
</svg>
