<?xml version="1.0" encoding="UTF-8" standalone="no"?>
<!DOCTYPE svg PUBLIC "-//W3C//DTD SVG 1.1//EN"
 "http://www.w3.org/Graphics/SVG/1.1/DTD/svg11.dtd">
<!-- Generated by graphviz version 2.43.0 (0)
 -->
<!-- Title: main Pages: 1 -->
<svg width="1472pt" height="362pt"
 viewBox="0.00 0.00 1472.00 362.00" xmlns="http://www.w3.org/2000/svg" xmlns:xlink="http://www.w3.org/1999/xlink">
<g id="graph0" class="graph" transform="scale(1 1) rotate(0) translate(4 358)">
<title>main</title>
<!-- Node1 -->
<g id="node1" class="node">
<title>Node1</title>
<g id="a_node1"><a xlink:title="Entry point of the program.">
<polygon fill="#999999" stroke="#666666" points="41,-204 0,-204 0,-185 41,-185 41,-204"/>
<text text-anchor="middle" x="20.5" y="-192" font-family="Helvetica,sans-Serif" font-size="10.00">main</text>
</a>
</g>
</g>
<!-- Node2 -->
<g id="node2" class="node">
<title>Node2</title>
<g id="a_node2"><a xlink:href="../../df/d0a/main_8cpp.html#abfbee20b241e7d5bbbef9ab36fb201a4" target="_top" xlink:title="The main game loop, runs until an exit event is sensed, and QuitGame is set to true.">
<polygon fill="white" stroke="#666666" points="145,-177 77,-177 77,-158 145,-158 145,-177"/>
<text text-anchor="middle" x="111" y="-165" font-family="Helvetica,sans-Serif" font-size="10.00">gameLoop</text>
</a>
</g>
</g>
<!-- Node1&#45;&gt;Node2 -->
<g id="edge1" class="edge">
<title>Node1&#45;&gt;Node2</title>
<path fill="none" stroke="#63b8ff" d="M41.14,-188.51C49.39,-185.99 59.31,-182.96 69.02,-180"/>
<polygon fill="#63b8ff" stroke="#63b8ff" points="70.05,-183.35 78.6,-177.08 68.01,-176.65 70.05,-183.35"/>
</g>
<!-- Node29 -->
<g id="node29" class="node">
<title>Node29</title>
<g id="a_node29"><a xlink:href="../../d1/d99/Lifecycle_8cpp.html#af0000b43ed614b94179e358d523c9245" target="_top" xlink:title="Initialize the game to the default state.">
<polygon fill="white" stroke="#666666" points="941,-242 853,-242 853,-223 941,-223 941,-242"/>
<text text-anchor="middle" x="897" y="-230" font-family="Helvetica,sans-Serif" font-size="10.00">InitializeGame</text>
</a>
</g>
</g>
<!-- Node1&#45;&gt;Node29 -->
<g id="edge35" class="edge">
<title>Node1&#45;&gt;Node29</title>
<path fill="none" stroke="#63b8ff" d="M41.26,-200.52C78.24,-211.24 160.55,-232.5 231.5,-232.5 231.5,-232.5 231.5,-232.5 554,-232.5 656.01,-232.5 775.14,-232.5 842.46,-232.5"/>
<polygon fill="#63b8ff" stroke="#63b8ff" points="842.81,-236 852.81,-232.5 842.81,-229 842.81,-236"/>
</g>
<!-- Node3 -->
<g id="node3" class="node">
<title>Node3</title>
<g id="a_node3"><a xlink:href="../../df/d0a/main_8cpp.html#ae8fa368bbea5177612cd2cf333448c66" target="_top" xlink:title="Executed every frame.">
<polygon fill="white" stroke="#666666" points="255.5,-118 209.5,-118 209.5,-99 255.5,-99 255.5,-118"/>
<text text-anchor="middle" x="232.5" y="-106" font-family="Helvetica,sans-Serif" font-size="10.00">frame</text>
</a>
</g>
</g>
<!-- Node2&#45;&gt;Node3 -->
<g id="edge2" class="edge">
<title>Node2&#45;&gt;Node3</title>
<path fill="none" stroke="#63b8ff" d="M128.19,-157.93C142,-149.92 162.52,-138.4 181,-129.5 187.01,-126.61 193.52,-123.72 199.81,-121.06"/>
<polygon fill="#63b8ff" stroke="#63b8ff" points="201.5,-124.14 209.39,-117.08 198.82,-117.68 201.5,-124.14"/>
</g>
<!-- Node24 -->
<g id="node24" class="node">
<title>Node24</title>
<g id="a_node24"><a xlink:href="../../de/db0/Events_8cpp.html#a26867d84edb0f52a75127cf66c64c9a9" target="_top" xlink:title="Handles an event that has occoured.">
<polygon fill="white" stroke="#666666" points="272,-158 193,-158 193,-139 272,-139 272,-158"/>
<text text-anchor="middle" x="232.5" y="-146" font-family="Helvetica,sans-Serif" font-size="10.00">HandleEvent</text>
</a>
</g>
</g>
<!-- Node2&#45;&gt;Node24 -->
<g id="edge30" class="edge">
<title>Node2&#45;&gt;Node24</title>
<path fill="none" stroke="#63b8ff" d="M145.29,-162.21C156.95,-160.35 170.3,-158.23 182.95,-156.22"/>
<polygon fill="#63b8ff" stroke="#63b8ff" points="183.57,-159.66 192.9,-154.64 182.47,-152.75 183.57,-159.66"/>
</g>
<!-- Node28 -->
<g id="node28" class="node">
<title>Node28</title>
<g id="a_node28"><a xlink:href="../../d8/d38/Time_8cpp.html#a150f12b48e13e1c14a4e7646137c74a4" target="_top" xlink:title="Update the stored deltatime. Should be executed each frame.">
<polygon fill="white" stroke="#666666" points="284,-195 181,-195 181,-176 284,-176 284,-195"/>
<text text-anchor="middle" x="232.5" y="-183" font-family="Helvetica,sans-Serif" font-size="10.00">UpdateDeltaTime</text>
</a>
</g>
</g>
<!-- Node2&#45;&gt;Node28 -->
<g id="edge34" class="edge">
<title>Node2&#45;&gt;Node28</title>
<path fill="none" stroke="#63b8ff" d="M145.29,-172.51C153.32,-173.72 162.14,-175.05 170.99,-176.39"/>
<polygon fill="#63b8ff" stroke="#63b8ff" points="170.54,-179.86 180.95,-177.89 171.58,-172.94 170.54,-179.86"/>
</g>
<!-- Node4 -->
<g id="node4" class="node">
<title>Node4</title>
<g id="a_node4"><a xlink:href="../../de/dfd/GameManagement_8cpp.html#a522912d67446895b0a03d01837b75a99" target="_top" xlink:title="Iterate over all objects, and update the appropriately, using OnTick() or Component specific methods.">
<polygon fill="white" stroke="#666666" points="427,-105 338,-105 338,-86 427,-86 427,-105"/>
<text text-anchor="middle" x="382.5" y="-93" font-family="Helvetica,sans-Serif" font-size="10.00">UpdateObjects</text>
</a>
</g>
</g>
<!-- Node3&#45;&gt;Node4 -->
<g id="edge3" class="edge">
<title>Node3&#45;&gt;Node4</title>
<path fill="none" stroke="#63b8ff" d="M255.66,-106.55C274.65,-104.89 302.8,-102.41 327.67,-100.23"/>
<polygon fill="#63b8ff" stroke="#63b8ff" points="328.07,-103.71 337.72,-99.35 327.46,-96.73 328.07,-103.71"/>
</g>
<!-- Node5 -->
<g id="node5" class="node">
<title>Node5</title>
<g id="a_node5"><a xlink:href="../../de/dfd/GameManagement_8cpp.html#abb664488d26ac602b11cc22de7243458" target="_top" xlink:title=" ">
<polygon fill="white" stroke="#666666" points="624.5,-105 481.5,-105 481.5,-86 624.5,-86 624.5,-105"/>
<text text-anchor="middle" x="553" y="-93" font-family="Helvetica,sans-Serif" font-size="10.00">HandleComponentUpdate</text>
</a>
</g>
</g>
<!-- Node4&#45;&gt;Node5 -->
<g id="edge4" class="edge">
<title>Node4&#45;&gt;Node5</title>
<path fill="none" stroke="#63b8ff" d="M427.33,-95.5C440.72,-95.5 455.9,-95.5 470.93,-95.5"/>
<polygon fill="#63b8ff" stroke="#63b8ff" points="471.3,-99 481.3,-95.5 471.3,-92 471.3,-99"/>
</g>
<!-- Node6 -->
<g id="node6" class="node">
<title>Node6</title>
<g id="a_node6"><a xlink:href="../../de/dfd/GameManagement_8cpp.html#a95ff1ee6a57e678376b2eae2ef499ab3" target="_top" xlink:title=" ">
<polygon fill="white" stroke="#666666" points="624.5,-64 481.5,-64 481.5,-45 624.5,-45 624.5,-64"/>
<text text-anchor="middle" x="553" y="-52" font-family="Helvetica,sans-Serif" font-size="10.00">WorkThroughFrameQueue</text>
</a>
</g>
</g>
<!-- Node4&#45;&gt;Node6 -->
<g id="edge5" class="edge">
<title>Node4&#45;&gt;Node6</title>
<path fill="none" stroke="#63b8ff" d="M422.58,-85.99C446.53,-80.16 477.38,-72.66 502.96,-66.43"/>
<polygon fill="#63b8ff" stroke="#63b8ff" points="503.95,-69.79 512.84,-64.03 502.3,-62.99 503.95,-69.79"/>
</g>
<!-- Node7 -->
<g id="node7" class="node">
<title>Node7</title>
<g id="a_node7"><a xlink:href="../../de/dfd/GameManagement_8cpp.html#ad487b4c14d5f4bf65d056f5c90ac4d72" target="_top" xlink:title=" ">
<polygon fill="white" stroke="#666666" points="802,-20 662,-20 662,-1 802,-1 802,-20"/>
<text text-anchor="middle" x="732" y="-8" font-family="Helvetica,sans-Serif" font-size="10.00">DestroyEnqueuedObjects</text>
</a>
</g>
</g>
<!-- Node6&#45;&gt;Node7 -->
<g id="edge6" class="edge">
<title>Node6&#45;&gt;Node7</title>
<path fill="none" stroke="#63b8ff" d="M592.41,-44.95C618.96,-38.35 654.5,-29.52 682.93,-22.45"/>
<polygon fill="#63b8ff" stroke="#63b8ff" points="683.81,-25.84 692.67,-20.03 682.12,-19.04 683.81,-25.84"/>
</g>
<!-- Node9 -->
<g id="node9" class="node">
<title>Node9</title>
<g id="a_node9"><a xlink:href="../../de/dfd/GameManagement_8cpp.html#a25053f13bc5fe6ea1caf5f343cbb30b8" target="_top" xlink:title=" ">
<polygon fill="white" stroke="#666666" points="803,-57 661,-57 661,-38 803,-38 803,-57"/>
<text text-anchor="middle" x="732" y="-45" font-family="Helvetica,sans-Serif" font-size="10.00">RegisterEnqueuedObjects</text>
</a>
</g>
</g>
<!-- Node6&#45;&gt;Node9 -->
<g id="edge8" class="edge">
<title>Node6&#45;&gt;Node9</title>
<path fill="none" stroke="#63b8ff" d="M624.72,-51.7C633.3,-51.36 642.11,-51.02 650.82,-50.67"/>
<polygon fill="#63b8ff" stroke="#63b8ff" points="651.12,-54.16 660.97,-50.27 650.84,-47.17 651.12,-54.16"/>
</g>
<!-- Node11 -->
<g id="node11" class="node">
<title>Node11</title>
<g id="a_node11"><a xlink:href="../../de/dfd/GameManagement_8cpp.html#a2877bc3a946eb46940e5cdedcaf4e3f6" target="_top" xlink:title=" ">
<polygon fill="white" stroke="#666666" points="794,-149 670,-149 670,-130 794,-130 794,-149"/>
<text text-anchor="middle" x="732" y="-137" font-family="Helvetica,sans-Serif" font-size="10.00">ResetGameIfRequired</text>
</a>
</g>
</g>
<!-- Node6&#45;&gt;Node11 -->
<g id="edge10" class="edge">
<title>Node6&#45;&gt;Node11</title>
<path fill="none" stroke="#63b8ff" d="M590.73,-64.08C601.93,-67.48 614.15,-71.68 625,-76.5 655.33,-89.99 687.81,-110.25 708.7,-124.13"/>
<polygon fill="#63b8ff" stroke="#63b8ff" points="706.92,-127.15 717.17,-129.83 710.83,-121.34 706.92,-127.15"/>
</g>
<!-- Node8 -->
<g id="node8" class="node">
<title>Node8</title>
<g id="a_node8"><a xlink:href="../../de/dfd/GameManagement_8cpp.html#abc0ac24a5725e21af2dcc9eb0d0c40ae" target="_top" xlink:title="Immediately destroy a GameObject.">
<polygon fill="white" stroke="#666666" points="955,-19 839,-19 839,0 955,0 955,-19"/>
<text text-anchor="middle" x="897" y="-7" font-family="Helvetica,sans-Serif" font-size="10.00">DestroyGameObject</text>
</a>
</g>
</g>
<!-- Node7&#45;&gt;Node8 -->
<g id="edge7" class="edge">
<title>Node7&#45;&gt;Node8</title>
<path fill="none" stroke="#63b8ff" d="M802.13,-10.08C810.92,-10.02 819.91,-9.97 828.67,-9.91"/>
<polygon fill="#63b8ff" stroke="#63b8ff" points="828.86,-13.41 838.83,-9.85 828.81,-6.41 828.86,-13.41"/>
</g>
<!-- Node10 -->
<g id="node10" class="node">
<title>Node10</title>
<g id="a_node10"><a xlink:href="../../de/dfd/GameManagement_8cpp.html#a40f7d4339a01b155a82745c5bd8ead6a" target="_top" xlink:title="Directly register a gameobject. Will push the object into the GameObjects vector.">
<polygon fill="white" stroke="#666666" points="1464,-188 1346,-188 1346,-169 1464,-169 1464,-188"/>
<text text-anchor="middle" x="1405" y="-176" font-family="Helvetica,sans-Serif" font-size="10.00">RegisterGameObject</text>
</a>
</g>
</g>
<!-- Node9&#45;&gt;Node10 -->
<g id="edge9" class="edge">
<title>Node9&#45;&gt;Node10</title>
<path fill="none" stroke="#63b8ff" d="M803.01,-42.81C936.66,-34.98 1222.63,-24 1310,-66.5 1351.09,-86.49 1380.87,-133.74 1394.93,-160.03"/>
<polygon fill="#63b8ff" stroke="#63b8ff" points="1391.85,-161.7 1399.54,-168.98 1398.07,-158.49 1391.85,-161.7"/>
</g>
<!-- Node12 -->
<g id="node12" class="node">
<title>Node12</title>
<g id="a_node12"><a xlink:href="../../d1/d99/Lifecycle_8cpp.html#a7be4f604c1baeb7cac84122a7f2438cf" target="_top" xlink:title="Reset the game to the initial state.">
<polygon fill="white" stroke="#666666" points="934,-205 860,-205 860,-186 934,-186 934,-205"/>
<text text-anchor="middle" x="897" y="-193" font-family="Helvetica,sans-Serif" font-size="10.00">ResetGame</text>
</a>
</g>
</g>
<!-- Node11&#45;&gt;Node12 -->
<g id="edge11" class="edge">
<title>Node11&#45;&gt;Node12</title>
<path fill="none" stroke="#63b8ff" d="M761.02,-149.13C788.01,-158.4 829,-172.48 858.73,-182.7"/>
<polygon fill="#63b8ff" stroke="#63b8ff" points="857.75,-186.06 868.34,-186 860.02,-179.44 857.75,-186.06"/>
</g>
<!-- Node13 -->
<g id="node13" class="node">
<title>Node13</title>
<g id="a_node13"><a xlink:href="../../d9/dfa/Init_8cpp.html#aaa64e8fd06230fa14e507cef71a3217d" target="_top" xlink:title="Create the initial gameobjects required for the game.">
<polygon fill="white" stroke="#666666" points="1134,-205 991,-205 991,-186 1134,-186 1134,-205"/>
<text text-anchor="middle" x="1062.5" y="-193" font-family="Helvetica,sans-Serif" font-size="10.00">CreateInitialGameObjects</text>
</a>
</g>
</g>
<!-- Node12&#45;&gt;Node13 -->
<g id="edge12" class="edge">
<title>Node12&#45;&gt;Node13</title>
<path fill="none" stroke="#63b8ff" d="M934.29,-195.5C948.08,-195.5 964.4,-195.5 980.67,-195.5"/>
<polygon fill="#63b8ff" stroke="#63b8ff" points="980.77,-199 990.77,-195.5 980.77,-192 980.77,-199"/>
</g>
<!-- Node23 -->
<g id="node23" class="node">
<title>Node23</title>
<g id="a_node23"><a xlink:href="../../de/dfd/GameManagement_8cpp.html#ae5ee3f705fc506491ca2b0c7cf059c75" target="_top" xlink:title="Initialize all gameobjects and call the OnStart() methods.">
<polygon fill="white" stroke="#666666" points="1104,-242 1021,-242 1021,-223 1104,-223 1104,-242"/>
<text text-anchor="middle" x="1062.5" y="-230" font-family="Helvetica,sans-Serif" font-size="10.00">OnGameStart</text>
</a>
</g>
</g>
<!-- Node12&#45;&gt;Node23 -->
<g id="edge29" class="edge">
<title>Node12&#45;&gt;Node23</title>
<path fill="none" stroke="#63b8ff" d="M934.29,-203.71C956.78,-208.8 986,-215.41 1010.76,-221.02"/>
<polygon fill="#63b8ff" stroke="#63b8ff" points="1010.19,-224.48 1020.72,-223.27 1011.74,-217.65 1010.19,-224.48"/>
</g>
<!-- Node14 -->
<g id="node14" class="node">
<title>Node14</title>
<g id="a_node14"><a xlink:href="../../d9/dfa/Init_8cpp.html#a3ff595c2af791c369e2318510062ce14" target="_top" xlink:title="Create the coffee meter bar.">
<polygon fill="white" stroke="#666666" points="1294.5,-95 1185.5,-95 1185.5,-76 1294.5,-76 1294.5,-95"/>
<text text-anchor="middle" x="1240" y="-83" font-family="Helvetica,sans-Serif" font-size="10.00">CreateCoffeeMeter</text>
</a>
</g>
</g>
<!-- Node13&#45;&gt;Node14 -->
<g id="edge13" class="edge">
<title>Node13&#45;&gt;Node14</title>
<path fill="none" stroke="#63b8ff" d="M1071.83,-185.8C1088.52,-167.01 1128.04,-125.55 1170,-103.5 1173.54,-101.64 1177.28,-99.97 1181.11,-98.46"/>
<polygon fill="#63b8ff" stroke="#63b8ff" points="1182.53,-101.67 1190.79,-95.04 1180.2,-95.07 1182.53,-101.67"/>
</g>
<!-- Node15 -->
<g id="node15" class="node">
<title>Node15</title>
<g id="a_node15"><a xlink:href="../../d9/dfa/Init_8cpp.html#a1bfb628b6cd503e396bae0796f2051c1" target="_top" xlink:title="Create the icon next to the coffee meter.">
<polygon fill="white" stroke="#666666" points="1304.5,-354 1175.5,-354 1175.5,-335 1304.5,-335 1304.5,-354"/>
<text text-anchor="middle" x="1240" y="-342" font-family="Helvetica,sans-Serif" font-size="10.00">CreateCoffeeMeterIcon</text>
</a>
</g>
</g>
<!-- Node13&#45;&gt;Node15 -->
<g id="edge15" class="edge">
<title>Node13&#45;&gt;Node15</title>
<path fill="none" stroke="#63b8ff" d="M1120.16,-205.09C1125.23,-207.56 1129.96,-210.65 1134,-214.5 1171.84,-250.58 1132.01,-290.57 1170,-326.5 1171.12,-327.56 1172.3,-328.57 1173.53,-329.51"/>
<polygon fill="#63b8ff" stroke="#63b8ff" points="1171.88,-332.61 1182.21,-334.95 1175.59,-326.67 1171.88,-332.61"/>
</g>
<!-- Node17 -->
<g id="node17" class="node">
<title>Node17</title>
<g id="a_node17"><a xlink:href="../../d9/dfa/Init_8cpp.html#a7577908172d93807ef67f163f851fe5e" target="_top" xlink:title="Create the floor and register it.">
<polygon fill="white" stroke="#666666" points="1277,-317 1203,-317 1203,-298 1277,-298 1277,-317"/>
<text text-anchor="middle" x="1240" y="-305" font-family="Helvetica,sans-Serif" font-size="10.00">CreateFloor</text>
</a>
</g>
</g>
<!-- Node13&#45;&gt;Node17 -->
<g id="edge18" class="edge">
<title>Node13&#45;&gt;Node17</title>
<path fill="none" stroke="#63b8ff" d="M1118.23,-205.05C1123.92,-207.51 1129.32,-210.61 1134,-214.5 1162.44,-238.13 1141.47,-265.99 1170,-289.5 1176.66,-294.99 1184.81,-298.82 1193.15,-301.5"/>
<polygon fill="#63b8ff" stroke="#63b8ff" points="1192.37,-304.91 1202.94,-304.13 1194.19,-298.15 1192.37,-304.91"/>
</g>
<!-- Node18 -->
<g id="node18" class="node">
<title>Node18</title>
<g id="a_node18"><a xlink:href="../../d9/dfa/Init_8cpp.html#a8ad8206fa2846739c5e76ce97b6b2783" target="_top" xlink:title="Create the score counter and register it.">
<polygon fill="white" stroke="#666666" points="1297,-243 1183,-243 1183,-224 1297,-224 1297,-243"/>
<text text-anchor="middle" x="1240" y="-231" font-family="Helvetica,sans-Serif" font-size="10.00">CreateScoreCounter</text>
</a>
</g>
</g>
<!-- Node13&#45;&gt;Node18 -->
<g id="edge20" class="edge">
<title>Node13&#45;&gt;Node18</title>
<path fill="none" stroke="#63b8ff" d="M1107.79,-205.09C1131.26,-210.17 1160.28,-216.46 1185.06,-221.82"/>
<polygon fill="#63b8ff" stroke="#63b8ff" points="1184.52,-225.28 1195.03,-223.98 1186,-218.44 1184.52,-225.28"/>
</g>
<!-- Node19 -->
<g id="node19" class="node">
<title>Node19</title>
<g id="a_node19"><a xlink:href="../../d9/dfa/Init_8cpp.html#ac07b948048071cbf70f69aa9d691a93f" target="_top" xlink:title="Set the window background to white.">
<polygon fill="white" stroke="#666666" points="1310,-280 1170,-280 1170,-261 1310,-261 1310,-280"/>
<text text-anchor="middle" x="1240" y="-268" font-family="Helvetica,sans-Serif" font-size="10.00">SetupWindowbackground</text>
</a>
</g>
</g>
<!-- Node13&#45;&gt;Node19 -->
<g id="edge22" class="edge">
<title>Node13&#45;&gt;Node19</title>
<path fill="none" stroke="#63b8ff" d="M1112.71,-205.01C1120.13,-207.49 1127.47,-210.6 1134,-214.5 1153.98,-226.42 1149.97,-240.66 1170,-252.5 1172.97,-254.25 1176.11,-255.84 1179.34,-257.27"/>
<polygon fill="#63b8ff" stroke="#63b8ff" points="1178.08,-260.54 1188.67,-260.92 1180.63,-254.02 1178.08,-260.54"/>
</g>
<!-- Node20 -->
<g id="node20" class="node">
<title>Node20</title>
<g id="a_node20"><a xlink:href="../../d9/dfa/Init_8cpp.html#a374cb6f303f72b5af970063ff1318f24" target="_top" xlink:title="Create the left wall and register it.">
<polygon fill="white" stroke="#666666" points="1284,-206 1196,-206 1196,-187 1284,-187 1284,-206"/>
<text text-anchor="middle" x="1240" y="-194" font-family="Helvetica,sans-Serif" font-size="10.00">SpawnLeftWall</text>
</a>
</g>
</g>
<!-- Node13&#45;&gt;Node20 -->
<g id="edge23" class="edge">
<title>Node13&#45;&gt;Node20</title>
<path fill="none" stroke="#63b8ff" d="M1134.12,-195.9C1151.24,-196 1169.25,-196.1 1185.43,-196.19"/>
<polygon fill="#63b8ff" stroke="#63b8ff" points="1185.75,-199.7 1195.77,-196.25 1185.79,-192.7 1185.75,-199.7"/>
</g>
<!-- Node21 -->
<g id="node21" class="node">
<title>Node21</title>
<g id="a_node21"><a xlink:href="../../d9/dfa/Init_8cpp.html#aa021dfea28868af5fdc6eb97fdf11395" target="_top" xlink:title="Create the player and register it.">
<polygon fill="white" stroke="#666666" points="1280,-169 1200,-169 1200,-150 1280,-150 1280,-169"/>
<text text-anchor="middle" x="1240" y="-157" font-family="Helvetica,sans-Serif" font-size="10.00">SpawnPlayer</text>
</a>
</g>
</g>
<!-- Node13&#45;&gt;Node21 -->
<g id="edge25" class="edge">
<title>Node13&#45;&gt;Node21</title>
<path fill="none" stroke="#63b8ff" d="M1110.07,-185.95C1134.7,-180.89 1164.94,-174.69 1189.93,-169.57"/>
<polygon fill="#63b8ff" stroke="#63b8ff" points="1190.85,-172.95 1199.94,-167.51 1189.44,-166.09 1190.85,-172.95"/>
</g>
<!-- Node22 -->
<g id="node22" class="node">
<title>Node22</title>
<g id="a_node22"><a xlink:href="../../d9/dfa/Init_8cpp.html#a0e2d0321a787eb9a3b705489c8f2b86b" target="_top" xlink:title="Create the right wall and register it.">
<polygon fill="white" stroke="#666666" points="1287.5,-132 1192.5,-132 1192.5,-113 1287.5,-113 1287.5,-132"/>
<text text-anchor="middle" x="1240" y="-120" font-family="Helvetica,sans-Serif" font-size="10.00">SpawnRightWall</text>
</a>
</g>
</g>
<!-- Node13&#45;&gt;Node22 -->
<g id="edge27" class="edge">
<title>Node13&#45;&gt;Node22</title>
<path fill="none" stroke="#63b8ff" d="M1079.22,-185.97C1099.57,-173.97 1136.38,-153.38 1170,-140.5 1175.2,-138.51 1180.71,-136.66 1186.25,-134.96"/>
<polygon fill="#63b8ff" stroke="#63b8ff" points="1187.57,-138.23 1196.2,-132.09 1185.62,-131.5 1187.57,-138.23"/>
</g>
<!-- Node14&#45;&gt;Node10 -->
<g id="edge14" class="edge">
<title>Node14&#45;&gt;Node10</title>
<path fill="none" stroke="#63b8ff" d="M1288.36,-95.03C1295.8,-97.33 1303.25,-100.12 1310,-103.5 1340.27,-118.66 1369.91,-144.71 1387.57,-161.77"/>
<polygon fill="#63b8ff" stroke="#63b8ff" points="1385.23,-164.37 1394.8,-168.9 1390.14,-159.39 1385.23,-164.37"/>
</g>
<!-- Node15&#45;&gt;Node10 -->
<g id="edge17" class="edge">
<title>Node15&#45;&gt;Node10</title>
<path fill="none" stroke="#63b8ff" d="M1294.48,-334.95C1300,-332.7 1305.3,-329.93 1310,-326.5 1355.96,-292.98 1384.91,-229.54 1397.19,-197.71"/>
<polygon fill="#63b8ff" stroke="#63b8ff" points="1400.52,-198.82 1400.72,-188.22 1393.96,-196.38 1400.52,-198.82"/>
</g>
<!-- Node16 -->
<g id="node16" class="node">
<title>Node16</title>
<g id="a_node16"><a xlink:href="../../d1/da9/AssetLoading_8cpp.html#a07739f40c13743b2dfceefb659d6d455" target="_top" xlink:title=" ">
<polygon fill="white" stroke="#666666" points="1446,-354 1364,-354 1364,-335 1446,-335 1446,-354"/>
<text text-anchor="middle" x="1405" y="-342" font-family="Helvetica,sans-Serif" font-size="10.00">GetAssetPath</text>
</a>
</g>
</g>
<!-- Node15&#45;&gt;Node16 -->
<g id="edge16" class="edge">
<title>Node15&#45;&gt;Node16</title>
<path fill="none" stroke="#63b8ff" d="M1304.95,-344.5C1321.04,-344.5 1338.09,-344.5 1353.42,-344.5"/>
<polygon fill="#63b8ff" stroke="#63b8ff" points="1353.73,-348 1363.73,-344.5 1353.73,-341 1353.73,-348"/>
</g>
<!-- Node17&#45;&gt;Node10 -->
<g id="edge19" class="edge">
<title>Node17&#45;&gt;Node10</title>
<path fill="none" stroke="#63b8ff" d="M1277.09,-302.44C1288.23,-299.77 1300.15,-295.7 1310,-289.5 1347.74,-265.75 1378.13,-221.96 1393.36,-197.07"/>
<polygon fill="#63b8ff" stroke="#63b8ff" points="1396.51,-198.63 1398.61,-188.25 1390.49,-195.06 1396.51,-198.63"/>
</g>
<!-- Node18&#45;&gt;Node10 -->
<g id="edge21" class="edge">
<title>Node18&#45;&gt;Node10</title>
<path fill="none" stroke="#63b8ff" d="M1281.01,-223.93C1290.57,-221.41 1300.7,-218.53 1310,-215.5 1331.1,-208.62 1354.32,-199.5 1372.39,-192.04"/>
<polygon fill="#63b8ff" stroke="#63b8ff" points="1373.98,-195.17 1381.86,-188.08 1371.29,-188.71 1373.98,-195.17"/>
</g>
<!-- Node20&#45;&gt;Node10 -->
<g id="edge24" class="edge">
<title>Node20&#45;&gt;Node10</title>
<path fill="none" stroke="#63b8ff" d="M1284.25,-191.72C1300.02,-189.98 1318.26,-187.97 1335.67,-186.05"/>
<polygon fill="#63b8ff" stroke="#63b8ff" points="1336.25,-189.5 1345.81,-184.93 1335.48,-182.55 1336.25,-189.5"/>
</g>
<!-- Node21&#45;&gt;Node10 -->
<g id="edge26" class="edge">
<title>Node21&#45;&gt;Node10</title>
<path fill="none" stroke="#63b8ff" d="M1280.04,-164.05C1296.73,-166 1316.71,-168.32 1335.7,-170.54"/>
<polygon fill="#63b8ff" stroke="#63b8ff" points="1335.49,-174.04 1345.83,-171.72 1336.3,-167.08 1335.49,-174.04"/>
</g>
<!-- Node22&#45;&gt;Node10 -->
<g id="edge28" class="edge">
<title>Node22&#45;&gt;Node10</title>
<path fill="none" stroke="#63b8ff" d="M1281.03,-132.01C1290.59,-134.54 1300.72,-137.43 1310,-140.5 1331.53,-147.63 1355.2,-157.21 1373.4,-164.96"/>
<polygon fill="#63b8ff" stroke="#63b8ff" points="1372.07,-168.2 1382.64,-168.94 1374.84,-161.77 1372.07,-168.2"/>
</g>
<!-- Node25 -->
<g id="node25" class="node">
<title>Node25</title>
<g id="a_node25"><a xlink:href="../../d2/d3b/KeyboardHandling_8cpp.html#a2b6d8aae8fe15780544c6ada95a93033" target="_top" xlink:title="Handle a keyboard event.">
<polygon fill="white" stroke="#666666" points="445,-158 320,-158 320,-139 445,-139 445,-158"/>
<text text-anchor="middle" x="382.5" y="-146" font-family="Helvetica,sans-Serif" font-size="10.00">HandleKeyboardEvent</text>
</a>
</g>
</g>
<!-- Node24&#45;&gt;Node25 -->
<g id="edge31" class="edge">
<title>Node24&#45;&gt;Node25</title>
<path fill="none" stroke="#63b8ff" d="M272.39,-148.5C283.87,-148.5 296.83,-148.5 309.7,-148.5"/>
<polygon fill="#63b8ff" stroke="#63b8ff" points="309.97,-152 319.97,-148.5 309.97,-145 309.97,-152"/>
</g>
<!-- Node26 -->
<g id="node26" class="node">
<title>Node26</title>
<g id="a_node26"><a xlink:href="../../de/d47/classKeyboardHandlerBehavior.html#aedfbd0872b0f5331ffece766aaa7b3c2" target="_top" xlink:title="Called when a key is pressed (or held) down.">
<polygon fill="white" stroke="#666666" points="625,-155.5 481,-155.5 481,-125.5 625,-125.5 625,-155.5"/>
<text text-anchor="start" x="489" y="-143.5" font-family="Helvetica,sans-Serif" font-size="10.00">KeyboardHandlerBehavior</text>
<text text-anchor="middle" x="553" y="-132.5" font-family="Helvetica,sans-Serif" font-size="10.00">::OnKeyDown</text>
</a>
</g>
</g>
<!-- Node25&#45;&gt;Node26 -->
<g id="edge32" class="edge">
<title>Node25&#45;&gt;Node26</title>
<path fill="none" stroke="#63b8ff" d="M445.29,-145.57C453.59,-145.17 462.21,-144.76 470.78,-144.36"/>
<polygon fill="#63b8ff" stroke="#63b8ff" points="470.99,-147.85 480.81,-143.88 470.66,-140.86 470.99,-147.85"/>
</g>
<!-- Node27 -->
<g id="node27" class="node">
<title>Node27</title>
<g id="a_node27"><a xlink:href="../../de/d47/classKeyboardHandlerBehavior.html#a2ffe164cb50551f0d20b40753b0d193d" target="_top" xlink:title="Called when a key is released.">
<polygon fill="white" stroke="#666666" points="625,-203.5 481,-203.5 481,-173.5 625,-173.5 625,-203.5"/>
<text text-anchor="start" x="489" y="-191.5" font-family="Helvetica,sans-Serif" font-size="10.00">KeyboardHandlerBehavior</text>
<text text-anchor="middle" x="553" y="-180.5" font-family="Helvetica,sans-Serif" font-size="10.00">::OnKeyUp</text>
</a>
</g>
</g>
<!-- Node25&#45;&gt;Node27 -->
<g id="edge33" class="edge">
<title>Node25&#45;&gt;Node27</title>
<path fill="none" stroke="#63b8ff" d="M423.86,-158.08C440.36,-162 459.97,-166.65 478.83,-171.13"/>
<polygon fill="#63b8ff" stroke="#63b8ff" points="478.07,-174.55 488.61,-173.45 479.69,-167.74 478.07,-174.55"/>
</g>
<!-- Node29&#45;&gt;Node13 -->
<g id="edge37" class="edge">
<title>Node29&#45;&gt;Node13</title>
<path fill="none" stroke="#63b8ff" d="M940.11,-222.97C961.19,-218.2 986.92,-212.38 1009.26,-207.32"/>
<polygon fill="#63b8ff" stroke="#63b8ff" points="1010.27,-210.68 1019.25,-205.06 1008.73,-203.85 1010.27,-210.68"/>
</g>
<!-- Node29&#45;&gt;Node23 -->
<g id="edge38" class="edge">
<title>Node29&#45;&gt;Node23</title>
<path fill="none" stroke="#63b8ff" d="M941.39,-232.5C962.62,-232.5 988.32,-232.5 1010.49,-232.5"/>
<polygon fill="#63b8ff" stroke="#63b8ff" points="1010.73,-236 1020.73,-232.5 1010.73,-229 1010.73,-236"/>
</g>
<!-- Node30 -->
<g id="node30" class="node">
<title>Node30</title>
<g id="a_node30"><a xlink:href="../../d9/dfa/Init_8cpp.html#a8341384b2aebeb359aded0078e40d3e3" target="_top" xlink:title="Create the game manager object and register it.">
<polygon fill="white" stroke="#666666" points="1123,-279 1002,-279 1002,-260 1123,-260 1123,-279"/>
<text text-anchor="middle" x="1062.5" y="-267" font-family="Helvetica,sans-Serif" font-size="10.00">CreateGameManager</text>
</a>
</g>
</g>
<!-- Node29&#45;&gt;Node30 -->
<g id="edge36" class="edge">
<title>Node29&#45;&gt;Node30</title>
<path fill="none" stroke="#63b8ff" d="M940.11,-242.03C961.19,-246.8 986.92,-252.62 1009.26,-257.68"/>
<polygon fill="#63b8ff" stroke="#63b8ff" points="1008.73,-261.15 1019.25,-259.94 1010.27,-254.32 1008.73,-261.15"/>
</g>
</g>
</svg>
