<?xml version="1.0" encoding="UTF-8" standalone="no"?>
<!DOCTYPE svg PUBLIC "-//W3C//DTD SVG 1.1//EN"
 "http://www.w3.org/Graphics/SVG/1.1/DTD/svg11.dtd">
<!-- Generated by graphviz version 2.43.0 (0)
 -->
<!-- Title: frame Pages: 1 -->
<!--zoomable 343 -->

<svg id="main" version="1.1" xmlns="http://www.w3.org/2000/svg" xmlns:xlink="http://www.w3.org/1999/xlink" xml:space="preserve" onload="init(evt)">

<style type="text/css"><![CDATA[
.node, .edge {opacity: 0.7;}
.node.selected, .edge.selected {opacity: 1;}
.edge:hover path { stroke: red; }
.edge:hover polygon { stroke: red; fill: red; }
]]></style>

<defs>
  <circle id="rim" cx="0" cy="0" r="7"/>
  <circle id="rim2" cx="0" cy="0" r="3.5"/>
  <g id="zoomPlus">
    <use xlink:href="#rim" fill="#404040"><set attributeName="fill" to="#808080" begin="zoomplus.mouseover" end="zoomplus.mouseout"/></use>
    <path d="M-4,0h8M0,-4v8" fill="none" stroke="white" stroke-width="1.5" pointer-events="none"/>
  </g>
  <g id="zoomMin">
    <use xlink:href="#rim" fill="#404040"><set attributeName="fill" to="#808080" begin="zoomminus.mouseover" end="zoomminus.mouseout"/></use>
    <path d="M-4,0h8" fill="none" stroke="white" stroke-width="1.5" pointer-events="none"/>
  </g>
  <g id="arrowUp" transform="translate(30 24)">
    <use xlink:href="#rim"/>
    <path pointer-events="none" fill="none" stroke="white" stroke-width="1.5" d="M0,-3.0v7 M-2.5,-0.5L0,-3.0L2.5,-0.5"/>
  </g>
  <g id="arrowRight" transform="rotate(90) translate(36 -43)">
    <use xlink:href="#rim"/>
    <path pointer-events="none" fill="none" stroke="white" stroke-width="1.5" d="M0,-3.0v7 M-2.5,-0.5L0,-3.0L2.5,-0.5"/>
  </g>
  <g id="arrowDown" transform="rotate(180) translate(-30 -48)">
    <use xlink:href="#rim"/>
    <path pointer-events="none" fill="none" stroke="white" stroke-width="1.5" d="M0,-3.0v7 M-2.5,-0.5L0,-3.0L2.5,-0.5"/>
  </g>
  <g id="arrowLeft" transform="rotate(270) translate(-36 17)">
    <use xlink:href="#rim"/>
    <path pointer-events="none" fill="none" stroke="white" stroke-width="1.5" d="M0,-3.0v7 M-2.5,-0.5L0,-3.0L2.5,-0.5"/>
  </g>
  <g id="resetDef">
    <use xlink:href="#rim2" fill="#404040"><set attributeName="fill" to="#808080" begin="reset.mouseover" end="reset.mouseout"/></use>
  </g>
</defs>
<script type="application/ecmascript">
var viewWidth = 1226;
var viewHeight = 343;
var sectionId = 'dynsection-1';
</script>
<script type="application/ecmascript" xlink:href="../../svg.min.js"/>
<svg id="graph" class="graph">
<g id="viewport">
<title>frame</title>
<!-- Node1 -->
<g id="Node000001" class="node">
<title>Node1</title>
<g id="a_Node000001"><a xlink:title="Executed every frame.">
<polygon fill="#999999" stroke="#666666" points="46,-315 0,-315 0,-296 46,-296 46,-315"/>
<text text-anchor="middle" x="23" y="-303" font-family="Helvetica,sans-Serif" font-size="10.00">frame</text>
</a>
</g>
</g>
<!-- Node2 -->
<g id="Node000002" class="node">
<title>Node2</title>
<g id="a_Node000002"><a xlink:href="../../de/dfd/GameManagement_8cpp.html#a522912d67446895b0a03d01837b75a99" target="_top" xlink:title="Iterate over all objects, and update the appropriately, using OnTick() or Component specific methods.">
<polygon fill="white" stroke="#666666" points="171,-315 82,-315 82,-296 171,-296 171,-315"/>
<text text-anchor="middle" x="126.5" y="-303" font-family="Helvetica,sans-Serif" font-size="10.00">UpdateObjects</text>
</a>
</g>
</g>
<!-- Node1&#45;&gt;Node2 -->
<g id="edge1_Node000001_Node000002" class="edge">
<title>Node1&#45;&gt;Node2</title>
<g id="a_edge1_Node000001_Node000002"><a xlink:title=" ">
<path fill="none" stroke="#63b8ff" d="M46.02,-305.5C53.65,-305.5 62.56,-305.5 71.61,-305.5"/>
<polygon fill="#63b8ff" stroke="#63b8ff" points="71.82,-309 81.82,-305.5 71.82,-302 71.82,-309"/>
</a>
</g>
</g>
<!-- Node3 -->
<g id="Node000003" class="node">
<title>Node3</title>
<g id="a_Node000003"><a xlink:href="../../de/dfd/GameManagement_8cpp.html#abb664488d26ac602b11cc22de7243458" target="_top" xlink:title=" ">
<polygon fill="white" stroke="#666666" points="350,-334 207,-334 207,-315 350,-315 350,-334"/>
<text text-anchor="middle" x="278.5" y="-322" font-family="Helvetica,sans-Serif" font-size="10.00">HandleComponentUpdate</text>
</a>
</g>
</g>
<!-- Node2&#45;&gt;Node3 -->
<g id="edge2_Node000002_Node000003" class="edge">
<title>Node2&#45;&gt;Node3</title>
<g id="a_edge2_Node000002_Node000003"><a xlink:title=" ">
<path fill="none" stroke="#63b8ff" d="M171.29,-311.05C179.39,-312.07 188.09,-313.17 196.89,-314.29"/>
<polygon fill="#63b8ff" stroke="#63b8ff" points="196.48,-317.77 206.85,-315.55 197.36,-310.82 196.48,-317.77"/>
</a>
</g>
</g>
<!-- Node4 -->
<g id="Node000004" class="node">
<title>Node4</title>
<g id="a_Node000004"><a xlink:href="../../de/dfd/GameManagement_8cpp.html#a95ff1ee6a57e678376b2eae2ef499ab3" target="_top" xlink:title=" ">
<polygon fill="white" stroke="#666666" points="350,-297 207,-297 207,-278 350,-278 350,-297"/>
<text text-anchor="middle" x="278.5" y="-285" font-family="Helvetica,sans-Serif" font-size="10.00">WorkThroughFrameQueue</text>
</a>
</g>
</g>
<!-- Node2&#45;&gt;Node4 -->
<g id="edge3_Node000002_Node000004" class="edge">
<title>Node2&#45;&gt;Node4</title>
<g id="a_edge3_Node000002_Node000004"><a xlink:title=" ">
<path fill="none" stroke="#63b8ff" d="M171.29,-300.25C179.39,-299.27 188.09,-298.23 196.89,-297.17"/>
<polygon fill="#63b8ff" stroke="#63b8ff" points="197.33,-300.65 206.85,-295.98 196.5,-293.7 197.33,-300.65"/>
</a>
</g>
</g>
<!-- Node5 -->
<g id="Node000005" class="node">
<title>Node5</title>
<g id="a_Node000005"><a xlink:href="../../de/dfd/GameManagement_8cpp.html#ad487b4c14d5f4bf65d056f5c90ac4d72" target="_top" xlink:title=" ">
<polygon fill="white" stroke="#666666" points="526,-335 386,-335 386,-316 526,-316 526,-335"/>
<text text-anchor="middle" x="456" y="-323" font-family="Helvetica,sans-Serif" font-size="10.00">DestroyEnqueuedObjects</text>
</a>
</g>
</g>
<!-- Node4&#45;&gt;Node5 -->
<g id="edge4_Node000004_Node000005" class="edge">
<title>Node4&#45;&gt;Node5</title>
<g id="a_edge4_Node000004_Node000005"><a xlink:title=" ">
<path fill="none" stroke="#63b8ff" d="M323.79,-297.09C347.26,-302.17 376.28,-308.46 401.06,-313.82"/>
<polygon fill="#63b8ff" stroke="#63b8ff" points="400.52,-317.28 411.03,-315.98 402,-310.44 400.52,-317.28"/>
</a>
</g>
</g>
<!-- Node7 -->
<g id="Node000007" class="node">
<title>Node7</title>
<g id="a_Node000007"><a xlink:href="../../de/dfd/GameManagement_8cpp.html#a25053f13bc5fe6ea1caf5f343cbb30b8" target="_top" xlink:title=" ">
<polygon fill="white" stroke="#666666" points="704,-297 562,-297 562,-278 704,-278 704,-297"/>
<text text-anchor="middle" x="633" y="-285" font-family="Helvetica,sans-Serif" font-size="10.00">RegisterEnqueuedObjects</text>
</a>
</g>
</g>
<!-- Node4&#45;&gt;Node7 -->
<g id="edge6_Node000004_Node000007" class="edge">
<title>Node4&#45;&gt;Node7</title>
<g id="a_edge6_Node000004_Node000007"><a xlink:title=" ">
<path fill="none" stroke="#63b8ff" d="M350.41,-287.5C408.57,-287.5 490.89,-287.5 551.51,-287.5"/>
<polygon fill="#63b8ff" stroke="#63b8ff" points="551.81,-291 561.81,-287.5 551.81,-284 551.81,-291"/>
</a>
</g>
</g>
<!-- Node9 -->
<g id="Node000009" class="node">
<title>Node9</title>
<g id="a_Node000009"><a xlink:href="../../de/dfd/GameManagement_8cpp.html#a2877bc3a946eb46940e5cdedcaf4e3f6" target="_top" xlink:title=" ">
<polygon fill="white" stroke="#666666" points="518,-222 394,-222 394,-203 518,-203 518,-222"/>
<text text-anchor="middle" x="456" y="-210" font-family="Helvetica,sans-Serif" font-size="10.00">ResetGameIfRequired</text>
</a>
</g>
</g>
<!-- Node4&#45;&gt;Node9 -->
<g id="edge8_Node000004_Node000009" class="edge">
<title>Node4&#45;&gt;Node9</title>
<g id="a_edge8_Node000004_Node000009"><a xlink:title=" ">
<path fill="none" stroke="#63b8ff" d="M302.08,-277.85C332.89,-264.69 388.23,-241.03 423.21,-226.08"/>
<polygon fill="#63b8ff" stroke="#63b8ff" points="424.68,-229.26 432.5,-222.11 421.93,-222.83 424.68,-229.26"/>
</a>
</g>
</g>
<!-- Node6 -->
<g id="Node000006" class="node">
<title>Node6</title>
<g id="a_Node000006"><a xlink:href="../../de/dfd/GameManagement_8cpp.html#abc0ac24a5725e21af2dcc9eb0d0c40ae" target="_top" xlink:title="Immediately destroy a GameObject.">
<polygon fill="white" stroke="#666666" points="691,-335 575,-335 575,-316 691,-316 691,-335"/>
<text text-anchor="middle" x="633" y="-323" font-family="Helvetica,sans-Serif" font-size="10.00">DestroyGameObject</text>
</a>
</g>
</g>
<!-- Node5&#45;&gt;Node6 -->
<g id="edge5_Node000005_Node000006" class="edge">
<title>Node5&#45;&gt;Node6</title>
<g id="a_edge5_Node000005_Node000006"><a xlink:title=" ">
<path fill="none" stroke="#63b8ff" d="M526.16,-325.5C538.9,-325.5 552.19,-325.5 564.87,-325.5"/>
<polygon fill="#63b8ff" stroke="#63b8ff" points="564.88,-329 574.88,-325.5 564.88,-322 564.88,-329"/>
</a>
</g>
</g>
<!-- Node8 -->
<g id="Node000008" class="node">
<title>Node8</title>
<g id="a_Node000008"><a xlink:href="../../de/dfd/GameManagement_8cpp.html#a40f7d4339a01b155a82745c5bd8ead6a" target="_top" xlink:title="Directly register a gameobject. Will push the object into the GameObjects vector.">
<polygon fill="white" stroke="#666666" points="1218,-167 1100,-167 1100,-148 1218,-148 1218,-167"/>
<text text-anchor="middle" x="1159" y="-155" font-family="Helvetica,sans-Serif" font-size="10.00">RegisterGameObject</text>
</a>
</g>
</g>
<!-- Node7&#45;&gt;Node8 -->
<g id="edge7_Node000007_Node000008" class="edge">
<title>Node7&#45;&gt;Node8</title>
<g id="a_edge7_Node000007_Node000008"><a xlink:title=" ">
<path fill="none" stroke="#63b8ff" d="M666.79,-297.03C741.97,-316.93 930.55,-355.69 1064,-287.5 1087.7,-275.39 1128.41,-208.9 1147.52,-175.98"/>
<polygon fill="#63b8ff" stroke="#63b8ff" points="1150.56,-177.71 1152.51,-167.29 1144.49,-174.22 1150.56,-177.71"/>
</a>
</g>
</g>
<!-- Node10 -->
<g id="Node000010" class="node">
<title>Node10</title>
<g id="a_Node000010"><a xlink:href="../../d1/d99/Lifecycle_8cpp.html#a7be4f604c1baeb7cac84122a7f2438cf" target="_top" xlink:title="Reset the game to the initial state.">
<polygon fill="white" stroke="#666666" points="670,-148 596,-148 596,-129 670,-129 670,-148"/>
<text text-anchor="middle" x="633" y="-136" font-family="Helvetica,sans-Serif" font-size="10.00">ResetGame</text>
</a>
</g>
</g>
<!-- Node9&#45;&gt;Node10 -->
<g id="edge9_Node000009_Node000010" class="edge">
<title>Node9&#45;&gt;Node10</title>
<g id="a_edge9_Node000009_Node000010"><a xlink:title=" ">
<path fill="none" stroke="#63b8ff" d="M479.52,-202.98C510.15,-190.03 565.12,-166.78 600.02,-152.02"/>
<polygon fill="#63b8ff" stroke="#63b8ff" points="601.44,-155.22 609.29,-148.1 598.72,-148.77 601.44,-155.22"/>
</a>
</g>
</g>
<!-- Node11 -->
<g id="Node000011" class="node">
<title>Node11</title>
<g id="a_Node000011"><a xlink:href="../../d9/dfa/Init_8cpp.html#aaa64e8fd06230fa14e507cef71a3217d" target="_top" xlink:title="Create the initial gameobjects required for the game.">
<polygon fill="white" stroke="#666666" points="885.5,-167 742.5,-167 742.5,-148 885.5,-148 885.5,-167"/>
<text text-anchor="middle" x="814" y="-155" font-family="Helvetica,sans-Serif" font-size="10.00">CreateInitialGameObjects</text>
</a>
</g>
</g>
<!-- Node10&#45;&gt;Node11 -->
<g id="edge10_Node000010_Node000011" class="edge">
<title>Node10&#45;&gt;Node11</title>
<g id="a_edge10_Node000010_Node000011"><a xlink:title=" ">
<path fill="none" stroke="#63b8ff" d="M670.22,-142.34C688.13,-144.25 710.5,-146.62 732.19,-148.92"/>
<polygon fill="#63b8ff" stroke="#63b8ff" points="732.11,-152.43 742.42,-150.01 732.84,-145.47 732.11,-152.43"/>
</a>
</g>
</g>
<!-- Node21 -->
<g id="Node000021" class="node">
<title>Node21</title>
<g id="a_Node000021"><a xlink:href="../../de/dfd/GameManagement_8cpp.html#ae5ee3f705fc506491ca2b0c7cf059c75" target="_top" xlink:title="Initialize all gameobjects and call the OnStart() methods.">
<polygon fill="white" stroke="#666666" points="855.5,-130 772.5,-130 772.5,-111 855.5,-111 855.5,-130"/>
<text text-anchor="middle" x="814" y="-118" font-family="Helvetica,sans-Serif" font-size="10.00">OnGameStart</text>
</a>
</g>
</g>
<!-- Node10&#45;&gt;Node21 -->
<g id="edge27_Node000010_Node000021" class="edge">
<title>Node10&#45;&gt;Node21</title>
<g id="a_edge27_Node000010_Node000021"><a xlink:title=" ">
<path fill="none" stroke="#63b8ff" d="M670.22,-134.86C696.72,-132.19 733.02,-128.54 762.39,-125.59"/>
<polygon fill="#63b8ff" stroke="#63b8ff" points="762.86,-129.06 772.46,-124.58 762.16,-122.09 762.86,-129.06"/>
</a>
</g>
</g>
<!-- Node22 -->
<g id="Node000022" class="node">
<title>Node22</title>
<g id="a_Node000022"><a xlink:href="../../d8/d38/Time_8cpp.html#ae55fb718253dda2137a189d792bda7b9" target="_top" xlink:title="Reset the time since the game has started.">
<polygon fill="white" stroke="#666666" points="888,-93 740,-93 740,-74 888,-74 888,-93"/>
<text text-anchor="middle" x="814" y="-81" font-family="Helvetica,sans-Serif" font-size="10.00">ResetTimeSinceGameStart</text>
</a>
</g>
</g>
<!-- Node10&#45;&gt;Node22 -->
<g id="edge28_Node000010_Node000022" class="edge">
<title>Node10&#45;&gt;Node22</title>
<g id="a_edge28_Node000010_Node000022"><a xlink:title=" ">
<path fill="none" stroke="#63b8ff" d="M659.48,-128.85C680.82,-120.95 712.16,-109.77 740,-101.5 746.97,-99.43 754.36,-97.41 761.66,-95.51"/>
<polygon fill="#63b8ff" stroke="#63b8ff" points="762.68,-98.87 771.51,-93.01 760.95,-92.08 762.68,-98.87"/>
</a>
</g>
</g>
<!-- Node12 -->
<g id="Node000012" class="node">
<title>Node12</title>
<g id="a_Node000012"><a xlink:href="../../d9/dfa/Init_8cpp.html#a3ff595c2af791c369e2318510062ce14" target="_top" xlink:title="Create the coffee meter bar.">
<polygon fill="white" stroke="#666666" points="1048.5,-130 939.5,-130 939.5,-111 1048.5,-111 1048.5,-130"/>
<text text-anchor="middle" x="994" y="-118" font-family="Helvetica,sans-Serif" font-size="10.00">CreateCoffeeMeter</text>
</a>
</g>
</g>
<!-- Node11&#45;&gt;Node12 -->
<g id="edge11_Node000011_Node000012" class="edge">
<title>Node11&#45;&gt;Node12</title>
<g id="a_edge11_Node000011_Node000012"><a xlink:title=" ">
<path fill="none" stroke="#63b8ff" d="M860.84,-147.97C884.11,-143.14 912.57,-137.22 937.11,-132.12"/>
<polygon fill="#63b8ff" stroke="#63b8ff" points="937.93,-135.52 947.01,-130.06 936.5,-128.67 937.93,-135.52"/>
</a>
</g>
</g>
<!-- Node13 -->
<g id="Node000013" class="node">
<title>Node13</title>
<g id="a_Node000013"><a xlink:href="../../d9/dfa/Init_8cpp.html#a1bfb628b6cd503e396bae0796f2051c1" target="_top" xlink:title="Create the icon next to the coffee meter.">
<polygon fill="white" stroke="#666666" points="1058.5,-278 929.5,-278 929.5,-259 1058.5,-259 1058.5,-278"/>
<text text-anchor="middle" x="994" y="-266" font-family="Helvetica,sans-Serif" font-size="10.00">CreateCoffeeMeterIcon</text>
</a>
</g>
</g>
<!-- Node11&#45;&gt;Node13 -->
<g id="edge13_Node000011_Node000013" class="edge">
<title>Node11&#45;&gt;Node13</title>
<g id="a_edge13_Node000011_Node000013"><a xlink:title=" ">
<path fill="none" stroke="#63b8ff" d="M823.29,-167C840.26,-185.85 880.99,-228.07 924,-250.5 927.54,-252.35 931.29,-254.01 935.13,-255.52"/>
<polygon fill="#63b8ff" stroke="#63b8ff" points="934.22,-258.91 944.81,-258.93 936.54,-252.31 934.22,-258.91"/>
</a>
</g>
</g>
<!-- Node15 -->
<g id="Node000015" class="node">
<title>Node15</title>
<g id="a_Node000015"><a xlink:href="../../d9/dfa/Init_8cpp.html#a7577908172d93807ef67f163f851fe5e" target="_top" xlink:title="Create the floor and register it.">
<polygon fill="white" stroke="#666666" points="1031,-93 957,-93 957,-74 1031,-74 1031,-93"/>
<text text-anchor="middle" x="994" y="-81" font-family="Helvetica,sans-Serif" font-size="10.00">CreateFloor</text>
</a>
</g>
</g>
<!-- Node11&#45;&gt;Node15 -->
<g id="edge16_Node000011_Node000015" class="edge">
<title>Node11&#45;&gt;Node15</title>
<g id="a_edge16_Node000011_Node000015"><a xlink:title=" ">
<path fill="none" stroke="#63b8ff" d="M869.01,-147.93C875.64,-145.68 882.13,-142.91 888,-139.5 908.11,-127.8 903.97,-113.34 924,-101.5 931.05,-97.34 939.06,-94.12 947.06,-91.64"/>
<polygon fill="#63b8ff" stroke="#63b8ff" points="948.05,-95 956.76,-88.97 946.19,-88.25 948.05,-95"/>
</a>
</g>
</g>
<!-- Node16 -->
<g id="Node000016" class="node">
<title>Node16</title>
<g id="a_Node000016"><a xlink:href="../../d9/dfa/Init_8cpp.html#a8ad8206fa2846739c5e76ce97b6b2783" target="_top" xlink:title="Create the score counter and register it.">
<polygon fill="white" stroke="#666666" points="1051,-56 937,-56 937,-37 1051,-37 1051,-56"/>
<text text-anchor="middle" x="994" y="-44" font-family="Helvetica,sans-Serif" font-size="10.00">CreateScoreCounter</text>
</a>
</g>
</g>
<!-- Node11&#45;&gt;Node16 -->
<g id="edge18_Node000011_Node000016" class="edge">
<title>Node11&#45;&gt;Node16</title>
<g id="a_edge18_Node000011_Node000016"><a xlink:title=" ">
<path fill="none" stroke="#63b8ff" d="M874.19,-147.88C879.15,-145.63 883.85,-142.88 888,-139.5 916.69,-116.18 895.47,-88.01 924,-64.5 925.54,-63.23 927.16,-62.05 928.84,-60.95"/>
<polygon fill="#63b8ff" stroke="#63b8ff" points="930.61,-63.97 937.72,-56.12 927.26,-57.83 930.61,-63.97"/>
</a>
</g>
</g>
<!-- Node17 -->
<g id="Node000017" class="node">
<title>Node17</title>
<g id="a_Node000017"><a xlink:href="../../d9/dfa/Init_8cpp.html#ac07b948048071cbf70f69aa9d691a93f" target="_top" xlink:title="Set the window background to white.">
<polygon fill="white" stroke="#666666" points="1064,-167 924,-167 924,-148 1064,-148 1064,-167"/>
<text text-anchor="middle" x="994" y="-155" font-family="Helvetica,sans-Serif" font-size="10.00">SetupWindowbackground</text>
</a>
</g>
</g>
<!-- Node11&#45;&gt;Node17 -->
<g id="edge20_Node000011_Node000017" class="edge">
<title>Node11&#45;&gt;Node17</title>
<g id="a_edge20_Node000011_Node000017"><a xlink:title=" ">
<path fill="none" stroke="#63b8ff" d="M885.61,-157.5C894.87,-157.5 904.42,-157.5 913.81,-157.5"/>
<polygon fill="#63b8ff" stroke="#63b8ff" points="913.93,-161 923.93,-157.5 913.93,-154 913.93,-161"/>
</a>
</g>
</g>
<!-- Node18 -->
<g id="Node000018" class="node">
<title>Node18</title>
<g id="a_Node000018"><a xlink:href="../../d9/dfa/Init_8cpp.html#a374cb6f303f72b5af970063ff1318f24" target="_top" xlink:title="Create the left wall and register it.">
<polygon fill="white" stroke="#666666" points="1038,-19 950,-19 950,0 1038,0 1038,-19"/>
<text text-anchor="middle" x="994" y="-7" font-family="Helvetica,sans-Serif" font-size="10.00">SpawnLeftWall</text>
</a>
</g>
</g>
<!-- Node11&#45;&gt;Node18 -->
<g id="edge21_Node000011_Node000018" class="edge">
<title>Node11&#45;&gt;Node18</title>
<g id="a_edge21_Node000011_Node000018"><a xlink:title=" ">
<path fill="none" stroke="#63b8ff" d="M875.76,-147.93C880.21,-145.66 884.37,-142.88 888,-139.5 926.23,-103.83 886.01,-63.43 924,-27.5 928.66,-23.09 934.27,-19.73 940.24,-17.17"/>
<polygon fill="#63b8ff" stroke="#63b8ff" points="941.58,-20.41 949.85,-13.78 939.25,-13.81 941.58,-20.41"/>
</a>
</g>
</g>
<!-- Node19 -->
<g id="Node000019" class="node">
<title>Node19</title>
<g id="a_Node000019"><a xlink:href="../../d9/dfa/Init_8cpp.html#aa021dfea28868af5fdc6eb97fdf11395" target="_top" xlink:title="Create the player and register it.">
<polygon fill="white" stroke="#666666" points="1034,-241 954,-241 954,-222 1034,-222 1034,-241"/>
<text text-anchor="middle" x="994" y="-229" font-family="Helvetica,sans-Serif" font-size="10.00">SpawnPlayer</text>
</a>
</g>
</g>
<!-- Node11&#45;&gt;Node19 -->
<g id="edge23_Node000011_Node000019" class="edge">
<title>Node11&#45;&gt;Node19</title>
<g id="a_edge23_Node000011_Node000019"><a xlink:title=" ">
<path fill="none" stroke="#63b8ff" d="M831.1,-167.2C851.93,-179.41 889.62,-200.37 924,-213.5 930.37,-215.93 937.2,-218.15 943.98,-220.14"/>
<polygon fill="#63b8ff" stroke="#63b8ff" points="943.27,-223.57 953.85,-222.88 945.15,-216.83 943.27,-223.57"/>
</a>
</g>
</g>
<!-- Node20 -->
<g id="Node000020" class="node">
<title>Node20</title>
<g id="a_Node000020"><a xlink:href="../../d9/dfa/Init_8cpp.html#a0e2d0321a787eb9a3b705489c8f2b86b" target="_top" xlink:title="Create the right wall and register it.">
<polygon fill="white" stroke="#666666" points="1041.5,-204 946.5,-204 946.5,-185 1041.5,-185 1041.5,-204"/>
<text text-anchor="middle" x="994" y="-192" font-family="Helvetica,sans-Serif" font-size="10.00">SpawnRightWall</text>
</a>
</g>
</g>
<!-- Node11&#45;&gt;Node20 -->
<g id="edge25_Node000011_Node000020" class="edge">
<title>Node11&#45;&gt;Node20</title>
<g id="a_edge25_Node000011_Node000020"><a xlink:title=" ">
<path fill="none" stroke="#63b8ff" d="M860.84,-167.03C884.11,-171.86 912.57,-177.78 937.11,-182.88"/>
<polygon fill="#63b8ff" stroke="#63b8ff" points="936.5,-186.33 947.01,-184.94 937.93,-179.48 936.5,-186.33"/>
</a>
</g>
</g>
<!-- Node12&#45;&gt;Node8 -->
<g id="edge12_Node000012_Node000008" class="edge">
<title>Node12&#45;&gt;Node8</title>
<g id="a_edge12_Node000012_Node000008"><a xlink:title=" ">
<path fill="none" stroke="#63b8ff" d="M1036.98,-130.03C1058,-134.8 1083.65,-140.62 1105.92,-145.68"/>
<polygon fill="#63b8ff" stroke="#63b8ff" points="1105.36,-149.14 1115.88,-147.94 1106.91,-142.31 1105.36,-149.14"/>
</a>
</g>
</g>
<!-- Node13&#45;&gt;Node8 -->
<g id="edge15_Node000013_Node000008" class="edge">
<title>Node13&#45;&gt;Node8</title>
<g id="a_edge15_Node000013_Node000008"><a xlink:title=" ">
<path fill="none" stroke="#63b8ff" d="M1044.51,-258.99C1051.28,-256.72 1057.98,-253.93 1064,-250.5 1098.04,-231.12 1128.46,-196.26 1144.97,-175.16"/>
<polygon fill="#63b8ff" stroke="#63b8ff" points="1147.87,-177.12 1151.16,-167.05 1142.31,-172.88 1147.87,-177.12"/>
</a>
</g>
</g>
<!-- Node14 -->
<g id="Node000014" class="node">
<title>Node14</title>
<g id="a_Node000014"><a xlink:href="../../d1/da9/AssetLoading_8cpp.html#a07739f40c13743b2dfceefb659d6d455" target="_top" xlink:title="Return the correct asset path for the asset depending on the current environment.">
<polygon fill="white" stroke="#666666" points="1200,-278 1118,-278 1118,-259 1200,-259 1200,-278"/>
<text text-anchor="middle" x="1159" y="-266" font-family="Helvetica,sans-Serif" font-size="10.00">GetAssetPath</text>
</a>
</g>
</g>
<!-- Node13&#45;&gt;Node14 -->
<g id="edge14_Node000013_Node000014" class="edge">
<title>Node13&#45;&gt;Node14</title>
<g id="a_edge14_Node000013_Node000014"><a xlink:title=" ">
<path fill="none" stroke="#63b8ff" d="M1058.95,-268.5C1075.04,-268.5 1092.09,-268.5 1107.42,-268.5"/>
<polygon fill="#63b8ff" stroke="#63b8ff" points="1107.73,-272 1117.73,-268.5 1107.73,-265 1107.73,-272"/>
</a>
</g>
</g>
<!-- Node15&#45;&gt;Node8 -->
<g id="edge17_Node000015_Node000008" class="edge">
<title>Node15&#45;&gt;Node8</title>
<g id="a_edge17_Node000015_Node000008"><a xlink:title=" ">
<path fill="none" stroke="#63b8ff" d="M1031.09,-90.87C1041.88,-93.62 1053.61,-97.15 1064,-101.5 1090.2,-112.46 1117.87,-129.72 1136.34,-142.19"/>
<polygon fill="#63b8ff" stroke="#63b8ff" points="1134.4,-145.1 1144.63,-147.87 1138.36,-139.33 1134.4,-145.1"/>
</a>
</g>
</g>
<!-- Node16&#45;&gt;Node8 -->
<g id="edge19_Node000016_Node000008" class="edge">
<title>Node16&#45;&gt;Node8</title>
<g id="a_edge19_Node000016_Node000008"><a xlink:title=" ">
<path fill="none" stroke="#63b8ff" d="M1044.51,-56.01C1051.28,-58.28 1057.98,-61.07 1064,-64.5 1098.04,-83.88 1128.46,-118.74 1144.97,-139.84"/>
<polygon fill="#63b8ff" stroke="#63b8ff" points="1142.31,-142.12 1151.16,-147.95 1147.87,-137.88 1142.31,-142.12"/>
</a>
</g>
</g>
<!-- Node18&#45;&gt;Node8 -->
<g id="edge22_Node000018_Node000008" class="edge">
<title>Node18&#45;&gt;Node8</title>
<g id="a_edge22_Node000018_Node000008"><a xlink:title=" ">
<path fill="none" stroke="#63b8ff" d="M1038.21,-15.91C1047.24,-18.54 1056.34,-22.26 1064,-27.5 1105.97,-56.21 1135.89,-110.09 1149.6,-138.64"/>
<polygon fill="#63b8ff" stroke="#63b8ff" points="1146.52,-140.32 1153.91,-147.92 1152.87,-137.37 1146.52,-140.32"/>
</a>
</g>
</g>
<!-- Node19&#45;&gt;Node8 -->
<g id="edge24_Node000019_Node000008" class="edge">
<title>Node19&#45;&gt;Node8</title>
<g id="a_edge24_Node000019_Node000008"><a xlink:title=" ">
<path fill="none" stroke="#63b8ff" d="M1034.32,-223.29C1044.19,-220.67 1054.63,-217.42 1064,-213.5 1090.2,-202.54 1117.87,-185.28 1136.34,-172.81"/>
<polygon fill="#63b8ff" stroke="#63b8ff" points="1138.36,-175.67 1144.63,-167.13 1134.4,-169.9 1138.36,-175.67"/>
</a>
</g>
</g>
<!-- Node20&#45;&gt;Node8 -->
<g id="edge26_Node000020_Node000008" class="edge">
<title>Node20&#45;&gt;Node8</title>
<g id="a_edge26_Node000020_Node000008"><a xlink:title=" ">
<path fill="none" stroke="#63b8ff" d="M1036.98,-184.97C1058,-180.2 1083.65,-174.38 1105.92,-169.32"/>
<polygon fill="#63b8ff" stroke="#63b8ff" points="1106.91,-172.69 1115.88,-167.06 1105.36,-165.86 1106.91,-172.69"/>
</a>
</g>
</g>
</g>
</svg>

<g id="navigator" transform="translate(0 0)" fill="#404254">
  <rect fill="#f2f5e9" fill-opacity="0.5" stroke="#606060" stroke-width=".5" x="0" y="0" width="60" height="60"/>
  <use id="zoomplus" xlink:href="#zoomPlus" x="17" y="9" onmousedown="handleZoom(evt,'in')"/>
  <use id="zoomminus" xlink:href="#zoomMin" x="42" y="9" onmousedown="handleZoom(evt,'out')"/>
  <use id="reset" xlink:href="#resetDef" x="30" y="36" onmousedown="handleReset()"/>
   <use id="arrowup" xlink:href="#arrowUp" x="0" y="0" onmousedown="handlePan(0,-1)"/>
  <use id="arrowright" xlink:href="#arrowRight" x="0" y="0" onmousedown="handlePan(1,0)"/>
  <use id="arrowdown" xlink:href="#arrowDown" x="0" y="0" onmousedown="handlePan(0,1)"/>
  <use id="arrowleft" xlink:href="#arrowLeft" x="0" y="0" onmousedown="handlePan(-1,0)"/>
</g>
<svg viewBox="0 0 15 15" width="100%" height="30px" preserveAspectRatio="xMaxYMin meet">
 <g id="arrow_out" transform="scale(0.3 0.3)">
  <a xlink:href="main_8cpp_ae8fa368bbea5177612cd2cf333448c66_cgraph_org.svg" target="_base">
   <rect id="button" ry="5" rx="5" y="6" x="6" height="38" width="38"
        fill="#f2f5e9" fill-opacity="0.5" stroke="#606060" stroke-width="1.0"/>
   <path id="arrow"
     d="M 11.500037,31.436501 C 11.940474,20.09759 22.043105,11.32322 32.158766,21.979434 L 37.068811,17.246167 C 37.068811,17.246167 37.088388,32 37.088388,32 L 22.160133,31.978069 C 22.160133,31.978069 26.997745,27.140456 26.997745,27.140456 C 18.528582,18.264221 13.291696,25.230495 11.500037,31.436501 z"
     style="fill:#404040;"/>
  </a>
 </g>
</svg>

<style type='text/css'>
<![CDATA[
[data-mouse-over-selected='false'] { opacity: 0.7; }
[data-mouse-over-selected='true']  { opacity: 1.0; }
]]>
</style>
<script type="application/ecmascript"><![CDATA[
document.addEventListener('DOMContentLoaded', (event) => {
  highlightEdges();
  highlightAdjacentNodes();
});
]]></script>
</svg>
