<?xml version="1.0" encoding="UTF-8" standalone="no"?>
<!DOCTYPE svg PUBLIC "-//W3C//DTD SVG 1.1//EN"
 "http://www.w3.org/Graphics/SVG/1.1/DTD/svg11.dtd">
<!-- Generated by graphviz version 2.43.0 (0)
 -->
<!-- Title: gameLoop Pages: 1 -->
<svg width="1424pt" height="343pt"
 viewBox="0.00 0.00 1424.00 343.00" xmlns="http://www.w3.org/2000/svg" xmlns:xlink="http://www.w3.org/1999/xlink">
<g id="graph0" class="graph" transform="scale(1 1) rotate(0) translate(4 339)">
<title>gameLoop</title>
<!-- Node1 -->
<g id="Node000001" class="node">
<title>Node1</title>
<g id="a_Node000001"><a xlink:title="The main game loop, runs until an exit event is sensed, and QuitGame is set to true.">
<polygon fill="#999999" stroke="#666666" points="68,-201 0,-201 0,-182 68,-182 68,-201"/>
<text text-anchor="middle" x="34" y="-189" font-family="Helvetica,sans-Serif" font-size="10.00">gameLoop</text>
</a>
</g>
</g>
<!-- Node2 -->
<g id="Node000002" class="node">
<title>Node2</title>
<g id="a_Node000002"><a xlink:href="../../df/d0a/main_8cpp.html#ae8fa368bbea5177612cd2cf333448c66" target="_top" xlink:title="Executed every frame.">
<polygon fill="white" stroke="#666666" points="178.5,-253 132.5,-253 132.5,-234 178.5,-234 178.5,-253"/>
<text text-anchor="middle" x="155.5" y="-241" font-family="Helvetica,sans-Serif" font-size="10.00">frame</text>
</a>
</g>
</g>
<!-- Node1&#45;&gt;Node2 -->
<g id="edge1_Node000001_Node000002" class="edge">
<title>Node1&#45;&gt;Node2</title>
<g id="a_edge1_Node000001_Node000002"><a xlink:title=" ">
<path fill="none" stroke="#63b8ff" d="M56.92,-201.04C75.42,-209.09 102.13,-220.71 122.93,-229.76"/>
<polygon fill="#63b8ff" stroke="#63b8ff" points="121.75,-233.07 132.32,-233.85 124.54,-226.65 121.75,-233.07"/>
</a>
</g>
</g>
<!-- Node24 -->
<g id="Node000024" class="node">
<title>Node24</title>
<g id="a_Node000024"><a xlink:href="../../de/db0/Events_8cpp.html#a26867d84edb0f52a75127cf66c64c9a9" target="_top" xlink:title="Handles an event that has occoured.">
<polygon fill="white" stroke="#666666" points="195,-201 116,-201 116,-182 195,-182 195,-201"/>
<text text-anchor="middle" x="155.5" y="-189" font-family="Helvetica,sans-Serif" font-size="10.00">HandleEvent</text>
</a>
</g>
</g>
<!-- Node1&#45;&gt;Node24 -->
<g id="edge30_Node000001_Node000024" class="edge">
<title>Node1&#45;&gt;Node24</title>
<g id="a_edge30_Node000001_Node000024"><a xlink:title=" ">
<path fill="none" stroke="#63b8ff" d="M68.29,-191.5C79.83,-191.5 93.03,-191.5 105.57,-191.5"/>
<polygon fill="#63b8ff" stroke="#63b8ff" points="105.9,-195 115.9,-191.5 105.9,-188 105.9,-195"/>
</a>
</g>
</g>
<!-- Node29 -->
<g id="Node000029" class="node">
<title>Node29</title>
<g id="a_Node000029"><a xlink:href="../../d8/d38/Time_8cpp.html#a150f12b48e13e1c14a4e7646137c74a4" target="_top" xlink:title="Update the stored deltatime. Should be executed each frame.">
<polygon fill="white" stroke="#666666" points="207,-164 104,-164 104,-145 207,-145 207,-164"/>
<text text-anchor="middle" x="155.5" y="-152" font-family="Helvetica,sans-Serif" font-size="10.00">UpdateDeltaTime</text>
</a>
</g>
</g>
<!-- Node1&#45;&gt;Node29 -->
<g id="edge35_Node000001_Node000029" class="edge">
<title>Node1&#45;&gt;Node29</title>
<g id="a_edge35_Node000001_Node000029"><a xlink:title=" ">
<path fill="none" stroke="#63b8ff" d="M65.77,-181.97C80.3,-177.48 97.83,-172.05 113.47,-167.2"/>
<polygon fill="#63b8ff" stroke="#63b8ff" points="114.9,-170.43 123.41,-164.12 112.83,-163.74 114.9,-170.43"/>
</a>
</g>
</g>
<!-- Node3 -->
<g id="Node000003" class="node">
<title>Node3</title>
<g id="a_Node000003"><a xlink:href="../../de/dfd/GameManagement_8cpp.html#a522912d67446895b0a03d01837b75a99" target="_top" xlink:title="Iterate over all objects, and update the appropriately, using OnTick() or Component specific methods.">
<polygon fill="white" stroke="#666666" points="350,-260 261,-260 261,-241 350,-241 350,-260"/>
<text text-anchor="middle" x="305.5" y="-248" font-family="Helvetica,sans-Serif" font-size="10.00">UpdateObjects</text>
</a>
</g>
</g>
<!-- Node2&#45;&gt;Node3 -->
<g id="edge2_Node000002_Node000003" class="edge">
<title>Node2&#45;&gt;Node3</title>
<g id="a_edge2_Node000002_Node000003"><a xlink:title=" ">
<path fill="none" stroke="#63b8ff" d="M178.66,-244.55C197.65,-245.45 225.8,-246.78 250.67,-247.95"/>
<polygon fill="#63b8ff" stroke="#63b8ff" points="250.57,-251.45 260.72,-248.43 250.9,-244.46 250.57,-251.45"/>
</a>
</g>
</g>
<!-- Node4 -->
<g id="Node000004" class="node">
<title>Node4</title>
<g id="a_Node000004"><a xlink:href="../../de/dfd/GameManagement_8cpp.html#abb664488d26ac602b11cc22de7243458" target="_top" xlink:title=" ">
<polygon fill="white" stroke="#666666" points="547.5,-260 404.5,-260 404.5,-241 547.5,-241 547.5,-260"/>
<text text-anchor="middle" x="476" y="-248" font-family="Helvetica,sans-Serif" font-size="10.00">HandleComponentUpdate</text>
</a>
</g>
</g>
<!-- Node3&#45;&gt;Node4 -->
<g id="edge3_Node000003_Node000004" class="edge">
<title>Node3&#45;&gt;Node4</title>
<g id="a_edge3_Node000003_Node000004"><a xlink:title=" ">
<path fill="none" stroke="#63b8ff" d="M350.33,-250.5C363.72,-250.5 378.9,-250.5 393.93,-250.5"/>
<polygon fill="#63b8ff" stroke="#63b8ff" points="394.3,-254 404.3,-250.5 394.3,-247 394.3,-254"/>
</a>
</g>
</g>
<!-- Node5 -->
<g id="Node000005" class="node">
<title>Node5</title>
<g id="a_Node000005"><a xlink:href="../../de/dfd/GameManagement_8cpp.html#a95ff1ee6a57e678376b2eae2ef499ab3" target="_top" xlink:title=" ">
<polygon fill="white" stroke="#666666" points="547.5,-297 404.5,-297 404.5,-278 547.5,-278 547.5,-297"/>
<text text-anchor="middle" x="476" y="-285" font-family="Helvetica,sans-Serif" font-size="10.00">WorkThroughFrameQueue</text>
</a>
</g>
</g>
<!-- Node3&#45;&gt;Node5 -->
<g id="edge4_Node000003_Node000005" class="edge">
<title>Node3&#45;&gt;Node5</title>
<g id="a_edge4_Node000003_Node000005"><a xlink:title=" ">
<path fill="none" stroke="#63b8ff" d="M349.89,-260.03C371.72,-264.82 398.38,-270.68 421.47,-275.75"/>
<polygon fill="#63b8ff" stroke="#63b8ff" points="420.94,-279.21 431.46,-277.94 422.44,-272.38 420.94,-279.21"/>
</a>
</g>
</g>
<!-- Node6 -->
<g id="Node000006" class="node">
<title>Node6</title>
<g id="a_Node000006"><a xlink:href="../../de/dfd/GameManagement_8cpp.html#ad487b4c14d5f4bf65d056f5c90ac4d72" target="_top" xlink:title=" ">
<polygon fill="white" stroke="#666666" points="724,-335 584,-335 584,-316 724,-316 724,-335"/>
<text text-anchor="middle" x="654" y="-323" font-family="Helvetica,sans-Serif" font-size="10.00">DestroyEnqueuedObjects</text>
</a>
</g>
</g>
<!-- Node5&#45;&gt;Node6 -->
<g id="edge5_Node000005_Node000006" class="edge">
<title>Node5&#45;&gt;Node6</title>
<g id="a_edge5_Node000005_Node000006"><a xlink:title=" ">
<path fill="none" stroke="#63b8ff" d="M521.41,-297.09C544.95,-302.17 574.06,-308.46 598.9,-313.82"/>
<polygon fill="#63b8ff" stroke="#63b8ff" points="598.39,-317.29 608.91,-315.98 599.87,-310.45 598.39,-317.29"/>
</a>
</g>
</g>
<!-- Node8 -->
<g id="Node000008" class="node">
<title>Node8</title>
<g id="a_Node000008"><a xlink:href="../../de/dfd/GameManagement_8cpp.html#a25053f13bc5fe6ea1caf5f343cbb30b8" target="_top" xlink:title=" ">
<polygon fill="white" stroke="#666666" points="902,-297 760,-297 760,-278 902,-278 902,-297"/>
<text text-anchor="middle" x="831" y="-285" font-family="Helvetica,sans-Serif" font-size="10.00">RegisterEnqueuedObjects</text>
</a>
</g>
</g>
<!-- Node5&#45;&gt;Node8 -->
<g id="edge7_Node000005_Node000008" class="edge">
<title>Node5&#45;&gt;Node8</title>
<g id="a_edge7_Node000005_Node000008"><a xlink:title=" ">
<path fill="none" stroke="#63b8ff" d="M547.59,-287.5C605.88,-287.5 688.64,-287.5 749.5,-287.5"/>
<polygon fill="#63b8ff" stroke="#63b8ff" points="749.84,-291 759.84,-287.5 749.84,-284 749.84,-291"/>
</a>
</g>
</g>
<!-- Node10 -->
<g id="Node000010" class="node">
<title>Node10</title>
<g id="a_Node000010"><a xlink:href="../../de/dfd/GameManagement_8cpp.html#a2877bc3a946eb46940e5cdedcaf4e3f6" target="_top" xlink:title=" ">
<polygon fill="white" stroke="#666666" points="716,-222 592,-222 592,-203 716,-203 716,-222"/>
<text text-anchor="middle" x="654" y="-210" font-family="Helvetica,sans-Serif" font-size="10.00">ResetGameIfRequired</text>
</a>
</g>
</g>
<!-- Node5&#45;&gt;Node10 -->
<g id="edge9_Node000005_Node000010" class="edge">
<title>Node5&#45;&gt;Node10</title>
<g id="a_edge9_Node000005_Node000010"><a xlink:title=" ">
<path fill="none" stroke="#63b8ff" d="M519.19,-277.91C528.8,-275.26 538.86,-272.11 548,-268.5 576.83,-257.13 607.93,-239.85 628.74,-227.5"/>
<polygon fill="#63b8ff" stroke="#63b8ff" points="630.77,-230.36 637.53,-222.21 627.16,-224.36 630.77,-230.36"/>
</a>
</g>
</g>
<!-- Node7 -->
<g id="Node000007" class="node">
<title>Node7</title>
<g id="a_Node000007"><a xlink:href="../../de/dfd/GameManagement_8cpp.html#abc0ac24a5725e21af2dcc9eb0d0c40ae" target="_top" xlink:title="Immediately destroy a GameObject.">
<polygon fill="white" stroke="#666666" points="889,-335 773,-335 773,-316 889,-316 889,-335"/>
<text text-anchor="middle" x="831" y="-323" font-family="Helvetica,sans-Serif" font-size="10.00">DestroyGameObject</text>
</a>
</g>
</g>
<!-- Node6&#45;&gt;Node7 -->
<g id="edge6_Node000006_Node000007" class="edge">
<title>Node6&#45;&gt;Node7</title>
<g id="a_edge6_Node000006_Node000007"><a xlink:title=" ">
<path fill="none" stroke="#63b8ff" d="M724.16,-325.5C736.9,-325.5 750.19,-325.5 762.87,-325.5"/>
<polygon fill="#63b8ff" stroke="#63b8ff" points="762.88,-329 772.88,-325.5 762.88,-322 762.88,-329"/>
</a>
</g>
</g>
<!-- Node9 -->
<g id="Node000009" class="node">
<title>Node9</title>
<g id="a_Node000009"><a xlink:href="../../de/dfd/GameManagement_8cpp.html#a40f7d4339a01b155a82745c5bd8ead6a" target="_top" xlink:title="Directly register a gameobject. Will push the object into the GameObjects vector.">
<polygon fill="white" stroke="#666666" points="1416,-167 1298,-167 1298,-148 1416,-148 1416,-167"/>
<text text-anchor="middle" x="1357" y="-155" font-family="Helvetica,sans-Serif" font-size="10.00">RegisterGameObject</text>
</a>
</g>
</g>
<!-- Node8&#45;&gt;Node9 -->
<g id="edge8_Node000008_Node000009" class="edge">
<title>Node8&#45;&gt;Node9</title>
<g id="a_edge8_Node000008_Node000009"><a xlink:title=" ">
<path fill="none" stroke="#63b8ff" d="M864.79,-297.03C939.97,-316.93 1128.55,-355.69 1262,-287.5 1274.02,-281.36 1321.7,-210.03 1344.17,-175.72"/>
<polygon fill="#63b8ff" stroke="#63b8ff" points="1347.26,-177.39 1349.79,-167.11 1341.39,-173.57 1347.26,-177.39"/>
</a>
</g>
</g>
<!-- Node11 -->
<g id="Node000011" class="node">
<title>Node11</title>
<g id="a_Node000011"><a xlink:href="../../d1/d99/Lifecycle_8cpp.html#a7be4f604c1baeb7cac84122a7f2438cf" target="_top" xlink:title="Reset the game to the initial state.">
<polygon fill="white" stroke="#666666" points="868,-148 794,-148 794,-129 868,-129 868,-148"/>
<text text-anchor="middle" x="831" y="-136" font-family="Helvetica,sans-Serif" font-size="10.00">ResetGame</text>
</a>
</g>
</g>
<!-- Node10&#45;&gt;Node11 -->
<g id="edge10_Node000010_Node000011" class="edge">
<title>Node10&#45;&gt;Node11</title>
<g id="a_edge10_Node000010_Node000011"><a xlink:title=" ">
<path fill="none" stroke="#63b8ff" d="M677.52,-202.98C708.15,-190.03 763.12,-166.78 798.02,-152.02"/>
<polygon fill="#63b8ff" stroke="#63b8ff" points="799.44,-155.22 807.29,-148.1 796.72,-148.77 799.44,-155.22"/>
</a>
</g>
</g>
<!-- Node12 -->
<g id="Node000012" class="node">
<title>Node12</title>
<g id="a_Node000012"><a xlink:href="../../d9/dfa/Init_8cpp.html#aaa64e8fd06230fa14e507cef71a3217d" target="_top" xlink:title="Create the initial gameobjects required for the game.">
<polygon fill="white" stroke="#666666" points="1083.5,-167 940.5,-167 940.5,-148 1083.5,-148 1083.5,-167"/>
<text text-anchor="middle" x="1012" y="-155" font-family="Helvetica,sans-Serif" font-size="10.00">CreateInitialGameObjects</text>
</a>
</g>
</g>
<!-- Node11&#45;&gt;Node12 -->
<g id="edge11_Node000011_Node000012" class="edge">
<title>Node11&#45;&gt;Node12</title>
<g id="a_edge11_Node000011_Node000012"><a xlink:title=" ">
<path fill="none" stroke="#63b8ff" d="M868.22,-142.34C886.13,-144.25 908.5,-146.62 930.19,-148.92"/>
<polygon fill="#63b8ff" stroke="#63b8ff" points="930.11,-152.43 940.42,-150.01 930.84,-145.47 930.11,-152.43"/>
</a>
</g>
</g>
<!-- Node22 -->
<g id="Node000022" class="node">
<title>Node22</title>
<g id="a_Node000022"><a xlink:href="../../de/dfd/GameManagement_8cpp.html#ae5ee3f705fc506491ca2b0c7cf059c75" target="_top" xlink:title="Initialize all gameobjects and call the OnStart() methods.">
<polygon fill="white" stroke="#666666" points="1053.5,-130 970.5,-130 970.5,-111 1053.5,-111 1053.5,-130"/>
<text text-anchor="middle" x="1012" y="-118" font-family="Helvetica,sans-Serif" font-size="10.00">OnGameStart</text>
</a>
</g>
</g>
<!-- Node11&#45;&gt;Node22 -->
<g id="edge28_Node000011_Node000022" class="edge">
<title>Node11&#45;&gt;Node22</title>
<g id="a_edge28_Node000011_Node000022"><a xlink:title=" ">
<path fill="none" stroke="#63b8ff" d="M868.22,-134.86C894.72,-132.19 931.02,-128.54 960.39,-125.59"/>
<polygon fill="#63b8ff" stroke="#63b8ff" points="960.86,-129.06 970.46,-124.58 960.16,-122.09 960.86,-129.06"/>
</a>
</g>
</g>
<!-- Node23 -->
<g id="Node000023" class="node">
<title>Node23</title>
<g id="a_Node000023"><a xlink:href="../../d8/d38/Time_8cpp.html#ae55fb718253dda2137a189d792bda7b9" target="_top" xlink:title="Reset the time since the game has started.">
<polygon fill="white" stroke="#666666" points="1086,-93 938,-93 938,-74 1086,-74 1086,-93"/>
<text text-anchor="middle" x="1012" y="-81" font-family="Helvetica,sans-Serif" font-size="10.00">ResetTimeSinceGameStart</text>
</a>
</g>
</g>
<!-- Node11&#45;&gt;Node23 -->
<g id="edge29_Node000011_Node000023" class="edge">
<title>Node11&#45;&gt;Node23</title>
<g id="a_edge29_Node000011_Node000023"><a xlink:title=" ">
<path fill="none" stroke="#63b8ff" d="M857.48,-128.85C878.82,-120.95 910.16,-109.77 938,-101.5 944.97,-99.43 952.36,-97.41 959.66,-95.51"/>
<polygon fill="#63b8ff" stroke="#63b8ff" points="960.68,-98.87 969.51,-93.01 958.95,-92.08 960.68,-98.87"/>
</a>
</g>
</g>
<!-- Node13 -->
<g id="Node000013" class="node">
<title>Node13</title>
<g id="a_Node000013"><a xlink:href="../../d9/dfa/Init_8cpp.html#a3ff595c2af791c369e2318510062ce14" target="_top" xlink:title="Create the coffee meter bar.">
<polygon fill="white" stroke="#666666" points="1246.5,-130 1137.5,-130 1137.5,-111 1246.5,-111 1246.5,-130"/>
<text text-anchor="middle" x="1192" y="-118" font-family="Helvetica,sans-Serif" font-size="10.00">CreateCoffeeMeter</text>
</a>
</g>
</g>
<!-- Node12&#45;&gt;Node13 -->
<g id="edge12_Node000012_Node000013" class="edge">
<title>Node12&#45;&gt;Node13</title>
<g id="a_edge12_Node000012_Node000013"><a xlink:title=" ">
<path fill="none" stroke="#63b8ff" d="M1058.84,-147.97C1082.11,-143.14 1110.57,-137.22 1135.11,-132.12"/>
<polygon fill="#63b8ff" stroke="#63b8ff" points="1135.93,-135.52 1145.01,-130.06 1134.5,-128.67 1135.93,-135.52"/>
</a>
</g>
</g>
<!-- Node14 -->
<g id="Node000014" class="node">
<title>Node14</title>
<g id="a_Node000014"><a xlink:href="../../d9/dfa/Init_8cpp.html#a1bfb628b6cd503e396bae0796f2051c1" target="_top" xlink:title="Create the icon next to the coffee meter.">
<polygon fill="white" stroke="#666666" points="1256.5,-278 1127.5,-278 1127.5,-259 1256.5,-259 1256.5,-278"/>
<text text-anchor="middle" x="1192" y="-266" font-family="Helvetica,sans-Serif" font-size="10.00">CreateCoffeeMeterIcon</text>
</a>
</g>
</g>
<!-- Node12&#45;&gt;Node14 -->
<g id="edge14_Node000012_Node000014" class="edge">
<title>Node12&#45;&gt;Node14</title>
<g id="a_edge14_Node000012_Node000014"><a xlink:title=" ">
<path fill="none" stroke="#63b8ff" d="M1021.6,-167.13C1038.82,-185.82 1079.5,-227.11 1122,-249.5 1126.31,-251.77 1130.91,-253.79 1135.63,-255.58"/>
<polygon fill="#63b8ff" stroke="#63b8ff" points="1134.79,-259 1145.38,-258.95 1137.07,-252.38 1134.79,-259"/>
</a>
</g>
</g>
<!-- Node16 -->
<g id="Node000016" class="node">
<title>Node16</title>
<g id="a_Node000016"><a xlink:href="../../d9/dfa/Init_8cpp.html#a7577908172d93807ef67f163f851fe5e" target="_top" xlink:title="Create the floor and register it.">
<polygon fill="white" stroke="#666666" points="1229,-93 1155,-93 1155,-74 1229,-74 1229,-93"/>
<text text-anchor="middle" x="1192" y="-81" font-family="Helvetica,sans-Serif" font-size="10.00">CreateFloor</text>
</a>
</g>
</g>
<!-- Node12&#45;&gt;Node16 -->
<g id="edge17_Node000012_Node000016" class="edge">
<title>Node12&#45;&gt;Node16</title>
<g id="a_edge17_Node000012_Node000016"><a xlink:title=" ">
<path fill="none" stroke="#63b8ff" d="M1064.29,-147.96C1071.84,-145.49 1079.32,-142.39 1086,-138.5 1105.83,-126.96 1102.17,-113.04 1122,-101.5 1129.07,-97.38 1137.1,-94.19 1145.11,-91.72"/>
<polygon fill="#63b8ff" stroke="#63b8ff" points="1146.09,-95.08 1154.8,-89.05 1144.23,-88.33 1146.09,-95.08"/>
</a>
</g>
</g>
<!-- Node17 -->
<g id="Node000017" class="node">
<title>Node17</title>
<g id="a_Node000017"><a xlink:href="../../d9/dfa/Init_8cpp.html#a8ad8206fa2846739c5e76ce97b6b2783" target="_top" xlink:title="Create the score counter and register it.">
<polygon fill="white" stroke="#666666" points="1249,-56 1135,-56 1135,-37 1249,-37 1249,-56"/>
<text text-anchor="middle" x="1192" y="-44" font-family="Helvetica,sans-Serif" font-size="10.00">CreateScoreCounter</text>
</a>
</g>
</g>
<!-- Node12&#45;&gt;Node17 -->
<g id="edge19_Node000012_Node000017" class="edge">
<title>Node12&#45;&gt;Node17</title>
<g id="a_edge19_Node000012_Node000017"><a xlink:title=" ">
<path fill="none" stroke="#63b8ff" d="M1070,-147.99C1075.76,-145.51 1081.24,-142.4 1086,-138.5 1114.29,-115.32 1093.71,-87.68 1122,-64.5 1123.54,-63.23 1125.17,-62.06 1126.85,-60.96"/>
<polygon fill="#63b8ff" stroke="#63b8ff" points="1128.62,-63.99 1135.74,-56.14 1125.28,-57.83 1128.62,-63.99"/>
</a>
</g>
</g>
<!-- Node18 -->
<g id="Node000018" class="node">
<title>Node18</title>
<g id="a_Node000018"><a xlink:href="../../d9/dfa/Init_8cpp.html#ac07b948048071cbf70f69aa9d691a93f" target="_top" xlink:title="Set the window background to white.">
<polygon fill="white" stroke="#666666" points="1262,-167 1122,-167 1122,-148 1262,-148 1262,-167"/>
<text text-anchor="middle" x="1192" y="-155" font-family="Helvetica,sans-Serif" font-size="10.00">SetupWindowbackground</text>
</a>
</g>
</g>
<!-- Node12&#45;&gt;Node18 -->
<g id="edge21_Node000012_Node000018" class="edge">
<title>Node12&#45;&gt;Node18</title>
<g id="a_edge21_Node000012_Node000018"><a xlink:title=" ">
<path fill="none" stroke="#63b8ff" d="M1083.61,-157.5C1092.87,-157.5 1102.42,-157.5 1111.81,-157.5"/>
<polygon fill="#63b8ff" stroke="#63b8ff" points="1111.93,-161 1121.93,-157.5 1111.93,-154 1111.93,-161"/>
</a>
</g>
</g>
<!-- Node19 -->
<g id="Node000019" class="node">
<title>Node19</title>
<g id="a_Node000019"><a xlink:href="../../d9/dfa/Init_8cpp.html#a374cb6f303f72b5af970063ff1318f24" target="_top" xlink:title="Create the left wall and register it.">
<polygon fill="white" stroke="#666666" points="1236,-19 1148,-19 1148,0 1236,0 1236,-19"/>
<text text-anchor="middle" x="1192" y="-7" font-family="Helvetica,sans-Serif" font-size="10.00">SpawnLeftWall</text>
</a>
</g>
</g>
<!-- Node12&#45;&gt;Node19 -->
<g id="edge22_Node000012_Node000019" class="edge">
<title>Node12&#45;&gt;Node19</title>
<g id="a_edge22_Node000012_Node000019"><a xlink:title=" ">
<path fill="none" stroke="#63b8ff" d="M1072,-147.95C1077.12,-145.46 1081.9,-142.36 1086,-138.5 1123.74,-102.92 1084.27,-63.09 1122,-27.5 1126.67,-23.1 1132.28,-19.74 1138.25,-17.18"/>
<polygon fill="#63b8ff" stroke="#63b8ff" points="1139.6,-20.42 1147.86,-13.79 1137.27,-13.82 1139.6,-20.42"/>
</a>
</g>
</g>
<!-- Node20 -->
<g id="Node000020" class="node">
<title>Node20</title>
<g id="a_Node000020"><a xlink:href="../../d9/dfa/Init_8cpp.html#aa021dfea28868af5fdc6eb97fdf11395" target="_top" xlink:title="Create the player and register it.">
<polygon fill="white" stroke="#666666" points="1232,-241 1152,-241 1152,-222 1232,-222 1232,-241"/>
<text text-anchor="middle" x="1192" y="-229" font-family="Helvetica,sans-Serif" font-size="10.00">SpawnPlayer</text>
</a>
</g>
</g>
<!-- Node12&#45;&gt;Node20 -->
<g id="edge24_Node000012_Node000020" class="edge">
<title>Node12&#45;&gt;Node20</title>
<g id="a_edge24_Node000012_Node000020"><a xlink:title=" ">
<path fill="none" stroke="#63b8ff" d="M1029.52,-167.14C1050.47,-179.06 1087.98,-199.38 1122,-212.5 1128.39,-214.96 1135.22,-217.25 1142.01,-219.31"/>
<polygon fill="#63b8ff" stroke="#63b8ff" points="1141.3,-222.75 1151.88,-222.18 1143.25,-216.03 1141.3,-222.75"/>
</a>
</g>
</g>
<!-- Node21 -->
<g id="Node000021" class="node">
<title>Node21</title>
<g id="a_Node000021"><a xlink:href="../../d9/dfa/Init_8cpp.html#a0e2d0321a787eb9a3b705489c8f2b86b" target="_top" xlink:title="Create the right wall and register it.">
<polygon fill="white" stroke="#666666" points="1239.5,-204 1144.5,-204 1144.5,-185 1239.5,-185 1239.5,-204"/>
<text text-anchor="middle" x="1192" y="-192" font-family="Helvetica,sans-Serif" font-size="10.00">SpawnRightWall</text>
</a>
</g>
</g>
<!-- Node12&#45;&gt;Node21 -->
<g id="edge26_Node000012_Node000021" class="edge">
<title>Node12&#45;&gt;Node21</title>
<g id="a_edge26_Node000012_Node000021"><a xlink:title=" ">
<path fill="none" stroke="#63b8ff" d="M1058.84,-167.03C1082.11,-171.86 1110.57,-177.78 1135.11,-182.88"/>
<polygon fill="#63b8ff" stroke="#63b8ff" points="1134.5,-186.33 1145.01,-184.94 1135.93,-179.48 1134.5,-186.33"/>
</a>
</g>
</g>
<!-- Node13&#45;&gt;Node9 -->
<g id="edge13_Node000013_Node000009" class="edge">
<title>Node13&#45;&gt;Node9</title>
<g id="a_edge13_Node000013_Node000009"><a xlink:title=" ">
<path fill="none" stroke="#63b8ff" d="M1234.98,-130.03C1256,-134.8 1281.65,-140.62 1303.92,-145.68"/>
<polygon fill="#63b8ff" stroke="#63b8ff" points="1303.36,-149.14 1313.88,-147.94 1304.91,-142.31 1303.36,-149.14"/>
</a>
</g>
</g>
<!-- Node14&#45;&gt;Node9 -->
<g id="edge16_Node000014_Node000009" class="edge">
<title>Node14&#45;&gt;Node9</title>
<g id="a_edge16_Node000014_Node000009"><a xlink:title=" ">
<path fill="none" stroke="#63b8ff" d="M1240.31,-258.92C1247.83,-256.43 1255.32,-253.34 1262,-249.5 1295.61,-230.18 1325.98,-196.03 1342.62,-175.21"/>
<polygon fill="#63b8ff" stroke="#63b8ff" points="1345.49,-177.23 1348.89,-167.19 1339.98,-172.92 1345.49,-177.23"/>
</a>
</g>
</g>
<!-- Node15 -->
<g id="Node000015" class="node">
<title>Node15</title>
<g id="a_Node000015"><a xlink:href="../../d1/da9/AssetLoading_8cpp.html#a07739f40c13743b2dfceefb659d6d455" target="_top" xlink:title="Return the correct asset path for the asset depending on the current environment.">
<polygon fill="white" stroke="#666666" points="1398,-278 1316,-278 1316,-259 1398,-259 1398,-278"/>
<text text-anchor="middle" x="1357" y="-266" font-family="Helvetica,sans-Serif" font-size="10.00">GetAssetPath</text>
</a>
</g>
</g>
<!-- Node14&#45;&gt;Node15 -->
<g id="edge15_Node000014_Node000015" class="edge">
<title>Node14&#45;&gt;Node15</title>
<g id="a_edge15_Node000014_Node000015"><a xlink:title=" ">
<path fill="none" stroke="#63b8ff" d="M1256.95,-268.5C1273.04,-268.5 1290.09,-268.5 1305.42,-268.5"/>
<polygon fill="#63b8ff" stroke="#63b8ff" points="1305.73,-272 1315.73,-268.5 1305.73,-265 1305.73,-272"/>
</a>
</g>
</g>
<!-- Node16&#45;&gt;Node9 -->
<g id="edge18_Node000016_Node000009" class="edge">
<title>Node16&#45;&gt;Node9</title>
<g id="a_edge18_Node000016_Node000009"><a xlink:title=" ">
<path fill="none" stroke="#63b8ff" d="M1229.09,-90.87C1239.88,-93.62 1251.61,-97.15 1262,-101.5 1288.2,-112.46 1315.87,-129.72 1334.34,-142.19"/>
<polygon fill="#63b8ff" stroke="#63b8ff" points="1332.4,-145.1 1342.63,-147.87 1336.36,-139.33 1332.4,-145.1"/>
</a>
</g>
</g>
<!-- Node17&#45;&gt;Node9 -->
<g id="edge20_Node000017_Node000009" class="edge">
<title>Node17&#45;&gt;Node9</title>
<g id="a_edge20_Node000017_Node000009"><a xlink:title=" ">
<path fill="none" stroke="#63b8ff" d="M1242.51,-56.01C1249.28,-58.28 1255.98,-61.07 1262,-64.5 1296.04,-83.88 1326.46,-118.74 1342.97,-139.84"/>
<polygon fill="#63b8ff" stroke="#63b8ff" points="1340.31,-142.12 1349.16,-147.95 1345.87,-137.88 1340.31,-142.12"/>
</a>
</g>
</g>
<!-- Node19&#45;&gt;Node9 -->
<g id="edge23_Node000019_Node000009" class="edge">
<title>Node19&#45;&gt;Node9</title>
<g id="a_edge23_Node000019_Node000009"><a xlink:title=" ">
<path fill="none" stroke="#63b8ff" d="M1236.21,-15.91C1245.24,-18.54 1254.34,-22.26 1262,-27.5 1303.97,-56.21 1333.89,-110.09 1347.6,-138.64"/>
<polygon fill="#63b8ff" stroke="#63b8ff" points="1344.52,-140.32 1351.91,-147.92 1350.87,-137.37 1344.52,-140.32"/>
</a>
</g>
</g>
<!-- Node20&#45;&gt;Node9 -->
<g id="edge25_Node000020_Node000009" class="edge">
<title>Node20&#45;&gt;Node9</title>
<g id="a_edge25_Node000020_Node000009"><a xlink:title=" ">
<path fill="none" stroke="#63b8ff" d="M1232.29,-222.59C1242.16,-219.83 1252.61,-216.46 1262,-212.5 1287.9,-201.58 1315.42,-184.79 1333.95,-172.64"/>
<polygon fill="#63b8ff" stroke="#63b8ff" points="1335.89,-175.55 1342.27,-167.09 1332.01,-169.72 1335.89,-175.55"/>
</a>
</g>
</g>
<!-- Node21&#45;&gt;Node9 -->
<g id="edge27_Node000021_Node000009" class="edge">
<title>Node21&#45;&gt;Node9</title>
<g id="a_edge27_Node000021_Node000009"><a xlink:title=" ">
<path fill="none" stroke="#63b8ff" d="M1234.98,-184.97C1256,-180.2 1281.65,-174.38 1303.92,-169.32"/>
<polygon fill="#63b8ff" stroke="#63b8ff" points="1304.91,-172.69 1313.88,-167.06 1303.36,-165.86 1304.91,-172.69"/>
</a>
</g>
</g>
<!-- Node25 -->
<g id="Node000025" class="node">
<title>Node25</title>
<g id="a_Node000025"><a xlink:href="../../d2/d3b/KeyboardHandling_8cpp.html#a2b6d8aae8fe15780544c6ada95a93033" target="_top" xlink:title="Handle a keyboard event.">
<polygon fill="white" stroke="#666666" points="368,-193 243,-193 243,-174 368,-174 368,-193"/>
<text text-anchor="middle" x="305.5" y="-181" font-family="Helvetica,sans-Serif" font-size="10.00">HandleKeyboardEvent</text>
</a>
</g>
</g>
<!-- Node24&#45;&gt;Node25 -->
<g id="edge31_Node000024_Node000025" class="edge">
<title>Node24&#45;&gt;Node25</title>
<g id="a_edge31_Node000024_Node000025"><a xlink:title=" ">
<path fill="none" stroke="#63b8ff" d="M195.39,-189.4C206.87,-188.78 219.83,-188.08 232.7,-187.38"/>
<polygon fill="#63b8ff" stroke="#63b8ff" points="233.18,-190.86 242.97,-186.83 232.8,-183.87 233.18,-190.86"/>
</a>
</g>
</g>
<!-- Node26 -->
<g id="Node000026" class="node">
<title>Node26</title>
<g id="a_Node000026"><a xlink:href="../../de/d47/classKeyboardHandlerBehavior.html#aedfbd0872b0f5331ffece766aaa7b3c2" target="_top" xlink:title="Called when a key is pressed (or held) down.">
<polygon fill="white" stroke="#666666" points="548,-222.5 404,-222.5 404,-192.5 548,-192.5 548,-222.5"/>
<text text-anchor="start" x="412" y="-210.5" font-family="Helvetica,sans-Serif" font-size="10.00">KeyboardHandlerBehavior</text>
<text text-anchor="middle" x="476" y="-199.5" font-family="Helvetica,sans-Serif" font-size="10.00">::OnKeyDown</text>
</a>
</g>
</g>
<!-- Node25&#45;&gt;Node26 -->
<g id="edge32_Node000025_Node000026" class="edge">
<title>Node25&#45;&gt;Node26</title>
<g id="a_edge32_Node000025_Node000026"><a xlink:title=" ">
<path fill="none" stroke="#63b8ff" d="M368.29,-192.3C376.59,-193.48 385.21,-194.71 393.78,-195.93"/>
<polygon fill="#63b8ff" stroke="#63b8ff" points="393.42,-199.42 403.81,-197.36 394.4,-192.48 393.42,-199.42"/>
</a>
</g>
</g>
<!-- Node27 -->
<g id="Node000027" class="node">
<title>Node27</title>
<g id="a_Node000027"><a xlink:href="../../de/d47/classKeyboardHandlerBehavior.html#a2ffe164cb50551f0d20b40753b0d193d" target="_top" xlink:title="Called when a key is released.">
<polygon fill="white" stroke="#666666" points="548,-174.5 404,-174.5 404,-144.5 548,-144.5 548,-174.5"/>
<text text-anchor="start" x="412" y="-162.5" font-family="Helvetica,sans-Serif" font-size="10.00">KeyboardHandlerBehavior</text>
<text text-anchor="middle" x="476" y="-151.5" font-family="Helvetica,sans-Serif" font-size="10.00">::OnKeyUp</text>
</a>
</g>
</g>
<!-- Node25&#45;&gt;Node27 -->
<g id="edge33_Node000025_Node000027" class="edge">
<title>Node25&#45;&gt;Node27</title>
<g id="a_edge33_Node000025_Node000027"><a xlink:title=" ">
<path fill="none" stroke="#63b8ff" d="M368.29,-174.7C376.59,-173.52 385.21,-172.29 393.78,-171.07"/>
<polygon fill="#63b8ff" stroke="#63b8ff" points="394.4,-174.52 403.81,-169.64 393.42,-167.58 394.4,-174.52"/>
</a>
</g>
</g>
<!-- Node28 -->
<g id="Node000028" class="node">
<title>Node28</title>
<g id="a_Node000028"><a xlink:href="../../d9/df7/classGameObjectComponent.html#ade2db51ea6caeaa80b1a80395ffbb779" target="_top" xlink:title=" ">
<polygon fill="white" stroke="#666666" points="543,-126.5 409,-126.5 409,-96.5 543,-96.5 543,-126.5"/>
<text text-anchor="start" x="417" y="-114.5" font-family="Helvetica,sans-Serif" font-size="10.00">GameObjectComponent</text>
<text text-anchor="middle" x="476" y="-103.5" font-family="Helvetica,sans-Serif" font-size="10.00">::OnTick</text>
</a>
</g>
</g>
<!-- Node25&#45;&gt;Node28 -->
<g id="edge34_Node000025_Node000028" class="edge">
<title>Node25&#45;&gt;Node28</title>
<g id="a_edge34_Node000025_Node000028"><a xlink:title=" ">
<path fill="none" stroke="#63b8ff" d="M324.15,-173.94C343.43,-163.69 375.4,-147.31 404,-135.5 408.5,-133.64 413.2,-131.81 417.94,-130.05"/>
<polygon fill="#63b8ff" stroke="#63b8ff" points="419.49,-133.21 427.7,-126.52 417.11,-126.63 419.49,-133.21"/>
</a>
</g>
</g>
</g>
</svg>
