<?xml version="1.0" encoding="UTF-8" standalone="no"?>
<!DOCTYPE svg PUBLIC "-//W3C//DTD SVG 1.1//EN"
 "http://www.w3.org/Graphics/SVG/1.1/DTD/svg11.dtd">
<!-- Generated by graphviz version 2.43.0 (0)
 -->
<!-- Title: GameObjectComponent Pages: 1 -->
<svg width="2107pt" height="854pt"
 viewBox="0.00 0.00 2107.00 854.00" xmlns="http://www.w3.org/2000/svg" xmlns:xlink="http://www.w3.org/1999/xlink">
<g id="graph0" class="graph" transform="scale(1 1) rotate(0) translate(4 850)">
<title>GameObjectComponent</title>
<!-- Node1 -->
<g id="node1" class="node">
<title>Node1</title>
<g id="a_node1"><a xlink:title="An abstract gameobject component.">
<polygon fill="#999999" stroke="#666666" points="1182,-700.5 1182,-845.5 1377,-845.5 1377,-700.5 1182,-700.5"/>
<text text-anchor="middle" x="1279.5" y="-833.5" font-family="Helvetica,sans-Serif" font-size="10.00">GameObjectComponent</text>
<polyline fill="none" stroke="#666666" points="1182,-826.5 1377,-826.5 "/>
<text text-anchor="start" x="1190" y="-814.5" font-family="Helvetica,sans-Serif" font-size="10.00"># bool enabled</text>
<text text-anchor="start" x="1190" y="-803.5" font-family="Helvetica,sans-Serif" font-size="10.00"># GameObject * parent</text>
<polyline fill="none" stroke="#666666" points="1182,-796.5 1377,-796.5 "/>
<text text-anchor="start" x="1190" y="-784.5" font-family="Helvetica,sans-Serif" font-size="10.00">+ bool getEnabled() const</text>
<text text-anchor="start" x="1190" y="-773.5" font-family="Helvetica,sans-Serif" font-size="10.00">+ void setEnabled(bool</text>
<text text-anchor="start" x="1190" y="-762.5" font-family="Helvetica,sans-Serif" font-size="10.00"> value)</text>
<text text-anchor="start" x="1190" y="-751.5" font-family="Helvetica,sans-Serif" font-size="10.00">+ void setParent(GameObject</text>
<text text-anchor="start" x="1190" y="-740.5" font-family="Helvetica,sans-Serif" font-size="10.00"> *value)</text>
<text text-anchor="start" x="1190" y="-729.5" font-family="Helvetica,sans-Serif" font-size="10.00">+ virtual ~GameObjectComponent()</text>
<text text-anchor="start" x="1190" y="-718.5" font-family="Helvetica,sans-Serif" font-size="10.00">+ virtual void OnTick()=0</text>
<text text-anchor="start" x="1190" y="-707.5" font-family="Helvetica,sans-Serif" font-size="10.00">+ virtual void OnStart()=0</text>
</a>
</g>
</g>
<!-- Node2 -->
<g id="node2" class="node">
<title>Node2</title>
<g id="a_node2"><a xlink:href="../../df/dc1/classBehavior.html" target="_top" xlink:title="An abstract gameobject behavior.">
<polygon fill="white" stroke="#666666" points="841.5,-590 841.5,-647 901.5,-647 901.5,-590 841.5,-590"/>
<text text-anchor="middle" x="871.5" y="-635" font-family="Helvetica,sans-Serif" font-size="10.00">Behavior</text>
<polyline fill="none" stroke="#666666" points="841.5,-628 901.5,-628 "/>
<text text-anchor="middle" x="871.5" y="-616" font-family="Helvetica,sans-Serif" font-size="10.00"> </text>
<polyline fill="none" stroke="#666666" points="841.5,-609 901.5,-609 "/>
<text text-anchor="middle" x="871.5" y="-597" font-family="Helvetica,sans-Serif" font-size="10.00"> </text>
</a>
</g>
</g>
<!-- Node1&#45;&gt;Node2 -->
<g id="edge1" class="edge">
<title>Node1&#45;&gt;Node2</title>
<path fill="none" stroke="#63b8ff" d="M1172.29,-731.93C1081.7,-698.07 957.97,-651.82 901.64,-630.76"/>
<polygon fill="none" stroke="#63b8ff" points="1171.18,-735.25 1181.77,-735.47 1173.63,-728.69 1171.18,-735.25"/>
</g>
<!-- Node18 -->
<g id="node18" class="node">
<title>Node18</title>
<g id="a_node18"><a xlink:href="../../d1/d52/classRenderer.html" target="_top" xlink:title="Abstract renderer component.">
<polygon fill="white" stroke="#666666" points="1698,-573.5 1698,-663.5 1847,-663.5 1847,-573.5 1698,-573.5"/>
<text text-anchor="middle" x="1772.5" y="-651.5" font-family="Helvetica,sans-Serif" font-size="10.00">Renderer</text>
<polyline fill="none" stroke="#666666" points="1698,-644.5 1847,-644.5 "/>
<text text-anchor="start" x="1706" y="-632.5" font-family="Helvetica,sans-Serif" font-size="10.00"># SDL_Renderer * renderer</text>
<polyline fill="none" stroke="#666666" points="1698,-625.5 1847,-625.5 "/>
<text text-anchor="start" x="1706" y="-613.5" font-family="Helvetica,sans-Serif" font-size="10.00">+ Renderer()</text>
<text text-anchor="start" x="1706" y="-602.5" font-family="Helvetica,sans-Serif" font-size="10.00">+ Renderer(SDL_Renderer</text>
<text text-anchor="start" x="1706" y="-591.5" font-family="Helvetica,sans-Serif" font-size="10.00"> *renderer)</text>
<text text-anchor="start" x="1706" y="-580.5" font-family="Helvetica,sans-Serif" font-size="10.00">+ ~Renderer()</text>
</a>
</g>
</g>
<!-- Node1&#45;&gt;Node18 -->
<g id="edge17" class="edge">
<title>Node1&#45;&gt;Node18</title>
<path fill="none" stroke="#63b8ff" d="M1387.03,-738.74C1481.07,-709.65 1615.21,-668.15 1697.92,-642.57"/>
<polygon fill="none" stroke="#63b8ff" points="1385.71,-735.48 1377.2,-741.78 1387.78,-742.17 1385.71,-735.48"/>
</g>
<!-- Node3 -->
<g id="node3" class="node">
<title>Node3</title>
<g id="a_node3"><a xlink:href="../../d1/d43/classCoffeeBehavior.html" target="_top" xlink:title=" ">
<polygon fill="white" stroke="#666666" points="0,-331 0,-421 123,-421 123,-331 0,-331"/>
<text text-anchor="middle" x="61.5" y="-409" font-family="Helvetica,sans-Serif" font-size="10.00">CoffeeBehavior</text>
<polyline fill="none" stroke="#666666" points="0,-402 123,-402 "/>
<text text-anchor="middle" x="61.5" y="-390" font-family="Helvetica,sans-Serif" font-size="10.00"> </text>
<polyline fill="none" stroke="#666666" points="0,-383 123,-383 "/>
<text text-anchor="start" x="8" y="-371" font-family="Helvetica,sans-Serif" font-size="10.00">+ virtual void OnTick</text>
<text text-anchor="start" x="8" y="-360" font-family="Helvetica,sans-Serif" font-size="10.00">() override</text>
<text text-anchor="start" x="8" y="-349" font-family="Helvetica,sans-Serif" font-size="10.00">+ virtual void OnStart</text>
<text text-anchor="start" x="8" y="-338" font-family="Helvetica,sans-Serif" font-size="10.00">() override</text>
</a>
</g>
</g>
<!-- Node2&#45;&gt;Node3 -->
<g id="edge2" class="edge">
<title>Node2&#45;&gt;Node3</title>
<path fill="none" stroke="#63b8ff" d="M830.77,-615.44C684.06,-607.7 188.22,-578.65 131.5,-537 94.35,-509.72 76.64,-458.43 68.38,-421.26"/>
<polygon fill="none" stroke="#63b8ff" points="830.95,-618.95 841.12,-615.98 831.32,-611.96 830.95,-618.95"/>
</g>
<!-- Node4 -->
<g id="node4" class="node">
<title>Node4</title>
<g id="a_node4"><a xlink:href="../../d4/dd8/classCoffeeMeterBehavior.html" target="_top" xlink:title=" ">
<polygon fill="white" stroke="#666666" points="141,-298 141,-454 292,-454 292,-298 141,-298"/>
<text text-anchor="middle" x="216.5" y="-442" font-family="Helvetica,sans-Serif" font-size="10.00">CoffeeMeterBehavior</text>
<polyline fill="none" stroke="#666666" points="141,-435 292,-435 "/>
<text text-anchor="start" x="149" y="-423" font-family="Helvetica,sans-Serif" font-size="10.00"># float coffeeLevel</text>
<polyline fill="none" stroke="#666666" points="141,-416 292,-416 "/>
<text text-anchor="start" x="149" y="-404" font-family="Helvetica,sans-Serif" font-size="10.00">+ float getCoffeeLevel</text>
<text text-anchor="start" x="149" y="-393" font-family="Helvetica,sans-Serif" font-size="10.00">() const</text>
<text text-anchor="start" x="149" y="-382" font-family="Helvetica,sans-Serif" font-size="10.00">+ void setCoffeeLevel</text>
<text text-anchor="start" x="149" y="-371" font-family="Helvetica,sans-Serif" font-size="10.00">(float value)</text>
<text text-anchor="start" x="149" y="-360" font-family="Helvetica,sans-Serif" font-size="10.00">+ void IncreaseCoffeeLevel</text>
<text text-anchor="start" x="149" y="-349" font-family="Helvetica,sans-Serif" font-size="10.00">(float amount)</text>
<text text-anchor="start" x="149" y="-338" font-family="Helvetica,sans-Serif" font-size="10.00">+ virtual void OnTick</text>
<text text-anchor="start" x="149" y="-327" font-family="Helvetica,sans-Serif" font-size="10.00">() override</text>
<text text-anchor="start" x="149" y="-316" font-family="Helvetica,sans-Serif" font-size="10.00">+ virtual void OnStart</text>
<text text-anchor="start" x="149" y="-305" font-family="Helvetica,sans-Serif" font-size="10.00">() override</text>
</a>
</g>
</g>
<!-- Node2&#45;&gt;Node4 -->
<g id="edge3" class="edge">
<title>Node2&#45;&gt;Node4</title>
<path fill="none" stroke="#63b8ff" d="M831.05,-616.5C715.45,-612.92 386.41,-597.52 300.5,-537 272.29,-517.13 252.81,-484.79 239.77,-454.37"/>
<polygon fill="none" stroke="#63b8ff" points="831.14,-620 841.24,-616.8 831.35,-613 831.14,-620"/>
</g>
<!-- Node5 -->
<g id="node5" class="node">
<title>Node5</title>
<g id="a_node5"><a xlink:href="../../d9/df0/classCollisionBehavior.html" target="_top" xlink:title="Controlls collision of an object with other objects that also have this or a child component.">
<polygon fill="white" stroke="#666666" points="310,-265 310,-487 475,-487 475,-265 310,-265"/>
<text text-anchor="middle" x="392.5" y="-475" font-family="Helvetica,sans-Serif" font-size="10.00">CollisionBehavior</text>
<polyline fill="none" stroke="#666666" points="310,-468 475,-468 "/>
<text text-anchor="start" x="318" y="-456" font-family="Helvetica,sans-Serif" font-size="10.00"># std::shared_ptr&lt; Vector2</text>
<text text-anchor="start" x="318" y="-445" font-family="Helvetica,sans-Serif" font-size="10.00"> &gt; colliderSize</text>
<polyline fill="none" stroke="#666666" points="310,-438 475,-438 "/>
<text text-anchor="start" x="318" y="-426" font-family="Helvetica,sans-Serif" font-size="10.00">+ bool IsPointInsideCollider</text>
<text text-anchor="start" x="318" y="-415" font-family="Helvetica,sans-Serif" font-size="10.00">(Vector2 position)</text>
<text text-anchor="start" x="318" y="-404" font-family="Helvetica,sans-Serif" font-size="10.00">+ void OnTick() override</text>
<text text-anchor="start" x="318" y="-393" font-family="Helvetica,sans-Serif" font-size="10.00">+ void OnStart() override</text>
<text text-anchor="start" x="318" y="-382" font-family="Helvetica,sans-Serif" font-size="10.00">+ const std::shared_ptr</text>
<text text-anchor="start" x="318" y="-371" font-family="Helvetica,sans-Serif" font-size="10.00">&lt; Vector2 &gt; getColliderSize()</text>
<text text-anchor="start" x="318" y="-360" font-family="Helvetica,sans-Serif" font-size="10.00">+ virtual void BeforeCollision</text>
<text text-anchor="start" x="318" y="-349" font-family="Helvetica,sans-Serif" font-size="10.00">(std::shared_ptr&lt; GameObject</text>
<text text-anchor="start" x="318" y="-338" font-family="Helvetica,sans-Serif" font-size="10.00"> &gt; other)</text>
<text text-anchor="start" x="318" y="-327" font-family="Helvetica,sans-Serif" font-size="10.00">+ CollisionBehavior()</text>
<text text-anchor="start" x="318" y="-316" font-family="Helvetica,sans-Serif" font-size="10.00">+ CollisionBehavior</text>
<text text-anchor="start" x="318" y="-305" font-family="Helvetica,sans-Serif" font-size="10.00">(int x, int y)</text>
<text text-anchor="start" x="318" y="-294" font-family="Helvetica,sans-Serif" font-size="10.00"># bool CheckForCollision</text>
<text text-anchor="start" x="318" y="-283" font-family="Helvetica,sans-Serif" font-size="10.00">(std::shared_ptr&lt; GameObject</text>
<text text-anchor="start" x="318" y="-272" font-family="Helvetica,sans-Serif" font-size="10.00"> &gt; other)</text>
</a>
</g>
</g>
<!-- Node2&#45;&gt;Node5 -->
<g id="edge4" class="edge">
<title>Node2&#45;&gt;Node5</title>
<path fill="none" stroke="#63b8ff" d="M831.23,-613.32C743.78,-603.59 539.9,-577.14 484.5,-537 466.47,-523.93 451.44,-506.17 439.13,-487.22"/>
<polygon fill="none" stroke="#63b8ff" points="830.98,-616.81 841.3,-614.43 831.74,-609.86 830.98,-616.81"/>
</g>
<!-- Node9 -->
<g id="node9" class="node">
<title>Node9</title>
<g id="a_node9"><a xlink:href="../../d9/ddc/classEnemyBehavior.html" target="_top" xlink:title=" ">
<polygon fill="white" stroke="#666666" points="493.5,-342 493.5,-410 633.5,-410 633.5,-342 493.5,-342"/>
<text text-anchor="middle" x="563.5" y="-398" font-family="Helvetica,sans-Serif" font-size="10.00">EnemyBehavior</text>
<polyline fill="none" stroke="#666666" points="493.5,-391 633.5,-391 "/>
<text text-anchor="middle" x="563.5" y="-379" font-family="Helvetica,sans-Serif" font-size="10.00"> </text>
<polyline fill="none" stroke="#666666" points="493.5,-372 633.5,-372 "/>
<text text-anchor="start" x="501.5" y="-360" font-family="Helvetica,sans-Serif" font-size="10.00">+ void OnTick() override</text>
<text text-anchor="start" x="501.5" y="-349" font-family="Helvetica,sans-Serif" font-size="10.00">+ void OnStart() override</text>
</a>
</g>
</g>
<!-- Node2&#45;&gt;Node9 -->
<g id="edge8" class="edge">
<title>Node2&#45;&gt;Node9</title>
<path fill="none" stroke="#63b8ff" d="M831.05,-612.68C781.26,-604.84 696.68,-585.01 642.5,-537 604.13,-503 582.35,-446.09 571.75,-410.1"/>
<polygon fill="none" stroke="#63b8ff" points="830.71,-616.17 841.12,-614.18 831.74,-609.25 830.71,-616.17"/>
</g>
<!-- Node10 -->
<g id="node10" class="node">
<title>Node10</title>
<g id="a_node10"><a xlink:href="../../d1/d21/classGameManagerBehavior.html" target="_top" xlink:title="The base game manager behavior.">
<polygon fill="white" stroke="#666666" points="651.5,-331 651.5,-421 783.5,-421 783.5,-331 651.5,-331"/>
<text text-anchor="middle" x="717.5" y="-409" font-family="Helvetica,sans-Serif" font-size="10.00">GameManagerBehavior</text>
<polyline fill="none" stroke="#666666" points="651.5,-402 783.5,-402 "/>
<text text-anchor="middle" x="717.5" y="-390" font-family="Helvetica,sans-Serif" font-size="10.00"> </text>
<polyline fill="none" stroke="#666666" points="651.5,-383 783.5,-383 "/>
<text text-anchor="start" x="659.5" y="-371" font-family="Helvetica,sans-Serif" font-size="10.00">+ virtual void OnTick</text>
<text text-anchor="start" x="659.5" y="-360" font-family="Helvetica,sans-Serif" font-size="10.00">() override</text>
<text text-anchor="start" x="659.5" y="-349" font-family="Helvetica,sans-Serif" font-size="10.00">+ virtual void OnStart</text>
<text text-anchor="start" x="659.5" y="-338" font-family="Helvetica,sans-Serif" font-size="10.00">() override</text>
</a>
</g>
</g>
<!-- Node2&#45;&gt;Node10 -->
<g id="edge9" class="edge">
<title>Node2&#45;&gt;Node10</title>
<path fill="none" stroke="#63b8ff" d="M833.95,-584.37C819.8,-570.65 804.3,-553.98 792.5,-537 767.3,-500.72 746.72,-454.63 733.53,-421.25"/>
<polygon fill="none" stroke="#63b8ff" points="831.54,-586.91 841.2,-591.27 836.37,-581.84 831.54,-586.91"/>
</g>
<!-- Node11 -->
<g id="node11" class="node">
<title>Node11</title>
<g id="a_node11"><a xlink:href="../../d8/d05/classGravityBehavior.html" target="_top" xlink:title=" ">
<polygon fill="white" stroke="#666666" points="801.5,-325.5 801.5,-426.5 941.5,-426.5 941.5,-325.5 801.5,-325.5"/>
<text text-anchor="middle" x="871.5" y="-414.5" font-family="Helvetica,sans-Serif" font-size="10.00">GravityBehavior</text>
<polyline fill="none" stroke="#666666" points="801.5,-407.5 941.5,-407.5 "/>
<text text-anchor="start" x="809.5" y="-395.5" font-family="Helvetica,sans-Serif" font-size="10.00"># float gravityScale</text>
<polyline fill="none" stroke="#666666" points="801.5,-388.5 941.5,-388.5 "/>
<text text-anchor="start" x="809.5" y="-376.5" font-family="Helvetica,sans-Serif" font-size="10.00">+ float getGravityScale()</text>
<text text-anchor="start" x="809.5" y="-365.5" font-family="Helvetica,sans-Serif" font-size="10.00">+ void setGravityScale</text>
<text text-anchor="start" x="809.5" y="-354.5" font-family="Helvetica,sans-Serif" font-size="10.00">(float value)</text>
<text text-anchor="start" x="809.5" y="-343.5" font-family="Helvetica,sans-Serif" font-size="10.00">+ void OnTick() override</text>
<text text-anchor="start" x="809.5" y="-332.5" font-family="Helvetica,sans-Serif" font-size="10.00">+ void OnStart() override</text>
</a>
</g>
</g>
<!-- Node2&#45;&gt;Node11 -->
<g id="edge10" class="edge">
<title>Node2&#45;&gt;Node11</title>
<path fill="none" stroke="#63b8ff" d="M871.5,-579.74C871.5,-538.49 871.5,-472.26 871.5,-426.79"/>
<polygon fill="none" stroke="#63b8ff" points="868,-579.91 871.5,-589.91 875,-579.91 868,-579.91"/>
</g>
<!-- Node12 -->
<g id="node12" class="node">
<title>Node12</title>
<g id="a_node12"><a xlink:href="../../de/d47/classKeyboardHandlerBehavior.html" target="_top" xlink:title="An abstract class for handling keyboard inputs.">
<polygon fill="white" stroke="#666666" points="959.5,-331 959.5,-421 1111.5,-421 1111.5,-331 959.5,-331"/>
<text text-anchor="middle" x="1035.5" y="-409" font-family="Helvetica,sans-Serif" font-size="10.00">KeyboardHandlerBehavior</text>
<polyline fill="none" stroke="#666666" points="959.5,-402 1111.5,-402 "/>
<text text-anchor="middle" x="1035.5" y="-390" font-family="Helvetica,sans-Serif" font-size="10.00"> </text>
<polyline fill="none" stroke="#666666" points="959.5,-383 1111.5,-383 "/>
<text text-anchor="start" x="967.5" y="-371" font-family="Helvetica,sans-Serif" font-size="10.00">+ virtual void OnKeyDown</text>
<text text-anchor="start" x="967.5" y="-360" font-family="Helvetica,sans-Serif" font-size="10.00">(SDL_KeyboardEvent &amp;e)=0</text>
<text text-anchor="start" x="967.5" y="-349" font-family="Helvetica,sans-Serif" font-size="10.00">+ virtual void OnKeyUp</text>
<text text-anchor="start" x="967.5" y="-338" font-family="Helvetica,sans-Serif" font-size="10.00">(SDL_KeyboardEvent &amp;e)=0</text>
</a>
</g>
</g>
<!-- Node2&#45;&gt;Node12 -->
<g id="edge11" class="edge">
<title>Node2&#45;&gt;Node12</title>
<path fill="none" stroke="#63b8ff" d="M909.34,-583.35C923.24,-569.73 938.49,-553.39 950.5,-537 977.26,-500.46 1000.81,-454.4 1016.3,-421.1"/>
<polygon fill="none" stroke="#63b8ff" points="906.56,-581.17 901.79,-590.63 911.42,-586.21 906.56,-581.17"/>
</g>
<!-- Node15 -->
<g id="node15" class="node">
<title>Node15</title>
<g id="a_node15"><a xlink:href="../../dd/df8/classKinematicBehavior.html" target="_top" xlink:title="Component causing the velocity of an object to update it&#39;s position.">
<polygon fill="white" stroke="#666666" points="1129.5,-342 1129.5,-410 1269.5,-410 1269.5,-342 1129.5,-342"/>
<text text-anchor="middle" x="1199.5" y="-398" font-family="Helvetica,sans-Serif" font-size="10.00">KinematicBehavior</text>
<polyline fill="none" stroke="#666666" points="1129.5,-391 1269.5,-391 "/>
<text text-anchor="middle" x="1199.5" y="-379" font-family="Helvetica,sans-Serif" font-size="10.00"> </text>
<polyline fill="none" stroke="#666666" points="1129.5,-372 1269.5,-372 "/>
<text text-anchor="start" x="1137.5" y="-360" font-family="Helvetica,sans-Serif" font-size="10.00">+ void OnTick() override</text>
<text text-anchor="start" x="1137.5" y="-349" font-family="Helvetica,sans-Serif" font-size="10.00">+ void OnStart() override</text>
</a>
</g>
</g>
<!-- Node2&#45;&gt;Node15 -->
<g id="edge14" class="edge">
<title>Node2&#45;&gt;Node15</title>
<path fill="none" stroke="#63b8ff" d="M911.72,-614.12C965.22,-607.67 1060.06,-589.2 1120.5,-537 1159.3,-503.49 1180.95,-446.43 1191.41,-410.28"/>
<polygon fill="none" stroke="#63b8ff" points="911.14,-610.66 901.6,-615.25 911.92,-617.62 911.14,-610.66"/>
</g>
<!-- Node16 -->
<g id="node16" class="node">
<title>Node16</title>
<g id="a_node16"><a xlink:href="../../d3/dc0/classPlayerBehavior.html" target="_top" xlink:title="The players basic behavior.">
<polygon fill="white" stroke="#666666" points="1288,-303.5 1288,-448.5 1449,-448.5 1449,-303.5 1288,-303.5"/>
<text text-anchor="middle" x="1368.5" y="-436.5" font-family="Helvetica,sans-Serif" font-size="10.00">PlayerBehavior</text>
<polyline fill="none" stroke="#666666" points="1288,-429.5 1449,-429.5 "/>
<text text-anchor="start" x="1296" y="-417.5" font-family="Helvetica,sans-Serif" font-size="10.00"># unsigned int jumpPoints</text>
<text text-anchor="start" x="1296" y="-406.5" font-family="Helvetica,sans-Serif" font-size="10.00"># const unsigned int</text>
<text text-anchor="start" x="1296" y="-395.5" font-family="Helvetica,sans-Serif" font-size="10.00"> defaultJumpPoints</text>
<polyline fill="none" stroke="#666666" points="1288,-388.5 1449,-388.5 "/>
<text text-anchor="start" x="1296" y="-376.5" font-family="Helvetica,sans-Serif" font-size="10.00">+ unsigned int getJumpPoints</text>
<text text-anchor="start" x="1296" y="-365.5" font-family="Helvetica,sans-Serif" font-size="10.00">() const</text>
<text text-anchor="start" x="1296" y="-354.5" font-family="Helvetica,sans-Serif" font-size="10.00">+ void setJumpPoints</text>
<text text-anchor="start" x="1296" y="-343.5" font-family="Helvetica,sans-Serif" font-size="10.00">(unsigned int value)</text>
<text text-anchor="start" x="1296" y="-332.5" font-family="Helvetica,sans-Serif" font-size="10.00">+ void ResetJumpPoints()</text>
<text text-anchor="start" x="1296" y="-321.5" font-family="Helvetica,sans-Serif" font-size="10.00">+ void OnTick() override</text>
<text text-anchor="start" x="1296" y="-310.5" font-family="Helvetica,sans-Serif" font-size="10.00">+ void OnStart() override</text>
</a>
</g>
</g>
<!-- Node2&#45;&gt;Node16 -->
<g id="edge15" class="edge">
<title>Node2&#45;&gt;Node16</title>
<path fill="none" stroke="#63b8ff" d="M911.94,-613.8C1002.84,-604.82 1219.93,-579.42 1278.5,-537 1308.44,-515.31 1329.73,-480.43 1344.05,-448.76"/>
<polygon fill="none" stroke="#63b8ff" points="911.37,-610.34 901.75,-614.79 912.05,-617.31 911.37,-610.34"/>
</g>
<!-- Node17 -->
<g id="node17" class="node">
<title>Node17</title>
<g id="a_node17"><a xlink:href="../../db/d44/classScoreCounterBehavior.html" target="_top" xlink:title=" ">
<polygon fill="white" stroke="#666666" points="1467,-331 1467,-421 1592,-421 1592,-331 1467,-331"/>
<text text-anchor="middle" x="1529.5" y="-409" font-family="Helvetica,sans-Serif" font-size="10.00">ScoreCounterBehavior</text>
<polyline fill="none" stroke="#666666" points="1467,-402 1592,-402 "/>
<text text-anchor="middle" x="1529.5" y="-390" font-family="Helvetica,sans-Serif" font-size="10.00"> </text>
<polyline fill="none" stroke="#666666" points="1467,-383 1592,-383 "/>
<text text-anchor="start" x="1475" y="-371" font-family="Helvetica,sans-Serif" font-size="10.00">+ virtual void OnTick</text>
<text text-anchor="start" x="1475" y="-360" font-family="Helvetica,sans-Serif" font-size="10.00">() override</text>
<text text-anchor="start" x="1475" y="-349" font-family="Helvetica,sans-Serif" font-size="10.00">+ virtual void OnStart</text>
<text text-anchor="start" x="1475" y="-338" font-family="Helvetica,sans-Serif" font-size="10.00">() override</text>
</a>
</g>
</g>
<!-- Node2&#45;&gt;Node17 -->
<g id="edge16" class="edge">
<title>Node2&#45;&gt;Node17</title>
<path fill="none" stroke="#63b8ff" d="M911.6,-616.92C1029.28,-614.49 1370.79,-601.86 1457.5,-537 1494.58,-509.27 1513.01,-458.06 1521.86,-421.03"/>
<polygon fill="none" stroke="#63b8ff" points="911.51,-613.42 901.57,-617.12 911.64,-620.42 911.51,-613.42"/>
</g>
<!-- Node6 -->
<g id="node6" class="node">
<title>Node6</title>
<g id="a_node6"><a xlink:href="../../dd/dcf/classCoffeeCollisionBehavior.html" target="_top" xlink:title=" ">
<polygon fill="white" stroke="#666666" points="127,-28 127,-151 292,-151 292,-28 127,-28"/>
<text text-anchor="middle" x="209.5" y="-139" font-family="Helvetica,sans-Serif" font-size="10.00">CoffeeCollisionBehavior</text>
<polyline fill="none" stroke="#666666" points="127,-132 292,-132 "/>
<text text-anchor="middle" x="209.5" y="-120" font-family="Helvetica,sans-Serif" font-size="10.00"> </text>
<polyline fill="none" stroke="#666666" points="127,-113 292,-113 "/>
<text text-anchor="start" x="135" y="-101" font-family="Helvetica,sans-Serif" font-size="10.00">+ CoffeeCollisionBehavior()</text>
<text text-anchor="start" x="135" y="-90" font-family="Helvetica,sans-Serif" font-size="10.00">+ CoffeeCollisionBehavior</text>
<text text-anchor="start" x="135" y="-79" font-family="Helvetica,sans-Serif" font-size="10.00">(int x, int y)</text>
<text text-anchor="start" x="135" y="-68" font-family="Helvetica,sans-Serif" font-size="10.00">+ ~CoffeeCollisionBehavior()</text>
<text text-anchor="start" x="135" y="-57" font-family="Helvetica,sans-Serif" font-size="10.00">+ virtual void BeforeCollision</text>
<text text-anchor="start" x="135" y="-46" font-family="Helvetica,sans-Serif" font-size="10.00">(std::shared_ptr&lt; GameObject</text>
<text text-anchor="start" x="135" y="-35" font-family="Helvetica,sans-Serif" font-size="10.00"> &gt; other) override</text>
</a>
</g>
</g>
<!-- Node5&#45;&gt;Node6 -->
<g id="edge5" class="edge">
<title>Node5&#45;&gt;Node6</title>
<path fill="none" stroke="#63b8ff" d="M326.04,-256.04C317.66,-242.07 309.03,-228.13 300.5,-215 286.71,-193.79 270.7,-171.27 255.99,-151.31"/>
<polygon fill="none" stroke="#63b8ff" points="323.09,-257.93 331.21,-264.74 329.11,-254.35 323.09,-257.93"/>
</g>
<!-- Node7 -->
<g id="node7" class="node">
<title>Node7</title>
<g id="a_node7"><a xlink:href="../../d1/d1b/classEnemyCollisionBehavior.html" target="_top" xlink:title=" ">
<polygon fill="white" stroke="#666666" points="310,-33.5 310,-145.5 475,-145.5 475,-33.5 310,-33.5"/>
<text text-anchor="middle" x="392.5" y="-133.5" font-family="Helvetica,sans-Serif" font-size="10.00">EnemyCollisionBehavior</text>
<polyline fill="none" stroke="#666666" points="310,-126.5 475,-126.5 "/>
<text text-anchor="middle" x="392.5" y="-114.5" font-family="Helvetica,sans-Serif" font-size="10.00"> </text>
<polyline fill="none" stroke="#666666" points="310,-107.5 475,-107.5 "/>
<text text-anchor="start" x="318" y="-95.5" font-family="Helvetica,sans-Serif" font-size="10.00">+ EnemyCollisionBehavior()</text>
<text text-anchor="start" x="318" y="-84.5" font-family="Helvetica,sans-Serif" font-size="10.00">+ EnemyCollisionBehavior</text>
<text text-anchor="start" x="318" y="-73.5" font-family="Helvetica,sans-Serif" font-size="10.00">(int x, int y)</text>
<text text-anchor="start" x="318" y="-62.5" font-family="Helvetica,sans-Serif" font-size="10.00">+ virtual void BeforeCollision</text>
<text text-anchor="start" x="318" y="-51.5" font-family="Helvetica,sans-Serif" font-size="10.00">(std::shared_ptr&lt; GameObject</text>
<text text-anchor="start" x="318" y="-40.5" font-family="Helvetica,sans-Serif" font-size="10.00"> &gt; other) override</text>
</a>
</g>
</g>
<!-- Node5&#45;&gt;Node7 -->
<g id="edge6" class="edge">
<title>Node5&#45;&gt;Node7</title>
<path fill="none" stroke="#63b8ff" d="M392.5,-254.5C392.5,-216.61 392.5,-176.62 392.5,-145.61"/>
<polygon fill="none" stroke="#63b8ff" points="389,-254.6 392.5,-264.6 396,-254.6 389,-254.6"/>
</g>
<!-- Node8 -->
<g id="node8" class="node">
<title>Node8</title>
<g id="a_node8"><a xlink:href="../../d0/d31/classPlayerCollisionBehavior.html" target="_top" xlink:title="The players collision behavior.">
<polygon fill="white" stroke="#666666" points="493,-33.5 493,-145.5 658,-145.5 658,-33.5 493,-33.5"/>
<text text-anchor="middle" x="575.5" y="-133.5" font-family="Helvetica,sans-Serif" font-size="10.00">PlayerCollisionBehavior</text>
<polyline fill="none" stroke="#666666" points="493,-126.5 658,-126.5 "/>
<text text-anchor="middle" x="575.5" y="-114.5" font-family="Helvetica,sans-Serif" font-size="10.00"> </text>
<polyline fill="none" stroke="#666666" points="493,-107.5 658,-107.5 "/>
<text text-anchor="start" x="501" y="-95.5" font-family="Helvetica,sans-Serif" font-size="10.00">+ PlayerCollisionBehavior()</text>
<text text-anchor="start" x="501" y="-84.5" font-family="Helvetica,sans-Serif" font-size="10.00">+ PlayerCollisionBehavior</text>
<text text-anchor="start" x="501" y="-73.5" font-family="Helvetica,sans-Serif" font-size="10.00">(int x, int y)</text>
<text text-anchor="start" x="501" y="-62.5" font-family="Helvetica,sans-Serif" font-size="10.00">+ virtual void BeforeCollision</text>
<text text-anchor="start" x="501" y="-51.5" font-family="Helvetica,sans-Serif" font-size="10.00">(std::shared_ptr&lt; GameObject</text>
<text text-anchor="start" x="501" y="-40.5" font-family="Helvetica,sans-Serif" font-size="10.00"> &gt; other) override</text>
</a>
</g>
</g>
<!-- Node5&#45;&gt;Node8 -->
<g id="edge7" class="edge">
<title>Node5&#45;&gt;Node8</title>
<path fill="none" stroke="#63b8ff" d="M458.96,-256.04C467.34,-242.07 475.97,-228.13 484.5,-215 499.6,-191.77 517.37,-166.97 533.18,-145.67"/>
<polygon fill="none" stroke="#63b8ff" points="455.89,-254.35 453.79,-264.74 461.91,-257.93 455.89,-254.35"/>
</g>
<!-- Node13 -->
<g id="node13" class="node">
<title>Node13</title>
<g id="a_node13"><a xlink:href="../../d3/d2e/classGameManagerKeyboardBehavior.html" target="_top" xlink:title="The game managers keyboard handler for general handling.">
<polygon fill="white" stroke="#666666" points="831,-0.5 831,-178.5 1036,-178.5 1036,-0.5 831,-0.5"/>
<text text-anchor="middle" x="933.5" y="-166.5" font-family="Helvetica,sans-Serif" font-size="10.00">GameManagerKeyboardBehavior</text>
<polyline fill="none" stroke="#666666" points="831,-159.5 1036,-159.5 "/>
<text text-anchor="middle" x="933.5" y="-147.5" font-family="Helvetica,sans-Serif" font-size="10.00"> </text>
<polyline fill="none" stroke="#666666" points="831,-140.5 1036,-140.5 "/>
<text text-anchor="start" x="839" y="-128.5" font-family="Helvetica,sans-Serif" font-size="10.00">+ GameManagerKeyboardBehavior()</text>
<text text-anchor="start" x="839" y="-117.5" font-family="Helvetica,sans-Serif" font-size="10.00">+ ~GameManagerKeyboardBehavior()</text>
<text text-anchor="start" x="839" y="-106.5" font-family="Helvetica,sans-Serif" font-size="10.00">+ virtual void OnKeyDown</text>
<text text-anchor="start" x="839" y="-95.5" font-family="Helvetica,sans-Serif" font-size="10.00">(SDL_KeyboardEvent &amp;e)</text>
<text text-anchor="start" x="839" y="-84.5" font-family="Helvetica,sans-Serif" font-size="10.00"> override</text>
<text text-anchor="start" x="839" y="-73.5" font-family="Helvetica,sans-Serif" font-size="10.00">+ virtual void OnKeyUp</text>
<text text-anchor="start" x="839" y="-62.5" font-family="Helvetica,sans-Serif" font-size="10.00">(SDL_KeyboardEvent &amp;e)</text>
<text text-anchor="start" x="839" y="-51.5" font-family="Helvetica,sans-Serif" font-size="10.00"> override</text>
<text text-anchor="start" x="839" y="-40.5" font-family="Helvetica,sans-Serif" font-size="10.00">+ virtual void OnTick</text>
<text text-anchor="start" x="839" y="-29.5" font-family="Helvetica,sans-Serif" font-size="10.00">() override</text>
<text text-anchor="start" x="839" y="-18.5" font-family="Helvetica,sans-Serif" font-size="10.00">+ virtual void OnStart</text>
<text text-anchor="start" x="839" y="-7.5" font-family="Helvetica,sans-Serif" font-size="10.00">() override</text>
</a>
</g>
</g>
<!-- Node12&#45;&gt;Node13 -->
<g id="edge12" class="edge">
<title>Node12&#45;&gt;Node13</title>
<path fill="none" stroke="#63b8ff" d="M1016.23,-321.26C1001.83,-281.1 981.84,-225.32 965.11,-178.66"/>
<polygon fill="none" stroke="#63b8ff" points="1013,-322.63 1019.67,-330.86 1019.59,-320.26 1013,-322.63"/>
</g>
<!-- Node14 -->
<g id="node14" class="node">
<title>Node14</title>
<g id="a_node14"><a xlink:href="../../d9/d2c/classPlayerKeyboardBehavior.html" target="_top" xlink:title="The keyboard handler for the player.">
<polygon fill="white" stroke="#666666" points="1054.5,-0.5 1054.5,-178.5 1218.5,-178.5 1218.5,-0.5 1054.5,-0.5"/>
<text text-anchor="middle" x="1136.5" y="-166.5" font-family="Helvetica,sans-Serif" font-size="10.00">PlayerKeyboardBehavior</text>
<polyline fill="none" stroke="#666666" points="1054.5,-159.5 1218.5,-159.5 "/>
<text text-anchor="middle" x="1136.5" y="-147.5" font-family="Helvetica,sans-Serif" font-size="10.00"> </text>
<polyline fill="none" stroke="#666666" points="1054.5,-140.5 1218.5,-140.5 "/>
<text text-anchor="start" x="1062.5" y="-128.5" font-family="Helvetica,sans-Serif" font-size="10.00">+ PlayerKeyboardBehavior()</text>
<text text-anchor="start" x="1062.5" y="-117.5" font-family="Helvetica,sans-Serif" font-size="10.00">+ ~PlayerKeyboardBehavior()</text>
<text text-anchor="start" x="1062.5" y="-106.5" font-family="Helvetica,sans-Serif" font-size="10.00">+ virtual void OnKeyDown</text>
<text text-anchor="start" x="1062.5" y="-95.5" font-family="Helvetica,sans-Serif" font-size="10.00">(SDL_KeyboardEvent &amp;e)</text>
<text text-anchor="start" x="1062.5" y="-84.5" font-family="Helvetica,sans-Serif" font-size="10.00"> override</text>
<text text-anchor="start" x="1062.5" y="-73.5" font-family="Helvetica,sans-Serif" font-size="10.00">+ virtual void OnKeyUp</text>
<text text-anchor="start" x="1062.5" y="-62.5" font-family="Helvetica,sans-Serif" font-size="10.00">(SDL_KeyboardEvent &amp;e)</text>
<text text-anchor="start" x="1062.5" y="-51.5" font-family="Helvetica,sans-Serif" font-size="10.00"> override</text>
<text text-anchor="start" x="1062.5" y="-40.5" font-family="Helvetica,sans-Serif" font-size="10.00">+ virtual void OnTick</text>
<text text-anchor="start" x="1062.5" y="-29.5" font-family="Helvetica,sans-Serif" font-size="10.00">() override</text>
<text text-anchor="start" x="1062.5" y="-18.5" font-family="Helvetica,sans-Serif" font-size="10.00">+ virtual void OnStart</text>
<text text-anchor="start" x="1062.5" y="-7.5" font-family="Helvetica,sans-Serif" font-size="10.00">() override</text>
</a>
</g>
</g>
<!-- Node12&#45;&gt;Node14 -->
<g id="edge13" class="edge">
<title>Node12&#45;&gt;Node14</title>
<path fill="none" stroke="#63b8ff" d="M1054.58,-321.26C1068.84,-281.1 1088.64,-225.32 1105.2,-178.66"/>
<polygon fill="none" stroke="#63b8ff" points="1051.22,-320.26 1051.17,-330.86 1057.81,-322.61 1051.22,-320.26"/>
</g>
<!-- Node19 -->
<g id="node19" class="node">
<title>Node19</title>
<g id="a_node19"><a xlink:href="../../dd/d7f/classFontRenderer.html" target="_top" xlink:title=" ">
<polygon fill="white" stroke="#666666" points="1610,-215.5 1610,-536.5 1765,-536.5 1765,-215.5 1610,-215.5"/>
<text text-anchor="middle" x="1687.5" y="-524.5" font-family="Helvetica,sans-Serif" font-size="10.00">FontRenderer</text>
<polyline fill="none" stroke="#666666" points="1610,-517.5 1765,-517.5 "/>
<text text-anchor="start" x="1618" y="-505.5" font-family="Helvetica,sans-Serif" font-size="10.00"># std::string text</text>
<text text-anchor="start" x="1618" y="-494.5" font-family="Helvetica,sans-Serif" font-size="10.00"># SDL_Surface * surface</text>
<text text-anchor="start" x="1618" y="-483.5" font-family="Helvetica,sans-Serif" font-size="10.00"># SDL_Texture * texture</text>
<text text-anchor="start" x="1618" y="-472.5" font-family="Helvetica,sans-Serif" font-size="10.00"># TTF_Font * font</text>
<text text-anchor="start" x="1618" y="-461.5" font-family="Helvetica,sans-Serif" font-size="10.00"># std::shared_ptr&lt; Vector2</text>
<text text-anchor="start" x="1618" y="-450.5" font-family="Helvetica,sans-Serif" font-size="10.00"> &gt; size</text>
<text text-anchor="start" x="1618" y="-439.5" font-family="Helvetica,sans-Serif" font-size="10.00"># std::shared_ptr&lt; SDL</text>
<text text-anchor="start" x="1618" y="-428.5" font-family="Helvetica,sans-Serif" font-size="10.00">_FRect &gt; renderable</text>
<text text-anchor="start" x="1618" y="-417.5" font-family="Helvetica,sans-Serif" font-size="10.00"># std::shared_ptr&lt; SDL</text>
<text text-anchor="start" x="1618" y="-406.5" font-family="Helvetica,sans-Serif" font-size="10.00">_Color &gt; color</text>
<polyline fill="none" stroke="#666666" points="1610,-399.5 1765,-399.5 "/>
<text text-anchor="start" x="1618" y="-387.5" font-family="Helvetica,sans-Serif" font-size="10.00">+ FontRenderer(std::</text>
<text text-anchor="start" x="1618" y="-376.5" font-family="Helvetica,sans-Serif" font-size="10.00">string pathToFont, float size)</text>
<text text-anchor="start" x="1618" y="-365.5" font-family="Helvetica,sans-Serif" font-size="10.00">+ ~FontRenderer()</text>
<text text-anchor="start" x="1618" y="-354.5" font-family="Helvetica,sans-Serif" font-size="10.00">+ void setText(std::string</text>
<text text-anchor="start" x="1618" y="-343.5" font-family="Helvetica,sans-Serif" font-size="10.00"> value)</text>
<text text-anchor="start" x="1618" y="-332.5" font-family="Helvetica,sans-Serif" font-size="10.00">+ std::string getText</text>
<text text-anchor="start" x="1618" y="-321.5" font-family="Helvetica,sans-Serif" font-size="10.00">() const</text>
<text text-anchor="start" x="1618" y="-310.5" font-family="Helvetica,sans-Serif" font-size="10.00">+ void setSize(std::shared</text>
<text text-anchor="start" x="1618" y="-299.5" font-family="Helvetica,sans-Serif" font-size="10.00">_ptr&lt; Vector2 &gt; value)</text>
<text text-anchor="start" x="1618" y="-288.5" font-family="Helvetica,sans-Serif" font-size="10.00">+ std::shared_ptr&lt; Vector2</text>
<text text-anchor="start" x="1618" y="-277.5" font-family="Helvetica,sans-Serif" font-size="10.00"> &gt; getSize() const</text>
<text text-anchor="start" x="1618" y="-266.5" font-family="Helvetica,sans-Serif" font-size="10.00">+ void setColor(Uint8</text>
<text text-anchor="start" x="1618" y="-255.5" font-family="Helvetica,sans-Serif" font-size="10.00"> r, Uint8 g, Uint8 b,</text>
<text text-anchor="start" x="1618" y="-244.5" font-family="Helvetica,sans-Serif" font-size="10.00"> Uint8 a)</text>
<text text-anchor="start" x="1618" y="-233.5" font-family="Helvetica,sans-Serif" font-size="10.00">+ void OnTick() override</text>
<text text-anchor="start" x="1618" y="-222.5" font-family="Helvetica,sans-Serif" font-size="10.00">+ void OnStart() override</text>
</a>
</g>
</g>
<!-- Node18&#45;&gt;Node19 -->
<g id="edge18" class="edge">
<title>Node18&#45;&gt;Node19</title>
<path fill="none" stroke="#63b8ff" d="M1753.52,-563.8C1750.54,-555.36 1747.33,-546.29 1743.99,-536.85"/>
<polygon fill="none" stroke="#63b8ff" points="1750.28,-565.13 1756.91,-573.39 1756.88,-562.79 1750.28,-565.13"/>
</g>
<!-- Node20 -->
<g id="node20" class="node">
<title>Node20</title>
<g id="a_node20"><a xlink:href="../../d0/d0f/classRectangleRenderer.html" target="_top" xlink:title="A renderer for simple rectangles.">
<polygon fill="white" stroke="#666666" points="1783,-254 1783,-498 1932,-498 1932,-254 1783,-254"/>
<text text-anchor="middle" x="1857.5" y="-486" font-family="Helvetica,sans-Serif" font-size="10.00">RectangleRenderer</text>
<polyline fill="none" stroke="#666666" points="1783,-479 1932,-479 "/>
<text text-anchor="start" x="1791" y="-467" font-family="Helvetica,sans-Serif" font-size="10.00"># std::shared_ptr&lt; SDL</text>
<text text-anchor="start" x="1791" y="-456" font-family="Helvetica,sans-Serif" font-size="10.00">_FRect &gt; renderable</text>
<text text-anchor="start" x="1791" y="-445" font-family="Helvetica,sans-Serif" font-size="10.00"># std::shared_ptr&lt; Vector2</text>
<text text-anchor="start" x="1791" y="-434" font-family="Helvetica,sans-Serif" font-size="10.00"> &gt; size</text>
<text text-anchor="start" x="1791" y="-423" font-family="Helvetica,sans-Serif" font-size="10.00"># std::shared_ptr&lt; SDL</text>
<text text-anchor="start" x="1791" y="-412" font-family="Helvetica,sans-Serif" font-size="10.00">_Color &gt; color</text>
<polyline fill="none" stroke="#666666" points="1783,-405 1932,-405 "/>
<text text-anchor="start" x="1791" y="-393" font-family="Helvetica,sans-Serif" font-size="10.00">+ RectangleRenderer</text>
<text text-anchor="start" x="1791" y="-382" font-family="Helvetica,sans-Serif" font-size="10.00">(float width, float</text>
<text text-anchor="start" x="1791" y="-371" font-family="Helvetica,sans-Serif" font-size="10.00"> height)</text>
<text text-anchor="start" x="1791" y="-360" font-family="Helvetica,sans-Serif" font-size="10.00">+ ~RectangleRenderer()</text>
<text text-anchor="start" x="1791" y="-349" font-family="Helvetica,sans-Serif" font-size="10.00">+ void setColor(Uint8</text>
<text text-anchor="start" x="1791" y="-338" font-family="Helvetica,sans-Serif" font-size="10.00"> r, Uint8 g, Uint8 b,</text>
<text text-anchor="start" x="1791" y="-327" font-family="Helvetica,sans-Serif" font-size="10.00"> Uint8 a)</text>
<text text-anchor="start" x="1791" y="-316" font-family="Helvetica,sans-Serif" font-size="10.00">+ void setSize(std::shared</text>
<text text-anchor="start" x="1791" y="-305" font-family="Helvetica,sans-Serif" font-size="10.00">_ptr&lt; Vector2 &gt; value)</text>
<text text-anchor="start" x="1791" y="-294" font-family="Helvetica,sans-Serif" font-size="10.00">+ std::shared_ptr&lt; Vector2</text>
<text text-anchor="start" x="1791" y="-283" font-family="Helvetica,sans-Serif" font-size="10.00"> &gt; getSize() const</text>
<text text-anchor="start" x="1791" y="-272" font-family="Helvetica,sans-Serif" font-size="10.00">+ void OnTick() override</text>
<text text-anchor="start" x="1791" y="-261" font-family="Helvetica,sans-Serif" font-size="10.00">+ void OnStart() override</text>
</a>
</g>
</g>
<!-- Node18&#45;&gt;Node20 -->
<g id="edge19" class="edge">
<title>Node18&#45;&gt;Node20</title>
<path fill="none" stroke="#63b8ff" d="M1791.49,-563.77C1798.41,-544.18 1806.55,-521.16 1814.7,-498.1"/>
<polygon fill="none" stroke="#63b8ff" points="1788.12,-562.79 1788.09,-573.39 1794.72,-565.13 1788.12,-562.79"/>
</g>
<!-- Node21 -->
<g id="node21" class="node">
<title>Node21</title>
<g id="a_node21"><a xlink:href="../../d1/dff/classTextureRenderer.html" target="_top" xlink:title="A renderer for textures.">
<polygon fill="white" stroke="#666666" points="1950,-276 1950,-476 2099,-476 2099,-276 1950,-276"/>
<text text-anchor="middle" x="2024.5" y="-464" font-family="Helvetica,sans-Serif" font-size="10.00">TextureRenderer</text>
<polyline fill="none" stroke="#666666" points="1950,-457 2099,-457 "/>
<text text-anchor="start" x="1958" y="-445" font-family="Helvetica,sans-Serif" font-size="10.00"># std::shared_ptr&lt; SDL</text>
<text text-anchor="start" x="1958" y="-434" font-family="Helvetica,sans-Serif" font-size="10.00">_FRect &gt; renderable</text>
<text text-anchor="start" x="1958" y="-423" font-family="Helvetica,sans-Serif" font-size="10.00"># SDL_Texture * texture</text>
<text text-anchor="start" x="1958" y="-412" font-family="Helvetica,sans-Serif" font-size="10.00"># std::shared_ptr&lt; Vector2</text>
<text text-anchor="start" x="1958" y="-401" font-family="Helvetica,sans-Serif" font-size="10.00"> &gt; size</text>
<polyline fill="none" stroke="#666666" points="1950,-394 2099,-394 "/>
<text text-anchor="start" x="1958" y="-382" font-family="Helvetica,sans-Serif" font-size="10.00">+ TextureRenderer(float</text>
<text text-anchor="start" x="1958" y="-371" font-family="Helvetica,sans-Serif" font-size="10.00"> width, float height,</text>
<text text-anchor="start" x="1958" y="-360" font-family="Helvetica,sans-Serif" font-size="10.00"> std::string pathToTexture)</text>
<text text-anchor="start" x="1958" y="-349" font-family="Helvetica,sans-Serif" font-size="10.00">+ ~TextureRenderer()</text>
<text text-anchor="start" x="1958" y="-338" font-family="Helvetica,sans-Serif" font-size="10.00">+ void setSize(std::shared</text>
<text text-anchor="start" x="1958" y="-327" font-family="Helvetica,sans-Serif" font-size="10.00">_ptr&lt; Vector2 &gt; value)</text>
<text text-anchor="start" x="1958" y="-316" font-family="Helvetica,sans-Serif" font-size="10.00">+ std::shared_ptr&lt; Vector2</text>
<text text-anchor="start" x="1958" y="-305" font-family="Helvetica,sans-Serif" font-size="10.00"> &gt; getSize() const</text>
<text text-anchor="start" x="1958" y="-294" font-family="Helvetica,sans-Serif" font-size="10.00">+ void OnTick() override</text>
<text text-anchor="start" x="1958" y="-283" font-family="Helvetica,sans-Serif" font-size="10.00">+ void OnStart() override</text>
</a>
</g>
</g>
<!-- Node18&#45;&gt;Node21 -->
<g id="edge20" class="edge">
<title>Node18&#45;&gt;Node21</title>
<path fill="none" stroke="#63b8ff" d="M1856.55,-590.15C1886.02,-577.48 1917.67,-560.03 1941.5,-537 1959.28,-519.82 1973.98,-498.01 1985.83,-476.05"/>
<polygon fill="none" stroke="#63b8ff" points="1854.96,-587.02 1847.07,-594.1 1857.65,-593.49 1854.96,-587.02"/>
</g>
</g>
</svg>
