<?xml version="1.0" encoding="UTF-8" standalone="no"?>
<!DOCTYPE svg PUBLIC "-//W3C//DTD SVG 1.1//EN"
 "http://www.w3.org/Graphics/SVG/1.1/DTD/svg11.dtd">
<!-- Generated by graphviz version 2.43.0 (0)
 -->
<!-- Title: HandleEvent Pages: 1 -->
<svg width="428pt" height="134pt"
 viewBox="0.00 0.00 428.00 134.00" xmlns="http://www.w3.org/2000/svg" xmlns:xlink="http://www.w3.org/1999/xlink">
<g id="graph0" class="graph" transform="scale(1 1) rotate(0) translate(4 130)">
<title>HandleEvent</title>
<!-- Node1 -->
<g id="Node000001" class="node">
<title>Node1</title>
<g id="a_Node000001"><a xlink:title="Handles an event that has occoured.">
<polygon fill="#999999" stroke="#666666" points="79,-72.5 0,-72.5 0,-53.5 79,-53.5 79,-72.5"/>
<text text-anchor="middle" x="39.5" y="-60.5" font-family="Helvetica,sans-Serif" font-size="10.00">HandleEvent</text>
</a>
</g>
</g>
<!-- Node2 -->
<g id="Node000002" class="node">
<title>Node2</title>
<g id="a_Node000002"><a xlink:href="../../d2/d3b/KeyboardHandling_8cpp.html#a2b6d8aae8fe15780544c6ada95a93033" target="_top" xlink:title="Handle a keyboard event.">
<polygon fill="white" stroke="#666666" points="240,-72.5 115,-72.5 115,-53.5 240,-53.5 240,-72.5"/>
<text text-anchor="middle" x="177.5" y="-60.5" font-family="Helvetica,sans-Serif" font-size="10.00">HandleKeyboardEvent</text>
</a>
</g>
</g>
<!-- Node1&#45;&gt;Node2 -->
<g id="edge1_Node000001_Node000002" class="edge">
<title>Node1&#45;&gt;Node2</title>
<g id="a_edge1_Node000001_Node000002"><a xlink:title=" ">
<path fill="none" stroke="#63b8ff" d="M79.11,-63C87.21,-63 96,-63 104.88,-63"/>
<polygon fill="#63b8ff" stroke="#63b8ff" points="104.9,-66.5 114.9,-63 104.9,-59.5 104.9,-66.5"/>
</a>
</g>
</g>
<!-- Node3 -->
<g id="Node000003" class="node">
<title>Node3</title>
<g id="a_Node000003"><a xlink:href="../../de/d47/classKeyboardHandlerBehavior.html#aedfbd0872b0f5331ffece766aaa7b3c2" target="_top" xlink:title="Called when a key is pressed (or held) down.">
<polygon fill="white" stroke="#666666" points="420,-126 276,-126 276,-96 420,-96 420,-126"/>
<text text-anchor="start" x="284" y="-114" font-family="Helvetica,sans-Serif" font-size="10.00">KeyboardHandlerBehavior</text>
<text text-anchor="middle" x="348" y="-103" font-family="Helvetica,sans-Serif" font-size="10.00">::OnKeyDown</text>
</a>
</g>
</g>
<!-- Node2&#45;&gt;Node3 -->
<g id="edge2_Node000002_Node000003" class="edge">
<title>Node2&#45;&gt;Node3</title>
<g id="a_edge2_Node000002_Node000003"><a xlink:title=" ">
<path fill="none" stroke="#63b8ff" d="M212.19,-72.6C232.79,-78.47 259.78,-86.15 284.2,-93.11"/>
<polygon fill="#63b8ff" stroke="#63b8ff" points="283.55,-96.56 294.12,-95.94 285.46,-89.83 283.55,-96.56"/>
</a>
</g>
</g>
<!-- Node4 -->
<g id="Node000004" class="node">
<title>Node4</title>
<g id="a_Node000004"><a xlink:href="../../de/d47/classKeyboardHandlerBehavior.html#a2ffe164cb50551f0d20b40753b0d193d" target="_top" xlink:title="Called when a key is released.">
<polygon fill="white" stroke="#666666" points="420,-78 276,-78 276,-48 420,-48 420,-78"/>
<text text-anchor="start" x="284" y="-66" font-family="Helvetica,sans-Serif" font-size="10.00">KeyboardHandlerBehavior</text>
<text text-anchor="middle" x="348" y="-55" font-family="Helvetica,sans-Serif" font-size="10.00">::OnKeyUp</text>
</a>
</g>
</g>
<!-- Node2&#45;&gt;Node4 -->
<g id="edge3_Node000002_Node000004" class="edge">
<title>Node2&#45;&gt;Node4</title>
<g id="a_edge3_Node000002_Node000004"><a xlink:title=" ">
<path fill="none" stroke="#63b8ff" d="M240.29,-63C248.59,-63 257.21,-63 265.78,-63"/>
<polygon fill="#63b8ff" stroke="#63b8ff" points="265.81,-66.5 275.81,-63 265.81,-59.5 265.81,-66.5"/>
</a>
</g>
</g>
<!-- Node5 -->
<g id="Node000005" class="node">
<title>Node5</title>
<g id="a_Node000005"><a xlink:href="../../d9/df7/classGameObjectComponent.html#ade2db51ea6caeaa80b1a80395ffbb779" target="_top" xlink:title=" ">
<polygon fill="white" stroke="#666666" points="415,-30 281,-30 281,0 415,0 415,-30"/>
<text text-anchor="start" x="289" y="-18" font-family="Helvetica,sans-Serif" font-size="10.00">GameObjectComponent</text>
<text text-anchor="middle" x="348" y="-7" font-family="Helvetica,sans-Serif" font-size="10.00">::OnTick</text>
</a>
</g>
</g>
<!-- Node2&#45;&gt;Node5 -->
<g id="edge4_Node000002_Node000005" class="edge">
<title>Node2&#45;&gt;Node5</title>
<g id="a_edge4_Node000002_Node000005"><a xlink:title=" ">
<path fill="none" stroke="#63b8ff" d="M212.19,-53.4C232.79,-47.53 259.78,-39.85 284.2,-32.89"/>
<polygon fill="#63b8ff" stroke="#63b8ff" points="285.46,-36.17 294.12,-30.06 283.55,-29.44 285.46,-36.17"/>
</a>
</g>
</g>
</g>
</svg>
