<?xml version="1.0" encoding="UTF-8" standalone="no"?>
<!DOCTYPE svg PUBLIC "-//W3C//DTD SVG 1.1//EN"
 "http://www.w3.org/Graphics/SVG/1.1/DTD/svg11.dtd">
<!-- Generated by graphviz version 2.43.0 (0)
 -->
<!-- Title: HandleEvent Pages: 1 -->
<svg width="428pt" height="86pt"
 viewBox="0.00 0.00 428.00 86.00" xmlns="http://www.w3.org/2000/svg" xmlns:xlink="http://www.w3.org/1999/xlink">
<g id="graph0" class="graph" transform="scale(1 1) rotate(0) translate(4 82)">
<title>HandleEvent</title>
<!-- Node1 -->
<g id="node1" class="node">
<title>Node1</title>
<g id="a_node1"><a xlink:title="Handles an event that has occoured.">
<polygon fill="#999999" stroke="#666666" points="79,-48.5 0,-48.5 0,-29.5 79,-29.5 79,-48.5"/>
<text text-anchor="middle" x="39.5" y="-36.5" font-family="Helvetica,sans-Serif" font-size="10.00">HandleEvent</text>
</a>
</g>
</g>
<!-- Node2 -->
<g id="node2" class="node">
<title>Node2</title>
<g id="a_node2"><a xlink:href="../../d2/d3b/KeyboardHandling_8cpp.html#a2b6d8aae8fe15780544c6ada95a93033" target="_top" xlink:title="Handle a keyboard event.">
<polygon fill="white" stroke="#666666" points="240,-48.5 115,-48.5 115,-29.5 240,-29.5 240,-48.5"/>
<text text-anchor="middle" x="177.5" y="-36.5" font-family="Helvetica,sans-Serif" font-size="10.00">HandleKeyboardEvent</text>
</a>
</g>
</g>
<!-- Node1&#45;&gt;Node2 -->
<g id="edge1" class="edge">
<title>Node1&#45;&gt;Node2</title>
<path fill="none" stroke="#63b8ff" d="M79.11,-39C87.21,-39 96,-39 104.88,-39"/>
<polygon fill="#63b8ff" stroke="#63b8ff" points="104.9,-42.5 114.9,-39 104.9,-35.5 104.9,-42.5"/>
</g>
<!-- Node3 -->
<g id="node3" class="node">
<title>Node3</title>
<g id="a_node3"><a xlink:href="../../de/d47/classKeyboardHandlerBehavior.html#aedfbd0872b0f5331ffece766aaa7b3c2" target="_top" xlink:title="Called when a key is pressed (or held) down.">
<polygon fill="white" stroke="#666666" points="420,-78 276,-78 276,-48 420,-48 420,-78"/>
<text text-anchor="start" x="284" y="-66" font-family="Helvetica,sans-Serif" font-size="10.00">KeyboardHandlerBehavior</text>
<text text-anchor="middle" x="348" y="-55" font-family="Helvetica,sans-Serif" font-size="10.00">::OnKeyDown</text>
</a>
</g>
</g>
<!-- Node2&#45;&gt;Node3 -->
<g id="edge2" class="edge">
<title>Node2&#45;&gt;Node3</title>
<path fill="none" stroke="#63b8ff" d="M240.29,-47.8C248.59,-48.98 257.21,-50.21 265.78,-51.43"/>
<polygon fill="#63b8ff" stroke="#63b8ff" points="265.42,-54.92 275.81,-52.86 266.4,-47.98 265.42,-54.92"/>
</g>
<!-- Node4 -->
<g id="node4" class="node">
<title>Node4</title>
<g id="a_node4"><a xlink:href="../../de/d47/classKeyboardHandlerBehavior.html#a2ffe164cb50551f0d20b40753b0d193d" target="_top" xlink:title="Called when a key is released.">
<polygon fill="white" stroke="#666666" points="420,-30 276,-30 276,0 420,0 420,-30"/>
<text text-anchor="start" x="284" y="-18" font-family="Helvetica,sans-Serif" font-size="10.00">KeyboardHandlerBehavior</text>
<text text-anchor="middle" x="348" y="-7" font-family="Helvetica,sans-Serif" font-size="10.00">::OnKeyUp</text>
</a>
</g>
</g>
<!-- Node2&#45;&gt;Node4 -->
<g id="edge3" class="edge">
<title>Node2&#45;&gt;Node4</title>
<path fill="none" stroke="#63b8ff" d="M240.29,-30.2C248.59,-29.02 257.21,-27.79 265.78,-26.57"/>
<polygon fill="#63b8ff" stroke="#63b8ff" points="266.4,-30.02 275.81,-25.14 265.42,-23.08 266.4,-30.02"/>
</g>
</g>
</svg>
