<?xml version="1.0" encoding="UTF-8" standalone="no"?>
<!DOCTYPE svg PUBLIC "-//W3C//DTD SVG 1.1//EN"
 "http://www.w3.org/Graphics/SVG/1.1/DTD/svg11.dtd">
<!-- Generated by graphviz version 2.43.0 (0)
 -->
<!-- Title: engine/components/renderers/RectangleRenderer.hpp Pages: 1 -->
<svg width="717pt" height="324pt"
 viewBox="0.00 0.00 717.00 324.00" xmlns="http://www.w3.org/2000/svg" xmlns:xlink="http://www.w3.org/1999/xlink">
<g id="graph0" class="graph" transform="scale(1 1) rotate(0) translate(4 320)">
<title>engine/components/renderers/RectangleRenderer.hpp</title>
<!-- Node1 -->
<g id="Node000001" class="node">
<title>Node1</title>
<g id="a_Node000001"><a xlink:title=" ">
<polygon fill="#999999" stroke="#666666" points="523,-316 361,-316 361,-286 523,-286 523,-316"/>
<text text-anchor="start" x="369" y="-304" font-family="Helvetica,sans-Serif" font-size="10.00">engine/components/renderers</text>
<text text-anchor="middle" x="442" y="-293" font-family="Helvetica,sans-Serif" font-size="10.00">/RectangleRenderer.hpp</text>
</a>
</g>
</g>
<!-- Node2 -->
<g id="Node000002" class="node">
<title>Node2</title>
<g id="a_Node000002"><a xlink:href="../../d9/d4a/Vector2_8hpp.html" target="_top" xlink:title=" ">
<polygon fill="white" stroke="#666666" points="92,-79.5 0,-79.5 0,-60.5 92,-60.5 92,-79.5"/>
<text text-anchor="middle" x="46" y="-67.5" font-family="Helvetica,sans-Serif" font-size="10.00">../../Vector2.hpp</text>
</a>
</g>
</g>
<!-- Node1&#45;&gt;Node2 -->
<g id="edge1_Node000001_Node000002" class="edge">
<title>Node1&#45;&gt;Node2</title>
<g id="a_edge1_Node000001_Node000002"><a xlink:title=" ">
<path fill="none" stroke="#63b8ff" d="M360.92,-286.69C294.73,-272.65 201.46,-245.34 134,-195 95.52,-166.29 67.3,-115.79 54.19,-88.95"/>
<polygon fill="#63b8ff" stroke="#63b8ff" points="57.21,-87.16 49.77,-79.62 50.88,-90.16 57.21,-87.16"/>
</a>
</g>
</g>
<!-- Node3 -->
<g id="Node000003" class="node">
<title>Node3</title>
<g id="a_Node000003"><a xlink:href="../../dd/db8/Renderer_8hpp.html" target="_top" xlink:title=" ">
<polygon fill="white" stroke="#666666" points="394.5,-250 313.5,-250 313.5,-231 394.5,-231 394.5,-250"/>
<text text-anchor="middle" x="354" y="-238" font-family="Helvetica,sans-Serif" font-size="10.00">Renderer.hpp</text>
</a>
</g>
</g>
<!-- Node1&#45;&gt;Node3 -->
<g id="edge2_Node000001_Node000003" class="edge">
<title>Node1&#45;&gt;Node3</title>
<g id="a_edge2_Node000001_Node000003"><a xlink:title=" ">
<path fill="none" stroke="#63b8ff" d="M420.7,-285.84C406.93,-276.68 389.07,-264.82 375.3,-255.66"/>
<polygon fill="#63b8ff" stroke="#63b8ff" points="377.19,-252.72 366.93,-250.09 373.32,-258.55 377.19,-252.72"/>
</a>
</g>
</g>
<!-- Node9 -->
<g id="Node000009" class="node">
<title>Node9</title>
<g id="a_Node000009"><a xlink:title=" ">
<polygon fill="#e0e0e0" stroke="#999999" points="490,-79.5 432,-79.5 432,-60.5 490,-60.5 490,-79.5"/>
<text text-anchor="middle" x="461" y="-67.5" font-family="Helvetica,sans-Serif" font-size="10.00">memory</text>
</a>
</g>
</g>
<!-- Node1&#45;&gt;Node9 -->
<g id="edge16_Node000001_Node000009" class="edge">
<title>Node1&#45;&gt;Node9</title>
<g id="a_edge16_Node000001_Node000009"><a xlink:title=" ">
<path fill="none" stroke="#63b8ff" d="M443.19,-285.68C446.49,-245.86 455.78,-133.89 459.47,-89.48"/>
<polygon fill="#63b8ff" stroke="#63b8ff" points="462.95,-89.77 460.29,-79.51 455.98,-89.19 462.95,-89.77"/>
</a>
</g>
</g>
<!-- Node12 -->
<g id="Node000012" class="node">
<title>Node12</title>
<g id="a_Node000012"><a xlink:title=" ">
<polygon fill="#e0e0e0" stroke="#999999" points="433,-195 325,-195 325,-176 433,-176 433,-195"/>
<text text-anchor="middle" x="379" y="-183" font-family="Helvetica,sans-Serif" font-size="10.00">SDL3/SDL_render.h</text>
</a>
</g>
</g>
<!-- Node1&#45;&gt;Node12 -->
<g id="edge15_Node000001_Node000012" class="edge">
<title>Node1&#45;&gt;Node12</title>
<g id="a_edge15_Node000001_Node000012"><a xlink:title=" ">
<path fill="none" stroke="#63b8ff" d="M434.32,-285.97C426.67,-272.02 414.57,-250 404,-231 399.04,-222.08 393.48,-212.18 388.87,-203.99"/>
<polygon fill="#63b8ff" stroke="#63b8ff" points="391.77,-202.01 383.81,-195.02 385.68,-205.45 391.77,-202.01"/>
</a>
</g>
</g>
<!-- Node13 -->
<g id="Node000013" class="node">
<title>Node13</title>
<g id="a_Node000013"><a xlink:title=" ">
<polygon fill="#e0e0e0" stroke="#999999" points="595,-250 489,-250 489,-231 595,-231 595,-250"/>
<text text-anchor="middle" x="542" y="-238" font-family="Helvetica,sans-Serif" font-size="10.00">SDL3/SDL_pixels.h</text>
</a>
</g>
</g>
<!-- Node1&#45;&gt;Node13 -->
<g id="edge13_Node000001_Node000013" class="edge">
<title>Node1&#45;&gt;Node13</title>
<g id="a_edge13_Node000001_Node000013"><a xlink:title=" ">
<path fill="none" stroke="#63b8ff" d="M465.95,-285.99C481.89,-276.66 502.73,-264.47 518.56,-255.21"/>
<polygon fill="#63b8ff" stroke="#63b8ff" points="520.37,-258.21 527.23,-250.14 516.83,-252.17 520.37,-258.21"/>
</a>
</g>
</g>
<!-- Node14 -->
<g id="Node000014" class="node">
<title>Node14</title>
<g id="a_Node000014"><a xlink:title=" ">
<polygon fill="#e0e0e0" stroke="#999999" points="709,-250 613,-250 613,-231 709,-231 709,-250"/>
<text text-anchor="middle" x="661" y="-238" font-family="Helvetica,sans-Serif" font-size="10.00">SDL3/SDL_rect.h</text>
</a>
</g>
</g>
<!-- Node1&#45;&gt;Node14 -->
<g id="edge14_Node000001_Node000014" class="edge">
<title>Node1&#45;&gt;Node14</title>
<g id="a_edge14_Node000001_Node000014"><a xlink:title=" ">
<path fill="none" stroke="#63b8ff" d="M494.46,-285.99C532.58,-275.8 583.5,-262.2 618.96,-252.73"/>
<polygon fill="#63b8ff" stroke="#63b8ff" points="620.22,-256.02 628.98,-250.05 618.41,-249.25 620.22,-256.02"/>
</a>
</g>
</g>
<!-- Node4 -->
<g id="Node000004" class="node">
<title>Node4</title>
<g id="a_Node000004"><a xlink:href="../../d2/d69/GameObjectComponent_8hpp.html" target="_top" xlink:title=" ">
<polygon fill="white" stroke="#666666" points="307,-195 143,-195 143,-176 307,-176 307,-195"/>
<text text-anchor="middle" x="225" y="-183" font-family="Helvetica,sans-Serif" font-size="10.00">../GameObjectComponent.hpp</text>
</a>
</g>
</g>
<!-- Node3&#45;&gt;Node4 -->
<g id="edge3_Node000003_Node000004" class="edge">
<title>Node3&#45;&gt;Node4</title>
<g id="a_edge3_Node000003_Node000004"><a xlink:title=" ">
<path fill="none" stroke="#63b8ff" d="M333.27,-230.98C312.24,-222.34 279.45,-208.87 255.46,-199.02"/>
<polygon fill="#63b8ff" stroke="#63b8ff" points="256.68,-195.73 246.1,-195.17 254.02,-202.21 256.68,-195.73"/>
</a>
</g>
</g>
<!-- Node3&#45;&gt;Node12 -->
<g id="edge12_Node000003_Node000012" class="edge">
<title>Node3&#45;&gt;Node12</title>
<g id="a_edge12_Node000003_Node000012"><a xlink:title=" ">
<path fill="none" stroke="#63b8ff" d="M358.13,-230.75C361.51,-223.57 366.42,-213.18 370.62,-204.27"/>
<polygon fill="#63b8ff" stroke="#63b8ff" points="373.85,-205.63 374.95,-195.09 367.52,-202.64 373.85,-205.63"/>
</a>
</g>
</g>
<!-- Node5 -->
<g id="Node000005" class="node">
<title>Node5</title>
<g id="a_Node000005"><a xlink:title=" ">
<polygon fill="#e0e0e0" stroke="#999999" points="251.5,-140 198.5,-140 198.5,-121 251.5,-121 251.5,-140"/>
<text text-anchor="middle" x="225" y="-128" font-family="Helvetica,sans-Serif" font-size="10.00">cstddef</text>
</a>
</g>
</g>
<!-- Node4&#45;&gt;Node5 -->
<g id="edge4_Node000004_Node000005" class="edge">
<title>Node4&#45;&gt;Node5</title>
<g id="a_edge4_Node000004_Node000005"><a xlink:title=" ">
<path fill="none" stroke="#63b8ff" d="M225,-175.75C225,-168.8 225,-158.85 225,-150.13"/>
<polygon fill="#63b8ff" stroke="#63b8ff" points="228.5,-150.09 225,-140.09 221.5,-150.09 228.5,-150.09"/>
</a>
</g>
</g>
<!-- Node6 -->
<g id="Node000006" class="node">
<title>Node6</title>
<g id="a_Node000006"><a xlink:href="../../d4/db5/GameObject_8hpp.html" target="_top" xlink:title=" ">
<polygon fill="white" stroke="#666666" points="378.5,-140 271.5,-140 271.5,-121 378.5,-121 378.5,-140"/>
<text text-anchor="middle" x="325" y="-128" font-family="Helvetica,sans-Serif" font-size="10.00">../GameObject.hpp</text>
</a>
</g>
</g>
<!-- Node4&#45;&gt;Node6 -->
<g id="edge5_Node000004_Node000006" class="edge">
<title>Node4&#45;&gt;Node6</title>
<g id="a_edge5_Node000004_Node000006"><a xlink:title=" ">
<path fill="none" stroke="#63b8ff" d="M241.07,-175.98C256.86,-167.61 281.22,-154.7 299.63,-144.95"/>
<polygon fill="#63b8ff" stroke="#63b8ff" points="301.44,-147.95 308.64,-140.17 298.17,-141.76 301.44,-147.95"/>
</a>
</g>
</g>
<!-- Node6&#45;&gt;Node2 -->
<g id="edge6_Node000006_Node000002" class="edge">
<title>Node6&#45;&gt;Node2</title>
<g id="a_edge6_Node000006_Node000002"><a xlink:title=" ">
<path fill="none" stroke="#63b8ff" d="M278.08,-120.93C232.66,-112.46 161.91,-98.79 101,-85 96.84,-84.06 92.51,-83.03 88.19,-81.98"/>
<polygon fill="#63b8ff" stroke="#63b8ff" points="88.76,-78.52 78.21,-79.5 87.07,-85.31 88.76,-78.52"/>
</a>
</g>
</g>
<!-- Node7 -->
<g id="Node000007" class="node">
<title>Node7</title>
<g id="a_Node000007"><a xlink:href="../../d4/d71/ComponentNotFoundException_8hpp.html" target="_top" xlink:title=" ">
<polygon fill="white" stroke="#666666" points="286,-85 110,-85 110,-55 286,-55 286,-85"/>
<text text-anchor="start" x="118" y="-73" font-family="Helvetica,sans-Serif" font-size="10.00">exceptions/ComponentNotFound</text>
<text text-anchor="middle" x="198" y="-62" font-family="Helvetica,sans-Serif" font-size="10.00">Exception.hpp</text>
</a>
</g>
</g>
<!-- Node6&#45;&gt;Node7 -->
<g id="edge7_Node000006_Node000007" class="edge">
<title>Node6&#45;&gt;Node7</title>
<g id="a_edge7_Node000006_Node000007"><a xlink:title=" ">
<path fill="none" stroke="#63b8ff" d="M306.53,-120.99C288.64,-112.75 260.9,-99.98 237.95,-89.4"/>
<polygon fill="#63b8ff" stroke="#63b8ff" points="239.33,-86.18 228.78,-85.18 236.4,-92.54 239.33,-86.18"/>
</a>
</g>
</g>
<!-- Node6&#45;&gt;Node9 -->
<g id="edge9_Node000006_Node000009" class="edge">
<title>Node6&#45;&gt;Node9</title>
<g id="a_edge9_Node000006_Node000009"><a xlink:title=" ">
<path fill="none" stroke="#63b8ff" d="M344.78,-120.99C367.64,-111.16 405.49,-94.88 431.76,-83.58"/>
<polygon fill="#63b8ff" stroke="#63b8ff" points="433.4,-86.68 441.2,-79.52 430.63,-80.25 433.4,-86.68"/>
</a>
</g>
</g>
<!-- Node10 -->
<g id="Node000010" class="node">
<title>Node10</title>
<g id="a_Node000010"><a xlink:title=" ">
<polygon fill="#e0e0e0" stroke="#999999" points="348,-79.5 304,-79.5 304,-60.5 348,-60.5 348,-79.5"/>
<text text-anchor="middle" x="326" y="-67.5" font-family="Helvetica,sans-Serif" font-size="10.00">string</text>
</a>
</g>
</g>
<!-- Node6&#45;&gt;Node10 -->
<g id="edge10_Node000006_Node000010" class="edge">
<title>Node6&#45;&gt;Node10</title>
<g id="a_edge10_Node000006_Node000010"><a xlink:title=" ">
<path fill="none" stroke="#63b8ff" d="M325.15,-120.87C325.29,-112.75 325.5,-100.31 325.68,-89.89"/>
<polygon fill="#63b8ff" stroke="#63b8ff" points="329.18,-89.73 325.85,-79.67 322.18,-89.61 329.18,-89.73"/>
</a>
</g>
</g>
<!-- Node11 -->
<g id="Node000011" class="node">
<title>Node11</title>
<g id="a_Node000011"><a xlink:title=" ">
<polygon fill="#e0e0e0" stroke="#999999" points="413.5,-79.5 366.5,-79.5 366.5,-60.5 413.5,-60.5 413.5,-79.5"/>
<text text-anchor="middle" x="390" y="-67.5" font-family="Helvetica,sans-Serif" font-size="10.00">vector</text>
</a>
</g>
</g>
<!-- Node6&#45;&gt;Node11 -->
<g id="edge11_Node000006_Node000011" class="edge">
<title>Node6&#45;&gt;Node11</title>
<g id="a_edge11_Node000006_Node000011"><a xlink:title=" ">
<path fill="none" stroke="#63b8ff" d="M334.59,-120.87C344.58,-111.88 360.43,-97.61 372.63,-86.64"/>
<polygon fill="#63b8ff" stroke="#63b8ff" points="375.28,-88.96 380.37,-79.67 370.6,-83.76 375.28,-88.96"/>
</a>
</g>
</g>
<!-- Node8 -->
<g id="Node000008" class="node">
<title>Node8</title>
<g id="a_Node000008"><a xlink:title=" ">
<polygon fill="#e0e0e0" stroke="#999999" points="230.5,-19 165.5,-19 165.5,0 230.5,0 230.5,-19"/>
<text text-anchor="middle" x="198" y="-7" font-family="Helvetica,sans-Serif" font-size="10.00">exception</text>
</a>
</g>
</g>
<!-- Node7&#45;&gt;Node8 -->
<g id="edge8_Node000007_Node000008" class="edge">
<title>Node7&#45;&gt;Node8</title>
<g id="a_edge8_Node000007_Node000008"><a xlink:title=" ">
<path fill="none" stroke="#63b8ff" d="M198,-54.84C198,-47.21 198,-37.7 198,-29.45"/>
<polygon fill="#63b8ff" stroke="#63b8ff" points="201.5,-29.27 198,-19.27 194.5,-29.27 201.5,-29.27"/>
</a>
</g>
</g>
</g>
</svg>
