<?xml version="1.0" encoding="UTF-8" standalone="no"?>
<!DOCTYPE svg PUBLIC "-//W3C//DTD SVG 1.1//EN"
 "http://www.w3.org/Graphics/SVG/1.1/DTD/svg11.dtd">
<!-- Generated by graphviz version 2.43.0 (0)
 -->
<!-- Title: Vector2::getX Pages: 1 -->
<svg width="386pt" height="86pt"
 viewBox="0.00 0.00 386.00 86.00" xmlns="http://www.w3.org/2000/svg" xmlns:xlink="http://www.w3.org/1999/xlink">
<g id="graph0" class="graph" transform="scale(1 1) rotate(0) translate(4 82)">
<title>Vector2::getX</title>
<!-- Node1 -->
<g id="Node000001" class="node">
<title>Node1</title>
<g id="a_Node000001"><a xlink:title=" ">
<polygon fill="#999999" stroke="#666666" points="378,-48.5 296,-48.5 296,-29.5 378,-29.5 378,-48.5"/>
<text text-anchor="middle" x="337" y="-36.5" font-family="Helvetica,sans-Serif" font-size="10.00">Vector2::getX</text>
</a>
</g>
</g>
<!-- Node2 -->
<g id="Node000002" class="node">
<title>Node2</title>
<g id="a_Node000002"><a xlink:href="../../d9/df0/classCollisionBehavior.html#ac109e777e29c737c0454464e611a7449" target="_top" xlink:title="Check if this components parent will collide with the other object next frame.">
<polygon fill="white" stroke="#666666" points="256,-78 148,-78 148,-48 256,-48 256,-78"/>
<text text-anchor="start" x="156" y="-66" font-family="Helvetica,sans-Serif" font-size="10.00">CollisionBehavior::</text>
<text text-anchor="middle" x="202" y="-55" font-family="Helvetica,sans-Serif" font-size="10.00">CheckForCollision</text>
</a>
</g>
</g>
<!-- Node1&#45;&gt;Node2 -->
<g id="edge1_Node000001_Node000002" class="edge">
<title>Node1&#45;&gt;Node2</title>
<g id="a_edge1_Node000001_Node000002"><a xlink:title=" ">
<path fill="none" stroke="#63b8ff" d="M285.6,-48.09C276.05,-49.82 266.03,-51.63 256.39,-53.36"/>
<polygon fill="#63b8ff" stroke="#63b8ff" points="286.52,-51.49 295.73,-46.27 285.27,-44.6 286.52,-51.49"/>
</a>
</g>
</g>
<!-- Node4 -->
<g id="Node000004" class="node">
<title>Node4</title>
<g id="a_Node000004"><a xlink:href="../../d9/df0/classCollisionBehavior.html#a8a037ad8f82ae70b8251e6f9f62008f5" target="_top" xlink:title="Check whether the point defined by the vector2 is inside the collider of this components parent.">
<polygon fill="white" stroke="#666666" points="260,-30 144,-30 144,0 260,0 260,-30"/>
<text text-anchor="start" x="152" y="-18" font-family="Helvetica,sans-Serif" font-size="10.00">CollisionBehavior::</text>
<text text-anchor="middle" x="202" y="-7" font-family="Helvetica,sans-Serif" font-size="10.00">IsPointInsideCollider</text>
</a>
</g>
</g>
<!-- Node1&#45;&gt;Node4 -->
<g id="edge3_Node000001_Node000004" class="edge">
<title>Node1&#45;&gt;Node4</title>
<g id="a_edge3_Node000001_Node000004"><a xlink:title=" ">
<path fill="none" stroke="#63b8ff" d="M285.8,-29.94C277.47,-28.44 268.79,-26.87 260.3,-25.34"/>
<polygon fill="#63b8ff" stroke="#63b8ff" points="285.27,-33.4 295.73,-31.73 286.52,-26.51 285.27,-33.4"/>
</a>
</g>
</g>
<!-- Node3 -->
<g id="Node000003" class="node">
<title>Node3</title>
<g id="a_Node000003"><a xlink:href="../../d9/df0/classCollisionBehavior.html#a687307bfe48808fb9b86434874368af8" target="_top" xlink:title="Executed every frame.">
<polygon fill="white" stroke="#666666" points="108,-78 0,-78 0,-48 108,-48 108,-78"/>
<text text-anchor="start" x="8" y="-66" font-family="Helvetica,sans-Serif" font-size="10.00">CollisionBehavior::</text>
<text text-anchor="middle" x="54" y="-55" font-family="Helvetica,sans-Serif" font-size="10.00">OnTick</text>
</a>
</g>
</g>
<!-- Node2&#45;&gt;Node3 -->
<g id="edge2_Node000002_Node000003" class="edge">
<title>Node2&#45;&gt;Node3</title>
<g id="a_edge2_Node000002_Node000003"><a xlink:title=" ">
<path fill="none" stroke="#63b8ff" d="M137.77,-63C127.95,-63 117.9,-63 108.33,-63"/>
<polygon fill="#63b8ff" stroke="#63b8ff" points="137.88,-66.5 147.88,-63 137.88,-59.5 137.88,-66.5"/>
</a>
</g>
</g>
</g>
</svg>
