<?xml version="1.0" encoding="UTF-8" standalone="no"?>
<!DOCTYPE svg PUBLIC "-//W3C//DTD SVG 1.1//EN"
 "http://www.w3.org/Graphics/SVG/1.1/DTD/svg11.dtd">
<!-- Generated by graphviz version 2.43.0 (0)
 -->
<!-- Title: game/behaviors/coffee/CoffeeCollisionBehavior.cpp Pages: 1 -->
<svg width="532pt" height="445pt"
 viewBox="0.00 0.00 532.00 445.00" xmlns="http://www.w3.org/2000/svg" xmlns:xlink="http://www.w3.org/1999/xlink">
<g id="graph0" class="graph" transform="scale(1 1) rotate(0) translate(4 441)">
<title>game/behaviors/coffee/CoffeeCollisionBehavior.cpp</title>
<!-- Node1 -->
<g id="Node000001" class="node">
<title>Node1</title>
<g id="a_Node000001"><a xlink:title=" ">
<polygon fill="#999999" stroke="#666666" points="473,-437 317,-437 317,-407 473,-407 473,-437"/>
<text text-anchor="start" x="325" y="-425" font-family="Helvetica,sans-Serif" font-size="10.00">game/behaviors/coffee</text>
<text text-anchor="middle" x="395" y="-414" font-family="Helvetica,sans-Serif" font-size="10.00">/CoffeeCollisionBehavior.cpp</text>
</a>
</g>
</g>
<!-- Node2 -->
<g id="Node000002" class="node">
<title>Node2</title>
<g id="a_Node000002"><a xlink:href="../../d3/d9f/CoffeeCollisionBehavior_8hpp.html" target="_top" xlink:title=" ">
<polygon fill="white" stroke="#666666" points="414,-371 260,-371 260,-352 414,-352 414,-371"/>
<text text-anchor="middle" x="337" y="-359" font-family="Helvetica,sans-Serif" font-size="10.00">CoffeeCollisionBehavior.hpp</text>
</a>
</g>
</g>
<!-- Node1&#45;&gt;Node2 -->
<g id="edge1_Node000001_Node000002" class="edge">
<title>Node1&#45;&gt;Node2</title>
<g id="a_edge1_Node000001_Node000002"><a xlink:title=" ">
<path fill="none" stroke="#63b8ff" d="M380.96,-406.84C372.45,-398.26 361.59,-387.3 352.78,-378.42"/>
<polygon fill="#63b8ff" stroke="#63b8ff" points="355.22,-375.9 345.69,-371.27 350.25,-380.83 355.22,-375.9"/>
</a>
</g>
</g>
<!-- Node11 -->
<g id="Node000011" class="node">
<title>Node11</title>
<g id="a_Node000011"><a xlink:title=" ">
<polygon fill="#e0e0e0" stroke="#999999" points="487,-79.5 429,-79.5 429,-60.5 487,-60.5 487,-79.5"/>
<text text-anchor="middle" x="458" y="-67.5" font-family="Helvetica,sans-Serif" font-size="10.00">memory</text>
</a>
</g>
</g>
<!-- Node1&#45;&gt;Node11 -->
<g id="edge20_Node000001_Node000011" class="edge">
<title>Node1&#45;&gt;Node11</title>
<g id="a_edge20_Node000001_Node000011"><a xlink:title=" ">
<path fill="none" stroke="#63b8ff" d="M429.57,-406.95C467.78,-388.86 524,-353.49 524,-302 524,-302 524,-302 524,-184.5 524,-145.26 494.16,-107.47 474.6,-86.92"/>
<polygon fill="#63b8ff" stroke="#63b8ff" points="476.97,-84.34 467.46,-79.69 472,-89.26 476.97,-84.34"/>
</a>
</g>
</g>
<!-- Node14 -->
<g id="Node000014" class="node">
<title>Node14</title>
<g id="a_Node000014"><a xlink:href="../../d3/dfc/ObjectManagement_8hpp.html" target="_top" xlink:title=" ">
<polygon fill="white" stroke="#666666" points="457.5,-195 260.5,-195 260.5,-176 457.5,-176 457.5,-195"/>
<text text-anchor="middle" x="359" y="-183" font-family="Helvetica,sans-Serif" font-size="10.00">../../../engine/ObjectManagement.hpp</text>
</a>
</g>
</g>
<!-- Node1&#45;&gt;Node14 -->
<g id="edge14_Node000001_Node000014" class="edge">
<title>Node1&#45;&gt;Node14</title>
<g id="a_edge14_Node000001_Node000014"><a xlink:title=" ">
<path fill="none" stroke="#63b8ff" d="M404.97,-406.84C411.23,-397.19 418.88,-383.89 423,-371 434.54,-334.93 440.43,-322.11 429,-286 418.44,-252.65 392.24,-220.8 375.06,-202.47"/>
<polygon fill="#63b8ff" stroke="#63b8ff" points="377.36,-199.81 367.89,-195.05 372.32,-204.67 377.36,-199.81"/>
</a>
</g>
</g>
<!-- Node15 -->
<g id="Node000015" class="node">
<title>Node15</title>
<g id="a_Node000015"><a xlink:href="../../d4/d09/CoffeeMeterBehavior_8hpp.html" target="_top" xlink:title=" ">
<polygon fill="white" stroke="#666666" points="225.5,-316 78.5,-316 78.5,-286 225.5,-286 225.5,-316"/>
<text text-anchor="start" x="86.5" y="-304" font-family="Helvetica,sans-Serif" font-size="10.00">../coffeeMeter/CoffeeMeter</text>
<text text-anchor="middle" x="152" y="-293" font-family="Helvetica,sans-Serif" font-size="10.00">Behavior.hpp</text>
</a>
</g>
</g>
<!-- Node1&#45;&gt;Node15 -->
<g id="edge18_Node000001_Node000015" class="edge">
<title>Node1&#45;&gt;Node15</title>
<g id="a_edge18_Node000001_Node000015"><a xlink:title=" ">
<path fill="none" stroke="#63b8ff" d="M343.62,-406.92C315.49,-398.3 280.47,-386.02 251,-371 224.17,-357.32 196.26,-337.25 176.94,-322.28"/>
<polygon fill="#63b8ff" stroke="#63b8ff" points="178.99,-319.44 168.96,-316.01 174.66,-324.94 178.99,-319.44"/>
</a>
</g>
</g>
<!-- Node3 -->
<g id="Node000003" class="node">
<title>Node3</title>
<g id="a_Node000003"><a xlink:href="../../dc/d19/CollisionBehavior_8hpp.html" target="_top" xlink:title=" ">
<polygon fill="white" stroke="#666666" points="420,-316 244,-316 244,-286 420,-286 420,-316"/>
<text text-anchor="start" x="252" y="-304" font-family="Helvetica,sans-Serif" font-size="10.00">../../../engine/components</text>
<text text-anchor="middle" x="332" y="-293" font-family="Helvetica,sans-Serif" font-size="10.00">/behaviors/CollisionBehavior.hpp</text>
</a>
</g>
</g>
<!-- Node2&#45;&gt;Node3 -->
<g id="edge2_Node000002_Node000003" class="edge">
<title>Node2&#45;&gt;Node3</title>
<g id="a_edge2_Node000002_Node000003"><a xlink:title=" ">
<path fill="none" stroke="#63b8ff" d="M336.26,-351.87C335.68,-345.11 334.85,-335.35 334.07,-326.26"/>
<polygon fill="#63b8ff" stroke="#63b8ff" points="337.55,-325.78 333.21,-316.11 330.57,-326.38 337.55,-325.78"/>
</a>
</g>
</g>
<!-- Node4 -->
<g id="Node000004" class="node">
<title>Node4</title>
<g id="a_Node000004"><a xlink:href="../../d4/d8e/Behavior_8hpp.html" target="_top" xlink:title=" ">
<polygon fill="white" stroke="#666666" points="200,-250 120,-250 120,-231 200,-231 200,-250"/>
<text text-anchor="middle" x="160" y="-238" font-family="Helvetica,sans-Serif" font-size="10.00">Behavior.hpp</text>
</a>
</g>
</g>
<!-- Node3&#45;&gt;Node4 -->
<g id="edge3_Node000003_Node000004" class="edge">
<title>Node3&#45;&gt;Node4</title>
<g id="a_edge3_Node000003_Node000004"><a xlink:title=" ">
<path fill="none" stroke="#63b8ff" d="M290.8,-285.99C261.5,-276.02 222.58,-262.78 194.83,-253.35"/>
<polygon fill="#63b8ff" stroke="#63b8ff" points="195.74,-249.96 185.15,-250.05 193.49,-256.59 195.74,-249.96"/>
</a>
</g>
</g>
<!-- Node3&#45;&gt;Node11 -->
<g id="edge13_Node000003_Node000011" class="edge">
<title>Node3&#45;&gt;Node11</title>
<g id="a_edge13_Node000003_Node000011"><a xlink:title=" ">
<path fill="none" stroke="#63b8ff" d="M363.78,-285.86C396.52,-269.34 445.67,-238.61 467,-195 483.77,-160.71 473.08,-114.63 464.86,-89.4"/>
<polygon fill="#63b8ff" stroke="#63b8ff" points="468.07,-87.97 461.47,-79.68 461.46,-90.28 468.07,-87.97"/>
</a>
</g>
</g>
<!-- Node5 -->
<g id="Node000005" class="node">
<title>Node5</title>
<g id="a_Node000005"><a xlink:href="../../d2/d69/GameObjectComponent_8hpp.html" target="_top" xlink:title=" ">
<polygon fill="white" stroke="#666666" points="242,-195 78,-195 78,-176 242,-176 242,-195"/>
<text text-anchor="middle" x="160" y="-183" font-family="Helvetica,sans-Serif" font-size="10.00">../GameObjectComponent.hpp</text>
</a>
</g>
</g>
<!-- Node4&#45;&gt;Node5 -->
<g id="edge4_Node000004_Node000005" class="edge">
<title>Node4&#45;&gt;Node5</title>
<g id="a_edge4_Node000004_Node000005"><a xlink:title=" ">
<path fill="none" stroke="#63b8ff" d="M160,-230.75C160,-223.8 160,-213.85 160,-205.13"/>
<polygon fill="#63b8ff" stroke="#63b8ff" points="163.5,-205.09 160,-195.09 156.5,-205.09 163.5,-205.09"/>
</a>
</g>
</g>
<!-- Node6 -->
<g id="Node000006" class="node">
<title>Node6</title>
<g id="a_Node000006"><a xlink:title=" ">
<polygon fill="#e0e0e0" stroke="#999999" points="186.5,-140 133.5,-140 133.5,-121 186.5,-121 186.5,-140"/>
<text text-anchor="middle" x="160" y="-128" font-family="Helvetica,sans-Serif" font-size="10.00">cstddef</text>
</a>
</g>
</g>
<!-- Node5&#45;&gt;Node6 -->
<g id="edge5_Node000005_Node000006" class="edge">
<title>Node5&#45;&gt;Node6</title>
<g id="a_edge5_Node000005_Node000006"><a xlink:title=" ">
<path fill="none" stroke="#63b8ff" d="M160,-175.75C160,-168.8 160,-158.85 160,-150.13"/>
<polygon fill="#63b8ff" stroke="#63b8ff" points="163.5,-150.09 160,-140.09 156.5,-150.09 163.5,-150.09"/>
</a>
</g>
</g>
<!-- Node7 -->
<g id="Node000007" class="node">
<title>Node7</title>
<g id="a_Node000007"><a xlink:href="../../d4/db5/GameObject_8hpp.html" target="_top" xlink:title=" ">
<polygon fill="white" stroke="#666666" points="343.5,-140 236.5,-140 236.5,-121 343.5,-121 343.5,-140"/>
<text text-anchor="middle" x="290" y="-128" font-family="Helvetica,sans-Serif" font-size="10.00">../GameObject.hpp</text>
</a>
</g>
</g>
<!-- Node5&#45;&gt;Node7 -->
<g id="edge6_Node000005_Node000007" class="edge">
<title>Node5&#45;&gt;Node7</title>
<g id="a_edge6_Node000005_Node000007"><a xlink:title=" ">
<path fill="none" stroke="#63b8ff" d="M180.89,-175.98C202.08,-167.34 235.13,-153.87 259.3,-144.02"/>
<polygon fill="#63b8ff" stroke="#63b8ff" points="260.79,-147.19 268.73,-140.17 258.15,-140.7 260.79,-147.19"/>
</a>
</g>
</g>
<!-- Node8 -->
<g id="Node000008" class="node">
<title>Node8</title>
<g id="a_Node000008"><a xlink:href="../../d9/d4a/Vector2_8hpp.html" target="_top" xlink:title=" ">
<polygon fill="white" stroke="#666666" points="74,-79.5 0,-79.5 0,-60.5 74,-60.5 74,-79.5"/>
<text text-anchor="middle" x="37" y="-67.5" font-family="Helvetica,sans-Serif" font-size="10.00">Vector2.hpp</text>
</a>
</g>
</g>
<!-- Node7&#45;&gt;Node8 -->
<g id="edge7_Node000007_Node000008" class="edge">
<title>Node7&#45;&gt;Node8</title>
<g id="a_edge7_Node000007_Node000008"><a xlink:title=" ">
<path fill="none" stroke="#63b8ff" d="M244.92,-120.94C202.82,-112.68 138.33,-99.34 83,-85 79.85,-84.18 76.59,-83.29 73.33,-82.36"/>
<polygon fill="#63b8ff" stroke="#63b8ff" points="74.23,-78.98 63.65,-79.52 72.26,-85.7 74.23,-78.98"/>
</a>
</g>
</g>
<!-- Node9 -->
<g id="Node000009" class="node">
<title>Node9</title>
<g id="a_Node000009"><a xlink:href="../../d4/d71/ComponentNotFoundException_8hpp.html" target="_top" xlink:title=" ">
<polygon fill="white" stroke="#666666" points="268,-85 92,-85 92,-55 268,-55 268,-85"/>
<text text-anchor="start" x="100" y="-73" font-family="Helvetica,sans-Serif" font-size="10.00">exceptions/ComponentNotFound</text>
<text text-anchor="middle" x="180" y="-62" font-family="Helvetica,sans-Serif" font-size="10.00">Exception.hpp</text>
</a>
</g>
</g>
<!-- Node7&#45;&gt;Node9 -->
<g id="edge8_Node000007_Node000009" class="edge">
<title>Node7&#45;&gt;Node9</title>
<g id="a_edge8_Node000007_Node000009"><a xlink:title=" ">
<path fill="none" stroke="#63b8ff" d="M273.77,-120.87C258.5,-112.75 235.11,-100.31 215.52,-89.89"/>
<polygon fill="#63b8ff" stroke="#63b8ff" points="217.01,-86.72 206.54,-85.11 213.73,-92.9 217.01,-86.72"/>
</a>
</g>
</g>
<!-- Node7&#45;&gt;Node11 -->
<g id="edge10_Node000007_Node000011" class="edge">
<title>Node7&#45;&gt;Node11</title>
<g id="a_edge10_Node000007_Node000011"><a xlink:title=" ">
<path fill="none" stroke="#63b8ff" d="M314.43,-120.99C343.29,-110.94 391.5,-94.16 424,-82.84"/>
<polygon fill="#63b8ff" stroke="#63b8ff" points="425.25,-86.11 433.54,-79.52 422.95,-79.5 425.25,-86.11"/>
</a>
</g>
</g>
<!-- Node12 -->
<g id="Node000012" class="node">
<title>Node12</title>
<g id="a_Node000012"><a xlink:title=" ">
<polygon fill="#e0e0e0" stroke="#999999" points="330,-79.5 286,-79.5 286,-60.5 330,-60.5 330,-79.5"/>
<text text-anchor="middle" x="308" y="-67.5" font-family="Helvetica,sans-Serif" font-size="10.00">string</text>
</a>
</g>
</g>
<!-- Node7&#45;&gt;Node12 -->
<g id="edge11_Node000007_Node000012" class="edge">
<title>Node7&#45;&gt;Node12</title>
<g id="a_edge11_Node000007_Node000012"><a xlink:title=" ">
<path fill="none" stroke="#63b8ff" d="M292.66,-120.87C295.18,-112.66 299.06,-100.04 302.29,-89.55"/>
<polygon fill="#63b8ff" stroke="#63b8ff" points="305.74,-90.25 305.33,-79.67 299.05,-88.2 305.74,-90.25"/>
</a>
</g>
</g>
<!-- Node13 -->
<g id="Node000013" class="node">
<title>Node13</title>
<g id="a_Node000013"><a xlink:title=" ">
<polygon fill="#e0e0e0" stroke="#999999" points="395.5,-79.5 348.5,-79.5 348.5,-60.5 395.5,-60.5 395.5,-79.5"/>
<text text-anchor="middle" x="372" y="-67.5" font-family="Helvetica,sans-Serif" font-size="10.00">vector</text>
</a>
</g>
</g>
<!-- Node7&#45;&gt;Node13 -->
<g id="edge12_Node000007_Node000013" class="edge">
<title>Node7&#45;&gt;Node13</title>
<g id="a_edge12_Node000007_Node000013"><a xlink:title=" ">
<path fill="none" stroke="#63b8ff" d="M302.1,-120.87C315.06,-111.62 335.86,-96.78 351.4,-85.69"/>
<polygon fill="#63b8ff" stroke="#63b8ff" points="353.74,-88.32 359.85,-79.67 349.68,-82.63 353.74,-88.32"/>
</a>
</g>
</g>
<!-- Node10 -->
<g id="Node000010" class="node">
<title>Node10</title>
<g id="a_Node000010"><a xlink:title=" ">
<polygon fill="#e0e0e0" stroke="#999999" points="212.5,-19 147.5,-19 147.5,0 212.5,0 212.5,-19"/>
<text text-anchor="middle" x="180" y="-7" font-family="Helvetica,sans-Serif" font-size="10.00">exception</text>
</a>
</g>
</g>
<!-- Node9&#45;&gt;Node10 -->
<g id="edge9_Node000009_Node000010" class="edge">
<title>Node9&#45;&gt;Node10</title>
<g id="a_edge9_Node000009_Node000010"><a xlink:title=" ">
<path fill="none" stroke="#63b8ff" d="M180,-54.84C180,-47.21 180,-37.7 180,-29.45"/>
<polygon fill="#63b8ff" stroke="#63b8ff" points="183.5,-29.27 180,-19.27 176.5,-29.27 183.5,-29.27"/>
</a>
</g>
</g>
<!-- Node14&#45;&gt;Node7 -->
<g id="edge15_Node000014_Node000007" class="edge">
<title>Node14&#45;&gt;Node7</title>
<g id="a_edge15_Node000014_Node000007"><a xlink:title=" ">
<path fill="none" stroke="#63b8ff" d="M347.91,-175.98C337.51,-168 321.74,-155.88 309.28,-146.31"/>
<polygon fill="#63b8ff" stroke="#63b8ff" points="311.35,-143.49 301.29,-140.17 307.09,-149.04 311.35,-143.49"/>
</a>
</g>
</g>
<!-- Node14&#45;&gt;Node11 -->
<g id="edge16_Node000014_Node000011" class="edge">
<title>Node14&#45;&gt;Node11</title>
<g id="a_edge16_Node000014_Node000011"><a xlink:title=" ">
<path fill="none" stroke="#63b8ff" d="M366.44,-175.97C382.85,-157.15 422.39,-111.82 443.75,-87.34"/>
<polygon fill="#63b8ff" stroke="#63b8ff" points="446.54,-89.47 450.47,-79.63 441.26,-84.87 446.54,-89.47"/>
</a>
</g>
</g>
<!-- Node14&#45;&gt;Node13 -->
<g id="edge17_Node000014_Node000013" class="edge">
<title>Node14&#45;&gt;Node13</title>
<g id="a_edge17_Node000014_Node000013"><a xlink:title=" ">
<path fill="none" stroke="#63b8ff" d="M359.98,-175.97C362.07,-157.73 367.01,-114.57 369.86,-89.64"/>
<polygon fill="#63b8ff" stroke="#63b8ff" points="373.35,-89.96 371.01,-79.63 366.4,-89.17 373.35,-89.96"/>
</a>
</g>
</g>
<!-- Node15&#45;&gt;Node4 -->
<g id="edge19_Node000015_Node000004" class="edge">
<title>Node15&#45;&gt;Node4</title>
<g id="a_edge19_Node000015_Node000004"><a xlink:title=" ">
<path fill="none" stroke="#63b8ff" d="M153.94,-285.84C154.98,-278.21 156.28,-268.7 157.41,-260.45"/>
<polygon fill="#63b8ff" stroke="#63b8ff" points="160.91,-260.65 158.8,-250.27 153.98,-259.7 160.91,-260.65"/>
</a>
</g>
</g>
</g>
</svg>
