<?xml version="1.0" encoding="UTF-8" standalone="no"?>
<!DOCTYPE svg PUBLIC "-//W3C//DTD SVG 1.1//EN"
 "http://www.w3.org/Graphics/SVG/1.1/DTD/svg11.dtd">
<!-- Generated by graphviz version 2.43.0 (0)
 -->
<!-- Title: game/behaviors/coffee/CoffeeCollisionBehavior.cpp Pages: 1 -->
<!--zoomable 445 -->
<svg id="main" version="1.1" xmlns="http://www.w3.org/2000/svg" xmlns:xlink="http://www.w3.org/1999/xlink" xml:space="preserve" onload="init(evt)">
<style type="text/css"><![CDATA[
.edge:hover path { stroke: red; }
.edge:hover polygon { stroke: red; fill: red; }
]]></style>
<script type="text/javascript"><![CDATA[
var edges = document.getElementsByTagName('g');
if (edges && edges.length) {
  for (var i=0;i<edges.length;i++) {
    if (edges[i].id.substr(0,4)=='edge') {
      edges[i].setAttribute('class','edge');
    }
  }
}
]]></script>
        <defs>
                <circle id="rim" cx="0" cy="0" r="7"/>
                <circle id="rim2" cx="0" cy="0" r="3.5"/>
                <g id="zoomPlus">
                        <use xlink:href="#rim" fill="#404040">
                                <set attributeName="fill" to="#808080" begin="zoomplus.mouseover" end="zoomplus.mouseout"/>
                        </use>
                        <path d="M-4,0h8M0,-4v8" fill="none" stroke="white" stroke-width="1.5" pointer-events="none"/>
                </g>
                <g id="zoomMin">
                        <use xlink:href="#rim" fill="#404040">
                                <set attributeName="fill" to="#808080" begin="zoomminus.mouseover" end="zoomminus.mouseout"/>
                        </use>
                        <path d="M-4,0h8" fill="none" stroke="white" stroke-width="1.5" pointer-events="none"/>
                </g>
                <g id="dirArrow">
                        <path fill="none" stroke="white" stroke-width="1.5" d="M0,-3.0v7 M-2.5,-0.5L0,-3.0L2.5,-0.5"/>
                </g>
               <g id="resetDef">
                       <use xlink:href="#rim2" fill="#404040">
                               <set attributeName="fill" to="#808080" begin="reset.mouseover" end="reset.mouseout"/>
                       </use>
               </g>
        </defs>

<script type="text/javascript">
var viewWidth = 779;
var viewHeight = 445;
var sectionId = 'dynsection-0';
</script>
<script xlink:href="../../svgpan.js"/>
<svg id="graph" class="graph">
<g id="viewport">
<title>game/behaviors/coffee/CoffeeCollisionBehavior.cpp</title>
<!-- Node1 -->
<g id="node1" class="node">
<title>Node1</title>
<g id="a_node1"><a xlink:title=" ">
<polygon fill="#999999" stroke="#666666" points="325,-437 169,-437 169,-407 325,-407 325,-437"/>
<text text-anchor="start" x="177" y="-425" font-family="Helvetica,sans-Serif" font-size="10.00">game/behaviors/coffee</text>
<text text-anchor="middle" x="247" y="-414" font-family="Helvetica,sans-Serif" font-size="10.00">/CoffeeCollisionBehavior.cpp</text>
</a>
</g>
</g>
<!-- Node2 -->
<g id="node2" class="node">
<title>Node2</title>
<g id="a_node2"><a xlink:href="../../d3/d9f/CoffeeCollisionBehavior_8hpp.html" target="_top" xlink:title=" ">
<polygon fill="white" stroke="#666666" points="171,-371 17,-371 17,-352 171,-352 171,-371"/>
<text text-anchor="middle" x="94" y="-359" font-family="Helvetica,sans-Serif" font-size="10.00">CoffeeCollisionBehavior.hpp</text>
</a>
</g>
</g>
<!-- Node1&#45;&gt;Node2 -->
<g id="edge1" class="edge">
<title>Node1&#45;&gt;Node2</title>
<path fill="none" stroke="#63b8ff" d="M210.35,-406.99C184.71,-397.18 150.78,-384.21 126.18,-374.81"/>
<polygon fill="#63b8ff" stroke="#63b8ff" points="127.19,-371.44 116.59,-371.14 124.69,-377.98 127.19,-371.44"/>
</g>
<!-- Node11 -->
<g id="node11" class="node">
<title>Node11</title>
<g id="a_node11"><a xlink:title=" ">
<polygon fill="#e0e0e0" stroke="#999999" points="231,-79.5 173,-79.5 173,-60.5 231,-60.5 231,-79.5"/>
<text text-anchor="middle" x="202" y="-67.5" font-family="Helvetica,sans-Serif" font-size="10.00">memory</text>
</a>
</g>
</g>
<!-- Node1&#45;&gt;Node11 -->
<g id="edge23" class="edge">
<title>Node1&#45;&gt;Node11</title>
<path fill="none" stroke="#63b8ff" d="M238.3,-406.94C225.73,-385.26 204,-341.98 204,-302 204,-302 204,-302 204,-184.5 204,-151.1 203.12,-112.19 202.53,-89.69"/>
<polygon fill="#63b8ff" stroke="#63b8ff" points="206.03,-89.44 202.25,-79.54 199.03,-89.63 206.03,-89.44"/>
</g>
<!-- Node14 -->
<g id="node14" class="node">
<title>Node14</title>
<g id="a_node14"><a xlink:href="../../d7/dd0/GameManagement_8hpp.html" target="_top" xlink:title=" ">
<polygon fill="white" stroke="#666666" points="608,-195 414,-195 414,-176 608,-176 608,-195"/>
<text text-anchor="middle" x="511" y="-183" font-family="Helvetica,sans-Serif" font-size="10.00">../../../engine/GameManagement.hpp</text>
</a>
</g>
</g>
<!-- Node1&#45;&gt;Node14 -->
<g id="edge14" class="edge">
<title>Node1&#45;&gt;Node14</title>
<path fill="none" stroke="#63b8ff" d="M309.75,-406.98C334.62,-399.26 362.38,-387.74 384,-371 444.16,-324.41 486.56,-241.24 503.19,-204.64"/>
<polygon fill="#63b8ff" stroke="#63b8ff" points="506.5,-205.8 507.36,-195.24 500.11,-202.97 506.5,-205.8"/>
</g>
<!-- Node17 -->
<g id="node17" class="node">
<title>Node17</title>
<g id="a_node17"><a xlink:href="../../d3/d67/Lifecycle_8hpp.html" target="_top" xlink:title=" ">
<polygon fill="white" stroke="#666666" points="374.5,-371 275.5,-371 275.5,-352 374.5,-352 374.5,-371"/>
<text text-anchor="middle" x="325" y="-359" font-family="Helvetica,sans-Serif" font-size="10.00">../../Lifecycle.hpp</text>
</a>
</g>
</g>
<!-- Node1&#45;&gt;Node17 -->
<g id="edge20" class="edge">
<title>Node1&#45;&gt;Node17</title>
<path fill="none" stroke="#63b8ff" d="M265.88,-406.84C277.78,-397.91 293.12,-386.41 305.2,-377.35"/>
<polygon fill="#63b8ff" stroke="#63b8ff" points="307.41,-380.07 313.31,-371.27 303.21,-374.47 307.41,-380.07"/>
</g>
<!-- Node18 -->
<g id="node18" class="node">
<title>Node18</title>
<g id="a_node18"><a xlink:href="../../d4/d09/CoffeeMeterBehavior_8hpp.html" target="_top" xlink:title=" ">
<polygon fill="white" stroke="#666666" points="379.5,-316 232.5,-316 232.5,-286 379.5,-286 379.5,-316"/>
<text text-anchor="start" x="240.5" y="-304" font-family="Helvetica,sans-Serif" font-size="10.00">../coffeeMeter/CoffeeMeter</text>
<text text-anchor="middle" x="306" y="-293" font-family="Helvetica,sans-Serif" font-size="10.00">Behavior.hpp</text>
</a>
</g>
</g>
<!-- Node1&#45;&gt;Node18 -->
<g id="edge21" class="edge">
<title>Node1&#45;&gt;Node18</title>
<path fill="none" stroke="#63b8ff" d="M249.44,-406.93C252.31,-392.56 257.87,-369.88 267,-352 272.03,-342.15 279.13,-332.32 285.88,-324.03"/>
<polygon fill="#63b8ff" stroke="#63b8ff" points="288.64,-326.18 292.44,-316.29 283.31,-321.66 288.64,-326.18"/>
</g>
<!-- Node3 -->
<g id="node3" class="node">
<title>Node3</title>
<g id="a_node3"><a xlink:href="../../dc/d19/CollisionBehavior_8hpp.html" target="_top" xlink:title=" ">
<polygon fill="white" stroke="#666666" points="176,-316 0,-316 0,-286 176,-286 176,-316"/>
<text text-anchor="start" x="8" y="-304" font-family="Helvetica,sans-Serif" font-size="10.00">../../../engine/components</text>
<text text-anchor="middle" x="88" y="-293" font-family="Helvetica,sans-Serif" font-size="10.00">/behaviors/CollisionBehavior.hpp</text>
</a>
</g>
</g>
<!-- Node2&#45;&gt;Node3 -->
<g id="edge2" class="edge">
<title>Node2&#45;&gt;Node3</title>
<path fill="none" stroke="#63b8ff" d="M93.11,-351.87C92.42,-345.11 91.42,-335.35 90.49,-326.26"/>
<polygon fill="#63b8ff" stroke="#63b8ff" points="93.95,-325.71 89.45,-316.11 86.99,-326.42 93.95,-325.71"/>
</g>
<!-- Node4 -->
<g id="node4" class="node">
<title>Node4</title>
<g id="a_node4"><a xlink:href="../../d4/d8e/Behavior_8hpp.html" target="_top" xlink:title=" ">
<polygon fill="white" stroke="#666666" points="346,-250 266,-250 266,-231 346,-231 346,-250"/>
<text text-anchor="middle" x="306" y="-238" font-family="Helvetica,sans-Serif" font-size="10.00">Behavior.hpp</text>
</a>
</g>
</g>
<!-- Node3&#45;&gt;Node4 -->
<g id="edge3" class="edge">
<title>Node3&#45;&gt;Node4</title>
<path fill="none" stroke="#63b8ff" d="M140.22,-285.99C178.16,-275.8 228.85,-262.2 264.15,-252.73"/>
<polygon fill="#63b8ff" stroke="#63b8ff" points="265.37,-256.03 274.12,-250.05 263.56,-249.27 265.37,-256.03"/>
</g>
<!-- Node3&#45;&gt;Node11 -->
<g id="edge13" class="edge">
<title>Node3&#45;&gt;Node11</title>
<path fill="none" stroke="#63b8ff" d="M95.13,-285.68C115.08,-245.61 171.4,-132.46 193.22,-88.64"/>
<polygon fill="#63b8ff" stroke="#63b8ff" points="196.44,-90.03 197.76,-79.51 190.17,-86.91 196.44,-90.03"/>
</g>
<!-- Node5 -->
<g id="node5" class="node">
<title>Node5</title>
<g id="a_node5"><a xlink:href="../../d2/d69/GameObjectComponent_8hpp.html" target="_top" xlink:title=" ">
<polygon fill="white" stroke="#666666" points="396,-195 232,-195 232,-176 396,-176 396,-195"/>
<text text-anchor="middle" x="314" y="-183" font-family="Helvetica,sans-Serif" font-size="10.00">../GameObjectComponent.hpp</text>
</a>
</g>
</g>
<!-- Node4&#45;&gt;Node5 -->
<g id="edge4" class="edge">
<title>Node4&#45;&gt;Node5</title>
<path fill="none" stroke="#63b8ff" d="M307.32,-230.75C308.37,-223.8 309.87,-213.85 311.19,-205.13"/>
<polygon fill="#63b8ff" stroke="#63b8ff" points="314.67,-205.5 312.7,-195.09 307.75,-204.45 314.67,-205.5"/>
</g>
<!-- Node6 -->
<g id="node6" class="node">
<title>Node6</title>
<g id="a_node6"><a xlink:title=" ">
<polygon fill="#e0e0e0" stroke="#999999" points="318.5,-140 265.5,-140 265.5,-121 318.5,-121 318.5,-140"/>
<text text-anchor="middle" x="292" y="-128" font-family="Helvetica,sans-Serif" font-size="10.00">cstddef</text>
</a>
</g>
</g>
<!-- Node5&#45;&gt;Node6 -->
<g id="edge5" class="edge">
<title>Node5&#45;&gt;Node6</title>
<path fill="none" stroke="#63b8ff" d="M310.37,-175.75C307.42,-168.65 303.17,-158.4 299.49,-149.56"/>
<polygon fill="#63b8ff" stroke="#63b8ff" points="302.63,-147.98 295.57,-140.09 296.17,-150.67 302.63,-147.98"/>
</g>
<!-- Node7 -->
<g id="node7" class="node">
<title>Node7</title>
<g id="a_node7"><a xlink:href="../../d4/db5/GameObject_8hpp.html" target="_top" xlink:title=" ">
<polygon fill="white" stroke="#666666" points="482.5,-140 375.5,-140 375.5,-121 482.5,-121 482.5,-140"/>
<text text-anchor="middle" x="429" y="-128" font-family="Helvetica,sans-Serif" font-size="10.00">../GameObject.hpp</text>
</a>
</g>
</g>
<!-- Node5&#45;&gt;Node7 -->
<g id="edge6" class="edge">
<title>Node5&#45;&gt;Node7</title>
<path fill="none" stroke="#63b8ff" d="M332.48,-175.98C350.98,-167.46 379.68,-154.23 400.98,-144.41"/>
<polygon fill="#63b8ff" stroke="#63b8ff" points="402.57,-147.53 410.19,-140.17 399.64,-141.18 402.57,-147.53"/>
</g>
<!-- Node8 -->
<g id="node8" class="node">
<title>Node8</title>
<g id="a_node8"><a xlink:href="../../d9/d4a/Vector2_8hpp.html" target="_top" xlink:title=" ">
<polygon fill="white" stroke="#666666" points="323,-79.5 249,-79.5 249,-60.5 323,-60.5 323,-79.5"/>
<text text-anchor="middle" x="286" y="-67.5" font-family="Helvetica,sans-Serif" font-size="10.00">Vector2.hpp</text>
</a>
</g>
</g>
<!-- Node7&#45;&gt;Node8 -->
<g id="edge7" class="edge">
<title>Node7&#45;&gt;Node8</title>
<path fill="none" stroke="#63b8ff" d="M408.21,-120.99C384.06,-111.12 344.02,-94.73 316.38,-83.43"/>
<polygon fill="#63b8ff" stroke="#63b8ff" points="317.4,-80.06 306.82,-79.52 314.75,-86.54 317.4,-80.06"/>
</g>
<!-- Node9 -->
<g id="node9" class="node">
<title>Node9</title>
<g id="a_node9"><a xlink:href="../../d4/d71/ComponentNotFoundException_8hpp.html" target="_top" xlink:title=" ">
<polygon fill="white" stroke="#666666" points="517,-85 341,-85 341,-55 517,-55 517,-85"/>
<text text-anchor="start" x="349" y="-73" font-family="Helvetica,sans-Serif" font-size="10.00">exceptions/ComponentNotFound</text>
<text text-anchor="middle" x="429" y="-62" font-family="Helvetica,sans-Serif" font-size="10.00">Exception.hpp</text>
</a>
</g>
</g>
<!-- Node7&#45;&gt;Node9 -->
<g id="edge8" class="edge">
<title>Node7&#45;&gt;Node9</title>
<path fill="none" stroke="#63b8ff" d="M429,-120.87C429,-114.11 429,-104.35 429,-95.26"/>
<polygon fill="#63b8ff" stroke="#63b8ff" points="432.5,-95.11 429,-85.11 425.5,-95.11 432.5,-95.11"/>
</g>
<!-- Node7&#45;&gt;Node11 -->
<g id="edge10" class="edge">
<title>Node7&#45;&gt;Node11</title>
<path fill="none" stroke="#63b8ff" d="M386.2,-120.98C347.63,-112.93 289.55,-99.9 240,-85 237.87,-84.36 235.68,-83.66 233.48,-82.93"/>
<polygon fill="#63b8ff" stroke="#63b8ff" points="234.54,-79.6 223.95,-79.6 232.24,-86.2 234.54,-79.6"/>
</g>
<!-- Node12 -->
<g id="node12" class="node">
<title>Node12</title>
<g id="a_node12"><a xlink:title=" ">
<polygon fill="#e0e0e0" stroke="#999999" points="579,-79.5 535,-79.5 535,-60.5 579,-60.5 579,-79.5"/>
<text text-anchor="middle" x="557" y="-67.5" font-family="Helvetica,sans-Serif" font-size="10.00">string</text>
</a>
</g>
</g>
<!-- Node7&#45;&gt;Node12 -->
<g id="edge11" class="edge">
<title>Node7&#45;&gt;Node12</title>
<path fill="none" stroke="#63b8ff" d="M447.61,-120.99C469.04,-111.2 504.44,-95.02 529.15,-83.73"/>
<polygon fill="#63b8ff" stroke="#63b8ff" points="530.72,-86.86 538.37,-79.52 527.82,-80.49 530.72,-86.86"/>
</g>
<!-- Node13 -->
<g id="node13" class="node">
<title>Node13</title>
<g id="a_node13"><a xlink:title=" ">
<polygon fill="#e0e0e0" stroke="#999999" points="644.5,-79.5 597.5,-79.5 597.5,-60.5 644.5,-60.5 644.5,-79.5"/>
<text text-anchor="middle" x="621" y="-67.5" font-family="Helvetica,sans-Serif" font-size="10.00">vector</text>
</a>
</g>
</g>
<!-- Node7&#45;&gt;Node13 -->
<g id="edge12" class="edge">
<title>Node7&#45;&gt;Node13</title>
<path fill="none" stroke="#63b8ff" d="M464.45,-120.97C496.94,-112.82 546.2,-99.65 588,-85 589.43,-84.5 590.89,-83.97 592.36,-83.41"/>
<polygon fill="#63b8ff" stroke="#63b8ff" points="593.98,-86.53 601.97,-79.56 591.38,-80.03 593.98,-86.53"/>
</g>
<!-- Node10 -->
<g id="node10" class="node">
<title>Node10</title>
<g id="a_node10"><a xlink:title=" ">
<polygon fill="#e0e0e0" stroke="#999999" points="461.5,-19 396.5,-19 396.5,0 461.5,0 461.5,-19"/>
<text text-anchor="middle" x="429" y="-7" font-family="Helvetica,sans-Serif" font-size="10.00">exception</text>
</a>
</g>
</g>
<!-- Node9&#45;&gt;Node10 -->
<g id="edge9" class="edge">
<title>Node9&#45;&gt;Node10</title>
<path fill="none" stroke="#63b8ff" d="M429,-54.84C429,-47.21 429,-37.7 429,-29.45"/>
<polygon fill="#63b8ff" stroke="#63b8ff" points="432.5,-29.27 429,-19.27 425.5,-29.27 432.5,-29.27"/>
</g>
<!-- Node14&#45;&gt;Node7 -->
<g id="edge15" class="edge">
<title>Node14&#45;&gt;Node7</title>
<path fill="none" stroke="#63b8ff" d="M497.83,-175.98C485.23,-167.84 466,-155.41 451.06,-145.76"/>
<polygon fill="#63b8ff" stroke="#63b8ff" points="452.71,-142.66 442.41,-140.17 448.91,-148.54 452.71,-142.66"/>
</g>
<!-- Node14&#45;&gt;Node11 -->
<g id="edge18" class="edge">
<title>Node14&#45;&gt;Node11</title>
<path fill="none" stroke="#63b8ff" d="M478.48,-175.99C448.97,-167.91 404.47,-154.82 367,-140 349.07,-132.91 345.64,-128.78 328,-121 296.64,-107.16 260.17,-92.88 234.56,-83.15"/>
<polygon fill="#63b8ff" stroke="#63b8ff" points="235.57,-79.78 224.98,-79.52 233.09,-86.33 235.57,-79.78"/>
</g>
<!-- Node14&#45;&gt;Node13 -->
<g id="edge19" class="edge">
<title>Node14&#45;&gt;Node13</title>
<path fill="none" stroke="#63b8ff" d="M511.55,-175.73C512.79,-162.51 516.84,-137.29 530,-121 538.61,-110.34 569.1,-94.7 592.43,-83.76"/>
<polygon fill="#63b8ff" stroke="#63b8ff" points="593.98,-86.9 601.6,-79.53 591.05,-80.55 593.98,-86.9"/>
</g>
<!-- Node15 -->
<g id="node15" class="node">
<title>Node15</title>
<g id="a_node15"><a xlink:title=" ">
<polygon fill="#e0e0e0" stroke="#999999" points="645,-140 539,-140 539,-121 645,-121 645,-140"/>
<text text-anchor="middle" x="592" y="-128" font-family="Helvetica,sans-Serif" font-size="10.00">SDL3/SDL_pixels.h</text>
</a>
</g>
</g>
<!-- Node14&#45;&gt;Node15 -->
<g id="edge16" class="edge">
<title>Node14&#45;&gt;Node15</title>
<path fill="none" stroke="#63b8ff" d="M524.01,-175.98C536.46,-167.84 555.46,-155.41 570.21,-145.76"/>
<polygon fill="#63b8ff" stroke="#63b8ff" points="572.3,-148.57 578.75,-140.17 568.46,-142.72 572.3,-148.57"/>
</g>
<!-- Node16 -->
<g id="node16" class="node">
<title>Node16</title>
<g id="a_node16"><a xlink:title=" ">
<polygon fill="#e0e0e0" stroke="#999999" points="771,-140 663,-140 663,-121 771,-121 771,-140"/>
<text text-anchor="middle" x="717" y="-128" font-family="Helvetica,sans-Serif" font-size="10.00">SDL3/SDL_render.h</text>
</a>
</g>
</g>
<!-- Node14&#45;&gt;Node16 -->
<g id="edge17" class="edge">
<title>Node14&#45;&gt;Node16</title>
<path fill="none" stroke="#63b8ff" d="M544.1,-175.98C579.28,-166.93 635.07,-152.58 673.72,-142.64"/>
<polygon fill="#63b8ff" stroke="#63b8ff" points="674.83,-145.96 683.64,-140.08 673.09,-139.18 674.83,-145.96"/>
</g>
<!-- Node18&#45;&gt;Node4 -->
<g id="edge22" class="edge">
<title>Node18&#45;&gt;Node4</title>
<path fill="none" stroke="#63b8ff" d="M306,-285.84C306,-278.21 306,-268.7 306,-260.45"/>
<polygon fill="#63b8ff" stroke="#63b8ff" points="309.5,-260.27 306,-250.27 302.5,-260.27 309.5,-260.27"/>
</g>
</g>
</svg>
        <g id="navigator" transform="translate(0 0)" fill="#404254">
                <rect fill="#f2f5e9" fill-opacity="0.5" stroke="#606060" stroke-width=".5" x="0" y="0" width="60" height="60"/>
                <use id="zoomplus" xlink:href="#zoomPlus" x="17" y="9" onmousedown="handleZoom(evt,'in')"/>
                <use id="zoomminus" xlink:href="#zoomMin" x="42" y="9" onmousedown="handleZoom(evt,'out')"/>
                <use id="reset" xlink:href="#resetDef" x="30" y="36" onmousedown="handleReset()"/>
                <g id="arrowUp" xlink:href="#dirArrow" transform="translate(30 24)" onmousedown="handlePan(0,-1)">
                  <use xlink:href="#rim" fill="#404040">
                        <set attributeName="fill" to="#808080" begin="arrowUp.mouseover" end="arrowUp.mouseout"/>
                  </use>
                  <path fill="none" stroke="white" stroke-width="1.5" d="M0,-3.0v7 M-2.5,-0.5L0,-3.0L2.5,-0.5"/>
                </g>
                <g id="arrowRight" xlink:href="#dirArrow" transform="rotate(90) translate(36 -43)" onmousedown="handlePan(1,0)">
                  <use xlink:href="#rim" fill="#404040">
                        <set attributeName="fill" to="#808080" begin="arrowRight.mouseover" end="arrowRight.mouseout"/>
                  </use>
                  <path fill="none" stroke="white" stroke-width="1.5" d="M0,-3.0v7 M-2.5,-0.5L0,-3.0L2.5,-0.5"/>
                </g>
                <g id="arrowDown" xlink:href="#dirArrow" transform="rotate(180) translate(-30 -48)" onmousedown="handlePan(0,1)">
                  <use xlink:href="#rim" fill="#404040">
                        <set attributeName="fill" to="#808080" begin="arrowDown.mouseover" end="arrowDown.mouseout"/>
                  </use>
                  <path fill="none" stroke="white" stroke-width="1.5" d="M0,-3.0v7 M-2.5,-0.5L0,-3.0L2.5,-0.5"/>
                </g>
                <g id="arrowLeft" xlink:href="#dirArrow" transform="rotate(270) translate(-36 17)" onmousedown="handlePan(-1,0)">
                  <use xlink:href="#rim" fill="#404040">
                        <set attributeName="fill" to="#808080" begin="arrowLeft.mouseover" end="arrowLeft.mouseout"/>
                  </use>
                  <path fill="none" stroke="white" stroke-width="1.5" d="M0,-3.0v7 M-2.5,-0.5L0,-3.0L2.5,-0.5"/>
                </g>
        </g>
        <svg viewBox="0 0 15 15" width="100%" height="30px" preserveAspectRatio="xMaxYMin meet">
         <g id="arrow_out" transform="scale(0.3 0.3)">
          <a xlink:href="CoffeeCollisionBehavior_8cpp__incl_org.svg" target="_base">
           <rect id="button" ry="5" rx="5" y="6" x="6" height="38" width="38"
                fill="#f2f5e9" fill-opacity="0.5" stroke="#606060" stroke-width="1.0"/>
           <path id="arrow"
             d="M 11.500037,31.436501 C 11.940474,20.09759 22.043105,11.32322 32.158766,21.979434 L 37.068811,17.246167 C 37.068811,17.246167 37.088388,32 37.088388,32 L 22.160133,31.978069 C 22.160133,31.978069 26.997745,27.140456 26.997745,27.140456 C 18.528582,18.264221 13.291696,25.230495 11.500037,31.436501 z"
             style="fill:#404040;"/>
          </a>
         </g>
        </svg>
</svg>
