<?xml version="1.0" encoding="UTF-8" standalone="no"?>
<!DOCTYPE svg PUBLIC "-//W3C//DTD SVG 1.1//EN"
 "http://www.w3.org/Graphics/SVG/1.1/DTD/svg11.dtd">
<!-- Generated by graphviz version 2.43.0 (0)
 -->
<!-- Title: CoffeeMeterBehavior Pages: 1 -->
<svg width="197pt" height="454pt"
 viewBox="0.00 0.00 197.00 454.00" xmlns="http://www.w3.org/2000/svg" xmlns:xlink="http://www.w3.org/1999/xlink">
<g id="graph0" class="graph" transform="scale(1 1) rotate(0) translate(4 450)">
<title>CoffeeMeterBehavior</title>
<!-- Node1 -->
<g id="Node000001" class="node">
<title>Node1</title>
<g id="a_Node000001"><a xlink:title=" ">
<polygon fill="#999999" stroke="transparent" points="167,-164 22,-164 22,0 167,0 167,-164"/>
<text text-anchor="start" x="43" y="-152" font-family="Helvetica,sans-Serif" font-size="10.00">CoffeeMeterBehavior</text>
<text text-anchor="start" x="26.5" y="-137" font-family="Helvetica,sans-Serif" font-size="10.00">#</text>
<text text-anchor="start" x="39.5" y="-137" font-family="Helvetica,sans-Serif" font-size="10.00">float coffeeLevel</text>
<text text-anchor="start" x="26.5" y="-122" font-family="Helvetica,sans-Serif" font-size="10.00">+</text>
<text text-anchor="start" x="39.5" y="-122" font-family="Helvetica,sans-Serif" font-size="10.00">float getCoffeeLevel</text>
<text text-anchor="start" x="39.5" y="-111" font-family="Helvetica,sans-Serif" font-size="10.00">() const</text>
<text text-anchor="start" x="26.5" y="-96" font-family="Helvetica,sans-Serif" font-size="10.00">+</text>
<text text-anchor="start" x="39.5" y="-96" font-family="Helvetica,sans-Serif" font-size="10.00">void setCoffeeLevel</text>
<text text-anchor="start" x="39.5" y="-85" font-family="Helvetica,sans-Serif" font-size="10.00">(float value)</text>
<text text-anchor="start" x="26.5" y="-70" font-family="Helvetica,sans-Serif" font-size="10.00">+</text>
<text text-anchor="start" x="39.5" y="-70" font-family="Helvetica,sans-Serif" font-size="10.00">void IncreaseCoffeeLevel</text>
<text text-anchor="start" x="39.5" y="-59" font-family="Helvetica,sans-Serif" font-size="10.00">(float amount)</text>
<text text-anchor="start" x="26.5" y="-44" font-family="Helvetica,sans-Serif" font-size="10.00">+</text>
<text text-anchor="start" x="39.5" y="-44" font-family="Helvetica,sans-Serif" font-size="10.00">virtual void OnTick</text>
<text text-anchor="start" x="39.5" y="-33" font-family="Helvetica,sans-Serif" font-size="10.00">() override</text>
<text text-anchor="start" x="26.5" y="-18" font-family="Helvetica,sans-Serif" font-size="10.00">+</text>
<text text-anchor="start" x="39.5" y="-18" font-family="Helvetica,sans-Serif" font-size="10.00">virtual void OnStart</text>
<text text-anchor="start" x="39.5" y="-7" font-family="Helvetica,sans-Serif" font-size="10.00">() override</text>
<polygon fill="#666666" stroke="#666666" points="22.5,-147 22.5,-147 167.5,-147 167.5,-147 22.5,-147"/>
<polygon fill="#666666" stroke="#666666" points="22.5,-132 22.5,-132 37.5,-132 37.5,-132 22.5,-132"/>
<polygon fill="#666666" stroke="#666666" points="37.5,-132 37.5,-132 167.5,-132 167.5,-132 37.5,-132"/>
<polygon fill="none" stroke="#666666" points="22,0 22,-164 167,-164 167,0 22,0"/>
</a>
</g>
</g>
<!-- Node2 -->
<g id="Node000002" class="node">
<title>Node2</title>
<g id="a_Node000002"><a xlink:href="../../df/dc1/classBehavior.html" target="_top" xlink:title="An abstract gameobject behavior.">
<polygon fill="white" stroke="transparent" points="121.5,-249 67.5,-249 67.5,-200 121.5,-200 121.5,-249"/>
<text text-anchor="start" x="72.5" y="-236.5" font-family="Helvetica,sans-Serif" font-size="10.00">Behavior</text>
<text text-anchor="start" x="92.5" y="-221.5" font-family="Helvetica,sans-Serif" font-size="10.00"> </text>
<text text-anchor="start" x="92.5" y="-206.5" font-family="Helvetica,sans-Serif" font-size="10.00"> </text>
<polygon fill="#666666" stroke="#666666" points="67.5,-231.5 67.5,-231.5 121.5,-231.5 121.5,-231.5 67.5,-231.5"/>
<polygon fill="#666666" stroke="#666666" points="67.5,-216.5 67.5,-216.5 121.5,-216.5 121.5,-216.5 67.5,-216.5"/>
<polygon fill="none" stroke="#666666" points="67.5,-200 67.5,-249 121.5,-249 121.5,-200 67.5,-200"/>
</a>
</g>
</g>
<!-- Node2&#45;&gt;Node1 -->
<g id="edge1_Node000001_Node000002" class="edge">
<title>Node2&#45;&gt;Node1</title>
<g id="a_edge1_Node000001_Node000002"><a xlink:title=" ">
<path fill="none" stroke="#63b8ff" d="M94.5,-189.82C94.5,-181.94 94.5,-173.21 94.5,-164.23"/>
<polygon fill="none" stroke="#63b8ff" points="91,-189.98 94.5,-199.98 98,-189.98 91,-189.98"/>
</a>
</g>
</g>
<!-- Node3 -->
<g id="Node000003" class="node">
<title>Node3</title>
<g id="a_Node000003"><a xlink:href="../../d9/df7/classGameObjectComponent.html" target="_top" xlink:title="An abstract gameobject component.">
<polygon fill="white" stroke="transparent" points="189,-446 0,-446 0,-285 189,-285 189,-446"/>
<text text-anchor="start" x="36" y="-433.5" font-family="Helvetica,sans-Serif" font-size="10.00">GameObjectComponent</text>
<text text-anchor="start" x="4.5" y="-418.5" font-family="Helvetica,sans-Serif" font-size="10.00">#</text>
<text text-anchor="start" x="17.5" y="-418.5" font-family="Helvetica,sans-Serif" font-size="10.00">bool enabled</text>
<text text-anchor="start" x="4.5" y="-403.5" font-family="Helvetica,sans-Serif" font-size="10.00">#</text>
<text text-anchor="start" x="17.5" y="-403.5" font-family="Helvetica,sans-Serif" font-size="10.00">GameObject * parent</text>
<text text-anchor="start" x="4.5" y="-388.5" font-family="Helvetica,sans-Serif" font-size="10.00">+</text>
<text text-anchor="start" x="17.5" y="-388.5" font-family="Helvetica,sans-Serif" font-size="10.00">bool getEnabled() const</text>
<text text-anchor="start" x="4.5" y="-373.5" font-family="Helvetica,sans-Serif" font-size="10.00">+</text>
<text text-anchor="start" x="17.5" y="-373.5" font-family="Helvetica,sans-Serif" font-size="10.00">void setEnabled(bool</text>
<text text-anchor="start" x="17.5" y="-362.5" font-family="Helvetica,sans-Serif" font-size="10.00"> value)</text>
<text text-anchor="start" x="4.5" y="-347.5" font-family="Helvetica,sans-Serif" font-size="10.00">+</text>
<text text-anchor="start" x="17.5" y="-347.5" font-family="Helvetica,sans-Serif" font-size="10.00">void setParent(GameObject</text>
<text text-anchor="start" x="17.5" y="-336.5" font-family="Helvetica,sans-Serif" font-size="10.00"> *value)</text>
<text text-anchor="start" x="4.5" y="-321.5" font-family="Helvetica,sans-Serif" font-size="10.00">+</text>
<text text-anchor="start" x="17.5" y="-321.5" font-family="Helvetica,sans-Serif" font-size="10.00">virtual ~GameObjectComponent()</text>
<text text-anchor="start" x="4.5" y="-306.5" font-family="Helvetica,sans-Serif" font-size="10.00">+</text>
<text text-anchor="start" x="17.5" y="-306.5" font-family="Helvetica,sans-Serif" font-size="10.00">virtual void OnTick()=0</text>
<text text-anchor="start" x="4.5" y="-291.5" font-family="Helvetica,sans-Serif" font-size="10.00">+</text>
<text text-anchor="start" x="17.5" y="-291.5" font-family="Helvetica,sans-Serif" font-size="10.00">virtual void OnStart()=0</text>
<polygon fill="#666666" stroke="#666666" points="0.5,-428.5 0.5,-428.5 189.5,-428.5 189.5,-428.5 0.5,-428.5"/>
<polygon fill="#666666" stroke="#666666" points="0.5,-398.5 0.5,-398.5 15.5,-398.5 15.5,-398.5 0.5,-398.5"/>
<polygon fill="#666666" stroke="#666666" points="15.5,-398.5 15.5,-398.5 189.5,-398.5 189.5,-398.5 15.5,-398.5"/>
<polygon fill="none" stroke="#666666" points="0,-285 0,-446 189,-446 189,-285 0,-285"/>
</a>
</g>
</g>
<!-- Node3&#45;&gt;Node2 -->
<g id="edge2_Node000002_Node000003" class="edge">
<title>Node3&#45;&gt;Node2</title>
<g id="a_edge2_Node000002_Node000003"><a xlink:title=" ">
<path fill="none" stroke="#63b8ff" d="M94.5,-274.64C94.5,-265.4 94.5,-256.68 94.5,-249.22"/>
<polygon fill="none" stroke="#63b8ff" points="91,-274.85 94.5,-284.85 98,-274.85 91,-274.85"/>
</a>
</g>
</g>
</g>
</svg>
