<?xml version="1.0" encoding="UTF-8" standalone="no"?>
<!DOCTYPE svg PUBLIC "-//W3C//DTD SVG 1.1//EN"
 "http://www.w3.org/Graphics/SVG/1.1/DTD/svg11.dtd">
<!-- Generated by graphviz version 2.43.0 (0)
 -->
<!-- Title: game/Init.cpp Pages: 1 -->
<svg width="1959pt" height="445pt"
 viewBox="0.00 0.00 1958.50 445.00" xmlns="http://www.w3.org/2000/svg" xmlns:xlink="http://www.w3.org/1999/xlink">
<g id="graph0" class="graph" transform="scale(1 1) rotate(0) translate(4 441)">
<title>game/Init.cpp</title>
<!-- Node1 -->
<g id="Node000001" class="node">
<title>Node1</title>
<g id="a_Node000001"><a xlink:title=" ">
<polygon fill="#999999" stroke="#666666" points="829,-437 746,-437 746,-418 829,-418 829,-437"/>
<text text-anchor="middle" x="787.5" y="-425" font-family="Helvetica,sans-Serif" font-size="10.00">game/Init.cpp</text>
</a>
</g>
</g>
<!-- Node2 -->
<g id="Node000002" class="node">
<title>Node2</title>
<g id="a_Node000002"><a xlink:href="../../d3/de1/Init_8hpp.html" target="_top" xlink:title=" ">
<polygon fill="white" stroke="#666666" points="53,-376.5 0,-376.5 0,-357.5 53,-357.5 53,-376.5"/>
<text text-anchor="middle" x="26.5" y="-364.5" font-family="Helvetica,sans-Serif" font-size="10.00">Init.hpp</text>
</a>
</g>
</g>
<!-- Node1&#45;&gt;Node2 -->
<g id="edge1_Node000001_Node000002" class="edge">
<title>Node1&#45;&gt;Node2</title>
<g id="a_edge1_Node000001_Node000002"><a xlink:title=" ">
<path fill="none" stroke="#63b8ff" d="M745.87,-425.39C612.79,-421.6 198.8,-407.99 67.5,-382 64.25,-381.36 60.91,-380.52 57.6,-379.58"/>
<polygon fill="#63b8ff" stroke="#63b8ff" points="58.5,-376.19 47.91,-376.51 56.39,-382.87 58.5,-376.19"/>
</a>
</g>
</g>
<!-- Node3 -->
<g id="Node000003" class="node">
<title>Node3</title>
<g id="a_Node000003"><a xlink:href="../../d6/d76/AssetLoading_8hpp.html" target="_top" xlink:title=" ">
<polygon fill="white" stroke="#666666" points="575.5,-140 427.5,-140 427.5,-121 575.5,-121 575.5,-140"/>
<text text-anchor="middle" x="501.5" y="-128" font-family="Helvetica,sans-Serif" font-size="10.00">../engine/AssetLoading.hpp</text>
</a>
</g>
</g>
<!-- Node1&#45;&gt;Node3 -->
<g id="edge2_Node000001_Node000003" class="edge">
<title>Node1&#45;&gt;Node3</title>
<g id="a_edge2_Node000001_Node000003"><a xlink:title=" ">
<path fill="none" stroke="#63b8ff" d="M745.94,-426.5C605.65,-426.14 155.57,-421.86 105.5,-382 76.46,-358.88 81.5,-339.12 81.5,-302 81.5,-302 81.5,-302 81.5,-239.5 81.5,-209.33 81.68,-194.51 105.5,-176 152.5,-139.47 315.26,-131.94 416.91,-130.93"/>
<polygon fill="#63b8ff" stroke="#63b8ff" points="417.18,-134.43 427.15,-130.85 417.13,-127.43 417.18,-134.43"/>
</a>
</g>
</g>
<!-- Node5 -->
<g id="Node000005" class="node">
<title>Node5</title>
<g id="a_Node000005"><a xlink:href="../../d7/dd0/GameManagement_8hpp.html" target="_top" xlink:title=" ">
<polygon fill="white" stroke="#666666" points="1480.5,-250 1304.5,-250 1304.5,-231 1480.5,-231 1480.5,-250"/>
<text text-anchor="middle" x="1392.5" y="-238" font-family="Helvetica,sans-Serif" font-size="10.00">../engine/GameManagement.hpp</text>
</a>
</g>
</g>
<!-- Node1&#45;&gt;Node5 -->
<g id="edge4_Node000001_Node000005" class="edge">
<title>Node1&#45;&gt;Node5</title>
<g id="a_edge4_Node000001_Node000005"><a xlink:title=" ">
<path fill="none" stroke="#63b8ff" d="M829.11,-426.75C964.21,-427.16 1384.23,-424.92 1425.5,-382 1455.08,-351.24 1441.46,-326.33 1427.5,-286 1423.83,-275.38 1416.46,-265.38 1409.42,-257.55"/>
<polygon fill="#63b8ff" stroke="#63b8ff" points="1411.84,-255.02 1402.38,-250.25 1406.8,-259.88 1411.84,-255.02"/>
</a>
</g>
</g>
<!-- Node6 -->
<g id="Node000006" class="node">
<title>Node6</title>
<g id="a_Node000006"><a xlink:href="../../d4/db5/GameObject_8hpp.html" target="_top" xlink:title=" ">
<polygon fill="white" stroke="#666666" points="1185.5,-140 1087.5,-140 1087.5,-121 1185.5,-121 1185.5,-140"/>
<text text-anchor="middle" x="1136.5" y="-128" font-family="Helvetica,sans-Serif" font-size="10.00">GameObject.hpp</text>
</a>
</g>
</g>
<!-- Node1&#45;&gt;Node6 -->
<g id="edge16_Node000001_Node000006" class="edge">
<title>Node1&#45;&gt;Node6</title>
<g id="a_edge16_Node000001_Node000006"><a xlink:title=" ">
<path fill="none" stroke="#63b8ff" d="M745.98,-426.46C610.11,-425.95 184.76,-421.2 138.5,-382 110.62,-358.37 119.5,-338.54 119.5,-302 119.5,-302 119.5,-302 119.5,-239.5 119.5,-142.54 859.85,-132.42 1077.2,-131.53"/>
<polygon fill="#63b8ff" stroke="#63b8ff" points="1077.46,-135.03 1087.45,-131.49 1077.44,-128.03 1077.46,-135.03"/>
</a>
</g>
</g>
<!-- Node10 -->
<g id="Node000010" class="node">
<title>Node10</title>
<g id="a_Node000010"><a xlink:title=" ">
<polygon fill="#e0e0e0" stroke="#999999" points="1532.5,-79.5 1474.5,-79.5 1474.5,-60.5 1532.5,-60.5 1532.5,-79.5"/>
<text text-anchor="middle" x="1503.5" y="-67.5" font-family="Helvetica,sans-Serif" font-size="10.00">memory</text>
</a>
</g>
</g>
<!-- Node1&#45;&gt;Node10 -->
<g id="edge62_Node000001_Node000010" class="edge">
<title>Node1&#45;&gt;Node10</title>
<g id="a_edge62_Node000001_Node000010"><a xlink:title=" ">
<path fill="none" stroke="#63b8ff" d="M829.23,-426.5C1037.07,-425.99 1950.5,-417.17 1950.5,-302 1950.5,-302 1950.5,-302 1950.5,-184.5 1950.5,-100.81 1652.45,-78.12 1543.11,-72.61"/>
<polygon fill="#63b8ff" stroke="#63b8ff" points="1542.99,-69.1 1532.83,-72.11 1542.65,-76.09 1542.99,-69.1"/>
</a>
</g>
</g>
<!-- Node14 -->
<g id="Node000014" class="node">
<title>Node14</title>
<g id="a_Node000014"><a xlink:href="../../d5/d6d/GravityBehavior_8hpp.html" target="_top" xlink:title=" ">
<polygon fill="white" stroke="#666666" points="814.5,-316 644.5,-316 644.5,-286 814.5,-286 814.5,-316"/>
<text text-anchor="start" x="652.5" y="-304" font-family="Helvetica,sans-Serif" font-size="10.00">../engine/components</text>
<text text-anchor="middle" x="729.5" y="-293" font-family="Helvetica,sans-Serif" font-size="10.00">/behaviors/GravityBehavior.hpp</text>
</a>
</g>
</g>
<!-- Node1&#45;&gt;Node14 -->
<g id="edge17_Node000001_Node000014" class="edge">
<title>Node1&#45;&gt;Node14</title>
<g id="a_edge17_Node000001_Node000014"><a xlink:title=" ">
<path fill="none" stroke="#63b8ff" d="M786.47,-417.84C784.51,-403.52 779.43,-374.29 768.5,-352 763.63,-342.07 756.57,-332.23 749.79,-323.94"/>
<polygon fill="#63b8ff" stroke="#63b8ff" points="752.36,-321.55 743.2,-316.22 747.04,-326.1 752.36,-321.55"/>
</a>
</g>
</g>
<!-- Node18 -->
<g id="Node000018" class="node">
<title>Node18</title>
<g id="a_Node000018"><a xlink:href="../../dc/da8/KinematicBehavior_8hpp.html" target="_top" xlink:title=" ">
<polygon fill="white" stroke="#666666" points="388.5,-316 204.5,-316 204.5,-286 388.5,-286 388.5,-316"/>
<text text-anchor="start" x="212.5" y="-304" font-family="Helvetica,sans-Serif" font-size="10.00">../engine/components</text>
<text text-anchor="middle" x="296.5" y="-293" font-family="Helvetica,sans-Serif" font-size="10.00">/behaviors/KinematicBehavior.hpp</text>
</a>
</g>
</g>
<!-- Node1&#45;&gt;Node18 -->
<g id="edge22_Node000001_Node000018" class="edge">
<title>Node1&#45;&gt;Node18</title>
<g id="a_edge22_Node000001_Node000018"><a xlink:title=" ">
<path fill="none" stroke="#63b8ff" d="M745.71,-425.73C653.48,-423.45 435.57,-414.67 370.5,-382 344.81,-369.1 323.55,-343.33 310.51,-324.52"/>
<polygon fill="#63b8ff" stroke="#63b8ff" points="313.41,-322.55 304.94,-316.18 307.58,-326.44 313.41,-322.55"/>
</a>
</g>
</g>
<!-- Node19 -->
<g id="Node000019" class="node">
<title>Node19</title>
<g id="a_Node000019"><a xlink:href="../../d7/dc4/FontRenderer_8hpp.html" target="_top" xlink:title=" ">
<polygon fill="white" stroke="#666666" points="1418,-316 1263,-316 1263,-286 1418,-286 1418,-316"/>
<text text-anchor="start" x="1271" y="-304" font-family="Helvetica,sans-Serif" font-size="10.00">../engine/components</text>
<text text-anchor="middle" x="1340.5" y="-293" font-family="Helvetica,sans-Serif" font-size="10.00">/renderers/FontRenderer.hpp</text>
</a>
</g>
</g>
<!-- Node1&#45;&gt;Node19 -->
<g id="edge24_Node000001_Node000019" class="edge">
<title>Node1&#45;&gt;Node19</title>
<g id="a_edge24_Node000001_Node000019"><a xlink:title=" ">
<path fill="none" stroke="#63b8ff" d="M829.45,-426.72C962.57,-426.98 1369.14,-424.28 1408.5,-382 1427.05,-362.07 1400.8,-338.16 1375.71,-321.7"/>
<polygon fill="#63b8ff" stroke="#63b8ff" points="1377.29,-318.56 1366.96,-316.21 1373.57,-324.49 1377.29,-318.56"/>
</a>
</g>
</g>
<!-- Node24 -->
<g id="Node000024" class="node">
<title>Node24</title>
<g id="a_Node000024"><a xlink:href="../../dc/daa/RectangleRenderer_8hpp.html" target="_top" xlink:title=" ">
<polygon fill="white" stroke="#666666" points="1715.5,-316 1533.5,-316 1533.5,-286 1715.5,-286 1715.5,-316"/>
<text text-anchor="start" x="1541.5" y="-304" font-family="Helvetica,sans-Serif" font-size="10.00">../engine/components</text>
<text text-anchor="middle" x="1624.5" y="-293" font-family="Helvetica,sans-Serif" font-size="10.00">/renderers/RectangleRenderer.hpp</text>
</a>
</g>
</g>
<!-- Node1&#45;&gt;Node24 -->
<g id="edge32_Node000001_Node000024" class="edge">
<title>Node1&#45;&gt;Node24</title>
<g id="a_edge32_Node000001_Node000024"><a xlink:title=" ">
<path fill="none" stroke="#63b8ff" d="M829.1,-426.2C959.1,-424.88 1356.43,-417.95 1479.5,-382 1523.58,-369.13 1569.1,-341.18 1597.1,-321.97"/>
<polygon fill="#63b8ff" stroke="#63b8ff" points="1599.35,-324.67 1605.55,-316.08 1595.35,-318.93 1599.35,-324.67"/>
</a>
</g>
</g>
<!-- Node26 -->
<g id="Node000026" class="node">
<title>Node26</title>
<g id="a_Node000026"><a xlink:href="../../d6/d02/TextureRenderer_8hpp.html" target="_top" xlink:title=" ">
<polygon fill="white" stroke="#666666" points="1903.5,-316 1733.5,-316 1733.5,-286 1903.5,-286 1903.5,-316"/>
<text text-anchor="start" x="1741.5" y="-304" font-family="Helvetica,sans-Serif" font-size="10.00">../engine/components</text>
<text text-anchor="middle" x="1818.5" y="-293" font-family="Helvetica,sans-Serif" font-size="10.00">/renderers/TextureRenderer.hpp</text>
</a>
</g>
</g>
<!-- Node1&#45;&gt;Node26 -->
<g id="edge39_Node000001_Node000026" class="edge">
<title>Node1&#45;&gt;Node26</title>
<g id="a_edge39_Node000001_Node000026"><a xlink:title=" ">
<path fill="none" stroke="#63b8ff" d="M829.1,-427C942.06,-427.71 1263.68,-425.43 1526.5,-382 1612.78,-367.74 1710.25,-338.23 1767.92,-319.31"/>
<polygon fill="#63b8ff" stroke="#63b8ff" points="1769.12,-322.6 1777.52,-316.14 1766.92,-315.95 1769.12,-322.6"/>
</a>
</g>
</g>
<!-- Node27 -->
<g id="Node000027" class="node">
<title>Node27</title>
<g id="a_Node000027"><a xlink:href="../../d4/d09/CoffeeMeterBehavior_8hpp.html" target="_top" xlink:title=" ">
<polygon fill="white" stroke="#666666" points="550,-316 407,-316 407,-286 550,-286 550,-316"/>
<text text-anchor="start" x="415" y="-304" font-family="Helvetica,sans-Serif" font-size="10.00">behaviors/coffeeMeter</text>
<text text-anchor="middle" x="478.5" y="-293" font-family="Helvetica,sans-Serif" font-size="10.00">/CoffeeMeterBehavior.hpp</text>
</a>
</g>
</g>
<!-- Node1&#45;&gt;Node27 -->
<g id="edge44_Node000001_Node000027" class="edge">
<title>Node1&#45;&gt;Node27</title>
<g id="a_edge44_Node000001_Node000027"><a xlink:title=" ">
<path fill="none" stroke="#63b8ff" d="M745.95,-425.03C647.33,-421.11 405.55,-408.83 381.5,-382 360.06,-358.08 395.32,-335.22 429.18,-320.11"/>
<polygon fill="#63b8ff" stroke="#63b8ff" points="430.83,-323.21 438.65,-316.06 428.08,-316.78 430.83,-323.21"/>
</a>
</g>
</g>
<!-- Node28 -->
<g id="Node000028" class="node">
<title>Node28</title>
<g id="a_Node000028"><a xlink:href="../../d2/d74/GameManagerBehavior_8hpp.html" target="_top" xlink:title=" ">
<polygon fill="white" stroke="#666666" points="545,-382 390,-382 390,-352 545,-352 545,-382"/>
<text text-anchor="start" x="398" y="-370" font-family="Helvetica,sans-Serif" font-size="10.00">behaviors/gameManager</text>
<text text-anchor="middle" x="467.5" y="-359" font-family="Helvetica,sans-Serif" font-size="10.00">/GameManagerBehavior.hpp</text>
</a>
</g>
</g>
<!-- Node1&#45;&gt;Node28 -->
<g id="edge46_Node000001_Node000028" class="edge">
<title>Node1&#45;&gt;Node28</title>
<g id="a_edge46_Node000001_Node000028"><a xlink:title=" ">
<path fill="none" stroke="#63b8ff" d="M745.99,-418.91C697.7,-410.08 616.63,-395.26 554.37,-383.88"/>
<polygon fill="#63b8ff" stroke="#63b8ff" points="554.63,-380.37 544.16,-382.01 553.37,-387.26 554.63,-380.37"/>
</a>
</g>
</g>
<!-- Node29 -->
<g id="Node000029" class="node">
<title>Node29</title>
<g id="a_Node000029"><a xlink:href="../../da/d20/GameManagerKeyboardHandler_8hpp.html" target="_top" xlink:title=" ">
<polygon fill="white" stroke="#666666" points="1011.5,-382 815.5,-382 815.5,-352 1011.5,-352 1011.5,-382"/>
<text text-anchor="start" x="823.5" y="-370" font-family="Helvetica,sans-Serif" font-size="10.00">behaviors/gameManager</text>
<text text-anchor="middle" x="913.5" y="-359" font-family="Helvetica,sans-Serif" font-size="10.00">/GameManagerKeyboardHandler.hpp</text>
</a>
</g>
</g>
<!-- Node1&#45;&gt;Node29 -->
<g id="edge48_Node000001_Node000029" class="edge">
<title>Node1&#45;&gt;Node29</title>
<g id="a_edge48_Node000001_Node000029"><a xlink:title=" ">
<path fill="none" stroke="#63b8ff" d="M805.82,-417.99C823.58,-409.75 851.09,-396.98 873.86,-386.4"/>
<polygon fill="#63b8ff" stroke="#63b8ff" points="875.37,-389.56 882.96,-382.18 872.42,-383.21 875.37,-389.56"/>
</a>
</g>
</g>
<!-- Node31 -->
<g id="Node000031" class="node">
<title>Node31</title>
<g id="a_Node000031"><a xlink:href="../../dd/da3/PlayerBehavior_8hpp.html" target="_top" xlink:title=" ">
<polygon fill="white" stroke="#666666" points="759.5,-376.5 563.5,-376.5 563.5,-357.5 759.5,-357.5 759.5,-376.5"/>
<text text-anchor="middle" x="661.5" y="-364.5" font-family="Helvetica,sans-Serif" font-size="10.00">behaviors/player/PlayerBehavior.hpp</text>
</a>
</g>
</g>
<!-- Node1&#45;&gt;Node31 -->
<g id="edge52_Node000001_Node000031" class="edge">
<title>Node1&#45;&gt;Node31</title>
<g id="a_edge52_Node000001_Node000031"><a xlink:title=" ">
<path fill="none" stroke="#63b8ff" d="M769.18,-417.99C748.09,-408.2 713.24,-392.02 688.92,-380.73"/>
<polygon fill="#63b8ff" stroke="#63b8ff" points="690.39,-377.55 679.84,-376.52 687.44,-383.9 690.39,-377.55"/>
</a>
</g>
</g>
<!-- Node32 -->
<g id="Node000032" class="node">
<title>Node32</title>
<g id="a_Node000032"><a xlink:href="../../db/d9e/PlayerCollisionBehavior_8hpp.html" target="_top" xlink:title=" ">
<polygon fill="white" stroke="#666666" points="1399.5,-382 1225.5,-382 1225.5,-352 1399.5,-352 1399.5,-382"/>
<text text-anchor="start" x="1233.5" y="-370" font-family="Helvetica,sans-Serif" font-size="10.00">behaviors/player/PlayerCollision</text>
<text text-anchor="middle" x="1312.5" y="-359" font-family="Helvetica,sans-Serif" font-size="10.00">Behavior.hpp</text>
</a>
</g>
</g>
<!-- Node1&#45;&gt;Node32 -->
<g id="edge54_Node000001_Node000032" class="edge">
<title>Node1&#45;&gt;Node32</title>
<g id="a_edge54_Node000001_Node000032"><a xlink:title=" ">
<path fill="none" stroke="#63b8ff" d="M829.28,-422.75C904.34,-415.88 1067.24,-400.39 1215.22,-382.13"/>
<polygon fill="#63b8ff" stroke="#63b8ff" points="1215.91,-385.57 1225.4,-380.86 1215.05,-378.62 1215.91,-385.57"/>
</a>
</g>
</g>
<!-- Node34 -->
<g id="Node000034" class="node">
<title>Node34</title>
<g id="a_Node000034"><a xlink:href="../../d0/dd8/PlayerKeyboardBehavior_8hpp.html" target="_top" xlink:title=" ">
<polygon fill="white" stroke="#666666" points="1207.5,-382 1029.5,-382 1029.5,-352 1207.5,-352 1207.5,-382"/>
<text text-anchor="start" x="1037.5" y="-370" font-family="Helvetica,sans-Serif" font-size="10.00">behaviors/player/PlayerKeyboard</text>
<text text-anchor="middle" x="1118.5" y="-359" font-family="Helvetica,sans-Serif" font-size="10.00">Behavior.hpp</text>
</a>
</g>
</g>
<!-- Node1&#45;&gt;Node34 -->
<g id="edge58_Node000001_Node000034" class="edge">
<title>Node1&#45;&gt;Node34</title>
<g id="a_edge58_Node000001_Node000034"><a xlink:title=" ">
<path fill="none" stroke="#63b8ff" d="M829.09,-419.15C879.05,-410.32 964.25,-395.26 1029.32,-383.76"/>
<polygon fill="#63b8ff" stroke="#63b8ff" points="1029.93,-387.21 1039.17,-382.02 1028.71,-380.31 1029.93,-387.21"/>
</a>
</g>
</g>
<!-- Node35 -->
<g id="Node000035" class="node">
<title>Node35</title>
<g id="a_Node000035"><a xlink:href="../../d9/de4/ScoreCounterBehavior_8hpp.html" target="_top" xlink:title=" ">
<polygon fill="white" stroke="#666666" points="296,-382 147,-382 147,-352 296,-352 296,-382"/>
<text text-anchor="start" x="155" y="-370" font-family="Helvetica,sans-Serif" font-size="10.00">behaviors/scoreCounter</text>
<text text-anchor="middle" x="221.5" y="-359" font-family="Helvetica,sans-Serif" font-size="10.00">/ScoreCounterBehavior.hpp</text>
</a>
</g>
</g>
<!-- Node1&#45;&gt;Node35 -->
<g id="edge60_Node000001_Node000035" class="edge">
<title>Node1&#45;&gt;Node35</title>
<g id="a_edge60_Node000001_Node000035"><a xlink:title=" ">
<path fill="none" stroke="#63b8ff" d="M745.84,-423.54C662.7,-417.42 470.34,-402.26 309.5,-382 308.43,-381.86 307.34,-381.73 306.26,-381.59"/>
<polygon fill="#63b8ff" stroke="#63b8ff" points="306.72,-378.12 296.35,-380.25 305.79,-385.05 306.72,-378.12"/>
</a>
</g>
</g>
<!-- Node4 -->
<g id="Node000004" class="node">
<title>Node4</title>
<g id="a_Node000004"><a xlink:title=" ">
<polygon fill="#e0e0e0" stroke="#999999" points="1036.5,-79.5 992.5,-79.5 992.5,-60.5 1036.5,-60.5 1036.5,-79.5"/>
<text text-anchor="middle" x="1014.5" y="-67.5" font-family="Helvetica,sans-Serif" font-size="10.00">string</text>
</a>
</g>
</g>
<!-- Node3&#45;&gt;Node4 -->
<g id="edge3_Node000003_Node000004" class="edge">
<title>Node3&#45;&gt;Node4</title>
<g id="a_edge3_Node000003_Node000004"><a xlink:title=" ">
<path fill="none" stroke="#63b8ff" d="M575.55,-121.06C689.07,-108.11 901.45,-83.89 982.21,-74.68"/>
<polygon fill="#63b8ff" stroke="#63b8ff" points="982.73,-78.15 992.27,-73.53 981.94,-71.19 982.73,-78.15"/>
</a>
</g>
</g>
<!-- Node5&#45;&gt;Node6 -->
<g id="edge5_Node000005_Node000006" class="edge">
<title>Node5&#45;&gt;Node6</title>
<g id="a_edge5_Node000005_Node000006"><a xlink:title=" ">
<path fill="none" stroke="#63b8ff" d="M1316.07,-230.97C1227.34,-220.7 1092.07,-203.74 1084.5,-195 1070.02,-178.28 1092.22,-158.49 1111.94,-145.5"/>
<polygon fill="#63b8ff" stroke="#63b8ff" points="1114.05,-148.31 1120.69,-140.05 1110.35,-142.37 1114.05,-148.31"/>
</a>
</g>
</g>
<!-- Node5&#45;&gt;Node10 -->
<g id="edge14_Node000005_Node000010" class="edge">
<title>Node5&#45;&gt;Node10</title>
<g id="a_edge14_Node000005_Node000010"><a xlink:title=" ">
<path fill="none" stroke="#63b8ff" d="M1394.59,-230.87C1397.88,-218.25 1404.97,-194.29 1415.5,-176 1435.64,-141.04 1467.72,-106.31 1487.08,-86.85"/>
<polygon fill="#63b8ff" stroke="#63b8ff" points="1489.65,-89.24 1494.3,-79.72 1484.73,-84.26 1489.65,-89.24"/>
</a>
</g>
</g>
<!-- Node11 -->
<g id="Node000011" class="node">
<title>Node11</title>
<g id="a_Node000011"><a xlink:title=" ">
<polygon fill="#e0e0e0" stroke="#999999" points="1330,-79.5 1283,-79.5 1283,-60.5 1330,-60.5 1330,-79.5"/>
<text text-anchor="middle" x="1306.5" y="-67.5" font-family="Helvetica,sans-Serif" font-size="10.00">vector</text>
</a>
</g>
</g>
<!-- Node5&#45;&gt;Node11 -->
<g id="edge15_Node000005_Node000011" class="edge">
<title>Node5&#45;&gt;Node11</title>
<g id="a_edge15_Node000005_Node000011"><a xlink:title=" ">
<path fill="none" stroke="#63b8ff" d="M1388.12,-230.91C1374.72,-204.67 1334.12,-125.11 1315.73,-89.08"/>
<polygon fill="#63b8ff" stroke="#63b8ff" points="1318.64,-87.09 1310.98,-79.77 1312.41,-90.27 1318.64,-87.09"/>
</a>
</g>
</g>
<!-- Node12 -->
<g id="Node000012" class="node">
<title>Node12</title>
<g id="a_Node000012"><a xlink:title=" ">
<polygon fill="#e0e0e0" stroke="#999999" points="1530.5,-195 1424.5,-195 1424.5,-176 1530.5,-176 1530.5,-195"/>
<text text-anchor="middle" x="1477.5" y="-183" font-family="Helvetica,sans-Serif" font-size="10.00">SDL3/SDL_pixels.h</text>
</a>
</g>
</g>
<!-- Node5&#45;&gt;Node12 -->
<g id="edge12_Node000005_Node000012" class="edge">
<title>Node5&#45;&gt;Node12</title>
<g id="a_edge12_Node000005_Node000012"><a xlink:title=" ">
<path fill="none" stroke="#63b8ff" d="M1406.16,-230.98C1419.34,-222.77 1439.53,-210.18 1455.07,-200.49"/>
<polygon fill="#63b8ff" stroke="#63b8ff" points="1456.96,-203.43 1463.59,-195.17 1453.26,-197.49 1456.96,-203.43"/>
</a>
</g>
</g>
<!-- Node13 -->
<g id="Node000013" class="node">
<title>Node13</title>
<g id="a_Node000013"><a xlink:title=" ">
<polygon fill="#e0e0e0" stroke="#999999" points="1656.5,-195 1548.5,-195 1548.5,-176 1656.5,-176 1656.5,-195"/>
<text text-anchor="middle" x="1602.5" y="-183" font-family="Helvetica,sans-Serif" font-size="10.00">SDL3/SDL_render.h</text>
</a>
</g>
</g>
<!-- Node5&#45;&gt;Node13 -->
<g id="edge13_Node000005_Node000013" class="edge">
<title>Node5&#45;&gt;Node13</title>
<g id="a_edge13_Node000005_Node000013"><a xlink:title=" ">
<path fill="none" stroke="#63b8ff" d="M1426.24,-230.98C1462.18,-221.91 1519.22,-207.52 1558.63,-197.57"/>
<polygon fill="#63b8ff" stroke="#63b8ff" points="1559.66,-200.92 1568.5,-195.08 1557.94,-194.14 1559.66,-200.92"/>
</a>
</g>
</g>
<!-- Node6&#45;&gt;Node4 -->
<g id="edge10_Node000006_Node000004" class="edge">
<title>Node6&#45;&gt;Node4</title>
<g id="a_edge10_Node000006_Node000004"><a xlink:title=" ">
<path fill="none" stroke="#63b8ff" d="M1118.76,-120.99C1098.43,-111.25 1064.89,-95.16 1041.36,-83.88"/>
<polygon fill="#63b8ff" stroke="#63b8ff" points="1042.79,-80.68 1032.26,-79.52 1039.76,-87 1042.79,-80.68"/>
</a>
</g>
</g>
<!-- Node7 -->
<g id="Node000007" class="node">
<title>Node7</title>
<g id="a_Node000007"><a xlink:href="../../d9/d4a/Vector2_8hpp.html" target="_top" xlink:title=" ">
<polygon fill="white" stroke="#666666" points="1445.5,-79.5 1371.5,-79.5 1371.5,-60.5 1445.5,-60.5 1445.5,-79.5"/>
<text text-anchor="middle" x="1408.5" y="-67.5" font-family="Helvetica,sans-Serif" font-size="10.00">Vector2.hpp</text>
</a>
</g>
</g>
<!-- Node6&#45;&gt;Node7 -->
<g id="edge6_Node000006_Node000007" class="edge">
<title>Node6&#45;&gt;Node7</title>
<g id="a_edge6_Node000006_Node000007"><a xlink:title=" ">
<path fill="none" stroke="#63b8ff" d="M1176.05,-120.99C1225.09,-110.45 1308.59,-92.49 1361.03,-81.21"/>
<polygon fill="#63b8ff" stroke="#63b8ff" points="1362.05,-84.57 1371.09,-79.05 1360.58,-77.73 1362.05,-84.57"/>
</a>
</g>
</g>
<!-- Node8 -->
<g id="Node000008" class="node">
<title>Node8</title>
<g id="a_Node000008"><a xlink:href="../../d4/d71/ComponentNotFoundException_8hpp.html" target="_top" xlink:title=" ">
<polygon fill="white" stroke="#666666" points="1230.5,-85 1054.5,-85 1054.5,-55 1230.5,-55 1230.5,-85"/>
<text text-anchor="start" x="1062.5" y="-73" font-family="Helvetica,sans-Serif" font-size="10.00">exceptions/ComponentNotFound</text>
<text text-anchor="middle" x="1142.5" y="-62" font-family="Helvetica,sans-Serif" font-size="10.00">Exception.hpp</text>
</a>
</g>
</g>
<!-- Node6&#45;&gt;Node8 -->
<g id="edge7_Node000006_Node000008" class="edge">
<title>Node6&#45;&gt;Node8</title>
<g id="a_edge7_Node000006_Node000008"><a xlink:title=" ">
<path fill="none" stroke="#63b8ff" d="M1137.39,-120.87C1138.08,-114.11 1139.08,-104.35 1140.01,-95.26"/>
<polygon fill="#63b8ff" stroke="#63b8ff" points="1143.51,-95.42 1141.05,-85.11 1136.55,-94.71 1143.51,-95.42"/>
</a>
</g>
</g>
<!-- Node6&#45;&gt;Node10 -->
<g id="edge9_Node000006_Node000010" class="edge">
<title>Node6&#45;&gt;Node10</title>
<g id="a_edge9_Node000006_Node000010"><a xlink:title=" ">
<path fill="none" stroke="#63b8ff" d="M1185.75,-122.39C1189.05,-121.91 1192.32,-121.45 1195.5,-121 1310.57,-104.71 1340.79,-109.02 1454.5,-85 1458.38,-84.18 1462.41,-83.22 1466.41,-82.19"/>
<polygon fill="#63b8ff" stroke="#63b8ff" points="1467.46,-85.53 1476.2,-79.53 1465.63,-78.77 1467.46,-85.53"/>
</a>
</g>
</g>
<!-- Node6&#45;&gt;Node11 -->
<g id="edge11_Node000006_Node000011" class="edge">
<title>Node6&#45;&gt;Node11</title>
<g id="a_edge11_Node000006_Node000011"><a xlink:title=" ">
<path fill="none" stroke="#63b8ff" d="M1161.22,-120.99C1190.76,-110.83 1240.32,-93.77 1273.21,-82.45"/>
<polygon fill="#63b8ff" stroke="#63b8ff" points="1274.53,-85.7 1282.85,-79.14 1272.25,-79.08 1274.53,-85.7"/>
</a>
</g>
</g>
<!-- Node9 -->
<g id="Node000009" class="node">
<title>Node9</title>
<g id="a_Node000009"><a xlink:title=" ">
<polygon fill="#e0e0e0" stroke="#999999" points="1175,-19 1110,-19 1110,0 1175,0 1175,-19"/>
<text text-anchor="middle" x="1142.5" y="-7" font-family="Helvetica,sans-Serif" font-size="10.00">exception</text>
</a>
</g>
</g>
<!-- Node8&#45;&gt;Node9 -->
<g id="edge8_Node000008_Node000009" class="edge">
<title>Node8&#45;&gt;Node9</title>
<g id="a_edge8_Node000008_Node000009"><a xlink:title=" ">
<path fill="none" stroke="#63b8ff" d="M1142.5,-54.84C1142.5,-47.21 1142.5,-37.7 1142.5,-29.45"/>
<polygon fill="#63b8ff" stroke="#63b8ff" points="1146,-29.27 1142.5,-19.27 1139,-29.27 1146,-29.27"/>
</a>
</g>
</g>
<!-- Node15 -->
<g id="Node000015" class="node">
<title>Node15</title>
<g id="a_Node000015"><a xlink:href="../../d4/d8e/Behavior_8hpp.html" target="_top" xlink:title=" ">
<polygon fill="white" stroke="#666666" points="656.5,-250 576.5,-250 576.5,-231 656.5,-231 656.5,-250"/>
<text text-anchor="middle" x="616.5" y="-238" font-family="Helvetica,sans-Serif" font-size="10.00">Behavior.hpp</text>
</a>
</g>
</g>
<!-- Node14&#45;&gt;Node15 -->
<g id="edge18_Node000014_Node000015" class="edge">
<title>Node14&#45;&gt;Node15</title>
<g id="a_edge18_Node000014_Node000015"><a xlink:title=" ">
<path fill="none" stroke="#63b8ff" d="M702.43,-285.99C684.25,-276.58 660.43,-264.24 642.48,-254.95"/>
<polygon fill="#63b8ff" stroke="#63b8ff" points="643.68,-251.63 633.19,-250.14 640.46,-257.84 643.68,-251.63"/>
</a>
</g>
</g>
<!-- Node16 -->
<g id="Node000016" class="node">
<title>Node16</title>
<g id="a_Node000016"><a xlink:href="../../d2/d69/GameObjectComponent_8hpp.html" target="_top" xlink:title=" ">
<polygon fill="white" stroke="#666666" points="1257.5,-195 1093.5,-195 1093.5,-176 1257.5,-176 1257.5,-195"/>
<text text-anchor="middle" x="1175.5" y="-183" font-family="Helvetica,sans-Serif" font-size="10.00">../GameObjectComponent.hpp</text>
</a>
</g>
</g>
<!-- Node15&#45;&gt;Node16 -->
<g id="edge19_Node000015_Node000016" class="edge">
<title>Node15&#45;&gt;Node16</title>
<g id="a_edge19_Node000015_Node000016"><a xlink:title=" ">
<path fill="none" stroke="#63b8ff" d="M656.7,-235.69C745.33,-227.28 959.46,-206.98 1083.14,-195.26"/>
<polygon fill="#63b8ff" stroke="#63b8ff" points="1083.73,-198.72 1093.36,-194.29 1083.07,-191.75 1083.73,-198.72"/>
</a>
</g>
</g>
<!-- Node16&#45;&gt;Node6 -->
<g id="edge21_Node000016_Node000006" class="edge">
<title>Node16&#45;&gt;Node6</title>
<g id="a_edge21_Node000016_Node000006"><a xlink:title=" ">
<path fill="none" stroke="#63b8ff" d="M1169.06,-175.75C1163.61,-168.34 1155.64,-157.5 1148.94,-148.41"/>
<polygon fill="#63b8ff" stroke="#63b8ff" points="1151.57,-146.07 1142.82,-140.09 1145.93,-150.22 1151.57,-146.07"/>
</a>
</g>
</g>
<!-- Node17 -->
<g id="Node000017" class="node">
<title>Node17</title>
<g id="a_Node000017"><a xlink:title=" ">
<polygon fill="#e0e0e0" stroke="#999999" points="1257,-140 1204,-140 1204,-121 1257,-121 1257,-140"/>
<text text-anchor="middle" x="1230.5" y="-128" font-family="Helvetica,sans-Serif" font-size="10.00">cstddef</text>
</a>
</g>
</g>
<!-- Node16&#45;&gt;Node17 -->
<g id="edge20_Node000016_Node000017" class="edge">
<title>Node16&#45;&gt;Node17</title>
<g id="a_edge20_Node000016_Node000017"><a xlink:title=" ">
<path fill="none" stroke="#63b8ff" d="M1184.58,-175.75C1192.59,-168.03 1204.46,-156.6 1214.12,-147.28"/>
<polygon fill="#63b8ff" stroke="#63b8ff" points="1216.81,-149.55 1221.59,-140.09 1211.96,-144.51 1216.81,-149.55"/>
</a>
</g>
</g>
<!-- Node18&#45;&gt;Node15 -->
<g id="edge23_Node000018_Node000015" class="edge">
<title>Node18&#45;&gt;Node15</title>
<g id="a_edge23_Node000018_Node000015"><a xlink:title=" ">
<path fill="none" stroke="#63b8ff" d="M373.15,-285.99C432.95,-275.05 514.31,-260.18 566.13,-250.71"/>
<polygon fill="#63b8ff" stroke="#63b8ff" points="566.87,-254.13 576.08,-248.89 565.61,-247.24 566.87,-254.13"/>
</a>
</g>
</g>
<!-- Node19&#45;&gt;Node4 -->
<g id="edge31_Node000019_Node000004" class="edge">
<title>Node19&#45;&gt;Node4</title>
<g id="a_edge31_Node000019_Node000004"><a xlink:title=" ">
<path fill="none" stroke="#63b8ff" d="M1262.92,-287.26C1174.96,-272.78 1043.48,-250.99 1042.5,-250 999.59,-206.61 1005.64,-126.19 1011.08,-89.78"/>
<polygon fill="#63b8ff" stroke="#63b8ff" points="1014.58,-90.04 1012.77,-79.6 1007.68,-88.9 1014.58,-90.04"/>
</a>
</g>
</g>
<!-- Node20 -->
<g id="Node000020" class="node">
<title>Node20</title>
<g id="a_Node000020"><a xlink:href="../../dd/db8/Renderer_8hpp.html" target="_top" xlink:title=" ">
<polygon fill="white" stroke="#666666" points="1618,-250 1537,-250 1537,-231 1618,-231 1618,-250"/>
<text text-anchor="middle" x="1577.5" y="-238" font-family="Helvetica,sans-Serif" font-size="10.00">Renderer.hpp</text>
</a>
</g>
</g>
<!-- Node19&#45;&gt;Node20 -->
<g id="edge25_Node000019_Node000020" class="edge">
<title>Node19&#45;&gt;Node20</title>
<g id="a_edge25_Node000019_Node000020"><a xlink:title=" ">
<path fill="none" stroke="#63b8ff" d="M1397.27,-285.99C1438.88,-275.72 1494.58,-261.97 1532.99,-252.49"/>
<polygon fill="#63b8ff" stroke="#63b8ff" points="1533.98,-255.85 1542.85,-250.05 1532.3,-249.05 1533.98,-255.85"/>
</a>
</g>
</g>
<!-- Node21 -->
<g id="Node000021" class="node">
<title>Node21</title>
<g id="a_Node000021"><a xlink:title=" ">
<polygon fill="#e0e0e0" stroke="#999999" points="956.5,-250 884.5,-250 884.5,-231 956.5,-231 956.5,-250"/>
<text text-anchor="middle" x="920.5" y="-238" font-family="Helvetica,sans-Serif" font-size="10.00">SDL3/SDL.h</text>
</a>
</g>
</g>
<!-- Node19&#45;&gt;Node21 -->
<g id="edge28_Node000019_Node000021" class="edge">
<title>Node19&#45;&gt;Node21</title>
<g id="a_edge28_Node000019_Node000021"><a xlink:title=" ">
<path fill="none" stroke="#63b8ff" d="M1262.73,-287.38C1259.61,-286.91 1256.53,-286.45 1253.5,-286 1151.28,-270.95 1031.09,-255.42 966.73,-247.28"/>
<polygon fill="#63b8ff" stroke="#63b8ff" points="966.88,-243.77 956.52,-245.99 966,-250.72 966.88,-243.77"/>
</a>
</g>
</g>
<!-- Node22 -->
<g id="Node000022" class="node">
<title>Node22</title>
<g id="a_Node000022"><a xlink:title=" ">
<polygon fill="#e0e0e0" stroke="#999999" points="1164,-250 1051,-250 1051,-231 1164,-231 1164,-250"/>
<text text-anchor="middle" x="1107.5" y="-238" font-family="Helvetica,sans-Serif" font-size="10.00">SDL3/SDL_surface.h</text>
</a>
</g>
</g>
<!-- Node19&#45;&gt;Node22 -->
<g id="edge29_Node000019_Node000022" class="edge">
<title>Node19&#45;&gt;Node22</title>
<g id="a_edge29_Node000019_Node000022"><a xlink:title=" ">
<path fill="none" stroke="#63b8ff" d="M1284.69,-285.99C1243.96,-275.76 1189.49,-262.09 1151.75,-252.61"/>
<polygon fill="#63b8ff" stroke="#63b8ff" points="1152.12,-249.09 1141.57,-250.05 1150.41,-255.88 1152.12,-249.09"/>
</a>
</g>
</g>
<!-- Node23 -->
<g id="Node000023" class="node">
<title>Node23</title>
<g id="a_Node000023"><a xlink:title=" ">
<polygon fill="#e0e0e0" stroke="#999999" points="1286.5,-250 1182.5,-250 1182.5,-231 1286.5,-231 1286.5,-250"/>
<text text-anchor="middle" x="1234.5" y="-238" font-family="Helvetica,sans-Serif" font-size="10.00">SDL3_ttf/SDL_ttf.h</text>
</a>
</g>
</g>
<!-- Node19&#45;&gt;Node23 -->
<g id="edge30_Node000019_Node000023" class="edge">
<title>Node19&#45;&gt;Node23</title>
<g id="a_edge30_Node000019_Node000023"><a xlink:title=" ">
<path fill="none" stroke="#63b8ff" d="M1315.11,-285.99C1298.21,-276.66 1276.12,-264.47 1259.34,-255.21"/>
<polygon fill="#63b8ff" stroke="#63b8ff" points="1260.6,-251.91 1250.15,-250.14 1257.22,-258.04 1260.6,-251.91"/>
</a>
</g>
</g>
<!-- Node20&#45;&gt;Node13 -->
<g id="edge27_Node000020_Node000013" class="edge">
<title>Node20&#45;&gt;Node13</title>
<g id="a_edge27_Node000020_Node000013"><a xlink:title=" ">
<path fill="none" stroke="#63b8ff" d="M1581.63,-230.75C1585.01,-223.57 1589.92,-213.18 1594.12,-204.27"/>
<polygon fill="#63b8ff" stroke="#63b8ff" points="1597.35,-205.63 1598.45,-195.09 1591.02,-202.64 1597.35,-205.63"/>
</a>
</g>
</g>
<!-- Node20&#45;&gt;Node16 -->
<g id="edge26_Node000020_Node000016" class="edge">
<title>Node20&#45;&gt;Node16</title>
<g id="a_edge26_Node000020_Node000016"><a xlink:title=" ">
<path fill="none" stroke="#63b8ff" d="M1536.74,-234.13C1469.61,-225.28 1334.8,-207.5 1250.19,-196.35"/>
<polygon fill="#63b8ff" stroke="#63b8ff" points="1250.5,-192.86 1240.13,-195.02 1249.58,-199.8 1250.5,-192.86"/>
</a>
</g>
</g>
<!-- Node24&#45;&gt;Node7 -->
<g id="edge33_Node000024_Node000007" class="edge">
<title>Node24&#45;&gt;Node7</title>
<g id="a_edge33_Node000024_Node000007"><a xlink:title=" ">
<path fill="none" stroke="#63b8ff" d="M1636.67,-285.89C1656.02,-261.67 1689.27,-211.39 1665.5,-176 1640.64,-138.99 1517.49,-100.64 1451.1,-82.21"/>
<polygon fill="#63b8ff" stroke="#63b8ff" points="1451.91,-78.8 1441.35,-79.53 1450.06,-85.55 1451.91,-78.8"/>
</a>
</g>
</g>
<!-- Node24&#45;&gt;Node10 -->
<g id="edge38_Node000024_Node000010" class="edge">
<title>Node24&#45;&gt;Node10</title>
<g id="a_edge38_Node000024_Node000010"><a xlink:title=" ">
<path fill="none" stroke="#63b8ff" d="M1658.73,-285.95C1673.8,-277.84 1689.99,-266.02 1698.5,-250 1713.93,-220.95 1715.36,-204.24 1698.5,-176 1664.79,-119.57 1589.14,-91.68 1542.6,-79.38"/>
<polygon fill="#63b8ff" stroke="#63b8ff" points="1543.41,-75.97 1532.86,-76.92 1541.69,-82.76 1543.41,-75.97"/>
</a>
</g>
</g>
<!-- Node24&#45;&gt;Node12 -->
<g id="edge35_Node000024_Node000012" class="edge">
<title>Node24&#45;&gt;Node12</title>
<g id="a_edge35_Node000024_Node000012"><a xlink:title=" ">
<path fill="none" stroke="#63b8ff" d="M1589.08,-285.83C1569.97,-277.17 1546.66,-264.9 1528.5,-250 1512.34,-236.74 1497.83,-217.61 1488.46,-203.82"/>
<polygon fill="#63b8ff" stroke="#63b8ff" points="1491.25,-201.69 1482.83,-195.26 1485.4,-205.54 1491.25,-201.69"/>
</a>
</g>
</g>
<!-- Node24&#45;&gt;Node13 -->
<g id="edge37_Node000024_Node000013" class="edge">
<title>Node24&#45;&gt;Node13</title>
<g id="a_edge37_Node000024_Node000013"><a xlink:title=" ">
<path fill="none" stroke="#63b8ff" d="M1627.5,-286C1629.97,-271.87 1632.36,-249.56 1627.5,-231 1624.95,-221.26 1619.75,-211.41 1614.74,-203.46"/>
<polygon fill="#63b8ff" stroke="#63b8ff" points="1617.61,-201.46 1609.13,-195.12 1611.81,-205.37 1617.61,-201.46"/>
</a>
</g>
</g>
<!-- Node24&#45;&gt;Node20 -->
<g id="edge34_Node000024_Node000020" class="edge">
<title>Node24&#45;&gt;Node20</title>
<g id="a_edge34_Node000024_Node000020"><a xlink:title=" ">
<path fill="none" stroke="#63b8ff" d="M1613.12,-285.84C1606.44,-277.52 1597.95,-266.96 1590.94,-258.23"/>
<polygon fill="#63b8ff" stroke="#63b8ff" points="1593.53,-255.87 1584.54,-250.27 1588.08,-260.25 1593.53,-255.87"/>
</a>
</g>
</g>
<!-- Node25 -->
<g id="Node000025" class="node">
<title>Node25</title>
<g id="a_Node000025"><a xlink:title=" ">
<polygon fill="#e0e0e0" stroke="#999999" points="1846.5,-250 1750.5,-250 1750.5,-231 1846.5,-231 1846.5,-250"/>
<text text-anchor="middle" x="1798.5" y="-238" font-family="Helvetica,sans-Serif" font-size="10.00">SDL3/SDL_rect.h</text>
</a>
</g>
</g>
<!-- Node24&#45;&gt;Node25 -->
<g id="edge36_Node000024_Node000025" class="edge">
<title>Node24&#45;&gt;Node25</title>
<g id="a_edge36_Node000024_Node000025"><a xlink:title=" ">
<path fill="none" stroke="#63b8ff" d="M1666.18,-285.99C1695.82,-276.02 1735.19,-262.78 1763.27,-253.35"/>
<polygon fill="#63b8ff" stroke="#63b8ff" points="1764.7,-256.56 1773.06,-250.05 1762.46,-249.92 1764.7,-256.56"/>
</a>
</g>
</g>
<!-- Node26&#45;&gt;Node10 -->
<g id="edge43_Node000026_Node000010" class="edge">
<title>Node26&#45;&gt;Node10</title>
<g id="a_edge43_Node000026_Node000010"><a xlink:title=" ">
<path fill="none" stroke="#63b8ff" d="M1841.96,-285.91C1861.24,-272.44 1883.56,-251.25 1871.5,-231 1801.48,-113.42 1622.25,-82.08 1542.63,-73.86"/>
<polygon fill="#63b8ff" stroke="#63b8ff" points="1542.82,-70.36 1532.53,-72.89 1542.15,-77.33 1542.82,-70.36"/>
</a>
</g>
</g>
<!-- Node26&#45;&gt;Node13 -->
<g id="edge42_Node000026_Node000013" class="edge">
<title>Node26&#45;&gt;Node13</title>
<g id="a_edge42_Node000026_Node000013"><a xlink:title=" ">
<path fill="none" stroke="#63b8ff" d="M1835.53,-285.74C1851.08,-271.02 1869.66,-247.87 1855.5,-231 1831.84,-202.81 1733.55,-192.48 1666.68,-188.69"/>
<polygon fill="#63b8ff" stroke="#63b8ff" points="1666.81,-185.19 1656.64,-188.15 1666.44,-192.18 1666.81,-185.19"/>
</a>
</g>
</g>
<!-- Node26&#45;&gt;Node20 -->
<g id="edge40_Node000026_Node000020" class="edge">
<title>Node26&#45;&gt;Node20</title>
<g id="a_edge40_Node000026_Node000020"><a xlink:title=" ">
<path fill="none" stroke="#63b8ff" d="M1760.77,-285.99C1718.46,-275.72 1661.82,-261.97 1622.77,-252.49"/>
<polygon fill="#63b8ff" stroke="#63b8ff" points="1623.28,-249.01 1612.74,-250.05 1621.63,-255.81 1623.28,-249.01"/>
</a>
</g>
</g>
<!-- Node26&#45;&gt;Node25 -->
<g id="edge41_Node000026_Node000025" class="edge">
<title>Node26&#45;&gt;Node25</title>
<g id="a_edge41_Node000026_Node000025"><a xlink:title=" ">
<path fill="none" stroke="#63b8ff" d="M1813.66,-285.84C1810.99,-278.04 1807.65,-268.27 1804.79,-259.89"/>
<polygon fill="#63b8ff" stroke="#63b8ff" points="1808.04,-258.6 1801.5,-250.27 1801.42,-260.86 1808.04,-258.6"/>
</a>
</g>
</g>
<!-- Node27&#45;&gt;Node15 -->
<g id="edge45_Node000027_Node000015" class="edge">
<title>Node27&#45;&gt;Node15</title>
<g id="a_edge45_Node000027_Node000015"><a xlink:title=" ">
<path fill="none" stroke="#63b8ff" d="M511.55,-285.99C534.48,-276.27 564.74,-263.44 586.88,-254.06"/>
<polygon fill="#63b8ff" stroke="#63b8ff" points="588.28,-257.26 596.12,-250.14 585.55,-250.82 588.28,-257.26"/>
</a>
</g>
</g>
<!-- Node28&#45;&gt;Node15 -->
<g id="edge47_Node000028_Node000015" class="edge">
<title>Node28&#45;&gt;Node15</title>
<g id="a_edge47_Node000028_Node000015"><a xlink:title=" ">
<path fill="none" stroke="#63b8ff" d="M501.11,-351.93C519.54,-343.24 542.1,-330.89 559.5,-316 578.95,-299.36 596,-275.07 606.27,-258.8"/>
<polygon fill="#63b8ff" stroke="#63b8ff" points="609.26,-260.62 611.5,-250.26 603.29,-256.96 609.26,-260.62"/>
</a>
</g>
</g>
<!-- Node30 -->
<g id="Node000030" class="node">
<title>Node30</title>
<g id="a_Node000030"><a xlink:href="../../de/dfb/KeyboardHandlerBehavior_8hpp.html" target="_top" xlink:title=" ">
<polygon fill="white" stroke="#666666" points="1050.5,-316 832.5,-316 832.5,-286 1050.5,-286 1050.5,-316"/>
<text text-anchor="start" x="840.5" y="-304" font-family="Helvetica,sans-Serif" font-size="10.00">../../../engine/components</text>
<text text-anchor="middle" x="941.5" y="-293" font-family="Helvetica,sans-Serif" font-size="10.00">/behaviors/KeyboardHandlerBehavior.hpp</text>
</a>
</g>
</g>
<!-- Node29&#45;&gt;Node30 -->
<g id="edge49_Node000029_Node000030" class="edge">
<title>Node29&#45;&gt;Node30</title>
<g id="a_edge49_Node000029_Node000030"><a xlink:title=" ">
<path fill="none" stroke="#63b8ff" d="M919.71,-351.8C923.09,-344.09 927.34,-334.37 931.19,-325.56"/>
<polygon fill="#63b8ff" stroke="#63b8ff" points="934.5,-326.73 935.3,-316.16 928.09,-323.92 934.5,-326.73"/>
</a>
</g>
</g>
<!-- Node30&#45;&gt;Node15 -->
<g id="edge50_Node000030_Node000015" class="edge">
<title>Node30&#45;&gt;Node15</title>
<g id="a_edge50_Node000030_Node000015"><a xlink:title=" ">
<path fill="none" stroke="#63b8ff" d="M863.65,-285.99C802.56,-274.99 719.33,-260.01 666.75,-250.54"/>
<polygon fill="#63b8ff" stroke="#63b8ff" points="667.12,-247.06 656.66,-248.73 665.88,-253.94 667.12,-247.06"/>
</a>
</g>
</g>
<!-- Node30&#45;&gt;Node21 -->
<g id="edge51_Node000030_Node000021" class="edge">
<title>Node30&#45;&gt;Node21</title>
<g id="a_edge51_Node000030_Node000021"><a xlink:title=" ">
<path fill="none" stroke="#63b8ff" d="M936.42,-285.84C933.62,-278.04 930.11,-268.27 927.1,-259.89"/>
<polygon fill="#63b8ff" stroke="#63b8ff" points="930.32,-258.5 923.65,-250.27 923.73,-260.86 930.32,-258.5"/>
</a>
</g>
</g>
<!-- Node31&#45;&gt;Node15 -->
<g id="edge53_Node000031_Node000015" class="edge">
<title>Node31&#45;&gt;Node15</title>
<g id="a_edge53_Node000031_Node000015"><a xlink:title=" ">
<path fill="none" stroke="#63b8ff" d="M656.27,-357.43C650.5,-347.69 641.29,-331.17 635.5,-316 628.52,-297.72 623.3,-275.94 620.12,-260.66"/>
<polygon fill="#63b8ff" stroke="#63b8ff" points="623.47,-259.55 618.09,-250.42 616.6,-260.91 623.47,-259.55"/>
</a>
</g>
</g>
<!-- Node33 -->
<g id="Node000033" class="node">
<title>Node33</title>
<g id="a_Node000033"><a xlink:href="../../dc/d19/CollisionBehavior_8hpp.html" target="_top" xlink:title=" ">
<polygon fill="white" stroke="#666666" points="1244.5,-316 1068.5,-316 1068.5,-286 1244.5,-286 1244.5,-316"/>
<text text-anchor="start" x="1076.5" y="-304" font-family="Helvetica,sans-Serif" font-size="10.00">../../../engine/components</text>
<text text-anchor="middle" x="1156.5" y="-293" font-family="Helvetica,sans-Serif" font-size="10.00">/behaviors/CollisionBehavior.hpp</text>
</a>
</g>
</g>
<!-- Node32&#45;&gt;Node33 -->
<g id="edge55_Node000032_Node000033" class="edge">
<title>Node32&#45;&gt;Node33</title>
<g id="a_edge55_Node000032_Node000033"><a xlink:title=" ">
<path fill="none" stroke="#63b8ff" d="M1278.27,-351.95C1255.3,-342.53 1224.86,-330.04 1200.16,-319.91"/>
<polygon fill="#63b8ff" stroke="#63b8ff" points="1201.24,-316.57 1190.66,-316.01 1198.58,-323.05 1201.24,-316.57"/>
</a>
</g>
</g>
<!-- Node33&#45;&gt;Node10 -->
<g id="edge57_Node000033_Node000010" class="edge">
<title>Node33&#45;&gt;Node10</title>
<g id="a_edge57_Node000033_Node000010"><a xlink:title=" ">
<path fill="none" stroke="#63b8ff" d="M1095.74,-285.89C1058.34,-274.37 1021.27,-255.92 1042.5,-231 1075.2,-192.63 1218.65,-210.89 1266.5,-195 1351.13,-166.89 1442.16,-111.17 1482.36,-85.09"/>
<polygon fill="#63b8ff" stroke="#63b8ff" points="1484.35,-87.97 1490.8,-79.56 1480.52,-82.11 1484.35,-87.97"/>
</a>
</g>
</g>
<!-- Node33&#45;&gt;Node15 -->
<g id="edge56_Node000033_Node000015" class="edge">
<title>Node33&#45;&gt;Node15</title>
<g id="a_edge56_Node000033_Node000015"><a xlink:title=" ">
<path fill="none" stroke="#63b8ff" d="M1068.49,-287.13C1065.46,-286.74 1062.46,-286.36 1059.5,-286 917.31,-268.61 748.83,-253.07 666.64,-245.83"/>
<polygon fill="#63b8ff" stroke="#63b8ff" points="666.84,-242.33 656.58,-244.94 666.23,-249.3 666.84,-242.33"/>
</a>
</g>
</g>
<!-- Node34&#45;&gt;Node30 -->
<g id="edge59_Node000034_Node000030" class="edge">
<title>Node34&#45;&gt;Node30</title>
<g id="a_edge59_Node000034_Node000030"><a xlink:title=" ">
<path fill="none" stroke="#63b8ff" d="M1079.66,-351.95C1053.26,-342.41 1018.14,-329.71 989.92,-319.51"/>
<polygon fill="#63b8ff" stroke="#63b8ff" points="990.85,-316.12 980.25,-316.01 988.47,-322.7 990.85,-316.12"/>
</a>
</g>
</g>
<!-- Node35&#45;&gt;Node15 -->
<g id="edge61_Node000035_Node000015" class="edge">
<title>Node35&#45;&gt;Node15</title>
<g id="a_edge61_Node000035_Node000015"><a xlink:title=" ">
<path fill="none" stroke="#63b8ff" d="M209.51,-351.84C196.21,-334.37 178.7,-304.67 195.5,-286 219.91,-258.87 459.91,-247.05 566.23,-243.12"/>
<polygon fill="#63b8ff" stroke="#63b8ff" points="566.53,-246.61 576.4,-242.75 566.28,-239.61 566.53,-246.61"/>
</a>
</g>
</g>
</g>
</svg>
