<?xml version="1.0" encoding="UTF-8" standalone="no"?>
<!DOCTYPE svg PUBLIC "-//W3C//DTD SVG 1.1//EN"
 "http://www.w3.org/Graphics/SVG/1.1/DTD/svg11.dtd">
<!-- Generated by graphviz version 2.43.0 (0)
 -->
<!-- Title: game/Init.cpp Pages: 1 -->
<svg width="2072pt" height="445pt"
 viewBox="0.00 0.00 2071.50 445.00" xmlns="http://www.w3.org/2000/svg" xmlns:xlink="http://www.w3.org/1999/xlink">
<g id="graph0" class="graph" transform="scale(1 1) rotate(0) translate(4 441)">
<title>game/Init.cpp</title>
<!-- Node1 -->
<g id="Node000001" class="node">
<title>Node1</title>
<g id="a_Node000001"><a xlink:title=" ">
<polygon fill="#999999" stroke="#666666" points="913,-437 830,-437 830,-418 913,-418 913,-437"/>
<text text-anchor="middle" x="871.5" y="-425" font-family="Helvetica,sans-Serif" font-size="10.00">game/Init.cpp</text>
</a>
</g>
</g>
<!-- Node2 -->
<g id="Node000002" class="node">
<title>Node2</title>
<g id="a_Node000002"><a xlink:href="../../d3/de1/Init_8hpp.html" target="_top" xlink:title=" ">
<polygon fill="white" stroke="#666666" points="53,-376.5 0,-376.5 0,-357.5 53,-357.5 53,-376.5"/>
<text text-anchor="middle" x="26.5" y="-364.5" font-family="Helvetica,sans-Serif" font-size="10.00">Init.hpp</text>
</a>
</g>
</g>
<!-- Node1&#45;&gt;Node2 -->
<g id="edge1_Node000001_Node000002" class="edge">
<title>Node1&#45;&gt;Node2</title>
<g id="a_edge1_Node000001_Node000002"><a xlink:title=" ">
<path fill="none" stroke="#63b8ff" d="M829.6,-425.69C686.19,-422.69 215.7,-410.84 67.5,-382 64.25,-381.37 60.91,-380.54 57.6,-379.6"/>
<polygon fill="#63b8ff" stroke="#63b8ff" points="58.49,-376.21 47.9,-376.54 56.39,-382.89 58.49,-376.21"/>
</a>
</g>
</g>
<!-- Node3 -->
<g id="Node000003" class="node">
<title>Node3</title>
<g id="a_Node000003"><a xlink:href="../../d6/d76/AssetLoading_8hpp.html" target="_top" xlink:title=" ">
<polygon fill="white" stroke="#666666" points="630.5,-140 482.5,-140 482.5,-121 630.5,-121 630.5,-140"/>
<text text-anchor="middle" x="556.5" y="-128" font-family="Helvetica,sans-Serif" font-size="10.00">../engine/AssetLoading.hpp</text>
</a>
</g>
</g>
<!-- Node1&#45;&gt;Node3 -->
<g id="edge2_Node000001_Node000003" class="edge">
<title>Node1&#45;&gt;Node3</title>
<g id="a_edge2_Node000001_Node000003"><a xlink:title=" ">
<path fill="none" stroke="#63b8ff" d="M829.9,-426.82C678.47,-427.63 162.5,-427.03 105.5,-382 76.37,-358.99 81.5,-339.12 81.5,-302 81.5,-302 81.5,-302 81.5,-239.5 81.5,-209.33 81.55,-194.35 105.5,-176 133.9,-154.24 349.61,-140.94 472.13,-135.06"/>
<polygon fill="#63b8ff" stroke="#63b8ff" points="472.41,-138.55 482.23,-134.58 472.08,-131.56 472.41,-138.55"/>
</a>
</g>
</g>
<!-- Node5 -->
<g id="Node000005" class="node">
<title>Node5</title>
<g id="a_Node000005"><a xlink:href="../../d7/dd0/GameManagement_8hpp.html" target="_top" xlink:title=" ">
<polygon fill="white" stroke="#666666" points="1592.5,-250 1416.5,-250 1416.5,-231 1592.5,-231 1592.5,-250"/>
<text text-anchor="middle" x="1504.5" y="-238" font-family="Helvetica,sans-Serif" font-size="10.00">../engine/GameManagement.hpp</text>
</a>
</g>
</g>
<!-- Node1&#45;&gt;Node5 -->
<g id="edge4_Node000001_Node000005" class="edge">
<title>Node1&#45;&gt;Node5</title>
<g id="a_edge4_Node000001_Node000005"><a xlink:title=" ">
<path fill="none" stroke="#63b8ff" d="M913.24,-425.51C1064.3,-421.72 1574.89,-407.1 1598.5,-382 1637.03,-341.03 1565.2,-282.67 1526.65,-255.91"/>
<polygon fill="#63b8ff" stroke="#63b8ff" points="1528.33,-252.82 1518.09,-250.11 1524.4,-258.62 1528.33,-252.82"/>
</a>
</g>
</g>
<!-- Node6 -->
<g id="Node000006" class="node">
<title>Node6</title>
<g id="a_Node000006"><a xlink:href="../../d4/db5/GameObject_8hpp.html" target="_top" xlink:title=" ">
<polygon fill="white" stroke="#666666" points="1297.5,-140 1199.5,-140 1199.5,-121 1297.5,-121 1297.5,-140"/>
<text text-anchor="middle" x="1248.5" y="-128" font-family="Helvetica,sans-Serif" font-size="10.00">GameObject.hpp</text>
</a>
</g>
</g>
<!-- Node1&#45;&gt;Node6 -->
<g id="edge16_Node000001_Node000006" class="edge">
<title>Node1&#45;&gt;Node6</title>
<g id="a_edge16_Node000001_Node000006"><a xlink:title=" ">
<path fill="none" stroke="#63b8ff" d="M829.67,-426.59C705.45,-426.39 340.42,-422.28 229.5,-382 172.68,-361.37 119.5,-362.45 119.5,-302 119.5,-302 119.5,-302 119.5,-239.5 119.5,-131.03 956.05,-129.27 1188.96,-130.89"/>
<polygon fill="#63b8ff" stroke="#63b8ff" points="1189.24,-134.39 1199.26,-130.97 1189.29,-127.39 1189.24,-134.39"/>
</a>
</g>
</g>
<!-- Node10 -->
<g id="Node000010" class="node">
<title>Node10</title>
<g id="a_Node000010"><a xlink:title=" ">
<polygon fill="#e0e0e0" stroke="#999999" points="1584.5,-79.5 1526.5,-79.5 1526.5,-60.5 1584.5,-60.5 1584.5,-79.5"/>
<text text-anchor="middle" x="1555.5" y="-67.5" font-family="Helvetica,sans-Serif" font-size="10.00">memory</text>
</a>
</g>
</g>
<!-- Node1&#45;&gt;Node10 -->
<g id="edge64_Node000001_Node000010" class="edge">
<title>Node1&#45;&gt;Node10</title>
<g id="a_edge64_Node000001_Node000010"><a xlink:title=" ">
<path fill="none" stroke="#63b8ff" d="M913.22,-426.61C1124.2,-426.66 2063.5,-420.21 2063.5,-302 2063.5,-302 2063.5,-302 2063.5,-184.5 2063.5,-88.55 1714,-73.69 1594.79,-71.41"/>
<polygon fill="#63b8ff" stroke="#63b8ff" points="1594.7,-67.9 1584.64,-71.23 1594.58,-74.9 1594.7,-67.9"/>
</a>
</g>
</g>
<!-- Node14 -->
<g id="Node000014" class="node">
<title>Node14</title>
<g id="a_Node000014"><a xlink:href="../../d5/d6d/GravityBehavior_8hpp.html" target="_top" xlink:title=" ">
<polygon fill="white" stroke="#666666" points="317.5,-316 147.5,-316 147.5,-286 317.5,-286 317.5,-316"/>
<text text-anchor="start" x="155.5" y="-304" font-family="Helvetica,sans-Serif" font-size="10.00">../engine/components</text>
<text text-anchor="middle" x="232.5" y="-293" font-family="Helvetica,sans-Serif" font-size="10.00">/behaviors/GravityBehavior.hpp</text>
</a>
</g>
</g>
<!-- Node1&#45;&gt;Node14 -->
<g id="edge17_Node000001_Node000014" class="edge">
<title>Node1&#45;&gt;Node14</title>
<g id="a_edge17_Node000001_Node000014"><a xlink:title=" ">
<path fill="none" stroke="#63b8ff" d="M829.92,-426.34C697.89,-425.46 294.28,-419.67 250.5,-382 234.79,-368.48 231.13,-344.46 230.89,-326.26"/>
<polygon fill="#63b8ff" stroke="#63b8ff" points="234.39,-326.15 231.09,-316.08 227.39,-326.01 234.39,-326.15"/>
</a>
</g>
</g>
<!-- Node18 -->
<g id="Node000018" class="node">
<title>Node18</title>
<g id="a_Node000018"><a xlink:href="../../dc/da8/KinematicBehavior_8hpp.html" target="_top" xlink:title=" ">
<polygon fill="white" stroke="#666666" points="519.5,-316 335.5,-316 335.5,-286 519.5,-286 519.5,-316"/>
<text text-anchor="start" x="343.5" y="-304" font-family="Helvetica,sans-Serif" font-size="10.00">../engine/components</text>
<text text-anchor="middle" x="427.5" y="-293" font-family="Helvetica,sans-Serif" font-size="10.00">/behaviors/KinematicBehavior.hpp</text>
</a>
</g>
</g>
<!-- Node1&#45;&gt;Node18 -->
<g id="edge22_Node000001_Node000018" class="edge">
<title>Node1&#45;&gt;Node18</title>
<g id="a_edge22_Node000001_Node000018"><a xlink:title=" ">
<path fill="none" stroke="#63b8ff" d="M829.97,-426.65C699.15,-426.69 301.96,-423.38 263.5,-382 234.88,-351.21 280,-330.84 330.09,-318.37"/>
<polygon fill="#63b8ff" stroke="#63b8ff" points="330.91,-321.77 339.82,-316.06 329.29,-314.96 330.91,-321.77"/>
</a>
</g>
</g>
<!-- Node19 -->
<g id="Node000019" class="node">
<title>Node19</title>
<g id="a_Node000019"><a xlink:href="../../d7/dc4/FontRenderer_8hpp.html" target="_top" xlink:title=" ">
<polygon fill="white" stroke="#666666" points="1485,-316 1330,-316 1330,-286 1485,-286 1485,-316"/>
<text text-anchor="start" x="1338" y="-304" font-family="Helvetica,sans-Serif" font-size="10.00">../engine/components</text>
<text text-anchor="middle" x="1407.5" y="-293" font-family="Helvetica,sans-Serif" font-size="10.00">/renderers/FontRenderer.hpp</text>
</a>
</g>
</g>
<!-- Node1&#45;&gt;Node19 -->
<g id="edge24_Node000001_Node000019" class="edge">
<title>Node1&#45;&gt;Node19</title>
<g id="a_edge24_Node000001_Node000019"><a xlink:title=" ">
<path fill="none" stroke="#63b8ff" d="M913.23,-425.44C1061.81,-421.47 1557.54,-406.44 1580.5,-382 1613.37,-347 1553.4,-325.97 1495.27,-314.33"/>
<polygon fill="#63b8ff" stroke="#63b8ff" points="1495.7,-310.85 1485.22,-312.4 1494.38,-317.72 1495.7,-310.85"/>
</a>
</g>
</g>
<!-- Node24 -->
<g id="Node000024" class="node">
<title>Node24</title>
<g id="a_Node000024"><a xlink:href="../../dc/daa/RectangleRenderer_8hpp.html" target="_top" xlink:title=" ">
<polygon fill="white" stroke="#666666" points="1847.5,-316 1665.5,-316 1665.5,-286 1847.5,-286 1847.5,-316"/>
<text text-anchor="start" x="1673.5" y="-304" font-family="Helvetica,sans-Serif" font-size="10.00">../engine/components</text>
<text text-anchor="middle" x="1756.5" y="-293" font-family="Helvetica,sans-Serif" font-size="10.00">/renderers/RectangleRenderer.hpp</text>
</a>
</g>
</g>
<!-- Node1&#45;&gt;Node24 -->
<g id="edge32_Node000001_Node000024" class="edge">
<title>Node1&#45;&gt;Node24</title>
<g id="a_edge32_Node000001_Node000024"><a xlink:title=" ">
<path fill="none" stroke="#63b8ff" d="M913.11,-425.55C1064.7,-421.89 1582.12,-407.64 1651.5,-382 1685.09,-369.59 1716.79,-342.52 1736.4,-323.32"/>
<polygon fill="#63b8ff" stroke="#63b8ff" points="1738.97,-325.69 1743.54,-316.14 1734.01,-320.76 1738.97,-325.69"/>
</a>
</g>
</g>
<!-- Node26 -->
<g id="Node000026" class="node">
<title>Node26</title>
<g id="a_Node000026"><a xlink:href="../../d6/d02/TextureRenderer_8hpp.html" target="_top" xlink:title=" ">
<polygon fill="white" stroke="#666666" points="2035.5,-316 1865.5,-316 1865.5,-286 2035.5,-286 2035.5,-316"/>
<text text-anchor="start" x="1873.5" y="-304" font-family="Helvetica,sans-Serif" font-size="10.00">../engine/components</text>
<text text-anchor="middle" x="1950.5" y="-293" font-family="Helvetica,sans-Serif" font-size="10.00">/renderers/TextureRenderer.hpp</text>
</a>
</g>
</g>
<!-- Node1&#45;&gt;Node26 -->
<g id="edge39_Node000001_Node000026" class="edge">
<title>Node1&#45;&gt;Node26</title>
<g id="a_edge39_Node000001_Node000026"><a xlink:title=" ">
<path fill="none" stroke="#63b8ff" d="M913.09,-425.57C1057.68,-422.14 1537.92,-408.94 1689.5,-382 1766.87,-368.25 1853.51,-338.75 1904.95,-319.67"/>
<polygon fill="#63b8ff" stroke="#63b8ff" points="1906.31,-322.9 1914.45,-316.12 1903.86,-316.34 1906.31,-322.9"/>
</a>
</g>
</g>
<!-- Node27 -->
<g id="Node000027" class="node">
<title>Node27</title>
<g id="a_Node000027"><a xlink:href="../../d4/d09/CoffeeMeterBehavior_8hpp.html" target="_top" xlink:title=" ">
<polygon fill="white" stroke="#666666" points="755,-382 612,-382 612,-352 755,-352 755,-382"/>
<text text-anchor="start" x="620" y="-370" font-family="Helvetica,sans-Serif" font-size="10.00">behaviors/coffeeMeter</text>
<text text-anchor="middle" x="683.5" y="-359" font-family="Helvetica,sans-Serif" font-size="10.00">/CoffeeMeterBehavior.hpp</text>
</a>
</g>
</g>
<!-- Node1&#45;&gt;Node27 -->
<g id="edge44_Node000001_Node000027" class="edge">
<title>Node1&#45;&gt;Node27</title>
<g id="a_edge44_Node000001_Node000027"><a xlink:title=" ">
<path fill="none" stroke="#63b8ff" d="M844.16,-417.99C816.52,-409.39 773.02,-395.86 738.25,-385.04"/>
<polygon fill="#63b8ff" stroke="#63b8ff" points="739.29,-381.69 728.7,-382.06 737.21,-388.38 739.29,-381.69"/>
</a>
</g>
</g>
<!-- Node28 -->
<g id="Node000028" class="node">
<title>Node28</title>
<g id="a_Node000028"><a xlink:href="../../d2/d74/GameManagerBehavior_8hpp.html" target="_top" xlink:title=" ">
<polygon fill="white" stroke="#666666" points="427,-382 272,-382 272,-352 427,-352 427,-382"/>
<text text-anchor="start" x="280" y="-370" font-family="Helvetica,sans-Serif" font-size="10.00">behaviors/gameManager</text>
<text text-anchor="middle" x="349.5" y="-359" font-family="Helvetica,sans-Serif" font-size="10.00">/GameManagerBehavior.hpp</text>
</a>
</g>
</g>
<!-- Node1&#45;&gt;Node28 -->
<g id="edge46_Node000001_Node000028" class="edge">
<title>Node1&#45;&gt;Node28</title>
<g id="a_edge46_Node000001_Node000028"><a xlink:title=" ">
<path fill="none" stroke="#63b8ff" d="M829.72,-423.03C753.84,-416.56 588.11,-401.62 437.6,-382.09"/>
<polygon fill="#63b8ff" stroke="#63b8ff" points="437.63,-378.57 427.26,-380.74 436.72,-385.51 437.63,-378.57"/>
</a>
</g>
</g>
<!-- Node30 -->
<g id="Node000030" class="node">
<title>Node30</title>
<g id="a_Node000030"><a xlink:href="../../da/d20/GameManagerKeyboardHandler_8hpp.html" target="_top" xlink:title=" ">
<polygon fill="white" stroke="#666666" points="1183.5,-382 987.5,-382 987.5,-352 1183.5,-352 1183.5,-382"/>
<text text-anchor="start" x="995.5" y="-370" font-family="Helvetica,sans-Serif" font-size="10.00">behaviors/gameManager</text>
<text text-anchor="middle" x="1085.5" y="-359" font-family="Helvetica,sans-Serif" font-size="10.00">/GameManagerKeyboardHandler.hpp</text>
</a>
</g>
</g>
<!-- Node1&#45;&gt;Node30 -->
<g id="edge49_Node000001_Node000030" class="edge">
<title>Node1&#45;&gt;Node30</title>
<g id="a_edge49_Node000001_Node000030"><a xlink:title=" ">
<path fill="none" stroke="#63b8ff" d="M902.62,-417.99C934.36,-409.32 984.45,-395.62 1024.19,-384.76"/>
<polygon fill="#63b8ff" stroke="#63b8ff" points="1025.33,-388.08 1034.05,-382.06 1023.48,-381.33 1025.33,-388.08"/>
</a>
</g>
</g>
<!-- Node32 -->
<g id="Node000032" class="node">
<title>Node32</title>
<g id="a_Node000032"><a xlink:href="../../dd/da3/PlayerBehavior_8hpp.html" target="_top" xlink:title=" ">
<polygon fill="white" stroke="#666666" points="969.5,-376.5 773.5,-376.5 773.5,-357.5 969.5,-357.5 969.5,-376.5"/>
<text text-anchor="middle" x="871.5" y="-364.5" font-family="Helvetica,sans-Serif" font-size="10.00">behaviors/player/PlayerBehavior.hpp</text>
</a>
</g>
</g>
<!-- Node1&#45;&gt;Node32 -->
<g id="edge53_Node000001_Node000032" class="edge">
<title>Node1&#45;&gt;Node32</title>
<g id="a_edge53_Node000001_Node000032"><a xlink:title=" ">
<path fill="none" stroke="#63b8ff" d="M871.5,-417.87C871.5,-409.75 871.5,-397.31 871.5,-386.89"/>
<polygon fill="#63b8ff" stroke="#63b8ff" points="875,-386.67 871.5,-376.67 868,-386.67 875,-386.67"/>
</a>
</g>
</g>
<!-- Node33 -->
<g id="Node000033" class="node">
<title>Node33</title>
<g id="a_Node000033"><a xlink:href="../../db/d9e/PlayerCollisionBehavior_8hpp.html" target="_top" xlink:title=" ">
<polygon fill="white" stroke="#666666" points="1571.5,-382 1397.5,-382 1397.5,-352 1571.5,-352 1571.5,-382"/>
<text text-anchor="start" x="1405.5" y="-370" font-family="Helvetica,sans-Serif" font-size="10.00">behaviors/player/PlayerCollision</text>
<text text-anchor="middle" x="1484.5" y="-359" font-family="Helvetica,sans-Serif" font-size="10.00">Behavior.hpp</text>
</a>
</g>
</g>
<!-- Node1&#45;&gt;Node33 -->
<g id="edge55_Node000001_Node000033" class="edge">
<title>Node1&#45;&gt;Node33</title>
<g id="a_edge55_Node000001_Node000033"><a xlink:title=" ">
<path fill="none" stroke="#63b8ff" d="M913.13,-423.75C999.49,-417.87 1204.62,-402.98 1387.35,-382.09"/>
<polygon fill="#63b8ff" stroke="#63b8ff" points="1387.87,-385.55 1397.41,-380.93 1387.07,-378.6 1387.87,-385.55"/>
</a>
</g>
</g>
<!-- Node35 -->
<g id="Node000035" class="node">
<title>Node35</title>
<g id="a_Node000035"><a xlink:href="../../d0/dd8/PlayerKeyboardBehavior_8hpp.html" target="_top" xlink:title=" ">
<polygon fill="white" stroke="#666666" points="1379.5,-382 1201.5,-382 1201.5,-352 1379.5,-352 1379.5,-382"/>
<text text-anchor="start" x="1209.5" y="-370" font-family="Helvetica,sans-Serif" font-size="10.00">behaviors/player/PlayerKeyboard</text>
<text text-anchor="middle" x="1290.5" y="-359" font-family="Helvetica,sans-Serif" font-size="10.00">Behavior.hpp</text>
</a>
</g>
</g>
<!-- Node1&#45;&gt;Node35 -->
<g id="edge59_Node000001_Node000035" class="edge">
<title>Node1&#45;&gt;Node35</title>
<g id="a_edge59_Node000001_Node000035"><a xlink:title=" ">
<path fill="none" stroke="#63b8ff" d="M913.06,-420.79C972.41,-412.64 1085.13,-397.09 1191.37,-382.16"/>
<polygon fill="#63b8ff" stroke="#63b8ff" points="1191.89,-385.62 1201.3,-380.76 1190.91,-378.69 1191.89,-385.62"/>
</a>
</g>
</g>
<!-- Node36 -->
<g id="Node000036" class="node">
<title>Node36</title>
<g id="a_Node000036"><a xlink:href="../../d9/de4/ScoreCounterBehavior_8hpp.html" target="_top" xlink:title=" ">
<polygon fill="white" stroke="#666666" points="594,-382 445,-382 445,-352 594,-352 594,-382"/>
<text text-anchor="start" x="453" y="-370" font-family="Helvetica,sans-Serif" font-size="10.00">behaviors/scoreCounter</text>
<text text-anchor="middle" x="519.5" y="-359" font-family="Helvetica,sans-Serif" font-size="10.00">/ScoreCounterBehavior.hpp</text>
</a>
</g>
</g>
<!-- Node1&#45;&gt;Node36 -->
<g id="edge61_Node000001_Node000036" class="edge">
<title>Node1&#45;&gt;Node36</title>
<g id="a_edge61_Node000001_Node000036"><a xlink:title=" ">
<path fill="none" stroke="#63b8ff" d="M829.72,-419.57C778.95,-411.15 690.4,-396.45 604.12,-382.1"/>
<polygon fill="#63b8ff" stroke="#63b8ff" points="604.59,-378.63 594.15,-380.44 603.44,-385.54 604.59,-378.63"/>
</a>
</g>
</g>
<!-- Node4 -->
<g id="Node000004" class="node">
<title>Node4</title>
<g id="a_Node000004"><a xlink:title=" ">
<polygon fill="#e0e0e0" stroke="#999999" points="1149.5,-79.5 1105.5,-79.5 1105.5,-60.5 1149.5,-60.5 1149.5,-79.5"/>
<text text-anchor="middle" x="1127.5" y="-67.5" font-family="Helvetica,sans-Serif" font-size="10.00">string</text>
</a>
</g>
</g>
<!-- Node3&#45;&gt;Node4 -->
<g id="edge3_Node000003_Node000004" class="edge">
<title>Node3&#45;&gt;Node4</title>
<g id="a_edge3_Node000003_Node000004"><a xlink:title=" ">
<path fill="none" stroke="#63b8ff" d="M630.56,-121.91C756.26,-109.03 1006.37,-83.41 1095.24,-74.3"/>
<polygon fill="#63b8ff" stroke="#63b8ff" points="1095.67,-77.78 1105.26,-73.28 1094.96,-70.82 1095.67,-77.78"/>
</a>
</g>
</g>
<!-- Node5&#45;&gt;Node6 -->
<g id="edge5_Node000005_Node000006" class="edge">
<title>Node5&#45;&gt;Node6</title>
<g id="a_edge5_Node000005_Node000006"><a xlink:title=" ">
<path fill="none" stroke="#63b8ff" d="M1428.07,-230.97C1339.34,-220.7 1204.07,-203.74 1196.5,-195 1182.02,-178.28 1204.22,-158.49 1223.94,-145.5"/>
<polygon fill="#63b8ff" stroke="#63b8ff" points="1226.05,-148.31 1232.69,-140.05 1222.35,-142.37 1226.05,-148.31"/>
</a>
</g>
</g>
<!-- Node5&#45;&gt;Node10 -->
<g id="edge14_Node000005_Node000010" class="edge">
<title>Node5&#45;&gt;Node10</title>
<g id="a_edge14_Node000005_Node000010"><a xlink:title=" ">
<path fill="none" stroke="#63b8ff" d="M1507.1,-230.91C1515.01,-204.78 1538.92,-125.79 1549.89,-89.54"/>
<polygon fill="#63b8ff" stroke="#63b8ff" points="1553.3,-90.36 1552.84,-79.77 1546.6,-88.33 1553.3,-90.36"/>
</a>
</g>
</g>
<!-- Node11 -->
<g id="Node000011" class="node">
<title>Node11</title>
<g id="a_Node000011"><a xlink:title=" ">
<polygon fill="#e0e0e0" stroke="#999999" points="1413,-79.5 1366,-79.5 1366,-60.5 1413,-60.5 1413,-79.5"/>
<text text-anchor="middle" x="1389.5" y="-67.5" font-family="Helvetica,sans-Serif" font-size="10.00">vector</text>
</a>
</g>
</g>
<!-- Node5&#45;&gt;Node11 -->
<g id="edge15_Node000005_Node000011" class="edge">
<title>Node5&#45;&gt;Node11</title>
<g id="a_edge15_Node000005_Node000011"><a xlink:title=" ">
<path fill="none" stroke="#63b8ff" d="M1498.64,-230.91C1480.57,-204.44 1425.49,-123.74 1401.21,-88.16"/>
<polygon fill="#63b8ff" stroke="#63b8ff" points="1404.02,-86.06 1395.49,-79.77 1398.23,-90.01 1404.02,-86.06"/>
</a>
</g>
</g>
<!-- Node12 -->
<g id="Node000012" class="node">
<title>Node12</title>
<g id="a_Node000012"><a xlink:title=" ">
<polygon fill="#e0e0e0" stroke="#999999" points="1642.5,-195 1536.5,-195 1536.5,-176 1642.5,-176 1642.5,-195"/>
<text text-anchor="middle" x="1589.5" y="-183" font-family="Helvetica,sans-Serif" font-size="10.00">SDL3/SDL_pixels.h</text>
</a>
</g>
</g>
<!-- Node5&#45;&gt;Node12 -->
<g id="edge12_Node000005_Node000012" class="edge">
<title>Node5&#45;&gt;Node12</title>
<g id="a_edge12_Node000005_Node000012"><a xlink:title=" ">
<path fill="none" stroke="#63b8ff" d="M1518.16,-230.98C1531.34,-222.77 1551.53,-210.18 1567.07,-200.49"/>
<polygon fill="#63b8ff" stroke="#63b8ff" points="1568.96,-203.43 1575.59,-195.17 1565.26,-197.49 1568.96,-203.43"/>
</a>
</g>
</g>
<!-- Node13 -->
<g id="Node000013" class="node">
<title>Node13</title>
<g id="a_Node000013"><a xlink:title=" ">
<polygon fill="#e0e0e0" stroke="#999999" points="1768.5,-195 1660.5,-195 1660.5,-176 1768.5,-176 1768.5,-195"/>
<text text-anchor="middle" x="1714.5" y="-183" font-family="Helvetica,sans-Serif" font-size="10.00">SDL3/SDL_render.h</text>
</a>
</g>
</g>
<!-- Node5&#45;&gt;Node13 -->
<g id="edge13_Node000005_Node000013" class="edge">
<title>Node5&#45;&gt;Node13</title>
<g id="a_edge13_Node000005_Node000013"><a xlink:title=" ">
<path fill="none" stroke="#63b8ff" d="M1538.24,-230.98C1574.18,-221.91 1631.22,-207.52 1670.63,-197.57"/>
<polygon fill="#63b8ff" stroke="#63b8ff" points="1671.66,-200.92 1680.5,-195.08 1669.94,-194.14 1671.66,-200.92"/>
</a>
</g>
</g>
<!-- Node6&#45;&gt;Node4 -->
<g id="edge10_Node000006_Node000004" class="edge">
<title>Node6&#45;&gt;Node4</title>
<g id="a_edge10_Node000006_Node000004"><a xlink:title=" ">
<path fill="none" stroke="#63b8ff" d="M1230.91,-120.99C1210.74,-111.25 1177.48,-95.16 1154.14,-83.88"/>
<polygon fill="#63b8ff" stroke="#63b8ff" points="1155.64,-80.72 1145.12,-79.52 1152.6,-87.02 1155.64,-80.72"/>
</a>
</g>
</g>
<!-- Node7 -->
<g id="Node000007" class="node">
<title>Node7</title>
<g id="a_Node000007"><a xlink:href="../../d9/d4a/Vector2_8hpp.html" target="_top" xlink:title=" ">
<polygon fill="white" stroke="#666666" points="1507.5,-79.5 1433.5,-79.5 1433.5,-60.5 1507.5,-60.5 1507.5,-79.5"/>
<text text-anchor="middle" x="1470.5" y="-67.5" font-family="Helvetica,sans-Serif" font-size="10.00">Vector2.hpp</text>
</a>
</g>
</g>
<!-- Node6&#45;&gt;Node7 -->
<g id="edge6_Node000006_Node000007" class="edge">
<title>Node6&#45;&gt;Node7</title>
<g id="a_edge6_Node000006_Node000007"><a xlink:title=" ">
<path fill="none" stroke="#63b8ff" d="M1283.25,-120.97C1318.44,-112.26 1374.38,-98.17 1422.5,-85 1425.64,-84.14 1428.89,-83.23 1432.15,-82.31"/>
<polygon fill="#63b8ff" stroke="#63b8ff" points="1433.22,-85.64 1441.86,-79.52 1431.29,-78.92 1433.22,-85.64"/>
</a>
</g>
</g>
<!-- Node8 -->
<g id="Node000008" class="node">
<title>Node8</title>
<g id="a_Node000008"><a xlink:href="../../d4/d71/ComponentNotFoundException_8hpp.html" target="_top" xlink:title=" ">
<polygon fill="white" stroke="#666666" points="1343.5,-85 1167.5,-85 1167.5,-55 1343.5,-55 1343.5,-85"/>
<text text-anchor="start" x="1175.5" y="-73" font-family="Helvetica,sans-Serif" font-size="10.00">exceptions/ComponentNotFound</text>
<text text-anchor="middle" x="1255.5" y="-62" font-family="Helvetica,sans-Serif" font-size="10.00">Exception.hpp</text>
</a>
</g>
</g>
<!-- Node6&#45;&gt;Node8 -->
<g id="edge7_Node000006_Node000008" class="edge">
<title>Node6&#45;&gt;Node8</title>
<g id="a_edge7_Node000006_Node000008"><a xlink:title=" ">
<path fill="none" stroke="#63b8ff" d="M1249.53,-120.87C1250.34,-114.11 1251.51,-104.35 1252.6,-95.26"/>
<polygon fill="#63b8ff" stroke="#63b8ff" points="1256.1,-95.46 1253.81,-85.11 1249.15,-94.63 1256.1,-95.46"/>
</a>
</g>
</g>
<!-- Node6&#45;&gt;Node10 -->
<g id="edge9_Node000006_Node000010" class="edge">
<title>Node6&#45;&gt;Node10</title>
<g id="a_edge9_Node000006_Node000010"><a xlink:title=" ">
<path fill="none" stroke="#63b8ff" d="M1297.77,-122.41C1363.45,-112.76 1476.1,-95.51 1516.5,-85 1519,-84.35 1521.56,-83.61 1524.12,-82.81"/>
<polygon fill="#63b8ff" stroke="#63b8ff" points="1525.48,-86.05 1533.85,-79.55 1523.26,-79.41 1525.48,-86.05"/>
</a>
</g>
</g>
<!-- Node6&#45;&gt;Node11 -->
<g id="edge11_Node000006_Node000011" class="edge">
<title>Node6&#45;&gt;Node11</title>
<g id="a_edge11_Node000006_Node000011"><a xlink:title=" ">
<path fill="none" stroke="#63b8ff" d="M1269,-120.99C1292.81,-111.12 1332.29,-94.73 1359.54,-83.43"/>
<polygon fill="#63b8ff" stroke="#63b8ff" points="1361.08,-86.58 1368.97,-79.52 1358.39,-80.12 1361.08,-86.58"/>
</a>
</g>
</g>
<!-- Node9 -->
<g id="Node000009" class="node">
<title>Node9</title>
<g id="a_Node000009"><a xlink:title=" ">
<polygon fill="#e0e0e0" stroke="#999999" points="1288,-19 1223,-19 1223,0 1288,0 1288,-19"/>
<text text-anchor="middle" x="1255.5" y="-7" font-family="Helvetica,sans-Serif" font-size="10.00">exception</text>
</a>
</g>
</g>
<!-- Node8&#45;&gt;Node9 -->
<g id="edge8_Node000008_Node000009" class="edge">
<title>Node8&#45;&gt;Node9</title>
<g id="a_edge8_Node000008_Node000009"><a xlink:title=" ">
<path fill="none" stroke="#63b8ff" d="M1255.5,-54.84C1255.5,-47.21 1255.5,-37.7 1255.5,-29.45"/>
<polygon fill="#63b8ff" stroke="#63b8ff" points="1259,-29.27 1255.5,-19.27 1252,-29.27 1259,-29.27"/>
</a>
</g>
</g>
<!-- Node15 -->
<g id="Node000015" class="node">
<title>Node15</title>
<g id="a_Node000015"><a xlink:href="../../d4/d8e/Behavior_8hpp.html" target="_top" xlink:title=" ">
<polygon fill="white" stroke="#666666" points="873.5,-250 793.5,-250 793.5,-231 873.5,-231 873.5,-250"/>
<text text-anchor="middle" x="833.5" y="-238" font-family="Helvetica,sans-Serif" font-size="10.00">Behavior.hpp</text>
</a>
</g>
</g>
<!-- Node14&#45;&gt;Node15 -->
<g id="edge18_Node000014_Node000015" class="edge">
<title>Node14&#45;&gt;Node15</title>
<g id="a_edge18_Node000014_Node000015"><a xlink:title=" ">
<path fill="none" stroke="#63b8ff" d="M317.52,-287.1C320.55,-286.72 323.55,-286.35 326.5,-286 493.37,-266.27 692.1,-251.3 783.27,-244.9"/>
<polygon fill="#63b8ff" stroke="#63b8ff" points="783.59,-248.39 793.32,-244.2 783.1,-241.4 783.59,-248.39"/>
</a>
</g>
</g>
<!-- Node16 -->
<g id="Node000016" class="node">
<title>Node16</title>
<g id="a_Node000016"><a xlink:href="../../d2/d69/GameObjectComponent_8hpp.html" target="_top" xlink:title=" ">
<polygon fill="white" stroke="#666666" points="1369.5,-195 1205.5,-195 1205.5,-176 1369.5,-176 1369.5,-195"/>
<text text-anchor="middle" x="1287.5" y="-183" font-family="Helvetica,sans-Serif" font-size="10.00">../GameObjectComponent.hpp</text>
</a>
</g>
</g>
<!-- Node15&#45;&gt;Node16 -->
<g id="edge19_Node000015_Node000016" class="edge">
<title>Node15&#45;&gt;Node16</title>
<g id="a_edge19_Node000015_Node000016"><a xlink:title=" ">
<path fill="none" stroke="#63b8ff" d="M873.79,-234.8C947.67,-226.17 1106.22,-207.66 1204.17,-196.23"/>
<polygon fill="#63b8ff" stroke="#63b8ff" points="1204.81,-199.68 1214.34,-195.04 1204,-192.72 1204.81,-199.68"/>
</a>
</g>
</g>
<!-- Node16&#45;&gt;Node6 -->
<g id="edge21_Node000016_Node000006" class="edge">
<title>Node16&#45;&gt;Node6</title>
<g id="a_edge21_Node000016_Node000006"><a xlink:title=" ">
<path fill="none" stroke="#63b8ff" d="M1281.06,-175.75C1275.61,-168.34 1267.64,-157.5 1260.94,-148.41"/>
<polygon fill="#63b8ff" stroke="#63b8ff" points="1263.57,-146.07 1254.82,-140.09 1257.93,-150.22 1263.57,-146.07"/>
</a>
</g>
</g>
<!-- Node17 -->
<g id="Node000017" class="node">
<title>Node17</title>
<g id="a_Node000017"><a xlink:title=" ">
<polygon fill="#e0e0e0" stroke="#999999" points="1369,-140 1316,-140 1316,-121 1369,-121 1369,-140"/>
<text text-anchor="middle" x="1342.5" y="-128" font-family="Helvetica,sans-Serif" font-size="10.00">cstddef</text>
</a>
</g>
</g>
<!-- Node16&#45;&gt;Node17 -->
<g id="edge20_Node000016_Node000017" class="edge">
<title>Node16&#45;&gt;Node17</title>
<g id="a_edge20_Node000016_Node000017"><a xlink:title=" ">
<path fill="none" stroke="#63b8ff" d="M1296.58,-175.75C1304.59,-168.03 1316.46,-156.6 1326.12,-147.28"/>
<polygon fill="#63b8ff" stroke="#63b8ff" points="1328.81,-149.55 1333.59,-140.09 1323.96,-144.51 1328.81,-149.55"/>
</a>
</g>
</g>
<!-- Node18&#45;&gt;Node15 -->
<g id="edge23_Node000018_Node000015" class="edge">
<title>Node18&#45;&gt;Node15</title>
<g id="a_edge23_Node000018_Node000015"><a xlink:title=" ">
<path fill="none" stroke="#63b8ff" d="M519.63,-286.73C601.35,-274.95 717.66,-258.19 783.32,-248.73"/>
<polygon fill="#63b8ff" stroke="#63b8ff" points="784.01,-252.17 793.41,-247.28 783.02,-245.24 784.01,-252.17"/>
</a>
</g>
</g>
<!-- Node19&#45;&gt;Node4 -->
<g id="edge31_Node000019_Node000004" class="edge">
<title>Node19&#45;&gt;Node4</title>
<g id="a_edge31_Node000019_Node000004"><a xlink:title=" ">
<path fill="none" stroke="#63b8ff" d="M1329.72,-286.85C1257.66,-274.33 1160.68,-256.46 1154.5,-250 1112.38,-205.92 1118.59,-125.85 1124.07,-89.65"/>
<polygon fill="#63b8ff" stroke="#63b8ff" points="1127.57,-89.98 1125.76,-79.54 1120.66,-88.83 1127.57,-89.98"/>
</a>
</g>
</g>
<!-- Node20 -->
<g id="Node000020" class="node">
<title>Node20</title>
<g id="a_Node000020"><a xlink:href="../../dd/db8/Renderer_8hpp.html" target="_top" xlink:title=" ">
<polygon fill="white" stroke="#666666" points="1730,-250 1649,-250 1649,-231 1730,-231 1730,-250"/>
<text text-anchor="middle" x="1689.5" y="-238" font-family="Helvetica,sans-Serif" font-size="10.00">Renderer.hpp</text>
</a>
</g>
</g>
<!-- Node19&#45;&gt;Node20 -->
<g id="edge25_Node000019_Node000020" class="edge">
<title>Node19&#45;&gt;Node20</title>
<g id="a_edge25_Node000019_Node000020"><a xlink:title=" ">
<path fill="none" stroke="#63b8ff" d="M1475.05,-285.99C1525.34,-275.55 1592.93,-261.53 1638.69,-252.04"/>
<polygon fill="#63b8ff" stroke="#63b8ff" points="1639.6,-255.43 1648.68,-249.97 1638.18,-248.57 1639.6,-255.43"/>
</a>
</g>
</g>
<!-- Node21 -->
<g id="Node000021" class="node">
<title>Node21</title>
<g id="a_Node000021"><a xlink:title=" ">
<polygon fill="#e0e0e0" stroke="#999999" points="1056.5,-250 984.5,-250 984.5,-231 1056.5,-231 1056.5,-250"/>
<text text-anchor="middle" x="1020.5" y="-238" font-family="Helvetica,sans-Serif" font-size="10.00">SDL3/SDL.h</text>
</a>
</g>
</g>
<!-- Node19&#45;&gt;Node21 -->
<g id="edge28_Node000019_Node000021" class="edge">
<title>Node19&#45;&gt;Node21</title>
<g id="a_edge28_Node000019_Node000021"><a xlink:title=" ">
<path fill="none" stroke="#63b8ff" d="M1329.72,-287.44C1326.61,-286.95 1323.52,-286.47 1320.5,-286 1230.67,-272.11 1125.57,-256.72 1066.64,-248.16"/>
<polygon fill="#63b8ff" stroke="#63b8ff" points="1066.94,-244.67 1056.54,-246.7 1065.94,-251.6 1066.94,-244.67"/>
</a>
</g>
</g>
<!-- Node22 -->
<g id="Node000022" class="node">
<title>Node22</title>
<g id="a_Node000022"><a xlink:title=" ">
<polygon fill="#e0e0e0" stroke="#999999" points="1276,-250 1163,-250 1163,-231 1276,-231 1276,-250"/>
<text text-anchor="middle" x="1219.5" y="-238" font-family="Helvetica,sans-Serif" font-size="10.00">SDL3/SDL_surface.h</text>
</a>
</g>
</g>
<!-- Node19&#45;&gt;Node22 -->
<g id="edge29_Node000019_Node000022" class="edge">
<title>Node19&#45;&gt;Node22</title>
<g id="a_edge29_Node000019_Node000022"><a xlink:title=" ">
<path fill="none" stroke="#63b8ff" d="M1362.47,-285.99C1330.16,-275.94 1287.16,-262.55 1256.77,-253.1"/>
<polygon fill="#63b8ff" stroke="#63b8ff" points="1257.58,-249.68 1246.99,-250.05 1255.5,-256.37 1257.58,-249.68"/>
</a>
</g>
</g>
<!-- Node23 -->
<g id="Node000023" class="node">
<title>Node23</title>
<g id="a_Node000023"><a xlink:title=" ">
<polygon fill="#e0e0e0" stroke="#999999" points="1398.5,-250 1294.5,-250 1294.5,-231 1398.5,-231 1398.5,-250"/>
<text text-anchor="middle" x="1346.5" y="-238" font-family="Helvetica,sans-Serif" font-size="10.00">SDL3_ttf/SDL_ttf.h</text>
</a>
</g>
</g>
<!-- Node19&#45;&gt;Node23 -->
<g id="edge30_Node000019_Node000023" class="edge">
<title>Node19&#45;&gt;Node23</title>
<g id="a_edge30_Node000019_Node000023"><a xlink:title=" ">
<path fill="none" stroke="#63b8ff" d="M1392.73,-285.84C1383.79,-277.26 1372.36,-266.3 1363.1,-257.42"/>
<polygon fill="#63b8ff" stroke="#63b8ff" points="1365.28,-254.66 1355.64,-250.27 1360.44,-259.71 1365.28,-254.66"/>
</a>
</g>
</g>
<!-- Node20&#45;&gt;Node13 -->
<g id="edge27_Node000020_Node000013" class="edge">
<title>Node20&#45;&gt;Node13</title>
<g id="a_edge27_Node000020_Node000013"><a xlink:title=" ">
<path fill="none" stroke="#63b8ff" d="M1693.63,-230.75C1697.01,-223.57 1701.92,-213.18 1706.12,-204.27"/>
<polygon fill="#63b8ff" stroke="#63b8ff" points="1709.35,-205.63 1710.45,-195.09 1703.02,-202.64 1709.35,-205.63"/>
</a>
</g>
</g>
<!-- Node20&#45;&gt;Node16 -->
<g id="edge26_Node000020_Node000016" class="edge">
<title>Node20&#45;&gt;Node16</title>
<g id="a_edge26_Node000020_Node000016"><a xlink:title=" ">
<path fill="none" stroke="#63b8ff" d="M1648.74,-234.13C1581.61,-225.28 1446.8,-207.5 1362.19,-196.35"/>
<polygon fill="#63b8ff" stroke="#63b8ff" points="1362.5,-192.86 1352.13,-195.02 1361.58,-199.8 1362.5,-192.86"/>
</a>
</g>
</g>
<!-- Node24&#45;&gt;Node7 -->
<g id="edge33_Node000024_Node000007" class="edge">
<title>Node24&#45;&gt;Node7</title>
<g id="a_edge33_Node000024_Node000007"><a xlink:title=" ">
<path fill="none" stroke="#63b8ff" d="M1764.99,-285.86C1778.62,-261.16 1801.5,-209.57 1777.5,-176 1769.34,-164.59 1587.95,-107.34 1507.89,-82.52"/>
<polygon fill="#63b8ff" stroke="#63b8ff" points="1508.79,-79.13 1498.2,-79.52 1506.72,-85.82 1508.79,-79.13"/>
</a>
</g>
</g>
<!-- Node24&#45;&gt;Node10 -->
<g id="edge38_Node000024_Node000010" class="edge">
<title>Node24&#45;&gt;Node10</title>
<g id="a_edge38_Node000024_Node000010"><a xlink:title=" ">
<path fill="none" stroke="#63b8ff" d="M1779.15,-285.83C1790.87,-277.09 1804.05,-264.75 1810.5,-250 1823.67,-219.86 1828.8,-203.33 1810.5,-176 1762,-103.57 1653.5,-81.06 1594.88,-74.09"/>
<polygon fill="#63b8ff" stroke="#63b8ff" points="1595.21,-70.61 1584.89,-73 1594.45,-77.57 1595.21,-70.61"/>
</a>
</g>
</g>
<!-- Node24&#45;&gt;Node12 -->
<g id="edge35_Node000024_Node000012" class="edge">
<title>Node24&#45;&gt;Node12</title>
<g id="a_edge35_Node000024_Node000012"><a xlink:title=" ">
<path fill="none" stroke="#63b8ff" d="M1710.23,-285.95C1687.79,-277.72 1661.27,-265.8 1640.5,-250 1623.68,-237.2 1609.11,-217.69 1599.9,-203.68"/>
<polygon fill="#63b8ff" stroke="#63b8ff" points="1602.72,-201.59 1594.42,-195 1596.8,-205.33 1602.72,-201.59"/>
</a>
</g>
</g>
<!-- Node24&#45;&gt;Node13 -->
<g id="edge37_Node000024_Node000013" class="edge">
<title>Node24&#45;&gt;Node13</title>
<g id="a_edge37_Node000024_Node000013"><a xlink:title=" ">
<path fill="none" stroke="#63b8ff" d="M1754.18,-285.91C1751.59,-271.72 1746.76,-249.36 1739.5,-231 1735.79,-221.63 1730.44,-211.8 1725.64,-203.77"/>
<polygon fill="#63b8ff" stroke="#63b8ff" points="1728.46,-201.67 1720.21,-195.02 1722.51,-205.36 1728.46,-201.67"/>
</a>
</g>
</g>
<!-- Node24&#45;&gt;Node20 -->
<g id="edge34_Node000024_Node000020" class="edge">
<title>Node24&#45;&gt;Node20</title>
<g id="a_edge34_Node000024_Node000020"><a xlink:title=" ">
<path fill="none" stroke="#63b8ff" d="M1740.28,-285.84C1730.26,-277.09 1717.39,-265.85 1707.12,-256.88"/>
<polygon fill="#63b8ff" stroke="#63b8ff" points="1709.37,-254.21 1699.54,-250.27 1704.77,-259.48 1709.37,-254.21"/>
</a>
</g>
</g>
<!-- Node25 -->
<g id="Node000025" class="node">
<title>Node25</title>
<g id="a_Node000025"><a xlink:title=" ">
<polygon fill="#e0e0e0" stroke="#999999" points="1958.5,-250 1862.5,-250 1862.5,-231 1958.5,-231 1958.5,-250"/>
<text text-anchor="middle" x="1910.5" y="-238" font-family="Helvetica,sans-Serif" font-size="10.00">SDL3/SDL_rect.h</text>
</a>
</g>
</g>
<!-- Node24&#45;&gt;Node25 -->
<g id="edge36_Node000024_Node000025" class="edge">
<title>Node24&#45;&gt;Node25</title>
<g id="a_edge36_Node000024_Node000025"><a xlink:title=" ">
<path fill="none" stroke="#63b8ff" d="M1793.39,-285.99C1819.2,-276.18 1853.35,-263.21 1878.1,-253.81"/>
<polygon fill="#63b8ff" stroke="#63b8ff" points="1879.65,-256.96 1887.76,-250.14 1877.17,-250.42 1879.65,-256.96"/>
</a>
</g>
</g>
<!-- Node26&#45;&gt;Node10 -->
<g id="edge43_Node000026_Node000010" class="edge">
<title>Node26&#45;&gt;Node10</title>
<g id="a_edge43_Node000026_Node000010"><a xlink:title=" ">
<path fill="none" stroke="#63b8ff" d="M1965.91,-285.89C1979.49,-271.68 1995.53,-249.3 1984.5,-231 1930.54,-141.42 1874.57,-157.3 1776.5,-121 1714.89,-98.2 1639.62,-83.87 1594.73,-76.66"/>
<polygon fill="#63b8ff" stroke="#63b8ff" points="1595.23,-73.2 1584.81,-75.11 1594.15,-80.11 1595.23,-73.2"/>
</a>
</g>
</g>
<!-- Node26&#45;&gt;Node13 -->
<g id="edge42_Node000026_Node000013" class="edge">
<title>Node26&#45;&gt;Node13</title>
<g id="a_edge42_Node000026_Node000013"><a xlink:title=" ">
<path fill="none" stroke="#63b8ff" d="M1960.38,-285.95C1969.74,-270.75 1980.59,-246.59 1967.5,-231 1943.84,-202.81 1845.55,-192.48 1778.68,-188.69"/>
<polygon fill="#63b8ff" stroke="#63b8ff" points="1778.81,-185.19 1768.64,-188.15 1778.44,-192.18 1778.81,-185.19"/>
</a>
</g>
</g>
<!-- Node26&#45;&gt;Node20 -->
<g id="edge40_Node000026_Node000020" class="edge">
<title>Node26&#45;&gt;Node20</title>
<g id="a_edge40_Node000026_Node000020"><a xlink:title=" ">
<path fill="none" stroke="#63b8ff" d="M1887.98,-285.99C1841.77,-275.63 1779.78,-261.73 1737.45,-252.25"/>
<polygon fill="#63b8ff" stroke="#63b8ff" points="1738.19,-248.83 1727.66,-250.05 1736.65,-255.66 1738.19,-248.83"/>
</a>
</g>
</g>
<!-- Node26&#45;&gt;Node25 -->
<g id="edge41_Node000026_Node000025" class="edge">
<title>Node26&#45;&gt;Node25</title>
<g id="a_edge41_Node000026_Node000025"><a xlink:title=" ">
<path fill="none" stroke="#63b8ff" d="M1940.82,-285.84C1935.25,-277.69 1928.21,-267.4 1922.32,-258.78"/>
<polygon fill="#63b8ff" stroke="#63b8ff" points="1925.03,-256.55 1916.49,-250.27 1919.25,-260.5 1925.03,-256.55"/>
</a>
</g>
</g>
<!-- Node27&#45;&gt;Node15 -->
<g id="edge45_Node000027_Node000015" class="edge">
<title>Node27&#45;&gt;Node15</title>
<g id="a_edge45_Node000027_Node000015"><a xlink:title=" ">
<path fill="none" stroke="#63b8ff" d="M755.17,-352.15C776.87,-344.72 799.03,-333.36 814.5,-316 828.21,-300.62 832.29,-276.7 833.38,-260.13"/>
<polygon fill="#63b8ff" stroke="#63b8ff" points="836.88,-260.14 833.73,-250.03 829.88,-259.9 836.88,-260.14"/>
</a>
</g>
</g>
<!-- Node28&#45;&gt;Node15 -->
<g id="edge47_Node000028_Node000015" class="edge">
<title>Node28&#45;&gt;Node15</title>
<g id="a_edge47_Node000028_Node000015"><a xlink:title=" ">
<path fill="none" stroke="#63b8ff" d="M427.13,-352.29C493.13,-340.28 579.52,-323.6 594.5,-316 612.18,-307.03 609.88,-295.07 627.5,-286 676.89,-260.58 740.16,-249.66 783.47,-244.98"/>
<polygon fill="#63b8ff" stroke="#63b8ff" points="783.88,-248.46 793.48,-243.97 783.18,-241.49 783.88,-248.46"/>
</a>
</g>
</g>
<!-- Node29 -->
<g id="Node000029" class="node">
<title>Node29</title>
<g id="a_Node000029"><a xlink:title=" ">
<polygon fill="#e0e0e0" stroke="#999999" points="585,-310.5 538,-310.5 538,-291.5 585,-291.5 585,-310.5"/>
<text text-anchor="middle" x="561.5" y="-298.5" font-family="Helvetica,sans-Serif" font-size="10.00">cmath</text>
</a>
</g>
</g>
<!-- Node28&#45;&gt;Node29 -->
<g id="edge48_Node000028_Node000029" class="edge">
<title>Node28&#45;&gt;Node29</title>
<g id="a_edge48_Node000028_Node000029"><a xlink:title=" ">
<path fill="none" stroke="#63b8ff" d="M406.92,-351.97C442.32,-342.83 488.45,-330.02 528.5,-316 529.93,-315.5 531.39,-314.97 532.86,-314.41"/>
<polygon fill="#63b8ff" stroke="#63b8ff" points="534.48,-317.53 542.47,-310.57 531.88,-311.03 534.48,-317.53"/>
</a>
</g>
</g>
<!-- Node31 -->
<g id="Node000031" class="node">
<title>Node31</title>
<g id="a_Node000031"><a xlink:href="../../de/dfb/KeyboardHandlerBehavior_8hpp.html" target="_top" xlink:title=" ">
<polygon fill="white" stroke="#666666" points="1117.5,-316 899.5,-316 899.5,-286 1117.5,-286 1117.5,-316"/>
<text text-anchor="start" x="907.5" y="-304" font-family="Helvetica,sans-Serif" font-size="10.00">../../../engine/components</text>
<text text-anchor="middle" x="1008.5" y="-293" font-family="Helvetica,sans-Serif" font-size="10.00">/behaviors/KeyboardHandlerBehavior.hpp</text>
</a>
</g>
</g>
<!-- Node30&#45;&gt;Node31 -->
<g id="edge50_Node000030_Node000031" class="edge">
<title>Node30&#45;&gt;Node31</title>
<g id="a_edge50_Node000030_Node000031"><a xlink:title=" ">
<path fill="none" stroke="#63b8ff" d="M1068.41,-351.8C1058.14,-343.26 1044.9,-332.25 1033.47,-322.75"/>
<polygon fill="#63b8ff" stroke="#63b8ff" points="1035.47,-319.86 1025.54,-316.16 1030.99,-325.25 1035.47,-319.86"/>
</a>
</g>
</g>
<!-- Node31&#45;&gt;Node15 -->
<g id="edge51_Node000031_Node000015" class="edge">
<title>Node31&#45;&gt;Node15</title>
<g id="a_edge51_Node000031_Node000015"><a xlink:title=" ">
<path fill="none" stroke="#63b8ff" d="M966.58,-285.99C936.77,-276.02 897.17,-262.78 868.94,-253.35"/>
<polygon fill="#63b8ff" stroke="#63b8ff" points="869.68,-249.9 859.09,-250.05 867.46,-256.54 869.68,-249.9"/>
</a>
</g>
</g>
<!-- Node31&#45;&gt;Node21 -->
<g id="edge52_Node000031_Node000021" class="edge">
<title>Node31&#45;&gt;Node21</title>
<g id="a_edge52_Node000031_Node000021"><a xlink:title=" ">
<path fill="none" stroke="#63b8ff" d="M1011.4,-285.84C1012.99,-278.13 1014.96,-268.49 1016.67,-260.17"/>
<polygon fill="#63b8ff" stroke="#63b8ff" points="1020.12,-260.77 1018.7,-250.27 1013.26,-259.36 1020.12,-260.77"/>
</a>
</g>
</g>
<!-- Node32&#45;&gt;Node15 -->
<g id="edge54_Node000032_Node000015" class="edge">
<title>Node32&#45;&gt;Node15</title>
<g id="a_edge54_Node000032_Node000015"><a xlink:title=" ">
<path fill="none" stroke="#63b8ff" d="M868.88,-357.11C864.5,-342.33 855.42,-311.78 847.5,-286 844.85,-277.38 841.86,-267.83 839.32,-259.8"/>
<polygon fill="#63b8ff" stroke="#63b8ff" points="842.58,-258.5 836.22,-250.02 835.9,-260.61 842.58,-258.5"/>
</a>
</g>
</g>
<!-- Node34 -->
<g id="Node000034" class="node">
<title>Node34</title>
<g id="a_Node000034"><a xlink:href="../../dc/d19/CollisionBehavior_8hpp.html" target="_top" xlink:title=" ">
<polygon fill="white" stroke="#666666" points="1311.5,-316 1135.5,-316 1135.5,-286 1311.5,-286 1311.5,-316"/>
<text text-anchor="start" x="1143.5" y="-304" font-family="Helvetica,sans-Serif" font-size="10.00">../../../engine/components</text>
<text text-anchor="middle" x="1223.5" y="-293" font-family="Helvetica,sans-Serif" font-size="10.00">/behaviors/CollisionBehavior.hpp</text>
</a>
</g>
</g>
<!-- Node33&#45;&gt;Node34 -->
<g id="edge56_Node000033_Node000034" class="edge">
<title>Node33&#45;&gt;Node34</title>
<g id="a_edge56_Node000033_Node000034"><a xlink:title=" ">
<path fill="none" stroke="#63b8ff" d="M1427.22,-351.95C1386.94,-342.08 1332.88,-328.82 1290.58,-318.45"/>
<polygon fill="#63b8ff" stroke="#63b8ff" points="1291.19,-314.99 1280.64,-316.01 1289.52,-321.79 1291.19,-314.99"/>
</a>
</g>
</g>
<!-- Node34&#45;&gt;Node10 -->
<g id="edge58_Node000034_Node000010" class="edge">
<title>Node34&#45;&gt;Node10</title>
<g id="a_edge58_Node000034_Node000010"><a xlink:title=" ">
<path fill="none" stroke="#63b8ff" d="M1192.29,-285.85C1166.73,-272.34 1137.36,-251.12 1154.5,-231 1219.9,-154.25 1285.06,-232.89 1378.5,-195 1444.29,-168.32 1509.52,-113.34 1539.08,-86.47"/>
<polygon fill="#63b8ff" stroke="#63b8ff" points="1541.46,-89.03 1546.44,-79.68 1536.71,-83.89 1541.46,-89.03"/>
</a>
</g>
</g>
<!-- Node34&#45;&gt;Node15 -->
<g id="edge57_Node000034_Node000015" class="edge">
<title>Node34&#45;&gt;Node15</title>
<g id="a_edge57_Node000034_Node000015"><a xlink:title=" ">
<path fill="none" stroke="#63b8ff" d="M1135.49,-286.8C1057.81,-275.15 947.33,-258.57 883.77,-249.04"/>
<polygon fill="#63b8ff" stroke="#63b8ff" points="884.02,-245.54 873.61,-247.52 882.98,-252.46 884.02,-245.54"/>
</a>
</g>
</g>
<!-- Node35&#45;&gt;Node31 -->
<g id="edge60_Node000035_Node000031" class="edge">
<title>Node35&#45;&gt;Node31</title>
<g id="a_edge60_Node000035_Node000031"><a xlink:title=" ">
<path fill="none" stroke="#63b8ff" d="M1228.61,-351.95C1184.81,-342.01 1125.94,-328.65 1080.11,-318.25"/>
<polygon fill="#63b8ff" stroke="#63b8ff" points="1080.77,-314.81 1070.24,-316.01 1079.22,-321.64 1080.77,-314.81"/>
</a>
</g>
</g>
<!-- Node36&#45;&gt;Node15 -->
<g id="edge63_Node000036_Node000015" class="edge">
<title>Node36&#45;&gt;Node15</title>
<g id="a_edge63_Node000036_Node000015"><a xlink:title=" ">
<path fill="none" stroke="#63b8ff" d="M553.78,-351.85C575.38,-342.52 603.6,-329.56 627.5,-316 648.09,-304.32 650.02,-295.94 671.5,-286 707.37,-269.41 750.64,-257.92 783.44,-250.77"/>
<polygon fill="#63b8ff" stroke="#63b8ff" points="784.21,-254.19 793.26,-248.69 782.76,-247.34 784.21,-254.19"/>
</a>
</g>
</g>
<!-- Node37 -->
<g id="Node000037" class="node">
<title>Node37</title>
<g id="a_Node000037"><a xlink:href="../../d9/de7/Time_8hpp.html" target="_top" xlink:title=" ">
<polygon fill="white" stroke="#666666" points="805,-310.5 680,-310.5 680,-291.5 805,-291.5 805,-310.5"/>
<text text-anchor="middle" x="742.5" y="-298.5" font-family="Helvetica,sans-Serif" font-size="10.00">../../../engine/Time.hpp</text>
</a>
</g>
</g>
<!-- Node36&#45;&gt;Node37 -->
<g id="edge62_Node000036_Node000037" class="edge">
<title>Node36&#45;&gt;Node37</title>
<g id="a_edge62_Node000036_Node000037"><a xlink:title=" ">
<path fill="none" stroke="#63b8ff" d="M568.44,-351.95C608.75,-340.38 665.2,-324.18 702.76,-313.41"/>
<polygon fill="#63b8ff" stroke="#63b8ff" points="704.18,-316.64 712.82,-310.52 702.24,-309.91 704.18,-316.64"/>
</a>
</g>
</g>
</g>
</svg>
