<?xml version="1.0" encoding="UTF-8" standalone="no"?>
<!DOCTYPE svg PUBLIC "-//W3C//DTD SVG 1.1//EN"
 "http://www.w3.org/Graphics/SVG/1.1/DTD/svg11.dtd">
<!-- Generated by graphviz version 2.43.0 (0)
 -->
<!-- Title: game/Init.cpp Pages: 1 -->
<svg width="2026pt" height="445pt"
 viewBox="0.00 0.00 2025.50 445.00" xmlns="http://www.w3.org/2000/svg" xmlns:xlink="http://www.w3.org/1999/xlink">
<g id="graph0" class="graph" transform="scale(1 1) rotate(0) translate(4 441)">
<title>game/Init.cpp</title>
<!-- Node1 -->
<g id="Node000001" class="node">
<title>Node1</title>
<g id="a_Node000001"><a xlink:title=" ">
<polygon fill="#999999" stroke="#666666" points="911,-437 828,-437 828,-418 911,-418 911,-437"/>
<text text-anchor="middle" x="869.5" y="-425" font-family="Helvetica,sans-Serif" font-size="10.00">game/Init.cpp</text>
</a>
</g>
</g>
<!-- Node2 -->
<g id="Node000002" class="node">
<title>Node2</title>
<g id="a_Node000002"><a xlink:href="../../d3/de1/Init_8hpp.html" target="_top" xlink:title=" ">
<polygon fill="white" stroke="#666666" points="53,-376.5 0,-376.5 0,-357.5 53,-357.5 53,-376.5"/>
<text text-anchor="middle" x="26.5" y="-364.5" font-family="Helvetica,sans-Serif" font-size="10.00">Init.hpp</text>
</a>
</g>
</g>
<!-- Node1&#45;&gt;Node2 -->
<g id="edge1_Node000001_Node000002" class="edge">
<title>Node1&#45;&gt;Node2</title>
<g id="a_edge1_Node000001_Node000002"><a xlink:title=" ">
<path fill="none" stroke="#63b8ff" d="M827.71,-425.69C684.65,-422.67 215.33,-410.77 67.5,-382 64.25,-381.37 60.91,-380.54 57.6,-379.6"/>
<polygon fill="#63b8ff" stroke="#63b8ff" points="58.49,-376.21 47.9,-376.54 56.39,-382.89 58.49,-376.21"/>
</a>
</g>
</g>
<!-- Node3 -->
<g id="Node000003" class="node">
<title>Node3</title>
<g id="a_Node000003"><a xlink:href="../../d4/db4/EngineState_8hpp.html" target="_top" xlink:title=" ">
<polygon fill="white" stroke="#666666" points="1951,-250 1810,-250 1810,-231 1951,-231 1951,-250"/>
<text text-anchor="middle" x="1880.5" y="-238" font-family="Helvetica,sans-Serif" font-size="10.00">../engine/EngineState.hpp</text>
</a>
</g>
</g>
<!-- Node1&#45;&gt;Node3 -->
<g id="edge2_Node000001_Node000003" class="edge">
<title>Node1&#45;&gt;Node3</title>
<g id="a_edge2_Node000001_Node000003"><a xlink:title=" ">
<path fill="none" stroke="#63b8ff" d="M911.01,-425.33C1050.94,-421.19 1504.56,-406.2 1648.5,-382 1754.64,-364.16 1816.59,-401.85 1881.5,-316 1893.42,-300.24 1890.76,-276.76 1886.67,-260.39"/>
<polygon fill="#63b8ff" stroke="#63b8ff" points="1889.92,-259.01 1883.78,-250.37 1883.19,-260.95 1889.92,-259.01"/>
</a>
</g>
</g>
<!-- Node4 -->
<g id="Node000004" class="node">
<title>Node4</title>
<g id="a_Node000004"><a xlink:href="../../d4/db5/GameObject_8hpp.html" target="_top" xlink:title=" ">
<polygon fill="white" stroke="#666666" points="508.5,-140 410.5,-140 410.5,-121 508.5,-121 508.5,-140"/>
<text text-anchor="middle" x="459.5" y="-128" font-family="Helvetica,sans-Serif" font-size="10.00">GameObject.hpp</text>
</a>
</g>
</g>
<!-- Node1&#45;&gt;Node4 -->
<g id="edge13_Node000001_Node000004" class="edge">
<title>Node1&#45;&gt;Node4</title>
<g id="a_edge13_Node000001_Node000004"><a xlink:title=" ">
<path fill="none" stroke="#63b8ff" d="M827.72,-426.43C684.47,-425.86 219.02,-420.97 165.5,-382 110.45,-341.92 98.79,-285.59 139.5,-231 173.04,-186.02 206.88,-211.53 260.5,-195 317.69,-177.37 383.83,-156.08 423.63,-143.18"/>
<polygon fill="#63b8ff" stroke="#63b8ff" points="424.73,-146.5 433.16,-140.09 422.56,-139.85 424.73,-146.5"/>
</a>
</g>
</g>
<!-- Node8 -->
<g id="Node000008" class="node">
<title>Node8</title>
<g id="a_Node000008"><a xlink:title=" ">
<polygon fill="#e0e0e0" stroke="#999999" points="1482.5,-79.5 1424.5,-79.5 1424.5,-60.5 1482.5,-60.5 1482.5,-79.5"/>
<text text-anchor="middle" x="1453.5" y="-67.5" font-family="Helvetica,sans-Serif" font-size="10.00">memory</text>
</a>
</g>
</g>
<!-- Node1&#45;&gt;Node8 -->
<g id="edge65_Node000001_Node000008" class="edge">
<title>Node1&#45;&gt;Node8</title>
<g id="a_edge65_Node000001_Node000008"><a xlink:title=" ">
<path fill="none" stroke="#63b8ff" d="M911.04,-426.45C1116.85,-425.64 2017.5,-415.64 2017.5,-302 2017.5,-302 2017.5,-302 2017.5,-184.5 2017.5,-77.27 1620.75,-70.07 1492.78,-70.54"/>
<polygon fill="#63b8ff" stroke="#63b8ff" points="1492.62,-67.04 1482.64,-70.59 1492.65,-74.04 1492.62,-67.04"/>
</a>
</g>
</g>
<!-- Node13 -->
<g id="Node000013" class="node">
<title>Node13</title>
<g id="a_Node000013"><a xlink:href="../../d3/dfc/ObjectManagement_8hpp.html" target="_top" xlink:title=" ">
<polygon fill="white" stroke="#666666" points="251,-195 72,-195 72,-176 251,-176 251,-195"/>
<text text-anchor="middle" x="161.5" y="-183" font-family="Helvetica,sans-Serif" font-size="10.00">../engine/ObjectManagement.hpp</text>
</a>
</g>
</g>
<!-- Node1&#45;&gt;Node13 -->
<g id="edge14_Node000001_Node000013" class="edge">
<title>Node1&#45;&gt;Node13</title>
<g id="a_edge14_Node000001_Node000013"><a xlink:title=" ">
<path fill="none" stroke="#63b8ff" d="M827.8,-425.64C671.83,-422.21 130.46,-408.46 105.5,-382 59.45,-333.19 76.33,-291.44 105.5,-231 111.72,-218.12 123.68,-207.82 134.96,-200.38"/>
<polygon fill="#63b8ff" stroke="#63b8ff" points="137.01,-203.23 143.73,-195.04 133.37,-197.25 137.01,-203.23"/>
</a>
</g>
</g>
<!-- Node14 -->
<g id="Node000014" class="node">
<title>Node14</title>
<g id="a_Node000014"><a xlink:href="../../d5/d6d/GravityBehavior_8hpp.html" target="_top" xlink:title=" ">
<polygon fill="white" stroke="#666666" points="1290.5,-316 1120.5,-316 1120.5,-286 1290.5,-286 1290.5,-316"/>
<text text-anchor="start" x="1128.5" y="-304" font-family="Helvetica,sans-Serif" font-size="10.00">../engine/components</text>
<text text-anchor="middle" x="1205.5" y="-293" font-family="Helvetica,sans-Serif" font-size="10.00">/behaviors/GravityBehavior.hpp</text>
</a>
</g>
</g>
<!-- Node1&#45;&gt;Node14 -->
<g id="edge18_Node000001_Node000014" class="edge">
<title>Node1&#45;&gt;Node14</title>
<g id="a_edge18_Node000001_Node000014"><a xlink:title=" ">
<path fill="none" stroke="#63b8ff" d="M911.12,-425.7C1020.9,-423.15 1311.86,-413.48 1340.5,-382 1366.21,-353.75 1323.26,-332.44 1279.15,-318.95"/>
<polygon fill="#63b8ff" stroke="#63b8ff" points="1280.03,-315.56 1269.45,-316.11 1278.06,-322.28 1280.03,-315.56"/>
</a>
</g>
</g>
<!-- Node18 -->
<g id="Node000018" class="node">
<title>Node18</title>
<g id="a_Node000018"><a xlink:href="../../dc/da8/KinematicBehavior_8hpp.html" target="_top" xlink:title=" ">
<polygon fill="white" stroke="#666666" points="741.5,-316 557.5,-316 557.5,-286 741.5,-286 741.5,-316"/>
<text text-anchor="start" x="565.5" y="-304" font-family="Helvetica,sans-Serif" font-size="10.00">../engine/components</text>
<text text-anchor="middle" x="649.5" y="-293" font-family="Helvetica,sans-Serif" font-size="10.00">/behaviors/KinematicBehavior.hpp</text>
</a>
</g>
</g>
<!-- Node1&#45;&gt;Node18 -->
<g id="edge23_Node000001_Node000018" class="edge">
<title>Node1&#45;&gt;Node18</title>
<g id="a_edge23_Node000001_Node000018"><a xlink:title=" ">
<path fill="none" stroke="#63b8ff" d="M827.96,-425.11C765.2,-422.05 650.81,-412.34 625.5,-382 611.9,-365.69 621.72,-341.86 632.61,-324.45"/>
<polygon fill="#63b8ff" stroke="#63b8ff" points="635.61,-326.25 638.28,-316 629.8,-322.35 635.61,-326.25"/>
</a>
</g>
</g>
<!-- Node19 -->
<g id="Node000019" class="node">
<title>Node19</title>
<g id="a_Node000019"><a xlink:href="../../d7/dc4/FontRenderer_8hpp.html" target="_top" xlink:title=" ">
<polygon fill="white" stroke="#666666" points="303,-316 148,-316 148,-286 303,-286 303,-316"/>
<text text-anchor="start" x="156" y="-304" font-family="Helvetica,sans-Serif" font-size="10.00">../engine/components</text>
<text text-anchor="middle" x="225.5" y="-293" font-family="Helvetica,sans-Serif" font-size="10.00">/renderers/FontRenderer.hpp</text>
</a>
</g>
</g>
<!-- Node1&#45;&gt;Node19 -->
<g id="edge25_Node000001_Node000019" class="edge">
<title>Node1&#45;&gt;Node19</title>
<g id="a_edge25_Node000001_Node000019"><a xlink:title=" ">
<path fill="none" stroke="#63b8ff" d="M827.96,-425.38C681.81,-421.26 198.88,-405.87 176.5,-382 159.85,-364.25 179.33,-339.97 198.43,-322.82"/>
<polygon fill="#63b8ff" stroke="#63b8ff" points="200.88,-325.34 206.21,-316.18 196.34,-320.01 200.88,-325.34"/>
</a>
</g>
</g>
<!-- Node24 -->
<g id="Node000024" class="node">
<title>Node24</title>
<g id="a_Node000024"><a xlink:href="../../dc/daa/RectangleRenderer_8hpp.html" target="_top" xlink:title=" ">
<polygon fill="white" stroke="#666666" points="1872.5,-316 1690.5,-316 1690.5,-286 1872.5,-286 1872.5,-316"/>
<text text-anchor="start" x="1698.5" y="-304" font-family="Helvetica,sans-Serif" font-size="10.00">../engine/components</text>
<text text-anchor="middle" x="1781.5" y="-293" font-family="Helvetica,sans-Serif" font-size="10.00">/renderers/RectangleRenderer.hpp</text>
</a>
</g>
</g>
<!-- Node1&#45;&gt;Node24 -->
<g id="edge33_Node000001_Node000024" class="edge">
<title>Node1&#45;&gt;Node24</title>
<g id="a_edge33_Node000001_Node000024"><a xlink:title=" ">
<path fill="none" stroke="#63b8ff" d="M911.39,-425.78C1045.27,-423.18 1461.66,-412.76 1592.5,-382 1649.1,-368.69 1710.33,-339.85 1747.29,-320.68"/>
<polygon fill="#63b8ff" stroke="#63b8ff" points="1748.92,-323.78 1756.15,-316.03 1745.67,-317.58 1748.92,-323.78"/>
</a>
</g>
</g>
<!-- Node26 -->
<g id="Node000026" class="node">
<title>Node26</title>
<g id="a_Node000026"><a xlink:href="../../d6/d02/TextureRenderer_8hpp.html" target="_top" xlink:title=" ">
<polygon fill="white" stroke="#666666" points="1672.5,-316 1502.5,-316 1502.5,-286 1672.5,-286 1672.5,-316"/>
<text text-anchor="start" x="1510.5" y="-304" font-family="Helvetica,sans-Serif" font-size="10.00">../engine/components</text>
<text text-anchor="middle" x="1587.5" y="-293" font-family="Helvetica,sans-Serif" font-size="10.00">/renderers/TextureRenderer.hpp</text>
</a>
</g>
</g>
<!-- Node1&#45;&gt;Node26 -->
<g id="edge40_Node000001_Node000026" class="edge">
<title>Node1&#45;&gt;Node26</title>
<g id="a_edge40_Node000001_Node000026"><a xlink:title=" ">
<path fill="none" stroke="#63b8ff" d="M911.35,-426.73C1054.8,-427.14 1520.61,-425.09 1570.5,-382 1586.15,-368.49 1589.49,-344.46 1589.47,-326.26"/>
<polygon fill="#63b8ff" stroke="#63b8ff" points="1592.96,-325.95 1589.12,-316.08 1585.97,-326.2 1592.96,-325.95"/>
</a>
</g>
</g>
<!-- Node27 -->
<g id="Node000027" class="node">
<title>Node27</title>
<g id="a_Node000027"><a xlink:href="../../d4/d09/CoffeeMeterBehavior_8hpp.html" target="_top" xlink:title=" ">
<polygon fill="white" stroke="#666666" points="777,-382 634,-382 634,-352 777,-352 777,-382"/>
<text text-anchor="start" x="642" y="-370" font-family="Helvetica,sans-Serif" font-size="10.00">behaviors/coffeeMeter</text>
<text text-anchor="middle" x="705.5" y="-359" font-family="Helvetica,sans-Serif" font-size="10.00">/CoffeeMeterBehavior.hpp</text>
</a>
</g>
</g>
<!-- Node1&#45;&gt;Node27 -->
<g id="edge45_Node000001_Node000027" class="edge">
<title>Node1&#45;&gt;Node27</title>
<g id="a_edge45_Node000001_Node000027"><a xlink:title=" ">
<path fill="none" stroke="#63b8ff" d="M845.65,-417.99C821.84,-409.5 784.56,-396.2 754.43,-385.45"/>
<polygon fill="#63b8ff" stroke="#63b8ff" points="755.52,-382.13 744.93,-382.06 753.17,-388.72 755.52,-382.13"/>
</a>
</g>
</g>
<!-- Node28 -->
<g id="Node000028" class="node">
<title>Node28</title>
<g id="a_Node000028"><a xlink:href="../../d2/d74/GameManagerBehavior_8hpp.html" target="_top" xlink:title=" ">
<polygon fill="white" stroke="#666666" points="1117,-382 962,-382 962,-352 1117,-352 1117,-382"/>
<text text-anchor="start" x="970" y="-370" font-family="Helvetica,sans-Serif" font-size="10.00">behaviors/gameManager</text>
<text text-anchor="middle" x="1039.5" y="-359" font-family="Helvetica,sans-Serif" font-size="10.00">/GameManagerBehavior.hpp</text>
</a>
</g>
</g>
<!-- Node1&#45;&gt;Node28 -->
<g id="edge47_Node000001_Node000028" class="edge">
<title>Node1&#45;&gt;Node28</title>
<g id="a_edge47_Node000001_Node000028"><a xlink:title=" ">
<path fill="none" stroke="#63b8ff" d="M894.22,-417.99C918.9,-409.5 957.55,-396.2 988.78,-385.45"/>
<polygon fill="#63b8ff" stroke="#63b8ff" points="990.31,-388.63 998.63,-382.06 988.03,-382.01 990.31,-388.63"/>
</a>
</g>
</g>
<!-- Node30 -->
<g id="Node000030" class="node">
<title>Node30</title>
<g id="a_Node000030"><a xlink:href="../../da/d20/GameManagerKeyboardHandler_8hpp.html" target="_top" xlink:title=" ">
<polygon fill="white" stroke="#666666" points="577.5,-382 381.5,-382 381.5,-352 577.5,-352 577.5,-382"/>
<text text-anchor="start" x="389.5" y="-370" font-family="Helvetica,sans-Serif" font-size="10.00">behaviors/gameManager</text>
<text text-anchor="middle" x="479.5" y="-359" font-family="Helvetica,sans-Serif" font-size="10.00">/GameManagerKeyboardHandler.hpp</text>
</a>
</g>
</g>
<!-- Node1&#45;&gt;Node30 -->
<g id="edge50_Node000001_Node000030" class="edge">
<title>Node1&#45;&gt;Node30</title>
<g id="a_edge50_Node000001_Node000030"><a xlink:title=" ">
<path fill="none" stroke="#63b8ff" d="M827.76,-420.24C769.82,-411.55 663.09,-395.54 583,-383.53"/>
<polygon fill="#63b8ff" stroke="#63b8ff" points="583.28,-380.03 572.88,-382.01 582.25,-386.95 583.28,-380.03"/>
</a>
</g>
</g>
<!-- Node32 -->
<g id="Node000032" class="node">
<title>Node32</title>
<g id="a_Node000032"><a xlink:href="../../dd/da3/PlayerBehavior_8hpp.html" target="_top" xlink:title=" ">
<polygon fill="white" stroke="#666666" points="1331.5,-376.5 1135.5,-376.5 1135.5,-357.5 1331.5,-357.5 1331.5,-376.5"/>
<text text-anchor="middle" x="1233.5" y="-364.5" font-family="Helvetica,sans-Serif" font-size="10.00">behaviors/player/PlayerBehavior.hpp</text>
</a>
</g>
</g>
<!-- Node1&#45;&gt;Node32 -->
<g id="edge54_Node000001_Node000032" class="edge">
<title>Node1&#45;&gt;Node32</title>
<g id="a_edge54_Node000001_Node000032"><a xlink:title=" ">
<path fill="none" stroke="#63b8ff" d="M911.26,-419.79C974.75,-409.59 1096.02,-390.09 1170.34,-378.15"/>
<polygon fill="#63b8ff" stroke="#63b8ff" points="1171.18,-381.56 1180.5,-376.52 1170.07,-374.65 1171.18,-381.56"/>
</a>
</g>
</g>
<!-- Node33 -->
<g id="Node000033" class="node">
<title>Node33</title>
<g id="a_Node000033"><a xlink:href="../../db/d9e/PlayerCollisionBehavior_8hpp.html" target="_top" xlink:title=" ">
<polygon fill="white" stroke="#666666" points="1561.5,-382 1387.5,-382 1387.5,-352 1561.5,-352 1561.5,-382"/>
<text text-anchor="start" x="1395.5" y="-370" font-family="Helvetica,sans-Serif" font-size="10.00">behaviors/player/PlayerCollision</text>
<text text-anchor="middle" x="1474.5" y="-359" font-family="Helvetica,sans-Serif" font-size="10.00">Behavior.hpp</text>
</a>
</g>
</g>
<!-- Node1&#45;&gt;Node33 -->
<g id="edge56_Node000001_Node000033" class="edge">
<title>Node1&#45;&gt;Node33</title>
<g id="a_edge56_Node000001_Node000033"><a xlink:title=" ">
<path fill="none" stroke="#63b8ff" d="M911.06,-423.53C997.35,-417.22 1202.21,-401.42 1373.5,-382 1374.79,-381.85 1376.08,-381.71 1377.38,-381.55"/>
<polygon fill="#63b8ff" stroke="#63b8ff" points="1377.98,-385.01 1387.49,-380.34 1377.14,-378.06 1377.98,-385.01"/>
</a>
</g>
</g>
<!-- Node35 -->
<g id="Node000035" class="node">
<title>Node35</title>
<g id="a_Node000035"><a xlink:href="../../d0/dd8/PlayerKeyboardBehavior_8hpp.html" target="_top" xlink:title=" ">
<polygon fill="white" stroke="#666666" points="363.5,-382 185.5,-382 185.5,-352 363.5,-352 363.5,-382"/>
<text text-anchor="start" x="193.5" y="-370" font-family="Helvetica,sans-Serif" font-size="10.00">behaviors/player/PlayerKeyboard</text>
<text text-anchor="middle" x="274.5" y="-359" font-family="Helvetica,sans-Serif" font-size="10.00">Behavior.hpp</text>
</a>
</g>
</g>
<!-- Node1&#45;&gt;Node35 -->
<g id="edge60_Node000001_Node000035" class="edge">
<title>Node1&#45;&gt;Node35</title>
<g id="a_edge60_Node000001_Node000035"><a xlink:title=" ">
<path fill="none" stroke="#63b8ff" d="M827.86,-423.52C744.01,-417.34 548.58,-402.15 373.82,-382.11"/>
<polygon fill="#63b8ff" stroke="#63b8ff" points="374.01,-378.61 363.67,-380.94 373.2,-385.57 374.01,-378.61"/>
</a>
</g>
</g>
<!-- Node36 -->
<g id="Node000036" class="node">
<title>Node36</title>
<g id="a_Node000036"><a xlink:href="../../d9/de4/ScoreCounterBehavior_8hpp.html" target="_top" xlink:title=" ">
<polygon fill="white" stroke="#666666" points="944,-382 795,-382 795,-352 944,-352 944,-382"/>
<text text-anchor="start" x="803" y="-370" font-family="Helvetica,sans-Serif" font-size="10.00">behaviors/scoreCounter</text>
<text text-anchor="middle" x="869.5" y="-359" font-family="Helvetica,sans-Serif" font-size="10.00">/ScoreCounterBehavior.hpp</text>
</a>
</g>
</g>
<!-- Node1&#45;&gt;Node36 -->
<g id="edge62_Node000001_Node000036" class="edge">
<title>Node1&#45;&gt;Node36</title>
<g id="a_edge62_Node000001_Node000036"><a xlink:title=" ">
<path fill="none" stroke="#63b8ff" d="M869.5,-417.87C869.5,-411.11 869.5,-401.35 869.5,-392.26"/>
<polygon fill="#63b8ff" stroke="#63b8ff" points="873,-392.11 869.5,-382.11 866,-392.11 873,-392.11"/>
</a>
</g>
</g>
<!-- Node3&#45;&gt;Node4 -->
<g id="edge3_Node000003_Node000004" class="edge">
<title>Node3&#45;&gt;Node4</title>
<g id="a_edge3_Node000003_Node000004"><a xlink:title=" ">
<path fill="none" stroke="#63b8ff" d="M1877.15,-230.97C1870.98,-216.61 1856.34,-187.98 1833.5,-176 1803.99,-160.52 779.61,-138.17 519.22,-132.73"/>
<polygon fill="#63b8ff" stroke="#63b8ff" points="518.91,-129.22 508.84,-132.51 518.76,-136.22 518.91,-129.22"/>
</a>
</g>
</g>
<!-- Node3&#45;&gt;Node8 -->
<g id="edge12_Node000003_Node000008" class="edge">
<title>Node3&#45;&gt;Node8</title>
<g id="a_edge12_Node000003_Node000008"><a xlink:title=" ">
<path fill="none" stroke="#63b8ff" d="M1879.85,-230.7C1878.35,-216.98 1873.45,-190.53 1857.5,-176 1803.45,-126.77 1583.65,-89.92 1492.94,-76.51"/>
<polygon fill="#63b8ff" stroke="#63b8ff" points="1493.19,-73.01 1482.79,-75.03 1492.18,-79.94 1493.19,-73.01"/>
</a>
</g>
</g>
<!-- Node11 -->
<g id="Node000011" class="node">
<title>Node11</title>
<g id="a_Node000011"><a xlink:title=" ">
<polygon fill="#e0e0e0" stroke="#999999" points="1824.5,-195 1718.5,-195 1718.5,-176 1824.5,-176 1824.5,-195"/>
<text text-anchor="middle" x="1771.5" y="-183" font-family="Helvetica,sans-Serif" font-size="10.00">SDL3/SDL_pixels.h</text>
</a>
</g>
</g>
<!-- Node3&#45;&gt;Node11 -->
<g id="edge10_Node000003_Node000011" class="edge">
<title>Node3&#45;&gt;Node11</title>
<g id="a_edge10_Node000003_Node000011"><a xlink:title=" ">
<path fill="none" stroke="#63b8ff" d="M1862.99,-230.98C1845.53,-222.5 1818.49,-209.35 1798.33,-199.54"/>
<polygon fill="#63b8ff" stroke="#63b8ff" points="1799.86,-196.4 1789.33,-195.17 1796.79,-202.69 1799.86,-196.4"/>
</a>
</g>
</g>
<!-- Node12 -->
<g id="Node000012" class="node">
<title>Node12</title>
<g id="a_Node000012"><a xlink:title=" ">
<polygon fill="#e0e0e0" stroke="#999999" points="1623.5,-195 1515.5,-195 1515.5,-176 1623.5,-176 1623.5,-195"/>
<text text-anchor="middle" x="1569.5" y="-183" font-family="Helvetica,sans-Serif" font-size="10.00">SDL3/SDL_render.h</text>
</a>
</g>
</g>
<!-- Node3&#45;&gt;Node12 -->
<g id="edge11_Node000003_Node000012" class="edge">
<title>Node3&#45;&gt;Node12</title>
<g id="a_edge11_Node000003_Node000012"><a xlink:title=" ">
<path fill="none" stroke="#63b8ff" d="M1830.53,-230.98C1775.86,-221.67 1688.25,-206.74 1629.8,-196.78"/>
<polygon fill="#63b8ff" stroke="#63b8ff" points="1630.05,-193.27 1619.6,-195.04 1628.87,-200.17 1630.05,-193.27"/>
</a>
</g>
</g>
<!-- Node5 -->
<g id="Node000005" class="node">
<title>Node5</title>
<g id="a_Node000005"><a xlink:href="../../d9/d4a/Vector2_8hpp.html" target="_top" xlink:title=" ">
<polygon fill="white" stroke="#666666" points="987.5,-79.5 913.5,-79.5 913.5,-60.5 987.5,-60.5 987.5,-79.5"/>
<text text-anchor="middle" x="950.5" y="-67.5" font-family="Helvetica,sans-Serif" font-size="10.00">Vector2.hpp</text>
</a>
</g>
</g>
<!-- Node4&#45;&gt;Node5 -->
<g id="edge4_Node000004_Node000005" class="edge">
<title>Node4&#45;&gt;Node5</title>
<g id="a_edge4_Node000004_Node000005"><a xlink:title=" ">
<path fill="none" stroke="#63b8ff" d="M508.83,-123.62C603.64,-112.33 810.17,-87.72 903.29,-76.62"/>
<polygon fill="#63b8ff" stroke="#63b8ff" points="903.76,-80.09 913.27,-75.44 902.93,-73.14 903.76,-80.09"/>
</a>
</g>
</g>
<!-- Node6 -->
<g id="Node000006" class="node">
<title>Node6</title>
<g id="a_Node000006"><a xlink:href="../../d4/d71/ComponentNotFoundException_8hpp.html" target="_top" xlink:title=" ">
<polygon fill="white" stroke="#666666" points="547.5,-85 371.5,-85 371.5,-55 547.5,-55 547.5,-85"/>
<text text-anchor="start" x="379.5" y="-73" font-family="Helvetica,sans-Serif" font-size="10.00">exceptions/ComponentNotFound</text>
<text text-anchor="middle" x="459.5" y="-62" font-family="Helvetica,sans-Serif" font-size="10.00">Exception.hpp</text>
</a>
</g>
</g>
<!-- Node4&#45;&gt;Node6 -->
<g id="edge5_Node000004_Node000006" class="edge">
<title>Node4&#45;&gt;Node6</title>
<g id="a_edge5_Node000004_Node000006"><a xlink:title=" ">
<path fill="none" stroke="#63b8ff" d="M459.5,-120.87C459.5,-114.11 459.5,-104.35 459.5,-95.26"/>
<polygon fill="#63b8ff" stroke="#63b8ff" points="463,-95.11 459.5,-85.11 456,-95.11 463,-95.11"/>
</a>
</g>
</g>
<!-- Node4&#45;&gt;Node8 -->
<g id="edge7_Node000004_Node000008" class="edge">
<title>Node4&#45;&gt;Node8</title>
<g id="a_edge7_Node000004_Node000008"><a xlink:title=" ">
<path fill="none" stroke="#63b8ff" d="M508.79,-126.6C681.69,-116.42 1258.51,-82.48 1414.39,-73.3"/>
<polygon fill="#63b8ff" stroke="#63b8ff" points="1414.68,-76.79 1424.45,-72.71 1414.27,-69.8 1414.68,-76.79"/>
</a>
</g>
</g>
<!-- Node9 -->
<g id="Node000009" class="node">
<title>Node9</title>
<g id="a_Node000009"><a xlink:title=" ">
<polygon fill="#e0e0e0" stroke="#999999" points="164.5,-79.5 120.5,-79.5 120.5,-60.5 164.5,-60.5 164.5,-79.5"/>
<text text-anchor="middle" x="142.5" y="-67.5" font-family="Helvetica,sans-Serif" font-size="10.00">string</text>
</a>
</g>
</g>
<!-- Node4&#45;&gt;Node9 -->
<g id="edge8_Node000004_Node000009" class="edge">
<title>Node4&#45;&gt;Node9</title>
<g id="a_edge8_Node000004_Node000009"><a xlink:title=" ">
<path fill="none" stroke="#63b8ff" d="M410.35,-121.95C358.31,-113.75 273.86,-99.81 201.5,-85 192.68,-83.19 183.17,-81.03 174.41,-78.95"/>
<polygon fill="#63b8ff" stroke="#63b8ff" points="175.1,-75.52 164.56,-76.58 173.46,-82.33 175.1,-75.52"/>
</a>
</g>
</g>
<!-- Node10 -->
<g id="Node000010" class="node">
<title>Node10</title>
<g id="a_Node000010"><a xlink:title=" ">
<polygon fill="#e0e0e0" stroke="#999999" points="257,-79.5 210,-79.5 210,-60.5 257,-60.5 257,-79.5"/>
<text text-anchor="middle" x="233.5" y="-67.5" font-family="Helvetica,sans-Serif" font-size="10.00">vector</text>
</a>
</g>
</g>
<!-- Node4&#45;&gt;Node10 -->
<g id="edge9_Node000004_Node000010" class="edge">
<title>Node4&#45;&gt;Node10</title>
<g id="a_edge9_Node000004_Node000010"><a xlink:title=" ">
<path fill="none" stroke="#63b8ff" d="M426.64,-120.99C383.91,-109.93 309.69,-90.72 266.76,-79.61"/>
<polygon fill="#63b8ff" stroke="#63b8ff" points="267.63,-76.22 257.08,-77.1 265.88,-83 267.63,-76.22"/>
</a>
</g>
</g>
<!-- Node7 -->
<g id="Node000007" class="node">
<title>Node7</title>
<g id="a_Node000007"><a xlink:title=" ">
<polygon fill="#e0e0e0" stroke="#999999" points="492,-19 427,-19 427,0 492,0 492,-19"/>
<text text-anchor="middle" x="459.5" y="-7" font-family="Helvetica,sans-Serif" font-size="10.00">exception</text>
</a>
</g>
</g>
<!-- Node6&#45;&gt;Node7 -->
<g id="edge6_Node000006_Node000007" class="edge">
<title>Node6&#45;&gt;Node7</title>
<g id="a_edge6_Node000006_Node000007"><a xlink:title=" ">
<path fill="none" stroke="#63b8ff" d="M459.5,-54.84C459.5,-47.21 459.5,-37.7 459.5,-29.45"/>
<polygon fill="#63b8ff" stroke="#63b8ff" points="463,-29.27 459.5,-19.27 456,-29.27 463,-29.27"/>
</a>
</g>
</g>
<!-- Node13&#45;&gt;Node4 -->
<g id="edge15_Node000013_Node000004" class="edge">
<title>Node13&#45;&gt;Node4</title>
<g id="a_edge15_Node000013_Node000004"><a xlink:title=" ">
<path fill="none" stroke="#63b8ff" d="M209.38,-175.98C261.58,-166.7 345.12,-151.84 401.12,-141.88"/>
<polygon fill="#63b8ff" stroke="#63b8ff" points="402.01,-145.28 411.25,-140.08 400.79,-138.39 402.01,-145.28"/>
</a>
</g>
</g>
<!-- Node13&#45;&gt;Node8 -->
<g id="edge16_Node000013_Node000008" class="edge">
<title>Node13&#45;&gt;Node8</title>
<g id="a_edge16_Node000013_Node000008"><a xlink:title=" ">
<path fill="none" stroke="#63b8ff" d="M251.07,-176.63C507.4,-154.11 1236.82,-90.03 1414.25,-74.45"/>
<polygon fill="#63b8ff" stroke="#63b8ff" points="1414.76,-77.92 1424.42,-73.55 1414.15,-70.94 1414.76,-77.92"/>
</a>
</g>
</g>
<!-- Node13&#45;&gt;Node10 -->
<g id="edge17_Node000013_Node000010" class="edge">
<title>Node13&#45;&gt;Node10</title>
<g id="a_edge17_Node000013_Node000010"><a xlink:title=" ">
<path fill="none" stroke="#63b8ff" d="M166.91,-175.97C178.69,-157.4 206.85,-113.01 222.52,-88.32"/>
<polygon fill="#63b8ff" stroke="#63b8ff" points="225.62,-89.95 228.03,-79.63 219.71,-86.2 225.62,-89.95"/>
</a>
</g>
</g>
<!-- Node15 -->
<g id="Node000015" class="node">
<title>Node15</title>
<g id="a_Node000015"><a xlink:href="../../d4/d8e/Behavior_8hpp.html" target="_top" xlink:title=" ">
<polygon fill="white" stroke="#666666" points="970.5,-250 890.5,-250 890.5,-231 970.5,-231 970.5,-250"/>
<text text-anchor="middle" x="930.5" y="-238" font-family="Helvetica,sans-Serif" font-size="10.00">Behavior.hpp</text>
</a>
</g>
</g>
<!-- Node14&#45;&gt;Node15 -->
<g id="edge19_Node000014_Node000015" class="edge">
<title>Node14&#45;&gt;Node15</title>
<g id="a_edge19_Node000014_Node000015"><a xlink:title=" ">
<path fill="none" stroke="#63b8ff" d="M1139.63,-285.99C1090.84,-275.61 1025.34,-261.68 980.74,-252.19"/>
<polygon fill="#63b8ff" stroke="#63b8ff" points="981.22,-248.71 970.71,-250.05 979.76,-255.56 981.22,-248.71"/>
</a>
</g>
</g>
<!-- Node16 -->
<g id="Node000016" class="node">
<title>Node16</title>
<g id="a_Node000016"><a xlink:href="../../d2/d69/GameObjectComponent_8hpp.html" target="_top" xlink:title=" ">
<polygon fill="white" stroke="#666666" points="1012.5,-195 848.5,-195 848.5,-176 1012.5,-176 1012.5,-195"/>
<text text-anchor="middle" x="930.5" y="-183" font-family="Helvetica,sans-Serif" font-size="10.00">../GameObjectComponent.hpp</text>
</a>
</g>
</g>
<!-- Node15&#45;&gt;Node16 -->
<g id="edge20_Node000015_Node000016" class="edge">
<title>Node15&#45;&gt;Node16</title>
<g id="a_edge20_Node000015_Node000016"><a xlink:title=" ">
<path fill="none" stroke="#63b8ff" d="M930.5,-230.75C930.5,-223.8 930.5,-213.85 930.5,-205.13"/>
<polygon fill="#63b8ff" stroke="#63b8ff" points="934,-205.09 930.5,-195.09 927,-205.09 934,-205.09"/>
</a>
</g>
</g>
<!-- Node16&#45;&gt;Node4 -->
<g id="edge22_Node000016_Node000004" class="edge">
<title>Node16&#45;&gt;Node4</title>
<g id="a_edge22_Node000016_Node000004"><a xlink:title=" ">
<path fill="none" stroke="#63b8ff" d="M854.83,-175.98C761.24,-165.45 603.91,-147.75 518.68,-138.16"/>
<polygon fill="#63b8ff" stroke="#63b8ff" points="518.98,-134.67 508.65,-137.03 518.2,-141.63 518.98,-134.67"/>
</a>
</g>
</g>
<!-- Node17 -->
<g id="Node000017" class="node">
<title>Node17</title>
<g id="a_Node000017"><a xlink:title=" ">
<polygon fill="#e0e0e0" stroke="#999999" points="957,-140 904,-140 904,-121 957,-121 957,-140"/>
<text text-anchor="middle" x="930.5" y="-128" font-family="Helvetica,sans-Serif" font-size="10.00">cstddef</text>
</a>
</g>
</g>
<!-- Node16&#45;&gt;Node17 -->
<g id="edge21_Node000016_Node000017" class="edge">
<title>Node16&#45;&gt;Node17</title>
<g id="a_edge21_Node000016_Node000017"><a xlink:title=" ">
<path fill="none" stroke="#63b8ff" d="M930.5,-175.75C930.5,-168.8 930.5,-158.85 930.5,-150.13"/>
<polygon fill="#63b8ff" stroke="#63b8ff" points="934,-150.09 930.5,-140.09 927,-150.09 934,-150.09"/>
</a>
</g>
</g>
<!-- Node18&#45;&gt;Node15 -->
<g id="edge24_Node000018_Node000015" class="edge">
<title>Node18&#45;&gt;Node15</title>
<g id="a_edge24_Node000018_Node000015"><a xlink:title=" ">
<path fill="none" stroke="#63b8ff" d="M716.81,-285.99C767.07,-275.52 834.68,-261.45 880.28,-251.96"/>
<polygon fill="#63b8ff" stroke="#63b8ff" points="881.15,-255.35 890.23,-249.88 879.73,-248.5 881.15,-255.35"/>
</a>
</g>
</g>
<!-- Node19&#45;&gt;Node9 -->
<g id="edge32_Node000019_Node000009" class="edge">
<title>Node19&#45;&gt;Node9</title>
<g id="a_edge32_Node000019_Node000009"><a xlink:title=" ">
<path fill="none" stroke="#63b8ff" d="M181.69,-285.97C142.16,-270.65 86.61,-241.84 62.5,-195 41.16,-153.53 90.62,-108.34 120.98,-85.69"/>
<polygon fill="#63b8ff" stroke="#63b8ff" points="123.26,-88.36 129.32,-79.66 119.17,-82.68 123.26,-88.36"/>
</a>
</g>
</g>
<!-- Node20 -->
<g id="Node000020" class="node">
<title>Node20</title>
<g id="a_Node000020"><a xlink:href="../../dd/db8/Renderer_8hpp.html" target="_top" xlink:title=" ">
<polygon fill="white" stroke="#666666" points="1525,-250 1444,-250 1444,-231 1525,-231 1525,-250"/>
<text text-anchor="middle" x="1484.5" y="-238" font-family="Helvetica,sans-Serif" font-size="10.00">Renderer.hpp</text>
</a>
</g>
</g>
<!-- Node19&#45;&gt;Node20 -->
<g id="edge26_Node000019_Node000020" class="edge">
<title>Node19&#45;&gt;Node20</title>
<g id="a_edge26_Node000019_Node000020"><a xlink:title=" ">
<path fill="none" stroke="#63b8ff" d="M303.23,-287.01C306.36,-286.64 309.46,-286.3 312.5,-286 534.97,-263.96 1238.08,-246.99 1433.61,-242.61"/>
<polygon fill="#63b8ff" stroke="#63b8ff" points="1433.96,-246.1 1443.88,-242.38 1433.8,-239.1 1433.96,-246.1"/>
</a>
</g>
</g>
<!-- Node21 -->
<g id="Node000021" class="node">
<title>Node21</title>
<g id="a_Node000021"><a xlink:title=" ">
<polygon fill="#e0e0e0" stroke="#999999" points="473.5,-250 401.5,-250 401.5,-231 473.5,-231 473.5,-250"/>
<text text-anchor="middle" x="437.5" y="-238" font-family="Helvetica,sans-Serif" font-size="10.00">SDL3/SDL.h</text>
</a>
</g>
</g>
<!-- Node19&#45;&gt;Node21 -->
<g id="edge29_Node000019_Node000021" class="edge">
<title>Node19&#45;&gt;Node21</title>
<g id="a_edge29_Node000019_Node000021"><a xlink:title=" ">
<path fill="none" stroke="#63b8ff" d="M276.28,-285.99C313.18,-275.8 362.48,-262.2 396.8,-252.73"/>
<polygon fill="#63b8ff" stroke="#63b8ff" points="397.79,-256.09 406.5,-250.05 395.93,-249.34 397.79,-256.09"/>
</a>
</g>
</g>
<!-- Node22 -->
<g id="Node000022" class="node">
<title>Node22</title>
<g id="a_Node000022"><a xlink:title=" ">
<polygon fill="#e0e0e0" stroke="#999999" points="261,-250 148,-250 148,-231 261,-231 261,-250"/>
<text text-anchor="middle" x="204.5" y="-238" font-family="Helvetica,sans-Serif" font-size="10.00">SDL3/SDL_surface.h</text>
</a>
</g>
</g>
<!-- Node19&#45;&gt;Node22 -->
<g id="edge30_Node000019_Node000022" class="edge">
<title>Node19&#45;&gt;Node22</title>
<g id="a_edge30_Node000019_Node000022"><a xlink:title=" ">
<path fill="none" stroke="#63b8ff" d="M220.42,-285.84C217.62,-278.04 214.11,-268.27 211.1,-259.89"/>
<polygon fill="#63b8ff" stroke="#63b8ff" points="214.32,-258.5 207.65,-250.27 207.73,-260.86 214.32,-258.5"/>
</a>
</g>
</g>
<!-- Node23 -->
<g id="Node000023" class="node">
<title>Node23</title>
<g id="a_Node000023"><a xlink:title=" ">
<polygon fill="#e0e0e0" stroke="#999999" points="383.5,-250 279.5,-250 279.5,-231 383.5,-231 383.5,-250"/>
<text text-anchor="middle" x="331.5" y="-238" font-family="Helvetica,sans-Serif" font-size="10.00">SDL3_ttf/SDL_ttf.h</text>
</a>
</g>
</g>
<!-- Node19&#45;&gt;Node23 -->
<g id="edge31_Node000019_Node000023" class="edge">
<title>Node19&#45;&gt;Node23</title>
<g id="a_edge31_Node000019_Node000023"><a xlink:title=" ">
<path fill="none" stroke="#63b8ff" d="M250.89,-285.99C267.79,-276.66 289.88,-264.47 306.66,-255.21"/>
<polygon fill="#63b8ff" stroke="#63b8ff" points="308.78,-258.04 315.85,-250.14 305.4,-251.91 308.78,-258.04"/>
</a>
</g>
</g>
<!-- Node20&#45;&gt;Node12 -->
<g id="edge28_Node000020_Node000012" class="edge">
<title>Node20&#45;&gt;Node12</title>
<g id="a_edge28_Node000020_Node000012"><a xlink:title=" ">
<path fill="none" stroke="#63b8ff" d="M1498.16,-230.98C1511.34,-222.77 1531.53,-210.18 1547.07,-200.49"/>
<polygon fill="#63b8ff" stroke="#63b8ff" points="1548.96,-203.43 1555.59,-195.17 1545.26,-197.49 1548.96,-203.43"/>
</a>
</g>
</g>
<!-- Node20&#45;&gt;Node16 -->
<g id="edge27_Node000020_Node000016" class="edge">
<title>Node20&#45;&gt;Node16</title>
<g id="a_edge27_Node000020_Node000016"><a xlink:title=" ">
<path fill="none" stroke="#63b8ff" d="M1443.76,-235.6C1355.54,-227.16 1144.91,-207.01 1022.66,-195.32"/>
<polygon fill="#63b8ff" stroke="#63b8ff" points="1022.85,-191.82 1012.56,-194.35 1022.18,-198.79 1022.85,-191.82"/>
</a>
</g>
</g>
<!-- Node24&#45;&gt;Node5 -->
<g id="edge34_Node000024_Node000005" class="edge">
<title>Node24&#45;&gt;Node5</title>
<g id="a_edge34_Node000024_Node000005"><a xlink:title=" ">
<path fill="none" stroke="#63b8ff" d="M1770.23,-285.85C1747.56,-258.62 1693.39,-199.55 1632.5,-176 1406.32,-88.53 1111.4,-73.74 997.88,-71.38"/>
<polygon fill="#63b8ff" stroke="#63b8ff" points="997.85,-67.88 987.79,-71.19 997.72,-74.88 997.85,-67.88"/>
</a>
</g>
</g>
<!-- Node24&#45;&gt;Node8 -->
<g id="edge39_Node000024_Node000008" class="edge">
<title>Node24&#45;&gt;Node8</title>
<g id="a_edge39_Node000024_Node000008"><a xlink:title=" ">
<path fill="none" stroke="#63b8ff" d="M1872.63,-295.57C1927.35,-288.74 1982.48,-271.93 1960.5,-231 1939.56,-192.01 1915.81,-198.16 1877.5,-176 1830.19,-148.63 1819.54,-137.71 1767.5,-121 1671.81,-90.27 1553.41,-77.96 1493,-73.41"/>
<polygon fill="#63b8ff" stroke="#63b8ff" points="1492.99,-69.9 1482.76,-72.67 1492.48,-76.88 1492.99,-69.9"/>
</a>
</g>
</g>
<!-- Node24&#45;&gt;Node11 -->
<g id="edge36_Node000024_Node000011" class="edge">
<title>Node24&#45;&gt;Node11</title>
<g id="a_edge36_Node000024_Node000011"><a xlink:title=" ">
<path fill="none" stroke="#63b8ff" d="M1780.23,-285.63C1778.44,-265.21 1775.14,-227.81 1773.15,-205.24"/>
<polygon fill="#63b8ff" stroke="#63b8ff" points="1776.63,-204.88 1772.27,-195.23 1769.66,-205.5 1776.63,-204.88"/>
</a>
</g>
</g>
<!-- Node24&#45;&gt;Node12 -->
<g id="edge38_Node000024_Node000012" class="edge">
<title>Node24&#45;&gt;Node12</title>
<g id="a_edge38_Node000024_Node000012"><a xlink:title=" ">
<path fill="none" stroke="#63b8ff" d="M1764.9,-285.83C1746.62,-270.75 1715.9,-246.9 1686.5,-231 1661.41,-217.43 1631.29,-206.08 1607.9,-198.24"/>
<polygon fill="#63b8ff" stroke="#63b8ff" points="1608.91,-194.88 1598.32,-195.09 1606.73,-201.54 1608.91,-194.88"/>
</a>
</g>
</g>
<!-- Node24&#45;&gt;Node20 -->
<g id="edge35_Node000024_Node000020" class="edge">
<title>Node24&#45;&gt;Node20</title>
<g id="a_edge35_Node000024_Node000020"><a xlink:title=" ">
<path fill="none" stroke="#63b8ff" d="M1710.36,-285.99C1656.37,-275.35 1583.45,-260.99 1535.25,-251.5"/>
<polygon fill="#63b8ff" stroke="#63b8ff" points="1535.84,-248.05 1525.35,-249.55 1534.49,-254.91 1535.84,-248.05"/>
</a>
</g>
</g>
<!-- Node25 -->
<g id="Node000025" class="node">
<title>Node25</title>
<g id="a_Node000025"><a xlink:title=" ">
<polygon fill="#e0e0e0" stroke="#999999" points="1677.5,-250 1581.5,-250 1581.5,-231 1677.5,-231 1677.5,-250"/>
<text text-anchor="middle" x="1629.5" y="-238" font-family="Helvetica,sans-Serif" font-size="10.00">SDL3/SDL_rect.h</text>
</a>
</g>
</g>
<!-- Node24&#45;&gt;Node25 -->
<g id="edge37_Node000024_Node000025" class="edge">
<title>Node24&#45;&gt;Node25</title>
<g id="a_edge37_Node000024_Node000025"><a xlink:title=" ">
<path fill="none" stroke="#63b8ff" d="M1745.09,-285.99C1719.62,-276.18 1685.91,-263.21 1661.47,-253.81"/>
<polygon fill="#63b8ff" stroke="#63b8ff" points="1662.54,-250.46 1651.95,-250.14 1660.02,-257 1662.54,-250.46"/>
</a>
</g>
</g>
<!-- Node26&#45;&gt;Node8 -->
<g id="edge44_Node000026_Node000008" class="edge">
<title>Node26&#45;&gt;Node8</title>
<g id="a_edge44_Node000026_Node000008"><a xlink:title=" ">
<path fill="none" stroke="#63b8ff" d="M1519.73,-285.91C1484.22,-277 1445.96,-264.46 1435.5,-250 1426.25,-237.23 1442.8,-133.21 1450.2,-89.86"/>
<polygon fill="#63b8ff" stroke="#63b8ff" points="1453.68,-90.25 1451.93,-79.8 1446.78,-89.06 1453.68,-90.25"/>
</a>
</g>
</g>
<!-- Node26&#45;&gt;Node12 -->
<g id="edge43_Node000026_Node000012" class="edge">
<title>Node26&#45;&gt;Node12</title>
<g id="a_edge43_Node000026_Node000012"><a xlink:title=" ">
<path fill="none" stroke="#63b8ff" d="M1582.22,-285.78C1578.8,-275.89 1574.61,-262.33 1572.5,-250 1569.97,-235.17 1569.28,-218.14 1569.19,-205.45"/>
<polygon fill="#63b8ff" stroke="#63b8ff" points="1572.69,-205.22 1569.24,-195.2 1565.69,-205.18 1572.69,-205.22"/>
</a>
</g>
</g>
<!-- Node26&#45;&gt;Node20 -->
<g id="edge41_Node000026_Node000020" class="edge">
<title>Node26&#45;&gt;Node20</title>
<g id="a_edge41_Node000026_Node000020"><a xlink:title=" ">
<path fill="none" stroke="#63b8ff" d="M1562.83,-285.99C1546.41,-276.66 1524.95,-264.47 1508.64,-255.21"/>
<polygon fill="#63b8ff" stroke="#63b8ff" points="1510.13,-252.03 1499.71,-250.14 1506.68,-258.12 1510.13,-252.03"/>
</a>
</g>
</g>
<!-- Node26&#45;&gt;Node25 -->
<g id="edge42_Node000026_Node000025" class="edge">
<title>Node26&#45;&gt;Node25</title>
<g id="a_edge42_Node000026_Node000025"><a xlink:title=" ">
<path fill="none" stroke="#63b8ff" d="M1597.67,-285.84C1603.58,-277.61 1611.06,-267.18 1617.29,-258.51"/>
<polygon fill="#63b8ff" stroke="#63b8ff" points="1620.22,-260.43 1623.21,-250.27 1614.53,-256.35 1620.22,-260.43"/>
</a>
</g>
</g>
<!-- Node27&#45;&gt;Node15 -->
<g id="edge46_Node000027_Node000015" class="edge">
<title>Node27&#45;&gt;Node15</title>
<g id="a_edge46_Node000027_Node000015"><a xlink:title=" ">
<path fill="none" stroke="#63b8ff" d="M722.65,-351.88C744.09,-334.71 782.37,-305.6 818.5,-286 842.85,-272.79 871.97,-261.34 894.42,-253.36"/>
<polygon fill="#63b8ff" stroke="#63b8ff" points="895.61,-256.65 903.91,-250.06 893.31,-250.04 895.61,-256.65"/>
</a>
</g>
</g>
<!-- Node28&#45;&gt;Node15 -->
<g id="edge48_Node000028_Node000015" class="edge">
<title>Node28&#45;&gt;Node15</title>
<g id="a_edge48_Node000028_Node000015"><a xlink:title=" ">
<path fill="none" stroke="#63b8ff" d="M1042.98,-351.84C1046.33,-334.64 1049.12,-305.49 1035.5,-286 1022.73,-267.73 1000.89,-256.92 980.42,-250.55"/>
<polygon fill="#63b8ff" stroke="#63b8ff" points="981.1,-247.1 970.53,-247.76 979.2,-253.84 981.1,-247.1"/>
</a>
</g>
</g>
<!-- Node29 -->
<g id="Node000029" class="node">
<title>Node29</title>
<g id="a_Node000029"><a xlink:title=" ">
<polygon fill="#e0e0e0" stroke="#999999" points="1026,-310.5 979,-310.5 979,-291.5 1026,-291.5 1026,-310.5"/>
<text text-anchor="middle" x="1002.5" y="-298.5" font-family="Helvetica,sans-Serif" font-size="10.00">cmath</text>
</a>
</g>
</g>
<!-- Node28&#45;&gt;Node29 -->
<g id="edge49_Node000028_Node000029" class="edge">
<title>Node28&#45;&gt;Node29</title>
<g id="a_edge49_Node000028_Node000029"><a xlink:title=" ">
<path fill="none" stroke="#63b8ff" d="M1031.29,-351.8C1025.8,-342.31 1018.55,-329.76 1012.69,-319.63"/>
<polygon fill="#63b8ff" stroke="#63b8ff" points="1015.65,-317.75 1007.61,-310.84 1009.59,-321.25 1015.65,-317.75"/>
</a>
</g>
</g>
<!-- Node31 -->
<g id="Node000031" class="node">
<title>Node31</title>
<g id="a_Node000031"><a xlink:href="../../de/dfb/KeyboardHandlerBehavior_8hpp.html" target="_top" xlink:title=" ">
<polygon fill="white" stroke="#666666" points="539.5,-316 321.5,-316 321.5,-286 539.5,-286 539.5,-316"/>
<text text-anchor="start" x="329.5" y="-304" font-family="Helvetica,sans-Serif" font-size="10.00">../../../engine/components</text>
<text text-anchor="middle" x="430.5" y="-293" font-family="Helvetica,sans-Serif" font-size="10.00">/behaviors/KeyboardHandlerBehavior.hpp</text>
</a>
</g>
</g>
<!-- Node30&#45;&gt;Node31 -->
<g id="edge51_Node000030_Node000031" class="edge">
<title>Node30&#45;&gt;Node31</title>
<g id="a_edge51_Node000030_Node000031"><a xlink:title=" ">
<path fill="none" stroke="#63b8ff" d="M468.63,-351.8C462.41,-343.68 454.48,-333.31 447.46,-324.15"/>
<polygon fill="#63b8ff" stroke="#63b8ff" points="450.2,-321.98 441.34,-316.16 444.64,-326.23 450.2,-321.98"/>
</a>
</g>
</g>
<!-- Node31&#45;&gt;Node15 -->
<g id="edge52_Node000031_Node000015" class="edge">
<title>Node31&#45;&gt;Node15</title>
<g id="a_edge52_Node000031_Node000015"><a xlink:title=" ">
<path fill="none" stroke="#63b8ff" d="M539.79,-287.03C542.72,-286.68 545.63,-286.34 548.5,-286 667.32,-272.03 806.96,-255.81 880.06,-247.34"/>
<polygon fill="#63b8ff" stroke="#63b8ff" points="880.82,-250.78 890.35,-246.15 880.01,-243.82 880.82,-250.78"/>
</a>
</g>
</g>
<!-- Node31&#45;&gt;Node21 -->
<g id="edge53_Node000031_Node000021" class="edge">
<title>Node31&#45;&gt;Node21</title>
<g id="a_edge53_Node000031_Node000021"><a xlink:title=" ">
<path fill="none" stroke="#63b8ff" d="M432.19,-285.84C433.11,-278.21 434.24,-268.7 435.23,-260.45"/>
<polygon fill="#63b8ff" stroke="#63b8ff" points="438.74,-260.61 436.45,-250.27 431.79,-259.78 438.74,-260.61"/>
</a>
</g>
</g>
<!-- Node32&#45;&gt;Node15 -->
<g id="edge55_Node000032_Node000015" class="edge">
<title>Node32&#45;&gt;Node15</title>
<g id="a_edge55_Node000032_Node000015"><a xlink:title=" ">
<path fill="none" stroke="#63b8ff" d="M1210.76,-357.37C1186.06,-347.85 1145.57,-331.76 1111.5,-316 1085.16,-303.82 1080.09,-297.63 1053.5,-286 1024.97,-273.52 991.72,-261.65 966.99,-253.31"/>
<polygon fill="#63b8ff" stroke="#63b8ff" points="967.88,-249.91 957.28,-250.07 965.66,-256.55 967.88,-249.91"/>
</a>
</g>
</g>
<!-- Node34 -->
<g id="Node000034" class="node">
<title>Node34</title>
<g id="a_Node000034"><a xlink:href="../../dc/d19/CollisionBehavior_8hpp.html" target="_top" xlink:title=" ">
<polygon fill="white" stroke="#666666" points="1484.5,-316 1308.5,-316 1308.5,-286 1484.5,-286 1484.5,-316"/>
<text text-anchor="start" x="1316.5" y="-304" font-family="Helvetica,sans-Serif" font-size="10.00">../../../engine/components</text>
<text text-anchor="middle" x="1396.5" y="-293" font-family="Helvetica,sans-Serif" font-size="10.00">/behaviors/CollisionBehavior.hpp</text>
</a>
</g>
</g>
<!-- Node33&#45;&gt;Node34 -->
<g id="edge57_Node000033_Node000034" class="edge">
<title>Node33&#45;&gt;Node34</title>
<g id="a_edge57_Node000033_Node000034"><a xlink:title=" ">
<path fill="none" stroke="#63b8ff" d="M1457.19,-351.8C1446.79,-343.26 1433.37,-332.25 1421.79,-322.75"/>
<polygon fill="#63b8ff" stroke="#63b8ff" points="1423.71,-319.8 1413.76,-316.16 1419.27,-325.21 1423.71,-319.8"/>
</a>
</g>
</g>
<!-- Node34&#45;&gt;Node8 -->
<g id="edge59_Node000034_Node000008" class="edge">
<title>Node34&#45;&gt;Node8</title>
<g id="a_edge59_Node000034_Node000008"><a xlink:title=" ">
<path fill="none" stroke="#63b8ff" d="M1396.53,-285.86C1396.79,-271.82 1397.83,-249.74 1401.5,-231 1411.84,-178.16 1434.26,-118.44 1445.99,-89.16"/>
<polygon fill="#63b8ff" stroke="#63b8ff" points="1449.27,-90.4 1449.79,-79.82 1442.78,-87.77 1449.27,-90.4"/>
</a>
</g>
</g>
<!-- Node34&#45;&gt;Node15 -->
<g id="edge58_Node000034_Node000015" class="edge">
<title>Node34&#45;&gt;Node15</title>
<g id="a_edge58_Node000034_Node000015"><a xlink:title=" ">
<path fill="none" stroke="#63b8ff" d="M1308.48,-287.21C1305.45,-286.79 1302.45,-286.39 1299.5,-286 1185.64,-270.92 1051.72,-255.3 980.69,-247.18"/>
<polygon fill="#63b8ff" stroke="#63b8ff" points="981,-243.69 970.67,-246.03 980.21,-250.65 981,-243.69"/>
</a>
</g>
</g>
<!-- Node35&#45;&gt;Node31 -->
<g id="edge61_Node000035_Node000031" class="edge">
<title>Node35&#45;&gt;Node31</title>
<g id="a_edge61_Node000035_Node000031"><a xlink:title=" ">
<path fill="none" stroke="#63b8ff" d="M308.73,-351.95C331.7,-342.53 362.14,-330.04 386.84,-319.91"/>
<polygon fill="#63b8ff" stroke="#63b8ff" points="388.42,-323.05 396.34,-316.01 385.76,-316.57 388.42,-323.05"/>
</a>
</g>
</g>
<!-- Node36&#45;&gt;Node15 -->
<g id="edge64_Node000036_Node000015" class="edge">
<title>Node36&#45;&gt;Node15</title>
<g id="a_edge64_Node000036_Node000015"><a xlink:title=" ">
<path fill="none" stroke="#63b8ff" d="M852.89,-351.95C835.64,-335.59 813.02,-308.02 827.5,-286 839.45,-267.81 860.59,-257.03 880.62,-250.64"/>
<polygon fill="#63b8ff" stroke="#63b8ff" points="881.67,-253.98 890.32,-247.85 879.74,-247.25 881.67,-253.98"/>
</a>
</g>
</g>
<!-- Node37 -->
<g id="Node000037" class="node">
<title>Node37</title>
<g id="a_Node000037"><a xlink:href="../../d9/de7/Time_8hpp.html" target="_top" xlink:title=" ">
<polygon fill="white" stroke="#666666" points="961,-310.5 836,-310.5 836,-291.5 961,-291.5 961,-310.5"/>
<text text-anchor="middle" x="898.5" y="-298.5" font-family="Helvetica,sans-Serif" font-size="10.00">../../../engine/Time.hpp</text>
</a>
</g>
</g>
<!-- Node36&#45;&gt;Node37 -->
<g id="edge63_Node000036_Node000037" class="edge">
<title>Node36&#45;&gt;Node37</title>
<g id="a_edge63_Node000036_Node000037"><a xlink:title=" ">
<path fill="none" stroke="#63b8ff" d="M875.94,-351.8C880.15,-342.5 885.69,-330.27 890.23,-320.26"/>
<polygon fill="#63b8ff" stroke="#63b8ff" points="893.55,-321.4 894.49,-310.84 887.18,-318.51 893.55,-321.4"/>
</a>
</g>
</g>
</g>
</svg>
