<?xml version="1.0" encoding="UTF-8" standalone="no"?>
<!DOCTYPE svg PUBLIC "-//W3C//DTD SVG 1.1//EN"
 "http://www.w3.org/Graphics/SVG/1.1/DTD/svg11.dtd">
<!-- Generated by graphviz version 2.43.0 (0)
 -->
<!-- Title: game/Init.cpp Pages: 1 -->
<svg width="2063pt" height="445pt"
 viewBox="0.00 0.00 2062.50 445.00" xmlns="http://www.w3.org/2000/svg" xmlns:xlink="http://www.w3.org/1999/xlink">
<g id="graph0" class="graph" transform="scale(1 1) rotate(0) translate(4 441)">
<title>game/Init.cpp</title>
<!-- Node1 -->
<g id="Node000001" class="node">
<title>Node1</title>
<g id="a_Node000001"><a xlink:title=" ">
<polygon fill="#999999" stroke="#666666" points="891,-437 808,-437 808,-418 891,-418 891,-437"/>
<text text-anchor="middle" x="849.5" y="-425" font-family="Helvetica,sans-Serif" font-size="10.00">game/Init.cpp</text>
</a>
</g>
</g>
<!-- Node2 -->
<g id="Node000002" class="node">
<title>Node2</title>
<g id="a_Node000002"><a xlink:href="../../d3/de1/Init_8hpp.html" target="_top" xlink:title=" ">
<polygon fill="white" stroke="#666666" points="53,-376.5 0,-376.5 0,-357.5 53,-357.5 53,-376.5"/>
<text text-anchor="middle" x="26.5" y="-364.5" font-family="Helvetica,sans-Serif" font-size="10.00">Init.hpp</text>
</a>
</g>
</g>
<!-- Node1&#45;&gt;Node2 -->
<g id="edge1_Node000001_Node000002" class="edge">
<title>Node1&#45;&gt;Node2</title>
<g id="a_edge1_Node000001_Node000002"><a xlink:title=" ">
<path fill="none" stroke="#63b8ff" d="M807.77,-425.62C667.14,-422.42 211.3,-410.1 67.5,-382 64.25,-381.37 60.91,-380.54 57.6,-379.6"/>
<polygon fill="#63b8ff" stroke="#63b8ff" points="58.49,-376.21 47.9,-376.53 56.39,-382.88 58.49,-376.21"/>
</a>
</g>
</g>
<!-- Node3 -->
<g id="Node000003" class="node">
<title>Node3</title>
<g id="a_Node000003"><a xlink:href="../../d6/d76/AssetLoading_8hpp.html" target="_top" xlink:title=" ">
<polygon fill="white" stroke="#666666" points="627.5,-140 479.5,-140 479.5,-121 627.5,-121 627.5,-140"/>
<text text-anchor="middle" x="553.5" y="-128" font-family="Helvetica,sans-Serif" font-size="10.00">../engine/AssetLoading.hpp</text>
</a>
</g>
</g>
<!-- Node1&#45;&gt;Node3 -->
<g id="edge2_Node000001_Node000003" class="edge">
<title>Node1&#45;&gt;Node3</title>
<g id="a_edge2_Node000001_Node000003"><a xlink:title=" ">
<path fill="none" stroke="#63b8ff" d="M807.82,-426.75C659.14,-427.26 160.67,-425.67 105.5,-382 76.39,-358.96 81.5,-339.12 81.5,-302 81.5,-302 81.5,-302 81.5,-239.5 81.5,-209.33 81.56,-194.36 105.5,-176 133.66,-154.4 347.41,-141.05 469.2,-135.12"/>
<polygon fill="#63b8ff" stroke="#63b8ff" points="469.43,-138.61 479.25,-134.63 469.09,-131.62 469.43,-138.61"/>
</a>
</g>
</g>
<!-- Node5 -->
<g id="Node000005" class="node">
<title>Node5</title>
<g id="a_Node000005"><a xlink:href="../../d7/dd0/GameManagement_8hpp.html" target="_top" xlink:title=" ">
<polygon fill="white" stroke="#666666" points="1584.5,-250 1408.5,-250 1408.5,-231 1584.5,-231 1584.5,-250"/>
<text text-anchor="middle" x="1496.5" y="-238" font-family="Helvetica,sans-Serif" font-size="10.00">../engine/GameManagement.hpp</text>
</a>
</g>
</g>
<!-- Node1&#45;&gt;Node5 -->
<g id="edge4_Node000001_Node000005" class="edge">
<title>Node1&#45;&gt;Node5</title>
<g id="a_edge4_Node000001_Node000005"><a xlink:title=" ">
<path fill="none" stroke="#63b8ff" d="M891.2,-425.41C1038.52,-421.35 1526.87,-406.11 1549.5,-382 1583.27,-346.01 1538.11,-286.42 1512.29,-257.81"/>
<polygon fill="#63b8ff" stroke="#63b8ff" points="1514.68,-255.24 1505.3,-250.3 1509.55,-260 1514.68,-255.24"/>
</a>
</g>
</g>
<!-- Node6 -->
<g id="Node000006" class="node">
<title>Node6</title>
<g id="a_Node000006"><a xlink:href="../../d4/db5/GameObject_8hpp.html" target="_top" xlink:title=" ">
<polygon fill="white" stroke="#666666" points="1289.5,-140 1191.5,-140 1191.5,-121 1289.5,-121 1289.5,-140"/>
<text text-anchor="middle" x="1240.5" y="-128" font-family="Helvetica,sans-Serif" font-size="10.00">GameObject.hpp</text>
</a>
</g>
</g>
<!-- Node1&#45;&gt;Node6 -->
<g id="edge16_Node000001_Node000006" class="edge">
<title>Node1&#45;&gt;Node6</title>
<g id="a_edge16_Node000001_Node000006"><a xlink:title=" ">
<path fill="none" stroke="#63b8ff" d="M807.68,-426.7C663.16,-427.02 190.88,-424.77 139.5,-382 111.33,-358.55 119.5,-338.65 119.5,-302 119.5,-302 119.5,-302 119.5,-239.5 119.5,-131.85 949.19,-129.49 1180.99,-130.93"/>
<polygon fill="#63b8ff" stroke="#63b8ff" points="1181.23,-134.43 1191.25,-131 1181.27,-127.43 1181.23,-134.43"/>
</a>
</g>
</g>
<!-- Node10 -->
<g id="Node000010" class="node">
<title>Node10</title>
<g id="a_Node000010"><a xlink:title=" ">
<polygon fill="#e0e0e0" stroke="#999999" points="1580.5,-79.5 1522.5,-79.5 1522.5,-60.5 1580.5,-60.5 1580.5,-79.5"/>
<text text-anchor="middle" x="1551.5" y="-67.5" font-family="Helvetica,sans-Serif" font-size="10.00">memory</text>
</a>
</g>
</g>
<!-- Node1&#45;&gt;Node10 -->
<g id="edge63_Node000001_Node000010" class="edge">
<title>Node1&#45;&gt;Node10</title>
<g id="a_edge63_Node000001_Node000010"><a xlink:title=" ">
<path fill="none" stroke="#63b8ff" d="M891.33,-426.66C1103.91,-426.95 2054.5,-421.55 2054.5,-302 2054.5,-302 2054.5,-302 2054.5,-184.5 2054.5,-89.56 1709.23,-74.03 1590.8,-71.49"/>
<polygon fill="#63b8ff" stroke="#63b8ff" points="1590.78,-67.99 1580.72,-71.3 1590.65,-74.99 1590.78,-67.99"/>
</a>
</g>
</g>
<!-- Node14 -->
<g id="Node000014" class="node">
<title>Node14</title>
<g id="a_Node000014"><a xlink:href="../../d5/d6d/GravityBehavior_8hpp.html" target="_top" xlink:title=" ">
<polygon fill="white" stroke="#666666" points="488.5,-316 318.5,-316 318.5,-286 488.5,-286 488.5,-316"/>
<text text-anchor="start" x="326.5" y="-304" font-family="Helvetica,sans-Serif" font-size="10.00">../engine/components</text>
<text text-anchor="middle" x="403.5" y="-293" font-family="Helvetica,sans-Serif" font-size="10.00">/behaviors/GravityBehavior.hpp</text>
</a>
</g>
</g>
<!-- Node1&#45;&gt;Node14 -->
<g id="edge17_Node000001_Node000014" class="edge">
<title>Node1&#45;&gt;Node14</title>
<g id="a_edge17_Node000001_Node000014"><a xlink:title=" ">
<path fill="none" stroke="#63b8ff" d="M807.55,-426.52C750.29,-425.12 645.51,-417.36 564.5,-382 544.78,-373.39 545.1,-362.83 526.5,-352 504.46,-339.17 478.5,-328.09 456.12,-319.65"/>
<polygon fill="#63b8ff" stroke="#63b8ff" points="457.04,-316.25 446.45,-316.07 454.62,-322.82 457.04,-316.25"/>
</a>
</g>
</g>
<!-- Node18 -->
<g id="Node000018" class="node">
<title>Node18</title>
<g id="a_Node000018"><a xlink:href="../../dc/da8/KinematicBehavior_8hpp.html" target="_top" xlink:title=" ">
<polygon fill="white" stroke="#666666" points="872.5,-316 688.5,-316 688.5,-286 872.5,-286 872.5,-316"/>
<text text-anchor="start" x="696.5" y="-304" font-family="Helvetica,sans-Serif" font-size="10.00">../engine/components</text>
<text text-anchor="middle" x="780.5" y="-293" font-family="Helvetica,sans-Serif" font-size="10.00">/behaviors/KinematicBehavior.hpp</text>
</a>
</g>
</g>
<!-- Node1&#45;&gt;Node18 -->
<g id="edge22_Node000001_Node000018" class="edge">
<title>Node1&#45;&gt;Node18</title>
<g id="a_edge22_Node000001_Node000018"><a xlink:title=" ">
<path fill="none" stroke="#63b8ff" d="M818.45,-417.87C800.75,-411.18 780.05,-399.95 769.5,-382 759.5,-364.99 763.82,-342.49 769.74,-325.69"/>
<polygon fill="#63b8ff" stroke="#63b8ff" points="773.12,-326.65 773.52,-316.06 766.61,-324.09 773.12,-326.65"/>
</a>
</g>
</g>
<!-- Node19 -->
<g id="Node000019" class="node">
<title>Node19</title>
<g id="a_Node000019"><a xlink:href="../../d7/dc4/FontRenderer_8hpp.html" target="_top" xlink:title=" ">
<polygon fill="white" stroke="#666666" points="1514,-316 1359,-316 1359,-286 1514,-286 1514,-316"/>
<text text-anchor="start" x="1367" y="-304" font-family="Helvetica,sans-Serif" font-size="10.00">../engine/components</text>
<text text-anchor="middle" x="1436.5" y="-293" font-family="Helvetica,sans-Serif" font-size="10.00">/renderers/FontRenderer.hpp</text>
</a>
</g>
</g>
<!-- Node1&#45;&gt;Node19 -->
<g id="edge24_Node000001_Node000019" class="edge">
<title>Node1&#45;&gt;Node19</title>
<g id="a_edge24_Node000001_Node000019"><a xlink:title=" ">
<path fill="none" stroke="#63b8ff" d="M891.1,-427.01C1032.55,-428.31 1488.63,-428.82 1532.5,-382 1554.47,-358.56 1518.9,-335.47 1485.01,-320.17"/>
<polygon fill="#63b8ff" stroke="#63b8ff" points="1486.11,-316.83 1475.54,-316.06 1483.33,-323.25 1486.11,-316.83"/>
</a>
</g>
</g>
<!-- Node24 -->
<g id="Node000024" class="node">
<title>Node24</title>
<g id="a_Node000024"><a xlink:href="../../dc/daa/RectangleRenderer_8hpp.html" target="_top" xlink:title=" ">
<polygon fill="white" stroke="#666666" points="1825.5,-316 1643.5,-316 1643.5,-286 1825.5,-286 1825.5,-316"/>
<text text-anchor="start" x="1651.5" y="-304" font-family="Helvetica,sans-Serif" font-size="10.00">../engine/components</text>
<text text-anchor="middle" x="1734.5" y="-293" font-family="Helvetica,sans-Serif" font-size="10.00">/renderers/RectangleRenderer.hpp</text>
</a>
</g>
</g>
<!-- Node1&#45;&gt;Node24 -->
<g id="edge32_Node000001_Node000024" class="edge">
<title>Node1&#45;&gt;Node24</title>
<g id="a_edge32_Node000001_Node000024"><a xlink:title=" ">
<path fill="none" stroke="#63b8ff" d="M891.46,-426.68C1029.61,-426.88 1469.14,-424.09 1603.5,-382 1643.94,-369.33 1684.69,-341.53 1709.76,-322.29"/>
<polygon fill="#63b8ff" stroke="#63b8ff" points="1711.91,-325.04 1717.63,-316.12 1707.6,-319.53 1711.91,-325.04"/>
</a>
</g>
</g>
<!-- Node26 -->
<g id="Node000026" class="node">
<title>Node26</title>
<g id="a_Node000026"><a xlink:href="../../d6/d02/TextureRenderer_8hpp.html" target="_top" xlink:title=" ">
<polygon fill="white" stroke="#666666" points="2013.5,-316 1843.5,-316 1843.5,-286 2013.5,-286 2013.5,-316"/>
<text text-anchor="start" x="1851.5" y="-304" font-family="Helvetica,sans-Serif" font-size="10.00">../engine/components</text>
<text text-anchor="middle" x="1928.5" y="-293" font-family="Helvetica,sans-Serif" font-size="10.00">/renderers/TextureRenderer.hpp</text>
</a>
</g>
</g>
<!-- Node1&#45;&gt;Node26 -->
<g id="edge39_Node000001_Node000026" class="edge">
<title>Node1&#45;&gt;Node26</title>
<g id="a_edge39_Node000001_Node000026"><a xlink:title=" ">
<path fill="none" stroke="#63b8ff" d="M891.03,-425.4C1033.21,-421.44 1499.72,-406.84 1647.5,-382 1730.79,-368 1824.6,-338.37 1880.02,-319.36"/>
<polygon fill="#63b8ff" stroke="#63b8ff" points="1881.27,-322.63 1889.58,-316.06 1878.98,-316.02 1881.27,-322.63"/>
</a>
</g>
</g>
<!-- Node27 -->
<g id="Node000027" class="node">
<title>Node27</title>
<g id="a_Node000027"><a xlink:href="../../d4/d09/CoffeeMeterBehavior_8hpp.html" target="_top" xlink:title=" ">
<polygon fill="white" stroke="#666666" points="921,-382 778,-382 778,-352 921,-352 921,-382"/>
<text text-anchor="start" x="786" y="-370" font-family="Helvetica,sans-Serif" font-size="10.00">behaviors/coffeeMeter</text>
<text text-anchor="middle" x="849.5" y="-359" font-family="Helvetica,sans-Serif" font-size="10.00">/CoffeeMeterBehavior.hpp</text>
</a>
</g>
</g>
<!-- Node1&#45;&gt;Node27 -->
<g id="edge44_Node000001_Node000027" class="edge">
<title>Node1&#45;&gt;Node27</title>
<g id="a_edge44_Node000001_Node000027"><a xlink:title=" ">
<path fill="none" stroke="#63b8ff" d="M849.5,-417.87C849.5,-411.11 849.5,-401.35 849.5,-392.26"/>
<polygon fill="#63b8ff" stroke="#63b8ff" points="853,-392.11 849.5,-382.11 846,-392.11 853,-392.11"/>
</a>
</g>
</g>
<!-- Node28 -->
<g id="Node000028" class="node">
<title>Node28</title>
<g id="a_Node000028"><a xlink:href="../../d2/d74/GameManagerBehavior_8hpp.html" target="_top" xlink:title=" ">
<polygon fill="white" stroke="#666666" points="303,-382 148,-382 148,-352 303,-352 303,-382"/>
<text text-anchor="start" x="156" y="-370" font-family="Helvetica,sans-Serif" font-size="10.00">behaviors/gameManager</text>
<text text-anchor="middle" x="225.5" y="-359" font-family="Helvetica,sans-Serif" font-size="10.00">/GameManagerBehavior.hpp</text>
</a>
</g>
</g>
<!-- Node1&#45;&gt;Node28 -->
<g id="edge46_Node000001_Node000028" class="edge">
<title>Node1&#45;&gt;Node28</title>
<g id="a_edge46_Node000001_Node000028"><a xlink:title=" ">
<path fill="none" stroke="#63b8ff" d="M807.95,-424.15C719.15,-418.89 504.12,-404.9 313.18,-382.02"/>
<polygon fill="#63b8ff" stroke="#63b8ff" points="313.59,-378.54 303.25,-380.81 312.75,-385.49 313.59,-378.54"/>
</a>
</g>
</g>
<!-- Node29 -->
<g id="Node000029" class="node">
<title>Node29</title>
<g id="a_Node000029"><a xlink:href="../../da/d20/GameManagerKeyboardHandler_8hpp.html" target="_top" xlink:title=" ">
<polygon fill="white" stroke="#666666" points="1135.5,-382 939.5,-382 939.5,-352 1135.5,-352 1135.5,-382"/>
<text text-anchor="start" x="947.5" y="-370" font-family="Helvetica,sans-Serif" font-size="10.00">behaviors/gameManager</text>
<text text-anchor="middle" x="1037.5" y="-359" font-family="Helvetica,sans-Serif" font-size="10.00">/GameManagerKeyboardHandler.hpp</text>
</a>
</g>
</g>
<!-- Node1&#45;&gt;Node29 -->
<g id="edge48_Node000001_Node000029" class="edge">
<title>Node1&#45;&gt;Node29</title>
<g id="a_edge48_Node000001_Node000029"><a xlink:title=" ">
<path fill="none" stroke="#63b8ff" d="M876.84,-417.99C904.48,-409.39 947.98,-395.86 982.75,-385.04"/>
<polygon fill="#63b8ff" stroke="#63b8ff" points="983.79,-388.38 992.3,-382.06 981.71,-381.69 983.79,-388.38"/>
</a>
</g>
</g>
<!-- Node31 -->
<g id="Node000031" class="node">
<title>Node31</title>
<g id="a_Node000031"><a xlink:href="../../dd/da3/PlayerBehavior_8hpp.html" target="_top" xlink:title=" ">
<polygon fill="white" stroke="#666666" points="517.5,-376.5 321.5,-376.5 321.5,-357.5 517.5,-357.5 517.5,-376.5"/>
<text text-anchor="middle" x="419.5" y="-364.5" font-family="Helvetica,sans-Serif" font-size="10.00">behaviors/player/PlayerBehavior.hpp</text>
</a>
</g>
</g>
<!-- Node1&#45;&gt;Node31 -->
<g id="edge52_Node000001_Node000031" class="edge">
<title>Node1&#45;&gt;Node31</title>
<g id="a_edge52_Node000001_Node000031"><a xlink:title=" ">
<path fill="none" stroke="#63b8ff" d="M807.88,-420.84C734.85,-410.9 582.78,-390.21 492.11,-377.88"/>
<polygon fill="#63b8ff" stroke="#63b8ff" points="492.55,-374.41 482.17,-376.53 491.61,-381.34 492.55,-374.41"/>
</a>
</g>
</g>
<!-- Node32 -->
<g id="Node000032" class="node">
<title>Node32</title>
<g id="a_Node000032"><a xlink:href="../../db/d9e/PlayerCollisionBehavior_8hpp.html" target="_top" xlink:title=" ">
<polygon fill="white" stroke="#666666" points="1523.5,-382 1349.5,-382 1349.5,-352 1523.5,-352 1523.5,-382"/>
<text text-anchor="start" x="1357.5" y="-370" font-family="Helvetica,sans-Serif" font-size="10.00">behaviors/player/PlayerCollision</text>
<text text-anchor="middle" x="1436.5" y="-359" font-family="Helvetica,sans-Serif" font-size="10.00">Behavior.hpp</text>
</a>
</g>
</g>
<!-- Node1&#45;&gt;Node32 -->
<g id="edge54_Node000001_Node000032" class="edge">
<title>Node1&#45;&gt;Node32</title>
<g id="a_edge54_Node000001_Node000032"><a xlink:title=" ">
<path fill="none" stroke="#63b8ff" d="M891.29,-423.48C974.5,-417.31 1167.02,-402.2 1339.39,-382.09"/>
<polygon fill="#63b8ff" stroke="#63b8ff" points="1339.88,-385.56 1349.41,-380.91 1339.07,-378.6 1339.88,-385.56"/>
</a>
</g>
</g>
<!-- Node34 -->
<g id="Node000034" class="node">
<title>Node34</title>
<g id="a_Node000034"><a xlink:href="../../d0/dd8/PlayerKeyboardBehavior_8hpp.html" target="_top" xlink:title=" ">
<polygon fill="white" stroke="#666666" points="1331.5,-382 1153.5,-382 1153.5,-352 1331.5,-352 1331.5,-382"/>
<text text-anchor="start" x="1161.5" y="-370" font-family="Helvetica,sans-Serif" font-size="10.00">behaviors/player/PlayerKeyboard</text>
<text text-anchor="middle" x="1242.5" y="-359" font-family="Helvetica,sans-Serif" font-size="10.00">Behavior.hpp</text>
</a>
</g>
</g>
<!-- Node1&#45;&gt;Node34 -->
<g id="edge58_Node000001_Node000034" class="edge">
<title>Node1&#45;&gt;Node34</title>
<g id="a_edge58_Node000001_Node000034"><a xlink:title=" ">
<path fill="none" stroke="#63b8ff" d="M891.19,-420.29C950.67,-411.44 1061.7,-394.91 1143.08,-382.8"/>
<polygon fill="#63b8ff" stroke="#63b8ff" points="1143.97,-386.21 1153.35,-381.27 1142.94,-379.28 1143.97,-386.21"/>
</a>
</g>
</g>
<!-- Node35 -->
<g id="Node000035" class="node">
<title>Node35</title>
<g id="a_Node000035"><a xlink:href="../../d9/de4/ScoreCounterBehavior_8hpp.html" target="_top" xlink:title=" ">
<polygon fill="white" stroke="#666666" points="722,-382 573,-382 573,-352 722,-352 722,-382"/>
<text text-anchor="start" x="581" y="-370" font-family="Helvetica,sans-Serif" font-size="10.00">behaviors/scoreCounter</text>
<text text-anchor="middle" x="647.5" y="-359" font-family="Helvetica,sans-Serif" font-size="10.00">/ScoreCounterBehavior.hpp</text>
</a>
</g>
</g>
<!-- Node1&#45;&gt;Node35 -->
<g id="edge60_Node000001_Node000035" class="edge">
<title>Node1&#45;&gt;Node35</title>
<g id="a_edge60_Node000001_Node000035"><a xlink:title=" ">
<path fill="none" stroke="#63b8ff" d="M820.13,-417.99C790.29,-409.35 743.29,-395.74 705.85,-384.9"/>
<polygon fill="#63b8ff" stroke="#63b8ff" points="706.64,-381.48 696.06,-382.06 704.7,-388.21 706.64,-381.48"/>
</a>
</g>
</g>
<!-- Node4 -->
<g id="Node000004" class="node">
<title>Node4</title>
<g id="a_Node000004"><a xlink:title=" ">
<polygon fill="#e0e0e0" stroke="#999999" points="1135.5,-79.5 1091.5,-79.5 1091.5,-60.5 1135.5,-60.5 1135.5,-79.5"/>
<text text-anchor="middle" x="1113.5" y="-67.5" font-family="Helvetica,sans-Serif" font-size="10.00">string</text>
</a>
</g>
</g>
<!-- Node3&#45;&gt;Node4 -->
<g id="edge3_Node000003_Node000004" class="edge">
<title>Node3&#45;&gt;Node4</title>
<g id="a_edge3_Node000003_Node000004"><a xlink:title=" ">
<path fill="none" stroke="#63b8ff" d="M627.57,-121.76C750.99,-108.87 993.78,-83.51 1081.18,-74.38"/>
<polygon fill="#63b8ff" stroke="#63b8ff" points="1081.71,-77.84 1091.29,-73.32 1080.98,-70.88 1081.71,-77.84"/>
</a>
</g>
</g>
<!-- Node5&#45;&gt;Node6 -->
<g id="edge5_Node000005_Node000006" class="edge">
<title>Node5&#45;&gt;Node6</title>
<g id="a_edge5_Node000005_Node000006"><a xlink:title=" ">
<path fill="none" stroke="#63b8ff" d="M1420.07,-230.97C1331.34,-220.7 1196.07,-203.74 1188.5,-195 1174.02,-178.28 1196.22,-158.49 1215.94,-145.5"/>
<polygon fill="#63b8ff" stroke="#63b8ff" points="1218.05,-148.31 1224.69,-140.05 1214.35,-142.37 1218.05,-148.31"/>
</a>
</g>
</g>
<!-- Node5&#45;&gt;Node10 -->
<g id="edge14_Node000005_Node000010" class="edge">
<title>Node5&#45;&gt;Node10</title>
<g id="a_edge14_Node000005_Node000010"><a xlink:title=" ">
<path fill="none" stroke="#63b8ff" d="M1499.3,-230.91C1507.83,-204.78 1533.62,-125.79 1545.45,-89.54"/>
<polygon fill="#63b8ff" stroke="#63b8ff" points="1548.86,-90.36 1548.64,-79.77 1542.21,-88.19 1548.86,-90.36"/>
</a>
</g>
</g>
<!-- Node11 -->
<g id="Node000011" class="node">
<title>Node11</title>
<g id="a_Node000011"><a xlink:title=" ">
<polygon fill="#e0e0e0" stroke="#999999" points="1405,-79.5 1358,-79.5 1358,-60.5 1405,-60.5 1405,-79.5"/>
<text text-anchor="middle" x="1381.5" y="-67.5" font-family="Helvetica,sans-Serif" font-size="10.00">vector</text>
</a>
</g>
</g>
<!-- Node5&#45;&gt;Node11 -->
<g id="edge15_Node000005_Node000011" class="edge">
<title>Node5&#45;&gt;Node11</title>
<g id="a_edge15_Node000005_Node000011"><a xlink:title=" ">
<path fill="none" stroke="#63b8ff" d="M1490.64,-230.91C1472.57,-204.44 1417.49,-123.74 1393.21,-88.16"/>
<polygon fill="#63b8ff" stroke="#63b8ff" points="1396.02,-86.06 1387.49,-79.77 1390.23,-90.01 1396.02,-86.06"/>
</a>
</g>
</g>
<!-- Node12 -->
<g id="Node000012" class="node">
<title>Node12</title>
<g id="a_Node000012"><a xlink:title=" ">
<polygon fill="#e0e0e0" stroke="#999999" points="1634.5,-195 1528.5,-195 1528.5,-176 1634.5,-176 1634.5,-195"/>
<text text-anchor="middle" x="1581.5" y="-183" font-family="Helvetica,sans-Serif" font-size="10.00">SDL3/SDL_pixels.h</text>
</a>
</g>
</g>
<!-- Node5&#45;&gt;Node12 -->
<g id="edge12_Node000005_Node000012" class="edge">
<title>Node5&#45;&gt;Node12</title>
<g id="a_edge12_Node000005_Node000012"><a xlink:title=" ">
<path fill="none" stroke="#63b8ff" d="M1510.16,-230.98C1523.34,-222.77 1543.53,-210.18 1559.07,-200.49"/>
<polygon fill="#63b8ff" stroke="#63b8ff" points="1560.96,-203.43 1567.59,-195.17 1557.26,-197.49 1560.96,-203.43"/>
</a>
</g>
</g>
<!-- Node13 -->
<g id="Node000013" class="node">
<title>Node13</title>
<g id="a_Node000013"><a xlink:title=" ">
<polygon fill="#e0e0e0" stroke="#999999" points="1760.5,-195 1652.5,-195 1652.5,-176 1760.5,-176 1760.5,-195"/>
<text text-anchor="middle" x="1706.5" y="-183" font-family="Helvetica,sans-Serif" font-size="10.00">SDL3/SDL_render.h</text>
</a>
</g>
</g>
<!-- Node5&#45;&gt;Node13 -->
<g id="edge13_Node000005_Node000013" class="edge">
<title>Node5&#45;&gt;Node13</title>
<g id="a_edge13_Node000005_Node000013"><a xlink:title=" ">
<path fill="none" stroke="#63b8ff" d="M1530.24,-230.98C1566.18,-221.91 1623.22,-207.52 1662.63,-197.57"/>
<polygon fill="#63b8ff" stroke="#63b8ff" points="1663.66,-200.92 1672.5,-195.08 1661.94,-194.14 1663.66,-200.92"/>
</a>
</g>
</g>
<!-- Node6&#45;&gt;Node4 -->
<g id="edge10_Node000006_Node000004" class="edge">
<title>Node6&#45;&gt;Node4</title>
<g id="a_edge10_Node000006_Node000004"><a xlink:title=" ">
<path fill="none" stroke="#63b8ff" d="M1222.03,-120.99C1200.78,-111.2 1165.65,-95.02 1141.13,-83.73"/>
<polygon fill="#63b8ff" stroke="#63b8ff" points="1142.54,-80.52 1131.99,-79.52 1139.61,-86.88 1142.54,-80.52"/>
</a>
</g>
</g>
<!-- Node7 -->
<g id="Node000007" class="node">
<title>Node7</title>
<g id="a_Node000007"><a xlink:href="../../d9/d4a/Vector2_8hpp.html" target="_top" xlink:title=" ">
<polygon fill="white" stroke="#666666" points="1502.5,-79.5 1428.5,-79.5 1428.5,-60.5 1502.5,-60.5 1502.5,-79.5"/>
<text text-anchor="middle" x="1465.5" y="-67.5" font-family="Helvetica,sans-Serif" font-size="10.00">Vector2.hpp</text>
</a>
</g>
</g>
<!-- Node6&#45;&gt;Node7 -->
<g id="edge6_Node000006_Node000007" class="edge">
<title>Node6&#45;&gt;Node7</title>
<g id="a_edge6_Node000006_Node000007"><a xlink:title=" ">
<path fill="none" stroke="#63b8ff" d="M1274.55,-120.98C1309.66,-112.15 1365.98,-97.86 1414.5,-85 1417.89,-84.1 1421.4,-83.16 1424.92,-82.21"/>
<polygon fill="#63b8ff" stroke="#63b8ff" points="1426.05,-85.53 1434.78,-79.53 1424.21,-78.77 1426.05,-85.53"/>
</a>
</g>
</g>
<!-- Node8 -->
<g id="Node000008" class="node">
<title>Node8</title>
<g id="a_Node000008"><a xlink:href="../../d4/d71/ComponentNotFoundException_8hpp.html" target="_top" xlink:title=" ">
<polygon fill="white" stroke="#666666" points="1329.5,-85 1153.5,-85 1153.5,-55 1329.5,-55 1329.5,-85"/>
<text text-anchor="start" x="1161.5" y="-73" font-family="Helvetica,sans-Serif" font-size="10.00">exceptions/ComponentNotFound</text>
<text text-anchor="middle" x="1241.5" y="-62" font-family="Helvetica,sans-Serif" font-size="10.00">Exception.hpp</text>
</a>
</g>
</g>
<!-- Node6&#45;&gt;Node8 -->
<g id="edge7_Node000006_Node000008" class="edge">
<title>Node6&#45;&gt;Node8</title>
<g id="a_edge7_Node000006_Node000008"><a xlink:title=" ">
<path fill="none" stroke="#63b8ff" d="M1240.65,-120.87C1240.76,-114.11 1240.93,-104.35 1241.09,-95.26"/>
<polygon fill="#63b8ff" stroke="#63b8ff" points="1244.59,-95.17 1241.26,-85.11 1237.59,-95.05 1244.59,-95.17"/>
</a>
</g>
</g>
<!-- Node6&#45;&gt;Node10 -->
<g id="edge9_Node000006_Node000010" class="edge">
<title>Node6&#45;&gt;Node10</title>
<g id="a_edge9_Node000006_Node000010"><a xlink:title=" ">
<path fill="none" stroke="#63b8ff" d="M1289.77,-121.88C1362.02,-110.65 1490.45,-90.37 1511.5,-85 1514.15,-84.32 1516.87,-83.55 1519.59,-82.72"/>
<polygon fill="#63b8ff" stroke="#63b8ff" points="1520.87,-85.98 1529.29,-79.54 1518.69,-79.33 1520.87,-85.98"/>
</a>
</g>
</g>
<!-- Node6&#45;&gt;Node11 -->
<g id="edge11_Node000006_Node000011" class="edge">
<title>Node6&#45;&gt;Node11</title>
<g id="a_edge11_Node000006_Node000011"><a xlink:title=" ">
<path fill="none" stroke="#63b8ff" d="M1261,-120.99C1284.81,-111.12 1324.29,-94.73 1351.54,-83.43"/>
<polygon fill="#63b8ff" stroke="#63b8ff" points="1353.08,-86.58 1360.97,-79.52 1350.39,-80.12 1353.08,-86.58"/>
</a>
</g>
</g>
<!-- Node9 -->
<g id="Node000009" class="node">
<title>Node9</title>
<g id="a_Node000009"><a xlink:title=" ">
<polygon fill="#e0e0e0" stroke="#999999" points="1274,-19 1209,-19 1209,0 1274,0 1274,-19"/>
<text text-anchor="middle" x="1241.5" y="-7" font-family="Helvetica,sans-Serif" font-size="10.00">exception</text>
</a>
</g>
</g>
<!-- Node8&#45;&gt;Node9 -->
<g id="edge8_Node000008_Node000009" class="edge">
<title>Node8&#45;&gt;Node9</title>
<g id="a_edge8_Node000008_Node000009"><a xlink:title=" ">
<path fill="none" stroke="#63b8ff" d="M1241.5,-54.84C1241.5,-47.21 1241.5,-37.7 1241.5,-29.45"/>
<polygon fill="#63b8ff" stroke="#63b8ff" points="1245,-29.27 1241.5,-19.27 1238,-29.27 1245,-29.27"/>
</a>
</g>
</g>
<!-- Node15 -->
<g id="Node000015" class="node">
<title>Node15</title>
<g id="a_Node000015"><a xlink:href="../../d4/d8e/Behavior_8hpp.html" target="_top" xlink:title=" ">
<polygon fill="white" stroke="#666666" points="820.5,-250 740.5,-250 740.5,-231 820.5,-231 820.5,-250"/>
<text text-anchor="middle" x="780.5" y="-238" font-family="Helvetica,sans-Serif" font-size="10.00">Behavior.hpp</text>
</a>
</g>
</g>
<!-- Node14&#45;&gt;Node15 -->
<g id="edge18_Node000014_Node000015" class="edge">
<title>Node14&#45;&gt;Node15</title>
<g id="a_edge18_Node000014_Node000015"><a xlink:title=" ">
<path fill="none" stroke="#63b8ff" d="M488.58,-286.8C562.89,-275.27 668.27,-258.91 730,-249.34"/>
<polygon fill="#63b8ff" stroke="#63b8ff" points="730.91,-252.74 740.26,-247.74 729.84,-245.82 730.91,-252.74"/>
</a>
</g>
</g>
<!-- Node16 -->
<g id="Node000016" class="node">
<title>Node16</title>
<g id="a_Node000016"><a xlink:href="../../d2/d69/GameObjectComponent_8hpp.html" target="_top" xlink:title=" ">
<polygon fill="white" stroke="#666666" points="1361.5,-195 1197.5,-195 1197.5,-176 1361.5,-176 1361.5,-195"/>
<text text-anchor="middle" x="1279.5" y="-183" font-family="Helvetica,sans-Serif" font-size="10.00">../GameObjectComponent.hpp</text>
</a>
</g>
</g>
<!-- Node15&#45;&gt;Node16 -->
<g id="edge19_Node000015_Node000016" class="edge">
<title>Node15&#45;&gt;Node16</title>
<g id="a_edge19_Node000015_Node000016"><a xlink:title=" ">
<path fill="none" stroke="#63b8ff" d="M820.91,-235.21C900.67,-226.74 1080.06,-207.68 1189.34,-196.08"/>
<polygon fill="#63b8ff" stroke="#63b8ff" points="1189.79,-199.55 1199.36,-195.01 1189.05,-192.59 1189.79,-199.55"/>
</a>
</g>
</g>
<!-- Node16&#45;&gt;Node6 -->
<g id="edge21_Node000016_Node000006" class="edge">
<title>Node16&#45;&gt;Node6</title>
<g id="a_edge21_Node000016_Node000006"><a xlink:title=" ">
<path fill="none" stroke="#63b8ff" d="M1273.06,-175.75C1267.61,-168.34 1259.64,-157.5 1252.94,-148.41"/>
<polygon fill="#63b8ff" stroke="#63b8ff" points="1255.57,-146.07 1246.82,-140.09 1249.93,-150.22 1255.57,-146.07"/>
</a>
</g>
</g>
<!-- Node17 -->
<g id="Node000017" class="node">
<title>Node17</title>
<g id="a_Node000017"><a xlink:title=" ">
<polygon fill="#e0e0e0" stroke="#999999" points="1361,-140 1308,-140 1308,-121 1361,-121 1361,-140"/>
<text text-anchor="middle" x="1334.5" y="-128" font-family="Helvetica,sans-Serif" font-size="10.00">cstddef</text>
</a>
</g>
</g>
<!-- Node16&#45;&gt;Node17 -->
<g id="edge20_Node000016_Node000017" class="edge">
<title>Node16&#45;&gt;Node17</title>
<g id="a_edge20_Node000016_Node000017"><a xlink:title=" ">
<path fill="none" stroke="#63b8ff" d="M1288.58,-175.75C1296.59,-168.03 1308.46,-156.6 1318.12,-147.28"/>
<polygon fill="#63b8ff" stroke="#63b8ff" points="1320.81,-149.55 1325.59,-140.09 1315.96,-144.51 1320.81,-149.55"/>
</a>
</g>
</g>
<!-- Node18&#45;&gt;Node15 -->
<g id="edge23_Node000018_Node000015" class="edge">
<title>Node18&#45;&gt;Node15</title>
<g id="a_edge23_Node000018_Node000015"><a xlink:title=" ">
<path fill="none" stroke="#63b8ff" d="M780.5,-285.84C780.5,-278.21 780.5,-268.7 780.5,-260.45"/>
<polygon fill="#63b8ff" stroke="#63b8ff" points="784,-260.27 780.5,-250.27 777,-260.27 784,-260.27"/>
</a>
</g>
</g>
<!-- Node19&#45;&gt;Node4 -->
<g id="edge31_Node000019_Node000004" class="edge">
<title>Node19&#45;&gt;Node4</title>
<g id="a_edge31_Node000019_Node000004"><a xlink:title=" ">
<path fill="none" stroke="#63b8ff" d="M1358.69,-287.13C1273.44,-272.95 1148.41,-251.89 1146.5,-250 1102.9,-206.9 1106.43,-126.33 1110.7,-89.83"/>
<polygon fill="#63b8ff" stroke="#63b8ff" points="1114.21,-90 1112.05,-79.63 1107.27,-89.08 1114.21,-90"/>
</a>
</g>
</g>
<!-- Node20 -->
<g id="Node000020" class="node">
<title>Node20</title>
<g id="a_Node000020"><a xlink:href="../../dd/db8/Renderer_8hpp.html" target="_top" xlink:title=" ">
<polygon fill="white" stroke="#666666" points="1722,-250 1641,-250 1641,-231 1722,-231 1722,-250"/>
<text text-anchor="middle" x="1681.5" y="-238" font-family="Helvetica,sans-Serif" font-size="10.00">Renderer.hpp</text>
</a>
</g>
</g>
<!-- Node19&#45;&gt;Node20 -->
<g id="edge25_Node000019_Node000020" class="edge">
<title>Node19&#45;&gt;Node20</title>
<g id="a_edge25_Node000019_Node000020"><a xlink:title=" ">
<path fill="none" stroke="#63b8ff" d="M1495.18,-285.99C1538.29,-275.7 1596.02,-261.91 1635.74,-252.43"/>
<polygon fill="#63b8ff" stroke="#63b8ff" points="1636.76,-255.78 1645.68,-250.05 1635.14,-248.97 1636.76,-255.78"/>
</a>
</g>
</g>
<!-- Node21 -->
<g id="Node000021" class="node">
<title>Node21</title>
<g id="a_Node000021"><a xlink:title=" ">
<polygon fill="#e0e0e0" stroke="#999999" points="1060.5,-250 988.5,-250 988.5,-231 1060.5,-231 1060.5,-250"/>
<text text-anchor="middle" x="1024.5" y="-238" font-family="Helvetica,sans-Serif" font-size="10.00">SDL3/SDL.h</text>
</a>
</g>
</g>
<!-- Node19&#45;&gt;Node21 -->
<g id="edge28_Node000019_Node000021" class="edge">
<title>Node19&#45;&gt;Node21</title>
<g id="a_edge28_Node000019_Node000021"><a xlink:title=" ">
<path fill="none" stroke="#63b8ff" d="M1358.73,-287.39C1355.61,-286.92 1352.53,-286.45 1349.5,-286 1250.25,-271.22 1133.67,-255.71 1070.63,-247.47"/>
<polygon fill="#63b8ff" stroke="#63b8ff" points="1070.98,-243.99 1060.61,-246.16 1070.07,-250.93 1070.98,-243.99"/>
</a>
</g>
</g>
<!-- Node22 -->
<g id="Node000022" class="node">
<title>Node22</title>
<g id="a_Node000022"><a xlink:title=" ">
<polygon fill="#e0e0e0" stroke="#999999" points="1268,-250 1155,-250 1155,-231 1268,-231 1268,-250"/>
<text text-anchor="middle" x="1211.5" y="-238" font-family="Helvetica,sans-Serif" font-size="10.00">SDL3/SDL_surface.h</text>
</a>
</g>
</g>
<!-- Node19&#45;&gt;Node22 -->
<g id="edge29_Node000019_Node000022" class="edge">
<title>Node19&#45;&gt;Node22</title>
<g id="a_edge29_Node000019_Node000022"><a xlink:title=" ">
<path fill="none" stroke="#63b8ff" d="M1382.61,-285.99C1343.27,-275.76 1290.68,-262.09 1254.23,-252.61"/>
<polygon fill="#63b8ff" stroke="#63b8ff" points="1254.96,-249.18 1244.4,-250.05 1253.2,-255.96 1254.96,-249.18"/>
</a>
</g>
</g>
<!-- Node23 -->
<g id="Node000023" class="node">
<title>Node23</title>
<g id="a_Node000023"><a xlink:title=" ">
<polygon fill="#e0e0e0" stroke="#999999" points="1390.5,-250 1286.5,-250 1286.5,-231 1390.5,-231 1390.5,-250"/>
<text text-anchor="middle" x="1338.5" y="-238" font-family="Helvetica,sans-Serif" font-size="10.00">SDL3_ttf/SDL_ttf.h</text>
</a>
</g>
</g>
<!-- Node19&#45;&gt;Node23 -->
<g id="edge30_Node000019_Node000023" class="edge">
<title>Node19&#45;&gt;Node23</title>
<g id="a_edge30_Node000019_Node000023"><a xlink:title=" ">
<path fill="none" stroke="#63b8ff" d="M1412.78,-285.84C1397.3,-276.6 1377.18,-264.59 1361.79,-255.4"/>
<polygon fill="#63b8ff" stroke="#63b8ff" points="1363.28,-252.21 1352.9,-250.09 1359.69,-258.23 1363.28,-252.21"/>
</a>
</g>
</g>
<!-- Node20&#45;&gt;Node13 -->
<g id="edge27_Node000020_Node000013" class="edge">
<title>Node20&#45;&gt;Node13</title>
<g id="a_edge27_Node000020_Node000013"><a xlink:title=" ">
<path fill="none" stroke="#63b8ff" d="M1685.63,-230.75C1689.01,-223.57 1693.92,-213.18 1698.12,-204.27"/>
<polygon fill="#63b8ff" stroke="#63b8ff" points="1701.35,-205.63 1702.45,-195.09 1695.02,-202.64 1701.35,-205.63"/>
</a>
</g>
</g>
<!-- Node20&#45;&gt;Node16 -->
<g id="edge26_Node000020_Node000016" class="edge">
<title>Node20&#45;&gt;Node16</title>
<g id="a_edge26_Node000020_Node000016"><a xlink:title=" ">
<path fill="none" stroke="#63b8ff" d="M1640.74,-234.13C1573.61,-225.28 1438.8,-207.5 1354.19,-196.35"/>
<polygon fill="#63b8ff" stroke="#63b8ff" points="1354.5,-192.86 1344.13,-195.02 1353.58,-199.8 1354.5,-192.86"/>
</a>
</g>
</g>
<!-- Node24&#45;&gt;Node7 -->
<g id="edge33_Node000024_Node000007" class="edge">
<title>Node24&#45;&gt;Node7</title>
<g id="a_edge33_Node000024_Node000007"><a xlink:title=" ">
<path fill="none" stroke="#63b8ff" d="M1745.76,-285.65C1763.59,-261.07 1793.9,-210.25 1769.5,-176 1761.43,-164.68 1581.8,-107.38 1502.53,-82.53"/>
<polygon fill="#63b8ff" stroke="#63b8ff" points="1503.52,-79.17 1492.93,-79.53 1501.43,-85.85 1503.52,-79.17"/>
</a>
</g>
</g>
<!-- Node24&#45;&gt;Node10 -->
<g id="edge38_Node000024_Node000010" class="edge">
<title>Node24&#45;&gt;Node10</title>
<g id="a_edge38_Node000024_Node000010"><a xlink:title=" ">
<path fill="none" stroke="#63b8ff" d="M1764.96,-285.94C1779.12,-277.66 1794.56,-265.69 1802.5,-250 1817.35,-220.65 1820.72,-203.38 1802.5,-176 1755.07,-104.74 1649.01,-81.75 1591.1,-74.4"/>
<polygon fill="#63b8ff" stroke="#63b8ff" points="1591.21,-70.89 1580.87,-73.2 1590.39,-77.84 1591.21,-70.89"/>
</a>
</g>
</g>
<!-- Node24&#45;&gt;Node12 -->
<g id="edge35_Node000024_Node000012" class="edge">
<title>Node24&#45;&gt;Node12</title>
<g id="a_edge35_Node000024_Node000012"><a xlink:title=" ">
<path fill="none" stroke="#63b8ff" d="M1695.85,-285.81C1675.73,-277.29 1651.44,-265.16 1632.5,-250 1616.18,-236.93 1601.69,-217.78 1592.37,-203.92"/>
<polygon fill="#63b8ff" stroke="#63b8ff" points="1595.17,-201.8 1586.78,-195.32 1589.3,-205.61 1595.17,-201.8"/>
</a>
</g>
</g>
<!-- Node24&#45;&gt;Node13 -->
<g id="edge37_Node000024_Node000013" class="edge">
<title>Node24&#45;&gt;Node13</title>
<g id="a_edge37_Node000024_Node000013"><a xlink:title=" ">
<path fill="none" stroke="#63b8ff" d="M1735.77,-285.95C1736.62,-271.79 1736.76,-249.45 1731.5,-231 1728.74,-221.32 1723.51,-211.47 1718.54,-203.51"/>
<polygon fill="#63b8ff" stroke="#63b8ff" points="1721.44,-201.55 1713,-195.15 1715.61,-205.42 1721.44,-201.55"/>
</a>
</g>
</g>
<!-- Node24&#45;&gt;Node20 -->
<g id="edge34_Node000024_Node000020" class="edge">
<title>Node24&#45;&gt;Node20</title>
<g id="a_edge34_Node000024_Node000020"><a xlink:title=" ">
<path fill="none" stroke="#63b8ff" d="M1721.67,-285.84C1713.98,-277.35 1704.17,-266.52 1696.17,-257.69"/>
<polygon fill="#63b8ff" stroke="#63b8ff" points="1698.75,-255.33 1689.44,-250.27 1693.56,-260.03 1698.75,-255.33"/>
</a>
</g>
</g>
<!-- Node25 -->
<g id="Node000025" class="node">
<title>Node25</title>
<g id="a_Node000025"><a xlink:title=" ">
<polygon fill="#e0e0e0" stroke="#999999" points="1950.5,-250 1854.5,-250 1854.5,-231 1950.5,-231 1950.5,-250"/>
<text text-anchor="middle" x="1902.5" y="-238" font-family="Helvetica,sans-Serif" font-size="10.00">SDL3/SDL_rect.h</text>
</a>
</g>
</g>
<!-- Node24&#45;&gt;Node25 -->
<g id="edge36_Node000024_Node000025" class="edge">
<title>Node24&#45;&gt;Node25</title>
<g id="a_edge36_Node000024_Node000025"><a xlink:title=" ">
<path fill="none" stroke="#63b8ff" d="M1774.74,-285.99C1803.27,-276.05 1841.15,-262.86 1868.23,-253.43"/>
<polygon fill="#63b8ff" stroke="#63b8ff" points="1869.4,-256.73 1877.69,-250.14 1867.1,-250.12 1869.4,-256.73"/>
</a>
</g>
</g>
<!-- Node26&#45;&gt;Node10 -->
<g id="edge43_Node000026_Node000010" class="edge">
<title>Node26&#45;&gt;Node10</title>
<g id="a_edge43_Node000026_Node000010"><a xlink:title=" ">
<path fill="none" stroke="#63b8ff" d="M1949.41,-285.77C1966.89,-272.04 1987.22,-250.5 1975.5,-231 1894.1,-95.57 1679.46,-74.16 1590.74,-71.22"/>
<polygon fill="#63b8ff" stroke="#63b8ff" points="1590.65,-67.72 1580.56,-70.95 1590.46,-74.71 1590.65,-67.72"/>
</a>
</g>
</g>
<!-- Node26&#45;&gt;Node13 -->
<g id="edge42_Node000026_Node000013" class="edge">
<title>Node26&#45;&gt;Node13</title>
<g id="a_edge42_Node000026_Node000013"><a xlink:title=" ">
<path fill="none" stroke="#63b8ff" d="M1943.25,-285.79C1956.93,-270.89 1973.26,-247.4 1959.5,-231 1935.84,-202.81 1837.55,-192.48 1770.68,-188.69"/>
<polygon fill="#63b8ff" stroke="#63b8ff" points="1770.81,-185.19 1760.64,-188.15 1770.44,-192.18 1770.81,-185.19"/>
</a>
</g>
</g>
<!-- Node26&#45;&gt;Node20 -->
<g id="edge40_Node000026_Node000020" class="edge">
<title>Node26&#45;&gt;Node20</title>
<g id="a_edge40_Node000026_Node000020"><a xlink:title=" ">
<path fill="none" stroke="#63b8ff" d="M1869.34,-285.99C1825.79,-275.67 1767.43,-261.85 1727.38,-252.37"/>
<polygon fill="#63b8ff" stroke="#63b8ff" points="1728.15,-248.95 1717.62,-250.05 1726.54,-255.76 1728.15,-248.95"/>
</a>
</g>
</g>
<!-- Node26&#45;&gt;Node25 -->
<g id="edge41_Node000026_Node000025" class="edge">
<title>Node26&#45;&gt;Node25</title>
<g id="a_edge41_Node000026_Node000025"><a xlink:title=" ">
<path fill="none" stroke="#63b8ff" d="M1922.21,-285.84C1918.7,-277.95 1914.3,-268.05 1910.55,-259.61"/>
<polygon fill="#63b8ff" stroke="#63b8ff" points="1913.66,-257.98 1906.4,-250.27 1907.26,-260.83 1913.66,-257.98"/>
</a>
</g>
</g>
<!-- Node27&#45;&gt;Node15 -->
<g id="edge45_Node000027_Node000015" class="edge">
<title>Node27&#45;&gt;Node15</title>
<g id="a_edge45_Node000027_Node000015"><a xlink:title=" ">
<path fill="none" stroke="#63b8ff" d="M862.86,-351.9C876.94,-335.26 895.31,-307.18 881.5,-286 869.99,-268.36 849.75,-257.66 830.39,-251.2"/>
<polygon fill="#63b8ff" stroke="#63b8ff" points="831.28,-247.81 820.7,-248.27 829.26,-254.51 831.28,-247.81"/>
</a>
</g>
</g>
<!-- Node28&#45;&gt;Node15 -->
<g id="edge47_Node000028_Node000015" class="edge">
<title>Node28&#45;&gt;Node15</title>
<g id="a_edge47_Node000028_Node000015"><a xlink:title=" ">
<path fill="none" stroke="#63b8ff" d="M233.75,-351.76C245.48,-333.02 268.87,-300.74 298.5,-286 373.23,-248.83 622.18,-242.55 730,-241.6"/>
<polygon fill="#63b8ff" stroke="#63b8ff" points="730.31,-245.1 740.29,-241.52 730.26,-238.1 730.31,-245.1"/>
</a>
</g>
</g>
<!-- Node30 -->
<g id="Node000030" class="node">
<title>Node30</title>
<g id="a_Node000030"><a xlink:href="../../de/dfb/KeyboardHandlerBehavior_8hpp.html" target="_top" xlink:title=" ">
<polygon fill="white" stroke="#666666" points="1146.5,-316 928.5,-316 928.5,-286 1146.5,-286 1146.5,-316"/>
<text text-anchor="start" x="936.5" y="-304" font-family="Helvetica,sans-Serif" font-size="10.00">../../../engine/components</text>
<text text-anchor="middle" x="1037.5" y="-293" font-family="Helvetica,sans-Serif" font-size="10.00">/behaviors/KeyboardHandlerBehavior.hpp</text>
</a>
</g>
</g>
<!-- Node29&#45;&gt;Node30 -->
<g id="edge49_Node000029_Node000030" class="edge">
<title>Node29&#45;&gt;Node30</title>
<g id="a_edge49_Node000029_Node000030"><a xlink:title=" ">
<path fill="none" stroke="#63b8ff" d="M1037.5,-351.8C1037.5,-344.34 1037.5,-334.99 1037.5,-326.41"/>
<polygon fill="#63b8ff" stroke="#63b8ff" points="1041,-326.16 1037.5,-316.16 1034,-326.16 1041,-326.16"/>
</a>
</g>
</g>
<!-- Node30&#45;&gt;Node15 -->
<g id="edge50_Node000030_Node000015" class="edge">
<title>Node30&#45;&gt;Node15</title>
<g id="a_edge50_Node000030_Node000015"><a xlink:title=" ">
<path fill="none" stroke="#63b8ff" d="M975.94,-285.99C930.53,-275.65 869.65,-261.79 827.98,-252.31"/>
<polygon fill="#63b8ff" stroke="#63b8ff" points="828.6,-248.86 818.08,-250.05 827.05,-255.69 828.6,-248.86"/>
</a>
</g>
</g>
<!-- Node30&#45;&gt;Node21 -->
<g id="edge51_Node000030_Node000021" class="edge">
<title>Node30&#45;&gt;Node21</title>
<g id="a_edge51_Node000030_Node000021"><a xlink:title=" ">
<path fill="none" stroke="#63b8ff" d="M1034.35,-285.84C1032.64,-278.13 1030.5,-268.49 1028.65,-260.17"/>
<polygon fill="#63b8ff" stroke="#63b8ff" points="1032.03,-259.27 1026.45,-250.27 1025.2,-260.79 1032.03,-259.27"/>
</a>
</g>
</g>
<!-- Node31&#45;&gt;Node15 -->
<g id="edge53_Node000031_Node000015" class="edge">
<title>Node31&#45;&gt;Node15</title>
<g id="a_edge53_Node000031_Node000015"><a xlink:title=" ">
<path fill="none" stroke="#63b8ff" d="M388.96,-357.46C347.26,-344.37 280.81,-317.52 309.5,-286 337.44,-255.3 614.94,-245.34 730.45,-242.5"/>
<polygon fill="#63b8ff" stroke="#63b8ff" points="730.54,-246 740.46,-242.27 730.38,-239 730.54,-246"/>
</a>
</g>
</g>
<!-- Node33 -->
<g id="Node000033" class="node">
<title>Node33</title>
<g id="a_Node000033"><a xlink:href="../../dc/d19/CollisionBehavior_8hpp.html" target="_top" xlink:title=" ">
<polygon fill="white" stroke="#666666" points="1340.5,-316 1164.5,-316 1164.5,-286 1340.5,-286 1340.5,-316"/>
<text text-anchor="start" x="1172.5" y="-304" font-family="Helvetica,sans-Serif" font-size="10.00">../../../engine/components</text>
<text text-anchor="middle" x="1252.5" y="-293" font-family="Helvetica,sans-Serif" font-size="10.00">/behaviors/CollisionBehavior.hpp</text>
</a>
</g>
</g>
<!-- Node32&#45;&gt;Node33 -->
<g id="edge55_Node000032_Node000033" class="edge">
<title>Node32&#45;&gt;Node33</title>
<g id="a_edge55_Node000032_Node000033"><a xlink:title=" ">
<path fill="none" stroke="#63b8ff" d="M1396.12,-351.95C1368.56,-342.37 1331.86,-329.6 1302.45,-319.37"/>
<polygon fill="#63b8ff" stroke="#63b8ff" points="1303.38,-315.99 1292.79,-316.01 1301.08,-322.6 1303.38,-315.99"/>
</a>
</g>
</g>
<!-- Node33&#45;&gt;Node10 -->
<g id="edge57_Node000033_Node000010" class="edge">
<title>Node33&#45;&gt;Node10</title>
<g id="a_edge57_Node000033_Node000010"><a xlink:title=" ">
<path fill="none" stroke="#63b8ff" d="M1197.98,-285.88C1162.35,-274.02 1125.92,-255.15 1146.5,-231 1211.9,-154.25 1276.86,-232.4 1370.5,-195 1437.43,-168.27 1504.3,-113.31 1534.64,-86.46"/>
<polygon fill="#63b8ff" stroke="#63b8ff" points="1537.09,-88.96 1542.19,-79.68 1532.41,-83.75 1537.09,-88.96"/>
</a>
</g>
</g>
<!-- Node33&#45;&gt;Node15 -->
<g id="edge56_Node000033_Node000015" class="edge">
<title>Node33&#45;&gt;Node15</title>
<g id="a_edge56_Node000033_Node000015"><a xlink:title=" ">
<path fill="none" stroke="#63b8ff" d="M1164.48,-287.2C1161.45,-286.79 1158.45,-286.39 1155.5,-286 1039.34,-270.73 902.61,-255.09 830.64,-247.04"/>
<polygon fill="#63b8ff" stroke="#63b8ff" points="830.83,-243.54 820.5,-245.91 830.05,-250.5 830.83,-243.54"/>
</a>
</g>
</g>
<!-- Node34&#45;&gt;Node30 -->
<g id="edge59_Node000034_Node000030" class="edge">
<title>Node34&#45;&gt;Node30</title>
<g id="a_edge59_Node000034_Node000030"><a xlink:title=" ">
<path fill="none" stroke="#63b8ff" d="M1197.51,-351.95C1166.54,-342.28 1125.2,-329.38 1092.3,-319.11"/>
<polygon fill="#63b8ff" stroke="#63b8ff" points="1092.97,-315.65 1082.38,-316.01 1090.89,-322.33 1092.97,-315.65"/>
</a>
</g>
</g>
<!-- Node35&#45;&gt;Node15 -->
<g id="edge62_Node000035_Node000015" class="edge">
<title>Node35&#45;&gt;Node15</title>
<g id="a_edge62_Node000035_Node000015"><a xlink:title=" ">
<path fill="none" stroke="#63b8ff" d="M599.05,-351.94C559.17,-337.94 512.76,-314.46 536.5,-286 560.67,-257.03 666.09,-246.87 730.19,-243.34"/>
<polygon fill="#63b8ff" stroke="#63b8ff" points="730.69,-246.82 740.49,-242.81 730.33,-239.83 730.69,-246.82"/>
</a>
</g>
</g>
<!-- Node36 -->
<g id="Node000036" class="node">
<title>Node36</title>
<g id="a_Node000036"><a xlink:href="../../d9/de7/Time_8hpp.html" target="_top" xlink:title=" ">
<polygon fill="white" stroke="#666666" points="670,-310.5 545,-310.5 545,-291.5 670,-291.5 670,-310.5"/>
<text text-anchor="middle" x="607.5" y="-298.5" font-family="Helvetica,sans-Serif" font-size="10.00">../../../engine/Time.hpp</text>
</a>
</g>
</g>
<!-- Node35&#45;&gt;Node36 -->
<g id="edge61_Node000035_Node000036" class="edge">
<title>Node35&#45;&gt;Node36</title>
<g id="a_edge61_Node000035_Node000036"><a xlink:title=" ">
<path fill="none" stroke="#63b8ff" d="M638.62,-351.8C632.69,-342.31 624.85,-329.76 618.52,-319.63"/>
<polygon fill="#63b8ff" stroke="#63b8ff" points="621.3,-317.47 613.03,-310.84 615.36,-321.18 621.3,-317.47"/>
</a>
</g>
</g>
</g>
</svg>
