<?xml version="1.0" encoding="UTF-8" standalone="no"?>
<!DOCTYPE svg PUBLIC "-//W3C//DTD SVG 1.1//EN"
 "http://www.w3.org/Graphics/SVG/1.1/DTD/svg11.dtd">
<!-- Generated by graphviz version 2.43.0 (0)
 -->
<!-- Title: engine/components/renderers/TextureRenderer.cpp Pages: 1 -->
<svg width="837pt" height="379pt"
 viewBox="0.00 0.00 837.00 379.00" xmlns="http://www.w3.org/2000/svg" xmlns:xlink="http://www.w3.org/1999/xlink">
<g id="graph0" class="graph" transform="scale(1 1) rotate(0) translate(4 375)">
<title>engine/components/renderers/TextureRenderer.cpp</title>
<!-- Node1 -->
<g id="node1" class="node">
<title>Node1</title>
<g id="a_node1"><a xlink:title=" ">
<polygon fill="#999999" stroke="#666666" points="554,-371 392,-371 392,-341 554,-341 554,-371"/>
<text text-anchor="start" x="400" y="-359" font-family="Helvetica,sans-Serif" font-size="10.00">engine/components/renderers</text>
<text text-anchor="middle" x="473" y="-348" font-family="Helvetica,sans-Serif" font-size="10.00">/TextureRenderer.cpp</text>
</a>
</g>
</g>
<!-- Node2 -->
<g id="node2" class="node">
<title>Node2</title>
<g id="a_node2"><a xlink:href="../../d6/d02/TextureRenderer_8hpp.html" target="_top" xlink:title=" ">
<polygon fill="white" stroke="#666666" points="298.5,-305 181.5,-305 181.5,-286 298.5,-286 298.5,-305"/>
<text text-anchor="middle" x="240" y="-293" font-family="Helvetica,sans-Serif" font-size="10.00">TextureRenderer.hpp</text>
</a>
</g>
</g>
<!-- Node1&#45;&gt;Node2 -->
<g id="edge1" class="edge">
<title>Node1&#45;&gt;Node2</title>
<path fill="none" stroke="#63b8ff" d="M417.19,-340.99C376.46,-330.76 321.99,-317.09 284.25,-307.61"/>
<polygon fill="#63b8ff" stroke="#63b8ff" points="284.62,-304.09 274.07,-305.05 282.91,-310.88 284.62,-304.09"/>
</g>
<!-- Node13 -->
<g id="node13" class="node">
<title>Node13</title>
<g id="a_node13"><a xlink:title=" ">
<polygon fill="#e0e0e0" stroke="#999999" points="442,-195 334,-195 334,-176 442,-176 442,-195"/>
<text text-anchor="middle" x="388" y="-183" font-family="Helvetica,sans-Serif" font-size="10.00">SDL3/SDL_render.h</text>
</a>
</g>
</g>
<!-- Node1&#45;&gt;Node13 -->
<g id="edge17" class="edge">
<title>Node1&#45;&gt;Node13</title>
<path fill="none" stroke="#63b8ff" d="M442.02,-340.82C427.44,-332.5 411.26,-320.54 402,-305 383.51,-273.97 383.71,-230.23 385.72,-205.49"/>
<polygon fill="#63b8ff" stroke="#63b8ff" points="389.23,-205.59 386.75,-195.3 382.26,-204.9 389.23,-205.59"/>
</g>
<!-- Node15 -->
<g id="node15" class="node">
<title>Node15</title>
<g id="a_node15"><a xlink:title=" ">
<polygon fill="#e0e0e0" stroke="#999999" points="535.5,-305 410.5,-305 410.5,-286 535.5,-286 535.5,-305"/>
<text text-anchor="middle" x="473" y="-293" font-family="Helvetica,sans-Serif" font-size="10.00">SDL3/SDL_oldnames.h</text>
</a>
</g>
</g>
<!-- Node1&#45;&gt;Node15 -->
<g id="edge16" class="edge">
<title>Node1&#45;&gt;Node15</title>
<path fill="none" stroke="#63b8ff" d="M473,-340.84C473,-333.21 473,-323.7 473,-315.45"/>
<polygon fill="#63b8ff" stroke="#63b8ff" points="476.5,-315.27 473,-305.27 469.5,-315.27 476.5,-315.27"/>
</g>
<!-- Node16 -->
<g id="node16" class="node">
<title>Node16</title>
<g id="a_node16"><a xlink:title=" ">
<polygon fill="#e0e0e0" stroke="#999999" points="666.5,-305 553.5,-305 553.5,-286 666.5,-286 666.5,-305"/>
<text text-anchor="middle" x="610" y="-293" font-family="Helvetica,sans-Serif" font-size="10.00">SDL3/SDL_surface.h</text>
</a>
</g>
</g>
<!-- Node1&#45;&gt;Node16 -->
<g id="edge18" class="edge">
<title>Node1&#45;&gt;Node16</title>
<path fill="none" stroke="#63b8ff" d="M505.81,-340.99C528.47,-331.31 558.35,-318.56 580.3,-309.18"/>
<polygon fill="#63b8ff" stroke="#63b8ff" points="581.95,-312.29 589.77,-305.14 579.2,-305.85 581.95,-312.29"/>
</g>
<!-- Node17 -->
<g id="node17" class="node">
<title>Node17</title>
<g id="a_node17"><a xlink:title=" ">
<polygon fill="#e0e0e0" stroke="#999999" points="829,-305 685,-305 685,-286 829,-286 829,-305"/>
<text text-anchor="middle" x="757" y="-293" font-family="Helvetica,sans-Serif" font-size="10.00">SDL3_image/SDL_image.h</text>
</a>
</g>
</g>
<!-- Node1&#45;&gt;Node17 -->
<g id="edge19" class="edge">
<title>Node1&#45;&gt;Node17</title>
<path fill="none" stroke="#63b8ff" d="M541.03,-340.99C591.52,-330.59 659.34,-316.62 705.41,-307.13"/>
<polygon fill="#63b8ff" stroke="#63b8ff" points="706.39,-310.5 715.47,-305.05 704.97,-303.64 706.39,-310.5"/>
</g>
<!-- Node3 -->
<g id="node3" class="node">
<title>Node3</title>
<g id="a_node3"><a xlink:href="../../dd/db8/Renderer_8hpp.html" target="_top" xlink:title=" ">
<polygon fill="white" stroke="#666666" points="280.5,-250 199.5,-250 199.5,-231 280.5,-231 280.5,-250"/>
<text text-anchor="middle" x="240" y="-238" font-family="Helvetica,sans-Serif" font-size="10.00">Renderer.hpp</text>
</a>
</g>
</g>
<!-- Node2&#45;&gt;Node3 -->
<g id="edge2" class="edge">
<title>Node2&#45;&gt;Node3</title>
<path fill="none" stroke="#63b8ff" d="M240,-285.75C240,-278.8 240,-268.85 240,-260.13"/>
<polygon fill="#63b8ff" stroke="#63b8ff" points="243.5,-260.09 240,-250.09 236.5,-260.09 243.5,-260.09"/>
</g>
<!-- Node10 -->
<g id="node10" class="node">
<title>Node10</title>
<g id="a_node10"><a xlink:title=" ">
<polygon fill="#e0e0e0" stroke="#999999" points="163,-79.5 105,-79.5 105,-60.5 163,-60.5 163,-79.5"/>
<text text-anchor="middle" x="134" y="-67.5" font-family="Helvetica,sans-Serif" font-size="10.00">memory</text>
</a>
</g>
</g>
<!-- Node2&#45;&gt;Node10 -->
<g id="edge15" class="edge">
<title>Node2&#45;&gt;Node10</title>
<path fill="none" stroke="#63b8ff" d="M226.39,-285.81C204,-270.59 160.14,-236.73 143,-195 128.63,-160.01 129.71,-114.82 131.83,-89.79"/>
<polygon fill="#63b8ff" stroke="#63b8ff" points="135.34,-89.83 132.86,-79.53 128.38,-89.13 135.34,-89.83"/>
</g>
<!-- Node2&#45;&gt;Node13 -->
<g id="edge14" class="edge">
<title>Node2&#45;&gt;Node13</title>
<path fill="none" stroke="#63b8ff" d="M251.86,-285.84C277.08,-267.44 336.29,-224.23 367.67,-201.34"/>
<polygon fill="#63b8ff" stroke="#63b8ff" points="370.07,-203.92 376.08,-195.2 365.94,-198.26 370.07,-203.92"/>
</g>
<!-- Node14 -->
<g id="node14" class="node">
<title>Node14</title>
<g id="a_node14"><a xlink:title=" ">
<polygon fill="#e0e0e0" stroke="#999999" points="96,-250 0,-250 0,-231 96,-231 96,-250"/>
<text text-anchor="middle" x="48" y="-238" font-family="Helvetica,sans-Serif" font-size="10.00">SDL3/SDL_rect.h</text>
</a>
</g>
</g>
<!-- Node2&#45;&gt;Node14 -->
<g id="edge13" class="edge">
<title>Node2&#45;&gt;Node14</title>
<path fill="none" stroke="#63b8ff" d="M209.15,-285.98C176.5,-276.97 124.8,-262.7 88.8,-252.76"/>
<polygon fill="#63b8ff" stroke="#63b8ff" points="89.66,-249.37 79.09,-250.08 87.8,-256.12 89.66,-249.37"/>
</g>
<!-- Node4 -->
<g id="node4" class="node">
<title>Node4</title>
<g id="a_node4"><a xlink:href="../../d2/d69/GameObjectComponent_8hpp.html" target="_top" xlink:title=" ">
<polygon fill="white" stroke="#666666" points="316,-195 152,-195 152,-176 316,-176 316,-195"/>
<text text-anchor="middle" x="234" y="-183" font-family="Helvetica,sans-Serif" font-size="10.00">../GameObjectComponent.hpp</text>
</a>
</g>
</g>
<!-- Node3&#45;&gt;Node4 -->
<g id="edge3" class="edge">
<title>Node3&#45;&gt;Node4</title>
<path fill="none" stroke="#63b8ff" d="M239.01,-230.75C238.22,-223.8 237.1,-213.85 236.11,-205.13"/>
<polygon fill="#63b8ff" stroke="#63b8ff" points="239.58,-204.63 234.97,-195.09 232.62,-205.42 239.58,-204.63"/>
</g>
<!-- Node3&#45;&gt;Node13 -->
<g id="edge12" class="edge">
<title>Node3&#45;&gt;Node13</title>
<path fill="none" stroke="#63b8ff" d="M263.78,-230.98C288.23,-222.23 326.53,-208.51 354.15,-198.62"/>
<polygon fill="#63b8ff" stroke="#63b8ff" points="355.55,-201.84 363.79,-195.17 353.19,-195.25 355.55,-201.84"/>
</g>
<!-- Node5 -->
<g id="node5" class="node">
<title>Node5</title>
<g id="a_node5"><a xlink:title=" ">
<polygon fill="#e0e0e0" stroke="#999999" points="205.5,-140 152.5,-140 152.5,-121 205.5,-121 205.5,-140"/>
<text text-anchor="middle" x="179" y="-128" font-family="Helvetica,sans-Serif" font-size="10.00">cstddef</text>
</a>
</g>
</g>
<!-- Node4&#45;&gt;Node5 -->
<g id="edge4" class="edge">
<title>Node4&#45;&gt;Node5</title>
<path fill="none" stroke="#63b8ff" d="M224.92,-175.75C216.91,-168.03 205.04,-156.6 195.38,-147.28"/>
<polygon fill="#63b8ff" stroke="#63b8ff" points="197.54,-144.51 187.91,-140.09 192.69,-149.55 197.54,-144.51"/>
</g>
<!-- Node6 -->
<g id="node6" class="node">
<title>Node6</title>
<g id="a_node6"><a xlink:href="../../d4/db5/GameObject_8hpp.html" target="_top" xlink:title=" ">
<polygon fill="white" stroke="#666666" points="330.5,-140 223.5,-140 223.5,-121 330.5,-121 330.5,-140"/>
<text text-anchor="middle" x="277" y="-128" font-family="Helvetica,sans-Serif" font-size="10.00">../GameObject.hpp</text>
</a>
</g>
</g>
<!-- Node4&#45;&gt;Node6 -->
<g id="edge5" class="edge">
<title>Node4&#45;&gt;Node6</title>
<path fill="none" stroke="#63b8ff" d="M241.1,-175.75C247.17,-168.26 256.09,-157.28 263.51,-148.13"/>
<polygon fill="#63b8ff" stroke="#63b8ff" points="266.45,-150.06 270.03,-140.09 261.01,-145.65 266.45,-150.06"/>
</g>
<!-- Node7 -->
<g id="node7" class="node">
<title>Node7</title>
<g id="a_node7"><a xlink:href="../../d9/d4a/Vector2_8hpp.html" target="_top" xlink:title=" ">
<polygon fill="white" stroke="#666666" points="388,-79.5 314,-79.5 314,-60.5 388,-60.5 388,-79.5"/>
<text text-anchor="middle" x="351" y="-67.5" font-family="Helvetica,sans-Serif" font-size="10.00">Vector2.hpp</text>
</a>
</g>
</g>
<!-- Node6&#45;&gt;Node7 -->
<g id="edge6" class="edge">
<title>Node6&#45;&gt;Node7</title>
<path fill="none" stroke="#63b8ff" d="M287.92,-120.87C299.51,-111.71 318.03,-97.06 332.02,-86.01"/>
<polygon fill="#63b8ff" stroke="#63b8ff" points="334.36,-88.61 340.04,-79.67 330.02,-83.12 334.36,-88.61"/>
</g>
<!-- Node8 -->
<g id="node8" class="node">
<title>Node8</title>
<g id="a_node8"><a xlink:href="../../d4/d71/ComponentNotFoundException_8hpp.html" target="_top" xlink:title=" ">
<polygon fill="white" stroke="#666666" points="582,-85 406,-85 406,-55 582,-55 582,-85"/>
<text text-anchor="start" x="414" y="-73" font-family="Helvetica,sans-Serif" font-size="10.00">exceptions/ComponentNotFound</text>
<text text-anchor="middle" x="494" y="-62" font-family="Helvetica,sans-Serif" font-size="10.00">Exception.hpp</text>
</a>
</g>
</g>
<!-- Node6&#45;&gt;Node8 -->
<g id="edge7" class="edge">
<title>Node6&#45;&gt;Node8</title>
<path fill="none" stroke="#63b8ff" d="M308.55,-120.99C340.81,-112.3 391.75,-98.57 432.08,-87.69"/>
<polygon fill="#63b8ff" stroke="#63b8ff" points="433.09,-91.05 441.83,-85.06 431.26,-84.29 433.09,-91.05"/>
</g>
<!-- Node6&#45;&gt;Node10 -->
<g id="edge9" class="edge">
<title>Node6&#45;&gt;Node10</title>
<path fill="none" stroke="#63b8ff" d="M256.21,-120.99C232.06,-111.12 192.02,-94.73 164.38,-83.43"/>
<polygon fill="#63b8ff" stroke="#63b8ff" points="165.4,-80.06 154.82,-79.52 162.75,-86.54 165.4,-80.06"/>
</g>
<!-- Node11 -->
<g id="node11" class="node">
<title>Node11</title>
<g id="a_node11"><a xlink:title=" ">
<polygon fill="#e0e0e0" stroke="#999999" points="230,-79.5 186,-79.5 186,-60.5 230,-60.5 230,-79.5"/>
<text text-anchor="middle" x="208" y="-67.5" font-family="Helvetica,sans-Serif" font-size="10.00">string</text>
</a>
</g>
</g>
<!-- Node6&#45;&gt;Node11 -->
<g id="edge10" class="edge">
<title>Node6&#45;&gt;Node11</title>
<path fill="none" stroke="#63b8ff" d="M266.82,-120.87C256.12,-111.8 239.06,-97.34 226.07,-86.32"/>
<polygon fill="#63b8ff" stroke="#63b8ff" points="228.11,-83.46 218.22,-79.67 223.59,-88.8 228.11,-83.46"/>
</g>
<!-- Node12 -->
<g id="node12" class="node">
<title>Node12</title>
<g id="a_node12"><a xlink:title=" ">
<polygon fill="#e0e0e0" stroke="#999999" points="295.5,-79.5 248.5,-79.5 248.5,-60.5 295.5,-60.5 295.5,-79.5"/>
<text text-anchor="middle" x="272" y="-67.5" font-family="Helvetica,sans-Serif" font-size="10.00">vector</text>
</a>
</g>
</g>
<!-- Node6&#45;&gt;Node12 -->
<g id="edge11" class="edge">
<title>Node6&#45;&gt;Node12</title>
<path fill="none" stroke="#63b8ff" d="M276.26,-120.87C275.57,-112.75 274.5,-100.31 273.61,-89.89"/>
<polygon fill="#63b8ff" stroke="#63b8ff" points="277.08,-89.33 272.74,-79.67 270.11,-89.93 277.08,-89.33"/>
</g>
<!-- Node9 -->
<g id="node9" class="node">
<title>Node9</title>
<g id="a_node9"><a xlink:title=" ">
<polygon fill="#e0e0e0" stroke="#999999" points="526.5,-19 461.5,-19 461.5,0 526.5,0 526.5,-19"/>
<text text-anchor="middle" x="494" y="-7" font-family="Helvetica,sans-Serif" font-size="10.00">exception</text>
</a>
</g>
</g>
<!-- Node8&#45;&gt;Node9 -->
<g id="edge8" class="edge">
<title>Node8&#45;&gt;Node9</title>
<path fill="none" stroke="#63b8ff" d="M494,-54.84C494,-47.21 494,-37.7 494,-29.45"/>
<polygon fill="#63b8ff" stroke="#63b8ff" points="497.5,-29.27 494,-19.27 490.5,-29.27 497.5,-29.27"/>
</g>
</g>
</svg>
