<?xml version="1.0" encoding="UTF-8" standalone="no"?>
<!DOCTYPE svg PUBLIC "-//W3C//DTD SVG 1.1//EN"
 "http://www.w3.org/Graphics/SVG/1.1/DTD/svg11.dtd">
<!-- Generated by graphviz version 2.43.0 (0)
 -->
<!-- Title: GameManagerBehavior Pages: 1 -->
<!--zoomable 1102 -->

<svg id="main" version="1.1" xmlns="http://www.w3.org/2000/svg" xmlns:xlink="http://www.w3.org/1999/xlink" xml:space="preserve" onload="init(evt)">

<style type="text/css"><![CDATA[
.node, .edge {opacity: 0.7;}
.node.selected, .edge.selected {opacity: 1;}
.edge:hover path { stroke: red; }
.edge:hover polygon { stroke: red; fill: red; }
]]></style>

<defs>
  <circle id="rim" cx="0" cy="0" r="7"/>
  <circle id="rim2" cx="0" cy="0" r="3.5"/>
  <g id="zoomPlus">
    <use xlink:href="#rim" fill="#404040"><set attributeName="fill" to="#808080" begin="zoomplus.mouseover" end="zoomplus.mouseout"/></use>
    <path d="M-4,0h8M0,-4v8" fill="none" stroke="white" stroke-width="1.5" pointer-events="none"/>
  </g>
  <g id="zoomMin">
    <use xlink:href="#rim" fill="#404040"><set attributeName="fill" to="#808080" begin="zoomminus.mouseover" end="zoomminus.mouseout"/></use>
    <path d="M-4,0h8" fill="none" stroke="white" stroke-width="1.5" pointer-events="none"/>
  </g>
  <g id="arrowUp" transform="translate(30 24)">
    <use xlink:href="#rim"/>
    <path pointer-events="none" fill="none" stroke="white" stroke-width="1.5" d="M0,-3.0v7 M-2.5,-0.5L0,-3.0L2.5,-0.5"/>
  </g>
  <g id="arrowRight" transform="rotate(90) translate(36 -43)">
    <use xlink:href="#rim"/>
    <path pointer-events="none" fill="none" stroke="white" stroke-width="1.5" d="M0,-3.0v7 M-2.5,-0.5L0,-3.0L2.5,-0.5"/>
  </g>
  <g id="arrowDown" transform="rotate(180) translate(-30 -48)">
    <use xlink:href="#rim"/>
    <path pointer-events="none" fill="none" stroke="white" stroke-width="1.5" d="M0,-3.0v7 M-2.5,-0.5L0,-3.0L2.5,-0.5"/>
  </g>
  <g id="arrowLeft" transform="rotate(270) translate(-36 17)">
    <use xlink:href="#rim"/>
    <path pointer-events="none" fill="none" stroke="white" stroke-width="1.5" d="M0,-3.0v7 M-2.5,-0.5L0,-3.0L2.5,-0.5"/>
  </g>
  <g id="resetDef">
    <use xlink:href="#rim2" fill="#404040"><set attributeName="fill" to="#808080" begin="reset.mouseover" end="reset.mouseout"/></use>
  </g>
</defs>
<script type="application/ecmascript">
var viewWidth = 197;
var viewHeight = 1102;
var sectionId = 'dynsection-1';
</script>
<script type="application/ecmascript" xlink:href="../../svg.min.js"/>
<svg id="graph" class="graph">
<g id="viewport">
<title>GameManagerBehavior</title>
<!-- Node1 -->
<g id="Node000001" class="node">
<title>Node1</title>
<g id="a_Node000001"><a xlink:title="The base game manager behavior.">
<polygon fill="#999999" stroke="transparent" points="176.5,-146 12.5,-146 12.5,0 176.5,0 176.5,-146"/>
<text text-anchor="start" x="36.5" y="-134" font-family="Helvetica,sans-Serif" font-size="10.00">GameManagerBehavior</text>
<text text-anchor="start" x="16.5" y="-119" font-family="Helvetica,sans-Serif" font-size="10.00">#</text>
<text text-anchor="start" x="29.5" y="-119" font-family="Helvetica,sans-Serif" font-size="10.00">long long timeOfLastEnemy</text>
<text text-anchor="start" x="16.5" y="-104" font-family="Helvetica,sans-Serif" font-size="10.00">#</text>
<text text-anchor="start" x="29.5" y="-104" font-family="Helvetica,sans-Serif" font-size="10.00">long long enemySpawnDelay</text>
<text text-anchor="start" x="16.5" y="-89" font-family="Helvetica,sans-Serif" font-size="10.00">#</text>
<text text-anchor="start" x="29.5" y="-89" font-family="Helvetica,sans-Serif" font-size="10.00">long long timeOfLastCoffee</text>
<text text-anchor="start" x="16.5" y="-74" font-family="Helvetica,sans-Serif" font-size="10.00">#</text>
<text text-anchor="start" x="29.5" y="-74" font-family="Helvetica,sans-Serif" font-size="10.00">long long coffeeSpawnDelay</text>
<text text-anchor="start" x="16.5" y="-59" font-family="Helvetica,sans-Serif" font-size="10.00">+</text>
<text text-anchor="start" x="29.5" y="-59" font-family="Helvetica,sans-Serif" font-size="10.00">virtual void OnTick</text>
<text text-anchor="start" x="29.5" y="-48" font-family="Helvetica,sans-Serif" font-size="10.00">() override</text>
<text text-anchor="start" x="16.5" y="-33" font-family="Helvetica,sans-Serif" font-size="10.00">+</text>
<text text-anchor="start" x="29.5" y="-33" font-family="Helvetica,sans-Serif" font-size="10.00">virtual void OnStart</text>
<text text-anchor="start" x="29.5" y="-22" font-family="Helvetica,sans-Serif" font-size="10.00">() override</text>
<text text-anchor="start" x="16.5" y="-7" font-family="Helvetica,sans-Serif" font-size="10.00">#</text>
<text text-anchor="start" x="29.5" y="-7" font-family="Helvetica,sans-Serif" font-size="10.00">float GetObjectVelocity()</text>
<polygon fill="#666666" stroke="#666666" points="12.5,-129 12.5,-129 176.5,-129 176.5,-129 12.5,-129"/>
<polygon fill="#666666" stroke="#666666" points="12.5,-69 12.5,-69 27.5,-69 27.5,-69 12.5,-69"/>
<polygon fill="#666666" stroke="#666666" points="27.5,-69 27.5,-69 176.5,-69 176.5,-69 27.5,-69"/>
<polygon fill="none" stroke="#666666" points="12.5,0 12.5,-146 176.5,-146 176.5,0 12.5,0"/>
</a>
</g>
</g>
<!-- Node2 -->
<g id="Node000002" class="node">
<title>Node2</title>
<g id="a_Node000002"><a xlink:href="../../df/dc1/classBehavior.html" target="_top" xlink:title="An abstract gameobject behavior.">
<polygon fill="white" stroke="transparent" points="121.5,-232 67.5,-232 67.5,-183 121.5,-183 121.5,-232"/>
<text text-anchor="start" x="72.5" y="-219.5" font-family="Helvetica,sans-Serif" font-size="10.00">Behavior</text>
<text text-anchor="start" x="92.5" y="-204.5" font-family="Helvetica,sans-Serif" font-size="10.00"> </text>
<text text-anchor="start" x="92.5" y="-189.5" font-family="Helvetica,sans-Serif" font-size="10.00"> </text>
<polygon fill="#666666" stroke="#666666" points="67.5,-214.5 67.5,-214.5 121.5,-214.5 121.5,-214.5 67.5,-214.5"/>
<polygon fill="#666666" stroke="#666666" points="67.5,-199.5 67.5,-199.5 121.5,-199.5 121.5,-199.5 67.5,-199.5"/>
<polygon fill="none" stroke="#666666" points="67.5,-183 67.5,-232 121.5,-232 121.5,-183 67.5,-183"/>
</a>
</g>
</g>
<!-- Node2&#45;&gt;Node1 -->
<g id="edge1_Node000001_Node000002" class="edge">
<title>Node2&#45;&gt;Node1</title>
<g id="a_edge1_Node000001_Node000002"><a xlink:title=" ">
<path fill="none" stroke="#63b8ff" d="M94.5,-172.59C94.5,-164.39 94.5,-155.3 94.5,-146.07"/>
<polygon fill="none" stroke="#63b8ff" points="91,-172.81 94.5,-182.81 98,-172.81 91,-172.81"/>
</a>
</g>
</g>
<!-- Node3 -->
<g id="Node000003" class="node">
<title>Node3</title>
<g id="a_Node000003"><a xlink:href="../../d9/df7/classGameObjectComponent.html" target="_top" xlink:title="An abstract gameobject component.">
<polygon fill="white" stroke="transparent" points="189,-415 0,-415 0,-269 189,-269 189,-415"/>
<text text-anchor="start" x="36" y="-403" font-family="Helvetica,sans-Serif" font-size="10.00">GameObjectComponent</text>
<text text-anchor="start" x="4.5" y="-388" font-family="Helvetica,sans-Serif" font-size="10.00">#</text>
<text text-anchor="start" x="17.5" y="-388" font-family="Helvetica,sans-Serif" font-size="10.00">bool enabled</text>
<text text-anchor="start" x="4.5" y="-373" font-family="Helvetica,sans-Serif" font-size="10.00">+</text>
<text text-anchor="start" x="17.5" y="-373" font-family="Helvetica,sans-Serif" font-size="10.00">bool getEnabled() const</text>
<text text-anchor="start" x="4.5" y="-358" font-family="Helvetica,sans-Serif" font-size="10.00">+</text>
<text text-anchor="start" x="17.5" y="-358" font-family="Helvetica,sans-Serif" font-size="10.00">void setEnabled(bool</text>
<text text-anchor="start" x="17.5" y="-347" font-family="Helvetica,sans-Serif" font-size="10.00"> value)</text>
<text text-anchor="start" x="4.5" y="-332" font-family="Helvetica,sans-Serif" font-size="10.00">+</text>
<text text-anchor="start" x="17.5" y="-332" font-family="Helvetica,sans-Serif" font-size="10.00">void setParent(GameObject</text>
<text text-anchor="start" x="17.5" y="-321" font-family="Helvetica,sans-Serif" font-size="10.00"> *value)</text>
<text text-anchor="start" x="4.5" y="-306" font-family="Helvetica,sans-Serif" font-size="10.00">+</text>
<text text-anchor="start" x="17.5" y="-306" font-family="Helvetica,sans-Serif" font-size="10.00">virtual ~GameObjectComponent()</text>
<text text-anchor="start" x="4.5" y="-291" font-family="Helvetica,sans-Serif" font-size="10.00">+</text>
<text text-anchor="start" x="17.5" y="-291" font-family="Helvetica,sans-Serif" font-size="10.00">virtual void OnTick()=0</text>
<text text-anchor="start" x="4.5" y="-276" font-family="Helvetica,sans-Serif" font-size="10.00">+</text>
<text text-anchor="start" x="17.5" y="-276" font-family="Helvetica,sans-Serif" font-size="10.00">virtual void OnStart()=0</text>
<polygon fill="#666666" stroke="#666666" points="0.5,-398 0.5,-398 189.5,-398 189.5,-398 0.5,-398"/>
<polygon fill="#666666" stroke="#666666" points="0.5,-383 0.5,-383 15.5,-383 15.5,-383 0.5,-383"/>
<polygon fill="#666666" stroke="#666666" points="15.5,-383 15.5,-383 189.5,-383 189.5,-383 15.5,-383"/>
<polygon fill="none" stroke="#666666" points="0,-269 0,-415 189,-415 189,-269 0,-269"/>
</a>
</g>
</g>
<!-- Node3&#45;&gt;Node2 -->
<g id="edge2_Node000002_Node000003" class="edge">
<title>Node3&#45;&gt;Node2</title>
<g id="a_edge2_Node000002_Node000003"><a xlink:title=" ">
<path fill="none" stroke="#63b8ff" d="M94.5,-258.71C94.5,-249.03 94.5,-239.83 94.5,-232.02"/>
<polygon fill="none" stroke="#63b8ff" points="91,-258.93 94.5,-268.93 98,-258.93 91,-258.93"/>
</a>
</g>
</g>
<!-- Node4 -->
<g id="Node000004" class="node">
<title>Node4</title>
<g id="a_Node000004"><a xlink:href="../../de/d1c/classGameObject.html" target="_top" xlink:title="A GameObject that represents an individual object in the game.">
<polygon fill="white" stroke="transparent" points="179.5,-1094 9.5,-1094 9.5,-462 179.5,-462 179.5,-1094"/>
<text text-anchor="start" x="64" y="-1082" font-family="Helvetica,sans-Serif" font-size="10.00">GameObject</text>
<text text-anchor="start" x="13.5" y="-1067" font-family="Helvetica,sans-Serif" font-size="10.00">+</text>
<text text-anchor="start" x="26.5" y="-1067" font-family="Helvetica,sans-Serif" font-size="10.00">std::vector&lt; std::shared</text>
<text text-anchor="start" x="26.5" y="-1056" font-family="Helvetica,sans-Serif" font-size="10.00">_ptr&lt; GameObjectComponent</text>
<text text-anchor="start" x="26.5" y="-1045" font-family="Helvetica,sans-Serif" font-size="10.00"> &gt; &gt; components</text>
<text text-anchor="start" x="13.5" y="-1030" font-family="Helvetica,sans-Serif" font-size="10.00">#</text>
<text text-anchor="start" x="26.5" y="-1030" font-family="Helvetica,sans-Serif" font-size="10.00">bool enabled</text>
<text text-anchor="start" x="13.5" y="-1015" font-family="Helvetica,sans-Serif" font-size="10.00">#</text>
<text text-anchor="start" x="26.5" y="-1015" font-family="Helvetica,sans-Serif" font-size="10.00">float weight</text>
<text text-anchor="start" x="13.5" y="-1000" font-family="Helvetica,sans-Serif" font-size="10.00">#</text>
<text text-anchor="start" x="26.5" y="-1000" font-family="Helvetica,sans-Serif" font-size="10.00">std::shared_ptr&lt; Vector2</text>
<text text-anchor="start" x="26.5" y="-989" font-family="Helvetica,sans-Serif" font-size="10.00"> &gt; position</text>
<text text-anchor="start" x="13.5" y="-974" font-family="Helvetica,sans-Serif" font-size="10.00">#</text>
<text text-anchor="start" x="26.5" y="-974" font-family="Helvetica,sans-Serif" font-size="10.00">std::shared_ptr&lt; Vector2</text>
<text text-anchor="start" x="26.5" y="-963" font-family="Helvetica,sans-Serif" font-size="10.00"> &gt; scale</text>
<text text-anchor="start" x="13.5" y="-948" font-family="Helvetica,sans-Serif" font-size="10.00">#</text>
<text text-anchor="start" x="26.5" y="-948" font-family="Helvetica,sans-Serif" font-size="10.00">std::shared_ptr&lt; Vector2</text>
<text text-anchor="start" x="26.5" y="-937" font-family="Helvetica,sans-Serif" font-size="10.00"> &gt; velocity</text>
<text text-anchor="start" x="13.5" y="-922" font-family="Helvetica,sans-Serif" font-size="10.00">#</text>
<text text-anchor="start" x="26.5" y="-922" font-family="Helvetica,sans-Serif" font-size="10.00">std::string tag</text>
<text text-anchor="start" x="13.5" y="-907" font-family="Helvetica,sans-Serif" font-size="10.00">+</text>
<text text-anchor="start" x="26.5" y="-907" font-family="Helvetica,sans-Serif" font-size="10.00">const std::string getTag</text>
<text text-anchor="start" x="26.5" y="-896" font-family="Helvetica,sans-Serif" font-size="10.00">() const</text>
<text text-anchor="start" x="13.5" y="-881" font-family="Helvetica,sans-Serif" font-size="10.00">+</text>
<text text-anchor="start" x="26.5" y="-881" font-family="Helvetica,sans-Serif" font-size="10.00">void setTag(std::string</text>
<text text-anchor="start" x="26.5" y="-870" font-family="Helvetica,sans-Serif" font-size="10.00"> value)</text>
<text text-anchor="start" x="13.5" y="-855" font-family="Helvetica,sans-Serif" font-size="10.00">+</text>
<text text-anchor="start" x="26.5" y="-855" font-family="Helvetica,sans-Serif" font-size="10.00">bool getEnabled() const</text>
<text text-anchor="start" x="13.5" y="-840" font-family="Helvetica,sans-Serif" font-size="10.00">+</text>
<text text-anchor="start" x="26.5" y="-840" font-family="Helvetica,sans-Serif" font-size="10.00">void setEnabled(bool</text>
<text text-anchor="start" x="26.5" y="-829" font-family="Helvetica,sans-Serif" font-size="10.00"> value)</text>
<text text-anchor="start" x="13.5" y="-814" font-family="Helvetica,sans-Serif" font-size="10.00">+</text>
<text text-anchor="start" x="26.5" y="-814" font-family="Helvetica,sans-Serif" font-size="10.00">float getWeight() const</text>
<text text-anchor="start" x="13.5" y="-799" font-family="Helvetica,sans-Serif" font-size="10.00">+</text>
<text text-anchor="start" x="26.5" y="-799" font-family="Helvetica,sans-Serif" font-size="10.00">void setWeight(float</text>
<text text-anchor="start" x="26.5" y="-788" font-family="Helvetica,sans-Serif" font-size="10.00"> value)</text>
<text text-anchor="start" x="13.5" y="-773" font-family="Helvetica,sans-Serif" font-size="10.00">+</text>
<text text-anchor="start" x="26.5" y="-773" font-family="Helvetica,sans-Serif" font-size="10.00">std::shared_ptr&lt; Vector2</text>
<text text-anchor="start" x="26.5" y="-762" font-family="Helvetica,sans-Serif" font-size="10.00"> &gt; getPosition() const</text>
<text text-anchor="start" x="13.5" y="-747" font-family="Helvetica,sans-Serif" font-size="10.00">+</text>
<text text-anchor="start" x="26.5" y="-747" font-family="Helvetica,sans-Serif" font-size="10.00">void setPosition(std</text>
<text text-anchor="start" x="26.5" y="-736" font-family="Helvetica,sans-Serif" font-size="10.00">::shared_ptr&lt; Vector2</text>
<text text-anchor="start" x="26.5" y="-725" font-family="Helvetica,sans-Serif" font-size="10.00"> &gt; value)</text>
<text text-anchor="start" x="13.5" y="-710" font-family="Helvetica,sans-Serif" font-size="10.00">+</text>
<text text-anchor="start" x="26.5" y="-710" font-family="Helvetica,sans-Serif" font-size="10.00">std::shared_ptr&lt; Vector2</text>
<text text-anchor="start" x="26.5" y="-699" font-family="Helvetica,sans-Serif" font-size="10.00"> &gt; getScale() const</text>
<text text-anchor="start" x="13.5" y="-684" font-family="Helvetica,sans-Serif" font-size="10.00">+</text>
<text text-anchor="start" x="26.5" y="-684" font-family="Helvetica,sans-Serif" font-size="10.00">void setScale(std::</text>
<text text-anchor="start" x="26.5" y="-673" font-family="Helvetica,sans-Serif" font-size="10.00">shared_ptr&lt; Vector2</text>
<text text-anchor="start" x="26.5" y="-662" font-family="Helvetica,sans-Serif" font-size="10.00"> &gt; value)</text>
<text text-anchor="start" x="13.5" y="-647" font-family="Helvetica,sans-Serif" font-size="10.00">+</text>
<text text-anchor="start" x="26.5" y="-647" font-family="Helvetica,sans-Serif" font-size="10.00">std::shared_ptr&lt; Vector2</text>
<text text-anchor="start" x="26.5" y="-636" font-family="Helvetica,sans-Serif" font-size="10.00"> &gt; getVelocity() const</text>
<text text-anchor="start" x="13.5" y="-621" font-family="Helvetica,sans-Serif" font-size="10.00">+</text>
<text text-anchor="start" x="26.5" y="-621" font-family="Helvetica,sans-Serif" font-size="10.00">void setVelocity(std</text>
<text text-anchor="start" x="26.5" y="-610" font-family="Helvetica,sans-Serif" font-size="10.00">::shared_ptr&lt; Vector2</text>
<text text-anchor="start" x="26.5" y="-599" font-family="Helvetica,sans-Serif" font-size="10.00"> &gt; value)</text>
<text text-anchor="start" x="13.5" y="-584" font-family="Helvetica,sans-Serif" font-size="10.00">+</text>
<text text-anchor="start" x="26.5" y="-584" font-family="Helvetica,sans-Serif" font-size="10.00">GameObject()</text>
<text text-anchor="start" x="13.5" y="-569" font-family="Helvetica,sans-Serif" font-size="10.00">+</text>
<text text-anchor="start" x="26.5" y="-569" font-family="Helvetica,sans-Serif" font-size="10.00">virtual ~GameObject()</text>
<text text-anchor="start" x="13.5" y="-554" font-family="Helvetica,sans-Serif" font-size="10.00">+</text>
<text text-anchor="start" x="26.5" y="-554" font-family="Helvetica,sans-Serif" font-size="10.00">void RegisterComponent</text>
<text text-anchor="start" x="26.5" y="-543" font-family="Helvetica,sans-Serif" font-size="10.00">(std::shared_ptr&lt; GameObject</text>
<text text-anchor="start" x="26.5" y="-532" font-family="Helvetica,sans-Serif" font-size="10.00">Component &gt; component)</text>
<text text-anchor="start" x="13.5" y="-517" font-family="Helvetica,sans-Serif" font-size="10.00">+</text>
<text text-anchor="start" x="26.5" y="-517" font-family="Helvetica,sans-Serif" font-size="10.00">void RemoveComponent</text>
<text text-anchor="start" x="26.5" y="-506" font-family="Helvetica,sans-Serif" font-size="10.00">(std::shared_ptr&lt; GameObject</text>
<text text-anchor="start" x="26.5" y="-495" font-family="Helvetica,sans-Serif" font-size="10.00">Component &gt; component)</text>
<text text-anchor="start" x="13.5" y="-480" font-family="Helvetica,sans-Serif" font-size="10.00">+</text>
<text text-anchor="start" x="26.5" y="-480" font-family="Helvetica,sans-Serif" font-size="10.00">std::shared_ptr&lt; T</text>
<text text-anchor="start" x="26.5" y="-469" font-family="Helvetica,sans-Serif" font-size="10.00"> &gt; GetFirstComponent()</text>
<polygon fill="#666666" stroke="#666666" points="9.5,-1077 9.5,-1077 179.5,-1077 179.5,-1077 9.5,-1077"/>
<polygon fill="#666666" stroke="#666666" points="9.5,-917 9.5,-917 24.5,-917 24.5,-917 9.5,-917"/>
<polygon fill="#666666" stroke="#666666" points="24.5,-917 24.5,-917 179.5,-917 179.5,-917 24.5,-917"/>
<polygon fill="none" stroke="#666666" points="9.5,-462 9.5,-1094 179.5,-1094 179.5,-462 9.5,-462"/>
</a>
</g>
</g>
<!-- Node4&#45;&gt;Node3 -->
<g id="edge3_Node000003_Node000004" class="edge">
<title>Node4&#45;&gt;Node3</title>
<g id="a_edge3_Node000003_Node000004"><a xlink:title=" ">
<path fill="none" stroke="#63b8ff" d="M94.5,-461.88C94.5,-449.85 94.5,-438.34 94.5,-427.53"/>
<polygon fill="none" stroke="#63b8ff" points="94.5,-427.18 90.5,-421.18 94.5,-415.18 98.5,-421.18 94.5,-427.18"/>
</a>
</g>
<text text-anchor="middle" x="116" y="-436" font-family="Helvetica,sans-Serif" font-size="10.00" fill="grey"> #parent</text>
</g>
</g>
</svg>

<g id="navigator" transform="translate(0 0)" fill="#404254">
  <rect fill="#f2f5e9" fill-opacity="0.5" stroke="#606060" stroke-width=".5" x="0" y="0" width="60" height="60"/>
  <use id="zoomplus" xlink:href="#zoomPlus" x="17" y="9" onmousedown="handleZoom(evt,'in')"/>
  <use id="zoomminus" xlink:href="#zoomMin" x="42" y="9" onmousedown="handleZoom(evt,'out')"/>
  <use id="reset" xlink:href="#resetDef" x="30" y="36" onmousedown="handleReset()"/>
   <use id="arrowup" xlink:href="#arrowUp" x="0" y="0" onmousedown="handlePan(0,-1)"/>
  <use id="arrowright" xlink:href="#arrowRight" x="0" y="0" onmousedown="handlePan(1,0)"/>
  <use id="arrowdown" xlink:href="#arrowDown" x="0" y="0" onmousedown="handlePan(0,1)"/>
  <use id="arrowleft" xlink:href="#arrowLeft" x="0" y="0" onmousedown="handlePan(-1,0)"/>
</g>
<svg viewBox="0 0 15 15" width="100%" height="30px" preserveAspectRatio="xMaxYMin meet">
 <g id="arrow_out" transform="scale(0.3 0.3)">
  <a xlink:href="classGameManagerBehavior__coll__graph_org.svg" target="_base">
   <rect id="button" ry="5" rx="5" y="6" x="6" height="38" width="38"
        fill="#f2f5e9" fill-opacity="0.5" stroke="#606060" stroke-width="1.0"/>
   <path id="arrow"
     d="M 11.500037,31.436501 C 11.940474,20.09759 22.043105,11.32322 32.158766,21.979434 L 37.068811,17.246167 C 37.068811,17.246167 37.088388,32 37.088388,32 L 22.160133,31.978069 C 22.160133,31.978069 26.997745,27.140456 26.997745,27.140456 C 18.528582,18.264221 13.291696,25.230495 11.500037,31.436501 z"
     style="fill:#404040;"/>
  </a>
 </g>
</svg>

<style type='text/css'>
<![CDATA[
[data-mouse-over-selected='false'] { opacity: 0.7; }
[data-mouse-over-selected='true']  { opacity: 1.0; }
]]>
</style>
<script type="application/ecmascript"><![CDATA[
document.addEventListener('DOMContentLoaded', (event) => {
  highlightEdges();
  highlightAdjacentNodes();
});
]]></script>
</svg>
