<?xml version="1.0" encoding="UTF-8" standalone="no"?>
<!DOCTYPE svg PUBLIC "-//W3C//DTD SVG 1.1//EN"
 "http://www.w3.org/Graphics/SVG/1.1/DTD/svg11.dtd">
<!-- Generated by graphviz version 2.43.0 (0)
 -->
<!-- Title: randomEngine Pages: 1 -->
<svg width="717pt" height="123pt"
 viewBox="0.00 0.00 717.00 123.49" xmlns="http://www.w3.org/2000/svg" xmlns:xlink="http://www.w3.org/1999/xlink">
<g id="graph0" class="graph" transform="scale(1 1) rotate(0) translate(4 119.49)">
<title>randomEngine</title>
<!-- Node1 -->
<g id="Node000001" class="node">
<title>Node1</title>
<g id="a_Node000001"><a xlink:title=" ">
<polygon fill="#999999" stroke="#666666" points="709,-22.49 622,-22.49 622,-3.49 709,-3.49 709,-22.49"/>
<text text-anchor="middle" x="665.5" y="-10.49" font-family="Helvetica,sans-Serif" font-size="10.00">randomEngine</text>
</a>
</g>
</g>
<!-- Node2 -->
<g id="Node000002" class="node">
<title>Node2</title>
<g id="a_Node000002"><a xlink:href="../../d4/d63/RandomNumberGenerator_8cpp.html#ab3b4d2c18f8ed2adbded9e672d49418a" target="_top" xlink:title="Generate a random integer in bounds.">
<polygon fill="white" stroke="#666666" points="586,-22.49 499,-22.49 499,-3.49 586,-3.49 586,-22.49"/>
<text text-anchor="middle" x="542.5" y="-10.49" font-family="Helvetica,sans-Serif" font-size="10.00">GetRandomInt</text>
</a>
</g>
</g>
<!-- Node1&#45;&gt;Node2 -->
<g id="edge1_Node000001_Node000002" class="edge">
<title>Node1&#45;&gt;Node2</title>
<g id="a_edge1_Node000001_Node000002"><a xlink:title=" ">
<path fill="none" stroke="#63b8ff" d="M611.62,-12.99C603.11,-12.99 594.41,-12.99 586.18,-12.99"/>
<polygon fill="#63b8ff" stroke="#63b8ff" points="611.84,-16.49 621.84,-12.99 611.84,-9.49 611.84,-16.49"/>
</a>
</g>
</g>
<!-- Node3 -->
<g id="Node000003" class="node">
<title>Node3</title>
<g id="a_Node000003"><a xlink:href="../../d4/d63/RandomNumberGenerator_8cpp.html#ab41bae80bddaf892520d0c17bcfc873b" target="_top" xlink:title="Generate a random float between 0 and 1.">
<polygon fill="white" stroke="#666666" points="463,-59.49 308,-59.49 308,-40.49 463,-40.49 463,-59.49"/>
<text text-anchor="middle" x="385.5" y="-47.49" font-family="Helvetica,sans-Serif" font-size="10.00">GetRandomNormalizedFloat</text>
</a>
</g>
</g>
<!-- Node2&#45;&gt;Node3 -->
<g id="edge2_Node000002_Node000003" class="edge">
<title>Node2&#45;&gt;Node3</title>
<g id="a_edge2_Node000002_Node000003"><a xlink:title=" ">
<path fill="none" stroke="#63b8ff" d="M491.83,-24.85C470.74,-29.88 446.47,-35.67 426.55,-40.43"/>
<polygon fill="#63b8ff" stroke="#63b8ff" points="492.67,-28.24 501.58,-22.52 491.04,-21.44 492.67,-28.24"/>
</a>
</g>
</g>
<!-- Node5 -->
<g id="Node000005" class="node">
<title>Node5</title>
<g id="a_Node000005"><a xlink:href="../../d1/d21/classGameManagerBehavior.html#a432014bfe65aa92c7f74b7e6e88c475a" target="_top" xlink:title=" ">
<polygon fill="white" stroke="#666666" points="132,-64.99 0,-64.99 0,-34.99 132,-34.99 132,-64.99"/>
<text text-anchor="start" x="8" y="-52.99" font-family="Helvetica,sans-Serif" font-size="10.00">GameManagerBehavior</text>
<text text-anchor="middle" x="66" y="-41.99" font-family="Helvetica,sans-Serif" font-size="10.00">::OnTick</text>
</a>
</g>
</g>
<!-- Node2&#45;&gt;Node5 -->
<g id="edge9_Node000002_Node000005" class="edge">
<title>Node2&#45;&gt;Node5</title>
<g id="a_edge9_Node000002_Node000005"><a xlink:title=" ">
<path fill="none" stroke="#63b8ff" d="M488.5,-7.21C415.63,-0.58 280.73,7.01 168,-12.99 144.28,-17.2 118.82,-26.56 99.4,-34.81"/>
<polygon fill="#63b8ff" stroke="#63b8ff" points="488.5,-10.73 498.79,-8.18 489.16,-3.76 488.5,-10.73"/>
</a>
</g>
</g>
<!-- Node4 -->
<g id="Node000004" class="node">
<title>Node4</title>
<g id="a_Node000004"><a xlink:href="../../df/d88/GameManagerBehavior_8cpp.html#af3e43ada7e9f58d057b3ebe83c97730e" target="_top" xlink:title=" ">
<polygon fill="white" stroke="#666666" points="272,-115.49 168,-115.49 168,-96.49 272,-96.49 272,-115.49"/>
<text text-anchor="middle" x="220" y="-103.49" font-family="Helvetica,sans-Serif" font-size="10.00">GetObjectVelocity</text>
</a>
</g>
</g>
<!-- Node3&#45;&gt;Node4 -->
<g id="edge3_Node000003_Node000004" class="edge">
<title>Node3&#45;&gt;Node4</title>
<g id="a_edge3_Node000003_Node000004"><a xlink:title=" ">
<path fill="none" stroke="#63b8ff" d="M346.71,-62.93C316.79,-73.18 275.68,-87.26 248.74,-96.49"/>
<polygon fill="#63b8ff" stroke="#63b8ff" points="348.07,-66.17 356.39,-59.62 345.8,-59.54 348.07,-66.17"/>
</a>
</g>
</g>
<!-- Node6 -->
<g id="Node000006" class="node">
<title>Node6</title>
<g id="a_Node000006"><a xlink:href="../../df/d88/GameManagerBehavior_8cpp.html#a07e6c2b5429917c119a839acc53cbfa9" target="_top" xlink:title=" ">
<polygon fill="white" stroke="#666666" points="260,-78.49 180,-78.49 180,-59.49 260,-59.49 260,-78.49"/>
<text text-anchor="middle" x="220" y="-66.49" font-family="Helvetica,sans-Serif" font-size="10.00">SpawnCoffee</text>
</a>
</g>
</g>
<!-- Node3&#45;&gt;Node6 -->
<g id="edge5_Node000003_Node000006" class="edge">
<title>Node3&#45;&gt;Node6</title>
<g id="a_edge5_Node000003_Node000006"><a xlink:title=" ">
<path fill="none" stroke="#63b8ff" d="M297.53,-60.1C284.47,-61.61 271.58,-63.11 260.22,-64.43"/>
<polygon fill="#63b8ff" stroke="#63b8ff" points="298.01,-63.56 307.54,-58.93 297.2,-56.61 298.01,-63.56"/>
</a>
</g>
</g>
<!-- Node7 -->
<g id="Node000007" class="node">
<title>Node7</title>
<g id="a_Node000007"><a xlink:href="../../df/d88/GameManagerBehavior_8cpp.html#a2a12711db7d8e91b16655c1c98c6cdb2" target="_top" xlink:title=" ">
<polygon fill="white" stroke="#666666" points="261.5,-41.49 178.5,-41.49 178.5,-22.49 261.5,-22.49 261.5,-41.49"/>
<text text-anchor="middle" x="220" y="-29.49" font-family="Helvetica,sans-Serif" font-size="10.00">SpawnEnemy</text>
</a>
</g>
</g>
<!-- Node3&#45;&gt;Node7 -->
<g id="edge7_Node000003_Node000007" class="edge">
<title>Node3&#45;&gt;Node7</title>
<g id="a_edge7_Node000003_Node000007"><a xlink:title=" ">
<path fill="none" stroke="#63b8ff" d="M297.46,-40.41C284.92,-39.03 272.54,-37.66 261.52,-36.45"/>
<polygon fill="#63b8ff" stroke="#63b8ff" points="297.21,-43.9 307.54,-41.52 297.98,-36.94 297.21,-43.9"/>
</a>
</g>
</g>
<!-- Node4&#45;&gt;Node5 -->
<g id="edge4_Node000004_Node000005" class="edge">
<title>Node4&#45;&gt;Node5</title>
<g id="a_edge4_Node000004_Node000005"><a xlink:title=" ">
<path fill="none" stroke="#63b8ff" d="M182.1,-93.07C177.35,-91.37 172.56,-89.65 168,-87.99 147.76,-80.61 125.32,-72.19 106.75,-65.16"/>
<polygon fill="#63b8ff" stroke="#63b8ff" points="181.11,-96.43 191.7,-96.47 183.45,-89.83 181.11,-96.43"/>
</a>
</g>
</g>
<!-- Node6&#45;&gt;Node5 -->
<g id="edge6_Node000006_Node000005" class="edge">
<title>Node6&#45;&gt;Node5</title>
<g id="a_edge6_Node000006_Node000005"><a xlink:title=" ">
<path fill="none" stroke="#63b8ff" d="M169.66,-62.82C157.73,-61.33 144.79,-59.71 132.25,-58.15"/>
<polygon fill="#63b8ff" stroke="#63b8ff" points="169.5,-66.33 179.86,-64.1 170.37,-59.38 169.5,-66.33"/>
</a>
</g>
</g>
<!-- Node7&#45;&gt;Node5 -->
<g id="edge8_Node000007_Node000005" class="edge">
<title>Node7&#45;&gt;Node5</title>
<g id="a_edge8_Node000007_Node000005"><a xlink:title=" ">
<path fill="none" stroke="#63b8ff" d="M168,-38.03C156.52,-39.39 144.19,-40.85 132.22,-42.27"/>
<polygon fill="#63b8ff" stroke="#63b8ff" points="168.75,-41.46 178.27,-36.81 167.92,-34.51 168.75,-41.46"/>
</a>
</g>
</g>
</g>
</svg>
