<?xml version="1.0" encoding="UTF-8" standalone="no"?>
<!DOCTYPE svg PUBLIC "-//W3C//DTD SVG 1.1//EN"
 "http://www.w3.org/Graphics/SVG/1.1/DTD/svg11.dtd">
<!-- Generated by graphviz version 2.43.0 (0)
 -->
<!-- Title: GetRandomNormalizedFloat Pages: 1 -->
<svg width="499pt" height="113pt"
 viewBox="0.00 0.00 499.00 112.50" xmlns="http://www.w3.org/2000/svg" xmlns:xlink="http://www.w3.org/1999/xlink">

<svg id="main" version="1.1" xmlns="http://www.w3.org/2000/svg" xmlns:xlink="http://www.w3.org/1999/xlink" xml:space="preserve">

<style type="text/css"><![CDATA[
.node, .edge {opacity: 0.7;}
.node.selected, .edge.selected {opacity: 1;}
.edge:hover path { stroke: red; }
.edge:hover polygon { stroke: red; fill: red; }
]]></style>
<script type="application/ecmascript" xlink:href="../../svg.min.js"/>
<svg id="graph" class="graph">
<g id="graph0" class="graph" transform="scale(1 1) rotate(0) translate(4 108.5)">
<title>GetRandomNormalizedFloat</title>
<!-- Node1 -->
<g id="Node000001" class="node">
<title>Node1</title>
<g id="a_Node000001"><a xlink:title="Generate a random float between 0 and 1.">
<polygon fill="#999999" stroke="#666666" points="491,-56 336,-56 336,-37 491,-37 491,-56"/>
<text text-anchor="middle" x="413.5" y="-44" font-family="Helvetica,sans-Serif" font-size="10.00">GetRandomNormalizedFloat</text>
</a>
</g>
</g>
<!-- Node2 -->
<g id="Node000002" class="node">
<title>Node2</title>
<g id="a_Node000002"><a xlink:href="../../d1/d21/classGameManagerBehavior.html#a03f055b9130a3014a32bf722ba48eebf" target="_top" xlink:title="Return the velocity of an object at the current time.">
<polygon fill="white" stroke="#666666" points="300,-104.5 168,-104.5 168,-74.5 300,-74.5 300,-104.5"/>
<text text-anchor="start" x="176" y="-92.5" font-family="Helvetica,sans-Serif" font-size="10.00">GameManagerBehavior</text>
<text text-anchor="middle" x="234" y="-81.5" font-family="Helvetica,sans-Serif" font-size="10.00">::GetObjectVelocity</text>
</a>
</g>
</g>
<!-- Node1&#45;&gt;Node2 -->
<g id="edge1_Node000001_Node000002" class="edge">
<title>Node1&#45;&gt;Node2</title>
<g id="a_edge1_Node000001_Node000002"><a xlink:title=" ">
<path fill="none" stroke="#63b8ff" d="M363.33,-58.41C342.79,-63.39 318.68,-69.23 296.94,-74.49"/>
<polygon fill="#63b8ff" stroke="#63b8ff" points="364.21,-61.8 373.11,-56.04 362.56,-55 364.21,-61.8"/>
</a>
</g>
</g>
<!-- Node4 -->
<g id="Node000004" class="node">
<title>Node4</title>
<g id="a_Node000004"><a xlink:href="../../d5/dda/ObjectSpawning_8cpp.html#ad8f89b5d9076607112a750cc140f07ec" target="_top" xlink:title="Spawn a new coffee object.">
<polygon fill="white" stroke="#666666" points="274,-56 194,-56 194,-37 274,-37 274,-56"/>
<text text-anchor="middle" x="234" y="-44" font-family="Helvetica,sans-Serif" font-size="10.00">SpawnCoffee</text>
</a>
</g>
</g>
<!-- Node1&#45;&gt;Node4 -->
<g id="edge3_Node000001_Node000004" class="edge">
<title>Node1&#45;&gt;Node4</title>
<g id="a_edge3_Node000001_Node000004"><a xlink:title=" ">
<path fill="none" stroke="#63b8ff" d="M325.7,-46.5C307.74,-46.5 289.68,-46.5 274.45,-46.5"/>
<polygon fill="#63b8ff" stroke="#63b8ff" points="325.94,-50 335.94,-46.5 325.94,-43 325.94,-50"/>
</a>
</g>
</g>
<!-- Node5 -->
<g id="Node000005" class="node">
<title>Node5</title>
<g id="a_Node000005"><a xlink:href="../../d5/dda/ObjectSpawning_8cpp.html#abb03ee227a4d9759be2916f379f21c86" target="_top" xlink:title="Spawn a new enemy.">
<polygon fill="white" stroke="#666666" points="275.5,-19 192.5,-19 192.5,0 275.5,0 275.5,-19"/>
<text text-anchor="middle" x="234" y="-7" font-family="Helvetica,sans-Serif" font-size="10.00">SpawnEnemy</text>
</a>
</g>
</g>
<!-- Node1&#45;&gt;Node5 -->
<g id="edge5_Node000001_Node000005" class="edge">
<title>Node1&#45;&gt;Node5</title>
<g id="a_edge5_Node000001_Node000005"><a xlink:title=" ">
<path fill="none" stroke="#63b8ff" d="M356.95,-34.92C330.65,-29.44 299.8,-23.01 275.71,-17.99"/>
<polygon fill="#63b8ff" stroke="#63b8ff" points="356.29,-38.36 366.79,-36.97 357.71,-31.5 356.29,-38.36"/>
</a>
</g>
</g>
<!-- Node3 -->
<g id="Node000003" class="node">
<title>Node3</title>
<g id="a_Node000003"><a xlink:href="../../d1/d21/classGameManagerBehavior.html#a432014bfe65aa92c7f74b7e6e88c475a" target="_top" xlink:title=" ">
<polygon fill="white" stroke="#666666" points="132,-61.5 0,-61.5 0,-31.5 132,-31.5 132,-61.5"/>
<text text-anchor="start" x="8" y="-49.5" font-family="Helvetica,sans-Serif" font-size="10.00">GameManagerBehavior</text>
<text text-anchor="middle" x="66" y="-38.5" font-family="Helvetica,sans-Serif" font-size="10.00">::OnTick</text>
</a>
</g>
</g>
<!-- Node2&#45;&gt;Node3 -->
<g id="edge2_Node000002_Node000003" class="edge">
<title>Node2&#45;&gt;Node3</title>
<g id="a_edge2_Node000002_Node000003"><a xlink:title=" ">
<path fill="none" stroke="#63b8ff" d="M164.94,-71.87C151.69,-68.44 137.91,-64.87 125.03,-61.53"/>
<polygon fill="#63b8ff" stroke="#63b8ff" points="164.38,-75.34 174.94,-74.46 166.14,-68.56 164.38,-75.34"/>
</a>
</g>
</g>
<!-- Node4&#45;&gt;Node3 -->
<g id="edge4_Node000004_Node000003" class="edge">
<title>Node4&#45;&gt;Node3</title>
<g id="a_edge4_Node000004_Node000003"><a xlink:title=" ">
<path fill="none" stroke="#63b8ff" d="M183.38,-46.5C167.25,-46.5 149.1,-46.5 132.01,-46.5"/>
<polygon fill="#63b8ff" stroke="#63b8ff" points="183.66,-50 193.66,-46.5 183.66,-43 183.66,-50"/>
</a>
</g>
</g>
<!-- Node5&#45;&gt;Node3 -->
<g id="edge6_Node000005_Node000003" class="edge">
<title>Node5&#45;&gt;Node3</title>
<g id="a_edge6_Node000005_Node000003"><a xlink:title=" ">
<path fill="none" stroke="#63b8ff" d="M182.29,-20.8C166.45,-24.33 148.76,-28.28 132.09,-31.99"/>
<polygon fill="#63b8ff" stroke="#63b8ff" points="183.39,-24.14 192.39,-18.55 181.87,-17.31 183.39,-24.14"/>
</a>
</g>
</g>
</g>
</svg>
</svg>

<style type='text/css'>
<![CDATA[
[data-mouse-over-selected='false'] { opacity: 0.7; }
[data-mouse-over-selected='true']  { opacity: 1.0; }
]]>
</style>
<script type="application/ecmascript"><![CDATA[
document.addEventListener('DOMContentLoaded', (event) => {
  highlightEdges();
  highlightAdjacentNodes();
});
]]></script>
</svg>
