<?xml version="1.0" encoding="UTF-8" standalone="no"?>
<!DOCTYPE svg PUBLIC "-//W3C//DTD SVG 1.1//EN"
 "http://www.w3.org/Graphics/SVG/1.1/DTD/svg11.dtd">
<!-- Generated by graphviz version 2.43.0 (0)
 -->
<!-- Title: randomEngine Pages: 1 -->
<svg width="745pt" height="136pt"
 viewBox="0.00 0.00 745.00 136.02" xmlns="http://www.w3.org/2000/svg" xmlns:xlink="http://www.w3.org/1999/xlink">
<g id="graph0" class="graph" transform="scale(1 1) rotate(0) translate(4 132.02)">
<title>randomEngine</title>
<!-- Node1 -->
<g id="Node000001" class="node">
<title>Node1</title>
<g id="a_Node000001"><a xlink:title=" ">
<polygon fill="#999999" stroke="#666666" points="737,-23.52 650,-23.52 650,-4.52 737,-4.52 737,-23.52"/>
<text text-anchor="middle" x="693.5" y="-11.52" font-family="Helvetica,sans-Serif" font-size="10.00">randomEngine</text>
</a>
</g>
</g>
<!-- Node2 -->
<g id="Node000002" class="node">
<title>Node2</title>
<g id="a_Node000002"><a xlink:href="../../d4/d63/RandomNumberGenerator_8cpp.html#ab3b4d2c18f8ed2adbded9e672d49418a" target="_top" xlink:title="Generate a random integer in bounds.">
<polygon fill="white" stroke="#666666" points="614,-23.52 527,-23.52 527,-4.52 614,-4.52 614,-23.52"/>
<text text-anchor="middle" x="570.5" y="-11.52" font-family="Helvetica,sans-Serif" font-size="10.00">GetRandomInt</text>
</a>
</g>
</g>
<!-- Node1&#45;&gt;Node2 -->
<g id="edge1_Node000001_Node000002" class="edge">
<title>Node1&#45;&gt;Node2</title>
<g id="a_edge1_Node000001_Node000002"><a xlink:title=" ">
<path fill="none" stroke="#63b8ff" d="M639.62,-14.02C631.11,-14.02 622.41,-14.02 614.18,-14.02"/>
<polygon fill="#63b8ff" stroke="#63b8ff" points="639.84,-17.52 649.84,-14.02 639.84,-10.52 639.84,-17.52"/>
</a>
</g>
</g>
<!-- Node3 -->
<g id="Node000003" class="node">
<title>Node3</title>
<g id="a_Node000003"><a xlink:href="../../d4/d63/RandomNumberGenerator_8cpp.html#ab41bae80bddaf892520d0c17bcfc873b" target="_top" xlink:title="Generate a random float between 0 and 1.">
<polygon fill="white" stroke="#666666" points="491,-60.52 336,-60.52 336,-41.52 491,-41.52 491,-60.52"/>
<text text-anchor="middle" x="413.5" y="-48.52" font-family="Helvetica,sans-Serif" font-size="10.00">GetRandomNormalizedFloat</text>
</a>
</g>
</g>
<!-- Node2&#45;&gt;Node3 -->
<g id="edge2_Node000002_Node000003" class="edge">
<title>Node2&#45;&gt;Node3</title>
<g id="a_edge2_Node000002_Node000003"><a xlink:title=" ">
<path fill="none" stroke="#63b8ff" d="M519.83,-25.87C498.74,-30.91 474.47,-36.7 454.55,-41.46"/>
<polygon fill="#63b8ff" stroke="#63b8ff" points="520.67,-29.27 529.58,-23.54 519.04,-22.46 520.67,-29.27"/>
</a>
</g>
</g>
<!-- Node5 -->
<g id="Node000005" class="node">
<title>Node5</title>
<g id="a_Node000005"><a xlink:href="../../d1/d21/classGameManagerBehavior.html#a432014bfe65aa92c7f74b7e6e88c475a" target="_top" xlink:title=" ">
<polygon fill="white" stroke="#666666" points="132,-66.02 0,-66.02 0,-36.02 132,-36.02 132,-66.02"/>
<text text-anchor="start" x="8" y="-54.02" font-family="Helvetica,sans-Serif" font-size="10.00">GameManagerBehavior</text>
<text text-anchor="middle" x="66" y="-43.02" font-family="Helvetica,sans-Serif" font-size="10.00">::OnTick</text>
</a>
</g>
</g>
<!-- Node2&#45;&gt;Node5 -->
<g id="edge9_Node000002_Node000005" class="edge">
<title>Node2&#45;&gt;Node5</title>
<g id="a_edge9_Node000002_Node000005"><a xlink:title=" ">
<path fill="none" stroke="#63b8ff" d="M516.92,-8.21C439.72,-1 291.49,7.89 168,-14.02 144.28,-18.22 118.82,-27.59 99.4,-35.84"/>
<polygon fill="#63b8ff" stroke="#63b8ff" points="516.59,-11.7 526.88,-9.17 517.26,-4.73 516.59,-11.7"/>
</a>
</g>
</g>
<!-- Node4 -->
<g id="Node000004" class="node">
<title>Node4</title>
<g id="a_Node000004"><a xlink:href="../../d1/d21/classGameManagerBehavior.html#a03f055b9130a3014a32bf722ba48eebf" target="_top" xlink:title="Return the velocity of an object at the current time.">
<polygon fill="white" stroke="#666666" points="300,-128.02 168,-128.02 168,-98.02 300,-98.02 300,-128.02"/>
<text text-anchor="start" x="176" y="-116.02" font-family="Helvetica,sans-Serif" font-size="10.00">GameManagerBehavior</text>
<text text-anchor="middle" x="234" y="-105.02" font-family="Helvetica,sans-Serif" font-size="10.00">::GetObjectVelocity</text>
</a>
</g>
</g>
<!-- Node3&#45;&gt;Node4 -->
<g id="edge3_Node000003_Node000004" class="edge">
<title>Node3&#45;&gt;Node4</title>
<g id="a_edge3_Node000003_Node000004"><a xlink:title=" ">
<path fill="none" stroke="#63b8ff" d="M375.62,-63.9C347.29,-73.79 308.09,-87.49 278.28,-97.9"/>
<polygon fill="#63b8ff" stroke="#63b8ff" points="376.87,-67.17 385.15,-60.57 374.56,-60.56 376.87,-67.17"/>
</a>
</g>
</g>
<!-- Node6 -->
<g id="Node000006" class="node">
<title>Node6</title>
<g id="a_Node000006"><a xlink:href="../../df/d88/GameManagerBehavior_8cpp.html#a07e6c2b5429917c119a839acc53cbfa9" target="_top" xlink:title="Spawn a new coffee object.">
<polygon fill="white" stroke="#666666" points="274,-79.52 194,-79.52 194,-60.52 274,-60.52 274,-79.52"/>
<text text-anchor="middle" x="234" y="-67.52" font-family="Helvetica,sans-Serif" font-size="10.00">SpawnCoffee</text>
</a>
</g>
</g>
<!-- Node3&#45;&gt;Node6 -->
<g id="edge5_Node000003_Node000006" class="edge">
<title>Node3&#45;&gt;Node6</title>
<g id="a_edge5_Node000003_Node000006"><a xlink:title=" ">
<path fill="none" stroke="#63b8ff" d="M325.95,-60.28C307.91,-62.21 289.75,-64.16 274.45,-65.79"/>
<polygon fill="#63b8ff" stroke="#63b8ff" points="326.37,-63.76 335.94,-59.21 325.62,-56.8 326.37,-63.76"/>
</a>
</g>
</g>
<!-- Node7 -->
<g id="Node000007" class="node">
<title>Node7</title>
<g id="a_Node000007"><a xlink:href="../../df/d88/GameManagerBehavior_8cpp.html#a2a12711db7d8e91b16655c1c98c6cdb2" target="_top" xlink:title="Spawn a new enemy.">
<polygon fill="white" stroke="#666666" points="275.5,-42.52 192.5,-42.52 192.5,-23.52 275.5,-23.52 275.5,-42.52"/>
<text text-anchor="middle" x="234" y="-30.52" font-family="Helvetica,sans-Serif" font-size="10.00">SpawnEnemy</text>
</a>
</g>
</g>
<!-- Node3&#45;&gt;Node7 -->
<g id="edge7_Node000003_Node000007" class="edge">
<title>Node3&#45;&gt;Node7</title>
<g id="a_edge7_Node000003_Node000007"><a xlink:title=" ">
<path fill="none" stroke="#63b8ff" d="M325.72,-42.22C308.33,-40.45 290.83,-38.68 275.9,-37.16"/>
<polygon fill="#63b8ff" stroke="#63b8ff" points="325.63,-45.72 335.94,-43.25 326.34,-38.76 325.63,-45.72"/>
</a>
</g>
</g>
<!-- Node4&#45;&gt;Node5 -->
<g id="edge4_Node000004_Node000005" class="edge">
<title>Node4&#45;&gt;Node5</title>
<g id="a_edge4_Node000004_Node000005"><a xlink:title=" ">
<path fill="none" stroke="#63b8ff" d="M182.62,-94.45C177.68,-92.62 172.74,-90.78 168,-89.02 147.81,-81.49 125.38,-73.06 106.79,-66.05"/>
<polygon fill="#63b8ff" stroke="#63b8ff" points="181.48,-97.76 192.07,-97.95 183.91,-91.19 181.48,-97.76"/>
</a>
</g>
</g>
<!-- Node6&#45;&gt;Node5 -->
<g id="edge6_Node000006_Node000005" class="edge">
<title>Node6&#45;&gt;Node5</title>
<g id="a_edge6_Node000006_Node000005"><a xlink:title=" ">
<path fill="none" stroke="#63b8ff" d="M183.38,-64.34C167.25,-62.49 149.1,-60.41 132.01,-58.46"/>
<polygon fill="#63b8ff" stroke="#63b8ff" points="183.33,-67.85 193.66,-65.51 184.12,-60.9 183.33,-67.85"/>
</a>
</g>
</g>
<!-- Node7&#45;&gt;Node5 -->
<g id="edge8_Node000007_Node000005" class="edge">
<title>Node7&#45;&gt;Node5</title>
<g id="a_edge8_Node000007_Node000005"><a xlink:title=" ">
<path fill="none" stroke="#63b8ff" d="M182.29,-38.52C166.45,-40.23 148.76,-42.15 132.09,-43.96"/>
<polygon fill="#63b8ff" stroke="#63b8ff" points="182.83,-41.98 192.39,-37.42 182.07,-35.02 182.83,-41.98"/>
</a>
</g>
</g>
</g>
</svg>
