<?xml version="1.0" encoding="UTF-8" standalone="no"?>
<!DOCTYPE svg PUBLIC "-//W3C//DTD SVG 1.1//EN"
 "http://www.w3.org/Graphics/SVG/1.1/DTD/svg11.dtd">
<!-- Generated by graphviz version 2.43.0 (0)
 -->
<!-- Title: PlayerBehavior Pages: 1 -->
<!--zoomable 1161 -->

<svg id="main" version="1.1" xmlns="http://www.w3.org/2000/svg" xmlns:xlink="http://www.w3.org/1999/xlink" xml:space="preserve" onload="init(evt)">

<style type="text/css"><![CDATA[
.node, .edge {opacity: 0.7;}
.node.selected, .edge.selected {opacity: 1;}
.edge:hover path { stroke: red; }
.edge:hover polygon { stroke: red; fill: red; }
]]></style>

<defs>
  <circle id="rim" cx="0" cy="0" r="7"/>
  <circle id="rim2" cx="0" cy="0" r="3.5"/>
  <g id="zoomPlus">
    <use xlink:href="#rim" fill="#404040"><set attributeName="fill" to="#808080" begin="zoomplus.mouseover" end="zoomplus.mouseout"/></use>
    <path d="M-4,0h8M0,-4v8" fill="none" stroke="white" stroke-width="1.5" pointer-events="none"/>
  </g>
  <g id="zoomMin">
    <use xlink:href="#rim" fill="#404040"><set attributeName="fill" to="#808080" begin="zoomminus.mouseover" end="zoomminus.mouseout"/></use>
    <path d="M-4,0h8" fill="none" stroke="white" stroke-width="1.5" pointer-events="none"/>
  </g>
  <g id="arrowUp" transform="translate(30 24)">
    <use xlink:href="#rim"/>
    <path pointer-events="none" fill="none" stroke="white" stroke-width="1.5" d="M0,-3.0v7 M-2.5,-0.5L0,-3.0L2.5,-0.5"/>
  </g>
  <g id="arrowRight" transform="rotate(90) translate(36 -43)">
    <use xlink:href="#rim"/>
    <path pointer-events="none" fill="none" stroke="white" stroke-width="1.5" d="M0,-3.0v7 M-2.5,-0.5L0,-3.0L2.5,-0.5"/>
  </g>
  <g id="arrowDown" transform="rotate(180) translate(-30 -48)">
    <use xlink:href="#rim"/>
    <path pointer-events="none" fill="none" stroke="white" stroke-width="1.5" d="M0,-3.0v7 M-2.5,-0.5L0,-3.0L2.5,-0.5"/>
  </g>
  <g id="arrowLeft" transform="rotate(270) translate(-36 17)">
    <use xlink:href="#rim"/>
    <path pointer-events="none" fill="none" stroke="white" stroke-width="1.5" d="M0,-3.0v7 M-2.5,-0.5L0,-3.0L2.5,-0.5"/>
  </g>
  <g id="resetDef">
    <use xlink:href="#rim2" fill="#404040"><set attributeName="fill" to="#808080" begin="reset.mouseover" end="reset.mouseout"/></use>
  </g>
</defs>
<script type="application/ecmascript">
var viewWidth = 199;
var viewHeight = 1161;
var sectionId = 'dynsection-1';
</script>
<script type="application/ecmascript" xlink:href="../../svg.min.js"/>
<svg id="graph" class="graph">
<g id="viewport">
<title>PlayerBehavior</title>
<!-- Node1 -->
<g id="Node000001" class="node">
<title>Node1</title>
<g id="a_Node000001"><a xlink:title="The players basic behavior.">
<polygon fill="#999999" stroke="transparent" points="173,-157 18,-157 18,0 173,0 173,-157"/>
<text text-anchor="start" x="58.5" y="-144.5" font-family="Helvetica,sans-Serif" font-size="10.00">PlayerBehavior</text>
<text text-anchor="start" x="22.5" y="-129.5" font-family="Helvetica,sans-Serif" font-size="10.00">#</text>
<text text-anchor="start" x="35.5" y="-129.5" font-family="Helvetica,sans-Serif" font-size="10.00">unsigned int jumpPoints</text>
<text text-anchor="start" x="22.5" y="-114.5" font-family="Helvetica,sans-Serif" font-size="10.00">#</text>
<text text-anchor="start" x="35.5" y="-114.5" font-family="Helvetica,sans-Serif" font-size="10.00">const unsigned int</text>
<text text-anchor="start" x="35.5" y="-103.5" font-family="Helvetica,sans-Serif" font-size="10.00"> defaultJumpPoints</text>
<text text-anchor="start" x="22.5" y="-88.5" font-family="Helvetica,sans-Serif" font-size="10.00">+</text>
<text text-anchor="start" x="35.5" y="-88.5" font-family="Helvetica,sans-Serif" font-size="10.00">unsigned int getJumpPoints</text>
<text text-anchor="start" x="35.5" y="-77.5" font-family="Helvetica,sans-Serif" font-size="10.00">() const</text>
<text text-anchor="start" x="22.5" y="-62.5" font-family="Helvetica,sans-Serif" font-size="10.00">+</text>
<text text-anchor="start" x="35.5" y="-62.5" font-family="Helvetica,sans-Serif" font-size="10.00">void setJumpPoints</text>
<text text-anchor="start" x="35.5" y="-51.5" font-family="Helvetica,sans-Serif" font-size="10.00">(unsigned int value)</text>
<text text-anchor="start" x="22.5" y="-36.5" font-family="Helvetica,sans-Serif" font-size="10.00">+</text>
<text text-anchor="start" x="35.5" y="-36.5" font-family="Helvetica,sans-Serif" font-size="10.00">void ResetJumpPoints()</text>
<text text-anchor="start" x="22.5" y="-21.5" font-family="Helvetica,sans-Serif" font-size="10.00">+</text>
<text text-anchor="start" x="35.5" y="-21.5" font-family="Helvetica,sans-Serif" font-size="10.00">void OnTick() override</text>
<text text-anchor="start" x="22.5" y="-6.5" font-family="Helvetica,sans-Serif" font-size="10.00">+</text>
<text text-anchor="start" x="35.5" y="-6.5" font-family="Helvetica,sans-Serif" font-size="10.00">void OnStart() override</text>
<polygon fill="#666666" stroke="#666666" points="18.5,-139.5 18.5,-139.5 173.5,-139.5 173.5,-139.5 18.5,-139.5"/>
<polygon fill="#666666" stroke="#666666" points="18.5,-98.5 18.5,-98.5 33.5,-98.5 33.5,-98.5 18.5,-98.5"/>
<polygon fill="#666666" stroke="#666666" points="33.5,-98.5 33.5,-98.5 173.5,-98.5 173.5,-98.5 33.5,-98.5"/>
<polygon fill="none" stroke="#666666" points="18,0 18,-157 173,-157 173,0 18,0"/>
</a>
</g>
</g>
<!-- Node2 -->
<g id="Node000002" class="node">
<title>Node2</title>
<g id="a_Node000002"><a xlink:href="../../df/dc1/classBehavior.html" target="_top" xlink:title="An abstract gameobject behavior.">
<polygon fill="white" stroke="transparent" points="122.5,-243 68.5,-243 68.5,-194 122.5,-194 122.5,-243"/>
<text text-anchor="start" x="73.5" y="-230.5" font-family="Helvetica,sans-Serif" font-size="10.00">Behavior</text>
<text text-anchor="start" x="93.5" y="-215.5" font-family="Helvetica,sans-Serif" font-size="10.00"> </text>
<text text-anchor="start" x="93.5" y="-200.5" font-family="Helvetica,sans-Serif" font-size="10.00"> </text>
<polygon fill="#666666" stroke="#666666" points="68.5,-225.5 68.5,-225.5 122.5,-225.5 122.5,-225.5 68.5,-225.5"/>
<polygon fill="#666666" stroke="#666666" points="68.5,-210.5 68.5,-210.5 122.5,-210.5 122.5,-210.5 68.5,-210.5"/>
<polygon fill="none" stroke="#666666" points="68.5,-194 68.5,-243 122.5,-243 122.5,-194 68.5,-194"/>
</a>
</g>
</g>
<!-- Node2&#45;&gt;Node1 -->
<g id="edge1_Node000001_Node000002" class="edge">
<title>Node2&#45;&gt;Node1</title>
<g id="a_edge1_Node000001_Node000002"><a xlink:title=" ">
<path fill="none" stroke="#63b8ff" d="M95.5,-183.64C95.5,-175.49 95.5,-166.46 95.5,-157.21"/>
<polygon fill="none" stroke="#63b8ff" points="92,-183.78 95.5,-193.78 99,-183.78 92,-183.78"/>
</a>
</g>
</g>
<!-- Node3 -->
<g id="Node000003" class="node">
<title>Node3</title>
<g id="a_Node000003"><a xlink:href="../../d9/df7/classGameObjectComponent.html" target="_top" xlink:title="An abstract gameobject component. Has an OnTick and OnStart method. Subclasses may be registered to a...">
<polygon fill="white" stroke="transparent" points="190,-426 1,-426 1,-280 190,-280 190,-426"/>
<text text-anchor="start" x="37" y="-414" font-family="Helvetica,sans-Serif" font-size="10.00">GameObjectComponent</text>
<text text-anchor="start" x="5.5" y="-399" font-family="Helvetica,sans-Serif" font-size="10.00">#</text>
<text text-anchor="start" x="18.5" y="-399" font-family="Helvetica,sans-Serif" font-size="10.00">bool enabled</text>
<text text-anchor="start" x="5.5" y="-384" font-family="Helvetica,sans-Serif" font-size="10.00">+</text>
<text text-anchor="start" x="18.5" y="-384" font-family="Helvetica,sans-Serif" font-size="10.00">bool getEnabled() const</text>
<text text-anchor="start" x="5.5" y="-369" font-family="Helvetica,sans-Serif" font-size="10.00">+</text>
<text text-anchor="start" x="18.5" y="-369" font-family="Helvetica,sans-Serif" font-size="10.00">void setEnabled(bool</text>
<text text-anchor="start" x="18.5" y="-358" font-family="Helvetica,sans-Serif" font-size="10.00"> value)</text>
<text text-anchor="start" x="5.5" y="-343" font-family="Helvetica,sans-Serif" font-size="10.00">+</text>
<text text-anchor="start" x="18.5" y="-343" font-family="Helvetica,sans-Serif" font-size="10.00">void setParent(GameObject</text>
<text text-anchor="start" x="18.5" y="-332" font-family="Helvetica,sans-Serif" font-size="10.00"> *value)</text>
<text text-anchor="start" x="5.5" y="-317" font-family="Helvetica,sans-Serif" font-size="10.00">+</text>
<text text-anchor="start" x="18.5" y="-317" font-family="Helvetica,sans-Serif" font-size="10.00">virtual ~GameObjectComponent()</text>
<text text-anchor="start" x="5.5" y="-302" font-family="Helvetica,sans-Serif" font-size="10.00">+</text>
<text text-anchor="start" x="18.5" y="-302" font-family="Helvetica,sans-Serif" font-size="10.00">virtual void OnTick()=0</text>
<text text-anchor="start" x="5.5" y="-287" font-family="Helvetica,sans-Serif" font-size="10.00">+</text>
<text text-anchor="start" x="18.5" y="-287" font-family="Helvetica,sans-Serif" font-size="10.00">virtual void OnStart()=0</text>
<polygon fill="#666666" stroke="#666666" points="1.5,-409 1.5,-409 190.5,-409 190.5,-409 1.5,-409"/>
<polygon fill="#666666" stroke="#666666" points="1.5,-394 1.5,-394 16.5,-394 16.5,-394 1.5,-394"/>
<polygon fill="#666666" stroke="#666666" points="16.5,-394 16.5,-394 190.5,-394 190.5,-394 16.5,-394"/>
<polygon fill="none" stroke="#666666" points="1,-280 1,-426 190,-426 190,-280 1,-280"/>
</a>
</g>
</g>
<!-- Node3&#45;&gt;Node2 -->
<g id="edge2_Node000002_Node000003" class="edge">
<title>Node3&#45;&gt;Node2</title>
<g id="a_edge2_Node000002_Node000003"><a xlink:title=" ">
<path fill="none" stroke="#63b8ff" d="M95.5,-269.71C95.5,-260.03 95.5,-250.83 95.5,-243.02"/>
<polygon fill="none" stroke="#63b8ff" points="92,-269.93 95.5,-279.93 99,-269.93 92,-269.93"/>
</a>
</g>
</g>
<!-- Node4 -->
<g id="Node000004" class="node">
<title>Node4</title>
<g id="a_Node000004"><a xlink:href="../../de/d1c/classGameObject.html" target="_top" xlink:title="A GameObject that represents an individual object in the game.">
<polygon fill="white" stroke="transparent" points="191,-1153 0,-1153 0,-473 191,-473 191,-1153"/>
<text text-anchor="start" x="65.5" y="-1141" font-family="Helvetica,sans-Serif" font-size="10.00">GameObject</text>
<text text-anchor="start" x="4.5" y="-1126" font-family="Helvetica,sans-Serif" font-size="10.00">#</text>
<text text-anchor="start" x="17.5" y="-1126" font-family="Helvetica,sans-Serif" font-size="10.00">bool enabled</text>
<text text-anchor="start" x="4.5" y="-1111" font-family="Helvetica,sans-Serif" font-size="10.00">#</text>
<text text-anchor="start" x="17.5" y="-1111" font-family="Helvetica,sans-Serif" font-size="10.00">float weight</text>
<text text-anchor="start" x="4.5" y="-1096" font-family="Helvetica,sans-Serif" font-size="10.00">#</text>
<text text-anchor="start" x="17.5" y="-1096" font-family="Helvetica,sans-Serif" font-size="10.00">std::shared_ptr&lt; Vector2</text>
<text text-anchor="start" x="17.5" y="-1085" font-family="Helvetica,sans-Serif" font-size="10.00"> &gt; position</text>
<text text-anchor="start" x="4.5" y="-1070" font-family="Helvetica,sans-Serif" font-size="10.00">#</text>
<text text-anchor="start" x="17.5" y="-1070" font-family="Helvetica,sans-Serif" font-size="10.00">std::shared_ptr&lt; Vector2</text>
<text text-anchor="start" x="17.5" y="-1059" font-family="Helvetica,sans-Serif" font-size="10.00"> &gt; scale</text>
<text text-anchor="start" x="4.5" y="-1044" font-family="Helvetica,sans-Serif" font-size="10.00">#</text>
<text text-anchor="start" x="17.5" y="-1044" font-family="Helvetica,sans-Serif" font-size="10.00">std::shared_ptr&lt; Vector2</text>
<text text-anchor="start" x="17.5" y="-1033" font-family="Helvetica,sans-Serif" font-size="10.00"> &gt; velocity</text>
<text text-anchor="start" x="4.5" y="-1018" font-family="Helvetica,sans-Serif" font-size="10.00">#</text>
<text text-anchor="start" x="17.5" y="-1018" font-family="Helvetica,sans-Serif" font-size="10.00">std::string tag</text>
<text text-anchor="start" x="4.5" y="-1003" font-family="Helvetica,sans-Serif" font-size="10.00">#</text>
<text text-anchor="start" x="17.5" y="-1003" font-family="Helvetica,sans-Serif" font-size="10.00">std::vector&lt; std::shared</text>
<text text-anchor="start" x="17.5" y="-992" font-family="Helvetica,sans-Serif" font-size="10.00">_ptr&lt; GameObjectComponent</text>
<text text-anchor="start" x="17.5" y="-981" font-family="Helvetica,sans-Serif" font-size="10.00"> &gt; &gt; components</text>
<text text-anchor="start" x="4.5" y="-966" font-family="Helvetica,sans-Serif" font-size="10.00">+</text>
<text text-anchor="start" x="17.5" y="-966" font-family="Helvetica,sans-Serif" font-size="10.00">const std::string getTag</text>
<text text-anchor="start" x="17.5" y="-955" font-family="Helvetica,sans-Serif" font-size="10.00">() const</text>
<text text-anchor="start" x="4.5" y="-940" font-family="Helvetica,sans-Serif" font-size="10.00">+</text>
<text text-anchor="start" x="17.5" y="-940" font-family="Helvetica,sans-Serif" font-size="10.00">void setTag(std::string</text>
<text text-anchor="start" x="17.5" y="-929" font-family="Helvetica,sans-Serif" font-size="10.00"> value)</text>
<text text-anchor="start" x="4.5" y="-914" font-family="Helvetica,sans-Serif" font-size="10.00">+</text>
<text text-anchor="start" x="17.5" y="-914" font-family="Helvetica,sans-Serif" font-size="10.00">bool getEnabled() const</text>
<text text-anchor="start" x="4.5" y="-899" font-family="Helvetica,sans-Serif" font-size="10.00">+</text>
<text text-anchor="start" x="17.5" y="-899" font-family="Helvetica,sans-Serif" font-size="10.00">void setEnabled(bool</text>
<text text-anchor="start" x="17.5" y="-888" font-family="Helvetica,sans-Serif" font-size="10.00"> value)</text>
<text text-anchor="start" x="4.5" y="-873" font-family="Helvetica,sans-Serif" font-size="10.00">+</text>
<text text-anchor="start" x="17.5" y="-873" font-family="Helvetica,sans-Serif" font-size="10.00">const std::vector&lt;</text>
<text text-anchor="start" x="17.5" y="-862" font-family="Helvetica,sans-Serif" font-size="10.00"> std::shared_ptr&lt; GameObject</text>
<text text-anchor="start" x="17.5" y="-851" font-family="Helvetica,sans-Serif" font-size="10.00">Component &gt; &gt; &amp; getComponents</text>
<text text-anchor="start" x="17.5" y="-840" font-family="Helvetica,sans-Serif" font-size="10.00">() const</text>
<text text-anchor="start" x="4.5" y="-825" font-family="Helvetica,sans-Serif" font-size="10.00">+</text>
<text text-anchor="start" x="17.5" y="-825" font-family="Helvetica,sans-Serif" font-size="10.00">float getWeight() const</text>
<text text-anchor="start" x="4.5" y="-810" font-family="Helvetica,sans-Serif" font-size="10.00">+</text>
<text text-anchor="start" x="17.5" y="-810" font-family="Helvetica,sans-Serif" font-size="10.00">void setWeight(float</text>
<text text-anchor="start" x="17.5" y="-799" font-family="Helvetica,sans-Serif" font-size="10.00"> value)</text>
<text text-anchor="start" x="4.5" y="-784" font-family="Helvetica,sans-Serif" font-size="10.00">+</text>
<text text-anchor="start" x="17.5" y="-784" font-family="Helvetica,sans-Serif" font-size="10.00">std::shared_ptr&lt; Vector2</text>
<text text-anchor="start" x="17.5" y="-773" font-family="Helvetica,sans-Serif" font-size="10.00"> &gt; getPosition() const</text>
<text text-anchor="start" x="4.5" y="-758" font-family="Helvetica,sans-Serif" font-size="10.00">+</text>
<text text-anchor="start" x="17.5" y="-758" font-family="Helvetica,sans-Serif" font-size="10.00">void setPosition(std</text>
<text text-anchor="start" x="17.5" y="-747" font-family="Helvetica,sans-Serif" font-size="10.00">::shared_ptr&lt; Vector2</text>
<text text-anchor="start" x="17.5" y="-736" font-family="Helvetica,sans-Serif" font-size="10.00"> &gt; value)</text>
<text text-anchor="start" x="4.5" y="-721" font-family="Helvetica,sans-Serif" font-size="10.00">+</text>
<text text-anchor="start" x="17.5" y="-721" font-family="Helvetica,sans-Serif" font-size="10.00">std::shared_ptr&lt; Vector2</text>
<text text-anchor="start" x="17.5" y="-710" font-family="Helvetica,sans-Serif" font-size="10.00"> &gt; getScale() const</text>
<text text-anchor="start" x="4.5" y="-695" font-family="Helvetica,sans-Serif" font-size="10.00">+</text>
<text text-anchor="start" x="17.5" y="-695" font-family="Helvetica,sans-Serif" font-size="10.00">void setScale(std::</text>
<text text-anchor="start" x="17.5" y="-684" font-family="Helvetica,sans-Serif" font-size="10.00">shared_ptr&lt; Vector2</text>
<text text-anchor="start" x="17.5" y="-673" font-family="Helvetica,sans-Serif" font-size="10.00"> &gt; value)</text>
<text text-anchor="start" x="4.5" y="-658" font-family="Helvetica,sans-Serif" font-size="10.00">+</text>
<text text-anchor="start" x="17.5" y="-658" font-family="Helvetica,sans-Serif" font-size="10.00">std::shared_ptr&lt; Vector2</text>
<text text-anchor="start" x="17.5" y="-647" font-family="Helvetica,sans-Serif" font-size="10.00"> &gt; getVelocity() const</text>
<text text-anchor="start" x="4.5" y="-632" font-family="Helvetica,sans-Serif" font-size="10.00">+</text>
<text text-anchor="start" x="17.5" y="-632" font-family="Helvetica,sans-Serif" font-size="10.00">void setVelocity(std</text>
<text text-anchor="start" x="17.5" y="-621" font-family="Helvetica,sans-Serif" font-size="10.00">::shared_ptr&lt; Vector2</text>
<text text-anchor="start" x="17.5" y="-610" font-family="Helvetica,sans-Serif" font-size="10.00"> &gt; value)</text>
<text text-anchor="start" x="4.5" y="-595" font-family="Helvetica,sans-Serif" font-size="10.00">+</text>
<text text-anchor="start" x="17.5" y="-595" font-family="Helvetica,sans-Serif" font-size="10.00">GameObject()</text>
<text text-anchor="start" x="4.5" y="-580" font-family="Helvetica,sans-Serif" font-size="10.00">+</text>
<text text-anchor="start" x="17.5" y="-580" font-family="Helvetica,sans-Serif" font-size="10.00">virtual ~GameObject()</text>
<text text-anchor="start" x="4.5" y="-565" font-family="Helvetica,sans-Serif" font-size="10.00">+</text>
<text text-anchor="start" x="17.5" y="-565" font-family="Helvetica,sans-Serif" font-size="10.00">void RegisterComponent</text>
<text text-anchor="start" x="17.5" y="-554" font-family="Helvetica,sans-Serif" font-size="10.00">(std::shared_ptr&lt; GameObject</text>
<text text-anchor="start" x="17.5" y="-543" font-family="Helvetica,sans-Serif" font-size="10.00">Component &gt; component)</text>
<text text-anchor="start" x="4.5" y="-528" font-family="Helvetica,sans-Serif" font-size="10.00">+</text>
<text text-anchor="start" x="17.5" y="-528" font-family="Helvetica,sans-Serif" font-size="10.00">void RemoveComponent</text>
<text text-anchor="start" x="17.5" y="-517" font-family="Helvetica,sans-Serif" font-size="10.00">(std::shared_ptr&lt; GameObject</text>
<text text-anchor="start" x="17.5" y="-506" font-family="Helvetica,sans-Serif" font-size="10.00">Component &gt; component)</text>
<text text-anchor="start" x="4.5" y="-491" font-family="Helvetica,sans-Serif" font-size="10.00">+</text>
<text text-anchor="start" x="17.5" y="-491" font-family="Helvetica,sans-Serif" font-size="10.00">std::shared_ptr&lt; T</text>
<text text-anchor="start" x="17.5" y="-480" font-family="Helvetica,sans-Serif" font-size="10.00"> &gt; GetFirstComponent()</text>
<polygon fill="#666666" stroke="#666666" points="0.5,-1136 0.5,-1136 191.5,-1136 191.5,-1136 0.5,-1136"/>
<polygon fill="#666666" stroke="#666666" points="0.5,-976 0.5,-976 15.5,-976 15.5,-976 0.5,-976"/>
<polygon fill="#666666" stroke="#666666" points="15.5,-976 15.5,-976 191.5,-976 191.5,-976 15.5,-976"/>
<polygon fill="none" stroke="#666666" points="0,-473 0,-1153 191,-1153 191,-473 0,-473"/>
</a>
</g>
</g>
<!-- Node4&#45;&gt;Node3 -->
<g id="edge3_Node000003_Node000004" class="edge">
<title>Node4&#45;&gt;Node3</title>
<g id="a_edge3_Node000003_Node000004"><a xlink:title=" ">
<path fill="none" stroke="#63b8ff" d="M95.5,-472.84C95.5,-460.83 95.5,-449.35 95.5,-438.59"/>
<polygon fill="none" stroke="#63b8ff" points="95.5,-438.3 91.5,-432.3 95.5,-426.3 99.5,-432.3 95.5,-438.3"/>
</a>
</g>
<text text-anchor="middle" x="117" y="-447" font-family="Helvetica,sans-Serif" font-size="10.00" fill="grey"> #parent</text>
</g>
</g>
</svg>

<g id="navigator" transform="translate(0 0)" fill="#404254">
  <rect fill="#f2f5e9" fill-opacity="0.5" stroke="#606060" stroke-width=".5" x="0" y="0" width="60" height="60"/>
  <use id="zoomplus" xlink:href="#zoomPlus" x="17" y="9" onmousedown="handleZoom(evt,'in')"/>
  <use id="zoomminus" xlink:href="#zoomMin" x="42" y="9" onmousedown="handleZoom(evt,'out')"/>
  <use id="reset" xlink:href="#resetDef" x="30" y="36" onmousedown="handleReset()"/>
   <use id="arrowup" xlink:href="#arrowUp" x="0" y="0" onmousedown="handlePan(0,-1)"/>
  <use id="arrowright" xlink:href="#arrowRight" x="0" y="0" onmousedown="handlePan(1,0)"/>
  <use id="arrowdown" xlink:href="#arrowDown" x="0" y="0" onmousedown="handlePan(0,1)"/>
  <use id="arrowleft" xlink:href="#arrowLeft" x="0" y="0" onmousedown="handlePan(-1,0)"/>
</g>
<svg viewBox="0 0 15 15" width="100%" height="30px" preserveAspectRatio="xMaxYMin meet">
 <g id="arrow_out" transform="scale(0.3 0.3)">
  <a xlink:href="classPlayerBehavior__coll__graph_org.svg" target="_base">
   <rect id="button" ry="5" rx="5" y="6" x="6" height="38" width="38"
        fill="#f2f5e9" fill-opacity="0.5" stroke="#606060" stroke-width="1.0"/>
   <path id="arrow"
     d="M 11.500037,31.436501 C 11.940474,20.09759 22.043105,11.32322 32.158766,21.979434 L 37.068811,17.246167 C 37.068811,17.246167 37.088388,32 37.088388,32 L 22.160133,31.978069 C 22.160133,31.978069 26.997745,27.140456 26.997745,27.140456 C 18.528582,18.264221 13.291696,25.230495 11.500037,31.436501 z"
     style="fill:#404040;"/>
  </a>
 </g>
</svg>

<style type='text/css'>
<![CDATA[
[data-mouse-over-selected='false'] { opacity: 0.7; }
[data-mouse-over-selected='true']  { opacity: 1.0; }
]]>
</style>
<script type="application/ecmascript"><![CDATA[
document.addEventListener('DOMContentLoaded', (event) => {
  highlightEdges();
  highlightAdjacentNodes();
});
]]></script>
</svg>
