<?xml version="1.0" encoding="UTF-8" standalone="no"?>
<!DOCTYPE svg PUBLIC "-//W3C//DTD SVG 1.1//EN"
 "http://www.w3.org/Graphics/SVG/1.1/DTD/svg11.dtd">
<!-- Generated by graphviz version 2.43.0 (0)
 -->
<!-- Title: PlayerKeyboardBehavior::OnKeyDown Pages: 1 -->
<svg width="488pt" height="134pt"
 viewBox="0.00 0.00 488.00 134.00" xmlns="http://www.w3.org/2000/svg" xmlns:xlink="http://www.w3.org/1999/xlink">
<g id="graph0" class="graph" transform="scale(1 1) rotate(0) translate(4 130)">
<title>PlayerKeyboardBehavior::OnKeyDown</title>
<!-- Node1 -->
<g id="Node000001" class="node">
<title>Node1</title>
<g id="a_Node000001"><a xlink:title="Called when a key is pressed (or held) down.">
<polygon fill="#999999" stroke="#666666" points="137,-78 0,-78 0,-48 137,-48 137,-78"/>
<text text-anchor="start" x="8" y="-66" font-family="Helvetica,sans-Serif" font-size="10.00">PlayerKeyboardBehavior</text>
<text text-anchor="middle" x="68.5" y="-55" font-family="Helvetica,sans-Serif" font-size="10.00">::OnKeyDown</text>
</a>
</g>
</g>
<!-- Node2 -->
<g id="Node000002" class="node">
<title>Node2</title>
<g id="a_Node000002"><a xlink:href="../../d9/d2c/classPlayerKeyboardBehavior.html#a1b21f0336391af1e2f7826c2af917d69" target="_top" xlink:title="Called when the player jumps.">
<polygon fill="white" stroke="#666666" points="310,-126 173,-126 173,-96 310,-96 310,-126"/>
<text text-anchor="start" x="181" y="-114" font-family="Helvetica,sans-Serif" font-size="10.00">PlayerKeyboardBehavior</text>
<text text-anchor="middle" x="241.5" y="-103" font-family="Helvetica,sans-Serif" font-size="10.00">::OnJump</text>
</a>
</g>
</g>
<!-- Node1&#45;&gt;Node2 -->
<g id="edge1_Node000001_Node000002" class="edge">
<title>Node1&#45;&gt;Node2</title>
<g id="a_edge1_Node000001_Node000002"><a xlink:title=" ">
<path fill="none" stroke="#63b8ff" d="M123.14,-78.06C140.33,-82.88 159.52,-88.27 177.33,-93.27"/>
<polygon fill="#63b8ff" stroke="#63b8ff" points="176.48,-96.66 187.05,-96 178.37,-89.93 176.48,-96.66"/>
</a>
</g>
</g>
<!-- Node4 -->
<g id="Node000004" class="node">
<title>Node4</title>
<g id="a_Node000004"><a xlink:href="../../d9/d2c/classPlayerKeyboardBehavior.html#a99b8a8f58a9642484ab4b953eeed8592" target="_top" xlink:title="Called when the left key goes down.">
<polygon fill="white" stroke="#666666" points="310,-78 173,-78 173,-48 310,-48 310,-78"/>
<text text-anchor="start" x="181" y="-66" font-family="Helvetica,sans-Serif" font-size="10.00">PlayerKeyboardBehavior</text>
<text text-anchor="middle" x="241.5" y="-55" font-family="Helvetica,sans-Serif" font-size="10.00">::OnLeftDown</text>
</a>
</g>
</g>
<!-- Node1&#45;&gt;Node4 -->
<g id="edge3_Node000001_Node000004" class="edge">
<title>Node1&#45;&gt;Node4</title>
<g id="a_edge3_Node000001_Node000004"><a xlink:title=" ">
<path fill="none" stroke="#63b8ff" d="M137.08,-63C145.54,-63 154.24,-63 162.83,-63"/>
<polygon fill="#63b8ff" stroke="#63b8ff" points="162.85,-66.5 172.85,-63 162.85,-59.5 162.85,-66.5"/>
</a>
</g>
</g>
<!-- Node5 -->
<g id="Node000005" class="node">
<title>Node5</title>
<g id="a_Node000005"><a xlink:href="../../d9/d2c/classPlayerKeyboardBehavior.html#a3035cde4ec7993ca65cd6d74bd160bea" target="_top" xlink:title="Called when the right key goes down.">
<polygon fill="white" stroke="#666666" points="310,-30 173,-30 173,0 310,0 310,-30"/>
<text text-anchor="start" x="181" y="-18" font-family="Helvetica,sans-Serif" font-size="10.00">PlayerKeyboardBehavior</text>
<text text-anchor="middle" x="241.5" y="-7" font-family="Helvetica,sans-Serif" font-size="10.00">::OnRightDown</text>
</a>
</g>
</g>
<!-- Node1&#45;&gt;Node5 -->
<g id="edge4_Node000001_Node000005" class="edge">
<title>Node1&#45;&gt;Node5</title>
<g id="a_edge4_Node000001_Node000005"><a xlink:title=" ">
<path fill="none" stroke="#63b8ff" d="M123.14,-47.94C140.33,-43.12 159.52,-37.73 177.33,-32.73"/>
<polygon fill="#63b8ff" stroke="#63b8ff" points="178.37,-36.07 187.05,-30 176.48,-29.34 178.37,-36.07"/>
</a>
</g>
</g>
<!-- Node3 -->
<g id="Node000003" class="node">
<title>Node3</title>
<g id="a_Node000003"><a xlink:href="../../d9/df7/classGameObjectComponent.html#adff0c3c42b08247174024aadcf5f0942" target="_top" xlink:title=" ">
<polygon fill="white" stroke="#666666" points="480,-126 346,-126 346,-96 480,-96 480,-126"/>
<text text-anchor="start" x="354" y="-114" font-family="Helvetica,sans-Serif" font-size="10.00">GameObjectComponent</text>
<text text-anchor="middle" x="413" y="-103" font-family="Helvetica,sans-Serif" font-size="10.00">::setEnabled</text>
</a>
</g>
</g>
<!-- Node2&#45;&gt;Node3 -->
<g id="edge2_Node000002_Node000003" class="edge">
<title>Node2&#45;&gt;Node3</title>
<g id="a_edge2_Node000002_Node000003"><a xlink:title=" ">
<path fill="none" stroke="#63b8ff" d="M310.47,-111C318.78,-111 327.32,-111 335.75,-111"/>
<polygon fill="#63b8ff" stroke="#63b8ff" points="335.95,-114.5 345.95,-111 335.95,-107.5 335.95,-114.5"/>
</a>
</g>
</g>
<!-- Node6 -->
<g id="Node000006" class="node">
<title>Node6</title>
<g id="a_Node000006"><a xlink:href="../../d9/df0/classCollisionBehavior.html#a9f12b7818bb5e34ee88d3203da141f5e" target="_top" xlink:title=" ">
<polygon fill="white" stroke="#666666" points="467,-30 359,-30 359,0 467,0 467,-30"/>
<text text-anchor="start" x="367" y="-18" font-family="Helvetica,sans-Serif" font-size="10.00">CollisionBehavior::</text>
<text text-anchor="middle" x="413" y="-7" font-family="Helvetica,sans-Serif" font-size="10.00">getColliderSize</text>
</a>
</g>
</g>
<!-- Node5&#45;&gt;Node6 -->
<g id="edge5_Node000005_Node000006" class="edge">
<title>Node5&#45;&gt;Node6</title>
<g id="a_edge5_Node000005_Node000006"><a xlink:title=" ">
<path fill="none" stroke="#63b8ff" d="M310.47,-15C323.06,-15 336.16,-15 348.61,-15"/>
<polygon fill="#63b8ff" stroke="#63b8ff" points="348.89,-18.5 358.89,-15 348.89,-11.5 348.89,-18.5"/>
</a>
</g>
</g>
</g>
</svg>
