<?xml version="1.0" encoding="UTF-8" standalone="no"?>
<!DOCTYPE svg PUBLIC "-//W3C//DTD SVG 1.1//EN"
 "http://www.w3.org/Graphics/SVG/1.1/DTD/svg11.dtd">
<!-- Generated by graphviz version 2.43.0 (0)
 -->
<!-- Title: Behavior Pages: 1 -->
<svg width="1600pt" height="722pt"
 viewBox="0.00 0.00 1600.00 722.00" xmlns="http://www.w3.org/2000/svg" xmlns:xlink="http://www.w3.org/1999/xlink">
<g id="graph0" class="graph" transform="scale(1 1) rotate(0) translate(4 718)">
<title>Behavior</title>
<!-- Node1 -->
<g id="node1" class="node">
<title>Node1</title>
<g id="a_node1"><a xlink:title="An abstract gameobject behavior.">
<polygon fill="#999999" stroke="#666666" points="764.5,-474.5 764.5,-531.5 824.5,-531.5 824.5,-474.5 764.5,-474.5"/>
<text text-anchor="middle" x="794.5" y="-519.5" font-family="Helvetica,sans-Serif" font-size="10.00">Behavior</text>
<polyline fill="none" stroke="#666666" points="764.5,-512.5 824.5,-512.5 "/>
<text text-anchor="middle" x="794.5" y="-500.5" font-family="Helvetica,sans-Serif" font-size="10.00"> </text>
<polyline fill="none" stroke="#666666" points="764.5,-493.5 824.5,-493.5 "/>
<text text-anchor="middle" x="794.5" y="-481.5" font-family="Helvetica,sans-Serif" font-size="10.00"> </text>
</a>
</g>
</g>
<!-- Node3 -->
<g id="node3" class="node">
<title>Node3</title>
<g id="a_node3"><a xlink:href="../../d1/d43/classCoffeeBehavior.html" target="_top" xlink:title=" ">
<polygon fill="white" stroke="#666666" points="0,-281.5 0,-371.5 123,-371.5 123,-281.5 0,-281.5"/>
<text text-anchor="middle" x="61.5" y="-359.5" font-family="Helvetica,sans-Serif" font-size="10.00">CoffeeBehavior</text>
<polyline fill="none" stroke="#666666" points="0,-352.5 123,-352.5 "/>
<text text-anchor="middle" x="61.5" y="-340.5" font-family="Helvetica,sans-Serif" font-size="10.00"> </text>
<polyline fill="none" stroke="#666666" points="0,-333.5 123,-333.5 "/>
<text text-anchor="start" x="8" y="-321.5" font-family="Helvetica,sans-Serif" font-size="10.00">+ virtual void OnTick</text>
<text text-anchor="start" x="8" y="-310.5" font-family="Helvetica,sans-Serif" font-size="10.00">() override</text>
<text text-anchor="start" x="8" y="-299.5" font-family="Helvetica,sans-Serif" font-size="10.00">+ virtual void OnStart</text>
<text text-anchor="start" x="8" y="-288.5" font-family="Helvetica,sans-Serif" font-size="10.00">() override</text>
</a>
</g>
</g>
<!-- Node1&#45;&gt;Node3 -->
<g id="edge2" class="edge">
<title>Node1&#45;&gt;Node3</title>
<path fill="none" stroke="#63b8ff" d="M754.01,-502.64C626.66,-503.98 236.54,-502.57 131.5,-438 106.83,-422.84 89.37,-395.37 78.06,-371.61"/>
<polygon fill="none" stroke="#63b8ff" points="754.15,-506.14 764.11,-502.53 754.07,-499.14 754.15,-506.14"/>
</g>
<!-- Node4 -->
<g id="node4" class="node">
<title>Node4</title>
<g id="a_node4"><a xlink:href="../../d4/dd8/classCoffeeMeterBehavior.html" target="_top" xlink:title=" ">
<polygon fill="white" stroke="#666666" points="141,-248.5 141,-404.5 292,-404.5 292,-248.5 141,-248.5"/>
<text text-anchor="middle" x="216.5" y="-392.5" font-family="Helvetica,sans-Serif" font-size="10.00">CoffeeMeterBehavior</text>
<polyline fill="none" stroke="#666666" points="141,-385.5 292,-385.5 "/>
<text text-anchor="start" x="149" y="-373.5" font-family="Helvetica,sans-Serif" font-size="10.00"># float coffeeLevel</text>
<polyline fill="none" stroke="#666666" points="141,-366.5 292,-366.5 "/>
<text text-anchor="start" x="149" y="-354.5" font-family="Helvetica,sans-Serif" font-size="10.00">+ float getCoffeeLevel</text>
<text text-anchor="start" x="149" y="-343.5" font-family="Helvetica,sans-Serif" font-size="10.00">() const</text>
<text text-anchor="start" x="149" y="-332.5" font-family="Helvetica,sans-Serif" font-size="10.00">+ void setCoffeeLevel</text>
<text text-anchor="start" x="149" y="-321.5" font-family="Helvetica,sans-Serif" font-size="10.00">(float value)</text>
<text text-anchor="start" x="149" y="-310.5" font-family="Helvetica,sans-Serif" font-size="10.00">+ void IncreaseCoffeeLevel</text>
<text text-anchor="start" x="149" y="-299.5" font-family="Helvetica,sans-Serif" font-size="10.00">(float amount)</text>
<text text-anchor="start" x="149" y="-288.5" font-family="Helvetica,sans-Serif" font-size="10.00">+ virtual void OnTick</text>
<text text-anchor="start" x="149" y="-277.5" font-family="Helvetica,sans-Serif" font-size="10.00">() override</text>
<text text-anchor="start" x="149" y="-266.5" font-family="Helvetica,sans-Serif" font-size="10.00">+ virtual void OnStart</text>
<text text-anchor="start" x="149" y="-255.5" font-family="Helvetica,sans-Serif" font-size="10.00">() override</text>
</a>
</g>
</g>
<!-- Node1&#45;&gt;Node4 -->
<g id="edge3" class="edge">
<title>Node1&#45;&gt;Node4</title>
<path fill="none" stroke="#63b8ff" d="M754.4,-500.75C650.94,-496.9 377.65,-482.67 300.5,-438 286.01,-429.61 273.19,-417.63 262.21,-404.63"/>
<polygon fill="none" stroke="#63b8ff" points="754.33,-504.25 764.45,-501.11 754.58,-497.25 754.33,-504.25"/>
</g>
<!-- Node5 -->
<g id="node5" class="node">
<title>Node5</title>
<g id="a_node5"><a xlink:href="../../d9/df0/classCollisionBehavior.html" target="_top" xlink:title="Controlls collision of an object with other objects that also have this or a child component.">
<polygon fill="white" stroke="#666666" points="310,-215.5 310,-437.5 475,-437.5 475,-215.5 310,-215.5"/>
<text text-anchor="middle" x="392.5" y="-425.5" font-family="Helvetica,sans-Serif" font-size="10.00">CollisionBehavior</text>
<polyline fill="none" stroke="#666666" points="310,-418.5 475,-418.5 "/>
<text text-anchor="start" x="318" y="-406.5" font-family="Helvetica,sans-Serif" font-size="10.00"># std::shared_ptr&lt; Vector2</text>
<text text-anchor="start" x="318" y="-395.5" font-family="Helvetica,sans-Serif" font-size="10.00"> &gt; colliderSize</text>
<polyline fill="none" stroke="#666666" points="310,-388.5 475,-388.5 "/>
<text text-anchor="start" x="318" y="-376.5" font-family="Helvetica,sans-Serif" font-size="10.00">+ bool IsPointInsideCollider</text>
<text text-anchor="start" x="318" y="-365.5" font-family="Helvetica,sans-Serif" font-size="10.00">(Vector2 position)</text>
<text text-anchor="start" x="318" y="-354.5" font-family="Helvetica,sans-Serif" font-size="10.00">+ void OnTick() override</text>
<text text-anchor="start" x="318" y="-343.5" font-family="Helvetica,sans-Serif" font-size="10.00">+ void OnStart() override</text>
<text text-anchor="start" x="318" y="-332.5" font-family="Helvetica,sans-Serif" font-size="10.00">+ const std::shared_ptr</text>
<text text-anchor="start" x="318" y="-321.5" font-family="Helvetica,sans-Serif" font-size="10.00">&lt; Vector2 &gt; getColliderSize()</text>
<text text-anchor="start" x="318" y="-310.5" font-family="Helvetica,sans-Serif" font-size="10.00">+ virtual void BeforeCollision</text>
<text text-anchor="start" x="318" y="-299.5" font-family="Helvetica,sans-Serif" font-size="10.00">(std::shared_ptr&lt; GameObject</text>
<text text-anchor="start" x="318" y="-288.5" font-family="Helvetica,sans-Serif" font-size="10.00"> &gt; other)</text>
<text text-anchor="start" x="318" y="-277.5" font-family="Helvetica,sans-Serif" font-size="10.00">+ CollisionBehavior()</text>
<text text-anchor="start" x="318" y="-266.5" font-family="Helvetica,sans-Serif" font-size="10.00">+ CollisionBehavior</text>
<text text-anchor="start" x="318" y="-255.5" font-family="Helvetica,sans-Serif" font-size="10.00">(int x, int y)</text>
<text text-anchor="start" x="318" y="-244.5" font-family="Helvetica,sans-Serif" font-size="10.00"># bool CheckForCollision</text>
<text text-anchor="start" x="318" y="-233.5" font-family="Helvetica,sans-Serif" font-size="10.00">(std::shared_ptr&lt; GameObject</text>
<text text-anchor="start" x="318" y="-222.5" font-family="Helvetica,sans-Serif" font-size="10.00"> &gt; other)</text>
</a>
</g>
</g>
<!-- Node1&#45;&gt;Node5 -->
<g id="edge4" class="edge">
<title>Node1&#45;&gt;Node5</title>
<path fill="none" stroke="#63b8ff" d="M754.21,-501.97C691.99,-500.18 570.72,-489.69 484.5,-438 481.29,-436.07 478.14,-434 475.05,-431.79"/>
<polygon fill="none" stroke="#63b8ff" points="754.32,-505.47 764.4,-502.2 754.48,-498.47 754.32,-505.47"/>
</g>
<!-- Node9 -->
<g id="node9" class="node">
<title>Node9</title>
<g id="a_node9"><a xlink:href="../../d9/ddc/classEnemyBehavior.html" target="_top" xlink:title=" ">
<polygon fill="white" stroke="#666666" points="493.5,-292.5 493.5,-360.5 633.5,-360.5 633.5,-292.5 493.5,-292.5"/>
<text text-anchor="middle" x="563.5" y="-348.5" font-family="Helvetica,sans-Serif" font-size="10.00">EnemyBehavior</text>
<polyline fill="none" stroke="#666666" points="493.5,-341.5 633.5,-341.5 "/>
<text text-anchor="middle" x="563.5" y="-329.5" font-family="Helvetica,sans-Serif" font-size="10.00"> </text>
<polyline fill="none" stroke="#666666" points="493.5,-322.5 633.5,-322.5 "/>
<text text-anchor="start" x="501.5" y="-310.5" font-family="Helvetica,sans-Serif" font-size="10.00">+ void OnTick() override</text>
<text text-anchor="start" x="501.5" y="-299.5" font-family="Helvetica,sans-Serif" font-size="10.00">+ void OnStart() override</text>
</a>
</g>
</g>
<!-- Node1&#45;&gt;Node9 -->
<g id="edge8" class="edge">
<title>Node1&#45;&gt;Node9</title>
<path fill="none" stroke="#63b8ff" d="M754.55,-491.78C721.9,-481.97 675.84,-464.65 642.5,-438 616.07,-416.87 594.44,-384.71 580.55,-360.52"/>
<polygon fill="none" stroke="#63b8ff" points="753.65,-495.16 764.23,-494.59 755.6,-488.44 753.65,-495.16"/>
</g>
<!-- Node10 -->
<g id="node10" class="node">
<title>Node10</title>
<g id="a_node10"><a xlink:href="../../d1/d21/classGameManagerBehavior.html" target="_top" xlink:title="The base game manager behavior.">
<polygon fill="white" stroke="#666666" points="651.5,-281.5 651.5,-371.5 783.5,-371.5 783.5,-281.5 651.5,-281.5"/>
<text text-anchor="middle" x="717.5" y="-359.5" font-family="Helvetica,sans-Serif" font-size="10.00">GameManagerBehavior</text>
<polyline fill="none" stroke="#666666" points="651.5,-352.5 783.5,-352.5 "/>
<text text-anchor="middle" x="717.5" y="-340.5" font-family="Helvetica,sans-Serif" font-size="10.00"> </text>
<polyline fill="none" stroke="#666666" points="651.5,-333.5 783.5,-333.5 "/>
<text text-anchor="start" x="659.5" y="-321.5" font-family="Helvetica,sans-Serif" font-size="10.00">+ virtual void OnTick</text>
<text text-anchor="start" x="659.5" y="-310.5" font-family="Helvetica,sans-Serif" font-size="10.00">() override</text>
<text text-anchor="start" x="659.5" y="-299.5" font-family="Helvetica,sans-Serif" font-size="10.00">+ virtual void OnStart</text>
<text text-anchor="start" x="659.5" y="-288.5" font-family="Helvetica,sans-Serif" font-size="10.00">() override</text>
</a>
</g>
</g>
<!-- Node1&#45;&gt;Node10 -->
<g id="edge9" class="edge">
<title>Node1&#45;&gt;Node10</title>
<path fill="none" stroke="#63b8ff" d="M778.24,-465.15C766.2,-437.86 749.74,-400.56 736.99,-371.67"/>
<polygon fill="none" stroke="#63b8ff" points="775.06,-466.61 782.3,-474.35 781.46,-463.79 775.06,-466.61"/>
</g>
<!-- Node11 -->
<g id="node11" class="node">
<title>Node11</title>
<g id="a_node11"><a xlink:href="../../d8/d05/classGravityBehavior.html" target="_top" xlink:title=" ">
<polygon fill="white" stroke="#666666" points="801.5,-276 801.5,-377 941.5,-377 941.5,-276 801.5,-276"/>
<text text-anchor="middle" x="871.5" y="-365" font-family="Helvetica,sans-Serif" font-size="10.00">GravityBehavior</text>
<polyline fill="none" stroke="#666666" points="801.5,-358 941.5,-358 "/>
<text text-anchor="start" x="809.5" y="-346" font-family="Helvetica,sans-Serif" font-size="10.00"># float gravityScale</text>
<polyline fill="none" stroke="#666666" points="801.5,-339 941.5,-339 "/>
<text text-anchor="start" x="809.5" y="-327" font-family="Helvetica,sans-Serif" font-size="10.00">+ float getGravityScale()</text>
<text text-anchor="start" x="809.5" y="-316" font-family="Helvetica,sans-Serif" font-size="10.00">+ void setGravityScale</text>
<text text-anchor="start" x="809.5" y="-305" font-family="Helvetica,sans-Serif" font-size="10.00">(float value)</text>
<text text-anchor="start" x="809.5" y="-294" font-family="Helvetica,sans-Serif" font-size="10.00">+ void OnTick() override</text>
<text text-anchor="start" x="809.5" y="-283" font-family="Helvetica,sans-Serif" font-size="10.00">+ void OnStart() override</text>
</a>
</g>
</g>
<!-- Node1&#45;&gt;Node11 -->
<g id="edge10" class="edge">
<title>Node1&#45;&gt;Node11</title>
<path fill="none" stroke="#63b8ff" d="M810.82,-465.01C822.11,-439.43 837.25,-405.12 849.58,-377.17"/>
<polygon fill="none" stroke="#63b8ff" points="807.54,-463.79 806.7,-474.35 813.94,-466.61 807.54,-463.79"/>
</g>
<!-- Node12 -->
<g id="node12" class="node">
<title>Node12</title>
<g id="a_node12"><a xlink:href="../../de/d47/classKeyboardHandlerBehavior.html" target="_top" xlink:title="An abstract class for handling keyboard inputs.">
<polygon fill="white" stroke="#666666" points="959.5,-281.5 959.5,-371.5 1111.5,-371.5 1111.5,-281.5 959.5,-281.5"/>
<text text-anchor="middle" x="1035.5" y="-359.5" font-family="Helvetica,sans-Serif" font-size="10.00">KeyboardHandlerBehavior</text>
<polyline fill="none" stroke="#666666" points="959.5,-352.5 1111.5,-352.5 "/>
<text text-anchor="middle" x="1035.5" y="-340.5" font-family="Helvetica,sans-Serif" font-size="10.00"> </text>
<polyline fill="none" stroke="#666666" points="959.5,-333.5 1111.5,-333.5 "/>
<text text-anchor="start" x="967.5" y="-321.5" font-family="Helvetica,sans-Serif" font-size="10.00">+ virtual void OnKeyDown</text>
<text text-anchor="start" x="967.5" y="-310.5" font-family="Helvetica,sans-Serif" font-size="10.00">(SDL_KeyboardEvent &amp;e)=0</text>
<text text-anchor="start" x="967.5" y="-299.5" font-family="Helvetica,sans-Serif" font-size="10.00">+ virtual void OnKeyUp</text>
<text text-anchor="start" x="967.5" y="-288.5" font-family="Helvetica,sans-Serif" font-size="10.00">(SDL_KeyboardEvent &amp;e)=0</text>
</a>
</g>
</g>
<!-- Node1&#45;&gt;Node12 -->
<g id="edge11" class="edge">
<title>Node1&#45;&gt;Node12</title>
<path fill="none" stroke="#63b8ff" d="M834.65,-491.87C868.05,-482.04 915.61,-464.65 950.5,-438 974.06,-420 994.54,-393.93 1009.49,-371.63"/>
<polygon fill="none" stroke="#63b8ff" points="833.43,-488.58 824.77,-494.68 835.34,-495.32 833.43,-488.58"/>
</g>
<!-- Node15 -->
<g id="node15" class="node">
<title>Node15</title>
<g id="a_node15"><a xlink:href="../../dd/df8/classKinematicBehavior.html" target="_top" xlink:title="Component causing the velocity of an object to update it&#39;s position.">
<polygon fill="white" stroke="#666666" points="1129.5,-292.5 1129.5,-360.5 1269.5,-360.5 1269.5,-292.5 1129.5,-292.5"/>
<text text-anchor="middle" x="1199.5" y="-348.5" font-family="Helvetica,sans-Serif" font-size="10.00">KinematicBehavior</text>
<polyline fill="none" stroke="#666666" points="1129.5,-341.5 1269.5,-341.5 "/>
<text text-anchor="middle" x="1199.5" y="-329.5" font-family="Helvetica,sans-Serif" font-size="10.00"> </text>
<polyline fill="none" stroke="#666666" points="1129.5,-322.5 1269.5,-322.5 "/>
<text text-anchor="start" x="1137.5" y="-310.5" font-family="Helvetica,sans-Serif" font-size="10.00">+ void OnTick() override</text>
<text text-anchor="start" x="1137.5" y="-299.5" font-family="Helvetica,sans-Serif" font-size="10.00">+ void OnStart() override</text>
</a>
</g>
</g>
<!-- Node1&#45;&gt;Node15 -->
<g id="edge14" class="edge">
<title>Node1&#45;&gt;Node15</title>
<path fill="none" stroke="#63b8ff" d="M834.75,-497.84C911.1,-489.34 1073.54,-468.23 1120.5,-438 1149.55,-419.3 1171.22,-385.81 1184.45,-360.59"/>
<polygon fill="none" stroke="#63b8ff" points="834.13,-494.39 824.57,-498.95 834.89,-501.34 834.13,-494.39"/>
</g>
<!-- Node16 -->
<g id="node16" class="node">
<title>Node16</title>
<g id="a_node16"><a xlink:href="../../d3/dc0/classPlayerBehavior.html" target="_top" xlink:title="The players basic behavior.">
<polygon fill="white" stroke="#666666" points="1288,-254 1288,-399 1449,-399 1449,-254 1288,-254"/>
<text text-anchor="middle" x="1368.5" y="-387" font-family="Helvetica,sans-Serif" font-size="10.00">PlayerBehavior</text>
<polyline fill="none" stroke="#666666" points="1288,-380 1449,-380 "/>
<text text-anchor="start" x="1296" y="-368" font-family="Helvetica,sans-Serif" font-size="10.00"># unsigned int jumpPoints</text>
<text text-anchor="start" x="1296" y="-357" font-family="Helvetica,sans-Serif" font-size="10.00"># const unsigned int</text>
<text text-anchor="start" x="1296" y="-346" font-family="Helvetica,sans-Serif" font-size="10.00"> defaultJumpPoints</text>
<polyline fill="none" stroke="#666666" points="1288,-339 1449,-339 "/>
<text text-anchor="start" x="1296" y="-327" font-family="Helvetica,sans-Serif" font-size="10.00">+ unsigned int getJumpPoints</text>
<text text-anchor="start" x="1296" y="-316" font-family="Helvetica,sans-Serif" font-size="10.00">() const</text>
<text text-anchor="start" x="1296" y="-305" font-family="Helvetica,sans-Serif" font-size="10.00">+ void setJumpPoints</text>
<text text-anchor="start" x="1296" y="-294" font-family="Helvetica,sans-Serif" font-size="10.00">(unsigned int value)</text>
<text text-anchor="start" x="1296" y="-283" font-family="Helvetica,sans-Serif" font-size="10.00">+ void ResetJumpPoints()</text>
<text text-anchor="start" x="1296" y="-272" font-family="Helvetica,sans-Serif" font-size="10.00">+ void OnTick() override</text>
<text text-anchor="start" x="1296" y="-261" font-family="Helvetica,sans-Serif" font-size="10.00">+ void OnStart() override</text>
</a>
</g>
</g>
<!-- Node1&#45;&gt;Node16 -->
<g id="edge15" class="edge">
<title>Node1&#45;&gt;Node16</title>
<path fill="none" stroke="#63b8ff" d="M834.73,-500.47C936.68,-495.99 1202.47,-480.46 1278.5,-438 1295.56,-428.47 1310.67,-414.3 1323.4,-399.26"/>
<polygon fill="none" stroke="#63b8ff" points="834.38,-496.98 824.54,-500.9 834.68,-503.97 834.38,-496.98"/>
</g>
<!-- Node17 -->
<g id="node17" class="node">
<title>Node17</title>
<g id="a_node17"><a xlink:href="../../db/d44/classScoreCounterBehavior.html" target="_top" xlink:title=" ">
<polygon fill="white" stroke="#666666" points="1467,-281.5 1467,-371.5 1592,-371.5 1592,-281.5 1467,-281.5"/>
<text text-anchor="middle" x="1529.5" y="-359.5" font-family="Helvetica,sans-Serif" font-size="10.00">ScoreCounterBehavior</text>
<polyline fill="none" stroke="#666666" points="1467,-352.5 1592,-352.5 "/>
<text text-anchor="middle" x="1529.5" y="-340.5" font-family="Helvetica,sans-Serif" font-size="10.00"> </text>
<polyline fill="none" stroke="#666666" points="1467,-333.5 1592,-333.5 "/>
<text text-anchor="start" x="1475" y="-321.5" font-family="Helvetica,sans-Serif" font-size="10.00">+ virtual void OnTick</text>
<text text-anchor="start" x="1475" y="-310.5" font-family="Helvetica,sans-Serif" font-size="10.00">() override</text>
<text text-anchor="start" x="1475" y="-299.5" font-family="Helvetica,sans-Serif" font-size="10.00">+ virtual void OnStart</text>
<text text-anchor="start" x="1475" y="-288.5" font-family="Helvetica,sans-Serif" font-size="10.00">() override</text>
</a>
</g>
</g>
<!-- Node1&#45;&gt;Node17 -->
<g id="edge16" class="edge">
<title>Node1&#45;&gt;Node17</title>
<path fill="none" stroke="#63b8ff" d="M834.96,-502.59C962.21,-503.75 1352.05,-501.9 1457.5,-438 1482.47,-422.87 1500.43,-395.4 1512.16,-371.64"/>
<polygon fill="none" stroke="#63b8ff" points="834.9,-499.09 824.86,-502.48 834.83,-506.09 834.9,-499.09"/>
</g>
<!-- Node2 -->
<g id="node2" class="node">
<title>Node2</title>
<g id="a_node2"><a xlink:href="../../d9/df7/classGameObjectComponent.html" target="_top" xlink:title="An abstract gameobject component.">
<polygon fill="white" stroke="#666666" points="697,-568.5 697,-713.5 892,-713.5 892,-568.5 697,-568.5"/>
<text text-anchor="middle" x="794.5" y="-701.5" font-family="Helvetica,sans-Serif" font-size="10.00">GameObjectComponent</text>
<polyline fill="none" stroke="#666666" points="697,-694.5 892,-694.5 "/>
<text text-anchor="start" x="705" y="-682.5" font-family="Helvetica,sans-Serif" font-size="10.00"># bool enabled</text>
<text text-anchor="start" x="705" y="-671.5" font-family="Helvetica,sans-Serif" font-size="10.00"># GameObject * parent</text>
<polyline fill="none" stroke="#666666" points="697,-664.5 892,-664.5 "/>
<text text-anchor="start" x="705" y="-652.5" font-family="Helvetica,sans-Serif" font-size="10.00">+ bool getEnabled() const</text>
<text text-anchor="start" x="705" y="-641.5" font-family="Helvetica,sans-Serif" font-size="10.00">+ void setEnabled(bool</text>
<text text-anchor="start" x="705" y="-630.5" font-family="Helvetica,sans-Serif" font-size="10.00"> value)</text>
<text text-anchor="start" x="705" y="-619.5" font-family="Helvetica,sans-Serif" font-size="10.00">+ void setParent(GameObject</text>
<text text-anchor="start" x="705" y="-608.5" font-family="Helvetica,sans-Serif" font-size="10.00"> *value)</text>
<text text-anchor="start" x="705" y="-597.5" font-family="Helvetica,sans-Serif" font-size="10.00">+ virtual ~GameObjectComponent()</text>
<text text-anchor="start" x="705" y="-586.5" font-family="Helvetica,sans-Serif" font-size="10.00">+ virtual void OnTick()=0</text>
<text text-anchor="start" x="705" y="-575.5" font-family="Helvetica,sans-Serif" font-size="10.00">+ virtual void OnStart()=0</text>
</a>
</g>
</g>
<!-- Node2&#45;&gt;Node1 -->
<g id="edge1" class="edge">
<title>Node2&#45;&gt;Node1</title>
<path fill="none" stroke="#63b8ff" d="M794.5,-558.39C794.5,-548.86 794.5,-539.71 794.5,-531.71"/>
<polygon fill="none" stroke="#63b8ff" points="791,-558.42 794.5,-568.42 798,-558.42 791,-558.42"/>
</g>
<!-- Node6 -->
<g id="node6" class="node">
<title>Node6</title>
<g id="a_node6"><a xlink:href="../../dd/dcf/classCoffeeCollisionBehavior.html" target="_top" xlink:title=" ">
<polygon fill="white" stroke="#666666" points="127,-28 127,-151 292,-151 292,-28 127,-28"/>
<text text-anchor="middle" x="209.5" y="-139" font-family="Helvetica,sans-Serif" font-size="10.00">CoffeeCollisionBehavior</text>
<polyline fill="none" stroke="#666666" points="127,-132 292,-132 "/>
<text text-anchor="middle" x="209.5" y="-120" font-family="Helvetica,sans-Serif" font-size="10.00"> </text>
<polyline fill="none" stroke="#666666" points="127,-113 292,-113 "/>
<text text-anchor="start" x="135" y="-101" font-family="Helvetica,sans-Serif" font-size="10.00">+ CoffeeCollisionBehavior()</text>
<text text-anchor="start" x="135" y="-90" font-family="Helvetica,sans-Serif" font-size="10.00">+ CoffeeCollisionBehavior</text>
<text text-anchor="start" x="135" y="-79" font-family="Helvetica,sans-Serif" font-size="10.00">(int x, int y)</text>
<text text-anchor="start" x="135" y="-68" font-family="Helvetica,sans-Serif" font-size="10.00">+ ~CoffeeCollisionBehavior()</text>
<text text-anchor="start" x="135" y="-57" font-family="Helvetica,sans-Serif" font-size="10.00">+ virtual void BeforeCollision</text>
<text text-anchor="start" x="135" y="-46" font-family="Helvetica,sans-Serif" font-size="10.00">(std::shared_ptr&lt; GameObject</text>
<text text-anchor="start" x="135" y="-35" font-family="Helvetica,sans-Serif" font-size="10.00"> &gt; other) override</text>
</a>
</g>
</g>
<!-- Node5&#45;&gt;Node6 -->
<g id="edge5" class="edge">
<title>Node5&#45;&gt;Node6</title>
<path fill="none" stroke="#63b8ff" d="M303.64,-211.39C287.45,-190.6 271.15,-169.67 256.78,-151.21"/>
<polygon fill="none" stroke="#63b8ff" points="300.93,-213.6 309.83,-219.34 306.45,-209.3 300.93,-213.6"/>
</g>
<!-- Node7 -->
<g id="node7" class="node">
<title>Node7</title>
<g id="a_node7"><a xlink:href="../../d1/d1b/classEnemyCollisionBehavior.html" target="_top" xlink:title=" ">
<polygon fill="white" stroke="#666666" points="310,-33.5 310,-145.5 475,-145.5 475,-33.5 310,-33.5"/>
<text text-anchor="middle" x="392.5" y="-133.5" font-family="Helvetica,sans-Serif" font-size="10.00">EnemyCollisionBehavior</text>
<polyline fill="none" stroke="#666666" points="310,-126.5 475,-126.5 "/>
<text text-anchor="middle" x="392.5" y="-114.5" font-family="Helvetica,sans-Serif" font-size="10.00"> </text>
<polyline fill="none" stroke="#666666" points="310,-107.5 475,-107.5 "/>
<text text-anchor="start" x="318" y="-95.5" font-family="Helvetica,sans-Serif" font-size="10.00">+ EnemyCollisionBehavior()</text>
<text text-anchor="start" x="318" y="-84.5" font-family="Helvetica,sans-Serif" font-size="10.00">+ EnemyCollisionBehavior</text>
<text text-anchor="start" x="318" y="-73.5" font-family="Helvetica,sans-Serif" font-size="10.00">(int x, int y)</text>
<text text-anchor="start" x="318" y="-62.5" font-family="Helvetica,sans-Serif" font-size="10.00">+ virtual void BeforeCollision</text>
<text text-anchor="start" x="318" y="-51.5" font-family="Helvetica,sans-Serif" font-size="10.00">(std::shared_ptr&lt; GameObject</text>
<text text-anchor="start" x="318" y="-40.5" font-family="Helvetica,sans-Serif" font-size="10.00"> &gt; other) override</text>
</a>
</g>
</g>
<!-- Node5&#45;&gt;Node7 -->
<g id="edge6" class="edge">
<title>Node5&#45;&gt;Node7</title>
<path fill="none" stroke="#63b8ff" d="M392.5,-205C392.5,-184.17 392.5,-163.46 392.5,-145.5"/>
<polygon fill="none" stroke="#63b8ff" points="389,-205.22 392.5,-215.22 396,-205.22 389,-205.22"/>
</g>
<!-- Node8 -->
<g id="node8" class="node">
<title>Node8</title>
<g id="a_node8"><a xlink:href="../../d0/d31/classPlayerCollisionBehavior.html" target="_top" xlink:title="The players collision behavior.">
<polygon fill="white" stroke="#666666" points="493,-33.5 493,-145.5 658,-145.5 658,-33.5 493,-33.5"/>
<text text-anchor="middle" x="575.5" y="-133.5" font-family="Helvetica,sans-Serif" font-size="10.00">PlayerCollisionBehavior</text>
<polyline fill="none" stroke="#666666" points="493,-126.5 658,-126.5 "/>
<text text-anchor="middle" x="575.5" y="-114.5" font-family="Helvetica,sans-Serif" font-size="10.00"> </text>
<polyline fill="none" stroke="#666666" points="493,-107.5 658,-107.5 "/>
<text text-anchor="start" x="501" y="-95.5" font-family="Helvetica,sans-Serif" font-size="10.00">+ PlayerCollisionBehavior()</text>
<text text-anchor="start" x="501" y="-84.5" font-family="Helvetica,sans-Serif" font-size="10.00">+ PlayerCollisionBehavior</text>
<text text-anchor="start" x="501" y="-73.5" font-family="Helvetica,sans-Serif" font-size="10.00">(int x, int y)</text>
<text text-anchor="start" x="501" y="-62.5" font-family="Helvetica,sans-Serif" font-size="10.00">+ virtual void BeforeCollision</text>
<text text-anchor="start" x="501" y="-51.5" font-family="Helvetica,sans-Serif" font-size="10.00">(std::shared_ptr&lt; GameObject</text>
<text text-anchor="start" x="501" y="-40.5" font-family="Helvetica,sans-Serif" font-size="10.00"> &gt; other) override</text>
</a>
</g>
</g>
<!-- Node5&#45;&gt;Node8 -->
<g id="edge7" class="edge">
<title>Node5&#45;&gt;Node8</title>
<path fill="none" stroke="#63b8ff" d="M481.44,-211.28C499.22,-188.46 517.13,-165.46 532.47,-145.75"/>
<polygon fill="none" stroke="#63b8ff" points="478.55,-209.3 475.17,-219.34 484.07,-213.6 478.55,-209.3"/>
</g>
<!-- Node13 -->
<g id="node13" class="node">
<title>Node13</title>
<g id="a_node13"><a xlink:href="../../d3/d2e/classGameManagerKeyboardBehavior.html" target="_top" xlink:title="The game managers keyboard handler for general handling.">
<polygon fill="white" stroke="#666666" points="831,-0.5 831,-178.5 1036,-178.5 1036,-0.5 831,-0.5"/>
<text text-anchor="middle" x="933.5" y="-166.5" font-family="Helvetica,sans-Serif" font-size="10.00">GameManagerKeyboardBehavior</text>
<polyline fill="none" stroke="#666666" points="831,-159.5 1036,-159.5 "/>
<text text-anchor="middle" x="933.5" y="-147.5" font-family="Helvetica,sans-Serif" font-size="10.00"> </text>
<polyline fill="none" stroke="#666666" points="831,-140.5 1036,-140.5 "/>
<text text-anchor="start" x="839" y="-128.5" font-family="Helvetica,sans-Serif" font-size="10.00">+ GameManagerKeyboardBehavior()</text>
<text text-anchor="start" x="839" y="-117.5" font-family="Helvetica,sans-Serif" font-size="10.00">+ ~GameManagerKeyboardBehavior()</text>
<text text-anchor="start" x="839" y="-106.5" font-family="Helvetica,sans-Serif" font-size="10.00">+ virtual void OnKeyDown</text>
<text text-anchor="start" x="839" y="-95.5" font-family="Helvetica,sans-Serif" font-size="10.00">(SDL_KeyboardEvent &amp;e)</text>
<text text-anchor="start" x="839" y="-84.5" font-family="Helvetica,sans-Serif" font-size="10.00"> override</text>
<text text-anchor="start" x="839" y="-73.5" font-family="Helvetica,sans-Serif" font-size="10.00">+ virtual void OnKeyUp</text>
<text text-anchor="start" x="839" y="-62.5" font-family="Helvetica,sans-Serif" font-size="10.00">(SDL_KeyboardEvent &amp;e)</text>
<text text-anchor="start" x="839" y="-51.5" font-family="Helvetica,sans-Serif" font-size="10.00"> override</text>
<text text-anchor="start" x="839" y="-40.5" font-family="Helvetica,sans-Serif" font-size="10.00">+ virtual void OnTick</text>
<text text-anchor="start" x="839" y="-29.5" font-family="Helvetica,sans-Serif" font-size="10.00">() override</text>
<text text-anchor="start" x="839" y="-18.5" font-family="Helvetica,sans-Serif" font-size="10.00">+ virtual void OnStart</text>
<text text-anchor="start" x="839" y="-7.5" font-family="Helvetica,sans-Serif" font-size="10.00">() override</text>
</a>
</g>
</g>
<!-- Node12&#45;&gt;Node13 -->
<g id="edge12" class="edge">
<title>Node12&#45;&gt;Node13</title>
<path fill="none" stroke="#63b8ff" d="M1012.22,-271.86C1000.27,-244.33 985.41,-210.09 971.82,-178.8"/>
<polygon fill="none" stroke="#63b8ff" points="1009.12,-273.52 1016.31,-281.3 1015.54,-270.73 1009.12,-273.52"/>
</g>
<!-- Node14 -->
<g id="node14" class="node">
<title>Node14</title>
<g id="a_node14"><a xlink:href="../../d9/d2c/classPlayerKeyboardBehavior.html" target="_top" xlink:title="The keyboard handler for the player.">
<polygon fill="white" stroke="#666666" points="1054.5,-0.5 1054.5,-178.5 1218.5,-178.5 1218.5,-0.5 1054.5,-0.5"/>
<text text-anchor="middle" x="1136.5" y="-166.5" font-family="Helvetica,sans-Serif" font-size="10.00">PlayerKeyboardBehavior</text>
<polyline fill="none" stroke="#666666" points="1054.5,-159.5 1218.5,-159.5 "/>
<text text-anchor="middle" x="1136.5" y="-147.5" font-family="Helvetica,sans-Serif" font-size="10.00"> </text>
<polyline fill="none" stroke="#666666" points="1054.5,-140.5 1218.5,-140.5 "/>
<text text-anchor="start" x="1062.5" y="-128.5" font-family="Helvetica,sans-Serif" font-size="10.00">+ PlayerKeyboardBehavior()</text>
<text text-anchor="start" x="1062.5" y="-117.5" font-family="Helvetica,sans-Serif" font-size="10.00">+ ~PlayerKeyboardBehavior()</text>
<text text-anchor="start" x="1062.5" y="-106.5" font-family="Helvetica,sans-Serif" font-size="10.00">+ virtual void OnKeyDown</text>
<text text-anchor="start" x="1062.5" y="-95.5" font-family="Helvetica,sans-Serif" font-size="10.00">(SDL_KeyboardEvent &amp;e)</text>
<text text-anchor="start" x="1062.5" y="-84.5" font-family="Helvetica,sans-Serif" font-size="10.00"> override</text>
<text text-anchor="start" x="1062.5" y="-73.5" font-family="Helvetica,sans-Serif" font-size="10.00">+ virtual void OnKeyUp</text>
<text text-anchor="start" x="1062.5" y="-62.5" font-family="Helvetica,sans-Serif" font-size="10.00">(SDL_KeyboardEvent &amp;e)</text>
<text text-anchor="start" x="1062.5" y="-51.5" font-family="Helvetica,sans-Serif" font-size="10.00"> override</text>
<text text-anchor="start" x="1062.5" y="-40.5" font-family="Helvetica,sans-Serif" font-size="10.00">+ virtual void OnTick</text>
<text text-anchor="start" x="1062.5" y="-29.5" font-family="Helvetica,sans-Serif" font-size="10.00">() override</text>
<text text-anchor="start" x="1062.5" y="-18.5" font-family="Helvetica,sans-Serif" font-size="10.00">+ virtual void OnStart</text>
<text text-anchor="start" x="1062.5" y="-7.5" font-family="Helvetica,sans-Serif" font-size="10.00">() override</text>
</a>
</g>
</g>
<!-- Node12&#45;&gt;Node14 -->
<g id="edge13" class="edge">
<title>Node12&#45;&gt;Node14</title>
<path fill="none" stroke="#63b8ff" d="M1058.55,-271.86C1070.39,-244.33 1085.1,-210.09 1098.55,-178.8"/>
<polygon fill="none" stroke="#63b8ff" points="1055.23,-270.73 1054.5,-281.3 1061.66,-273.49 1055.23,-270.73"/>
</g>
</g>
</svg>
