<?xml version="1.0" encoding="UTF-8" standalone="no"?>
<!DOCTYPE svg PUBLIC "-//W3C//DTD SVG 1.1//EN"
 "http://www.w3.org/Graphics/SVG/1.1/DTD/svg11.dtd">
<!-- Generated by graphviz version 2.43.0 (0)
 -->
<!-- Title: Behavior Pages: 1 -->
<svg width="1560pt" height="758pt"
 viewBox="0.00 0.00 1560.00 758.00" xmlns="http://www.w3.org/2000/svg" xmlns:xlink="http://www.w3.org/1999/xlink">
<g id="graph0" class="graph" transform="scale(1 1) rotate(0) translate(4 754)">
<title>Behavior</title>
<!-- Node1 -->
<g id="Node000001" class="node">
<title>Node1</title>
<g id="a_Node000001"><a xlink:title="An abstract gameobject behavior.">
<polygon fill="#999999" stroke="transparent" points="802.5,-553 748.5,-553 748.5,-504 802.5,-504 802.5,-553"/>
<text text-anchor="start" x="753.5" y="-540.5" font-family="Helvetica,sans-Serif" font-size="10.00">Behavior</text>
<text text-anchor="start" x="773.5" y="-525.5" font-family="Helvetica,sans-Serif" font-size="10.00"> </text>
<text text-anchor="start" x="773.5" y="-510.5" font-family="Helvetica,sans-Serif" font-size="10.00"> </text>
<polygon fill="#666666" stroke="#666666" points="748.5,-535.5 748.5,-535.5 802.5,-535.5 802.5,-535.5 748.5,-535.5"/>
<polygon fill="#666666" stroke="#666666" points="748.5,-520.5 748.5,-520.5 802.5,-520.5 802.5,-520.5 748.5,-520.5"/>
<polygon fill="none" stroke="#666666" points="748.5,-504 748.5,-553 802.5,-553 802.5,-504 748.5,-504"/>
</a>
</g>
</g>
<!-- Node3 -->
<g id="Node000003" class="node">
<title>Node3</title>
<g id="a_Node000003"><a xlink:href="../../d1/d43/classCoffeeBehavior.html" target="_top" xlink:title="Controlls the behavior of a coffee.">
<polygon fill="white" stroke="transparent" points="117,-390 0,-390 0,-304 117,-304 117,-390"/>
<text text-anchor="start" x="21" y="-378" font-family="Helvetica,sans-Serif" font-size="10.00">CoffeeBehavior</text>
<text text-anchor="start" x="57" y="-363" font-family="Helvetica,sans-Serif" font-size="10.00"> </text>
<text text-anchor="start" x="4.5" y="-348" font-family="Helvetica,sans-Serif" font-size="10.00">+</text>
<text text-anchor="start" x="17.5" y="-348" font-family="Helvetica,sans-Serif" font-size="10.00">virtual void OnTick</text>
<text text-anchor="start" x="17.5" y="-337" font-family="Helvetica,sans-Serif" font-size="10.00">() override</text>
<text text-anchor="start" x="4.5" y="-322" font-family="Helvetica,sans-Serif" font-size="10.00">+</text>
<text text-anchor="start" x="17.5" y="-322" font-family="Helvetica,sans-Serif" font-size="10.00">virtual void OnStart</text>
<text text-anchor="start" x="17.5" y="-311" font-family="Helvetica,sans-Serif" font-size="10.00">() override</text>
<polygon fill="#666666" stroke="#666666" points="0.5,-373 0.5,-373 117.5,-373 117.5,-373 0.5,-373"/>
<polygon fill="#666666" stroke="#666666" points="0.5,-358 0.5,-358 117.5,-358 117.5,-358 0.5,-358"/>
<polygon fill="none" stroke="#666666" points="0,-304 0,-390 117,-390 117,-304 0,-304"/>
</a>
</g>
</g>
<!-- Node1&#45;&gt;Node3 -->
<g id="edge2_Node000001_Node000003" class="edge">
<title>Node1&#45;&gt;Node3</title>
<g id="a_edge2_Node000001_Node000003"><a xlink:title=" ">
<path fill="none" stroke="#63b8ff" d="M737.81,-526.09C606.89,-520.9 176.96,-501.45 125.5,-468 98.09,-450.18 80.83,-417.07 70.71,-390.13"/>
<polygon fill="none" stroke="#63b8ff" points="738,-529.6 748.13,-526.49 738.27,-522.6 738,-529.6"/>
</a>
</g>
</g>
<!-- Node4 -->
<g id="Node000004" class="node">
<title>Node4</title>
<g id="a_Node000004"><a xlink:href="../../d4/dd8/classCoffeeMeterBehavior.html" target="_top" xlink:title="Controlls the behavior of the coffee meter.">
<polygon fill="white" stroke="transparent" points="280,-429 135,-429 135,-265 280,-265 280,-429"/>
<text text-anchor="start" x="156" y="-417" font-family="Helvetica,sans-Serif" font-size="10.00">CoffeeMeterBehavior</text>
<text text-anchor="start" x="139.5" y="-402" font-family="Helvetica,sans-Serif" font-size="10.00">#</text>
<text text-anchor="start" x="152.5" y="-402" font-family="Helvetica,sans-Serif" font-size="10.00">float coffeeLevel</text>
<text text-anchor="start" x="139.5" y="-387" font-family="Helvetica,sans-Serif" font-size="10.00">+</text>
<text text-anchor="start" x="152.5" y="-387" font-family="Helvetica,sans-Serif" font-size="10.00">float getCoffeeLevel</text>
<text text-anchor="start" x="152.5" y="-376" font-family="Helvetica,sans-Serif" font-size="10.00">() const</text>
<text text-anchor="start" x="139.5" y="-361" font-family="Helvetica,sans-Serif" font-size="10.00">+</text>
<text text-anchor="start" x="152.5" y="-361" font-family="Helvetica,sans-Serif" font-size="10.00">void setCoffeeLevel</text>
<text text-anchor="start" x="152.5" y="-350" font-family="Helvetica,sans-Serif" font-size="10.00">(float value)</text>
<text text-anchor="start" x="139.5" y="-335" font-family="Helvetica,sans-Serif" font-size="10.00">+</text>
<text text-anchor="start" x="152.5" y="-335" font-family="Helvetica,sans-Serif" font-size="10.00">void IncreaseCoffeeLevel</text>
<text text-anchor="start" x="152.5" y="-324" font-family="Helvetica,sans-Serif" font-size="10.00">(float amount)</text>
<text text-anchor="start" x="139.5" y="-309" font-family="Helvetica,sans-Serif" font-size="10.00">+</text>
<text text-anchor="start" x="152.5" y="-309" font-family="Helvetica,sans-Serif" font-size="10.00">virtual void OnTick</text>
<text text-anchor="start" x="152.5" y="-298" font-family="Helvetica,sans-Serif" font-size="10.00">() override</text>
<text text-anchor="start" x="139.5" y="-283" font-family="Helvetica,sans-Serif" font-size="10.00">+</text>
<text text-anchor="start" x="152.5" y="-283" font-family="Helvetica,sans-Serif" font-size="10.00">virtual void OnStart</text>
<text text-anchor="start" x="152.5" y="-272" font-family="Helvetica,sans-Serif" font-size="10.00">() override</text>
<polygon fill="#666666" stroke="#666666" points="135.5,-412 135.5,-412 280.5,-412 280.5,-412 135.5,-412"/>
<polygon fill="#666666" stroke="#666666" points="135.5,-397 135.5,-397 150.5,-397 150.5,-397 135.5,-397"/>
<polygon fill="#666666" stroke="#666666" points="150.5,-397 150.5,-397 280.5,-397 280.5,-397 150.5,-397"/>
<polygon fill="none" stroke="#666666" points="135,-265 135,-429 280,-429 280,-265 135,-265"/>
</a>
</g>
</g>
<!-- Node1&#45;&gt;Node4 -->
<g id="edge3_Node000001_Node000004" class="edge">
<title>Node1&#45;&gt;Node4</title>
<g id="a_edge3_Node000001_Node000004"><a xlink:title=" ">
<path fill="none" stroke="#63b8ff" d="M738.16,-526.84C637.82,-524.48 364.91,-513.88 289.5,-468 273.55,-458.29 259.97,-444.17 248.72,-429"/>
<polygon fill="none" stroke="#63b8ff" points="738.34,-530.35 748.42,-527.07 738.5,-523.35 738.34,-530.35"/>
</a>
</g>
</g>
<!-- Node5 -->
<g id="Node000005" class="node">
<title>Node5</title>
<g id="a_Node000005"><a xlink:href="../../d9/df0/classCollisionBehavior.html" target="_top" xlink:title="Controlls collision of an object with other objects that also have this or a child component.">
<polygon fill="white" stroke="transparent" points="468.5,-468 298.5,-468 298.5,-226 468.5,-226 468.5,-468"/>
<text text-anchor="start" x="340.5" y="-456" font-family="Helvetica,sans-Serif" font-size="10.00">CollisionBehavior</text>
<text text-anchor="start" x="302.5" y="-441" font-family="Helvetica,sans-Serif" font-size="10.00">#</text>
<text text-anchor="start" x="315.5" y="-441" font-family="Helvetica,sans-Serif" font-size="10.00">std::shared_ptr&lt; Vector2</text>
<text text-anchor="start" x="315.5" y="-430" font-family="Helvetica,sans-Serif" font-size="10.00"> &gt; colliderSize</text>
<text text-anchor="start" x="302.5" y="-415" font-family="Helvetica,sans-Serif" font-size="10.00">+</text>
<text text-anchor="start" x="315.5" y="-415" font-family="Helvetica,sans-Serif" font-size="10.00">bool IsPointInsideCollider</text>
<text text-anchor="start" x="315.5" y="-404" font-family="Helvetica,sans-Serif" font-size="10.00">(Vector2 position)</text>
<text text-anchor="start" x="302.5" y="-389" font-family="Helvetica,sans-Serif" font-size="10.00">+</text>
<text text-anchor="start" x="315.5" y="-389" font-family="Helvetica,sans-Serif" font-size="10.00">void OnTick() override</text>
<text text-anchor="start" x="302.5" y="-374" font-family="Helvetica,sans-Serif" font-size="10.00">+</text>
<text text-anchor="start" x="315.5" y="-374" font-family="Helvetica,sans-Serif" font-size="10.00">void OnStart() override</text>
<text text-anchor="start" x="302.5" y="-359" font-family="Helvetica,sans-Serif" font-size="10.00">+</text>
<text text-anchor="start" x="315.5" y="-359" font-family="Helvetica,sans-Serif" font-size="10.00">const std::shared_ptr</text>
<text text-anchor="start" x="315.5" y="-348" font-family="Helvetica,sans-Serif" font-size="10.00">&lt; Vector2 &gt; getColliderSize()</text>
<text text-anchor="start" x="302.5" y="-333" font-family="Helvetica,sans-Serif" font-size="10.00">+</text>
<text text-anchor="start" x="315.5" y="-333" font-family="Helvetica,sans-Serif" font-size="10.00">virtual void BeforeCollision</text>
<text text-anchor="start" x="315.5" y="-322" font-family="Helvetica,sans-Serif" font-size="10.00">(std::shared_ptr&lt; GameObject</text>
<text text-anchor="start" x="315.5" y="-311" font-family="Helvetica,sans-Serif" font-size="10.00"> &gt; other)</text>
<text text-anchor="start" x="302.5" y="-296" font-family="Helvetica,sans-Serif" font-size="10.00">+</text>
<text text-anchor="start" x="315.5" y="-296" font-family="Helvetica,sans-Serif" font-size="10.00">CollisionBehavior()</text>
<text text-anchor="start" x="302.5" y="-281" font-family="Helvetica,sans-Serif" font-size="10.00">+</text>
<text text-anchor="start" x="315.5" y="-281" font-family="Helvetica,sans-Serif" font-size="10.00">CollisionBehavior</text>
<text text-anchor="start" x="315.5" y="-270" font-family="Helvetica,sans-Serif" font-size="10.00">(int x, int y)</text>
<text text-anchor="start" x="302.5" y="-255" font-family="Helvetica,sans-Serif" font-size="10.00">#</text>
<text text-anchor="start" x="315.5" y="-255" font-family="Helvetica,sans-Serif" font-size="10.00">bool CheckForCollision</text>
<text text-anchor="start" x="315.5" y="-244" font-family="Helvetica,sans-Serif" font-size="10.00">(std::shared_ptr&lt; GameObject</text>
<text text-anchor="start" x="315.5" y="-233" font-family="Helvetica,sans-Serif" font-size="10.00"> &gt; other)</text>
<polygon fill="#666666" stroke="#666666" points="298.5,-451 298.5,-451 468.5,-451 468.5,-451 298.5,-451"/>
<polygon fill="#666666" stroke="#666666" points="298.5,-425 298.5,-425 313.5,-425 313.5,-425 298.5,-425"/>
<polygon fill="#666666" stroke="#666666" points="313.5,-425 313.5,-425 468.5,-425 468.5,-425 313.5,-425"/>
<polygon fill="none" stroke="#666666" points="298.5,-226 298.5,-468 468.5,-468 468.5,-226 298.5,-226"/>
</a>
</g>
</g>
<!-- Node1&#45;&gt;Node5 -->
<g id="edge4_Node000001_Node000005" class="edge">
<title>Node1&#45;&gt;Node5</title>
<g id="a_edge4_Node000001_Node000005"><a xlink:title=" ">
<path fill="none" stroke="#63b8ff" d="M738.08,-528.11C678.5,-527.4 560.36,-519 477.5,-468 474.46,-466.13 471.47,-464.12 468.55,-461.99"/>
<polygon fill="none" stroke="#63b8ff" points="738.14,-531.61 748.15,-528.16 738.17,-524.61 738.14,-531.61"/>
</a>
</g>
</g>
<!-- Node9 -->
<g id="Node000009" class="node">
<title>Node9</title>
<g id="a_Node000009"><a xlink:href="../../d9/ddc/classEnemyBehavior.html" target="_top" xlink:title="Controlls the behavior of an Enemy.">
<polygon fill="white" stroke="transparent" points="620,-379 487,-379 487,-315 620,-315 620,-379"/>
<text text-anchor="start" x="515" y="-367" font-family="Helvetica,sans-Serif" font-size="10.00">EnemyBehavior</text>
<text text-anchor="start" x="552" y="-352" font-family="Helvetica,sans-Serif" font-size="10.00"> </text>
<text text-anchor="start" x="491.5" y="-337" font-family="Helvetica,sans-Serif" font-size="10.00">+</text>
<text text-anchor="start" x="504.5" y="-337" font-family="Helvetica,sans-Serif" font-size="10.00">void OnTick() override</text>
<text text-anchor="start" x="491.5" y="-322" font-family="Helvetica,sans-Serif" font-size="10.00">+</text>
<text text-anchor="start" x="504.5" y="-322" font-family="Helvetica,sans-Serif" font-size="10.00">void OnStart() override</text>
<polygon fill="#666666" stroke="#666666" points="487.5,-362 487.5,-362 620.5,-362 620.5,-362 487.5,-362"/>
<polygon fill="#666666" stroke="#666666" points="487.5,-347 487.5,-347 620.5,-347 620.5,-347 487.5,-347"/>
<polygon fill="none" stroke="#666666" points="487,-315 487,-379 620,-379 620,-315 487,-315"/>
</a>
</g>
</g>
<!-- Node1&#45;&gt;Node9 -->
<g id="edge8_Node000001_Node000009" class="edge">
<title>Node1&#45;&gt;Node9</title>
<g id="a_edge8_Node000001_Node000009"><a xlink:title=" ">
<path fill="none" stroke="#63b8ff" d="M738.62,-519.24C706.93,-510.67 661.42,-494.7 629.5,-468 600.65,-443.87 579.21,-405.91 566.58,-379.15"/>
<polygon fill="none" stroke="#63b8ff" points="737.83,-522.65 748.39,-521.77 739.58,-515.88 737.83,-522.65"/>
</a>
</g>
</g>
<!-- Node10 -->
<g id="Node000010" class="node">
<title>Node10</title>
<g id="a_Node000010"><a xlink:href="../../d1/d21/classGameManagerBehavior.html" target="_top" xlink:title="The base game manager behavior.">
<polygon fill="white" stroke="transparent" points="764.5,-390 638.5,-390 638.5,-304 764.5,-304 764.5,-390"/>
<text text-anchor="start" x="643.5" y="-378" font-family="Helvetica,sans-Serif" font-size="10.00">GameManagerBehavior</text>
<text text-anchor="start" x="699.5" y="-363" font-family="Helvetica,sans-Serif" font-size="10.00"> </text>
<text text-anchor="start" x="644.5" y="-348" font-family="Helvetica,sans-Serif" font-size="10.00">+</text>
<text text-anchor="start" x="659.5" y="-348" font-family="Helvetica,sans-Serif" font-size="10.00">virtual void OnTick</text>
<text text-anchor="start" x="659.5" y="-337" font-family="Helvetica,sans-Serif" font-size="10.00">() override</text>
<text text-anchor="start" x="644.5" y="-322" font-family="Helvetica,sans-Serif" font-size="10.00">+</text>
<text text-anchor="start" x="659.5" y="-322" font-family="Helvetica,sans-Serif" font-size="10.00">virtual void OnStart</text>
<text text-anchor="start" x="659.5" y="-311" font-family="Helvetica,sans-Serif" font-size="10.00">() override</text>
<polygon fill="#666666" stroke="#666666" points="638.5,-373 638.5,-373 764.5,-373 764.5,-373 638.5,-373"/>
<polygon fill="#666666" stroke="#666666" points="638.5,-358 638.5,-358 764.5,-358 764.5,-358 638.5,-358"/>
<polygon fill="none" stroke="#666666" points="638.5,-304 638.5,-390 764.5,-390 764.5,-304 638.5,-304"/>
</a>
</g>
</g>
<!-- Node1&#45;&gt;Node10 -->
<g id="edge9_Node000001_Node000010" class="edge">
<title>Node1&#45;&gt;Node10</title>
<g id="a_edge9_Node000001_Node000010"><a xlink:title=" ">
<path fill="none" stroke="#63b8ff" d="M761.8,-494.27C749.7,-464.91 731.99,-421.96 718.89,-390.19"/>
<polygon fill="none" stroke="#63b8ff" points="758.63,-495.75 765.67,-503.66 765.1,-493.08 758.63,-495.75"/>
</a>
</g>
</g>
<!-- Node11 -->
<g id="Node000011" class="node">
<title>Node11</title>
<g id="a_Node000011"><a xlink:href="../../d8/d05/classGravityBehavior.html" target="_top" xlink:title="Component that gives an object gravity.">
<polygon fill="white" stroke="transparent" points="916,-399.5 783,-399.5 783,-294.5 916,-294.5 916,-399.5"/>
<text text-anchor="start" x="810" y="-387" font-family="Helvetica,sans-Serif" font-size="10.00">GravityBehavior</text>
<text text-anchor="start" x="787.5" y="-372" font-family="Helvetica,sans-Serif" font-size="10.00">#</text>
<text text-anchor="start" x="800.5" y="-372" font-family="Helvetica,sans-Serif" font-size="10.00">float gravityScale</text>
<text text-anchor="start" x="787.5" y="-357" font-family="Helvetica,sans-Serif" font-size="10.00">+</text>
<text text-anchor="start" x="800.5" y="-357" font-family="Helvetica,sans-Serif" font-size="10.00">float getGravityScale()</text>
<text text-anchor="start" x="787.5" y="-342" font-family="Helvetica,sans-Serif" font-size="10.00">+</text>
<text text-anchor="start" x="800.5" y="-342" font-family="Helvetica,sans-Serif" font-size="10.00">void setGravityScale</text>
<text text-anchor="start" x="800.5" y="-331" font-family="Helvetica,sans-Serif" font-size="10.00">(float value)</text>
<text text-anchor="start" x="787.5" y="-316" font-family="Helvetica,sans-Serif" font-size="10.00">+</text>
<text text-anchor="start" x="800.5" y="-316" font-family="Helvetica,sans-Serif" font-size="10.00">void OnTick() override</text>
<text text-anchor="start" x="787.5" y="-301" font-family="Helvetica,sans-Serif" font-size="10.00">+</text>
<text text-anchor="start" x="800.5" y="-301" font-family="Helvetica,sans-Serif" font-size="10.00">void OnStart() override</text>
<polygon fill="#666666" stroke="#666666" points="783.5,-382 783.5,-382 916.5,-382 916.5,-382 783.5,-382"/>
<polygon fill="#666666" stroke="#666666" points="783.5,-367 783.5,-367 798.5,-367 798.5,-367 783.5,-367"/>
<polygon fill="#666666" stroke="#666666" points="798.5,-367 798.5,-367 916.5,-367 916.5,-367 798.5,-367"/>
<polygon fill="none" stroke="#666666" points="783,-294.5 783,-399.5 916,-399.5 916,-294.5 783,-294.5"/>
</a>
</g>
</g>
<!-- Node1&#45;&gt;Node11 -->
<g id="edge10_Node000001_Node000011" class="edge">
<title>Node1&#45;&gt;Node11</title>
<g id="a_edge10_Node000001_Node000011"><a xlink:title=" ">
<path fill="none" stroke="#63b8ff" d="M789.28,-494.07C800.22,-467.53 815.71,-429.97 828.24,-399.58"/>
<polygon fill="none" stroke="#63b8ff" points="785.9,-493.08 785.33,-503.66 792.37,-495.75 785.9,-493.08"/>
</a>
</g>
</g>
<!-- Node12 -->
<g id="Node000012" class="node">
<title>Node12</title>
<g id="a_Node000012"><a xlink:href="../../de/d47/classKeyboardHandlerBehavior.html" target="_top" xlink:title="An abstract class for handling keyboard inputs.">
<polygon fill="white" stroke="transparent" points="1091,-390 934,-390 934,-304 1091,-304 1091,-390"/>
<text text-anchor="start" x="949" y="-378" font-family="Helvetica,sans-Serif" font-size="10.00">KeyboardHandlerBehavior</text>
<text text-anchor="start" x="1011" y="-363" font-family="Helvetica,sans-Serif" font-size="10.00"> </text>
<text text-anchor="start" x="938.5" y="-348" font-family="Helvetica,sans-Serif" font-size="10.00">+</text>
<text text-anchor="start" x="951.5" y="-348" font-family="Helvetica,sans-Serif" font-size="10.00">virtual void OnKeyDown</text>
<text text-anchor="start" x="951.5" y="-337" font-family="Helvetica,sans-Serif" font-size="10.00">(SDL_KeyboardEvent &amp;e)=0</text>
<text text-anchor="start" x="938.5" y="-322" font-family="Helvetica,sans-Serif" font-size="10.00">+</text>
<text text-anchor="start" x="951.5" y="-322" font-family="Helvetica,sans-Serif" font-size="10.00">virtual void OnKeyUp</text>
<text text-anchor="start" x="951.5" y="-311" font-family="Helvetica,sans-Serif" font-size="10.00">(SDL_KeyboardEvent &amp;e)=0</text>
<polygon fill="#666666" stroke="#666666" points="934.5,-373 934.5,-373 1091.5,-373 1091.5,-373 934.5,-373"/>
<polygon fill="#666666" stroke="#666666" points="934.5,-358 934.5,-358 1091.5,-358 1091.5,-358 934.5,-358"/>
<polygon fill="none" stroke="#666666" points="934,-304 934,-390 1091,-390 1091,-304 934,-304"/>
</a>
</g>
</g>
<!-- Node1&#45;&gt;Node12 -->
<g id="edge11_Node000001_Node000012" class="edge">
<title>Node1&#45;&gt;Node12</title>
<g id="a_edge11_Node000001_Node000012"><a xlink:title=" ">
<path fill="none" stroke="#63b8ff" d="M812.41,-518.94C844.47,-510.14 890.92,-494.01 924.5,-468 951.56,-447.04 974.19,-415.63 989.71,-390.2"/>
<polygon fill="none" stroke="#63b8ff" points="811.31,-515.61 802.53,-521.54 813.1,-522.38 811.31,-515.61"/>
</a>
</g>
</g>
<!-- Node15 -->
<g id="Node000015" class="node">
<title>Node15</title>
<g id="a_Node000015"><a xlink:href="../../dd/df8/classKinematicBehavior.html" target="_top" xlink:title="Component causing the velocity of an object to update it&#39;s position.">
<polygon fill="white" stroke="transparent" points="1242,-379 1109,-379 1109,-315 1242,-315 1242,-379"/>
<text text-anchor="start" x="1129" y="-367" font-family="Helvetica,sans-Serif" font-size="10.00">KinematicBehavior</text>
<text text-anchor="start" x="1174" y="-352" font-family="Helvetica,sans-Serif" font-size="10.00"> </text>
<text text-anchor="start" x="1113.5" y="-337" font-family="Helvetica,sans-Serif" font-size="10.00">+</text>
<text text-anchor="start" x="1126.5" y="-337" font-family="Helvetica,sans-Serif" font-size="10.00">void OnTick() override</text>
<text text-anchor="start" x="1113.5" y="-322" font-family="Helvetica,sans-Serif" font-size="10.00">+</text>
<text text-anchor="start" x="1126.5" y="-322" font-family="Helvetica,sans-Serif" font-size="10.00">void OnStart() override</text>
<polygon fill="#666666" stroke="#666666" points="1109.5,-362 1109.5,-362 1242.5,-362 1242.5,-362 1109.5,-362"/>
<polygon fill="#666666" stroke="#666666" points="1109.5,-347 1109.5,-347 1242.5,-347 1242.5,-347 1109.5,-347"/>
<polygon fill="none" stroke="#666666" points="1109,-315 1109,-379 1242,-379 1242,-315 1109,-315"/>
</a>
</g>
</g>
<!-- Node1&#45;&gt;Node15 -->
<g id="edge14_Node000001_Node000015" class="edge">
<title>Node1&#45;&gt;Node15</title>
<g id="a_edge14_Node000001_Node000015"><a xlink:title=" ">
<path fill="none" stroke="#63b8ff" d="M813.05,-524.38C888.03,-517.56 1053.08,-499.34 1099.5,-468 1131.28,-446.54 1152.49,-406.88 1164.25,-379.04"/>
<polygon fill="none" stroke="#63b8ff" points="812.31,-520.93 802.66,-525.31 812.94,-527.91 812.31,-520.93"/>
</a>
</g>
</g>
<!-- Node16 -->
<g id="Node000016" class="node">
<title>Node16</title>
<g id="a_Node000016"><a xlink:href="../../d3/dc0/classPlayerBehavior.html" target="_top" xlink:title="The players basic behavior.">
<polygon fill="white" stroke="transparent" points="1415,-425.5 1260,-425.5 1260,-268.5 1415,-268.5 1415,-425.5"/>
<text text-anchor="start" x="1300.5" y="-413" font-family="Helvetica,sans-Serif" font-size="10.00">PlayerBehavior</text>
<text text-anchor="start" x="1264.5" y="-398" font-family="Helvetica,sans-Serif" font-size="10.00">#</text>
<text text-anchor="start" x="1277.5" y="-398" font-family="Helvetica,sans-Serif" font-size="10.00">unsigned int jumpPoints</text>
<text text-anchor="start" x="1264.5" y="-383" font-family="Helvetica,sans-Serif" font-size="10.00">#</text>
<text text-anchor="start" x="1277.5" y="-383" font-family="Helvetica,sans-Serif" font-size="10.00">const unsigned int</text>
<text text-anchor="start" x="1277.5" y="-372" font-family="Helvetica,sans-Serif" font-size="10.00"> defaultJumpPoints</text>
<text text-anchor="start" x="1264.5" y="-357" font-family="Helvetica,sans-Serif" font-size="10.00">+</text>
<text text-anchor="start" x="1277.5" y="-357" font-family="Helvetica,sans-Serif" font-size="10.00">unsigned int getJumpPoints</text>
<text text-anchor="start" x="1277.5" y="-346" font-family="Helvetica,sans-Serif" font-size="10.00">() const</text>
<text text-anchor="start" x="1264.5" y="-331" font-family="Helvetica,sans-Serif" font-size="10.00">+</text>
<text text-anchor="start" x="1277.5" y="-331" font-family="Helvetica,sans-Serif" font-size="10.00">void setJumpPoints</text>
<text text-anchor="start" x="1277.5" y="-320" font-family="Helvetica,sans-Serif" font-size="10.00">(unsigned int value)</text>
<text text-anchor="start" x="1264.5" y="-305" font-family="Helvetica,sans-Serif" font-size="10.00">+</text>
<text text-anchor="start" x="1277.5" y="-305" font-family="Helvetica,sans-Serif" font-size="10.00">void ResetJumpPoints()</text>
<text text-anchor="start" x="1264.5" y="-290" font-family="Helvetica,sans-Serif" font-size="10.00">+</text>
<text text-anchor="start" x="1277.5" y="-290" font-family="Helvetica,sans-Serif" font-size="10.00">void OnTick() override</text>
<text text-anchor="start" x="1264.5" y="-275" font-family="Helvetica,sans-Serif" font-size="10.00">+</text>
<text text-anchor="start" x="1277.5" y="-275" font-family="Helvetica,sans-Serif" font-size="10.00">void OnStart() override</text>
<polygon fill="#666666" stroke="#666666" points="1260.5,-408 1260.5,-408 1415.5,-408 1415.5,-408 1260.5,-408"/>
<polygon fill="#666666" stroke="#666666" points="1260.5,-367 1260.5,-367 1275.5,-367 1275.5,-367 1260.5,-367"/>
<polygon fill="#666666" stroke="#666666" points="1275.5,-367 1275.5,-367 1415.5,-367 1415.5,-367 1275.5,-367"/>
<polygon fill="none" stroke="#666666" points="1260,-268.5 1260,-425.5 1415,-425.5 1415,-268.5 1260,-268.5"/>
</a>
</g>
</g>
<!-- Node1&#45;&gt;Node16 -->
<g id="edge15_Node000001_Node000016" class="edge">
<title>Node1&#45;&gt;Node16</title>
<g id="a_edge15_Node000001_Node000016"><a xlink:title=" ">
<path fill="none" stroke="#63b8ff" d="M812.62,-526.62C911.08,-523.69 1176.39,-511.83 1250.5,-468 1268.11,-457.59 1283.17,-442.07 1295.57,-425.62"/>
<polygon fill="none" stroke="#63b8ff" points="812.44,-523.12 802.54,-526.9 812.64,-530.12 812.44,-523.12"/>
</a>
</g>
</g>
<!-- Node17 -->
<g id="Node000017" class="node">
<title>Node17</title>
<g id="a_Node000017"><a xlink:href="../../db/d44/classScoreCounterBehavior.html" target="_top" xlink:title="Controlls the behavior of the score counter.">
<polygon fill="white" stroke="transparent" points="1552,-390 1433,-390 1433,-304 1552,-304 1552,-390"/>
<text text-anchor="start" x="1438.5" y="-378" font-family="Helvetica,sans-Serif" font-size="10.00">ScoreCounterBehavior</text>
<text text-anchor="start" x="1491" y="-363" font-family="Helvetica,sans-Serif" font-size="10.00"> </text>
<text text-anchor="start" x="1438" y="-348" font-family="Helvetica,sans-Serif" font-size="10.00">+</text>
<text text-anchor="start" x="1451.5" y="-348" font-family="Helvetica,sans-Serif" font-size="10.00">virtual void OnTick</text>
<text text-anchor="start" x="1451.5" y="-337" font-family="Helvetica,sans-Serif" font-size="10.00">() override</text>
<text text-anchor="start" x="1438" y="-322" font-family="Helvetica,sans-Serif" font-size="10.00">+</text>
<text text-anchor="start" x="1451.5" y="-322" font-family="Helvetica,sans-Serif" font-size="10.00">virtual void OnStart</text>
<text text-anchor="start" x="1451.5" y="-311" font-family="Helvetica,sans-Serif" font-size="10.00">() override</text>
<polygon fill="#666666" stroke="#666666" points="1433.5,-373 1433.5,-373 1552.5,-373 1552.5,-373 1433.5,-373"/>
<polygon fill="#666666" stroke="#666666" points="1433.5,-358 1433.5,-358 1552.5,-358 1552.5,-358 1433.5,-358"/>
<polygon fill="none" stroke="#666666" points="1433,-304 1433,-390 1552,-390 1552,-304 1433,-304"/>
</a>
</g>
</g>
<!-- Node1&#45;&gt;Node17 -->
<g id="edge16_Node000001_Node000017" class="edge">
<title>Node1&#45;&gt;Node17</title>
<g id="a_edge16_Node000001_Node000017"><a xlink:title=" ">
<path fill="none" stroke="#63b8ff" d="M813.06,-526.06C943.53,-520.77 1371.99,-501.03 1423.5,-468 1451.21,-450.23 1469.03,-417.11 1479.6,-390.16"/>
<polygon fill="none" stroke="#63b8ff" points="812.63,-522.57 802.77,-526.47 812.91,-529.57 812.63,-522.57"/>
</a>
</g>
</g>
<!-- Node2 -->
<g id="Node000002" class="node">
<title>Node2</title>
<g id="a_Node000002"><a xlink:href="../../d9/df7/classGameObjectComponent.html" target="_top" xlink:title="An abstract gameobject component.">
<polygon fill="white" stroke="transparent" points="870,-750 681,-750 681,-589 870,-589 870,-750"/>
<text text-anchor="start" x="717" y="-737.5" font-family="Helvetica,sans-Serif" font-size="10.00">GameObjectComponent</text>
<text text-anchor="start" x="685.5" y="-722.5" font-family="Helvetica,sans-Serif" font-size="10.00">#</text>
<text text-anchor="start" x="698.5" y="-722.5" font-family="Helvetica,sans-Serif" font-size="10.00">bool enabled</text>
<text text-anchor="start" x="685.5" y="-707.5" font-family="Helvetica,sans-Serif" font-size="10.00">#</text>
<text text-anchor="start" x="698.5" y="-707.5" font-family="Helvetica,sans-Serif" font-size="10.00">GameObject * parent</text>
<text text-anchor="start" x="685.5" y="-692.5" font-family="Helvetica,sans-Serif" font-size="10.00">+</text>
<text text-anchor="start" x="698.5" y="-692.5" font-family="Helvetica,sans-Serif" font-size="10.00">bool getEnabled() const</text>
<text text-anchor="start" x="685.5" y="-677.5" font-family="Helvetica,sans-Serif" font-size="10.00">+</text>
<text text-anchor="start" x="698.5" y="-677.5" font-family="Helvetica,sans-Serif" font-size="10.00">void setEnabled(bool</text>
<text text-anchor="start" x="698.5" y="-666.5" font-family="Helvetica,sans-Serif" font-size="10.00"> value)</text>
<text text-anchor="start" x="685.5" y="-651.5" font-family="Helvetica,sans-Serif" font-size="10.00">+</text>
<text text-anchor="start" x="698.5" y="-651.5" font-family="Helvetica,sans-Serif" font-size="10.00">void setParent(GameObject</text>
<text text-anchor="start" x="698.5" y="-640.5" font-family="Helvetica,sans-Serif" font-size="10.00"> *value)</text>
<text text-anchor="start" x="685.5" y="-625.5" font-family="Helvetica,sans-Serif" font-size="10.00">+</text>
<text text-anchor="start" x="698.5" y="-625.5" font-family="Helvetica,sans-Serif" font-size="10.00">virtual ~GameObjectComponent()</text>
<text text-anchor="start" x="685.5" y="-610.5" font-family="Helvetica,sans-Serif" font-size="10.00">+</text>
<text text-anchor="start" x="698.5" y="-610.5" font-family="Helvetica,sans-Serif" font-size="10.00">virtual void OnTick()=0</text>
<text text-anchor="start" x="685.5" y="-595.5" font-family="Helvetica,sans-Serif" font-size="10.00">+</text>
<text text-anchor="start" x="698.5" y="-595.5" font-family="Helvetica,sans-Serif" font-size="10.00">virtual void OnStart()=0</text>
<polygon fill="#666666" stroke="#666666" points="681.5,-732.5 681.5,-732.5 870.5,-732.5 870.5,-732.5 681.5,-732.5"/>
<polygon fill="#666666" stroke="#666666" points="681.5,-702.5 681.5,-702.5 696.5,-702.5 696.5,-702.5 681.5,-702.5"/>
<polygon fill="#666666" stroke="#666666" points="696.5,-702.5 696.5,-702.5 870.5,-702.5 870.5,-702.5 696.5,-702.5"/>
<polygon fill="none" stroke="#666666" points="681,-589 681,-750 870,-750 870,-589 681,-589"/>
</a>
</g>
</g>
<!-- Node2&#45;&gt;Node1 -->
<g id="edge1_Node000001_Node000002" class="edge">
<title>Node2&#45;&gt;Node1</title>
<g id="a_edge1_Node000001_Node000002"><a xlink:title=" ">
<path fill="none" stroke="#63b8ff" d="M775.5,-578.64C775.5,-569.4 775.5,-560.68 775.5,-553.22"/>
<polygon fill="none" stroke="#63b8ff" points="772,-578.85 775.5,-588.85 779,-578.85 772,-578.85"/>
</a>
</g>
</g>
<!-- Node6 -->
<g id="Node000006" class="node">
<title>Node6</title>
<g id="a_Node000006"><a xlink:href="../../dd/dcf/classCoffeeCollisionBehavior.html" target="_top" xlink:title="Controlls the behavior of a coffee on collision.">
<polygon fill="white" stroke="transparent" points="280.5,-158.5 110.5,-158.5 110.5,-31.5 280.5,-31.5 280.5,-158.5"/>
<text text-anchor="start" x="136.5" y="-146" font-family="Helvetica,sans-Serif" font-size="10.00">CoffeeCollisionBehavior</text>
<text text-anchor="start" x="193.5" y="-131" font-family="Helvetica,sans-Serif" font-size="10.00"> </text>
<text text-anchor="start" x="114.5" y="-116" font-family="Helvetica,sans-Serif" font-size="10.00">+</text>
<text text-anchor="start" x="127.5" y="-116" font-family="Helvetica,sans-Serif" font-size="10.00">CoffeeCollisionBehavior()</text>
<text text-anchor="start" x="114.5" y="-101" font-family="Helvetica,sans-Serif" font-size="10.00">+</text>
<text text-anchor="start" x="127.5" y="-101" font-family="Helvetica,sans-Serif" font-size="10.00">CoffeeCollisionBehavior</text>
<text text-anchor="start" x="127.5" y="-90" font-family="Helvetica,sans-Serif" font-size="10.00">(int x, int y)</text>
<text text-anchor="start" x="114.5" y="-75" font-family="Helvetica,sans-Serif" font-size="10.00">+</text>
<text text-anchor="start" x="127.5" y="-75" font-family="Helvetica,sans-Serif" font-size="10.00">~CoffeeCollisionBehavior()</text>
<text text-anchor="start" x="114.5" y="-60" font-family="Helvetica,sans-Serif" font-size="10.00">+</text>
<text text-anchor="start" x="127.5" y="-60" font-family="Helvetica,sans-Serif" font-size="10.00">virtual void BeforeCollision</text>
<text text-anchor="start" x="127.5" y="-49" font-family="Helvetica,sans-Serif" font-size="10.00">(std::shared_ptr&lt; GameObject</text>
<text text-anchor="start" x="127.5" y="-38" font-family="Helvetica,sans-Serif" font-size="10.00"> &gt; other) override</text>
<polygon fill="#666666" stroke="#666666" points="110.5,-141 110.5,-141 280.5,-141 280.5,-141 110.5,-141"/>
<polygon fill="#666666" stroke="#666666" points="110.5,-126 110.5,-126 280.5,-126 280.5,-126 110.5,-126"/>
<polygon fill="none" stroke="#666666" points="110.5,-31.5 110.5,-158.5 280.5,-158.5 280.5,-31.5 110.5,-31.5"/>
</a>
</g>
</g>
<!-- Node5&#45;&gt;Node6 -->
<g id="edge5_Node000005_Node000006" class="edge">
<title>Node5&#45;&gt;Node6</title>
<g id="a_edge5_Node000005_Node000006"><a xlink:title=" ">
<path fill="none" stroke="#63b8ff" d="M292.23,-224.63C275.05,-201.79 257.75,-178.78 242.62,-158.66"/>
<polygon fill="none" stroke="#63b8ff" points="289.49,-226.81 298.3,-232.7 295.09,-222.61 289.49,-226.81"/>
</a>
</g>
</g>
<!-- Node7 -->
<g id="Node000007" class="node">
<title>Node7</title>
<g id="a_Node000007"><a xlink:href="../../d1/d1b/classEnemyCollisionBehavior.html" target="_top" xlink:title="Controlls the behavior of an enemy on collision.">
<polygon fill="white" stroke="transparent" points="468.5,-151 298.5,-151 298.5,-39 468.5,-39 468.5,-151"/>
<text text-anchor="start" x="323.5" y="-139" font-family="Helvetica,sans-Serif" font-size="10.00">EnemyCollisionBehavior</text>
<text text-anchor="start" x="381.5" y="-124" font-family="Helvetica,sans-Serif" font-size="10.00"> </text>
<text text-anchor="start" x="302.5" y="-109" font-family="Helvetica,sans-Serif" font-size="10.00">+</text>
<text text-anchor="start" x="315.5" y="-109" font-family="Helvetica,sans-Serif" font-size="10.00">EnemyCollisionBehavior()</text>
<text text-anchor="start" x="302.5" y="-94" font-family="Helvetica,sans-Serif" font-size="10.00">+</text>
<text text-anchor="start" x="315.5" y="-94" font-family="Helvetica,sans-Serif" font-size="10.00">EnemyCollisionBehavior</text>
<text text-anchor="start" x="315.5" y="-83" font-family="Helvetica,sans-Serif" font-size="10.00">(int x, int y)</text>
<text text-anchor="start" x="302.5" y="-68" font-family="Helvetica,sans-Serif" font-size="10.00">+</text>
<text text-anchor="start" x="315.5" y="-68" font-family="Helvetica,sans-Serif" font-size="10.00">virtual void BeforeCollision</text>
<text text-anchor="start" x="315.5" y="-57" font-family="Helvetica,sans-Serif" font-size="10.00">(std::shared_ptr&lt; GameObject</text>
<text text-anchor="start" x="315.5" y="-46" font-family="Helvetica,sans-Serif" font-size="10.00"> &gt; other) override</text>
<polygon fill="#666666" stroke="#666666" points="298.5,-134 298.5,-134 468.5,-134 468.5,-134 298.5,-134"/>
<polygon fill="#666666" stroke="#666666" points="298.5,-119 298.5,-119 468.5,-119 468.5,-119 298.5,-119"/>
<polygon fill="none" stroke="#666666" points="298.5,-39 298.5,-151 468.5,-151 468.5,-39 298.5,-39"/>
</a>
</g>
</g>
<!-- Node5&#45;&gt;Node7 -->
<g id="edge6_Node000005_Node000007" class="edge">
<title>Node5&#45;&gt;Node7</title>
<g id="a_edge6_Node000005_Node000007"><a xlink:title=" ">
<path fill="none" stroke="#63b8ff" d="M383.5,-215.65C383.5,-192.88 383.5,-170.34 383.5,-151.08"/>
<polygon fill="none" stroke="#63b8ff" points="380,-215.76 383.5,-225.76 387,-215.76 380,-215.76"/>
</a>
</g>
</g>
<!-- Node8 -->
<g id="Node000008" class="node">
<title>Node8</title>
<g id="a_Node000008"><a xlink:href="../../d0/d31/classPlayerCollisionBehavior.html" target="_top" xlink:title="The players collision behavior.">
<polygon fill="white" stroke="transparent" points="656.5,-151 486.5,-151 486.5,-39 656.5,-39 656.5,-151"/>
<text text-anchor="start" x="513" y="-139" font-family="Helvetica,sans-Serif" font-size="10.00">PlayerCollisionBehavior</text>
<text text-anchor="start" x="569.5" y="-124" font-family="Helvetica,sans-Serif" font-size="10.00"> </text>
<text text-anchor="start" x="490.5" y="-109" font-family="Helvetica,sans-Serif" font-size="10.00">+</text>
<text text-anchor="start" x="503.5" y="-109" font-family="Helvetica,sans-Serif" font-size="10.00">PlayerCollisionBehavior()</text>
<text text-anchor="start" x="490.5" y="-94" font-family="Helvetica,sans-Serif" font-size="10.00">+</text>
<text text-anchor="start" x="503.5" y="-94" font-family="Helvetica,sans-Serif" font-size="10.00">PlayerCollisionBehavior</text>
<text text-anchor="start" x="503.5" y="-83" font-family="Helvetica,sans-Serif" font-size="10.00">(int x, int y)</text>
<text text-anchor="start" x="490.5" y="-68" font-family="Helvetica,sans-Serif" font-size="10.00">+</text>
<text text-anchor="start" x="503.5" y="-68" font-family="Helvetica,sans-Serif" font-size="10.00">virtual void BeforeCollision</text>
<text text-anchor="start" x="503.5" y="-57" font-family="Helvetica,sans-Serif" font-size="10.00">(std::shared_ptr&lt; GameObject</text>
<text text-anchor="start" x="503.5" y="-46" font-family="Helvetica,sans-Serif" font-size="10.00"> &gt; other) override</text>
<polygon fill="#666666" stroke="#666666" points="486.5,-134 486.5,-134 656.5,-134 656.5,-134 486.5,-134"/>
<polygon fill="#666666" stroke="#666666" points="486.5,-119 486.5,-119 656.5,-119 656.5,-119 486.5,-119"/>
<polygon fill="none" stroke="#666666" points="486.5,-39 486.5,-151 656.5,-151 656.5,-39 486.5,-39"/>
</a>
</g>
</g>
<!-- Node5&#45;&gt;Node8 -->
<g id="edge7_Node000005_Node000008" class="edge">
<title>Node5&#45;&gt;Node8</title>
<g id="a_edge7_Node000005_Node000008"><a xlink:title=" ">
<path fill="none" stroke="#63b8ff" d="M474.95,-224.4C494.21,-198.77 513.62,-172.96 529.94,-151.27"/>
<polygon fill="none" stroke="#63b8ff" points="471.91,-222.61 468.7,-232.7 477.51,-226.81 471.91,-222.61"/>
</a>
</g>
</g>
<!-- Node13 -->
<g id="Node000013" class="node">
<title>Node13</title>
<g id="a_Node000013"><a xlink:href="../../d3/d2e/classGameManagerKeyboardBehavior.html" target="_top" xlink:title="The game managers keyboard handler for general handling.">
<polygon fill="white" stroke="transparent" points="1014,-190 815,-190 815,0 1014,0 1014,-190"/>
<text text-anchor="start" x="834" y="-178" font-family="Helvetica,sans-Serif" font-size="10.00">GameManagerKeyboardBehavior</text>
<text text-anchor="start" x="913" y="-163" font-family="Helvetica,sans-Serif" font-size="10.00"> </text>
<text text-anchor="start" x="819.5" y="-148" font-family="Helvetica,sans-Serif" font-size="10.00">+</text>
<text text-anchor="start" x="832.5" y="-148" font-family="Helvetica,sans-Serif" font-size="10.00">GameManagerKeyboardBehavior()</text>
<text text-anchor="start" x="819.5" y="-133" font-family="Helvetica,sans-Serif" font-size="10.00">+</text>
<text text-anchor="start" x="832.5" y="-133" font-family="Helvetica,sans-Serif" font-size="10.00">~GameManagerKeyboardBehavior()</text>
<text text-anchor="start" x="819.5" y="-118" font-family="Helvetica,sans-Serif" font-size="10.00">+</text>
<text text-anchor="start" x="832.5" y="-118" font-family="Helvetica,sans-Serif" font-size="10.00">virtual void OnKeyDown</text>
<text text-anchor="start" x="832.5" y="-107" font-family="Helvetica,sans-Serif" font-size="10.00">(SDL_KeyboardEvent &amp;e)</text>
<text text-anchor="start" x="832.5" y="-96" font-family="Helvetica,sans-Serif" font-size="10.00"> override</text>
<text text-anchor="start" x="819.5" y="-81" font-family="Helvetica,sans-Serif" font-size="10.00">+</text>
<text text-anchor="start" x="832.5" y="-81" font-family="Helvetica,sans-Serif" font-size="10.00">virtual void OnKeyUp</text>
<text text-anchor="start" x="832.5" y="-70" font-family="Helvetica,sans-Serif" font-size="10.00">(SDL_KeyboardEvent &amp;e)</text>
<text text-anchor="start" x="832.5" y="-59" font-family="Helvetica,sans-Serif" font-size="10.00"> override</text>
<text text-anchor="start" x="819.5" y="-44" font-family="Helvetica,sans-Serif" font-size="10.00">+</text>
<text text-anchor="start" x="832.5" y="-44" font-family="Helvetica,sans-Serif" font-size="10.00">virtual void OnTick</text>
<text text-anchor="start" x="832.5" y="-33" font-family="Helvetica,sans-Serif" font-size="10.00">() override</text>
<text text-anchor="start" x="819.5" y="-18" font-family="Helvetica,sans-Serif" font-size="10.00">+</text>
<text text-anchor="start" x="832.5" y="-18" font-family="Helvetica,sans-Serif" font-size="10.00">virtual void OnStart</text>
<text text-anchor="start" x="832.5" y="-7" font-family="Helvetica,sans-Serif" font-size="10.00">() override</text>
<polygon fill="#666666" stroke="#666666" points="815.5,-173 815.5,-173 1014.5,-173 1014.5,-173 815.5,-173"/>
<polygon fill="#666666" stroke="#666666" points="815.5,-158 815.5,-158 1014.5,-158 1014.5,-158 815.5,-158"/>
<polygon fill="none" stroke="#666666" points="815,0 815,-190 1014,-190 1014,0 815,0"/>
</a>
</g>
</g>
<!-- Node12&#45;&gt;Node13 -->
<g id="edge12_Node000012_Node000013" class="edge">
<title>Node12&#45;&gt;Node13</title>
<g id="a_edge12_Node000012_Node000013"><a xlink:title=" ">
<path fill="none" stroke="#63b8ff" d="M992.29,-294.44C980.51,-264.4 965.3,-225.58 951.45,-190.26"/>
<polygon fill="none" stroke="#63b8ff" points="989.08,-295.84 995.99,-303.87 995.6,-293.29 989.08,-295.84"/>
</a>
</g>
</g>
<!-- Node14 -->
<g id="Node000014" class="node">
<title>Node14</title>
<g id="a_Node000014"><a xlink:href="../../d9/d2c/classPlayerKeyboardBehavior.html" target="_top" xlink:title="The keyboard handler for the player.">
<polygon fill="white" stroke="transparent" points="1189,-190 1032,-190 1032,0 1189,0 1189,-190"/>
<text text-anchor="start" x="1050.5" y="-178" font-family="Helvetica,sans-Serif" font-size="10.00">PlayerKeyboardBehavior</text>
<text text-anchor="start" x="1109" y="-163" font-family="Helvetica,sans-Serif" font-size="10.00"> </text>
<text text-anchor="start" x="1036.5" y="-148" font-family="Helvetica,sans-Serif" font-size="10.00">+</text>
<text text-anchor="start" x="1049.5" y="-148" font-family="Helvetica,sans-Serif" font-size="10.00">PlayerKeyboardBehavior()</text>
<text text-anchor="start" x="1036.5" y="-133" font-family="Helvetica,sans-Serif" font-size="10.00">+</text>
<text text-anchor="start" x="1049.5" y="-133" font-family="Helvetica,sans-Serif" font-size="10.00">~PlayerKeyboardBehavior()</text>
<text text-anchor="start" x="1036.5" y="-118" font-family="Helvetica,sans-Serif" font-size="10.00">+</text>
<text text-anchor="start" x="1049.5" y="-118" font-family="Helvetica,sans-Serif" font-size="10.00">virtual void OnKeyDown</text>
<text text-anchor="start" x="1049.5" y="-107" font-family="Helvetica,sans-Serif" font-size="10.00">(SDL_KeyboardEvent &amp;e)</text>
<text text-anchor="start" x="1049.5" y="-96" font-family="Helvetica,sans-Serif" font-size="10.00"> override</text>
<text text-anchor="start" x="1036.5" y="-81" font-family="Helvetica,sans-Serif" font-size="10.00">+</text>
<text text-anchor="start" x="1049.5" y="-81" font-family="Helvetica,sans-Serif" font-size="10.00">virtual void OnKeyUp</text>
<text text-anchor="start" x="1049.5" y="-70" font-family="Helvetica,sans-Serif" font-size="10.00">(SDL_KeyboardEvent &amp;e)</text>
<text text-anchor="start" x="1049.5" y="-59" font-family="Helvetica,sans-Serif" font-size="10.00"> override</text>
<text text-anchor="start" x="1036.5" y="-44" font-family="Helvetica,sans-Serif" font-size="10.00">+</text>
<text text-anchor="start" x="1049.5" y="-44" font-family="Helvetica,sans-Serif" font-size="10.00">virtual void OnTick</text>
<text text-anchor="start" x="1049.5" y="-33" font-family="Helvetica,sans-Serif" font-size="10.00">() override</text>
<text text-anchor="start" x="1036.5" y="-18" font-family="Helvetica,sans-Serif" font-size="10.00">+</text>
<text text-anchor="start" x="1049.5" y="-18" font-family="Helvetica,sans-Serif" font-size="10.00">virtual void OnStart</text>
<text text-anchor="start" x="1049.5" y="-7" font-family="Helvetica,sans-Serif" font-size="10.00">() override</text>
<polygon fill="#666666" stroke="#666666" points="1032.5,-173 1032.5,-173 1189.5,-173 1189.5,-173 1032.5,-173"/>
<polygon fill="#666666" stroke="#666666" points="1032.5,-158 1032.5,-158 1189.5,-158 1189.5,-158 1032.5,-158"/>
<polygon fill="none" stroke="#666666" points="1032,0 1032,-190 1189,-190 1189,0 1032,0"/>
</a>
</g>
</g>
<!-- Node12&#45;&gt;Node14 -->
<g id="edge13_Node000012_Node000014" class="edge">
<title>Node12&#45;&gt;Node14</title>
<g id="a_edge13_Node000012_Node000014"><a xlink:title=" ">
<path fill="none" stroke="#63b8ff" d="M1032.71,-294.44C1044.49,-264.4 1059.7,-225.58 1073.55,-190.26"/>
<polygon fill="none" stroke="#63b8ff" points="1029.4,-293.29 1029.01,-303.87 1035.92,-295.84 1029.4,-293.29"/>
</a>
</g>
</g>
</g>
</svg>
