<?xml version="1.0" encoding="UTF-8" standalone="no"?>
<!DOCTYPE svg PUBLIC "-//W3C//DTD SVG 1.1//EN"
 "http://www.w3.org/Graphics/SVG/1.1/DTD/svg11.dtd">
<!-- Generated by graphviz version 2.43.0 (0)
 -->
<!-- Title: Behavior Pages: 1 -->
<svg width="1656pt" height="803pt"
 viewBox="0.00 0.00 1656.00 803.00" xmlns="http://www.w3.org/2000/svg" xmlns:xlink="http://www.w3.org/1999/xlink">
<g id="graph0" class="graph" transform="scale(1 1) rotate(0) translate(4 799)">
<title>Behavior</title>
<!-- Node1 -->
<g id="Node000001" class="node">
<title>Node1</title>
<g id="a_Node000001"><a xlink:title="An abstract gameobject behavior.">
<polygon fill="#999999" stroke="transparent" points="835.5,-598 781.5,-598 781.5,-549 835.5,-549 835.5,-598"/>
<text text-anchor="start" x="786.5" y="-585.5" font-family="Helvetica,sans-Serif" font-size="10.00">Behavior</text>
<text text-anchor="start" x="806.5" y="-570.5" font-family="Helvetica,sans-Serif" font-size="10.00"> </text>
<text text-anchor="start" x="806.5" y="-555.5" font-family="Helvetica,sans-Serif" font-size="10.00"> </text>
<polygon fill="#666666" stroke="#666666" points="781.5,-580.5 781.5,-580.5 835.5,-580.5 835.5,-580.5 781.5,-580.5"/>
<polygon fill="#666666" stroke="#666666" points="781.5,-565.5 781.5,-565.5 835.5,-565.5 835.5,-565.5 781.5,-565.5"/>
<polygon fill="none" stroke="#666666" points="781.5,-549 781.5,-598 835.5,-598 835.5,-549 781.5,-549"/>
</a>
</g>
</g>
<!-- Node3 -->
<g id="Node000003" class="node">
<title>Node3</title>
<g id="a_Node000003"><a xlink:href="../../d1/d43/classCoffeeBehavior.html" target="_top" xlink:title="Controlls the behavior of a coffee.">
<polygon fill="white" stroke="transparent" points="117,-435 0,-435 0,-349 117,-349 117,-435"/>
<text text-anchor="start" x="21" y="-423" font-family="Helvetica,sans-Serif" font-size="10.00">CoffeeBehavior</text>
<text text-anchor="start" x="57" y="-408" font-family="Helvetica,sans-Serif" font-size="10.00"> </text>
<text text-anchor="start" x="4.5" y="-393" font-family="Helvetica,sans-Serif" font-size="10.00">+</text>
<text text-anchor="start" x="17.5" y="-393" font-family="Helvetica,sans-Serif" font-size="10.00">virtual void OnTick</text>
<text text-anchor="start" x="17.5" y="-382" font-family="Helvetica,sans-Serif" font-size="10.00">() override</text>
<text text-anchor="start" x="4.5" y="-367" font-family="Helvetica,sans-Serif" font-size="10.00">+</text>
<text text-anchor="start" x="17.5" y="-367" font-family="Helvetica,sans-Serif" font-size="10.00">virtual void OnStart</text>
<text text-anchor="start" x="17.5" y="-356" font-family="Helvetica,sans-Serif" font-size="10.00">() override</text>
<polygon fill="#666666" stroke="#666666" points="0.5,-418 0.5,-418 117.5,-418 117.5,-418 0.5,-418"/>
<polygon fill="#666666" stroke="#666666" points="0.5,-403 0.5,-403 117.5,-403 117.5,-403 0.5,-403"/>
<polygon fill="none" stroke="#666666" points="0,-349 0,-435 117,-435 117,-349 0,-349"/>
</a>
</g>
</g>
<!-- Node1&#45;&gt;Node3 -->
<g id="edge2_Node000001_Node000003" class="edge">
<title>Node1&#45;&gt;Node3</title>
<g id="a_edge2_Node000001_Node000003"><a xlink:title=" ">
<path fill="none" stroke="#63b8ff" d="M771.14,-571.28C636.33,-566.58 179.93,-548.21 125.5,-513 98.05,-495.24 80.8,-462.12 70.68,-435.17"/>
<polygon fill="none" stroke="#63b8ff" points="771.26,-574.78 781.37,-571.63 771.5,-567.79 771.26,-574.78"/>
</a>
</g>
</g>
<!-- Node4 -->
<g id="Node000004" class="node">
<title>Node4</title>
<g id="a_Node000004"><a xlink:href="../../d4/dd8/classCoffeeMeterBehavior.html" target="_top" xlink:title="Controlls the behavior of the coffee meter.">
<polygon fill="white" stroke="transparent" points="280,-474 135,-474 135,-310 280,-310 280,-474"/>
<text text-anchor="start" x="156" y="-462" font-family="Helvetica,sans-Serif" font-size="10.00">CoffeeMeterBehavior</text>
<text text-anchor="start" x="139.5" y="-447" font-family="Helvetica,sans-Serif" font-size="10.00">#</text>
<text text-anchor="start" x="152.5" y="-447" font-family="Helvetica,sans-Serif" font-size="10.00">float coffeeLevel</text>
<text text-anchor="start" x="139.5" y="-432" font-family="Helvetica,sans-Serif" font-size="10.00">+</text>
<text text-anchor="start" x="152.5" y="-432" font-family="Helvetica,sans-Serif" font-size="10.00">float getCoffeeLevel</text>
<text text-anchor="start" x="152.5" y="-421" font-family="Helvetica,sans-Serif" font-size="10.00">() const</text>
<text text-anchor="start" x="139.5" y="-406" font-family="Helvetica,sans-Serif" font-size="10.00">+</text>
<text text-anchor="start" x="152.5" y="-406" font-family="Helvetica,sans-Serif" font-size="10.00">void setCoffeeLevel</text>
<text text-anchor="start" x="152.5" y="-395" font-family="Helvetica,sans-Serif" font-size="10.00">(float value)</text>
<text text-anchor="start" x="139.5" y="-380" font-family="Helvetica,sans-Serif" font-size="10.00">+</text>
<text text-anchor="start" x="152.5" y="-380" font-family="Helvetica,sans-Serif" font-size="10.00">void IncreaseCoffeeLevel</text>
<text text-anchor="start" x="152.5" y="-369" font-family="Helvetica,sans-Serif" font-size="10.00">(float amount)</text>
<text text-anchor="start" x="139.5" y="-354" font-family="Helvetica,sans-Serif" font-size="10.00">+</text>
<text text-anchor="start" x="152.5" y="-354" font-family="Helvetica,sans-Serif" font-size="10.00">virtual void OnTick</text>
<text text-anchor="start" x="152.5" y="-343" font-family="Helvetica,sans-Serif" font-size="10.00">() override</text>
<text text-anchor="start" x="139.5" y="-328" font-family="Helvetica,sans-Serif" font-size="10.00">+</text>
<text text-anchor="start" x="152.5" y="-328" font-family="Helvetica,sans-Serif" font-size="10.00">virtual void OnStart</text>
<text text-anchor="start" x="152.5" y="-317" font-family="Helvetica,sans-Serif" font-size="10.00">() override</text>
<polygon fill="#666666" stroke="#666666" points="135.5,-457 135.5,-457 280.5,-457 280.5,-457 135.5,-457"/>
<polygon fill="#666666" stroke="#666666" points="135.5,-442 135.5,-442 150.5,-442 150.5,-442 135.5,-442"/>
<polygon fill="#666666" stroke="#666666" points="150.5,-442 150.5,-442 280.5,-442 280.5,-442 150.5,-442"/>
<polygon fill="none" stroke="#666666" points="135,-310 135,-474 280,-474 280,-310 135,-310"/>
</a>
</g>
</g>
<!-- Node1&#45;&gt;Node4 -->
<g id="edge3_Node000001_Node000004" class="edge">
<title>Node1&#45;&gt;Node4</title>
<g id="a_edge3_Node000001_Node000004"><a xlink:title=" ">
<path fill="none" stroke="#63b8ff" d="M771.12,-572.18C666.1,-570.66 370.78,-562.02 289.5,-513 273.51,-503.36 259.91,-489.26 248.66,-474.09"/>
<polygon fill="none" stroke="#63b8ff" points="771.2,-575.68 781.25,-572.31 771.3,-568.68 771.2,-575.68"/>
</a>
</g>
</g>
<!-- Node5 -->
<g id="Node000005" class="node">
<title>Node5</title>
<g id="a_Node000005"><a xlink:href="../../d9/df0/classCollisionBehavior.html" target="_top" xlink:title="Controlls collision of an object with other objects that also have this or a child component.">
<polygon fill="white" stroke="transparent" points="468.5,-513 298.5,-513 298.5,-271 468.5,-271 468.5,-513"/>
<text text-anchor="start" x="340.5" y="-501" font-family="Helvetica,sans-Serif" font-size="10.00">CollisionBehavior</text>
<text text-anchor="start" x="302.5" y="-486" font-family="Helvetica,sans-Serif" font-size="10.00">#</text>
<text text-anchor="start" x="315.5" y="-486" font-family="Helvetica,sans-Serif" font-size="10.00">std::shared_ptr&lt; Vector2</text>
<text text-anchor="start" x="315.5" y="-475" font-family="Helvetica,sans-Serif" font-size="10.00"> &gt; colliderSize</text>
<text text-anchor="start" x="302.5" y="-460" font-family="Helvetica,sans-Serif" font-size="10.00">+</text>
<text text-anchor="start" x="315.5" y="-460" font-family="Helvetica,sans-Serif" font-size="10.00">bool IsPointInsideCollider</text>
<text text-anchor="start" x="315.5" y="-449" font-family="Helvetica,sans-Serif" font-size="10.00">(Vector2 position)</text>
<text text-anchor="start" x="302.5" y="-434" font-family="Helvetica,sans-Serif" font-size="10.00">+</text>
<text text-anchor="start" x="315.5" y="-434" font-family="Helvetica,sans-Serif" font-size="10.00">void OnTick() override</text>
<text text-anchor="start" x="302.5" y="-419" font-family="Helvetica,sans-Serif" font-size="10.00">+</text>
<text text-anchor="start" x="315.5" y="-419" font-family="Helvetica,sans-Serif" font-size="10.00">void OnStart() override</text>
<text text-anchor="start" x="302.5" y="-404" font-family="Helvetica,sans-Serif" font-size="10.00">+</text>
<text text-anchor="start" x="315.5" y="-404" font-family="Helvetica,sans-Serif" font-size="10.00">const std::shared_ptr</text>
<text text-anchor="start" x="315.5" y="-393" font-family="Helvetica,sans-Serif" font-size="10.00">&lt; Vector2 &gt; getColliderSize()</text>
<text text-anchor="start" x="302.5" y="-378" font-family="Helvetica,sans-Serif" font-size="10.00">+</text>
<text text-anchor="start" x="315.5" y="-378" font-family="Helvetica,sans-Serif" font-size="10.00">virtual void BeforeCollision</text>
<text text-anchor="start" x="315.5" y="-367" font-family="Helvetica,sans-Serif" font-size="10.00">(std::shared_ptr&lt; GameObject</text>
<text text-anchor="start" x="315.5" y="-356" font-family="Helvetica,sans-Serif" font-size="10.00"> &gt; other)</text>
<text text-anchor="start" x="302.5" y="-341" font-family="Helvetica,sans-Serif" font-size="10.00">+</text>
<text text-anchor="start" x="315.5" y="-341" font-family="Helvetica,sans-Serif" font-size="10.00">CollisionBehavior()</text>
<text text-anchor="start" x="302.5" y="-326" font-family="Helvetica,sans-Serif" font-size="10.00">+</text>
<text text-anchor="start" x="315.5" y="-326" font-family="Helvetica,sans-Serif" font-size="10.00">CollisionBehavior</text>
<text text-anchor="start" x="315.5" y="-315" font-family="Helvetica,sans-Serif" font-size="10.00">(int x, int y)</text>
<text text-anchor="start" x="302.5" y="-300" font-family="Helvetica,sans-Serif" font-size="10.00">#</text>
<text text-anchor="start" x="315.5" y="-300" font-family="Helvetica,sans-Serif" font-size="10.00">bool CheckForCollision</text>
<text text-anchor="start" x="315.5" y="-289" font-family="Helvetica,sans-Serif" font-size="10.00">(std::shared_ptr&lt; GameObject</text>
<text text-anchor="start" x="315.5" y="-278" font-family="Helvetica,sans-Serif" font-size="10.00"> &gt; other)</text>
<polygon fill="#666666" stroke="#666666" points="298.5,-496 298.5,-496 468.5,-496 468.5,-496 298.5,-496"/>
<polygon fill="#666666" stroke="#666666" points="298.5,-470 298.5,-470 313.5,-470 313.5,-470 298.5,-470"/>
<polygon fill="#666666" stroke="#666666" points="313.5,-470 313.5,-470 468.5,-470 468.5,-470 313.5,-470"/>
<polygon fill="none" stroke="#666666" points="298.5,-271 298.5,-513 468.5,-513 468.5,-271 298.5,-271"/>
</a>
</g>
</g>
<!-- Node1&#45;&gt;Node5 -->
<g id="edge4_Node000001_Node000005" class="edge">
<title>Node1&#45;&gt;Node5</title>
<g id="a_edge4_Node000001_Node000005"><a xlink:title=" ">
<path fill="none" stroke="#63b8ff" d="M771.42,-569.18C695.78,-561.86 526.7,-542.63 477.5,-513 474.44,-511.16 471.44,-509.17 468.5,-507.07"/>
<polygon fill="none" stroke="#63b8ff" points="771.16,-572.67 781.45,-570.13 771.82,-565.7 771.16,-572.67"/>
</a>
</g>
</g>
<!-- Node9 -->
<g id="Node000009" class="node">
<title>Node9</title>
<g id="a_Node000009"><a xlink:href="../../d9/ddc/classEnemyBehavior.html" target="_top" xlink:title="Controlls the behavior of an Enemy.">
<polygon fill="white" stroke="transparent" points="620,-424 487,-424 487,-360 620,-360 620,-424"/>
<text text-anchor="start" x="515" y="-412" font-family="Helvetica,sans-Serif" font-size="10.00">EnemyBehavior</text>
<text text-anchor="start" x="552" y="-397" font-family="Helvetica,sans-Serif" font-size="10.00"> </text>
<text text-anchor="start" x="491.5" y="-382" font-family="Helvetica,sans-Serif" font-size="10.00">+</text>
<text text-anchor="start" x="504.5" y="-382" font-family="Helvetica,sans-Serif" font-size="10.00">void OnTick() override</text>
<text text-anchor="start" x="491.5" y="-367" font-family="Helvetica,sans-Serif" font-size="10.00">+</text>
<text text-anchor="start" x="504.5" y="-367" font-family="Helvetica,sans-Serif" font-size="10.00">void OnStart() override</text>
<polygon fill="#666666" stroke="#666666" points="487.5,-407 487.5,-407 620.5,-407 620.5,-407 487.5,-407"/>
<polygon fill="#666666" stroke="#666666" points="487.5,-392 487.5,-392 620.5,-392 620.5,-392 487.5,-392"/>
<polygon fill="none" stroke="#666666" points="487,-360 487,-424 620,-424 620,-360 487,-360"/>
</a>
</g>
</g>
<!-- Node1&#45;&gt;Node9 -->
<g id="edge8_Node000001_Node000009" class="edge">
<title>Node1&#45;&gt;Node9</title>
<g id="a_edge8_Node000001_Node000009"><a xlink:title=" ">
<path fill="none" stroke="#63b8ff" d="M771.49,-567.81C732.43,-561.27 670.8,-546.22 628.5,-513 598.84,-489.71 577.78,-451.2 565.68,-424.11"/>
<polygon fill="none" stroke="#63b8ff" points="770.96,-571.28 781.38,-569.37 772.05,-564.36 770.96,-571.28"/>
</a>
</g>
</g>
<!-- Node10 -->
<g id="Node000010" class="node">
<title>Node10</title>
<g id="a_Node000010"><a xlink:href="../../d1/d21/classGameManagerBehavior.html" target="_top" xlink:title="The base game manager behavior.">
<polygon fill="white" stroke="transparent" points="809,-472.5 638,-472.5 638,-311.5 809,-311.5 809,-472.5"/>
<text text-anchor="start" x="666" y="-460" font-family="Helvetica,sans-Serif" font-size="10.00">GameManagerBehavior</text>
<text text-anchor="start" x="642.5" y="-445" font-family="Helvetica,sans-Serif" font-size="10.00">#</text>
<text text-anchor="start" x="655.5" y="-445" font-family="Helvetica,sans-Serif" font-size="10.00">long long timeSinceGameStart</text>
<text text-anchor="start" x="642.5" y="-430" font-family="Helvetica,sans-Serif" font-size="10.00">#</text>
<text text-anchor="start" x="655.5" y="-430" font-family="Helvetica,sans-Serif" font-size="10.00">long long timeOfLastEnemy</text>
<text text-anchor="start" x="642.5" y="-415" font-family="Helvetica,sans-Serif" font-size="10.00">#</text>
<text text-anchor="start" x="655.5" y="-415" font-family="Helvetica,sans-Serif" font-size="10.00">long long enemySpawnDelay</text>
<text text-anchor="start" x="642.5" y="-400" font-family="Helvetica,sans-Serif" font-size="10.00">#</text>
<text text-anchor="start" x="655.5" y="-400" font-family="Helvetica,sans-Serif" font-size="10.00">long long timeOfLastCoffee</text>
<text text-anchor="start" x="642.5" y="-385" font-family="Helvetica,sans-Serif" font-size="10.00">#</text>
<text text-anchor="start" x="655.5" y="-385" font-family="Helvetica,sans-Serif" font-size="10.00">long long coffeeSpawnDelay</text>
<text text-anchor="start" x="642.5" y="-370" font-family="Helvetica,sans-Serif" font-size="10.00">+</text>
<text text-anchor="start" x="655.5" y="-370" font-family="Helvetica,sans-Serif" font-size="10.00">virtual void OnTick</text>
<text text-anchor="start" x="655.5" y="-359" font-family="Helvetica,sans-Serif" font-size="10.00">() override</text>
<text text-anchor="start" x="642.5" y="-344" font-family="Helvetica,sans-Serif" font-size="10.00">+</text>
<text text-anchor="start" x="655.5" y="-344" font-family="Helvetica,sans-Serif" font-size="10.00">virtual void OnStart</text>
<text text-anchor="start" x="655.5" y="-333" font-family="Helvetica,sans-Serif" font-size="10.00">() override</text>
<text text-anchor="start" x="642.5" y="-318" font-family="Helvetica,sans-Serif" font-size="10.00">#</text>
<text text-anchor="start" x="655.5" y="-318" font-family="Helvetica,sans-Serif" font-size="10.00">float GetObjectVelocity()</text>
<polygon fill="#666666" stroke="#666666" points="638.5,-455 638.5,-455 809.5,-455 809.5,-455 638.5,-455"/>
<polygon fill="#666666" stroke="#666666" points="638.5,-380 638.5,-380 653.5,-380 653.5,-380 638.5,-380"/>
<polygon fill="#666666" stroke="#666666" points="653.5,-380 653.5,-380 809.5,-380 809.5,-380 653.5,-380"/>
<polygon fill="none" stroke="#666666" points="638,-311.5 638,-472.5 809,-472.5 809,-311.5 638,-311.5"/>
</a>
</g>
</g>
<!-- Node1&#45;&gt;Node10 -->
<g id="edge9_Node000001_Node000010" class="edge">
<title>Node1&#45;&gt;Node10</title>
<g id="a_edge9_Node000001_Node000010"><a xlink:title=" ">
<path fill="none" stroke="#63b8ff" d="M792.82,-539.38C783.91,-520.58 772.36,-496.17 761.24,-472.7"/>
<polygon fill="none" stroke="#63b8ff" points="789.77,-541.12 797.21,-548.66 796.1,-538.13 789.77,-541.12"/>
</a>
</g>
</g>
<!-- Node11 -->
<g id="Node000011" class="node">
<title>Node11</title>
<g id="a_Node000011"><a xlink:href="../../d8/d05/classGravityBehavior.html" target="_top" xlink:title="Component that gives an object gravity.">
<polygon fill="white" stroke="transparent" points="960,-444.5 827,-444.5 827,-339.5 960,-339.5 960,-444.5"/>
<text text-anchor="start" x="854" y="-432" font-family="Helvetica,sans-Serif" font-size="10.00">GravityBehavior</text>
<text text-anchor="start" x="831.5" y="-417" font-family="Helvetica,sans-Serif" font-size="10.00">#</text>
<text text-anchor="start" x="844.5" y="-417" font-family="Helvetica,sans-Serif" font-size="10.00">float gravityScale</text>
<text text-anchor="start" x="831.5" y="-402" font-family="Helvetica,sans-Serif" font-size="10.00">+</text>
<text text-anchor="start" x="844.5" y="-402" font-family="Helvetica,sans-Serif" font-size="10.00">float getGravityScale()</text>
<text text-anchor="start" x="831.5" y="-387" font-family="Helvetica,sans-Serif" font-size="10.00">+</text>
<text text-anchor="start" x="844.5" y="-387" font-family="Helvetica,sans-Serif" font-size="10.00">void setGravityScale</text>
<text text-anchor="start" x="844.5" y="-376" font-family="Helvetica,sans-Serif" font-size="10.00">(float value)</text>
<text text-anchor="start" x="831.5" y="-361" font-family="Helvetica,sans-Serif" font-size="10.00">+</text>
<text text-anchor="start" x="844.5" y="-361" font-family="Helvetica,sans-Serif" font-size="10.00">void OnTick() override</text>
<text text-anchor="start" x="831.5" y="-346" font-family="Helvetica,sans-Serif" font-size="10.00">+</text>
<text text-anchor="start" x="844.5" y="-346" font-family="Helvetica,sans-Serif" font-size="10.00">void OnStart() override</text>
<polygon fill="#666666" stroke="#666666" points="827.5,-427 827.5,-427 960.5,-427 960.5,-427 827.5,-427"/>
<polygon fill="#666666" stroke="#666666" points="827.5,-412 827.5,-412 842.5,-412 842.5,-412 827.5,-412"/>
<polygon fill="#666666" stroke="#666666" points="842.5,-412 842.5,-412 960.5,-412 960.5,-412 842.5,-412"/>
<polygon fill="none" stroke="#666666" points="827,-339.5 827,-444.5 960,-444.5 960,-339.5 827,-339.5"/>
</a>
</g>
</g>
<!-- Node1&#45;&gt;Node11 -->
<g id="edge10_Node000001_Node000011" class="edge">
<title>Node1&#45;&gt;Node11</title>
<g id="a_edge10_Node000001_Node000011"><a xlink:title=" ">
<path fill="none" stroke="#63b8ff" d="M824.16,-539.42C836.74,-512.86 854.62,-475.1 869.07,-444.58"/>
<polygon fill="none" stroke="#63b8ff" points="820.9,-538.13 819.79,-548.66 827.23,-541.12 820.9,-538.13"/>
</a>
</g>
</g>
<!-- Node12 -->
<g id="Node000012" class="node">
<title>Node12</title>
<g id="a_Node000012"><a xlink:href="../../de/d47/classKeyboardHandlerBehavior.html" target="_top" xlink:title="An abstract class for handling keyboard inputs.">
<polygon fill="white" stroke="transparent" points="1135,-435 978,-435 978,-349 1135,-349 1135,-435"/>
<text text-anchor="start" x="993" y="-423" font-family="Helvetica,sans-Serif" font-size="10.00">KeyboardHandlerBehavior</text>
<text text-anchor="start" x="1055" y="-408" font-family="Helvetica,sans-Serif" font-size="10.00"> </text>
<text text-anchor="start" x="982.5" y="-393" font-family="Helvetica,sans-Serif" font-size="10.00">+</text>
<text text-anchor="start" x="995.5" y="-393" font-family="Helvetica,sans-Serif" font-size="10.00">virtual void OnKeyDown</text>
<text text-anchor="start" x="995.5" y="-382" font-family="Helvetica,sans-Serif" font-size="10.00">(SDL_KeyboardEvent &amp;e)=0</text>
<text text-anchor="start" x="982.5" y="-367" font-family="Helvetica,sans-Serif" font-size="10.00">+</text>
<text text-anchor="start" x="995.5" y="-367" font-family="Helvetica,sans-Serif" font-size="10.00">virtual void OnKeyUp</text>
<text text-anchor="start" x="995.5" y="-356" font-family="Helvetica,sans-Serif" font-size="10.00">(SDL_KeyboardEvent &amp;e)=0</text>
<polygon fill="#666666" stroke="#666666" points="978.5,-418 978.5,-418 1135.5,-418 1135.5,-418 978.5,-418"/>
<polygon fill="#666666" stroke="#666666" points="978.5,-403 978.5,-403 1135.5,-403 1135.5,-403 978.5,-403"/>
<polygon fill="none" stroke="#666666" points="978,-349 978,-435 1135,-435 1135,-349 978,-349"/>
</a>
</g>
</g>
<!-- Node1&#45;&gt;Node12 -->
<g id="edge11_Node000001_Node000012" class="edge">
<title>Node1&#45;&gt;Node12</title>
<g id="a_edge11_Node000001_Node000012"><a xlink:title=" ">
<path fill="none" stroke="#63b8ff" d="M845.87,-565.09C880.35,-556.84 931.64,-540.85 968.5,-513 995.92,-492.29 1018.6,-460.71 1034.06,-435.14"/>
<polygon fill="none" stroke="#63b8ff" points="844.71,-561.77 835.74,-567.41 846.27,-568.59 844.71,-561.77"/>
</a>
</g>
</g>
<!-- Node15 -->
<g id="Node000015" class="node">
<title>Node15</title>
<g id="a_Node000015"><a xlink:href="../../dd/df8/classKinematicBehavior.html" target="_top" xlink:title="Component causing the velocity of an object to update it&#39;s position.">
<polygon fill="white" stroke="transparent" points="1286,-424 1153,-424 1153,-360 1286,-360 1286,-424"/>
<text text-anchor="start" x="1173" y="-412" font-family="Helvetica,sans-Serif" font-size="10.00">KinematicBehavior</text>
<text text-anchor="start" x="1218" y="-397" font-family="Helvetica,sans-Serif" font-size="10.00"> </text>
<text text-anchor="start" x="1157.5" y="-382" font-family="Helvetica,sans-Serif" font-size="10.00">+</text>
<text text-anchor="start" x="1170.5" y="-382" font-family="Helvetica,sans-Serif" font-size="10.00">void OnTick() override</text>
<text text-anchor="start" x="1157.5" y="-367" font-family="Helvetica,sans-Serif" font-size="10.00">+</text>
<text text-anchor="start" x="1170.5" y="-367" font-family="Helvetica,sans-Serif" font-size="10.00">void OnStart() override</text>
<polygon fill="#666666" stroke="#666666" points="1153.5,-407 1153.5,-407 1286.5,-407 1286.5,-407 1153.5,-407"/>
<polygon fill="#666666" stroke="#666666" points="1153.5,-392 1153.5,-392 1286.5,-392 1286.5,-392 1153.5,-392"/>
<polygon fill="none" stroke="#666666" points="1153,-360 1153,-424 1286,-424 1286,-360 1153,-360"/>
</a>
</g>
</g>
<!-- Node1&#45;&gt;Node15 -->
<g id="edge14_Node000001_Node000015" class="edge">
<title>Node1&#45;&gt;Node15</title>
<g id="a_edge14_Node000001_Node000015"><a xlink:title=" ">
<path fill="none" stroke="#63b8ff" d="M845.72,-569.66C922.46,-563.22 1095.13,-545.46 1143.5,-513 1175.34,-491.63 1196.54,-451.95 1208.28,-424.08"/>
<polygon fill="none" stroke="#63b8ff" points="845.23,-566.19 835.55,-570.5 845.8,-573.17 845.23,-566.19"/>
</a>
</g>
</g>
<!-- Node16 -->
<g id="Node000016" class="node">
<title>Node16</title>
<g id="a_Node000016"><a xlink:href="../../d3/dc0/classPlayerBehavior.html" target="_top" xlink:title="The players basic behavior.">
<polygon fill="white" stroke="transparent" points="1459,-470.5 1304,-470.5 1304,-313.5 1459,-313.5 1459,-470.5"/>
<text text-anchor="start" x="1344.5" y="-458" font-family="Helvetica,sans-Serif" font-size="10.00">PlayerBehavior</text>
<text text-anchor="start" x="1308.5" y="-443" font-family="Helvetica,sans-Serif" font-size="10.00">#</text>
<text text-anchor="start" x="1321.5" y="-443" font-family="Helvetica,sans-Serif" font-size="10.00">unsigned int jumpPoints</text>
<text text-anchor="start" x="1308.5" y="-428" font-family="Helvetica,sans-Serif" font-size="10.00">#</text>
<text text-anchor="start" x="1321.5" y="-428" font-family="Helvetica,sans-Serif" font-size="10.00">const unsigned int</text>
<text text-anchor="start" x="1321.5" y="-417" font-family="Helvetica,sans-Serif" font-size="10.00"> defaultJumpPoints</text>
<text text-anchor="start" x="1308.5" y="-402" font-family="Helvetica,sans-Serif" font-size="10.00">+</text>
<text text-anchor="start" x="1321.5" y="-402" font-family="Helvetica,sans-Serif" font-size="10.00">unsigned int getJumpPoints</text>
<text text-anchor="start" x="1321.5" y="-391" font-family="Helvetica,sans-Serif" font-size="10.00">() const</text>
<text text-anchor="start" x="1308.5" y="-376" font-family="Helvetica,sans-Serif" font-size="10.00">+</text>
<text text-anchor="start" x="1321.5" y="-376" font-family="Helvetica,sans-Serif" font-size="10.00">void setJumpPoints</text>
<text text-anchor="start" x="1321.5" y="-365" font-family="Helvetica,sans-Serif" font-size="10.00">(unsigned int value)</text>
<text text-anchor="start" x="1308.5" y="-350" font-family="Helvetica,sans-Serif" font-size="10.00">+</text>
<text text-anchor="start" x="1321.5" y="-350" font-family="Helvetica,sans-Serif" font-size="10.00">void ResetJumpPoints()</text>
<text text-anchor="start" x="1308.5" y="-335" font-family="Helvetica,sans-Serif" font-size="10.00">+</text>
<text text-anchor="start" x="1321.5" y="-335" font-family="Helvetica,sans-Serif" font-size="10.00">void OnTick() override</text>
<text text-anchor="start" x="1308.5" y="-320" font-family="Helvetica,sans-Serif" font-size="10.00">+</text>
<text text-anchor="start" x="1321.5" y="-320" font-family="Helvetica,sans-Serif" font-size="10.00">void OnStart() override</text>
<polygon fill="#666666" stroke="#666666" points="1304.5,-453 1304.5,-453 1459.5,-453 1459.5,-453 1304.5,-453"/>
<polygon fill="#666666" stroke="#666666" points="1304.5,-412 1304.5,-412 1319.5,-412 1319.5,-412 1304.5,-412"/>
<polygon fill="#666666" stroke="#666666" points="1319.5,-412 1319.5,-412 1459.5,-412 1459.5,-412 1319.5,-412"/>
<polygon fill="none" stroke="#666666" points="1304,-313.5 1304,-470.5 1459,-470.5 1459,-313.5 1304,-313.5"/>
</a>
</g>
</g>
<!-- Node1&#45;&gt;Node16 -->
<g id="edge15_Node000001_Node000016" class="edge">
<title>Node1&#45;&gt;Node16</title>
<g id="a_edge15_Node000001_Node000016"><a xlink:title=" ">
<path fill="none" stroke="#63b8ff" d="M845.78,-571.73C945.94,-569.08 1218.46,-557.83 1294.5,-513 1312.12,-502.61 1327.19,-487.1 1339.59,-470.65"/>
<polygon fill="none" stroke="#63b8ff" points="845.44,-568.24 835.53,-571.99 845.62,-575.24 845.44,-568.24"/>
</a>
</g>
</g>
<!-- Node17 -->
<g id="Node000017" class="node">
<title>Node17</title>
<g id="a_Node000017"><a xlink:href="../../db/d44/classScoreCounterBehavior.html" target="_top" xlink:title="Controlls the behavior of the score counter.">
<polygon fill="white" stroke="transparent" points="1648,-442.5 1477,-442.5 1477,-341.5 1648,-341.5 1648,-442.5"/>
<text text-anchor="start" x="1508.5" y="-430" font-family="Helvetica,sans-Serif" font-size="10.00">ScoreCounterBehavior</text>
<text text-anchor="start" x="1481.5" y="-415" font-family="Helvetica,sans-Serif" font-size="10.00">#</text>
<text text-anchor="start" x="1494.5" y="-415" font-family="Helvetica,sans-Serif" font-size="10.00">long long timeSinceGameStart</text>
<text text-anchor="start" x="1481.5" y="-400" font-family="Helvetica,sans-Serif" font-size="10.00">+</text>
<text text-anchor="start" x="1494.5" y="-400" font-family="Helvetica,sans-Serif" font-size="10.00">virtual void OnTick</text>
<text text-anchor="start" x="1494.5" y="-389" font-family="Helvetica,sans-Serif" font-size="10.00">() override</text>
<text text-anchor="start" x="1481.5" y="-374" font-family="Helvetica,sans-Serif" font-size="10.00">+</text>
<text text-anchor="start" x="1494.5" y="-374" font-family="Helvetica,sans-Serif" font-size="10.00">virtual void OnStart</text>
<text text-anchor="start" x="1494.5" y="-363" font-family="Helvetica,sans-Serif" font-size="10.00">() override</text>
<text text-anchor="start" x="1481.5" y="-348" font-family="Helvetica,sans-Serif" font-size="10.00">#</text>
<text text-anchor="start" x="1494.5" y="-348" font-family="Helvetica,sans-Serif" font-size="10.00">long long GetPlayerScore()</text>
<polygon fill="#666666" stroke="#666666" points="1477.5,-425 1477.5,-425 1648.5,-425 1648.5,-425 1477.5,-425"/>
<polygon fill="#666666" stroke="#666666" points="1477.5,-410 1477.5,-410 1492.5,-410 1492.5,-410 1477.5,-410"/>
<polygon fill="#666666" stroke="#666666" points="1492.5,-410 1492.5,-410 1648.5,-410 1648.5,-410 1492.5,-410"/>
<polygon fill="none" stroke="#666666" points="1477,-341.5 1477,-442.5 1648,-442.5 1648,-341.5 1477,-341.5"/>
</a>
</g>
</g>
<!-- Node1&#45;&gt;Node17 -->
<g id="edge16_Node000001_Node000017" class="edge">
<title>Node1&#45;&gt;Node17</title>
<g id="a_edge16_Node000001_Node000017"><a xlink:title=" ">
<path fill="none" stroke="#63b8ff" d="M845.88,-572.93C968.83,-573.77 1359,-571.66 1467.5,-513 1496.72,-497.2 1520.05,-468.22 1536.28,-442.7"/>
<polygon fill="none" stroke="#63b8ff" points="845.85,-569.43 835.82,-572.85 845.8,-576.43 845.85,-569.43"/>
</a>
</g>
</g>
<!-- Node2 -->
<g id="Node000002" class="node">
<title>Node2</title>
<g id="a_Node000002"><a xlink:href="../../d9/df7/classGameObjectComponent.html" target="_top" xlink:title="An abstract gameobject component.">
<polygon fill="white" stroke="transparent" points="903,-795 714,-795 714,-634 903,-634 903,-795"/>
<text text-anchor="start" x="750" y="-782.5" font-family="Helvetica,sans-Serif" font-size="10.00">GameObjectComponent</text>
<text text-anchor="start" x="718.5" y="-767.5" font-family="Helvetica,sans-Serif" font-size="10.00">#</text>
<text text-anchor="start" x="731.5" y="-767.5" font-family="Helvetica,sans-Serif" font-size="10.00">bool enabled</text>
<text text-anchor="start" x="718.5" y="-752.5" font-family="Helvetica,sans-Serif" font-size="10.00">#</text>
<text text-anchor="start" x="731.5" y="-752.5" font-family="Helvetica,sans-Serif" font-size="10.00">GameObject * parent</text>
<text text-anchor="start" x="718.5" y="-737.5" font-family="Helvetica,sans-Serif" font-size="10.00">+</text>
<text text-anchor="start" x="731.5" y="-737.5" font-family="Helvetica,sans-Serif" font-size="10.00">bool getEnabled() const</text>
<text text-anchor="start" x="718.5" y="-722.5" font-family="Helvetica,sans-Serif" font-size="10.00">+</text>
<text text-anchor="start" x="731.5" y="-722.5" font-family="Helvetica,sans-Serif" font-size="10.00">void setEnabled(bool</text>
<text text-anchor="start" x="731.5" y="-711.5" font-family="Helvetica,sans-Serif" font-size="10.00"> value)</text>
<text text-anchor="start" x="718.5" y="-696.5" font-family="Helvetica,sans-Serif" font-size="10.00">+</text>
<text text-anchor="start" x="731.5" y="-696.5" font-family="Helvetica,sans-Serif" font-size="10.00">void setParent(GameObject</text>
<text text-anchor="start" x="731.5" y="-685.5" font-family="Helvetica,sans-Serif" font-size="10.00"> *value)</text>
<text text-anchor="start" x="718.5" y="-670.5" font-family="Helvetica,sans-Serif" font-size="10.00">+</text>
<text text-anchor="start" x="731.5" y="-670.5" font-family="Helvetica,sans-Serif" font-size="10.00">virtual ~GameObjectComponent()</text>
<text text-anchor="start" x="718.5" y="-655.5" font-family="Helvetica,sans-Serif" font-size="10.00">+</text>
<text text-anchor="start" x="731.5" y="-655.5" font-family="Helvetica,sans-Serif" font-size="10.00">virtual void OnTick()=0</text>
<text text-anchor="start" x="718.5" y="-640.5" font-family="Helvetica,sans-Serif" font-size="10.00">+</text>
<text text-anchor="start" x="731.5" y="-640.5" font-family="Helvetica,sans-Serif" font-size="10.00">virtual void OnStart()=0</text>
<polygon fill="#666666" stroke="#666666" points="714.5,-777.5 714.5,-777.5 903.5,-777.5 903.5,-777.5 714.5,-777.5"/>
<polygon fill="#666666" stroke="#666666" points="714.5,-747.5 714.5,-747.5 729.5,-747.5 729.5,-747.5 714.5,-747.5"/>
<polygon fill="#666666" stroke="#666666" points="729.5,-747.5 729.5,-747.5 903.5,-747.5 903.5,-747.5 729.5,-747.5"/>
<polygon fill="none" stroke="#666666" points="714,-634 714,-795 903,-795 903,-634 714,-634"/>
</a>
</g>
</g>
<!-- Node2&#45;&gt;Node1 -->
<g id="edge1_Node000001_Node000002" class="edge">
<title>Node2&#45;&gt;Node1</title>
<g id="a_edge1_Node000001_Node000002"><a xlink:title=" ">
<path fill="none" stroke="#63b8ff" d="M808.5,-623.64C808.5,-614.4 808.5,-605.68 808.5,-598.22"/>
<polygon fill="none" stroke="#63b8ff" points="805,-623.85 808.5,-633.85 812,-623.85 805,-623.85"/>
</a>
</g>
</g>
<!-- Node6 -->
<g id="Node000006" class="node">
<title>Node6</title>
<g id="a_Node000006"><a xlink:href="../../dd/dcf/classCoffeeCollisionBehavior.html" target="_top" xlink:title="Controlls the behavior of a coffee on collision.">
<polygon fill="white" stroke="transparent" points="280.5,-181 110.5,-181 110.5,-54 280.5,-54 280.5,-181"/>
<text text-anchor="start" x="136.5" y="-168.5" font-family="Helvetica,sans-Serif" font-size="10.00">CoffeeCollisionBehavior</text>
<text text-anchor="start" x="193.5" y="-153.5" font-family="Helvetica,sans-Serif" font-size="10.00"> </text>
<text text-anchor="start" x="114.5" y="-138.5" font-family="Helvetica,sans-Serif" font-size="10.00">+</text>
<text text-anchor="start" x="127.5" y="-138.5" font-family="Helvetica,sans-Serif" font-size="10.00">CoffeeCollisionBehavior()</text>
<text text-anchor="start" x="114.5" y="-123.5" font-family="Helvetica,sans-Serif" font-size="10.00">+</text>
<text text-anchor="start" x="127.5" y="-123.5" font-family="Helvetica,sans-Serif" font-size="10.00">CoffeeCollisionBehavior</text>
<text text-anchor="start" x="127.5" y="-112.5" font-family="Helvetica,sans-Serif" font-size="10.00">(int x, int y)</text>
<text text-anchor="start" x="114.5" y="-97.5" font-family="Helvetica,sans-Serif" font-size="10.00">+</text>
<text text-anchor="start" x="127.5" y="-97.5" font-family="Helvetica,sans-Serif" font-size="10.00">~CoffeeCollisionBehavior()</text>
<text text-anchor="start" x="114.5" y="-82.5" font-family="Helvetica,sans-Serif" font-size="10.00">+</text>
<text text-anchor="start" x="127.5" y="-82.5" font-family="Helvetica,sans-Serif" font-size="10.00">virtual void BeforeCollision</text>
<text text-anchor="start" x="127.5" y="-71.5" font-family="Helvetica,sans-Serif" font-size="10.00">(std::shared_ptr&lt; GameObject</text>
<text text-anchor="start" x="127.5" y="-60.5" font-family="Helvetica,sans-Serif" font-size="10.00"> &gt; other) override</text>
<polygon fill="#666666" stroke="#666666" points="110.5,-163.5 110.5,-163.5 280.5,-163.5 280.5,-163.5 110.5,-163.5"/>
<polygon fill="#666666" stroke="#666666" points="110.5,-148.5 110.5,-148.5 280.5,-148.5 280.5,-148.5 110.5,-148.5"/>
<polygon fill="none" stroke="#666666" points="110.5,-54 110.5,-181 280.5,-181 280.5,-54 110.5,-54"/>
</a>
</g>
</g>
<!-- Node5&#45;&gt;Node6 -->
<g id="edge5_Node000005_Node000006" class="edge">
<title>Node5&#45;&gt;Node6</title>
<g id="a_edge5_Node000005_Node000006"><a xlink:title=" ">
<path fill="none" stroke="#63b8ff" d="M294.72,-262.32C275.2,-234.03 255.38,-205.3 238.64,-181.03"/>
<polygon fill="none" stroke="#63b8ff" points="291.93,-264.44 300.49,-270.68 297.7,-260.47 291.93,-264.44"/>
</a>
</g>
</g>
<!-- Node7 -->
<g id="Node000007" class="node">
<title>Node7</title>
<g id="a_Node000007"><a xlink:href="../../d1/d1b/classEnemyCollisionBehavior.html" target="_top" xlink:title="Controlls the behavior of an enemy on collision.">
<polygon fill="white" stroke="transparent" points="468.5,-173.5 298.5,-173.5 298.5,-61.5 468.5,-61.5 468.5,-173.5"/>
<text text-anchor="start" x="323.5" y="-161.5" font-family="Helvetica,sans-Serif" font-size="10.00">EnemyCollisionBehavior</text>
<text text-anchor="start" x="381.5" y="-146.5" font-family="Helvetica,sans-Serif" font-size="10.00"> </text>
<text text-anchor="start" x="302.5" y="-131.5" font-family="Helvetica,sans-Serif" font-size="10.00">+</text>
<text text-anchor="start" x="315.5" y="-131.5" font-family="Helvetica,sans-Serif" font-size="10.00">EnemyCollisionBehavior()</text>
<text text-anchor="start" x="302.5" y="-116.5" font-family="Helvetica,sans-Serif" font-size="10.00">+</text>
<text text-anchor="start" x="315.5" y="-116.5" font-family="Helvetica,sans-Serif" font-size="10.00">EnemyCollisionBehavior</text>
<text text-anchor="start" x="315.5" y="-105.5" font-family="Helvetica,sans-Serif" font-size="10.00">(int x, int y)</text>
<text text-anchor="start" x="302.5" y="-90.5" font-family="Helvetica,sans-Serif" font-size="10.00">+</text>
<text text-anchor="start" x="315.5" y="-90.5" font-family="Helvetica,sans-Serif" font-size="10.00">virtual void BeforeCollision</text>
<text text-anchor="start" x="315.5" y="-79.5" font-family="Helvetica,sans-Serif" font-size="10.00">(std::shared_ptr&lt; GameObject</text>
<text text-anchor="start" x="315.5" y="-68.5" font-family="Helvetica,sans-Serif" font-size="10.00"> &gt; other) override</text>
<polygon fill="#666666" stroke="#666666" points="298.5,-156.5 298.5,-156.5 468.5,-156.5 468.5,-156.5 298.5,-156.5"/>
<polygon fill="#666666" stroke="#666666" points="298.5,-141.5 298.5,-141.5 468.5,-141.5 468.5,-141.5 298.5,-141.5"/>
<polygon fill="none" stroke="#666666" points="298.5,-61.5 298.5,-173.5 468.5,-173.5 468.5,-61.5 298.5,-61.5"/>
</a>
</g>
</g>
<!-- Node5&#45;&gt;Node7 -->
<g id="edge6_Node000005_Node000007" class="edge">
<title>Node5&#45;&gt;Node7</title>
<g id="a_edge6_Node000005_Node000007"><a xlink:title=" ">
<path fill="none" stroke="#63b8ff" d="M383.5,-260.36C383.5,-229.83 383.5,-198.94 383.5,-173.8"/>
<polygon fill="none" stroke="#63b8ff" points="380,-260.68 383.5,-270.68 387,-260.68 380,-260.68"/>
</a>
</g>
</g>
<!-- Node8 -->
<g id="Node000008" class="node">
<title>Node8</title>
<g id="a_Node000008"><a xlink:href="../../d0/d31/classPlayerCollisionBehavior.html" target="_top" xlink:title="The players collision behavior.">
<polygon fill="white" stroke="transparent" points="656.5,-173.5 486.5,-173.5 486.5,-61.5 656.5,-61.5 656.5,-173.5"/>
<text text-anchor="start" x="513" y="-161.5" font-family="Helvetica,sans-Serif" font-size="10.00">PlayerCollisionBehavior</text>
<text text-anchor="start" x="569.5" y="-146.5" font-family="Helvetica,sans-Serif" font-size="10.00"> </text>
<text text-anchor="start" x="490.5" y="-131.5" font-family="Helvetica,sans-Serif" font-size="10.00">+</text>
<text text-anchor="start" x="503.5" y="-131.5" font-family="Helvetica,sans-Serif" font-size="10.00">PlayerCollisionBehavior()</text>
<text text-anchor="start" x="490.5" y="-116.5" font-family="Helvetica,sans-Serif" font-size="10.00">+</text>
<text text-anchor="start" x="503.5" y="-116.5" font-family="Helvetica,sans-Serif" font-size="10.00">PlayerCollisionBehavior</text>
<text text-anchor="start" x="503.5" y="-105.5" font-family="Helvetica,sans-Serif" font-size="10.00">(int x, int y)</text>
<text text-anchor="start" x="490.5" y="-90.5" font-family="Helvetica,sans-Serif" font-size="10.00">+</text>
<text text-anchor="start" x="503.5" y="-90.5" font-family="Helvetica,sans-Serif" font-size="10.00">virtual void BeforeCollision</text>
<text text-anchor="start" x="503.5" y="-79.5" font-family="Helvetica,sans-Serif" font-size="10.00">(std::shared_ptr&lt; GameObject</text>
<text text-anchor="start" x="503.5" y="-68.5" font-family="Helvetica,sans-Serif" font-size="10.00"> &gt; other) override</text>
<polygon fill="#666666" stroke="#666666" points="486.5,-156.5 486.5,-156.5 656.5,-156.5 656.5,-156.5 486.5,-156.5"/>
<polygon fill="#666666" stroke="#666666" points="486.5,-141.5 486.5,-141.5 656.5,-141.5 656.5,-141.5 486.5,-141.5"/>
<polygon fill="none" stroke="#666666" points="486.5,-61.5 486.5,-173.5 656.5,-173.5 656.5,-61.5 486.5,-61.5"/>
</a>
</g>
</g>
<!-- Node5&#45;&gt;Node8 -->
<g id="edge7_Node000005_Node000008" class="edge">
<title>Node5&#45;&gt;Node8</title>
<g id="a_edge7_Node000005_Node000008"><a xlink:title=" ">
<path fill="none" stroke="#63b8ff" d="M472.26,-262.35C493.76,-231.18 515.63,-199.48 533.35,-173.8"/>
<polygon fill="none" stroke="#63b8ff" points="469.3,-260.47 466.51,-270.68 475.07,-264.44 469.3,-260.47"/>
</a>
</g>
</g>
<!-- Node13 -->
<g id="Node000013" class="node">
<title>Node13</title>
<g id="a_Node000013"><a xlink:href="../../d3/d2e/classGameManagerKeyboardBehavior.html" target="_top" xlink:title="The game managers keyboard handler for general handling.">
<polygon fill="white" stroke="transparent" points="1057,-212.5 858,-212.5 858,-22.5 1057,-22.5 1057,-212.5"/>
<text text-anchor="start" x="877" y="-200.5" font-family="Helvetica,sans-Serif" font-size="10.00">GameManagerKeyboardBehavior</text>
<text text-anchor="start" x="862.5" y="-185.5" font-family="Helvetica,sans-Serif" font-size="10.00">#</text>
<text text-anchor="start" x="875.5" y="-185.5" font-family="Helvetica,sans-Serif" font-size="10.00">bool isRDown</text>
<text text-anchor="start" x="862.5" y="-170.5" font-family="Helvetica,sans-Serif" font-size="10.00">+</text>
<text text-anchor="start" x="875.5" y="-170.5" font-family="Helvetica,sans-Serif" font-size="10.00">GameManagerKeyboardBehavior()</text>
<text text-anchor="start" x="862.5" y="-155.5" font-family="Helvetica,sans-Serif" font-size="10.00">+</text>
<text text-anchor="start" x="875.5" y="-155.5" font-family="Helvetica,sans-Serif" font-size="10.00">~GameManagerKeyboardBehavior()</text>
<text text-anchor="start" x="862.5" y="-140.5" font-family="Helvetica,sans-Serif" font-size="10.00">+</text>
<text text-anchor="start" x="875.5" y="-140.5" font-family="Helvetica,sans-Serif" font-size="10.00">virtual void OnKeyDown</text>
<text text-anchor="start" x="875.5" y="-129.5" font-family="Helvetica,sans-Serif" font-size="10.00">(SDL_KeyboardEvent &amp;e)</text>
<text text-anchor="start" x="875.5" y="-118.5" font-family="Helvetica,sans-Serif" font-size="10.00"> override</text>
<text text-anchor="start" x="862.5" y="-103.5" font-family="Helvetica,sans-Serif" font-size="10.00">+</text>
<text text-anchor="start" x="875.5" y="-103.5" font-family="Helvetica,sans-Serif" font-size="10.00">virtual void OnKeyUp</text>
<text text-anchor="start" x="875.5" y="-92.5" font-family="Helvetica,sans-Serif" font-size="10.00">(SDL_KeyboardEvent &amp;e)</text>
<text text-anchor="start" x="875.5" y="-81.5" font-family="Helvetica,sans-Serif" font-size="10.00"> override</text>
<text text-anchor="start" x="862.5" y="-66.5" font-family="Helvetica,sans-Serif" font-size="10.00">+</text>
<text text-anchor="start" x="875.5" y="-66.5" font-family="Helvetica,sans-Serif" font-size="10.00">virtual void OnTick</text>
<text text-anchor="start" x="875.5" y="-55.5" font-family="Helvetica,sans-Serif" font-size="10.00">() override</text>
<text text-anchor="start" x="862.5" y="-40.5" font-family="Helvetica,sans-Serif" font-size="10.00">+</text>
<text text-anchor="start" x="875.5" y="-40.5" font-family="Helvetica,sans-Serif" font-size="10.00">virtual void OnStart</text>
<text text-anchor="start" x="875.5" y="-29.5" font-family="Helvetica,sans-Serif" font-size="10.00">() override</text>
<polygon fill="#666666" stroke="#666666" points="858.5,-195.5 858.5,-195.5 1057.5,-195.5 1057.5,-195.5 858.5,-195.5"/>
<polygon fill="#666666" stroke="#666666" points="858.5,-180.5 858.5,-180.5 873.5,-180.5 873.5,-180.5 858.5,-180.5"/>
<polygon fill="#666666" stroke="#666666" points="873.5,-180.5 873.5,-180.5 1057.5,-180.5 1057.5,-180.5 873.5,-180.5"/>
<polygon fill="none" stroke="#666666" points="858,-22.5 858,-212.5 1057,-212.5 1057,-22.5 858,-22.5"/>
</a>
</g>
</g>
<!-- Node12&#45;&gt;Node13 -->
<g id="edge12_Node000012_Node000013" class="edge">
<title>Node12&#45;&gt;Node13</title>
<g id="a_edge12_Node000012_Node000013"><a xlink:title=" ">
<path fill="none" stroke="#63b8ff" d="M1037.61,-339.01C1024.64,-303.32 1007.07,-254.93 991.68,-212.58"/>
<polygon fill="none" stroke="#63b8ff" points="1034.44,-340.52 1041.14,-348.72 1041.01,-338.13 1034.44,-340.52"/>
</a>
</g>
</g>
<!-- Node14 -->
<g id="Node000014" class="node">
<title>Node14</title>
<g id="a_Node000014"><a xlink:href="../../d9/d2c/classPlayerKeyboardBehavior.html" target="_top" xlink:title="The keyboard handler for the player.">
<polygon fill="white" stroke="transparent" points="1234,-235 1075,-235 1075,0 1234,0 1234,-235"/>
<text text-anchor="start" x="1094.5" y="-222.5" font-family="Helvetica,sans-Serif" font-size="10.00">PlayerKeyboardBehavior</text>
<text text-anchor="start" x="1079.5" y="-207.5" font-family="Helvetica,sans-Serif" font-size="10.00">#</text>
<text text-anchor="start" x="1092.5" y="-207.5" font-family="Helvetica,sans-Serif" font-size="10.00">bool isSpaceDown</text>
<text text-anchor="start" x="1079.5" y="-192.5" font-family="Helvetica,sans-Serif" font-size="10.00">#</text>
<text text-anchor="start" x="1092.5" y="-192.5" font-family="Helvetica,sans-Serif" font-size="10.00">bool isADown</text>
<text text-anchor="start" x="1079.5" y="-177.5" font-family="Helvetica,sans-Serif" font-size="10.00">#</text>
<text text-anchor="start" x="1092.5" y="-177.5" font-family="Helvetica,sans-Serif" font-size="10.00">bool isDDown</text>
<text text-anchor="start" x="1079.5" y="-162.5" font-family="Helvetica,sans-Serif" font-size="10.00">#</text>
<text text-anchor="start" x="1092.5" y="-162.5" font-family="Helvetica,sans-Serif" font-size="10.00">const float movementSpeed</text>
<text text-anchor="start" x="1079.5" y="-147.5" font-family="Helvetica,sans-Serif" font-size="10.00">+</text>
<text text-anchor="start" x="1092.5" y="-147.5" font-family="Helvetica,sans-Serif" font-size="10.00">PlayerKeyboardBehavior()</text>
<text text-anchor="start" x="1079.5" y="-132.5" font-family="Helvetica,sans-Serif" font-size="10.00">+</text>
<text text-anchor="start" x="1092.5" y="-132.5" font-family="Helvetica,sans-Serif" font-size="10.00">~PlayerKeyboardBehavior()</text>
<text text-anchor="start" x="1079.5" y="-117.5" font-family="Helvetica,sans-Serif" font-size="10.00">+</text>
<text text-anchor="start" x="1092.5" y="-117.5" font-family="Helvetica,sans-Serif" font-size="10.00">virtual void OnKeyDown</text>
<text text-anchor="start" x="1092.5" y="-106.5" font-family="Helvetica,sans-Serif" font-size="10.00">(SDL_KeyboardEvent &amp;e)</text>
<text text-anchor="start" x="1092.5" y="-95.5" font-family="Helvetica,sans-Serif" font-size="10.00"> override</text>
<text text-anchor="start" x="1079.5" y="-80.5" font-family="Helvetica,sans-Serif" font-size="10.00">+</text>
<text text-anchor="start" x="1092.5" y="-80.5" font-family="Helvetica,sans-Serif" font-size="10.00">virtual void OnKeyUp</text>
<text text-anchor="start" x="1092.5" y="-69.5" font-family="Helvetica,sans-Serif" font-size="10.00">(SDL_KeyboardEvent &amp;e)</text>
<text text-anchor="start" x="1092.5" y="-58.5" font-family="Helvetica,sans-Serif" font-size="10.00"> override</text>
<text text-anchor="start" x="1079.5" y="-43.5" font-family="Helvetica,sans-Serif" font-size="10.00">+</text>
<text text-anchor="start" x="1092.5" y="-43.5" font-family="Helvetica,sans-Serif" font-size="10.00">virtual void OnTick</text>
<text text-anchor="start" x="1092.5" y="-32.5" font-family="Helvetica,sans-Serif" font-size="10.00">() override</text>
<text text-anchor="start" x="1079.5" y="-17.5" font-family="Helvetica,sans-Serif" font-size="10.00">+</text>
<text text-anchor="start" x="1092.5" y="-17.5" font-family="Helvetica,sans-Serif" font-size="10.00">virtual void OnStart</text>
<text text-anchor="start" x="1092.5" y="-6.5" font-family="Helvetica,sans-Serif" font-size="10.00">() override</text>
<polygon fill="#666666" stroke="#666666" points="1075.5,-217.5 1075.5,-217.5 1234.5,-217.5 1234.5,-217.5 1075.5,-217.5"/>
<polygon fill="#666666" stroke="#666666" points="1075.5,-157.5 1075.5,-157.5 1090.5,-157.5 1090.5,-157.5 1075.5,-157.5"/>
<polygon fill="#666666" stroke="#666666" points="1090.5,-157.5 1090.5,-157.5 1234.5,-157.5 1234.5,-157.5 1090.5,-157.5"/>
<polygon fill="none" stroke="#666666" points="1075,0 1075,-235 1234,-235 1234,0 1075,0"/>
</a>
</g>
</g>
<!-- Node12&#45;&gt;Node14 -->
<g id="edge13_Node000012_Node000014" class="edge">
<title>Node12&#45;&gt;Node14</title>
<g id="a_edge13_Node000012_Node000014"><a xlink:title=" ">
<path fill="none" stroke="#63b8ff" d="M1075.18,-339.07C1085.79,-309.57 1099.52,-271.38 1112.57,-235.09"/>
<polygon fill="none" stroke="#63b8ff" points="1071.8,-338.13 1071.7,-348.72 1078.38,-340.5 1071.8,-338.13"/>
</a>
</g>
</g>
</g>
</svg>
