<?xml version="1.0" encoding="UTF-8" standalone="no"?>
<!DOCTYPE svg PUBLIC "-//W3C//DTD SVG 1.1//EN"
 "http://www.w3.org/Graphics/SVG/1.1/DTD/svg11.dtd">
<!-- Generated by graphviz version 2.43.0 (0)
 -->
<!-- Title: game/behaviors/coffee/CoffeeBehavior.cpp Pages: 1 -->
<svg width="557pt" height="390pt"
 viewBox="0.00 0.00 556.50 390.00" xmlns="http://www.w3.org/2000/svg" xmlns:xlink="http://www.w3.org/1999/xlink">
<g id="graph0" class="graph" transform="scale(1 1) rotate(0) translate(4 386)">
<title>game/behaviors/coffee/CoffeeBehavior.cpp</title>
<!-- Node1 -->
<g id="node1" class="node">
<title>Node1</title>
<g id="a_node1"><a xlink:title=" ">
<polygon fill="#999999" stroke="#666666" points="367,-382 239,-382 239,-352 367,-352 367,-382"/>
<text text-anchor="start" x="247" y="-370" font-family="Helvetica,sans-Serif" font-size="10.00">game/behaviors/coffee</text>
<text text-anchor="middle" x="303" y="-359" font-family="Helvetica,sans-Serif" font-size="10.00">/CoffeeBehavior.cpp</text>
</a>
</g>
</g>
<!-- Node2 -->
<g id="node2" class="node">
<title>Node2</title>
<g id="a_node2"><a xlink:href="../../db/d99/CoffeeBehavior_8hpp.html" target="_top" xlink:title=" ">
<polygon fill="white" stroke="#666666" points="317,-316 205,-316 205,-297 317,-297 317,-316"/>
<text text-anchor="middle" x="261" y="-304" font-family="Helvetica,sans-Serif" font-size="10.00">CoffeeBehavior.hpp</text>
</a>
</g>
</g>
<!-- Node1&#45;&gt;Node2 -->
<g id="edge1" class="edge">
<title>Node1&#45;&gt;Node2</title>
<path fill="none" stroke="#63b8ff" d="M292.83,-351.84C286.92,-343.61 279.44,-333.18 273.21,-324.51"/>
<polygon fill="#63b8ff" stroke="#63b8ff" points="275.97,-322.35 267.29,-316.27 270.28,-326.43 275.97,-322.35"/>
</g>
<!-- Node13 -->
<g id="node13" class="node">
<title>Node13</title>
<g id="a_node13"><a xlink:href="../../d7/dd0/GameManagement_8hpp.html" target="_top" xlink:title=" ">
<polygon fill="white" stroke="#666666" points="500,-195 306,-195 306,-176 500,-176 500,-195"/>
<text text-anchor="middle" x="403" y="-183" font-family="Helvetica,sans-Serif" font-size="10.00">../../../engine/GameManagement.hpp</text>
</a>
</g>
</g>
<!-- Node1&#45;&gt;Node13 -->
<g id="edge12" class="edge">
<title>Node1&#45;&gt;Node13</title>
<path fill="none" stroke="#63b8ff" d="M310.85,-351.91C328.94,-319.43 373.56,-239.34 393.32,-203.88"/>
<polygon fill="#63b8ff" stroke="#63b8ff" points="396.38,-205.57 398.19,-195.13 390.27,-202.17 396.38,-205.57"/>
</g>
<!-- Node3 -->
<g id="node3" class="node">
<title>Node3</title>
<g id="a_node3"><a xlink:href="../../d4/d8e/Behavior_8hpp.html" target="_top" xlink:title=" ">
<polygon fill="white" stroke="#666666" points="299,-261 159,-261 159,-231 299,-231 299,-261"/>
<text text-anchor="start" x="167" y="-249" font-family="Helvetica,sans-Serif" font-size="10.00">../../../engine/components</text>
<text text-anchor="middle" x="229" y="-238" font-family="Helvetica,sans-Serif" font-size="10.00">/behaviors/Behavior.hpp</text>
</a>
</g>
</g>
<!-- Node2&#45;&gt;Node3 -->
<g id="edge2" class="edge">
<title>Node2&#45;&gt;Node3</title>
<path fill="none" stroke="#63b8ff" d="M256.28,-296.87C252.42,-289.81 246.78,-279.5 241.63,-270.08"/>
<polygon fill="#63b8ff" stroke="#63b8ff" points="244.59,-268.21 236.72,-261.11 238.45,-271.57 244.59,-268.21"/>
</g>
<!-- Node4 -->
<g id="node4" class="node">
<title>Node4</title>
<g id="a_node4"><a xlink:href="../../d2/d69/GameObjectComponent_8hpp.html" target="_top" xlink:title=" ">
<polygon fill="white" stroke="#666666" points="262,-195 98,-195 98,-176 262,-176 262,-195"/>
<text text-anchor="middle" x="180" y="-183" font-family="Helvetica,sans-Serif" font-size="10.00">../GameObjectComponent.hpp</text>
</a>
</g>
</g>
<!-- Node3&#45;&gt;Node4 -->
<g id="edge3" class="edge">
<title>Node3&#45;&gt;Node4</title>
<path fill="none" stroke="#63b8ff" d="M217.14,-230.84C210.1,-222.43 201.14,-211.74 193.79,-202.96"/>
<polygon fill="#63b8ff" stroke="#63b8ff" points="196.45,-200.68 187.34,-195.27 191.08,-205.18 196.45,-200.68"/>
</g>
<!-- Node5 -->
<g id="node5" class="node">
<title>Node5</title>
<g id="a_node5"><a xlink:title=" ">
<polygon fill="#e0e0e0" stroke="#999999" points="108.5,-140 55.5,-140 55.5,-121 108.5,-121 108.5,-140"/>
<text text-anchor="middle" x="82" y="-128" font-family="Helvetica,sans-Serif" font-size="10.00">cstddef</text>
</a>
</g>
</g>
<!-- Node4&#45;&gt;Node5 -->
<g id="edge4" class="edge">
<title>Node4&#45;&gt;Node5</title>
<path fill="none" stroke="#63b8ff" d="M164.25,-175.98C148.77,-167.61 124.91,-154.7 106.86,-144.95"/>
<polygon fill="#63b8ff" stroke="#63b8ff" points="108.49,-141.85 98.03,-140.17 105.16,-148.01 108.49,-141.85"/>
</g>
<!-- Node6 -->
<g id="node6" class="node">
<title>Node6</title>
<g id="a_node6"><a xlink:href="../../d4/db5/GameObject_8hpp.html" target="_top" xlink:title=" ">
<polygon fill="white" stroke="#666666" points="233.5,-140 126.5,-140 126.5,-121 233.5,-121 233.5,-140"/>
<text text-anchor="middle" x="180" y="-128" font-family="Helvetica,sans-Serif" font-size="10.00">../GameObject.hpp</text>
</a>
</g>
</g>
<!-- Node4&#45;&gt;Node6 -->
<g id="edge5" class="edge">
<title>Node4&#45;&gt;Node6</title>
<path fill="none" stroke="#63b8ff" d="M180,-175.75C180,-168.8 180,-158.85 180,-150.13"/>
<polygon fill="#63b8ff" stroke="#63b8ff" points="183.5,-150.09 180,-140.09 176.5,-150.09 183.5,-150.09"/>
</g>
<!-- Node7 -->
<g id="node7" class="node">
<title>Node7</title>
<g id="a_node7"><a xlink:href="../../d9/d4a/Vector2_8hpp.html" target="_top" xlink:title=" ">
<polygon fill="white" stroke="#666666" points="74,-79.5 0,-79.5 0,-60.5 74,-60.5 74,-79.5"/>
<text text-anchor="middle" x="37" y="-67.5" font-family="Helvetica,sans-Serif" font-size="10.00">Vector2.hpp</text>
</a>
</g>
</g>
<!-- Node6&#45;&gt;Node7 -->
<g id="edge6" class="edge">
<title>Node6&#45;&gt;Node7</title>
<path fill="none" stroke="#63b8ff" d="M159.21,-120.99C135.06,-111.12 95.02,-94.73 67.38,-83.43"/>
<polygon fill="#63b8ff" stroke="#63b8ff" points="68.4,-80.06 57.82,-79.52 65.75,-86.54 68.4,-80.06"/>
</g>
<!-- Node8 -->
<g id="node8" class="node">
<title>Node8</title>
<g id="a_node8"><a xlink:href="../../d4/d71/ComponentNotFoundException_8hpp.html" target="_top" xlink:title=" ">
<polygon fill="white" stroke="#666666" points="268,-85 92,-85 92,-55 268,-55 268,-85"/>
<text text-anchor="start" x="100" y="-73" font-family="Helvetica,sans-Serif" font-size="10.00">exceptions/ComponentNotFound</text>
<text text-anchor="middle" x="180" y="-62" font-family="Helvetica,sans-Serif" font-size="10.00">Exception.hpp</text>
</a>
</g>
</g>
<!-- Node6&#45;&gt;Node8 -->
<g id="edge7" class="edge">
<title>Node6&#45;&gt;Node8</title>
<path fill="none" stroke="#63b8ff" d="M180,-120.87C180,-114.11 180,-104.35 180,-95.26"/>
<polygon fill="#63b8ff" stroke="#63b8ff" points="183.5,-95.11 180,-85.11 176.5,-95.11 183.5,-95.11"/>
</g>
<!-- Node10 -->
<g id="node10" class="node">
<title>Node10</title>
<g id="a_node10"><a xlink:title=" ">
<polygon fill="#e0e0e0" stroke="#999999" points="432,-79.5 374,-79.5 374,-60.5 432,-60.5 432,-79.5"/>
<text text-anchor="middle" x="403" y="-67.5" font-family="Helvetica,sans-Serif" font-size="10.00">memory</text>
</a>
</g>
</g>
<!-- Node6&#45;&gt;Node10 -->
<g id="edge9" class="edge">
<title>Node6&#45;&gt;Node10</title>
<path fill="none" stroke="#63b8ff" d="M212.43,-120.99C252.57,-110.46 320.9,-92.54 363.91,-81.26"/>
<polygon fill="#63b8ff" stroke="#63b8ff" points="364.95,-84.6 373.73,-78.68 363.17,-77.83 364.95,-84.6"/>
</g>
<!-- Node11 -->
<g id="node11" class="node">
<title>Node11</title>
<g id="a_node11"><a xlink:title=" ">
<polygon fill="#e0e0e0" stroke="#999999" points="330,-79.5 286,-79.5 286,-60.5 330,-60.5 330,-79.5"/>
<text text-anchor="middle" x="308" y="-67.5" font-family="Helvetica,sans-Serif" font-size="10.00">string</text>
</a>
</g>
</g>
<!-- Node6&#45;&gt;Node11 -->
<g id="edge10" class="edge">
<title>Node6&#45;&gt;Node11</title>
<path fill="none" stroke="#63b8ff" d="M198.61,-120.99C220.04,-111.2 255.44,-95.02 280.15,-83.73"/>
<polygon fill="#63b8ff" stroke="#63b8ff" points="281.72,-86.86 289.37,-79.52 278.82,-80.49 281.72,-86.86"/>
</g>
<!-- Node12 -->
<g id="node12" class="node">
<title>Node12</title>
<g id="a_node12"><a xlink:title=" ">
<polygon fill="#e0e0e0" stroke="#999999" points="548.5,-79.5 501.5,-79.5 501.5,-60.5 548.5,-60.5 548.5,-79.5"/>
<text text-anchor="middle" x="525" y="-67.5" font-family="Helvetica,sans-Serif" font-size="10.00">vector</text>
</a>
</g>
</g>
<!-- Node6&#45;&gt;Node12 -->
<g id="edge11" class="edge">
<title>Node6&#45;&gt;Node12</title>
<path fill="none" stroke="#63b8ff" d="M230.17,-120.99C301.54,-108.89 430.48,-87.03 491.39,-76.7"/>
<polygon fill="#63b8ff" stroke="#63b8ff" points="491.98,-80.15 501.26,-75.03 490.81,-73.25 491.98,-80.15"/>
</g>
<!-- Node9 -->
<g id="node9" class="node">
<title>Node9</title>
<g id="a_node9"><a xlink:title=" ">
<polygon fill="#e0e0e0" stroke="#999999" points="212.5,-19 147.5,-19 147.5,0 212.5,0 212.5,-19"/>
<text text-anchor="middle" x="180" y="-7" font-family="Helvetica,sans-Serif" font-size="10.00">exception</text>
</a>
</g>
</g>
<!-- Node8&#45;&gt;Node9 -->
<g id="edge8" class="edge">
<title>Node8&#45;&gt;Node9</title>
<path fill="none" stroke="#63b8ff" d="M180,-54.84C180,-47.21 180,-37.7 180,-29.45"/>
<polygon fill="#63b8ff" stroke="#63b8ff" points="183.5,-29.27 180,-19.27 176.5,-29.27 183.5,-29.27"/>
</g>
<!-- Node13&#45;&gt;Node6 -->
<g id="edge13" class="edge">
<title>Node13&#45;&gt;Node6</title>
<path fill="none" stroke="#63b8ff" d="M367.17,-175.98C328.84,-166.87 267.92,-152.4 226.05,-142.45"/>
<polygon fill="#63b8ff" stroke="#63b8ff" points="226.65,-138.99 216.11,-140.08 225.03,-145.8 226.65,-138.99"/>
</g>
<!-- Node13&#45;&gt;Node10 -->
<g id="edge16" class="edge">
<title>Node13&#45;&gt;Node10</title>
<path fill="none" stroke="#63b8ff" d="M441.01,-175.85C460.12,-169.37 481.6,-158.36 493,-140 509.1,-114.08 472.73,-94.26 441.51,-82.65"/>
<polygon fill="#63b8ff" stroke="#63b8ff" points="442.65,-79.34 432.05,-79.31 440.32,-85.94 442.65,-79.34"/>
</g>
<!-- Node13&#45;&gt;Node12 -->
<g id="edge17" class="edge">
<title>Node13&#45;&gt;Node12</title>
<path fill="none" stroke="#63b8ff" d="M445.78,-175.96C467.35,-169.53 492.2,-158.54 508,-140 519.86,-126.08 523.69,-105.15 524.8,-89.99"/>
<polygon fill="#63b8ff" stroke="#63b8ff" points="528.31,-89.87 525.22,-79.74 521.32,-89.59 528.31,-89.87"/>
</g>
<!-- Node14 -->
<g id="node14" class="node">
<title>Node14</title>
<g id="a_node14"><a xlink:title=" ">
<polygon fill="#e0e0e0" stroke="#999999" points="358,-140 252,-140 252,-121 358,-121 358,-140"/>
<text text-anchor="middle" x="305" y="-128" font-family="Helvetica,sans-Serif" font-size="10.00">SDL3/SDL_pixels.h</text>
</a>
</g>
</g>
<!-- Node13&#45;&gt;Node14 -->
<g id="edge14" class="edge">
<title>Node13&#45;&gt;Node14</title>
<path fill="none" stroke="#63b8ff" d="M387.25,-175.98C371.77,-167.61 347.91,-154.7 329.86,-144.95"/>
<polygon fill="#63b8ff" stroke="#63b8ff" points="331.49,-141.85 321.03,-140.17 328.16,-148.01 331.49,-141.85"/>
</g>
<!-- Node15 -->
<g id="node15" class="node">
<title>Node15</title>
<g id="a_node15"><a xlink:title=" ">
<polygon fill="#e0e0e0" stroke="#999999" points="484,-140 376,-140 376,-121 484,-121 484,-140"/>
<text text-anchor="middle" x="430" y="-128" font-family="Helvetica,sans-Serif" font-size="10.00">SDL3/SDL_render.h</text>
</a>
</g>
</g>
<!-- Node13&#45;&gt;Node15 -->
<g id="edge15" class="edge">
<title>Node13&#45;&gt;Node15</title>
<path fill="none" stroke="#63b8ff" d="M407.46,-175.75C411.12,-168.57 416.41,-158.18 420.95,-149.27"/>
<polygon fill="#63b8ff" stroke="#63b8ff" points="424.2,-150.59 425.62,-140.09 417.97,-147.41 424.2,-150.59"/>
</g>
</g>
</svg>
