<?xml version="1.0" encoding="UTF-8" standalone="no"?>
<!DOCTYPE svg PUBLIC "-//W3C//DTD SVG 1.1//EN"
 "http://www.w3.org/Graphics/SVG/1.1/DTD/svg11.dtd">
<!-- Generated by graphviz version 2.43.0 (0)
 -->
<!-- Title: GravityBehavior Pages: 1 -->
<svg width="197pt" height="395pt"
 viewBox="0.00 0.00 197.00 395.00" xmlns="http://www.w3.org/2000/svg" xmlns:xlink="http://www.w3.org/1999/xlink">
<g id="graph0" class="graph" transform="scale(1 1) rotate(0) translate(4 391)">
<title>GravityBehavior</title>
<!-- Node1 -->
<g id="Node000001" class="node">
<title>Node1</title>
<g id="a_Node000001"><a xlink:title="Component that gives an object gravity.">
<polygon fill="#999999" stroke="transparent" points="161,-105 28,-105 28,0 161,0 161,-105"/>
<text text-anchor="start" x="55" y="-92.5" font-family="Helvetica,sans-Serif" font-size="10.00">GravityBehavior</text>
<text text-anchor="start" x="32.5" y="-77.5" font-family="Helvetica,sans-Serif" font-size="10.00">#</text>
<text text-anchor="start" x="45.5" y="-77.5" font-family="Helvetica,sans-Serif" font-size="10.00">float gravityScale</text>
<text text-anchor="start" x="32.5" y="-62.5" font-family="Helvetica,sans-Serif" font-size="10.00">+</text>
<text text-anchor="start" x="45.5" y="-62.5" font-family="Helvetica,sans-Serif" font-size="10.00">float getGravityScale()</text>
<text text-anchor="start" x="32.5" y="-47.5" font-family="Helvetica,sans-Serif" font-size="10.00">+</text>
<text text-anchor="start" x="45.5" y="-47.5" font-family="Helvetica,sans-Serif" font-size="10.00">void setGravityScale</text>
<text text-anchor="start" x="45.5" y="-36.5" font-family="Helvetica,sans-Serif" font-size="10.00">(float value)</text>
<text text-anchor="start" x="32.5" y="-21.5" font-family="Helvetica,sans-Serif" font-size="10.00">+</text>
<text text-anchor="start" x="45.5" y="-21.5" font-family="Helvetica,sans-Serif" font-size="10.00">void OnTick() override</text>
<text text-anchor="start" x="32.5" y="-6.5" font-family="Helvetica,sans-Serif" font-size="10.00">+</text>
<text text-anchor="start" x="45.5" y="-6.5" font-family="Helvetica,sans-Serif" font-size="10.00">void OnStart() override</text>
<polygon fill="#666666" stroke="#666666" points="28.5,-87.5 28.5,-87.5 161.5,-87.5 161.5,-87.5 28.5,-87.5"/>
<polygon fill="#666666" stroke="#666666" points="28.5,-72.5 28.5,-72.5 43.5,-72.5 43.5,-72.5 28.5,-72.5"/>
<polygon fill="#666666" stroke="#666666" points="43.5,-72.5 43.5,-72.5 161.5,-72.5 161.5,-72.5 43.5,-72.5"/>
<polygon fill="none" stroke="#666666" points="28,0 28,-105 161,-105 161,0 28,0"/>
</a>
</g>
</g>
<!-- Node2 -->
<g id="Node000002" class="node">
<title>Node2</title>
<g id="a_Node000002"><a xlink:href="../../df/dc1/classBehavior.html" target="_top" xlink:title="An abstract gameobject behavior.">
<polygon fill="white" stroke="transparent" points="121.5,-190 67.5,-190 67.5,-141 121.5,-141 121.5,-190"/>
<text text-anchor="start" x="72.5" y="-177.5" font-family="Helvetica,sans-Serif" font-size="10.00">Behavior</text>
<text text-anchor="start" x="92.5" y="-162.5" font-family="Helvetica,sans-Serif" font-size="10.00"> </text>
<text text-anchor="start" x="92.5" y="-147.5" font-family="Helvetica,sans-Serif" font-size="10.00"> </text>
<polygon fill="#666666" stroke="#666666" points="67.5,-172.5 67.5,-172.5 121.5,-172.5 121.5,-172.5 67.5,-172.5"/>
<polygon fill="#666666" stroke="#666666" points="67.5,-157.5 67.5,-157.5 121.5,-157.5 121.5,-157.5 67.5,-157.5"/>
<polygon fill="none" stroke="#666666" points="67.5,-141 67.5,-190 121.5,-190 121.5,-141 67.5,-141"/>
</a>
</g>
</g>
<!-- Node2&#45;&gt;Node1 -->
<g id="edge1_Node000001_Node000002" class="edge">
<title>Node2&#45;&gt;Node1</title>
<g id="a_edge1_Node000001_Node000002"><a xlink:title=" ">
<path fill="none" stroke="#63b8ff" d="M94.5,-130.85C94.5,-122.79 94.5,-114 94.5,-105.32"/>
<polygon fill="none" stroke="#63b8ff" points="91,-130.96 94.5,-140.96 98,-130.96 91,-130.96"/>
</a>
</g>
</g>
<!-- Node3 -->
<g id="Node000003" class="node">
<title>Node3</title>
<g id="a_Node000003"><a xlink:href="../../d9/df7/classGameObjectComponent.html" target="_top" xlink:title="An abstract gameobject component. Has an OnTick and OnStart method. Subclasses may be registered to a...">
<polygon fill="white" stroke="transparent" points="189,-387 0,-387 0,-226 189,-226 189,-387"/>
<text text-anchor="start" x="36" y="-374.5" font-family="Helvetica,sans-Serif" font-size="10.00">GameObjectComponent</text>
<text text-anchor="start" x="4.5" y="-359.5" font-family="Helvetica,sans-Serif" font-size="10.00">#</text>
<text text-anchor="start" x="17.5" y="-359.5" font-family="Helvetica,sans-Serif" font-size="10.00">bool enabled</text>
<text text-anchor="start" x="4.5" y="-344.5" font-family="Helvetica,sans-Serif" font-size="10.00">#</text>
<text text-anchor="start" x="17.5" y="-344.5" font-family="Helvetica,sans-Serif" font-size="10.00">GameObject * parent</text>
<text text-anchor="start" x="4.5" y="-329.5" font-family="Helvetica,sans-Serif" font-size="10.00">+</text>
<text text-anchor="start" x="17.5" y="-329.5" font-family="Helvetica,sans-Serif" font-size="10.00">bool getEnabled() const</text>
<text text-anchor="start" x="4.5" y="-314.5" font-family="Helvetica,sans-Serif" font-size="10.00">+</text>
<text text-anchor="start" x="17.5" y="-314.5" font-family="Helvetica,sans-Serif" font-size="10.00">void setEnabled(bool</text>
<text text-anchor="start" x="17.5" y="-303.5" font-family="Helvetica,sans-Serif" font-size="10.00"> value)</text>
<text text-anchor="start" x="4.5" y="-288.5" font-family="Helvetica,sans-Serif" font-size="10.00">+</text>
<text text-anchor="start" x="17.5" y="-288.5" font-family="Helvetica,sans-Serif" font-size="10.00">void setParent(GameObject</text>
<text text-anchor="start" x="17.5" y="-277.5" font-family="Helvetica,sans-Serif" font-size="10.00"> *value)</text>
<text text-anchor="start" x="4.5" y="-262.5" font-family="Helvetica,sans-Serif" font-size="10.00">+</text>
<text text-anchor="start" x="17.5" y="-262.5" font-family="Helvetica,sans-Serif" font-size="10.00">virtual ~GameObjectComponent()</text>
<text text-anchor="start" x="4.5" y="-247.5" font-family="Helvetica,sans-Serif" font-size="10.00">+</text>
<text text-anchor="start" x="17.5" y="-247.5" font-family="Helvetica,sans-Serif" font-size="10.00">virtual void OnTick()=0</text>
<text text-anchor="start" x="4.5" y="-232.5" font-family="Helvetica,sans-Serif" font-size="10.00">+</text>
<text text-anchor="start" x="17.5" y="-232.5" font-family="Helvetica,sans-Serif" font-size="10.00">virtual void OnStart()=0</text>
<polygon fill="#666666" stroke="#666666" points="0.5,-369.5 0.5,-369.5 189.5,-369.5 189.5,-369.5 0.5,-369.5"/>
<polygon fill="#666666" stroke="#666666" points="0.5,-339.5 0.5,-339.5 15.5,-339.5 15.5,-339.5 0.5,-339.5"/>
<polygon fill="#666666" stroke="#666666" points="15.5,-339.5 15.5,-339.5 189.5,-339.5 189.5,-339.5 15.5,-339.5"/>
<polygon fill="none" stroke="#666666" points="0,-226 0,-387 189,-387 189,-226 0,-226"/>
</a>
</g>
</g>
<!-- Node3&#45;&gt;Node2 -->
<g id="edge2_Node000002_Node000003" class="edge">
<title>Node3&#45;&gt;Node2</title>
<g id="a_edge2_Node000002_Node000003"><a xlink:title=" ">
<path fill="none" stroke="#63b8ff" d="M94.5,-215.64C94.5,-206.4 94.5,-197.68 94.5,-190.22"/>
<polygon fill="none" stroke="#63b8ff" points="91,-215.85 94.5,-225.85 98,-215.85 91,-215.85"/>
</a>
</g>
</g>
</g>
</svg>
