<?xml version="1.0" encoding="UTF-8" standalone="no"?>
<!DOCTYPE svg PUBLIC "-//W3C//DTD SVG 1.1//EN"
 "http://www.w3.org/Graphics/SVG/1.1/DTD/svg11.dtd">
<!-- Generated by graphviz version 2.43.0 (0)
 -->
<!-- Title: EnemyCollisionBehavior Pages: 1 -->
<!--zoomable 1347 -->

<svg id="main" version="1.1" xmlns="http://www.w3.org/2000/svg" xmlns:xlink="http://www.w3.org/1999/xlink" xml:space="preserve" onload="init(evt)">

<style type="text/css"><![CDATA[
.node, .edge {opacity: 0.7;}
.node.selected, .edge.selected {opacity: 1;}
.edge:hover path { stroke: red; }
.edge:hover polygon { stroke: red; fill: red; }
]]></style>

<defs>
  <circle id="rim" cx="0" cy="0" r="7"/>
  <circle id="rim2" cx="0" cy="0" r="3.5"/>
  <g id="zoomPlus">
    <use xlink:href="#rim" fill="#404040"><set attributeName="fill" to="#808080" begin="zoomplus.mouseover" end="zoomplus.mouseout"/></use>
    <path d="M-4,0h8M0,-4v8" fill="none" stroke="white" stroke-width="1.5" pointer-events="none"/>
  </g>
  <g id="zoomMin">
    <use xlink:href="#rim" fill="#404040"><set attributeName="fill" to="#808080" begin="zoomminus.mouseover" end="zoomminus.mouseout"/></use>
    <path d="M-4,0h8" fill="none" stroke="white" stroke-width="1.5" pointer-events="none"/>
  </g>
  <g id="arrowUp" transform="translate(30 24)">
    <use xlink:href="#rim"/>
    <path pointer-events="none" fill="none" stroke="white" stroke-width="1.5" d="M0,-3.0v7 M-2.5,-0.5L0,-3.0L2.5,-0.5"/>
  </g>
  <g id="arrowRight" transform="rotate(90) translate(36 -43)">
    <use xlink:href="#rim"/>
    <path pointer-events="none" fill="none" stroke="white" stroke-width="1.5" d="M0,-3.0v7 M-2.5,-0.5L0,-3.0L2.5,-0.5"/>
  </g>
  <g id="arrowDown" transform="rotate(180) translate(-30 -48)">
    <use xlink:href="#rim"/>
    <path pointer-events="none" fill="none" stroke="white" stroke-width="1.5" d="M0,-3.0v7 M-2.5,-0.5L0,-3.0L2.5,-0.5"/>
  </g>
  <g id="arrowLeft" transform="rotate(270) translate(-36 17)">
    <use xlink:href="#rim"/>
    <path pointer-events="none" fill="none" stroke="white" stroke-width="1.5" d="M0,-3.0v7 M-2.5,-0.5L0,-3.0L2.5,-0.5"/>
  </g>
  <g id="resetDef">
    <use xlink:href="#rim2" fill="#404040"><set attributeName="fill" to="#808080" begin="reset.mouseover" end="reset.mouseout"/></use>
  </g>
</defs>
<script type="application/ecmascript">
var viewWidth = 197;
var viewHeight = 1347;
var sectionId = 'dynsection-1';
</script>
<script type="application/ecmascript" xlink:href="../../svg.min.js"/>
<svg id="graph" class="graph">
<g id="viewport">
<title>EnemyCollisionBehavior</title>
<!-- Node1 -->
<g id="Node000001" class="node">
<title>Node1</title>
<g id="a_Node000001"><a xlink:title="Controlls the behavior of an enemy on collision.">
<polygon fill="#999999" stroke="transparent" points="179.5,-112 9.5,-112 9.5,0 179.5,0 179.5,-112"/>
<text text-anchor="start" x="34.5" y="-100" font-family="Helvetica,sans-Serif" font-size="10.00">EnemyCollisionBehavior</text>
<text text-anchor="start" x="92.5" y="-85" font-family="Helvetica,sans-Serif" font-size="10.00"> </text>
<text text-anchor="start" x="13.5" y="-70" font-family="Helvetica,sans-Serif" font-size="10.00">+</text>
<text text-anchor="start" x="26.5" y="-70" font-family="Helvetica,sans-Serif" font-size="10.00">EnemyCollisionBehavior()</text>
<text text-anchor="start" x="13.5" y="-55" font-family="Helvetica,sans-Serif" font-size="10.00">+</text>
<text text-anchor="start" x="26.5" y="-55" font-family="Helvetica,sans-Serif" font-size="10.00">EnemyCollisionBehavior</text>
<text text-anchor="start" x="26.5" y="-44" font-family="Helvetica,sans-Serif" font-size="10.00">(int x, int y)</text>
<text text-anchor="start" x="13.5" y="-29" font-family="Helvetica,sans-Serif" font-size="10.00">+</text>
<text text-anchor="start" x="26.5" y="-29" font-family="Helvetica,sans-Serif" font-size="10.00">virtual void BeforeCollision</text>
<text text-anchor="start" x="26.5" y="-18" font-family="Helvetica,sans-Serif" font-size="10.00">(std::shared_ptr&lt; GameObject</text>
<text text-anchor="start" x="26.5" y="-7" font-family="Helvetica,sans-Serif" font-size="10.00"> &gt; other) override</text>
<polygon fill="#666666" stroke="#666666" points="9.5,-95 9.5,-95 179.5,-95 179.5,-95 9.5,-95"/>
<polygon fill="#666666" stroke="#666666" points="9.5,-80 9.5,-80 179.5,-80 179.5,-80 9.5,-80"/>
<polygon fill="none" stroke="#666666" points="9.5,0 9.5,-112 179.5,-112 179.5,0 9.5,0"/>
</a>
</g>
</g>
<!-- Node2 -->
<g id="Node000002" class="node">
<title>Node2</title>
<g id="a_Node000002"><a xlink:href="../../d9/df0/classCollisionBehavior.html" target="_top" xlink:title="Controlls collision of an object with other objects that also have this or a child component.">
<polygon fill="white" stroke="transparent" points="179.5,-391 9.5,-391 9.5,-149 179.5,-149 179.5,-391"/>
<text text-anchor="start" x="51.5" y="-379" font-family="Helvetica,sans-Serif" font-size="10.00">CollisionBehavior</text>
<text text-anchor="start" x="13.5" y="-364" font-family="Helvetica,sans-Serif" font-size="10.00">#</text>
<text text-anchor="start" x="26.5" y="-364" font-family="Helvetica,sans-Serif" font-size="10.00">std::shared_ptr&lt; Vector2</text>
<text text-anchor="start" x="26.5" y="-353" font-family="Helvetica,sans-Serif" font-size="10.00"> &gt; colliderSize</text>
<text text-anchor="start" x="13.5" y="-338" font-family="Helvetica,sans-Serif" font-size="10.00">+</text>
<text text-anchor="start" x="26.5" y="-338" font-family="Helvetica,sans-Serif" font-size="10.00">bool IsPointInsideCollider</text>
<text text-anchor="start" x="26.5" y="-327" font-family="Helvetica,sans-Serif" font-size="10.00">(Vector2 position)</text>
<text text-anchor="start" x="13.5" y="-312" font-family="Helvetica,sans-Serif" font-size="10.00">+</text>
<text text-anchor="start" x="26.5" y="-312" font-family="Helvetica,sans-Serif" font-size="10.00">void OnTick() override</text>
<text text-anchor="start" x="13.5" y="-297" font-family="Helvetica,sans-Serif" font-size="10.00">+</text>
<text text-anchor="start" x="26.5" y="-297" font-family="Helvetica,sans-Serif" font-size="10.00">void OnStart() override</text>
<text text-anchor="start" x="13.5" y="-282" font-family="Helvetica,sans-Serif" font-size="10.00">+</text>
<text text-anchor="start" x="26.5" y="-282" font-family="Helvetica,sans-Serif" font-size="10.00">const std::shared_ptr</text>
<text text-anchor="start" x="26.5" y="-271" font-family="Helvetica,sans-Serif" font-size="10.00">&lt; Vector2 &gt; getColliderSize()</text>
<text text-anchor="start" x="13.5" y="-256" font-family="Helvetica,sans-Serif" font-size="10.00">+</text>
<text text-anchor="start" x="26.5" y="-256" font-family="Helvetica,sans-Serif" font-size="10.00">virtual void BeforeCollision</text>
<text text-anchor="start" x="26.5" y="-245" font-family="Helvetica,sans-Serif" font-size="10.00">(std::shared_ptr&lt; GameObject</text>
<text text-anchor="start" x="26.5" y="-234" font-family="Helvetica,sans-Serif" font-size="10.00"> &gt; other)</text>
<text text-anchor="start" x="13.5" y="-219" font-family="Helvetica,sans-Serif" font-size="10.00">+</text>
<text text-anchor="start" x="26.5" y="-219" font-family="Helvetica,sans-Serif" font-size="10.00">CollisionBehavior()</text>
<text text-anchor="start" x="13.5" y="-204" font-family="Helvetica,sans-Serif" font-size="10.00">+</text>
<text text-anchor="start" x="26.5" y="-204" font-family="Helvetica,sans-Serif" font-size="10.00">CollisionBehavior</text>
<text text-anchor="start" x="26.5" y="-193" font-family="Helvetica,sans-Serif" font-size="10.00">(int x, int y)</text>
<text text-anchor="start" x="13.5" y="-178" font-family="Helvetica,sans-Serif" font-size="10.00">#</text>
<text text-anchor="start" x="26.5" y="-178" font-family="Helvetica,sans-Serif" font-size="10.00">bool CheckForCollision</text>
<text text-anchor="start" x="26.5" y="-167" font-family="Helvetica,sans-Serif" font-size="10.00">(std::shared_ptr&lt; GameObject</text>
<text text-anchor="start" x="26.5" y="-156" font-family="Helvetica,sans-Serif" font-size="10.00"> &gt; other)</text>
<polygon fill="#666666" stroke="#666666" points="9.5,-374 9.5,-374 179.5,-374 179.5,-374 9.5,-374"/>
<polygon fill="#666666" stroke="#666666" points="9.5,-348 9.5,-348 24.5,-348 24.5,-348 9.5,-348"/>
<polygon fill="#666666" stroke="#666666" points="24.5,-348 24.5,-348 179.5,-348 179.5,-348 24.5,-348"/>
<polygon fill="none" stroke="#666666" points="9.5,-149 9.5,-391 179.5,-391 179.5,-149 9.5,-149"/>
</a>
</g>
</g>
<!-- Node2&#45;&gt;Node1 -->
<g id="edge1_Node000001_Node000002" class="edge">
<title>Node2&#45;&gt;Node1</title>
<g id="a_edge1_Node000001_Node000002"><a xlink:title=" ">
<path fill="none" stroke="#63b8ff" d="M94.5,-138.7C94.5,-129.51 94.5,-120.58 94.5,-112.21"/>
<polygon fill="none" stroke="#63b8ff" points="91,-138.75 94.5,-148.75 98,-138.75 91,-138.75"/>
</a>
</g>
</g>
<!-- Node3 -->
<g id="Node000003" class="node">
<title>Node3</title>
<g id="a_Node000003"><a xlink:href="../../df/dc1/classBehavior.html" target="_top" xlink:title="An abstract gameobject behavior.">
<polygon fill="white" stroke="transparent" points="121.5,-477 67.5,-477 67.5,-428 121.5,-428 121.5,-477"/>
<text text-anchor="start" x="72.5" y="-464.5" font-family="Helvetica,sans-Serif" font-size="10.00">Behavior</text>
<text text-anchor="start" x="92.5" y="-449.5" font-family="Helvetica,sans-Serif" font-size="10.00"> </text>
<text text-anchor="start" x="92.5" y="-434.5" font-family="Helvetica,sans-Serif" font-size="10.00"> </text>
<polygon fill="#666666" stroke="#666666" points="67.5,-459.5 67.5,-459.5 121.5,-459.5 121.5,-459.5 67.5,-459.5"/>
<polygon fill="#666666" stroke="#666666" points="67.5,-444.5 67.5,-444.5 121.5,-444.5 121.5,-444.5 67.5,-444.5"/>
<polygon fill="none" stroke="#666666" points="67.5,-428 67.5,-477 121.5,-477 121.5,-428 67.5,-428"/>
</a>
</g>
</g>
<!-- Node3&#45;&gt;Node2 -->
<g id="edge2_Node000002_Node000003" class="edge">
<title>Node3&#45;&gt;Node2</title>
<g id="a_edge2_Node000002_Node000003"><a xlink:title=" ">
<path fill="none" stroke="#63b8ff" d="M94.5,-417.88C94.5,-409.78 94.5,-400.65 94.5,-391.02"/>
<polygon fill="none" stroke="#63b8ff" points="91,-417.9 94.5,-427.9 98,-417.9 91,-417.9"/>
</a>
</g>
</g>
<!-- Node4 -->
<g id="Node000004" class="node">
<title>Node4</title>
<g id="a_Node000004"><a xlink:href="../../d9/df7/classGameObjectComponent.html" target="_top" xlink:title="An abstract gameobject component.">
<polygon fill="white" stroke="transparent" points="189,-660 0,-660 0,-514 189,-514 189,-660"/>
<text text-anchor="start" x="36" y="-648" font-family="Helvetica,sans-Serif" font-size="10.00">GameObjectComponent</text>
<text text-anchor="start" x="4.5" y="-633" font-family="Helvetica,sans-Serif" font-size="10.00">#</text>
<text text-anchor="start" x="17.5" y="-633" font-family="Helvetica,sans-Serif" font-size="10.00">bool enabled</text>
<text text-anchor="start" x="4.5" y="-618" font-family="Helvetica,sans-Serif" font-size="10.00">+</text>
<text text-anchor="start" x="17.5" y="-618" font-family="Helvetica,sans-Serif" font-size="10.00">bool getEnabled() const</text>
<text text-anchor="start" x="4.5" y="-603" font-family="Helvetica,sans-Serif" font-size="10.00">+</text>
<text text-anchor="start" x="17.5" y="-603" font-family="Helvetica,sans-Serif" font-size="10.00">void setEnabled(bool</text>
<text text-anchor="start" x="17.5" y="-592" font-family="Helvetica,sans-Serif" font-size="10.00"> value)</text>
<text text-anchor="start" x="4.5" y="-577" font-family="Helvetica,sans-Serif" font-size="10.00">+</text>
<text text-anchor="start" x="17.5" y="-577" font-family="Helvetica,sans-Serif" font-size="10.00">void setParent(GameObject</text>
<text text-anchor="start" x="17.5" y="-566" font-family="Helvetica,sans-Serif" font-size="10.00"> *value)</text>
<text text-anchor="start" x="4.5" y="-551" font-family="Helvetica,sans-Serif" font-size="10.00">+</text>
<text text-anchor="start" x="17.5" y="-551" font-family="Helvetica,sans-Serif" font-size="10.00">virtual ~GameObjectComponent()</text>
<text text-anchor="start" x="4.5" y="-536" font-family="Helvetica,sans-Serif" font-size="10.00">+</text>
<text text-anchor="start" x="17.5" y="-536" font-family="Helvetica,sans-Serif" font-size="10.00">virtual void OnTick()=0</text>
<text text-anchor="start" x="4.5" y="-521" font-family="Helvetica,sans-Serif" font-size="10.00">+</text>
<text text-anchor="start" x="17.5" y="-521" font-family="Helvetica,sans-Serif" font-size="10.00">virtual void OnStart()=0</text>
<polygon fill="#666666" stroke="#666666" points="0.5,-643 0.5,-643 189.5,-643 189.5,-643 0.5,-643"/>
<polygon fill="#666666" stroke="#666666" points="0.5,-628 0.5,-628 15.5,-628 15.5,-628 0.5,-628"/>
<polygon fill="#666666" stroke="#666666" points="15.5,-628 15.5,-628 189.5,-628 189.5,-628 15.5,-628"/>
<polygon fill="none" stroke="#666666" points="0,-514 0,-660 189,-660 189,-514 0,-514"/>
</a>
</g>
</g>
<!-- Node4&#45;&gt;Node3 -->
<g id="edge3_Node000003_Node000004" class="edge">
<title>Node4&#45;&gt;Node3</title>
<g id="a_edge3_Node000003_Node000004"><a xlink:title=" ">
<path fill="none" stroke="#63b8ff" d="M94.5,-503.71C94.5,-494.03 94.5,-484.83 94.5,-477.02"/>
<polygon fill="none" stroke="#63b8ff" points="91,-503.93 94.5,-513.93 98,-503.93 91,-503.93"/>
</a>
</g>
</g>
<!-- Node5 -->
<g id="Node000005" class="node">
<title>Node5</title>
<g id="a_Node000005"><a xlink:href="../../de/d1c/classGameObject.html" target="_top" xlink:title="A GameObject that represents an individual object in the game.">
<polygon fill="white" stroke="transparent" points="179.5,-1339 9.5,-1339 9.5,-707 179.5,-707 179.5,-1339"/>
<text text-anchor="start" x="64" y="-1327" font-family="Helvetica,sans-Serif" font-size="10.00">GameObject</text>
<text text-anchor="start" x="13.5" y="-1312" font-family="Helvetica,sans-Serif" font-size="10.00">+</text>
<text text-anchor="start" x="26.5" y="-1312" font-family="Helvetica,sans-Serif" font-size="10.00">std::vector&lt; std::shared</text>
<text text-anchor="start" x="26.5" y="-1301" font-family="Helvetica,sans-Serif" font-size="10.00">_ptr&lt; GameObjectComponent</text>
<text text-anchor="start" x="26.5" y="-1290" font-family="Helvetica,sans-Serif" font-size="10.00"> &gt; &gt; components</text>
<text text-anchor="start" x="13.5" y="-1275" font-family="Helvetica,sans-Serif" font-size="10.00">#</text>
<text text-anchor="start" x="26.5" y="-1275" font-family="Helvetica,sans-Serif" font-size="10.00">bool enabled</text>
<text text-anchor="start" x="13.5" y="-1260" font-family="Helvetica,sans-Serif" font-size="10.00">#</text>
<text text-anchor="start" x="26.5" y="-1260" font-family="Helvetica,sans-Serif" font-size="10.00">float weight</text>
<text text-anchor="start" x="13.5" y="-1245" font-family="Helvetica,sans-Serif" font-size="10.00">#</text>
<text text-anchor="start" x="26.5" y="-1245" font-family="Helvetica,sans-Serif" font-size="10.00">std::shared_ptr&lt; Vector2</text>
<text text-anchor="start" x="26.5" y="-1234" font-family="Helvetica,sans-Serif" font-size="10.00"> &gt; position</text>
<text text-anchor="start" x="13.5" y="-1219" font-family="Helvetica,sans-Serif" font-size="10.00">#</text>
<text text-anchor="start" x="26.5" y="-1219" font-family="Helvetica,sans-Serif" font-size="10.00">std::shared_ptr&lt; Vector2</text>
<text text-anchor="start" x="26.5" y="-1208" font-family="Helvetica,sans-Serif" font-size="10.00"> &gt; scale</text>
<text text-anchor="start" x="13.5" y="-1193" font-family="Helvetica,sans-Serif" font-size="10.00">#</text>
<text text-anchor="start" x="26.5" y="-1193" font-family="Helvetica,sans-Serif" font-size="10.00">std::shared_ptr&lt; Vector2</text>
<text text-anchor="start" x="26.5" y="-1182" font-family="Helvetica,sans-Serif" font-size="10.00"> &gt; velocity</text>
<text text-anchor="start" x="13.5" y="-1167" font-family="Helvetica,sans-Serif" font-size="10.00">#</text>
<text text-anchor="start" x="26.5" y="-1167" font-family="Helvetica,sans-Serif" font-size="10.00">std::string tag</text>
<text text-anchor="start" x="13.5" y="-1152" font-family="Helvetica,sans-Serif" font-size="10.00">+</text>
<text text-anchor="start" x="26.5" y="-1152" font-family="Helvetica,sans-Serif" font-size="10.00">const std::string getTag</text>
<text text-anchor="start" x="26.5" y="-1141" font-family="Helvetica,sans-Serif" font-size="10.00">() const</text>
<text text-anchor="start" x="13.5" y="-1126" font-family="Helvetica,sans-Serif" font-size="10.00">+</text>
<text text-anchor="start" x="26.5" y="-1126" font-family="Helvetica,sans-Serif" font-size="10.00">void setTag(std::string</text>
<text text-anchor="start" x="26.5" y="-1115" font-family="Helvetica,sans-Serif" font-size="10.00"> value)</text>
<text text-anchor="start" x="13.5" y="-1100" font-family="Helvetica,sans-Serif" font-size="10.00">+</text>
<text text-anchor="start" x="26.5" y="-1100" font-family="Helvetica,sans-Serif" font-size="10.00">bool getEnabled() const</text>
<text text-anchor="start" x="13.5" y="-1085" font-family="Helvetica,sans-Serif" font-size="10.00">+</text>
<text text-anchor="start" x="26.5" y="-1085" font-family="Helvetica,sans-Serif" font-size="10.00">void setEnabled(bool</text>
<text text-anchor="start" x="26.5" y="-1074" font-family="Helvetica,sans-Serif" font-size="10.00"> value)</text>
<text text-anchor="start" x="13.5" y="-1059" font-family="Helvetica,sans-Serif" font-size="10.00">+</text>
<text text-anchor="start" x="26.5" y="-1059" font-family="Helvetica,sans-Serif" font-size="10.00">float getWeight() const</text>
<text text-anchor="start" x="13.5" y="-1044" font-family="Helvetica,sans-Serif" font-size="10.00">+</text>
<text text-anchor="start" x="26.5" y="-1044" font-family="Helvetica,sans-Serif" font-size="10.00">void setWeight(float</text>
<text text-anchor="start" x="26.5" y="-1033" font-family="Helvetica,sans-Serif" font-size="10.00"> value)</text>
<text text-anchor="start" x="13.5" y="-1018" font-family="Helvetica,sans-Serif" font-size="10.00">+</text>
<text text-anchor="start" x="26.5" y="-1018" font-family="Helvetica,sans-Serif" font-size="10.00">std::shared_ptr&lt; Vector2</text>
<text text-anchor="start" x="26.5" y="-1007" font-family="Helvetica,sans-Serif" font-size="10.00"> &gt; getPosition() const</text>
<text text-anchor="start" x="13.5" y="-992" font-family="Helvetica,sans-Serif" font-size="10.00">+</text>
<text text-anchor="start" x="26.5" y="-992" font-family="Helvetica,sans-Serif" font-size="10.00">void setPosition(std</text>
<text text-anchor="start" x="26.5" y="-981" font-family="Helvetica,sans-Serif" font-size="10.00">::shared_ptr&lt; Vector2</text>
<text text-anchor="start" x="26.5" y="-970" font-family="Helvetica,sans-Serif" font-size="10.00"> &gt; value)</text>
<text text-anchor="start" x="13.5" y="-955" font-family="Helvetica,sans-Serif" font-size="10.00">+</text>
<text text-anchor="start" x="26.5" y="-955" font-family="Helvetica,sans-Serif" font-size="10.00">std::shared_ptr&lt; Vector2</text>
<text text-anchor="start" x="26.5" y="-944" font-family="Helvetica,sans-Serif" font-size="10.00"> &gt; getScale() const</text>
<text text-anchor="start" x="13.5" y="-929" font-family="Helvetica,sans-Serif" font-size="10.00">+</text>
<text text-anchor="start" x="26.5" y="-929" font-family="Helvetica,sans-Serif" font-size="10.00">void setScale(std::</text>
<text text-anchor="start" x="26.5" y="-918" font-family="Helvetica,sans-Serif" font-size="10.00">shared_ptr&lt; Vector2</text>
<text text-anchor="start" x="26.5" y="-907" font-family="Helvetica,sans-Serif" font-size="10.00"> &gt; value)</text>
<text text-anchor="start" x="13.5" y="-892" font-family="Helvetica,sans-Serif" font-size="10.00">+</text>
<text text-anchor="start" x="26.5" y="-892" font-family="Helvetica,sans-Serif" font-size="10.00">std::shared_ptr&lt; Vector2</text>
<text text-anchor="start" x="26.5" y="-881" font-family="Helvetica,sans-Serif" font-size="10.00"> &gt; getVelocity() const</text>
<text text-anchor="start" x="13.5" y="-866" font-family="Helvetica,sans-Serif" font-size="10.00">+</text>
<text text-anchor="start" x="26.5" y="-866" font-family="Helvetica,sans-Serif" font-size="10.00">void setVelocity(std</text>
<text text-anchor="start" x="26.5" y="-855" font-family="Helvetica,sans-Serif" font-size="10.00">::shared_ptr&lt; Vector2</text>
<text text-anchor="start" x="26.5" y="-844" font-family="Helvetica,sans-Serif" font-size="10.00"> &gt; value)</text>
<text text-anchor="start" x="13.5" y="-829" font-family="Helvetica,sans-Serif" font-size="10.00">+</text>
<text text-anchor="start" x="26.5" y="-829" font-family="Helvetica,sans-Serif" font-size="10.00">GameObject()</text>
<text text-anchor="start" x="13.5" y="-814" font-family="Helvetica,sans-Serif" font-size="10.00">+</text>
<text text-anchor="start" x="26.5" y="-814" font-family="Helvetica,sans-Serif" font-size="10.00">virtual ~GameObject()</text>
<text text-anchor="start" x="13.5" y="-799" font-family="Helvetica,sans-Serif" font-size="10.00">+</text>
<text text-anchor="start" x="26.5" y="-799" font-family="Helvetica,sans-Serif" font-size="10.00">void RegisterComponent</text>
<text text-anchor="start" x="26.5" y="-788" font-family="Helvetica,sans-Serif" font-size="10.00">(std::shared_ptr&lt; GameObject</text>
<text text-anchor="start" x="26.5" y="-777" font-family="Helvetica,sans-Serif" font-size="10.00">Component &gt; component)</text>
<text text-anchor="start" x="13.5" y="-762" font-family="Helvetica,sans-Serif" font-size="10.00">+</text>
<text text-anchor="start" x="26.5" y="-762" font-family="Helvetica,sans-Serif" font-size="10.00">void RemoveComponent</text>
<text text-anchor="start" x="26.5" y="-751" font-family="Helvetica,sans-Serif" font-size="10.00">(std::shared_ptr&lt; GameObject</text>
<text text-anchor="start" x="26.5" y="-740" font-family="Helvetica,sans-Serif" font-size="10.00">Component &gt; component)</text>
<text text-anchor="start" x="13.5" y="-725" font-family="Helvetica,sans-Serif" font-size="10.00">+</text>
<text text-anchor="start" x="26.5" y="-725" font-family="Helvetica,sans-Serif" font-size="10.00">std::shared_ptr&lt; T</text>
<text text-anchor="start" x="26.5" y="-714" font-family="Helvetica,sans-Serif" font-size="10.00"> &gt; GetFirstComponent()</text>
<polygon fill="#666666" stroke="#666666" points="9.5,-1322 9.5,-1322 179.5,-1322 179.5,-1322 9.5,-1322"/>
<polygon fill="#666666" stroke="#666666" points="9.5,-1162 9.5,-1162 24.5,-1162 24.5,-1162 9.5,-1162"/>
<polygon fill="#666666" stroke="#666666" points="24.5,-1162 24.5,-1162 179.5,-1162 179.5,-1162 24.5,-1162"/>
<polygon fill="none" stroke="#666666" points="9.5,-707 9.5,-1339 179.5,-1339 179.5,-707 9.5,-707"/>
</a>
</g>
</g>
<!-- Node5&#45;&gt;Node4 -->
<g id="edge4_Node000004_Node000005" class="edge">
<title>Node5&#45;&gt;Node4</title>
<g id="a_edge4_Node000004_Node000005"><a xlink:title=" ">
<path fill="none" stroke="#63b8ff" d="M94.5,-706.88C94.5,-694.85 94.5,-683.34 94.5,-672.53"/>
<polygon fill="none" stroke="#63b8ff" points="94.5,-672.18 90.5,-666.18 94.5,-660.18 98.5,-666.18 94.5,-672.18"/>
</a>
</g>
<text text-anchor="middle" x="116" y="-681" font-family="Helvetica,sans-Serif" font-size="10.00" fill="grey"> #parent</text>
</g>
</g>
</svg>

<g id="navigator" transform="translate(0 0)" fill="#404254">
  <rect fill="#f2f5e9" fill-opacity="0.5" stroke="#606060" stroke-width=".5" x="0" y="0" width="60" height="60"/>
  <use id="zoomplus" xlink:href="#zoomPlus" x="17" y="9" onmousedown="handleZoom(evt,'in')"/>
  <use id="zoomminus" xlink:href="#zoomMin" x="42" y="9" onmousedown="handleZoom(evt,'out')"/>
  <use id="reset" xlink:href="#resetDef" x="30" y="36" onmousedown="handleReset()"/>
   <use id="arrowup" xlink:href="#arrowUp" x="0" y="0" onmousedown="handlePan(0,-1)"/>
  <use id="arrowright" xlink:href="#arrowRight" x="0" y="0" onmousedown="handlePan(1,0)"/>
  <use id="arrowdown" xlink:href="#arrowDown" x="0" y="0" onmousedown="handlePan(0,1)"/>
  <use id="arrowleft" xlink:href="#arrowLeft" x="0" y="0" onmousedown="handlePan(-1,0)"/>
</g>
<svg viewBox="0 0 15 15" width="100%" height="30px" preserveAspectRatio="xMaxYMin meet">
 <g id="arrow_out" transform="scale(0.3 0.3)">
  <a xlink:href="classEnemyCollisionBehavior__coll__graph_org.svg" target="_base">
   <rect id="button" ry="5" rx="5" y="6" x="6" height="38" width="38"
        fill="#f2f5e9" fill-opacity="0.5" stroke="#606060" stroke-width="1.0"/>
   <path id="arrow"
     d="M 11.500037,31.436501 C 11.940474,20.09759 22.043105,11.32322 32.158766,21.979434 L 37.068811,17.246167 C 37.068811,17.246167 37.088388,32 37.088388,32 L 22.160133,31.978069 C 22.160133,31.978069 26.997745,27.140456 26.997745,27.140456 C 18.528582,18.264221 13.291696,25.230495 11.500037,31.436501 z"
     style="fill:#404040;"/>
  </a>
 </g>
</svg>

<style type='text/css'>
<![CDATA[
[data-mouse-over-selected='false'] { opacity: 0.7; }
[data-mouse-over-selected='true']  { opacity: 1.0; }
]]>
</style>
<script type="application/ecmascript"><![CDATA[
document.addEventListener('DOMContentLoaded', (event) => {
  highlightEdges();
  highlightAdjacentNodes();
});
]]></script>
</svg>
