<?xml version="1.0" encoding="UTF-8" standalone="no"?>
<!DOCTYPE svg PUBLIC "-//W3C//DTD SVG 1.1//EN"
 "http://www.w3.org/Graphics/SVG/1.1/DTD/svg11.dtd">
<!-- Generated by graphviz version 2.43.0 (0)
 -->
<!-- Title: CoffeeCollisionBehavior Pages: 1 -->
<svg width="197pt" height="1362pt"
 viewBox="0.00 0.00 197.00 1362.00" xmlns="http://www.w3.org/2000/svg" xmlns:xlink="http://www.w3.org/1999/xlink">
<g id="graph0" class="graph" transform="scale(1 1) rotate(0) translate(4 1358)">
<title>CoffeeCollisionBehavior</title>
<!-- Node1 -->
<g id="Node000001" class="node">
<title>Node1</title>
<g id="a_Node000001"><a xlink:title=" ">
<polygon fill="#999999" stroke="transparent" points="179.5,-127 9.5,-127 9.5,0 179.5,0 179.5,-127"/>
<text text-anchor="start" x="35.5" y="-114.5" font-family="Helvetica,sans-Serif" font-size="10.00">CoffeeCollisionBehavior</text>
<text text-anchor="start" x="92.5" y="-99.5" font-family="Helvetica,sans-Serif" font-size="10.00"> </text>
<text text-anchor="start" x="13.5" y="-84.5" font-family="Helvetica,sans-Serif" font-size="10.00">+</text>
<text text-anchor="start" x="26.5" y="-84.5" font-family="Helvetica,sans-Serif" font-size="10.00">CoffeeCollisionBehavior()</text>
<text text-anchor="start" x="13.5" y="-69.5" font-family="Helvetica,sans-Serif" font-size="10.00">+</text>
<text text-anchor="start" x="26.5" y="-69.5" font-family="Helvetica,sans-Serif" font-size="10.00">CoffeeCollisionBehavior</text>
<text text-anchor="start" x="26.5" y="-58.5" font-family="Helvetica,sans-Serif" font-size="10.00">(int x, int y)</text>
<text text-anchor="start" x="13.5" y="-43.5" font-family="Helvetica,sans-Serif" font-size="10.00">+</text>
<text text-anchor="start" x="26.5" y="-43.5" font-family="Helvetica,sans-Serif" font-size="10.00">~CoffeeCollisionBehavior()</text>
<text text-anchor="start" x="13.5" y="-28.5" font-family="Helvetica,sans-Serif" font-size="10.00">+</text>
<text text-anchor="start" x="26.5" y="-28.5" font-family="Helvetica,sans-Serif" font-size="10.00">virtual void BeforeCollision</text>
<text text-anchor="start" x="26.5" y="-17.5" font-family="Helvetica,sans-Serif" font-size="10.00">(std::shared_ptr&lt; GameObject</text>
<text text-anchor="start" x="26.5" y="-6.5" font-family="Helvetica,sans-Serif" font-size="10.00"> &gt; other) override</text>
<polygon fill="#666666" stroke="#666666" points="9.5,-109.5 9.5,-109.5 179.5,-109.5 179.5,-109.5 9.5,-109.5"/>
<polygon fill="#666666" stroke="#666666" points="9.5,-94.5 9.5,-94.5 179.5,-94.5 179.5,-94.5 9.5,-94.5"/>
<polygon fill="none" stroke="#666666" points="9.5,0 9.5,-127 179.5,-127 179.5,0 9.5,0"/>
</a>
</g>
</g>
<!-- Node2 -->
<g id="Node000002" class="node">
<title>Node2</title>
<g id="a_Node000002"><a xlink:href="../../d9/df0/classCollisionBehavior.html" target="_top" xlink:title="Controlls collision of an object with other objects that also have this or a child component.">
<polygon fill="white" stroke="transparent" points="179.5,-406 9.5,-406 9.5,-164 179.5,-164 179.5,-406"/>
<text text-anchor="start" x="51.5" y="-394" font-family="Helvetica,sans-Serif" font-size="10.00">CollisionBehavior</text>
<text text-anchor="start" x="13.5" y="-379" font-family="Helvetica,sans-Serif" font-size="10.00">#</text>
<text text-anchor="start" x="26.5" y="-379" font-family="Helvetica,sans-Serif" font-size="10.00">std::shared_ptr&lt; Vector2</text>
<text text-anchor="start" x="26.5" y="-368" font-family="Helvetica,sans-Serif" font-size="10.00"> &gt; colliderSize</text>
<text text-anchor="start" x="13.5" y="-353" font-family="Helvetica,sans-Serif" font-size="10.00">+</text>
<text text-anchor="start" x="26.5" y="-353" font-family="Helvetica,sans-Serif" font-size="10.00">bool IsPointInsideCollider</text>
<text text-anchor="start" x="26.5" y="-342" font-family="Helvetica,sans-Serif" font-size="10.00">(Vector2 position)</text>
<text text-anchor="start" x="13.5" y="-327" font-family="Helvetica,sans-Serif" font-size="10.00">+</text>
<text text-anchor="start" x="26.5" y="-327" font-family="Helvetica,sans-Serif" font-size="10.00">void OnTick() override</text>
<text text-anchor="start" x="13.5" y="-312" font-family="Helvetica,sans-Serif" font-size="10.00">+</text>
<text text-anchor="start" x="26.5" y="-312" font-family="Helvetica,sans-Serif" font-size="10.00">void OnStart() override</text>
<text text-anchor="start" x="13.5" y="-297" font-family="Helvetica,sans-Serif" font-size="10.00">+</text>
<text text-anchor="start" x="26.5" y="-297" font-family="Helvetica,sans-Serif" font-size="10.00">const std::shared_ptr</text>
<text text-anchor="start" x="26.5" y="-286" font-family="Helvetica,sans-Serif" font-size="10.00">&lt; Vector2 &gt; getColliderSize()</text>
<text text-anchor="start" x="13.5" y="-271" font-family="Helvetica,sans-Serif" font-size="10.00">+</text>
<text text-anchor="start" x="26.5" y="-271" font-family="Helvetica,sans-Serif" font-size="10.00">virtual void BeforeCollision</text>
<text text-anchor="start" x="26.5" y="-260" font-family="Helvetica,sans-Serif" font-size="10.00">(std::shared_ptr&lt; GameObject</text>
<text text-anchor="start" x="26.5" y="-249" font-family="Helvetica,sans-Serif" font-size="10.00"> &gt; other)</text>
<text text-anchor="start" x="13.5" y="-234" font-family="Helvetica,sans-Serif" font-size="10.00">+</text>
<text text-anchor="start" x="26.5" y="-234" font-family="Helvetica,sans-Serif" font-size="10.00">CollisionBehavior()</text>
<text text-anchor="start" x="13.5" y="-219" font-family="Helvetica,sans-Serif" font-size="10.00">+</text>
<text text-anchor="start" x="26.5" y="-219" font-family="Helvetica,sans-Serif" font-size="10.00">CollisionBehavior</text>
<text text-anchor="start" x="26.5" y="-208" font-family="Helvetica,sans-Serif" font-size="10.00">(int x, int y)</text>
<text text-anchor="start" x="13.5" y="-193" font-family="Helvetica,sans-Serif" font-size="10.00">#</text>
<text text-anchor="start" x="26.5" y="-193" font-family="Helvetica,sans-Serif" font-size="10.00">bool CheckForCollision</text>
<text text-anchor="start" x="26.5" y="-182" font-family="Helvetica,sans-Serif" font-size="10.00">(std::shared_ptr&lt; GameObject</text>
<text text-anchor="start" x="26.5" y="-171" font-family="Helvetica,sans-Serif" font-size="10.00"> &gt; other)</text>
<polygon fill="#666666" stroke="#666666" points="9.5,-389 9.5,-389 179.5,-389 179.5,-389 9.5,-389"/>
<polygon fill="#666666" stroke="#666666" points="9.5,-363 9.5,-363 24.5,-363 24.5,-363 9.5,-363"/>
<polygon fill="#666666" stroke="#666666" points="24.5,-363 24.5,-363 179.5,-363 179.5,-363 24.5,-363"/>
<polygon fill="none" stroke="#666666" points="9.5,-164 9.5,-406 179.5,-406 179.5,-164 9.5,-164"/>
</a>
</g>
</g>
<!-- Node2&#45;&gt;Node1 -->
<g id="edge1_Node000001_Node000002" class="edge">
<title>Node2&#45;&gt;Node1</title>
<g id="a_edge1_Node000001_Node000002"><a xlink:title=" ">
<path fill="none" stroke="#63b8ff" d="M94.5,-153.9C94.5,-144.67 94.5,-135.64 94.5,-127.09"/>
<polygon fill="none" stroke="#63b8ff" points="91,-153.97 94.5,-163.97 98,-153.97 91,-153.97"/>
</a>
</g>
</g>
<!-- Node3 -->
<g id="Node000003" class="node">
<title>Node3</title>
<g id="a_Node000003"><a xlink:href="../../df/dc1/classBehavior.html" target="_top" xlink:title="An abstract gameobject behavior.">
<polygon fill="white" stroke="transparent" points="121.5,-492 67.5,-492 67.5,-443 121.5,-443 121.5,-492"/>
<text text-anchor="start" x="72.5" y="-479.5" font-family="Helvetica,sans-Serif" font-size="10.00">Behavior</text>
<text text-anchor="start" x="92.5" y="-464.5" font-family="Helvetica,sans-Serif" font-size="10.00"> </text>
<text text-anchor="start" x="92.5" y="-449.5" font-family="Helvetica,sans-Serif" font-size="10.00"> </text>
<polygon fill="#666666" stroke="#666666" points="67.5,-474.5 67.5,-474.5 121.5,-474.5 121.5,-474.5 67.5,-474.5"/>
<polygon fill="#666666" stroke="#666666" points="67.5,-459.5 67.5,-459.5 121.5,-459.5 121.5,-459.5 67.5,-459.5"/>
<polygon fill="none" stroke="#666666" points="67.5,-443 67.5,-492 121.5,-492 121.5,-443 67.5,-443"/>
</a>
</g>
</g>
<!-- Node3&#45;&gt;Node2 -->
<g id="edge2_Node000002_Node000003" class="edge">
<title>Node3&#45;&gt;Node2</title>
<g id="a_edge2_Node000002_Node000003"><a xlink:title=" ">
<path fill="none" stroke="#63b8ff" d="M94.5,-432.88C94.5,-424.78 94.5,-415.65 94.5,-406.02"/>
<polygon fill="none" stroke="#63b8ff" points="91,-432.9 94.5,-442.9 98,-432.9 91,-432.9"/>
</a>
</g>
</g>
<!-- Node4 -->
<g id="Node000004" class="node">
<title>Node4</title>
<g id="a_Node000004"><a xlink:href="../../d9/df7/classGameObjectComponent.html" target="_top" xlink:title="An abstract gameobject component.">
<polygon fill="white" stroke="transparent" points="189,-675 0,-675 0,-529 189,-529 189,-675"/>
<text text-anchor="start" x="36" y="-663" font-family="Helvetica,sans-Serif" font-size="10.00">GameObjectComponent</text>
<text text-anchor="start" x="4.5" y="-648" font-family="Helvetica,sans-Serif" font-size="10.00">#</text>
<text text-anchor="start" x="17.5" y="-648" font-family="Helvetica,sans-Serif" font-size="10.00">bool enabled</text>
<text text-anchor="start" x="4.5" y="-633" font-family="Helvetica,sans-Serif" font-size="10.00">+</text>
<text text-anchor="start" x="17.5" y="-633" font-family="Helvetica,sans-Serif" font-size="10.00">bool getEnabled() const</text>
<text text-anchor="start" x="4.5" y="-618" font-family="Helvetica,sans-Serif" font-size="10.00">+</text>
<text text-anchor="start" x="17.5" y="-618" font-family="Helvetica,sans-Serif" font-size="10.00">void setEnabled(bool</text>
<text text-anchor="start" x="17.5" y="-607" font-family="Helvetica,sans-Serif" font-size="10.00"> value)</text>
<text text-anchor="start" x="4.5" y="-592" font-family="Helvetica,sans-Serif" font-size="10.00">+</text>
<text text-anchor="start" x="17.5" y="-592" font-family="Helvetica,sans-Serif" font-size="10.00">void setParent(GameObject</text>
<text text-anchor="start" x="17.5" y="-581" font-family="Helvetica,sans-Serif" font-size="10.00"> *value)</text>
<text text-anchor="start" x="4.5" y="-566" font-family="Helvetica,sans-Serif" font-size="10.00">+</text>
<text text-anchor="start" x="17.5" y="-566" font-family="Helvetica,sans-Serif" font-size="10.00">virtual ~GameObjectComponent()</text>
<text text-anchor="start" x="4.5" y="-551" font-family="Helvetica,sans-Serif" font-size="10.00">+</text>
<text text-anchor="start" x="17.5" y="-551" font-family="Helvetica,sans-Serif" font-size="10.00">virtual void OnTick()=0</text>
<text text-anchor="start" x="4.5" y="-536" font-family="Helvetica,sans-Serif" font-size="10.00">+</text>
<text text-anchor="start" x="17.5" y="-536" font-family="Helvetica,sans-Serif" font-size="10.00">virtual void OnStart()=0</text>
<polygon fill="#666666" stroke="#666666" points="0.5,-658 0.5,-658 189.5,-658 189.5,-658 0.5,-658"/>
<polygon fill="#666666" stroke="#666666" points="0.5,-643 0.5,-643 15.5,-643 15.5,-643 0.5,-643"/>
<polygon fill="#666666" stroke="#666666" points="15.5,-643 15.5,-643 189.5,-643 189.5,-643 15.5,-643"/>
<polygon fill="none" stroke="#666666" points="0,-529 0,-675 189,-675 189,-529 0,-529"/>
</a>
</g>
</g>
<!-- Node4&#45;&gt;Node3 -->
<g id="edge3_Node000003_Node000004" class="edge">
<title>Node4&#45;&gt;Node3</title>
<g id="a_edge3_Node000003_Node000004"><a xlink:title=" ">
<path fill="none" stroke="#63b8ff" d="M94.5,-518.71C94.5,-509.03 94.5,-499.83 94.5,-492.02"/>
<polygon fill="none" stroke="#63b8ff" points="91,-518.93 94.5,-528.93 98,-518.93 91,-518.93"/>
</a>
</g>
</g>
<!-- Node5 -->
<g id="Node000005" class="node">
<title>Node5</title>
<g id="a_Node000005"><a xlink:href="../../de/d1c/classGameObject.html" target="_top" xlink:title="A GameObject that represents an individual object in the game.">
<polygon fill="white" stroke="transparent" points="179.5,-1354 9.5,-1354 9.5,-722 179.5,-722 179.5,-1354"/>
<text text-anchor="start" x="64" y="-1342" font-family="Helvetica,sans-Serif" font-size="10.00">GameObject</text>
<text text-anchor="start" x="13.5" y="-1327" font-family="Helvetica,sans-Serif" font-size="10.00">+</text>
<text text-anchor="start" x="26.5" y="-1327" font-family="Helvetica,sans-Serif" font-size="10.00">std::vector&lt; std::shared</text>
<text text-anchor="start" x="26.5" y="-1316" font-family="Helvetica,sans-Serif" font-size="10.00">_ptr&lt; GameObjectComponent</text>
<text text-anchor="start" x="26.5" y="-1305" font-family="Helvetica,sans-Serif" font-size="10.00"> &gt; &gt; components</text>
<text text-anchor="start" x="13.5" y="-1290" font-family="Helvetica,sans-Serif" font-size="10.00">#</text>
<text text-anchor="start" x="26.5" y="-1290" font-family="Helvetica,sans-Serif" font-size="10.00">bool enabled</text>
<text text-anchor="start" x="13.5" y="-1275" font-family="Helvetica,sans-Serif" font-size="10.00">#</text>
<text text-anchor="start" x="26.5" y="-1275" font-family="Helvetica,sans-Serif" font-size="10.00">float weight</text>
<text text-anchor="start" x="13.5" y="-1260" font-family="Helvetica,sans-Serif" font-size="10.00">#</text>
<text text-anchor="start" x="26.5" y="-1260" font-family="Helvetica,sans-Serif" font-size="10.00">std::shared_ptr&lt; Vector2</text>
<text text-anchor="start" x="26.5" y="-1249" font-family="Helvetica,sans-Serif" font-size="10.00"> &gt; position</text>
<text text-anchor="start" x="13.5" y="-1234" font-family="Helvetica,sans-Serif" font-size="10.00">#</text>
<text text-anchor="start" x="26.5" y="-1234" font-family="Helvetica,sans-Serif" font-size="10.00">std::shared_ptr&lt; Vector2</text>
<text text-anchor="start" x="26.5" y="-1223" font-family="Helvetica,sans-Serif" font-size="10.00"> &gt; scale</text>
<text text-anchor="start" x="13.5" y="-1208" font-family="Helvetica,sans-Serif" font-size="10.00">#</text>
<text text-anchor="start" x="26.5" y="-1208" font-family="Helvetica,sans-Serif" font-size="10.00">std::shared_ptr&lt; Vector2</text>
<text text-anchor="start" x="26.5" y="-1197" font-family="Helvetica,sans-Serif" font-size="10.00"> &gt; velocity</text>
<text text-anchor="start" x="13.5" y="-1182" font-family="Helvetica,sans-Serif" font-size="10.00">#</text>
<text text-anchor="start" x="26.5" y="-1182" font-family="Helvetica,sans-Serif" font-size="10.00">std::string tag</text>
<text text-anchor="start" x="13.5" y="-1167" font-family="Helvetica,sans-Serif" font-size="10.00">+</text>
<text text-anchor="start" x="26.5" y="-1167" font-family="Helvetica,sans-Serif" font-size="10.00">const std::string getTag</text>
<text text-anchor="start" x="26.5" y="-1156" font-family="Helvetica,sans-Serif" font-size="10.00">() const</text>
<text text-anchor="start" x="13.5" y="-1141" font-family="Helvetica,sans-Serif" font-size="10.00">+</text>
<text text-anchor="start" x="26.5" y="-1141" font-family="Helvetica,sans-Serif" font-size="10.00">void setTag(std::string</text>
<text text-anchor="start" x="26.5" y="-1130" font-family="Helvetica,sans-Serif" font-size="10.00"> value)</text>
<text text-anchor="start" x="13.5" y="-1115" font-family="Helvetica,sans-Serif" font-size="10.00">+</text>
<text text-anchor="start" x="26.5" y="-1115" font-family="Helvetica,sans-Serif" font-size="10.00">bool getEnabled() const</text>
<text text-anchor="start" x="13.5" y="-1100" font-family="Helvetica,sans-Serif" font-size="10.00">+</text>
<text text-anchor="start" x="26.5" y="-1100" font-family="Helvetica,sans-Serif" font-size="10.00">void setEnabled(bool</text>
<text text-anchor="start" x="26.5" y="-1089" font-family="Helvetica,sans-Serif" font-size="10.00"> value)</text>
<text text-anchor="start" x="13.5" y="-1074" font-family="Helvetica,sans-Serif" font-size="10.00">+</text>
<text text-anchor="start" x="26.5" y="-1074" font-family="Helvetica,sans-Serif" font-size="10.00">float getWeight() const</text>
<text text-anchor="start" x="13.5" y="-1059" font-family="Helvetica,sans-Serif" font-size="10.00">+</text>
<text text-anchor="start" x="26.5" y="-1059" font-family="Helvetica,sans-Serif" font-size="10.00">void setWeight(float</text>
<text text-anchor="start" x="26.5" y="-1048" font-family="Helvetica,sans-Serif" font-size="10.00"> value)</text>
<text text-anchor="start" x="13.5" y="-1033" font-family="Helvetica,sans-Serif" font-size="10.00">+</text>
<text text-anchor="start" x="26.5" y="-1033" font-family="Helvetica,sans-Serif" font-size="10.00">std::shared_ptr&lt; Vector2</text>
<text text-anchor="start" x="26.5" y="-1022" font-family="Helvetica,sans-Serif" font-size="10.00"> &gt; getPosition() const</text>
<text text-anchor="start" x="13.5" y="-1007" font-family="Helvetica,sans-Serif" font-size="10.00">+</text>
<text text-anchor="start" x="26.5" y="-1007" font-family="Helvetica,sans-Serif" font-size="10.00">void setPosition(std</text>
<text text-anchor="start" x="26.5" y="-996" font-family="Helvetica,sans-Serif" font-size="10.00">::shared_ptr&lt; Vector2</text>
<text text-anchor="start" x="26.5" y="-985" font-family="Helvetica,sans-Serif" font-size="10.00"> &gt; value)</text>
<text text-anchor="start" x="13.5" y="-970" font-family="Helvetica,sans-Serif" font-size="10.00">+</text>
<text text-anchor="start" x="26.5" y="-970" font-family="Helvetica,sans-Serif" font-size="10.00">std::shared_ptr&lt; Vector2</text>
<text text-anchor="start" x="26.5" y="-959" font-family="Helvetica,sans-Serif" font-size="10.00"> &gt; getScale() const</text>
<text text-anchor="start" x="13.5" y="-944" font-family="Helvetica,sans-Serif" font-size="10.00">+</text>
<text text-anchor="start" x="26.5" y="-944" font-family="Helvetica,sans-Serif" font-size="10.00">void setScale(std::</text>
<text text-anchor="start" x="26.5" y="-933" font-family="Helvetica,sans-Serif" font-size="10.00">shared_ptr&lt; Vector2</text>
<text text-anchor="start" x="26.5" y="-922" font-family="Helvetica,sans-Serif" font-size="10.00"> &gt; value)</text>
<text text-anchor="start" x="13.5" y="-907" font-family="Helvetica,sans-Serif" font-size="10.00">+</text>
<text text-anchor="start" x="26.5" y="-907" font-family="Helvetica,sans-Serif" font-size="10.00">std::shared_ptr&lt; Vector2</text>
<text text-anchor="start" x="26.5" y="-896" font-family="Helvetica,sans-Serif" font-size="10.00"> &gt; getVelocity() const</text>
<text text-anchor="start" x="13.5" y="-881" font-family="Helvetica,sans-Serif" font-size="10.00">+</text>
<text text-anchor="start" x="26.5" y="-881" font-family="Helvetica,sans-Serif" font-size="10.00">void setVelocity(std</text>
<text text-anchor="start" x="26.5" y="-870" font-family="Helvetica,sans-Serif" font-size="10.00">::shared_ptr&lt; Vector2</text>
<text text-anchor="start" x="26.5" y="-859" font-family="Helvetica,sans-Serif" font-size="10.00"> &gt; value)</text>
<text text-anchor="start" x="13.5" y="-844" font-family="Helvetica,sans-Serif" font-size="10.00">+</text>
<text text-anchor="start" x="26.5" y="-844" font-family="Helvetica,sans-Serif" font-size="10.00">GameObject()</text>
<text text-anchor="start" x="13.5" y="-829" font-family="Helvetica,sans-Serif" font-size="10.00">+</text>
<text text-anchor="start" x="26.5" y="-829" font-family="Helvetica,sans-Serif" font-size="10.00">virtual ~GameObject()</text>
<text text-anchor="start" x="13.5" y="-814" font-family="Helvetica,sans-Serif" font-size="10.00">+</text>
<text text-anchor="start" x="26.5" y="-814" font-family="Helvetica,sans-Serif" font-size="10.00">void RegisterComponent</text>
<text text-anchor="start" x="26.5" y="-803" font-family="Helvetica,sans-Serif" font-size="10.00">(std::shared_ptr&lt; GameObject</text>
<text text-anchor="start" x="26.5" y="-792" font-family="Helvetica,sans-Serif" font-size="10.00">Component &gt; component)</text>
<text text-anchor="start" x="13.5" y="-777" font-family="Helvetica,sans-Serif" font-size="10.00">+</text>
<text text-anchor="start" x="26.5" y="-777" font-family="Helvetica,sans-Serif" font-size="10.00">void RemoveComponent</text>
<text text-anchor="start" x="26.5" y="-766" font-family="Helvetica,sans-Serif" font-size="10.00">(std::shared_ptr&lt; GameObject</text>
<text text-anchor="start" x="26.5" y="-755" font-family="Helvetica,sans-Serif" font-size="10.00">Component &gt; component)</text>
<text text-anchor="start" x="13.5" y="-740" font-family="Helvetica,sans-Serif" font-size="10.00">+</text>
<text text-anchor="start" x="26.5" y="-740" font-family="Helvetica,sans-Serif" font-size="10.00">std::shared_ptr&lt; T</text>
<text text-anchor="start" x="26.5" y="-729" font-family="Helvetica,sans-Serif" font-size="10.00"> &gt; GetFirstComponent()</text>
<polygon fill="#666666" stroke="#666666" points="9.5,-1337 9.5,-1337 179.5,-1337 179.5,-1337 9.5,-1337"/>
<polygon fill="#666666" stroke="#666666" points="9.5,-1177 9.5,-1177 24.5,-1177 24.5,-1177 9.5,-1177"/>
<polygon fill="#666666" stroke="#666666" points="24.5,-1177 24.5,-1177 179.5,-1177 179.5,-1177 24.5,-1177"/>
<polygon fill="none" stroke="#666666" points="9.5,-722 9.5,-1354 179.5,-1354 179.5,-722 9.5,-722"/>
</a>
</g>
</g>
<!-- Node5&#45;&gt;Node4 -->
<g id="edge4_Node000004_Node000005" class="edge">
<title>Node5&#45;&gt;Node4</title>
<g id="a_edge4_Node000004_Node000005"><a xlink:title=" ">
<path fill="none" stroke="#63b8ff" d="M94.5,-721.88C94.5,-709.85 94.5,-698.34 94.5,-687.53"/>
<polygon fill="none" stroke="#63b8ff" points="94.5,-687.18 90.5,-681.18 94.5,-675.18 98.5,-681.18 94.5,-687.18"/>
</a>
</g>
<text text-anchor="middle" x="116" y="-696" font-family="Helvetica,sans-Serif" font-size="10.00" fill="grey"> #parent</text>
</g>
</g>
</svg>
