<?xml version="1.0" encoding="UTF-8" standalone="no"?>
<!DOCTYPE svg PUBLIC "-//W3C//DTD SVG 1.1//EN"
 "http://www.w3.org/Graphics/SVG/1.1/DTD/svg11.dtd">
<!-- Generated by graphviz version 2.43.0 (0)
 -->
<!-- Title: game/behaviors Pages: 1 -->
<svg width="525pt" height="180pt"
 viewBox="0.00 0.00 525.00 180.00" xmlns="http://www.w3.org/2000/svg" xmlns:xlink="http://www.w3.org/1999/xlink">
<g id="graph0" class="graph" transform="scale(1 1) rotate(0) translate(4 176)">
<title>game/behaviors</title>
<g id="clust1" class="cluster">
<title>clusterdir_37c6514aeece95293041e34c0f2e0784</title>
<g id="a_clust1"><a xlink:href="dir_37c6514aeece95293041e34c0f2e0784.html" target="_top" xlink:title="game">
<polygon fill="#edf0f7" stroke="#404040" stroke-dasharray="5,2" points="8,-39 8,-164 509,-164 509,-39 8,-39"/>
<text text-anchor="middle" x="258.5" y="-152" font-family="Helvetica,sans-Serif" font-size="10.00">game</text>
</a>
</g>
</g>
<g id="clust2" class="cluster">
<title>clusterdir_ddf4fec9d022943ac4c4f2e4c1aeb6af</title>
<g id="a_clust2"><a xlink:href="dir_ddf4fec9d022943ac4c4f2e4c1aeb6af.html" target="_top">
<polygon fill="#edf0f7" stroke="#404040" stroke-width="2" points="16,-47 16,-137 501,-137 501,-47 16,-47"/>
</a>
</g>
</g>
<!-- dir_ddf4fec9d022943ac4c4f2e4c1aeb6af -->
<g id="node1" class="node">
<title>dir_ddf4fec9d022943ac4c4f2e4c1aeb6af</title>
<text text-anchor="middle" x="460" y="-117" font-family="Helvetica,sans-Serif" font-size="10.00">behaviors</text>
</g>
<!-- dir_d38726fbc1c6c91f9416a4fe3d973bba -->
<g id="node2" class="node">
<title>dir_d38726fbc1c6c91f9416a4fe3d973bba</title>
<g id="a_node2"><a xlink:href="dir_d38726fbc1c6c91f9416a4fe3d973bba.html" target="_top" xlink:title="coffee">
<polygon fill="#a2b4d6" stroke="#404040" points="71.5,-129 24.5,-129 24.5,-110 71.5,-110 71.5,-129"/>
<text text-anchor="middle" x="48" y="-117" font-family="Helvetica,sans-Serif" font-size="10.00">coffee</text>
</a>
</g>
</g>
<!-- dir_5077a2be0fd3b8901cebba3609bcddf2 -->
<g id="node3" class="node">
<title>dir_5077a2be0fd3b8901cebba3609bcddf2</title>
<g id="a_node3"><a xlink:href="dir_5077a2be0fd3b8901cebba3609bcddf2.html" target="_top" xlink:title="coffeeMeter">
<polygon fill="#a2b4d6" stroke="#404040" points="98.5,-74 23.5,-74 23.5,-55 98.5,-55 98.5,-74"/>
<text text-anchor="middle" x="61" y="-62" font-family="Helvetica,sans-Serif" font-size="10.00">coffeeMeter</text>
</a>
</g>
</g>
<!-- dir_d38726fbc1c6c91f9416a4fe3d973bba&#45;&gt;dir_5077a2be0fd3b8901cebba3609bcddf2 -->
<g id="edge1" class="edge">
<title>dir_d38726fbc1c6c91f9416a4fe3d973bba&#45;&gt;dir_5077a2be0fd3b8901cebba3609bcddf2</title>
<g id="a_edge1"><a xlink:href="dir_000002_000003.html" target="_top">
<path fill="none" stroke="#63b8ff" d="M50.15,-109.75C51.87,-102.72 54.35,-92.62 56.5,-83.84"/>
<polygon fill="#63b8ff" stroke="#63b8ff" points="59.91,-84.63 58.89,-74.09 53.11,-82.97 59.91,-84.63"/>
</a>
</g>
<g id="a_edge1&#45;headlabel"><a xlink:href="dir_000002_000003.html" target="_top" xlink:title="1">
<text text-anchor="middle" x="61.81" y="-86.3" font-family="Helvetica,sans-Serif" font-size="10.00" fill="#63b8ff">1</text>
</a>
</g>
</g>
<!-- dir_996f45160da62e1a3d7f6046fad68f51 -->
<g id="node8" class="node">
<title>dir_996f45160da62e1a3d7f6046fad68f51</title>
<g id="a_node8"><a xlink:href="dir_996f45160da62e1a3d7f6046fad68f51.html" target="_top" xlink:title="engine">
<polygon fill="#edf0f7" stroke="red" points="209,-19 159,-19 159,0 209,0 209,-19"/>
<text text-anchor="middle" x="184" y="-7" font-family="Helvetica,sans-Serif" font-size="10.00">engine</text>
</a>
</g>
</g>
<!-- dir_d38726fbc1c6c91f9416a4fe3d973bba&#45;&gt;dir_996f45160da62e1a3d7f6046fad68f51 -->
<g id="edge2" class="edge">
<title>dir_d38726fbc1c6c91f9416a4fe3d973bba&#45;&gt;dir_996f45160da62e1a3d7f6046fad68f51</title>
<g id="a_edge2"><a xlink:href="dir_000002_000006.html" target="_top">
<path fill="none" stroke="#63b8ff" d="M60.64,-109.83C72.89,-101.22 91.8,-87.41 107,-74 123.26,-59.65 124.31,-52.85 141,-39 147.16,-33.89 154.26,-28.87 160.89,-24.51"/>
<polygon fill="#63b8ff" stroke="#63b8ff" points="162.96,-27.34 169.52,-19.01 159.2,-21.44 162.96,-27.34"/>
</a>
</g>
<g id="a_edge2&#45;headlabel"><a xlink:href="dir_000002_000006.html" target="_top" xlink:title="4">
<text text-anchor="middle" x="161.46" y="-29.17" font-family="Helvetica,sans-Serif" font-size="10.00" fill="#63b8ff">4</text>
</a>
</g>
</g>
<!-- dir_5077a2be0fd3b8901cebba3609bcddf2&#45;&gt;dir_996f45160da62e1a3d7f6046fad68f51 -->
<g id="edge3" class="edge">
<title>dir_5077a2be0fd3b8901cebba3609bcddf2&#45;&gt;dir_996f45160da62e1a3d7f6046fad68f51</title>
<g id="a_edge3"><a xlink:href="dir_000003_000006.html" target="_top">
<path fill="none" stroke="#63b8ff" d="M78.69,-54.85C88.7,-50.04 101.47,-44.02 113,-39 125.78,-33.43 140.01,-27.64 152.36,-22.74"/>
<polygon fill="#63b8ff" stroke="#63b8ff" points="153.77,-25.95 161.79,-19.03 151.21,-19.43 153.77,-25.95"/>
</a>
</g>
<g id="a_edge3&#45;headlabel"><a xlink:href="dir_000003_000006.html" target="_top" xlink:title="3">
<text text-anchor="middle" x="151.47" y="-27.41" font-family="Helvetica,sans-Serif" font-size="10.00" fill="#63b8ff">3</text>
</a>
</g>
</g>
<!-- dir_378b40f9dbb6e8bc384a2ab0e59ddd36 -->
<g id="node4" class="node">
<title>dir_378b40f9dbb6e8bc384a2ab0e59ddd36</title>
<g id="a_node4"><a xlink:href="dir_378b40f9dbb6e8bc384a2ab0e59ddd36.html" target="_top" xlink:title="enemy">
<polygon fill="#a2b4d6" stroke="#404040" points="205,-129 155,-129 155,-110 205,-110 205,-129"/>
<text text-anchor="middle" x="180" y="-117" font-family="Helvetica,sans-Serif" font-size="10.00">enemy</text>
</a>
</g>
</g>
<!-- dir_378b40f9dbb6e8bc384a2ab0e59ddd36&#45;&gt;dir_996f45160da62e1a3d7f6046fad68f51 -->
<g id="edge4" class="edge">
<title>dir_378b40f9dbb6e8bc384a2ab0e59ddd36&#45;&gt;dir_996f45160da62e1a3d7f6046fad68f51</title>
<g id="a_edge4"><a xlink:href="dir_000005_000006.html" target="_top">
<path fill="none" stroke="#63b8ff" d="M180.33,-109.66C180.98,-92.17 182.43,-52.8 183.3,-29.27"/>
<polygon fill="#63b8ff" stroke="#63b8ff" points="186.81,-29.28 183.68,-19.16 179.81,-29.02 186.81,-29.28"/>
</a>
</g>
<g id="a_edge4&#45;headlabel"><a xlink:href="dir_000005_000006.html" target="_top" xlink:title="3">
<text text-anchor="middle" x="189.51" y="-30.48" font-family="Helvetica,sans-Serif" font-size="10.00" fill="#63b8ff">3</text>
</a>
</g>
</g>
<!-- dir_e3172ec4a8a547530edd7f68c9ef4ee4 -->
<g id="node5" class="node">
<title>dir_e3172ec4a8a547530edd7f68c9ef4ee4</title>
<g id="a_node5"><a xlink:href="dir_e3172ec4a8a547530edd7f68c9ef4ee4.html" target="_top" xlink:title="gameManager">
<polygon fill="#a2b4d6" stroke="#404040" points="310.5,-129 223.5,-129 223.5,-110 310.5,-110 310.5,-129"/>
<text text-anchor="middle" x="267" y="-117" font-family="Helvetica,sans-Serif" font-size="10.00">gameManager</text>
</a>
</g>
</g>
<!-- dir_e3172ec4a8a547530edd7f68c9ef4ee4&#45;&gt;dir_996f45160da62e1a3d7f6046fad68f51 -->
<g id="edge5" class="edge">
<title>dir_e3172ec4a8a547530edd7f68c9ef4ee4&#45;&gt;dir_996f45160da62e1a3d7f6046fad68f51</title>
<g id="a_edge5"><a xlink:href="dir_000009_000006.html" target="_top">
<path fill="none" stroke="#63b8ff" d="M260.21,-109.66C246.4,-91.69 214.85,-50.64 196.98,-27.38"/>
<polygon fill="#63b8ff" stroke="#63b8ff" points="199.52,-24.95 190.65,-19.16 193.97,-29.22 199.52,-24.95"/>
</a>
</g>
<g id="a_edge5&#45;headlabel"><a xlink:href="dir_000009_000006.html" target="_top" xlink:title="5">
<text text-anchor="middle" x="203.96" y="-23.57" font-family="Helvetica,sans-Serif" font-size="10.00" fill="#63b8ff">5</text>
</a>
</g>
</g>
<!-- dir_b240d35d24aac40c786f8dc4c205ca7f -->
<g id="node6" class="node">
<title>dir_b240d35d24aac40c786f8dc4c205ca7f</title>
<g id="a_node6"><a xlink:href="dir_b240d35d24aac40c786f8dc4c205ca7f.html" target="_top" xlink:title="player">
<polygon fill="#a2b4d6" stroke="#404040" points="136.5,-129 89.5,-129 89.5,-110 136.5,-110 136.5,-129"/>
<text text-anchor="middle" x="113" y="-117" font-family="Helvetica,sans-Serif" font-size="10.00">player</text>
</a>
</g>
</g>
<!-- dir_b240d35d24aac40c786f8dc4c205ca7f&#45;&gt;dir_5077a2be0fd3b8901cebba3609bcddf2 -->
<g id="edge6" class="edge">
<title>dir_b240d35d24aac40c786f8dc4c205ca7f&#45;&gt;dir_5077a2be0fd3b8901cebba3609bcddf2</title>
<g id="a_edge6"><a xlink:href="dir_000010_000003.html" target="_top">
<path fill="none" stroke="#63b8ff" d="M104.41,-109.75C96.84,-102.03 85.62,-90.6 76.49,-81.28"/>
<polygon fill="#63b8ff" stroke="#63b8ff" points="78.93,-78.78 69.43,-74.09 73.93,-83.68 78.93,-78.78"/>
</a>
</g>
<g id="a_edge6&#45;headlabel"><a xlink:href="dir_000010_000003.html" target="_top" xlink:title="1">
<text text-anchor="middle" x="83.47" y="-76.85" font-family="Helvetica,sans-Serif" font-size="10.00" fill="#63b8ff">1</text>
</a>
</g>
</g>
<!-- dir_b240d35d24aac40c786f8dc4c205ca7f&#45;&gt;dir_996f45160da62e1a3d7f6046fad68f51 -->
<g id="edge7" class="edge">
<title>dir_b240d35d24aac40c786f8dc4c205ca7f&#45;&gt;dir_996f45160da62e1a3d7f6046fad68f51</title>
<g id="a_edge7"><a xlink:href="dir_000010_000006.html" target="_top">
<path fill="none" stroke="#63b8ff" d="M118.81,-109.66C130.57,-91.77 157.37,-51 172.7,-27.69"/>
<polygon fill="#63b8ff" stroke="#63b8ff" points="175.74,-29.44 178.31,-19.16 169.89,-25.59 175.74,-29.44"/>
</a>
</g>
<g id="a_edge7&#45;headlabel"><a xlink:href="dir_000010_000006.html" target="_top" xlink:title="7">
<text text-anchor="middle" x="176.14" y="-31.5" font-family="Helvetica,sans-Serif" font-size="10.00" fill="#63b8ff">7</text>
</a>
</g>
</g>
<!-- dir_5c5272b1b42f16b2b4c110efda7d0d82 -->
<g id="node7" class="node">
<title>dir_5c5272b1b42f16b2b4c110efda7d0d82</title>
<g id="a_node7"><a xlink:href="dir_5c5272b1b42f16b2b4c110efda7d0d82.html" target="_top" xlink:title="scoreCounter">
<polygon fill="#a2b4d6" stroke="#404040" points="409.5,-129 328.5,-129 328.5,-110 409.5,-110 409.5,-129"/>
<text text-anchor="middle" x="369" y="-117" font-family="Helvetica,sans-Serif" font-size="10.00">scoreCounter</text>
</a>
</g>
</g>
<!-- dir_5c5272b1b42f16b2b4c110efda7d0d82&#45;&gt;dir_996f45160da62e1a3d7f6046fad68f51 -->
<g id="edge8" class="edge">
<title>dir_5c5272b1b42f16b2b4c110efda7d0d82&#45;&gt;dir_996f45160da62e1a3d7f6046fad68f51</title>
<g id="a_edge8"><a xlink:href="dir_000012_000006.html" target="_top">
<path fill="none" stroke="#63b8ff" d="M354.17,-109.84C322.16,-91.16 246.35,-46.9 207.63,-24.3"/>
<polygon fill="#63b8ff" stroke="#63b8ff" points="209.04,-21.07 198.64,-19.05 205.51,-27.11 209.04,-21.07"/>
</a>
</g>
<g id="a_edge8&#45;headlabel"><a xlink:href="dir_000012_000006.html" target="_top" xlink:title="3">
<text text-anchor="middle" x="213.58" y="-17.93" font-family="Helvetica,sans-Serif" font-size="10.00" fill="#63b8ff">3</text>
</a>
</g>
</g>
</g>
</svg>
