<?xml version="1.0" encoding="UTF-8" standalone="no"?>
<!DOCTYPE svg PUBLIC "-//W3C//DTD SVG 1.1//EN"
 "http://www.w3.org/Graphics/SVG/1.1/DTD/svg11.dtd">
<!-- Generated by graphviz version 2.43.0 (0)
 -->
<!-- Title: game/behaviors Pages: 1 -->
<svg width="326pt" height="235pt"
 viewBox="0.00 0.00 326.00 235.00" xmlns="http://www.w3.org/2000/svg" xmlns:xlink="http://www.w3.org/1999/xlink">

<svg id="main" version="1.1" xmlns="http://www.w3.org/2000/svg" xmlns:xlink="http://www.w3.org/1999/xlink" xml:space="preserve">

<style type="text/css"><![CDATA[
.node, .edge {opacity: 0.7;}
.node.selected, .edge.selected {opacity: 1;}
.edge:hover path { stroke: red; }
.edge:hover polygon { stroke: red; fill: red; }
]]></style>
<script type="application/ecmascript" xlink:href="svg.min.js"/>
<svg id="graph" class="graph">
<g id="graph0" class="graph" transform="scale(1 1) rotate(0) translate(4 231)">
<title>game/behaviors</title>
<g id="clust1" class="cluster">
<title>clusterdir_37c6514aeece95293041e34c0f2e0784</title>
<g id="a_clust1"><a xlink:href="dir_37c6514aeece95293041e34c0f2e0784.html" target="_top" xlink:title="game">
<polygon fill="#edf0f7" stroke="#404040" stroke-dasharray="5,2" points="8,-39 8,-219 310,-219 310,-39 8,-39"/>
<text text-anchor="middle" x="159" y="-207" font-family="Helvetica,sans-Serif" font-size="10.00">game</text>
</a>
</g>
</g>
<g id="clust2" class="cluster">
<title>clusterdir_ddf4fec9d022943ac4c4f2e4c1aeb6af</title>
<g id="a_clust2"><a xlink:href="dir_ddf4fec9d022943ac4c4f2e4c1aeb6af.html" target="_top">
<polygon fill="#edf0f7" stroke="#404040" stroke-width="2" points="16,-47 16,-192 302,-192 302,-47 16,-47"/>
</a>
</g>
</g>
<!-- dir_ddf4fec9d022943ac4c4f2e4c1aeb6af -->
<g id="node1" class="node">
<title>dir_ddf4fec9d022943ac4c4f2e4c1aeb6af</title>
<text text-anchor="middle" x="261" y="-172" font-family="Helvetica,sans-Serif" font-size="10.00">behaviors</text>
</g>
<!-- dir_d38726fbc1c6c91f9416a4fe3d973bba -->
<g id="node2" class="node">
<title>dir_d38726fbc1c6c91f9416a4fe3d973bba</title>
<g id="a_node2"><a xlink:href="dir_d38726fbc1c6c91f9416a4fe3d973bba.html" target="_top" xlink:title="coffee">
<polygon fill="#a2b4d6" stroke="#404040" points="144.5,-129 97.5,-129 97.5,-110 144.5,-110 144.5,-129"/>
<text text-anchor="middle" x="121" y="-117" font-family="Helvetica,sans-Serif" font-size="10.00">coffee</text>
</a>
</g>
</g>
<!-- dir_5077a2be0fd3b8901cebba3609bcddf2 -->
<g id="node3" class="node">
<title>dir_5077a2be0fd3b8901cebba3609bcddf2</title>
<g id="a_node3"><a xlink:href="dir_5077a2be0fd3b8901cebba3609bcddf2.html" target="_top" xlink:title="coffeeMeter">
<polygon fill="#a2b4d6" stroke="#404040" points="98.5,-74 23.5,-74 23.5,-55 98.5,-55 98.5,-74"/>
<text text-anchor="middle" x="61" y="-62" font-family="Helvetica,sans-Serif" font-size="10.00">coffeeMeter</text>
</a>
</g>
</g>
<!-- dir_d38726fbc1c6c91f9416a4fe3d973bba&#45;&gt;dir_5077a2be0fd3b8901cebba3609bcddf2 -->
<g id="edge1" class="edge">
<title>dir_d38726fbc1c6c91f9416a4fe3d973bba&#45;&gt;dir_5077a2be0fd3b8901cebba3609bcddf2</title>
<g id="a_edge1"><a xlink:href="dir_000002_000003.html" target="_top">
<path fill="none" stroke="#63b8ff" d="M111.36,-109.98C102.49,-102.15 89.13,-90.34 78.39,-80.86"/>
<polygon fill="#63b8ff" stroke="#63b8ff" points="80.63,-78.17 70.82,-74.17 75.99,-83.41 80.63,-78.17"/>
</a>
</g>
<g id="a_edge1&#45;headlabel"><a xlink:href="dir_000002_000003.html" target="_top" xlink:title="1">
<text text-anchor="middle" x="85.2" y="-75.92" font-family="Helvetica,sans-Serif" font-size="10.00" fill="#63b8ff">1</text>
</a>
</g>
</g>
<!-- dir_996f45160da62e1a3d7f6046fad68f51 -->
<g id="node8" class="node">
<title>dir_996f45160da62e1a3d7f6046fad68f51</title>
<g id="a_node8"><a xlink:href="dir_996f45160da62e1a3d7f6046fad68f51.html" target="_top" xlink:title="engine">
<polygon fill="#edf0f7" stroke="red" points="209,-19 159,-19 159,0 209,0 209,-19"/>
<text text-anchor="middle" x="184" y="-7" font-family="Helvetica,sans-Serif" font-size="10.00">engine</text>
</a>
</g>
</g>
<!-- dir_d38726fbc1c6c91f9416a4fe3d973bba&#45;&gt;dir_996f45160da62e1a3d7f6046fad68f51 -->
<g id="edge2" class="edge">
<title>dir_d38726fbc1c6c91f9416a4fe3d973bba&#45;&gt;dir_996f45160da62e1a3d7f6046fad68f51</title>
<g id="a_edge2"><a xlink:href="dir_000002_000006.html" target="_top">
<path fill="none" stroke="#63b8ff" d="M126.16,-109.66C136.54,-91.85 160.16,-51.37 173.79,-28.01"/>
<polygon fill="#63b8ff" stroke="#63b8ff" points="176.93,-29.56 178.95,-19.16 170.89,-26.03 176.93,-29.56"/>
</a>
</g>
<g id="a_edge2&#45;headlabel"><a xlink:href="dir_000002_000006.html" target="_top" xlink:title="4">
<text text-anchor="middle" x="177.58" y="-31.6" font-family="Helvetica,sans-Serif" font-size="10.00" fill="#63b8ff">4</text>
</a>
</g>
</g>
<!-- dir_5077a2be0fd3b8901cebba3609bcddf2&#45;&gt;dir_996f45160da62e1a3d7f6046fad68f51 -->
<g id="edge3" class="edge">
<title>dir_5077a2be0fd3b8901cebba3609bcddf2&#45;&gt;dir_996f45160da62e1a3d7f6046fad68f51</title>
<g id="a_edge3"><a xlink:href="dir_000003_000006.html" target="_top">
<path fill="none" stroke="#63b8ff" d="M78.69,-54.85C88.7,-50.04 101.47,-44.02 113,-39 125.78,-33.43 140.01,-27.64 152.36,-22.74"/>
<polygon fill="#63b8ff" stroke="#63b8ff" points="153.77,-25.95 161.79,-19.03 151.21,-19.43 153.77,-25.95"/>
</a>
</g>
<g id="a_edge3&#45;headlabel"><a xlink:href="dir_000003_000006.html" target="_top" xlink:title="3">
<text text-anchor="middle" x="151.47" y="-27.41" font-family="Helvetica,sans-Serif" font-size="10.00" fill="#63b8ff">3</text>
</a>
</g>
</g>
<!-- dir_378b40f9dbb6e8bc384a2ab0e59ddd36 -->
<g id="node4" class="node">
<title>dir_378b40f9dbb6e8bc384a2ab0e59ddd36</title>
<g id="a_node4"><a xlink:href="dir_378b40f9dbb6e8bc384a2ab0e59ddd36.html" target="_top" xlink:title="enemy">
<polygon fill="#a2b4d6" stroke="#404040" points="213,-129 163,-129 163,-110 213,-110 213,-129"/>
<text text-anchor="middle" x="188" y="-117" font-family="Helvetica,sans-Serif" font-size="10.00">enemy</text>
</a>
</g>
</g>
<!-- dir_378b40f9dbb6e8bc384a2ab0e59ddd36&#45;&gt;dir_996f45160da62e1a3d7f6046fad68f51 -->
<g id="edge4" class="edge">
<title>dir_378b40f9dbb6e8bc384a2ab0e59ddd36&#45;&gt;dir_996f45160da62e1a3d7f6046fad68f51</title>
<g id="a_edge4"><a xlink:href="dir_000005_000006.html" target="_top">
<path fill="none" stroke="#63b8ff" d="M187.67,-109.66C187.02,-92.17 185.57,-52.8 184.7,-29.27"/>
<polygon fill="#63b8ff" stroke="#63b8ff" points="188.19,-29.02 184.32,-19.16 181.19,-29.28 188.19,-29.02"/>
</a>
</g>
<g id="a_edge4&#45;headlabel"><a xlink:href="dir_000005_000006.html" target="_top" xlink:title="3">
<text text-anchor="middle" x="191.16" y="-30.01" font-family="Helvetica,sans-Serif" font-size="10.00" fill="#63b8ff">3</text>
</a>
</g>
</g>
<!-- dir_e3172ec4a8a547530edd7f68c9ef4ee4 -->
<g id="node5" class="node">
<title>dir_e3172ec4a8a547530edd7f68c9ef4ee4</title>
<g id="a_node5"><a xlink:href="dir_e3172ec4a8a547530edd7f68c9ef4ee4.html" target="_top" xlink:title="gameManager">
<polygon fill="#a2b4d6" stroke="#404040" points="111.5,-184 24.5,-184 24.5,-165 111.5,-165 111.5,-184"/>
<text text-anchor="middle" x="68" y="-172" font-family="Helvetica,sans-Serif" font-size="10.00">gameManager</text>
</a>
</g>
</g>
<!-- dir_e3172ec4a8a547530edd7f68c9ef4ee4&#45;&gt;dir_d38726fbc1c6c91f9416a4fe3d973bba -->
<g id="edge7" class="edge">
<title>dir_e3172ec4a8a547530edd7f68c9ef4ee4&#45;&gt;dir_d38726fbc1c6c91f9416a4fe3d973bba</title>
<g id="a_edge7"><a xlink:href="dir_000009_000002.html" target="_top">
<path fill="none" stroke="#63b8ff" d="M76.75,-164.75C84.47,-157.03 95.9,-145.6 105.22,-136.28"/>
<polygon fill="#63b8ff" stroke="#63b8ff" points="107.81,-138.64 112.41,-129.09 102.86,-133.69 107.81,-138.64"/>
</a>
</g>
<g id="a_edge7&#45;headlabel"><a xlink:href="dir_000009_000002.html" target="_top" xlink:title="2">
<text text-anchor="middle" x="107.28" y="-140.68" font-family="Helvetica,sans-Serif" font-size="10.00" fill="#63b8ff">2</text>
</a>
</g>
</g>
<!-- dir_e3172ec4a8a547530edd7f68c9ef4ee4&#45;&gt;dir_378b40f9dbb6e8bc384a2ab0e59ddd36 -->
<g id="edge5" class="edge">
<title>dir_e3172ec4a8a547530edd7f68c9ef4ee4&#45;&gt;dir_378b40f9dbb6e8bc384a2ab0e59ddd36</title>
<g id="a_edge5"><a xlink:href="dir_000009_000005.html" target="_top">
<path fill="none" stroke="#63b8ff" d="M87.28,-164.98C106.67,-156.42 136.81,-143.11 159.07,-133.28"/>
<polygon fill="#63b8ff" stroke="#63b8ff" points="160.64,-136.41 168.37,-129.17 157.81,-130.01 160.64,-136.41"/>
</a>
</g>
<g id="a_edge5&#45;headlabel"><a xlink:href="dir_000009_000005.html" target="_top" xlink:title="2">
<text text-anchor="middle" x="158.49" y="-137.96" font-family="Helvetica,sans-Serif" font-size="10.00" fill="#63b8ff">2</text>
</a>
</g>
</g>
<!-- dir_e3172ec4a8a547530edd7f68c9ef4ee4&#45;&gt;dir_996f45160da62e1a3d7f6046fad68f51 -->
<g id="edge6" class="edge">
<title>dir_e3172ec4a8a547530edd7f68c9ef4ee4&#45;&gt;dir_996f45160da62e1a3d7f6046fad68f51</title>
<g id="a_edge6"><a xlink:href="dir_000009_000006.html" target="_top">
<path fill="none" stroke="#63b8ff" d="M106.44,-164.92C149.7,-154.88 214.91,-138.43 222,-129 245.48,-97.78 216.84,-51.55 197.99,-27.09"/>
<polygon fill="#63b8ff" stroke="#63b8ff" points="200.59,-24.74 191.6,-19.13 195.13,-29.12 200.59,-24.74"/>
</a>
</g>
<g id="a_edge6&#45;headlabel"><a xlink:href="dir_000009_000006.html" target="_top" xlink:title="9">
<text text-anchor="middle" x="205.05" y="-23.26" font-family="Helvetica,sans-Serif" font-size="10.00" fill="#63b8ff">9</text>
</a>
</g>
</g>
<!-- dir_b240d35d24aac40c786f8dc4c205ca7f -->
<g id="node6" class="node">
<title>dir_b240d35d24aac40c786f8dc4c205ca7f</title>
<g id="a_node6"><a xlink:href="dir_b240d35d24aac40c786f8dc4c205ca7f.html" target="_top" xlink:title="player">
<polygon fill="#a2b4d6" stroke="#404040" points="79.5,-129 32.5,-129 32.5,-110 79.5,-110 79.5,-129"/>
<text text-anchor="middle" x="56" y="-117" font-family="Helvetica,sans-Serif" font-size="10.00">player</text>
</a>
</g>
</g>
<!-- dir_b240d35d24aac40c786f8dc4c205ca7f&#45;&gt;dir_5077a2be0fd3b8901cebba3609bcddf2 -->
<g id="edge8" class="edge">
<title>dir_b240d35d24aac40c786f8dc4c205ca7f&#45;&gt;dir_5077a2be0fd3b8901cebba3609bcddf2</title>
<g id="a_edge8"><a xlink:href="dir_000010_000003.html" target="_top">
<path fill="none" stroke="#63b8ff" d="M56.83,-109.75C57.48,-102.8 58.42,-92.85 59.24,-84.13"/>
<polygon fill="#63b8ff" stroke="#63b8ff" points="62.73,-84.37 60.19,-74.09 55.77,-83.72 62.73,-84.37"/>
</a>
</g>
<g id="a_edge8&#45;headlabel"><a xlink:href="dir_000010_000003.html" target="_top" xlink:title="1">
<text text-anchor="middle" x="65.22" y="-85.72" font-family="Helvetica,sans-Serif" font-size="10.00" fill="#63b8ff">1</text>
</a>
</g>
</g>
<!-- dir_b240d35d24aac40c786f8dc4c205ca7f&#45;&gt;dir_996f45160da62e1a3d7f6046fad68f51 -->
<g id="edge9" class="edge">
<title>dir_b240d35d24aac40c786f8dc4c205ca7f&#45;&gt;dir_996f45160da62e1a3d7f6046fad68f51</title>
<g id="a_edge9"><a xlink:href="dir_000010_000006.html" target="_top">
<path fill="none" stroke="#63b8ff" d="M66.23,-109.71C76.58,-100.8 93,-86.55 107,-74 124.1,-58.67 127.26,-53.57 145,-39 150.75,-34.28 157.19,-29.41 163.16,-25.06"/>
<polygon fill="#63b8ff" stroke="#63b8ff" points="165.34,-27.8 171.43,-19.14 161.27,-22.11 165.34,-27.8"/>
</a>
</g>
<g id="a_edge9&#45;headlabel"><a xlink:href="dir_000010_000006.html" target="_top" xlink:title="7">
<text text-anchor="middle" x="164.07" y="-29.71" font-family="Helvetica,sans-Serif" font-size="10.00" fill="#63b8ff">7</text>
</a>
</g>
</g>
<!-- dir_5c5272b1b42f16b2b4c110efda7d0d82 -->
<g id="node7" class="node">
<title>dir_5c5272b1b42f16b2b4c110efda7d0d82</title>
<g id="a_node7"><a xlink:href="dir_5c5272b1b42f16b2b4c110efda7d0d82.html" target="_top" xlink:title="scoreCounter">
<polygon fill="#a2b4d6" stroke="#404040" points="210.5,-184 129.5,-184 129.5,-165 210.5,-165 210.5,-184"/>
<text text-anchor="middle" x="170" y="-172" font-family="Helvetica,sans-Serif" font-size="10.00">scoreCounter</text>
</a>
</g>
</g>
<!-- dir_5c5272b1b42f16b2b4c110efda7d0d82&#45;&gt;dir_996f45160da62e1a3d7f6046fad68f51 -->
<g id="edge10" class="edge">
<title>dir_5c5272b1b42f16b2b4c110efda7d0d82&#45;&gt;dir_996f45160da62e1a3d7f6046fad68f51</title>
<g id="a_edge10"><a xlink:href="dir_000012_000006.html" target="_top">
<path fill="none" stroke="#63b8ff" d="M204.22,-164.93C222.71,-158.37 243.96,-147.24 255,-129 275.71,-94.78 277.41,-72.14 255,-39 246.8,-26.87 232.49,-19.9 218.86,-15.9"/>
<polygon fill="#63b8ff" stroke="#63b8ff" points="219.7,-12.5 209.15,-13.48 218.01,-19.29 219.7,-12.5"/>
</a>
</g>
<g id="a_edge10&#45;headlabel"><a xlink:href="dir_000012_000006.html" target="_top" xlink:title="3">
<text text-anchor="middle" x="223.88" y="-8.12" font-family="Helvetica,sans-Serif" font-size="10.00" fill="#63b8ff">3</text>
</a>
</g>
</g>
</g>
</svg>
</svg>

<style type='text/css'>
<![CDATA[
[data-mouse-over-selected='false'] { opacity: 0.7; }
[data-mouse-over-selected='true']  { opacity: 1.0; }
]]>
</style>
<script type="application/ecmascript"><![CDATA[
document.addEventListener('DOMContentLoaded', (event) => {
  highlightEdges();
  highlightAdjacentNodes();
});
]]></script>
</svg>
