<?xml version="1.0" encoding="UTF-8" standalone="no"?>
<!DOCTYPE svg PUBLIC "-//W3C//DTD SVG 1.1//EN"
 "http://www.w3.org/Graphics/SVG/1.1/DTD/svg11.dtd">
<!-- Generated by graphviz version 2.43.0 (0)
 -->
<!-- Title: Graphical Class Hierarchy Pages: 1 -->
<svg width="302pt" height="64pt"
 viewBox="0.00 0.00 302.00 64.00" xmlns="http://www.w3.org/2000/svg" xmlns:xlink="http://www.w3.org/1999/xlink">
<g id="graph0" class="graph" transform="scale(1 1) rotate(0) translate(4 60)">
<title>Graphical Class Hierarchy</title>
<!-- Node0 -->
<g id="node1" class="node">
<title>Node0</title>
<g id="a_node1"><a xlink:title=" ">
<polygon fill="#e0e0e0" stroke="#999999" points="86,-37 0,-37 0,-18 86,-18 86,-37"/>
<text text-anchor="middle" x="43" y="-25" font-family="Helvetica,sans-Serif" font-size="10.00">std::exception</text>
</a>
</g>
</g>
<!-- Node1 -->
<g id="node2" class="node">
<title>Node1</title>
<g id="a_node2"><a xlink:href="d7/d39/classComponentNotFoundException.html" target="_top" xlink:title="An exception indicating that the requested component has not been found on the object.">
<polygon fill="white" stroke="#666666" points="291.5,-56 124.5,-56 124.5,-37 291.5,-37 291.5,-56"/>
<text text-anchor="middle" x="208" y="-44" font-family="Helvetica,sans-Serif" font-size="10.00">ComponentNotFoundException</text>
</a>
</g>
</g>
<!-- Node0&#45;&gt;Node1 -->
<g id="edge1" class="edge">
<title>Node0&#45;&gt;Node1</title>
<path fill="none" stroke="#63b8ff" d="M96.53,-33.62C105.74,-34.7 115.52,-35.84 125.3,-36.98"/>
<polygon fill="#63b8ff" stroke="#63b8ff" points="96.74,-30.12 86.4,-32.44 95.93,-37.08 96.74,-30.12"/>
</g>
<!-- Node2 -->
<g id="node3" class="node">
<title>Node2</title>
<g id="a_node3"><a xlink:href="df/dda/classGameObjectNotFoundException.html" target="_top" xlink:title=" ">
<polygon fill="white" stroke="#666666" points="294,-19 122,-19 122,0 294,0 294,-19"/>
<text text-anchor="middle" x="208" y="-7" font-family="Helvetica,sans-Serif" font-size="10.00">GameObjectNotFoundException</text>
</a>
</g>
</g>
<!-- Node0&#45;&gt;Node2 -->
<g id="edge2" class="edge">
<title>Node0&#45;&gt;Node2</title>
<path fill="none" stroke="#63b8ff" d="M96.44,-21.71C104.58,-20.81 113.16,-19.86 121.8,-18.91"/>
<polygon fill="#63b8ff" stroke="#63b8ff" points="95.96,-18.24 86.4,-22.82 96.72,-25.2 95.96,-18.24"/>
</g>
</g>
</svg>
