<?xml version="1.0" encoding="UTF-8" standalone="no"?>
<!DOCTYPE svg PUBLIC "-//W3C//DTD SVG 1.1//EN"
 "http://www.w3.org/Graphics/SVG/1.1/DTD/svg11.dtd">
<!-- Generated by graphviz version 2.43.0 (0)
 -->
<!-- Title: KeyboardHandlerBehavior Pages: 1 -->
<svg width="384pt" height="767pt"
 viewBox="0.00 0.00 384.00 767.00" xmlns="http://www.w3.org/2000/svg" xmlns:xlink="http://www.w3.org/1999/xlink">
<g id="graph0" class="graph" transform="scale(1 1) rotate(0) translate(4 763)">
<title>KeyboardHandlerBehavior</title>
<!-- Node1 -->
<g id="Node000001" class="node">
<title>Node1</title>
<g id="a_Node000001"><a xlink:title="An abstract class for handling keyboard inputs.">
<polygon fill="#999999" stroke="transparent" points="276,-477 119,-477 119,-391 276,-391 276,-477"/>
<text text-anchor="start" x="134" y="-465" font-family="Helvetica,sans-Serif" font-size="10.00">KeyboardHandlerBehavior</text>
<text text-anchor="start" x="196" y="-450" font-family="Helvetica,sans-Serif" font-size="10.00"> </text>
<text text-anchor="start" x="123.5" y="-435" font-family="Helvetica,sans-Serif" font-size="10.00">+</text>
<text text-anchor="start" x="136.5" y="-435" font-family="Helvetica,sans-Serif" font-size="10.00">virtual void OnKeyDown</text>
<text text-anchor="start" x="136.5" y="-424" font-family="Helvetica,sans-Serif" font-size="10.00">(SDL_KeyboardEvent &amp;e)=0</text>
<text text-anchor="start" x="123.5" y="-409" font-family="Helvetica,sans-Serif" font-size="10.00">+</text>
<text text-anchor="start" x="136.5" y="-409" font-family="Helvetica,sans-Serif" font-size="10.00">virtual void OnKeyUp</text>
<text text-anchor="start" x="136.5" y="-398" font-family="Helvetica,sans-Serif" font-size="10.00">(SDL_KeyboardEvent &amp;e)=0</text>
<polygon fill="#666666" stroke="#666666" points="119.5,-460 119.5,-460 276.5,-460 276.5,-460 119.5,-460"/>
<polygon fill="#666666" stroke="#666666" points="119.5,-445 119.5,-445 276.5,-445 276.5,-445 119.5,-445"/>
<polygon fill="none" stroke="#666666" points="119,-391 119,-477 276,-477 276,-391 119,-391"/>
</a>
</g>
</g>
<!-- Node4 -->
<g id="Node000004" class="node">
<title>Node4</title>
<g id="a_Node000004"><a xlink:href="../../d3/d2e/classGameManagerKeyboardBehavior.html" target="_top" xlink:title="The game managers keyboard handler for general handling.">
<polygon fill="white" stroke="transparent" points="199,-272.5 0,-272.5 0,-82.5 199,-82.5 199,-272.5"/>
<text text-anchor="start" x="19" y="-260.5" font-family="Helvetica,sans-Serif" font-size="10.00">GameManagerKeyboardBehavior</text>
<text text-anchor="start" x="4.5" y="-245.5" font-family="Helvetica,sans-Serif" font-size="10.00">#</text>
<text text-anchor="start" x="17.5" y="-245.5" font-family="Helvetica,sans-Serif" font-size="10.00">bool isRDown</text>
<text text-anchor="start" x="4.5" y="-230.5" font-family="Helvetica,sans-Serif" font-size="10.00">+</text>
<text text-anchor="start" x="17.5" y="-230.5" font-family="Helvetica,sans-Serif" font-size="10.00">GameManagerKeyboardBehavior()</text>
<text text-anchor="start" x="4.5" y="-215.5" font-family="Helvetica,sans-Serif" font-size="10.00">+</text>
<text text-anchor="start" x="17.5" y="-215.5" font-family="Helvetica,sans-Serif" font-size="10.00">~GameManagerKeyboardBehavior()</text>
<text text-anchor="start" x="4.5" y="-200.5" font-family="Helvetica,sans-Serif" font-size="10.00">+</text>
<text text-anchor="start" x="17.5" y="-200.5" font-family="Helvetica,sans-Serif" font-size="10.00">virtual void OnKeyDown</text>
<text text-anchor="start" x="17.5" y="-189.5" font-family="Helvetica,sans-Serif" font-size="10.00">(SDL_KeyboardEvent &amp;e)</text>
<text text-anchor="start" x="17.5" y="-178.5" font-family="Helvetica,sans-Serif" font-size="10.00"> override</text>
<text text-anchor="start" x="4.5" y="-163.5" font-family="Helvetica,sans-Serif" font-size="10.00">+</text>
<text text-anchor="start" x="17.5" y="-163.5" font-family="Helvetica,sans-Serif" font-size="10.00">virtual void OnKeyUp</text>
<text text-anchor="start" x="17.5" y="-152.5" font-family="Helvetica,sans-Serif" font-size="10.00">(SDL_KeyboardEvent &amp;e)</text>
<text text-anchor="start" x="17.5" y="-141.5" font-family="Helvetica,sans-Serif" font-size="10.00"> override</text>
<text text-anchor="start" x="4.5" y="-126.5" font-family="Helvetica,sans-Serif" font-size="10.00">+</text>
<text text-anchor="start" x="17.5" y="-126.5" font-family="Helvetica,sans-Serif" font-size="10.00">virtual void OnTick</text>
<text text-anchor="start" x="17.5" y="-115.5" font-family="Helvetica,sans-Serif" font-size="10.00">() override</text>
<text text-anchor="start" x="4.5" y="-100.5" font-family="Helvetica,sans-Serif" font-size="10.00">+</text>
<text text-anchor="start" x="17.5" y="-100.5" font-family="Helvetica,sans-Serif" font-size="10.00">virtual void OnStart</text>
<text text-anchor="start" x="17.5" y="-89.5" font-family="Helvetica,sans-Serif" font-size="10.00">() override</text>
<polygon fill="#666666" stroke="#666666" points="0.5,-255.5 0.5,-255.5 199.5,-255.5 199.5,-255.5 0.5,-255.5"/>
<polygon fill="#666666" stroke="#666666" points="0.5,-240.5 0.5,-240.5 15.5,-240.5 15.5,-240.5 0.5,-240.5"/>
<polygon fill="#666666" stroke="#666666" points="15.5,-240.5 15.5,-240.5 199.5,-240.5 199.5,-240.5 15.5,-240.5"/>
<polygon fill="none" stroke="#666666" points="0,-82.5 0,-272.5 199,-272.5 199,-82.5 0,-82.5"/>
</a>
</g>
</g>
<!-- Node1&#45;&gt;Node4 -->
<g id="edge3_Node000001_Node000004" class="edge">
<title>Node1&#45;&gt;Node4</title>
<g id="a_edge3_Node000001_Node000004"><a xlink:title=" ">
<path fill="none" stroke="#63b8ff" d="M177.71,-381.6C165.68,-350.36 149.95,-309.52 135.76,-272.65"/>
<polygon fill="none" stroke="#63b8ff" points="174.46,-382.9 181.32,-390.97 180.99,-380.38 174.46,-382.9"/>
</a>
</g>
</g>
<!-- Node5 -->
<g id="Node000005" class="node">
<title>Node5</title>
<g id="a_Node000005"><a xlink:href="../../d9/d2c/classPlayerKeyboardBehavior.html" target="_top" xlink:title="The keyboard handler for the player.">
<polygon fill="white" stroke="transparent" points="376,-355 217,-355 217,0 376,0 376,-355"/>
<text text-anchor="start" x="236.5" y="-342.5" font-family="Helvetica,sans-Serif" font-size="10.00">PlayerKeyboardBehavior</text>
<text text-anchor="start" x="221.5" y="-327.5" font-family="Helvetica,sans-Serif" font-size="10.00">#</text>
<text text-anchor="start" x="234.5" y="-327.5" font-family="Helvetica,sans-Serif" font-size="10.00">bool isSpaceDown</text>
<text text-anchor="start" x="221.5" y="-312.5" font-family="Helvetica,sans-Serif" font-size="10.00">#</text>
<text text-anchor="start" x="234.5" y="-312.5" font-family="Helvetica,sans-Serif" font-size="10.00">bool isADown</text>
<text text-anchor="start" x="221.5" y="-297.5" font-family="Helvetica,sans-Serif" font-size="10.00">#</text>
<text text-anchor="start" x="234.5" y="-297.5" font-family="Helvetica,sans-Serif" font-size="10.00">bool isDDown</text>
<text text-anchor="start" x="221.5" y="-282.5" font-family="Helvetica,sans-Serif" font-size="10.00">#</text>
<text text-anchor="start" x="234.5" y="-282.5" font-family="Helvetica,sans-Serif" font-size="10.00">bool isLeftDown</text>
<text text-anchor="start" x="221.5" y="-267.5" font-family="Helvetica,sans-Serif" font-size="10.00">#</text>
<text text-anchor="start" x="234.5" y="-267.5" font-family="Helvetica,sans-Serif" font-size="10.00">bool isRightDown</text>
<text text-anchor="start" x="221.5" y="-252.5" font-family="Helvetica,sans-Serif" font-size="10.00">#</text>
<text text-anchor="start" x="234.5" y="-252.5" font-family="Helvetica,sans-Serif" font-size="10.00">bool isUpDown</text>
<text text-anchor="start" x="221.5" y="-237.5" font-family="Helvetica,sans-Serif" font-size="10.00">#</text>
<text text-anchor="start" x="234.5" y="-237.5" font-family="Helvetica,sans-Serif" font-size="10.00">const float movementSpeed</text>
<text text-anchor="start" x="221.5" y="-222.5" font-family="Helvetica,sans-Serif" font-size="10.00">+</text>
<text text-anchor="start" x="234.5" y="-222.5" font-family="Helvetica,sans-Serif" font-size="10.00">PlayerKeyboardBehavior()</text>
<text text-anchor="start" x="221.5" y="-207.5" font-family="Helvetica,sans-Serif" font-size="10.00">+</text>
<text text-anchor="start" x="234.5" y="-207.5" font-family="Helvetica,sans-Serif" font-size="10.00">~PlayerKeyboardBehavior()</text>
<text text-anchor="start" x="221.5" y="-192.5" font-family="Helvetica,sans-Serif" font-size="10.00">+</text>
<text text-anchor="start" x="234.5" y="-192.5" font-family="Helvetica,sans-Serif" font-size="10.00">virtual void OnKeyDown</text>
<text text-anchor="start" x="234.5" y="-181.5" font-family="Helvetica,sans-Serif" font-size="10.00">(SDL_KeyboardEvent &amp;e)</text>
<text text-anchor="start" x="234.5" y="-170.5" font-family="Helvetica,sans-Serif" font-size="10.00"> override</text>
<text text-anchor="start" x="221.5" y="-155.5" font-family="Helvetica,sans-Serif" font-size="10.00">+</text>
<text text-anchor="start" x="234.5" y="-155.5" font-family="Helvetica,sans-Serif" font-size="10.00">virtual void OnKeyUp</text>
<text text-anchor="start" x="234.5" y="-144.5" font-family="Helvetica,sans-Serif" font-size="10.00">(SDL_KeyboardEvent &amp;e)</text>
<text text-anchor="start" x="234.5" y="-133.5" font-family="Helvetica,sans-Serif" font-size="10.00"> override</text>
<text text-anchor="start" x="221.5" y="-118.5" font-family="Helvetica,sans-Serif" font-size="10.00">+</text>
<text text-anchor="start" x="234.5" y="-118.5" font-family="Helvetica,sans-Serif" font-size="10.00">virtual void OnTick</text>
<text text-anchor="start" x="234.5" y="-107.5" font-family="Helvetica,sans-Serif" font-size="10.00">() override</text>
<text text-anchor="start" x="221.5" y="-92.5" font-family="Helvetica,sans-Serif" font-size="10.00">+</text>
<text text-anchor="start" x="234.5" y="-92.5" font-family="Helvetica,sans-Serif" font-size="10.00">virtual void OnStart</text>
<text text-anchor="start" x="234.5" y="-81.5" font-family="Helvetica,sans-Serif" font-size="10.00">() override</text>
<text text-anchor="start" x="221.5" y="-66.5" font-family="Helvetica,sans-Serif" font-size="10.00">#</text>
<text text-anchor="start" x="234.5" y="-66.5" font-family="Helvetica,sans-Serif" font-size="10.00">void OnLeftDown()</text>
<text text-anchor="start" x="221.5" y="-51.5" font-family="Helvetica,sans-Serif" font-size="10.00">#</text>
<text text-anchor="start" x="234.5" y="-51.5" font-family="Helvetica,sans-Serif" font-size="10.00">void OnRightDown()</text>
<text text-anchor="start" x="221.5" y="-36.5" font-family="Helvetica,sans-Serif" font-size="10.00">#</text>
<text text-anchor="start" x="234.5" y="-36.5" font-family="Helvetica,sans-Serif" font-size="10.00">void OnLeftUp()</text>
<text text-anchor="start" x="221.5" y="-21.5" font-family="Helvetica,sans-Serif" font-size="10.00">#</text>
<text text-anchor="start" x="234.5" y="-21.5" font-family="Helvetica,sans-Serif" font-size="10.00">void OnRightUp()</text>
<text text-anchor="start" x="221.5" y="-6.5" font-family="Helvetica,sans-Serif" font-size="10.00">#</text>
<text text-anchor="start" x="234.5" y="-6.5" font-family="Helvetica,sans-Serif" font-size="10.00">void OnJump()</text>
<polygon fill="#666666" stroke="#666666" points="217.5,-337.5 217.5,-337.5 376.5,-337.5 376.5,-337.5 217.5,-337.5"/>
<polygon fill="#666666" stroke="#666666" points="217.5,-232.5 217.5,-232.5 232.5,-232.5 232.5,-232.5 217.5,-232.5"/>
<polygon fill="#666666" stroke="#666666" points="232.5,-232.5 232.5,-232.5 376.5,-232.5 376.5,-232.5 232.5,-232.5"/>
<polygon fill="none" stroke="#666666" points="217,0 217,-355 376,-355 376,0 217,0"/>
</a>
</g>
</g>
<!-- Node1&#45;&gt;Node5 -->
<g id="edge4_Node000001_Node000005" class="edge">
<title>Node1&#45;&gt;Node5</title>
<g id="a_edge4_Node000001_Node000005"><a xlink:title=" ">
<path fill="none" stroke="#63b8ff" d="M217.48,-381.65C220.67,-373.42 224.13,-364.54 227.75,-355.23"/>
<polygon fill="none" stroke="#63b8ff" points="214.21,-380.39 213.85,-390.97 220.74,-382.92 214.21,-380.39"/>
</a>
</g>
</g>
<!-- Node2 -->
<g id="Node000002" class="node">
<title>Node2</title>
<g id="a_Node000002"><a xlink:href="../../df/dc1/classBehavior.html" target="_top" xlink:title="An abstract gameobject behavior.">
<polygon fill="white" stroke="transparent" points="224.5,-562 170.5,-562 170.5,-513 224.5,-513 224.5,-562"/>
<text text-anchor="start" x="175.5" y="-549.5" font-family="Helvetica,sans-Serif" font-size="10.00">Behavior</text>
<text text-anchor="start" x="195.5" y="-534.5" font-family="Helvetica,sans-Serif" font-size="10.00"> </text>
<text text-anchor="start" x="195.5" y="-519.5" font-family="Helvetica,sans-Serif" font-size="10.00"> </text>
<polygon fill="#666666" stroke="#666666" points="170.5,-544.5 170.5,-544.5 224.5,-544.5 224.5,-544.5 170.5,-544.5"/>
<polygon fill="#666666" stroke="#666666" points="170.5,-529.5 170.5,-529.5 224.5,-529.5 224.5,-529.5 170.5,-529.5"/>
<polygon fill="none" stroke="#666666" points="170.5,-513 170.5,-562 224.5,-562 224.5,-513 170.5,-513"/>
</a>
</g>
</g>
<!-- Node2&#45;&gt;Node1 -->
<g id="edge1_Node000001_Node000002" class="edge">
<title>Node2&#45;&gt;Node1</title>
<g id="a_edge1_Node000001_Node000002"><a xlink:title=" ">
<path fill="none" stroke="#63b8ff" d="M197.5,-502.94C197.5,-494.68 197.5,-485.73 197.5,-477.13"/>
<polygon fill="none" stroke="#63b8ff" points="194,-502.96 197.5,-512.96 201,-502.96 194,-502.96"/>
</a>
</g>
</g>
<!-- Node3 -->
<g id="Node000003" class="node">
<title>Node3</title>
<g id="a_Node000003"><a xlink:href="../../d9/df7/classGameObjectComponent.html" target="_top" xlink:title="An abstract gameobject component. Has an OnTick and OnStart method. Subclasses may be registered to a...">
<polygon fill="white" stroke="transparent" points="292,-759 103,-759 103,-598 292,-598 292,-759"/>
<text text-anchor="start" x="139" y="-746.5" font-family="Helvetica,sans-Serif" font-size="10.00">GameObjectComponent</text>
<text text-anchor="start" x="107.5" y="-731.5" font-family="Helvetica,sans-Serif" font-size="10.00">#</text>
<text text-anchor="start" x="120.5" y="-731.5" font-family="Helvetica,sans-Serif" font-size="10.00">bool enabled</text>
<text text-anchor="start" x="107.5" y="-716.5" font-family="Helvetica,sans-Serif" font-size="10.00">#</text>
<text text-anchor="start" x="120.5" y="-716.5" font-family="Helvetica,sans-Serif" font-size="10.00">GameObject * parent</text>
<text text-anchor="start" x="107.5" y="-701.5" font-family="Helvetica,sans-Serif" font-size="10.00">+</text>
<text text-anchor="start" x="120.5" y="-701.5" font-family="Helvetica,sans-Serif" font-size="10.00">bool getEnabled() const</text>
<text text-anchor="start" x="107.5" y="-686.5" font-family="Helvetica,sans-Serif" font-size="10.00">+</text>
<text text-anchor="start" x="120.5" y="-686.5" font-family="Helvetica,sans-Serif" font-size="10.00">void setEnabled(bool</text>
<text text-anchor="start" x="120.5" y="-675.5" font-family="Helvetica,sans-Serif" font-size="10.00"> value)</text>
<text text-anchor="start" x="107.5" y="-660.5" font-family="Helvetica,sans-Serif" font-size="10.00">+</text>
<text text-anchor="start" x="120.5" y="-660.5" font-family="Helvetica,sans-Serif" font-size="10.00">void setParent(GameObject</text>
<text text-anchor="start" x="120.5" y="-649.5" font-family="Helvetica,sans-Serif" font-size="10.00"> *value)</text>
<text text-anchor="start" x="107.5" y="-634.5" font-family="Helvetica,sans-Serif" font-size="10.00">+</text>
<text text-anchor="start" x="120.5" y="-634.5" font-family="Helvetica,sans-Serif" font-size="10.00">virtual ~GameObjectComponent()</text>
<text text-anchor="start" x="107.5" y="-619.5" font-family="Helvetica,sans-Serif" font-size="10.00">+</text>
<text text-anchor="start" x="120.5" y="-619.5" font-family="Helvetica,sans-Serif" font-size="10.00">virtual void OnTick()=0</text>
<text text-anchor="start" x="107.5" y="-604.5" font-family="Helvetica,sans-Serif" font-size="10.00">+</text>
<text text-anchor="start" x="120.5" y="-604.5" font-family="Helvetica,sans-Serif" font-size="10.00">virtual void OnStart()=0</text>
<polygon fill="#666666" stroke="#666666" points="103.5,-741.5 103.5,-741.5 292.5,-741.5 292.5,-741.5 103.5,-741.5"/>
<polygon fill="#666666" stroke="#666666" points="103.5,-711.5 103.5,-711.5 118.5,-711.5 118.5,-711.5 103.5,-711.5"/>
<polygon fill="#666666" stroke="#666666" points="118.5,-711.5 118.5,-711.5 292.5,-711.5 292.5,-711.5 118.5,-711.5"/>
<polygon fill="none" stroke="#666666" points="103,-598 103,-759 292,-759 292,-598 103,-598"/>
</a>
</g>
</g>
<!-- Node3&#45;&gt;Node2 -->
<g id="edge2_Node000002_Node000003" class="edge">
<title>Node3&#45;&gt;Node2</title>
<g id="a_edge2_Node000002_Node000003"><a xlink:title=" ">
<path fill="none" stroke="#63b8ff" d="M197.5,-587.64C197.5,-578.4 197.5,-569.68 197.5,-562.22"/>
<polygon fill="none" stroke="#63b8ff" points="194,-587.85 197.5,-597.85 201,-587.85 194,-587.85"/>
</a>
</g>
</g>
</g>
</svg>
