<?xml version="1.0" encoding="UTF-8" standalone="no"?>
<!DOCTYPE svg PUBLIC "-//W3C//DTD SVG 1.1//EN"
 "http://www.w3.org/Graphics/SVG/1.1/DTD/svg11.dtd">
<!-- Generated by graphviz version 2.43.0 (0)
 -->
<!-- Title: KeyboardHandlerBehavior Pages: 1 -->
<svg width="396pt" height="590pt"
 viewBox="0.00 0.00 395.50 590.00" xmlns="http://www.w3.org/2000/svg" xmlns:xlink="http://www.w3.org/1999/xlink">
<g id="graph0" class="graph" transform="scale(1 1) rotate(0) translate(4 586)">
<title>KeyboardHandlerBehavior</title>
<!-- Node1 -->
<g id="node1" class="node">
<title>Node1</title>
<g id="a_node1"><a xlink:title="An abstract class for handling keyboard inputs.">
<polygon fill="#999999" stroke="#666666" points="127.5,-215.5 127.5,-305.5 279.5,-305.5 279.5,-215.5 127.5,-215.5"/>
<text text-anchor="middle" x="203.5" y="-293.5" font-family="Helvetica,sans-Serif" font-size="10.00">KeyboardHandlerBehavior</text>
<polyline fill="none" stroke="#666666" points="127.5,-286.5 279.5,-286.5 "/>
<text text-anchor="middle" x="203.5" y="-274.5" font-family="Helvetica,sans-Serif" font-size="10.00"> </text>
<polyline fill="none" stroke="#666666" points="127.5,-267.5 279.5,-267.5 "/>
<text text-anchor="start" x="135.5" y="-255.5" font-family="Helvetica,sans-Serif" font-size="10.00">+ virtual void OnKeyDown</text>
<text text-anchor="start" x="135.5" y="-244.5" font-family="Helvetica,sans-Serif" font-size="10.00">(SDL_KeyboardEvent &amp;e)=0</text>
<text text-anchor="start" x="135.5" y="-233.5" font-family="Helvetica,sans-Serif" font-size="10.00">+ virtual void OnKeyUp</text>
<text text-anchor="start" x="135.5" y="-222.5" font-family="Helvetica,sans-Serif" font-size="10.00">(SDL_KeyboardEvent &amp;e)=0</text>
</a>
</g>
</g>
<!-- Node4 -->
<g id="node4" class="node">
<title>Node4</title>
<g id="a_node4"><a xlink:href="../../d3/d2e/classGameManagerKeyboardBehavior.html" target="_top" xlink:title="The game managers keyboard handler for general handling.">
<polygon fill="white" stroke="#666666" points="0,-0.5 0,-178.5 205,-178.5 205,-0.5 0,-0.5"/>
<text text-anchor="middle" x="102.5" y="-166.5" font-family="Helvetica,sans-Serif" font-size="10.00">GameManagerKeyboardBehavior</text>
<polyline fill="none" stroke="#666666" points="0,-159.5 205,-159.5 "/>
<text text-anchor="middle" x="102.5" y="-147.5" font-family="Helvetica,sans-Serif" font-size="10.00"> </text>
<polyline fill="none" stroke="#666666" points="0,-140.5 205,-140.5 "/>
<text text-anchor="start" x="8" y="-128.5" font-family="Helvetica,sans-Serif" font-size="10.00">+ GameManagerKeyboardBehavior()</text>
<text text-anchor="start" x="8" y="-117.5" font-family="Helvetica,sans-Serif" font-size="10.00">+ ~GameManagerKeyboardBehavior()</text>
<text text-anchor="start" x="8" y="-106.5" font-family="Helvetica,sans-Serif" font-size="10.00">+ virtual void OnKeyDown</text>
<text text-anchor="start" x="8" y="-95.5" font-family="Helvetica,sans-Serif" font-size="10.00">(SDL_KeyboardEvent &amp;e)</text>
<text text-anchor="start" x="8" y="-84.5" font-family="Helvetica,sans-Serif" font-size="10.00"> override</text>
<text text-anchor="start" x="8" y="-73.5" font-family="Helvetica,sans-Serif" font-size="10.00">+ virtual void OnKeyUp</text>
<text text-anchor="start" x="8" y="-62.5" font-family="Helvetica,sans-Serif" font-size="10.00">(SDL_KeyboardEvent &amp;e)</text>
<text text-anchor="start" x="8" y="-51.5" font-family="Helvetica,sans-Serif" font-size="10.00"> override</text>
<text text-anchor="start" x="8" y="-40.5" font-family="Helvetica,sans-Serif" font-size="10.00">+ virtual void OnTick</text>
<text text-anchor="start" x="8" y="-29.5" font-family="Helvetica,sans-Serif" font-size="10.00">() override</text>
<text text-anchor="start" x="8" y="-18.5" font-family="Helvetica,sans-Serif" font-size="10.00">+ virtual void OnStart</text>
<text text-anchor="start" x="8" y="-7.5" font-family="Helvetica,sans-Serif" font-size="10.00">() override</text>
</a>
</g>
</g>
<!-- Node1&#45;&gt;Node4 -->
<g id="edge3" class="edge">
<title>Node1&#45;&gt;Node4</title>
<path fill="none" stroke="#63b8ff" d="M171.79,-206.45C166.51,-197.6 160.9,-188.22 155.26,-178.78"/>
<polygon fill="none" stroke="#63b8ff" points="168.83,-208.31 176.96,-215.1 174.84,-204.72 168.83,-208.31"/>
</g>
<!-- Node5 -->
<g id="node5" class="node">
<title>Node5</title>
<g id="a_node5"><a xlink:href="../../d9/d2c/classPlayerKeyboardBehavior.html" target="_top" xlink:title="The keyboard handler for the player.">
<polygon fill="white" stroke="#666666" points="223.5,-0.5 223.5,-178.5 387.5,-178.5 387.5,-0.5 223.5,-0.5"/>
<text text-anchor="middle" x="305.5" y="-166.5" font-family="Helvetica,sans-Serif" font-size="10.00">PlayerKeyboardBehavior</text>
<polyline fill="none" stroke="#666666" points="223.5,-159.5 387.5,-159.5 "/>
<text text-anchor="middle" x="305.5" y="-147.5" font-family="Helvetica,sans-Serif" font-size="10.00"> </text>
<polyline fill="none" stroke="#666666" points="223.5,-140.5 387.5,-140.5 "/>
<text text-anchor="start" x="231.5" y="-128.5" font-family="Helvetica,sans-Serif" font-size="10.00">+ PlayerKeyboardBehavior()</text>
<text text-anchor="start" x="231.5" y="-117.5" font-family="Helvetica,sans-Serif" font-size="10.00">+ ~PlayerKeyboardBehavior()</text>
<text text-anchor="start" x="231.5" y="-106.5" font-family="Helvetica,sans-Serif" font-size="10.00">+ virtual void OnKeyDown</text>
<text text-anchor="start" x="231.5" y="-95.5" font-family="Helvetica,sans-Serif" font-size="10.00">(SDL_KeyboardEvent &amp;e)</text>
<text text-anchor="start" x="231.5" y="-84.5" font-family="Helvetica,sans-Serif" font-size="10.00"> override</text>
<text text-anchor="start" x="231.5" y="-73.5" font-family="Helvetica,sans-Serif" font-size="10.00">+ virtual void OnKeyUp</text>
<text text-anchor="start" x="231.5" y="-62.5" font-family="Helvetica,sans-Serif" font-size="10.00">(SDL_KeyboardEvent &amp;e)</text>
<text text-anchor="start" x="231.5" y="-51.5" font-family="Helvetica,sans-Serif" font-size="10.00"> override</text>
<text text-anchor="start" x="231.5" y="-40.5" font-family="Helvetica,sans-Serif" font-size="10.00">+ virtual void OnTick</text>
<text text-anchor="start" x="231.5" y="-29.5" font-family="Helvetica,sans-Serif" font-size="10.00">() override</text>
<text text-anchor="start" x="231.5" y="-18.5" font-family="Helvetica,sans-Serif" font-size="10.00">+ virtual void OnStart</text>
<text text-anchor="start" x="231.5" y="-7.5" font-family="Helvetica,sans-Serif" font-size="10.00">() override</text>
</a>
</g>
</g>
<!-- Node1&#45;&gt;Node5 -->
<g id="edge4" class="edge">
<title>Node1&#45;&gt;Node5</title>
<path fill="none" stroke="#63b8ff" d="M235.52,-206.45C240.86,-197.6 246.52,-188.22 252.22,-178.78"/>
<polygon fill="none" stroke="#63b8ff" points="232.47,-204.73 230.3,-215.1 238.46,-208.34 232.47,-204.73"/>
</g>
<!-- Node2 -->
<g id="node2" class="node">
<title>Node2</title>
<g id="a_node2"><a xlink:href="../../df/dc1/classBehavior.html" target="_top" xlink:title="An abstract gameobject behavior.">
<polygon fill="white" stroke="#666666" points="173.5,-342.5 173.5,-399.5 233.5,-399.5 233.5,-342.5 173.5,-342.5"/>
<text text-anchor="middle" x="203.5" y="-387.5" font-family="Helvetica,sans-Serif" font-size="10.00">Behavior</text>
<polyline fill="none" stroke="#666666" points="173.5,-380.5 233.5,-380.5 "/>
<text text-anchor="middle" x="203.5" y="-368.5" font-family="Helvetica,sans-Serif" font-size="10.00"> </text>
<polyline fill="none" stroke="#666666" points="173.5,-361.5 233.5,-361.5 "/>
<text text-anchor="middle" x="203.5" y="-349.5" font-family="Helvetica,sans-Serif" font-size="10.00"> </text>
</a>
</g>
</g>
<!-- Node2&#45;&gt;Node1 -->
<g id="edge1" class="edge">
<title>Node2&#45;&gt;Node1</title>
<path fill="none" stroke="#63b8ff" d="M203.5,-332.21C203.5,-323.61 203.5,-314.39 203.5,-305.55"/>
<polygon fill="none" stroke="#63b8ff" points="200,-332.34 203.5,-342.34 207,-332.34 200,-332.34"/>
</g>
<!-- Node3 -->
<g id="node3" class="node">
<title>Node3</title>
<g id="a_node3"><a xlink:href="../../d9/df7/classGameObjectComponent.html" target="_top" xlink:title="An abstract gameobject component.">
<polygon fill="white" stroke="#666666" points="106,-436.5 106,-581.5 301,-581.5 301,-436.5 106,-436.5"/>
<text text-anchor="middle" x="203.5" y="-569.5" font-family="Helvetica,sans-Serif" font-size="10.00">GameObjectComponent</text>
<polyline fill="none" stroke="#666666" points="106,-562.5 301,-562.5 "/>
<text text-anchor="start" x="114" y="-550.5" font-family="Helvetica,sans-Serif" font-size="10.00"># bool enabled</text>
<text text-anchor="start" x="114" y="-539.5" font-family="Helvetica,sans-Serif" font-size="10.00"># GameObject * parent</text>
<polyline fill="none" stroke="#666666" points="106,-532.5 301,-532.5 "/>
<text text-anchor="start" x="114" y="-520.5" font-family="Helvetica,sans-Serif" font-size="10.00">+ bool getEnabled() const</text>
<text text-anchor="start" x="114" y="-509.5" font-family="Helvetica,sans-Serif" font-size="10.00">+ void setEnabled(bool</text>
<text text-anchor="start" x="114" y="-498.5" font-family="Helvetica,sans-Serif" font-size="10.00"> value)</text>
<text text-anchor="start" x="114" y="-487.5" font-family="Helvetica,sans-Serif" font-size="10.00">+ void setParent(GameObject</text>
<text text-anchor="start" x="114" y="-476.5" font-family="Helvetica,sans-Serif" font-size="10.00"> *value)</text>
<text text-anchor="start" x="114" y="-465.5" font-family="Helvetica,sans-Serif" font-size="10.00">+ virtual ~GameObjectComponent()</text>
<text text-anchor="start" x="114" y="-454.5" font-family="Helvetica,sans-Serif" font-size="10.00">+ virtual void OnTick()=0</text>
<text text-anchor="start" x="114" y="-443.5" font-family="Helvetica,sans-Serif" font-size="10.00">+ virtual void OnStart()=0</text>
</a>
</g>
</g>
<!-- Node3&#45;&gt;Node2 -->
<g id="edge2" class="edge">
<title>Node3&#45;&gt;Node2</title>
<path fill="none" stroke="#63b8ff" d="M203.5,-426.39C203.5,-416.86 203.5,-407.71 203.5,-399.71"/>
<polygon fill="none" stroke="#63b8ff" points="200,-426.42 203.5,-436.42 207,-426.42 200,-426.42"/>
</g>
</g>
</svg>
