<?xml version="1.0" encoding="UTF-8" standalone="no"?>
<!DOCTYPE svg PUBLIC "-//W3C//DTD SVG 1.1//EN"
 "http://www.w3.org/Graphics/SVG/1.1/DTD/svg11.dtd">
<!-- Generated by graphviz version 2.43.0 (0)
 -->
<!-- Title: CreateInitialGameObjects Pages: 1 -->
<svg width="523pt" height="325pt"
 viewBox="0.00 0.00 523.00 325.00" xmlns="http://www.w3.org/2000/svg" xmlns:xlink="http://www.w3.org/1999/xlink">
<g id="graph0" class="graph" transform="scale(1 1) rotate(0) translate(4 321)">
<title>CreateInitialGameObjects</title>
<!-- Node1 -->
<g id="Node000001" class="node">
<title>Node1</title>
<g id="a_Node000001"><a xlink:title="Create the initial gameobjects required for the game.">
<polygon fill="#999999" stroke="#666666" points="143,-167 0,-167 0,-148 143,-148 143,-167"/>
<text text-anchor="middle" x="71.5" y="-155" font-family="Helvetica,sans-Serif" font-size="10.00">CreateInitialGameObjects</text>
</a>
</g>
</g>
<!-- Node2 -->
<g id="Node000002" class="node">
<title>Node2</title>
<g id="a_Node000002"><a xlink:href="../../d9/dfa/Init_8cpp.html#a3ff595c2af791c369e2318510062ce14" target="_top" xlink:title="Create the coffee meter bar.">
<polygon fill="white" stroke="#666666" points="303.5,-280 194.5,-280 194.5,-261 303.5,-261 303.5,-280"/>
<text text-anchor="middle" x="249" y="-268" font-family="Helvetica,sans-Serif" font-size="10.00">CreateCoffeeMeter</text>
</a>
</g>
</g>
<!-- Node1&#45;&gt;Node2 -->
<g id="edge1_Node000001_Node000002" class="edge">
<title>Node1&#45;&gt;Node2</title>
<g id="a_edge1_Node000001_Node000002"><a xlink:title=" ">
<path fill="none" stroke="#63b8ff" d="M81.59,-167.13C98.97,-185.04 138.75,-223.7 179,-246.5 186.46,-250.72 194.78,-254.39 203,-257.5"/>
<polygon fill="#63b8ff" stroke="#63b8ff" points="201.94,-260.84 212.54,-260.89 204.29,-254.24 201.94,-260.84"/>
</a>
</g>
</g>
<!-- Node3 -->
<g id="Node000003" class="node">
<title>Node3</title>
<g id="a_Node000003"><a xlink:href="../../d2/d41/ObjectManagement_8cpp.html#a9f8d0a459a7758c8b2d0b72cdd8adad0" target="_top" xlink:title="Enqueue an object to be registered on the next frame.">
<polygon fill="white" stroke="#666666" points="515,-186 355,-186 355,-167 515,-167 515,-186"/>
<text text-anchor="middle" x="435" y="-174" font-family="Helvetica,sans-Serif" font-size="10.00">EnqueueRegisterGameObject</text>
</a>
</g>
</g>
<!-- Node1&#45;&gt;Node3 -->
<g id="edge10_Node000001_Node000003" class="edge">
<title>Node1&#45;&gt;Node3</title>
<g id="a_edge10_Node000001_Node000003"><a xlink:title=" ">
<path fill="none" stroke="#63b8ff" d="M85.76,-167.22C105.09,-180.73 142.7,-204.54 179,-213.5 239.41,-228.41 257.53,-223.15 319,-213.5 347.88,-208.97 379.4,-198.4 402.12,-189.72"/>
<polygon fill="#63b8ff" stroke="#63b8ff" points="403.56,-192.92 411.6,-186.01 401.01,-186.4 403.56,-192.92"/>
</a>
</g>
</g>
<!-- Node4 -->
<g id="Node000004" class="node">
<title>Node4</title>
<g id="a_Node000004"><a xlink:href="../../d9/dfa/Init_8cpp.html#a1bfb628b6cd503e396bae0796f2051c1" target="_top" xlink:title="Create the icon next to the coffee meter.">
<polygon fill="white" stroke="#666666" points="313.5,-317 184.5,-317 184.5,-298 313.5,-298 313.5,-317"/>
<text text-anchor="middle" x="249" y="-305" font-family="Helvetica,sans-Serif" font-size="10.00">CreateCoffeeMeterIcon</text>
</a>
</g>
</g>
<!-- Node1&#45;&gt;Node4 -->
<g id="edge3_Node000001_Node000004" class="edge">
<title>Node1&#45;&gt;Node4</title>
<g id="a_edge3_Node000001_Node000004"><a xlink:title=" ">
<path fill="none" stroke="#63b8ff" d="M77.46,-167.23C90.5,-191.8 128.3,-256.75 179,-289.5 181.57,-291.16 184.28,-292.67 187.09,-294.03"/>
<polygon fill="#63b8ff" stroke="#63b8ff" points="185.75,-297.27 196.33,-297.95 188.49,-290.82 185.75,-297.27"/>
</a>
</g>
</g>
<!-- Node6 -->
<g id="Node000006" class="node">
<title>Node6</title>
<g id="a_Node000006"><a xlink:href="../../d9/dfa/Init_8cpp.html#a7577908172d93807ef67f163f851fe5e" target="_top" xlink:title="Create the floor and register it.">
<polygon fill="white" stroke="#666666" points="286,-204 212,-204 212,-185 286,-185 286,-204"/>
<text text-anchor="middle" x="249" y="-192" font-family="Helvetica,sans-Serif" font-size="10.00">CreateFloor</text>
</a>
</g>
</g>
<!-- Node1&#45;&gt;Node6 -->
<g id="edge6_Node000001_Node000006" class="edge">
<title>Node1&#45;&gt;Node6</title>
<g id="a_edge6_Node000001_Node000006"><a xlink:title=" ">
<path fill="none" stroke="#63b8ff" d="M117.7,-167.03C143.52,-172.47 175.83,-179.28 201.81,-184.76"/>
<polygon fill="#63b8ff" stroke="#63b8ff" points="201.29,-188.23 211.8,-186.87 202.73,-181.38 201.29,-188.23"/>
</a>
</g>
</g>
<!-- Node7 -->
<g id="Node000007" class="node">
<title>Node7</title>
<g id="a_Node000007"><a xlink:href="../../d9/dfa/Init_8cpp.html#a8ad8206fa2846739c5e76ce97b6b2783" target="_top" xlink:title="Create the score counter and register it.">
<polygon fill="white" stroke="#666666" points="306,-167 192,-167 192,-148 306,-148 306,-167"/>
<text text-anchor="middle" x="249" y="-155" font-family="Helvetica,sans-Serif" font-size="10.00">CreateScoreCounter</text>
</a>
</g>
</g>
<!-- Node1&#45;&gt;Node7 -->
<g id="edge8_Node000001_Node000007" class="edge">
<title>Node1&#45;&gt;Node7</title>
<g id="a_edge8_Node000001_Node000007"><a xlink:title=" ">
<path fill="none" stroke="#63b8ff" d="M143.12,-157.5C155.77,-157.5 168.92,-157.5 181.45,-157.5"/>
<polygon fill="#63b8ff" stroke="#63b8ff" points="181.81,-161 191.81,-157.5 181.81,-154 181.81,-161"/>
</a>
</g>
</g>
<!-- Node8 -->
<g id="Node000008" class="node">
<title>Node8</title>
<g id="a_Node000008"><a xlink:href="../../d9/dfa/Init_8cpp.html#ac07b948048071cbf70f69aa9d691a93f" target="_top" xlink:title="Set the window background to white.">
<polygon fill="white" stroke="#666666" points="319,-130 179,-130 179,-111 319,-111 319,-130"/>
<text text-anchor="middle" x="249" y="-118" font-family="Helvetica,sans-Serif" font-size="10.00">SetupWindowbackground</text>
</a>
</g>
</g>
<!-- Node1&#45;&gt;Node8 -->
<g id="edge11_Node000001_Node000008" class="edge">
<title>Node1&#45;&gt;Node8</title>
<g id="a_edge11_Node000001_Node000008"><a xlink:title=" ">
<path fill="none" stroke="#63b8ff" d="M117.7,-147.97C140.53,-143.16 168.45,-137.27 192.57,-132.19"/>
<polygon fill="#63b8ff" stroke="#63b8ff" points="193.59,-135.55 202.65,-130.06 192.15,-128.7 193.59,-135.55"/>
</a>
</g>
</g>
<!-- Node9 -->
<g id="Node000009" class="node">
<title>Node9</title>
<g id="a_Node000009"><a xlink:href="../../d9/dfa/Init_8cpp.html#a374cb6f303f72b5af970063ff1318f24" target="_top" xlink:title="Create the left wall and register it.">
<polygon fill="white" stroke="#666666" points="293,-93 205,-93 205,-74 293,-74 293,-93"/>
<text text-anchor="middle" x="249" y="-81" font-family="Helvetica,sans-Serif" font-size="10.00">SpawnLeftWall</text>
</a>
</g>
</g>
<!-- Node1&#45;&gt;Node9 -->
<g id="edge12_Node000001_Node000009" class="edge">
<title>Node1&#45;&gt;Node9</title>
<g id="a_edge12_Node000001_Node000009"><a xlink:title=" ">
<path fill="none" stroke="#63b8ff" d="M88.61,-147.83C109.05,-135.88 145.66,-115.53 179,-102.5 185,-100.15 191.4,-97.98 197.79,-96"/>
<polygon fill="#63b8ff" stroke="#63b8ff" points="199.16,-99.25 207.77,-93.06 197.19,-92.53 199.16,-99.25"/>
</a>
</g>
</g>
<!-- Node10 -->
<g id="Node000010" class="node">
<title>Node10</title>
<g id="a_Node000010"><a xlink:href="../../d9/dfa/Init_8cpp.html#aa021dfea28868af5fdc6eb97fdf11395" target="_top" xlink:title="Create the player and register it.">
<polygon fill="white" stroke="#666666" points="289,-56 209,-56 209,-37 289,-37 289,-56"/>
<text text-anchor="middle" x="249" y="-44" font-family="Helvetica,sans-Serif" font-size="10.00">SpawnPlayer</text>
</a>
</g>
</g>
<!-- Node1&#45;&gt;Node10 -->
<g id="edge14_Node000001_Node000010" class="edge">
<title>Node1&#45;&gt;Node10</title>
<g id="a_edge14_Node000001_Node000010"><a xlink:title=" ">
<path fill="none" stroke="#63b8ff" d="M80.86,-147.85C97.59,-129.15 137.19,-87.83 179,-65.5 185.19,-62.2 192,-59.43 198.86,-57.11"/>
<polygon fill="#63b8ff" stroke="#63b8ff" points="200.34,-60.32 208.88,-54.05 198.29,-53.63 200.34,-60.32"/>
</a>
</g>
</g>
<!-- Node11 -->
<g id="Node000011" class="node">
<title>Node11</title>
<g id="a_Node000011"><a xlink:href="../../d9/dfa/Init_8cpp.html#a0e2d0321a787eb9a3b705489c8f2b86b" target="_top" xlink:title="Create the right wall and register it.">
<polygon fill="white" stroke="#666666" points="296.5,-19 201.5,-19 201.5,0 296.5,0 296.5,-19"/>
<text text-anchor="middle" x="249" y="-7" font-family="Helvetica,sans-Serif" font-size="10.00">SpawnRightWall</text>
</a>
</g>
</g>
<!-- Node1&#45;&gt;Node11 -->
<g id="edge16_Node000001_Node000011" class="edge">
<title>Node1&#45;&gt;Node11</title>
<g id="a_edge16_Node000001_Node000011"><a xlink:title=" ">
<path fill="none" stroke="#63b8ff" d="M77.5,-147.92C90.64,-123.72 128.64,-59.77 179,-27.5 183.02,-24.92 187.4,-22.71 191.94,-20.82"/>
<polygon fill="#63b8ff" stroke="#63b8ff" points="193.21,-24.08 201.4,-17.36 190.81,-17.51 193.21,-24.08"/>
</a>
</g>
</g>
<!-- Node2&#45;&gt;Node3 -->
<g id="edge2_Node000002_Node000003" class="edge">
<title>Node2&#45;&gt;Node3</title>
<g id="a_edge2_Node000002_Node000003"><a xlink:title=" ">
<path fill="none" stroke="#63b8ff" d="M282.16,-260.89C293.97,-256.95 307.3,-252.02 319,-246.5 352.81,-230.55 389.27,-207.2 411.87,-191.93"/>
<polygon fill="#63b8ff" stroke="#63b8ff" points="414.09,-194.65 420.37,-186.12 410.14,-188.87 414.09,-194.65"/>
</a>
</g>
</g>
<!-- Node4&#45;&gt;Node3 -->
<g id="edge4_Node000004_Node000003" class="edge">
<title>Node4&#45;&gt;Node3</title>
<g id="a_edge4_Node000004_Node000003"><a xlink:title=" ">
<path fill="none" stroke="#63b8ff" d="M299.5,-297.97C306.28,-295.71 312.97,-292.92 319,-289.5 362.59,-264.78 401.45,-219.38 420.88,-194.3"/>
<polygon fill="#63b8ff" stroke="#63b8ff" points="423.88,-196.15 427.13,-186.06 418.3,-191.91 423.88,-196.15"/>
</a>
</g>
</g>
<!-- Node5 -->
<g id="Node000005" class="node">
<title>Node5</title>
<g id="a_Node000005"><a xlink:href="../../d1/da9/AssetLoading_8cpp.html#a07739f40c13743b2dfceefb659d6d455" target="_top" xlink:title="Return the correct asset path for the asset depending on the current environment.">
<polygon fill="white" stroke="#666666" points="476,-317 394,-317 394,-298 476,-298 476,-317"/>
<text text-anchor="middle" x="435" y="-305" font-family="Helvetica,sans-Serif" font-size="10.00">GetAssetPath</text>
</a>
</g>
</g>
<!-- Node4&#45;&gt;Node5 -->
<g id="edge5_Node000004_Node000005" class="edge">
<title>Node4&#45;&gt;Node5</title>
<g id="a_edge5_Node000004_Node000005"><a xlink:title=" ">
<path fill="none" stroke="#63b8ff" d="M313.58,-307.5C336.43,-307.5 361.88,-307.5 383.47,-307.5"/>
<polygon fill="#63b8ff" stroke="#63b8ff" points="383.73,-311 393.73,-307.5 383.73,-304 383.73,-311"/>
</a>
</g>
</g>
<!-- Node6&#45;&gt;Node3 -->
<g id="edge7_Node000006_Node000003" class="edge">
<title>Node6&#45;&gt;Node3</title>
<g id="a_edge7_Node000006_Node000003"><a xlink:title=" ">
<path fill="none" stroke="#63b8ff" d="M286.35,-190.94C303.18,-189.3 323.99,-187.26 344.63,-185.24"/>
<polygon fill="#63b8ff" stroke="#63b8ff" points="345.11,-188.71 354.73,-184.26 344.43,-181.75 345.11,-188.71"/>
</a>
</g>
</g>
<!-- Node7&#45;&gt;Node3 -->
<g id="edge9_Node000007_Node000003" class="edge">
<title>Node7&#45;&gt;Node3</title>
<g id="a_edge9_Node000007_Node000003"><a xlink:title=" ">
<path fill="none" stroke="#63b8ff" d="M306.21,-163.3C318.42,-164.56 331.63,-165.93 344.76,-167.28"/>
<polygon fill="#63b8ff" stroke="#63b8ff" points="344.46,-170.77 354.77,-168.32 345.18,-163.81 344.46,-170.77"/>
</a>
</g>
</g>
<!-- Node9&#45;&gt;Node3 -->
<g id="edge13_Node000009_Node000003" class="edge">
<title>Node9&#45;&gt;Node3</title>
<g id="a_edge13_Node000009_Node000003"><a xlink:title=" ">
<path fill="none" stroke="#63b8ff" d="M292.67,-93.07C301.55,-95.66 310.72,-98.8 319,-102.5 354.59,-118.4 391.84,-144.35 413.97,-160.91"/>
<polygon fill="#63b8ff" stroke="#63b8ff" points="411.87,-163.71 421.95,-166.97 416.1,-158.13 411.87,-163.71"/>
</a>
</g>
</g>
<!-- Node10&#45;&gt;Node3 -->
<g id="edge15_Node000010_Node000003" class="edge">
<title>Node10&#45;&gt;Node3</title>
<g id="a_edge15_Node000010_Node000003"><a xlink:title=" ">
<path fill="none" stroke="#63b8ff" d="M289.31,-53.7C299.39,-56.51 309.93,-60.33 319,-65.5 361.94,-89.98 400.8,-134.13 420.47,-158.73"/>
<polygon fill="#63b8ff" stroke="#63b8ff" points="417.9,-161.12 426.82,-166.84 423.41,-156.81 417.9,-161.12"/>
</a>
</g>
</g>
<!-- Node11&#45;&gt;Node3 -->
<g id="edge17_Node000011_Node000003" class="edge">
<title>Node11&#45;&gt;Node3</title>
<g id="a_edge17_Node000011_Node000003"><a xlink:title=" ">
<path fill="none" stroke="#63b8ff" d="M296.71,-17.19C304.54,-19.72 312.29,-23.06 319,-27.5 370.15,-61.33 408.11,-125.65 424.73,-157.56"/>
<polygon fill="#63b8ff" stroke="#63b8ff" points="421.72,-159.37 429.37,-166.7 427.97,-156.2 421.72,-159.37"/>
</a>
</g>
</g>
</g>
</svg>
