<?xml version="1.0" encoding="UTF-8" standalone="no"?>
<!DOCTYPE svg PUBLIC "-//W3C//DTD SVG 1.1//EN"
 "http://www.w3.org/Graphics/SVG/1.1/DTD/svg11.dtd">
<!-- Generated by graphviz version 2.43.0 (0)
 -->
<!-- Title: GameObject::GetFirstComponent Pages: 1 -->
<svg width="359pt" height="182pt"
 viewBox="0.00 0.00 359.00 182.00" xmlns="http://www.w3.org/2000/svg" xmlns:xlink="http://www.w3.org/1999/xlink">
<g id="graph0" class="graph" transform="scale(1 1) rotate(0) translate(4 178)">
<title>GameObject::GetFirstComponent</title>
<!-- Node1 -->
<g id="node1" class="node">
<title>Node1</title>
<g id="a_node1"><a xlink:title="Get the first component that matches the type T.">
<polygon fill="#999999" stroke="#666666" points="351,-96.5 173,-96.5 173,-77.5 351,-77.5 351,-96.5"/>
<text text-anchor="middle" x="262" y="-84.5" font-family="Helvetica,sans-Serif" font-size="10.00">GameObject::GetFirstComponent</text>
</a>
</g>
</g>
<!-- Node2 -->
<g id="node2" class="node">
<title>Node2</title>
<g id="a_node2"><a xlink:href="../../d0/d31/classPlayerCollisionBehavior.html#a37d78c9ec93b470831ce124b74423ff5" target="_top" xlink:title="The action to be taken when the object will collide next frame.">
<polygon fill="white" stroke="#666666" points="135,-174 2,-174 2,-144 135,-144 135,-174"/>
<text text-anchor="start" x="10" y="-162" font-family="Helvetica,sans-Serif" font-size="10.00">PlayerCollisionBehavior</text>
<text text-anchor="middle" x="68.5" y="-151" font-family="Helvetica,sans-Serif" font-size="10.00">::BeforeCollision</text>
</a>
</g>
</g>
<!-- Node1&#45;&gt;Node2 -->
<g id="edge1" class="edge">
<title>Node1&#45;&gt;Node2</title>
<path fill="none" stroke="#63b8ff" d="M227.48,-100.26C202.59,-110.05 167.76,-123.58 137,-135 129.07,-137.94 120.59,-141.02 112.41,-143.94"/>
<polygon fill="#63b8ff" stroke="#63b8ff" points="228.82,-103.5 236.84,-96.58 226.25,-96.99 228.82,-103.5"/>
</g>
<!-- Node3 -->
<g id="node3" class="node">
<title>Node3</title>
<g id="a_node3"><a xlink:href="../../d9/d2c/classPlayerKeyboardBehavior.html#a33cb56185fe7c59308dfe6cf05776adf" target="_top" xlink:title="Called when a key is pressed (or held) down.">
<polygon fill="white" stroke="#666666" points="137,-126 0,-126 0,-96 137,-96 137,-126"/>
<text text-anchor="start" x="8" y="-114" font-family="Helvetica,sans-Serif" font-size="10.00">PlayerKeyboardBehavior</text>
<text text-anchor="middle" x="68.5" y="-103" font-family="Helvetica,sans-Serif" font-size="10.00">::OnKeyDown</text>
</a>
</g>
</g>
<!-- Node1&#45;&gt;Node3 -->
<g id="edge2" class="edge">
<title>Node1&#45;&gt;Node3</title>
<path fill="none" stroke="#63b8ff" d="M174.98,-97.78C162.35,-99.36 149.49,-100.97 137.3,-102.5"/>
<polygon fill="#63b8ff" stroke="#63b8ff" points="175.55,-101.24 185.04,-96.52 174.68,-94.29 175.55,-101.24"/>
</g>
<!-- Node4 -->
<g id="node4" class="node">
<title>Node4</title>
<g id="a_node4"><a xlink:href="../../d4/dd8/classCoffeeMeterBehavior.html#ad649e271bb71e75dc7ffa5a3d458aa81" target="_top" xlink:title=" ">
<polygon fill="white" stroke="#666666" points="128.5,-78 8.5,-78 8.5,-48 128.5,-48 128.5,-78"/>
<text text-anchor="start" x="16.5" y="-66" font-family="Helvetica,sans-Serif" font-size="10.00">CoffeeMeterBehavior</text>
<text text-anchor="middle" x="68.5" y="-55" font-family="Helvetica,sans-Serif" font-size="10.00">::OnTick</text>
</a>
</g>
</g>
<!-- Node1&#45;&gt;Node4 -->
<g id="edge3" class="edge">
<title>Node1&#45;&gt;Node4</title>
<path fill="none" stroke="#63b8ff" d="M174.82,-76.2C159.17,-74.24 143.17,-72.23 128.53,-70.4"/>
<polygon fill="#63b8ff" stroke="#63b8ff" points="174.68,-79.71 185.04,-77.48 175.55,-72.76 174.68,-79.71"/>
</g>
<!-- Node5 -->
<g id="node5" class="node">
<title>Node5</title>
<g id="a_node5"><a xlink:href="../../db/d44/classScoreCounterBehavior.html#a33d6680553208e93fc39a4edc9946232" target="_top" xlink:title=" ">
<polygon fill="white" stroke="#666666" points="131,-30 6,-30 6,0 131,0 131,-30"/>
<text text-anchor="start" x="14" y="-18" font-family="Helvetica,sans-Serif" font-size="10.00">ScoreCounterBehavior</text>
<text text-anchor="middle" x="68.5" y="-7" font-family="Helvetica,sans-Serif" font-size="10.00">::OnTick</text>
</a>
</g>
</g>
<!-- Node1&#45;&gt;Node5 -->
<g id="edge4" class="edge">
<title>Node1&#45;&gt;Node5</title>
<path fill="none" stroke="#63b8ff" d="M227.48,-73.74C202.59,-63.95 167.76,-50.42 137,-39 129.07,-36.06 120.59,-32.98 112.41,-30.06"/>
<polygon fill="#63b8ff" stroke="#63b8ff" points="226.25,-77.01 236.84,-77.42 228.82,-70.5 226.25,-77.01"/>
</g>
</g>
</svg>
