<?xml version="1.0" encoding="UTF-8" standalone="no"?>
<!DOCTYPE svg PUBLIC "-//W3C//DTD SVG 1.1//EN"
 "http://www.w3.org/Graphics/SVG/1.1/DTD/svg11.dtd">
<!-- Generated by graphviz version 2.43.0 (0)
 -->
<!-- Title: GameObject::getVelocity Pages: 1 -->
<svg width="463pt" height="220pt"
 viewBox="0.00 0.00 463.00 219.50" xmlns="http://www.w3.org/2000/svg" xmlns:xlink="http://www.w3.org/1999/xlink">
<g id="graph0" class="graph" transform="scale(1 1) rotate(0) translate(4 215.5)">
<title>GameObject::getVelocity</title>
<!-- Node1 -->
<g id="node1" class="node">
<title>Node1</title>
<g id="a_node1"><a xlink:title=" ">
<polygon fill="#999999" stroke="#666666" points="455,-110 317,-110 317,-91 455,-91 455,-110"/>
<text text-anchor="middle" x="386" y="-98" font-family="Helvetica,sans-Serif" font-size="10.00">GameObject::getVelocity</text>
</a>
</g>
</g>
<!-- Node2 -->
<g id="node2" class="node">
<title>Node2</title>
<g id="a_node2"><a xlink:href="../../d0/d31/classPlayerCollisionBehavior.html#a37d78c9ec93b470831ce124b74423ff5" target="_top" xlink:title="The action to be taken when the object will collide next frame.">
<polygon fill="white" stroke="#666666" points="279,-211.5 146,-211.5 146,-181.5 279,-181.5 279,-211.5"/>
<text text-anchor="start" x="154" y="-199.5" font-family="Helvetica,sans-Serif" font-size="10.00">PlayerCollisionBehavior</text>
<text text-anchor="middle" x="212.5" y="-188.5" font-family="Helvetica,sans-Serif" font-size="10.00">::BeforeCollision</text>
</a>
</g>
</g>
<!-- Node1&#45;&gt;Node2 -->
<g id="edge1" class="edge">
<title>Node1&#45;&gt;Node2</title>
<path fill="none" stroke="#63b8ff" d="M365.39,-116.44C345.19,-132.27 312.32,-156.45 281,-172.5 274.69,-175.73 267.84,-178.72 261.01,-181.4"/>
<polygon fill="#63b8ff" stroke="#63b8ff" points="367.83,-118.97 373.48,-110.01 363.47,-113.49 367.83,-118.97"/>
</g>
<!-- Node3 -->
<g id="node3" class="node">
<title>Node3</title>
<g id="a_node3"><a xlink:href="../../d9/df0/classCollisionBehavior.html#ac109e777e29c737c0454464e611a7449" target="_top" xlink:title="Check if this components parent will collide with the other object next frame.">
<polygon fill="white" stroke="#666666" points="266.5,-163.5 158.5,-163.5 158.5,-133.5 266.5,-133.5 266.5,-163.5"/>
<text text-anchor="start" x="166.5" y="-151.5" font-family="Helvetica,sans-Serif" font-size="10.00">CollisionBehavior::</text>
<text text-anchor="middle" x="212.5" y="-140.5" font-family="Helvetica,sans-Serif" font-size="10.00">CheckForCollision</text>
</a>
</g>
</g>
<!-- Node1&#45;&gt;Node3 -->
<g id="edge2" class="edge">
<title>Node1&#45;&gt;Node3</title>
<path fill="none" stroke="#63b8ff" d="M341.01,-112.81C318.34,-119.16 290.51,-126.94 266.65,-133.62"/>
<polygon fill="#63b8ff" stroke="#63b8ff" points="342.02,-116.16 350.71,-110.1 340.13,-109.42 342.02,-116.16"/>
</g>
<!-- Node5 -->
<g id="node5" class="node">
<title>Node5</title>
<g id="a_node5"><a xlink:href="../../d9/d2c/classPlayerKeyboardBehavior.html#a33cb56185fe7c59308dfe6cf05776adf" target="_top" xlink:title="Called when a key is pressed (or held) down.">
<polygon fill="white" stroke="#666666" points="281,-115.5 144,-115.5 144,-85.5 281,-85.5 281,-115.5"/>
<text text-anchor="start" x="152" y="-103.5" font-family="Helvetica,sans-Serif" font-size="10.00">PlayerKeyboardBehavior</text>
<text text-anchor="middle" x="212.5" y="-92.5" font-family="Helvetica,sans-Serif" font-size="10.00">::OnKeyDown</text>
</a>
</g>
</g>
<!-- Node1&#45;&gt;Node5 -->
<g id="edge4" class="edge">
<title>Node1&#45;&gt;Node5</title>
<path fill="none" stroke="#63b8ff" d="M306.51,-100.5C298.08,-100.5 289.55,-100.5 281.26,-100.5"/>
<polygon fill="#63b8ff" stroke="#63b8ff" points="306.73,-104 316.73,-100.5 306.73,-97 306.73,-104"/>
</g>
<!-- Node6 -->
<g id="node6" class="node">
<title>Node6</title>
<g id="a_node6"><a xlink:href="../../d9/d2c/classPlayerKeyboardBehavior.html#a14765675f775768885c059ff42f41bdf" target="_top" xlink:title="Called when a key is released.">
<polygon fill="white" stroke="#666666" points="281,-67.5 144,-67.5 144,-37.5 281,-37.5 281,-67.5"/>
<text text-anchor="start" x="152" y="-55.5" font-family="Helvetica,sans-Serif" font-size="10.00">PlayerKeyboardBehavior</text>
<text text-anchor="middle" x="212.5" y="-44.5" font-family="Helvetica,sans-Serif" font-size="10.00">::OnKeyUp</text>
</a>
</g>
</g>
<!-- Node1&#45;&gt;Node6 -->
<g id="edge5" class="edge">
<title>Node1&#45;&gt;Node6</title>
<path fill="none" stroke="#63b8ff" d="M340.79,-88.13C318.37,-81.85 290.96,-74.18 267.32,-67.56"/>
<polygon fill="#63b8ff" stroke="#63b8ff" points="340.13,-91.58 350.71,-90.9 342.02,-84.84 340.13,-91.58"/>
</g>
<!-- Node7 -->
<g id="node7" class="node">
<title>Node7</title>
<g id="a_node7"><a xlink:href="../../d8/d05/classGravityBehavior.html#aa007d1996c5a1c0840f3957c724a4dee" target="_top" xlink:title=" ">
<polygon fill="white" stroke="#666666" points="280.5,-19 144.5,-19 144.5,0 280.5,0 280.5,-19"/>
<text text-anchor="middle" x="212.5" y="-7" font-family="Helvetica,sans-Serif" font-size="10.00">GravityBehavior::OnTick</text>
</a>
</g>
</g>
<!-- Node1&#45;&gt;Node7 -->
<g id="edge6" class="edge">
<title>Node1&#45;&gt;Node7</title>
<path fill="none" stroke="#63b8ff" d="M365.94,-84.38C345.94,-68.2 313.02,-43.57 281,-28.5 273.07,-24.77 264.26,-21.63 255.69,-19.05"/>
<polygon fill="#63b8ff" stroke="#63b8ff" points="363.97,-87.3 373.92,-90.95 368.42,-81.89 363.97,-87.3"/>
</g>
<!-- Node4 -->
<g id="node4" class="node">
<title>Node4</title>
<g id="a_node4"><a xlink:href="../../d9/df0/classCollisionBehavior.html#a687307bfe48808fb9b86434874368af8" target="_top" xlink:title=" ">
<polygon fill="white" stroke="#666666" points="108,-163.5 0,-163.5 0,-133.5 108,-133.5 108,-163.5"/>
<text text-anchor="start" x="8" y="-151.5" font-family="Helvetica,sans-Serif" font-size="10.00">CollisionBehavior::</text>
<text text-anchor="middle" x="54" y="-140.5" font-family="Helvetica,sans-Serif" font-size="10.00">OnTick</text>
</a>
</g>
</g>
<!-- Node3&#45;&gt;Node4 -->
<g id="edge3" class="edge">
<title>Node3&#45;&gt;Node4</title>
<path fill="none" stroke="#63b8ff" d="M147.7,-148.5C134.57,-148.5 120.88,-148.5 108.18,-148.5"/>
<polygon fill="#63b8ff" stroke="#63b8ff" points="148.08,-152 158.08,-148.5 148.08,-145 148.08,-152"/>
</g>
</g>
</svg>
