<?xml version="1.0" encoding="UTF-8" standalone="no"?>
<!DOCTYPE svg PUBLIC "-//W3C//DTD SVG 1.1//EN"
 "http://www.w3.org/Graphics/SVG/1.1/DTD/svg11.dtd">
<!-- Generated by graphviz version 2.43.0 (0)
 -->
<!-- Title: GameObject::getPosition Pages: 1 -->
<!--zoomable 552 -->
<svg id="main" version="1.1" xmlns="http://www.w3.org/2000/svg" xmlns:xlink="http://www.w3.org/1999/xlink" xml:space="preserve" onload="init(evt)">
<style type="text/css"><![CDATA[
.edge:hover path { stroke: red; }
.edge:hover polygon { stroke: red; fill: red; }
]]></style>
<script type="text/javascript"><![CDATA[
var edges = document.getElementsByTagName('g');
if (edges && edges.length) {
  for (var i=0;i<edges.length;i++) {
    if (edges[i].id.substr(0,4)=='edge') {
      edges[i].setAttribute('class','edge');
    }
  }
}
]]></script>
        <defs>
                <circle id="rim" cx="0" cy="0" r="7"/>
                <circle id="rim2" cx="0" cy="0" r="3.5"/>
                <g id="zoomPlus">
                        <use xlink:href="#rim" fill="#404040">
                                <set attributeName="fill" to="#808080" begin="zoomplus.mouseover" end="zoomplus.mouseout"/>
                        </use>
                        <path d="M-4,0h8M0,-4v8" fill="none" stroke="white" stroke-width="1.5" pointer-events="none"/>
                </g>
                <g id="zoomMin">
                        <use xlink:href="#rim" fill="#404040">
                                <set attributeName="fill" to="#808080" begin="zoomminus.mouseover" end="zoomminus.mouseout"/>
                        </use>
                        <path d="M-4,0h8" fill="none" stroke="white" stroke-width="1.5" pointer-events="none"/>
                </g>
                <g id="dirArrow">
                        <path fill="none" stroke="white" stroke-width="1.5" d="M0,-3.0v7 M-2.5,-0.5L0,-3.0L2.5,-0.5"/>
                </g>
               <g id="resetDef">
                       <use xlink:href="#rim2" fill="#404040">
                               <set attributeName="fill" to="#808080" begin="reset.mouseover" end="reset.mouseout"/>
                       </use>
               </g>
        </defs>

<script type="text/javascript">
var viewWidth = 466;
var viewHeight = 552;
var sectionId = 'dynsection-2';
</script>
<script xlink:href="../../svgpan.js"/>
<svg id="graph" class="graph">
<g id="viewport">
<title>GameObject::getPosition</title>
<!-- Node1 -->
<g id="node1" class="node">
<title>Node1</title>
<g id="a_node1"><a xlink:title=" ">
<polygon fill="#999999" stroke="#666666" points="458,-265 320,-265 320,-246 458,-246 458,-265"/>
<text text-anchor="middle" x="389" y="-253" font-family="Helvetica,sans-Serif" font-size="10.00">GameObject::getPosition</text>
</a>
</g>
</g>
<!-- Node2 -->
<g id="node2" class="node">
<title>Node2</title>
<g id="a_node2"><a xlink:href="../../d0/d31/classPlayerCollisionBehavior.html#a37d78c9ec93b470831ce124b74423ff5" target="_top" xlink:title="The action to be taken when the object will collide next frame.">
<polygon fill="white" stroke="#666666" points="280.5,-543.5 147.5,-543.5 147.5,-513.5 280.5,-513.5 280.5,-543.5"/>
<text text-anchor="start" x="155.5" y="-531.5" font-family="Helvetica,sans-Serif" font-size="10.00">PlayerCollisionBehavior</text>
<text text-anchor="middle" x="214" y="-520.5" font-family="Helvetica,sans-Serif" font-size="10.00">::BeforeCollision</text>
</a>
</g>
</g>
<!-- Node1&#45;&gt;Node2 -->
<g id="edge1" class="edge">
<title>Node1&#45;&gt;Node2</title>
<path fill="none" stroke="#63b8ff" d="M385.3,-275.19C377.91,-321.74 353.03,-439.55 284,-504.5 280.31,-507.98 276.08,-510.95 271.58,-513.5"/>
<polygon fill="#63b8ff" stroke="#63b8ff" points="388.78,-275.6 386.79,-265.19 381.86,-274.57 388.78,-275.6"/>
</g>
<!-- Node3 -->
<g id="node3" class="node">
<title>Node3</title>
<g id="a_node3"><a xlink:href="../../d9/df0/classCollisionBehavior.html#ac109e777e29c737c0454464e611a7449" target="_top" xlink:title="Check if this components parent will collide with the other object next frame.">
<polygon fill="white" stroke="#666666" points="268,-495.5 160,-495.5 160,-465.5 268,-465.5 268,-495.5"/>
<text text-anchor="start" x="168" y="-483.5" font-family="Helvetica,sans-Serif" font-size="10.00">CollisionBehavior::</text>
<text text-anchor="middle" x="214" y="-472.5" font-family="Helvetica,sans-Serif" font-size="10.00">CheckForCollision</text>
</a>
</g>
</g>
<!-- Node1&#45;&gt;Node3 -->
<g id="edge2" class="edge">
<title>Node1&#45;&gt;Node3</title>
<path fill="none" stroke="#63b8ff" d="M383.22,-274.82C372.4,-314.55 342.35,-405.93 284,-456.5 279.3,-460.57 273.88,-463.96 268.17,-466.78"/>
<polygon fill="#63b8ff" stroke="#63b8ff" points="386.63,-275.62 385.76,-265.06 379.85,-273.85 386.63,-275.62"/>
</g>
<!-- Node5 -->
<g id="node5" class="node">
<title>Node5</title>
<g id="a_node5"><a xlink:href="../../d9/df0/classCollisionBehavior.html#a8a037ad8f82ae70b8251e6f9f62008f5" target="_top" xlink:title="Check whether the point defined by the vector2 is inside the collider of this components parent.">
<polygon fill="white" stroke="#666666" points="272,-447.5 156,-447.5 156,-417.5 272,-417.5 272,-447.5"/>
<text text-anchor="start" x="164" y="-435.5" font-family="Helvetica,sans-Serif" font-size="10.00">CollisionBehavior::</text>
<text text-anchor="middle" x="214" y="-424.5" font-family="Helvetica,sans-Serif" font-size="10.00">IsPointInsideCollider</text>
</a>
</g>
</g>
<!-- Node1&#45;&gt;Node5 -->
<g id="edge4" class="edge">
<title>Node1&#45;&gt;Node5</title>
<path fill="none" stroke="#63b8ff" d="M379.95,-274.53C365.43,-306.68 331.83,-371.81 284,-408.5 279.57,-411.9 274.63,-414.83 269.48,-417.37"/>
<polygon fill="#63b8ff" stroke="#63b8ff" points="383.18,-275.9 383.99,-265.33 376.77,-273.08 383.18,-275.9"/>
</g>
<!-- Node6 -->
<g id="node6" class="node">
<title>Node6</title>
<g id="a_node6"><a xlink:href="../../d9/d2c/classPlayerKeyboardBehavior.html#a33cb56185fe7c59308dfe6cf05776adf" target="_top" xlink:title="Called when a key is pressed (or held) down.">
<polygon fill="white" stroke="#666666" points="282.5,-399.5 145.5,-399.5 145.5,-369.5 282.5,-369.5 282.5,-399.5"/>
<text text-anchor="start" x="153.5" y="-387.5" font-family="Helvetica,sans-Serif" font-size="10.00">PlayerKeyboardBehavior</text>
<text text-anchor="middle" x="214" y="-376.5" font-family="Helvetica,sans-Serif" font-size="10.00">::OnKeyDown</text>
</a>
</g>
</g>
<!-- Node1&#45;&gt;Node6 -->
<g id="edge5" class="edge">
<title>Node1&#45;&gt;Node6</title>
<path fill="none" stroke="#63b8ff" d="M374.7,-273.27C356.56,-296.37 321.94,-336.58 284,-360.5 278.64,-363.88 272.73,-366.86 266.71,-369.46"/>
<polygon fill="#63b8ff" stroke="#63b8ff" points="377.7,-275.11 381.02,-265.06 372.15,-270.85 377.7,-275.11"/>
</g>
<!-- Node7 -->
<g id="node7" class="node">
<title>Node7</title>
<g id="a_node7"><a xlink:href="../../dd/d7f/classFontRenderer.html#aeee33563f86a299b855445c16b65236b" target="_top" xlink:title=" ">
<polygon fill="white" stroke="#666666" points="276.5,-351 151.5,-351 151.5,-332 276.5,-332 276.5,-351"/>
<text text-anchor="middle" x="214" y="-339" font-family="Helvetica,sans-Serif" font-size="10.00">FontRenderer::OnStart</text>
</a>
</g>
</g>
<!-- Node1&#45;&gt;Node7 -->
<g id="edge6" class="edge">
<title>Node1&#45;&gt;Node7</title>
<path fill="none" stroke="#63b8ff" d="M367.77,-271.19C347.55,-286.22 315.08,-308.6 284,-322.5 275.72,-326.2 266.55,-329.34 257.67,-331.93"/>
<polygon fill="#63b8ff" stroke="#63b8ff" points="370.03,-273.88 375.9,-265.06 365.81,-268.29 370.03,-273.88"/>
</g>
<!-- Node8 -->
<g id="node8" class="node">
<title>Node8</title>
<g id="a_node8"><a xlink:href="../../d0/d0f/classRectangleRenderer.html#ac51ca99297c7e6082053161594dbc513" target="_top" xlink:title=" ">
<polygon fill="white" stroke="#666666" points="272,-313.5 156,-313.5 156,-283.5 272,-283.5 272,-313.5"/>
<text text-anchor="start" x="164" y="-301.5" font-family="Helvetica,sans-Serif" font-size="10.00">RectangleRenderer::</text>
<text text-anchor="middle" x="214" y="-290.5" font-family="Helvetica,sans-Serif" font-size="10.00">OnStart</text>
</a>
</g>
</g>
<!-- Node1&#45;&gt;Node8 -->
<g id="edge7" class="edge">
<title>Node1&#45;&gt;Node8</title>
<path fill="none" stroke="#63b8ff" d="M339.63,-267.52C318.64,-272.74 293.9,-278.89 272.02,-284.33"/>
<polygon fill="#63b8ff" stroke="#63b8ff" points="340.75,-270.85 349.61,-265.04 339.06,-264.06 340.75,-270.85"/>
</g>
<!-- Node9 -->
<g id="node9" class="node">
<title>Node9</title>
<g id="a_node9"><a xlink:href="../../d1/dff/classTextureRenderer.html#ae69b12fb84b6fd016cd82b671444503e" target="_top" xlink:title=" ">
<polygon fill="white" stroke="#666666" points="284,-265 144,-265 144,-246 284,-246 284,-265"/>
<text text-anchor="middle" x="214" y="-253" font-family="Helvetica,sans-Serif" font-size="10.00">TextureRenderer::OnStart</text>
</a>
</g>
</g>
<!-- Node1&#45;&gt;Node9 -->
<g id="edge8" class="edge">
<title>Node1&#45;&gt;Node9</title>
<path fill="none" stroke="#63b8ff" d="M309.38,-255.5C300.91,-255.5 292.35,-255.5 284.01,-255.5"/>
<polygon fill="#63b8ff" stroke="#63b8ff" points="309.63,-259 319.63,-255.5 309.63,-252 309.63,-259"/>
</g>
<!-- Node10 -->
<g id="node10" class="node">
<title>Node10</title>
<g id="a_node10"><a xlink:href="../../dd/df8/classKinematicBehavior.html#a05b908feb480544ba5df204f4ea23f55" target="_top" xlink:title=" ">
<polygon fill="white" stroke="#666666" points="272,-227.5 156,-227.5 156,-197.5 272,-197.5 272,-227.5"/>
<text text-anchor="start" x="164" y="-215.5" font-family="Helvetica,sans-Serif" font-size="10.00">KinematicBehavior::</text>
<text text-anchor="middle" x="214" y="-204.5" font-family="Helvetica,sans-Serif" font-size="10.00">OnTick</text>
</a>
</g>
</g>
<!-- Node1&#45;&gt;Node10 -->
<g id="edge9" class="edge">
<title>Node1&#45;&gt;Node10</title>
<path fill="none" stroke="#63b8ff" d="M339.63,-243.48C318.64,-238.26 293.9,-232.11 272.02,-226.67"/>
<polygon fill="#63b8ff" stroke="#63b8ff" points="339.06,-246.94 349.61,-245.96 340.75,-240.15 339.06,-246.94"/>
</g>
<!-- Node11 -->
<g id="node11" class="node">
<title>Node11</title>
<g id="a_node11"><a xlink:href="../../dd/d7f/classFontRenderer.html#ad2dae296ab9eea8372ae6984e39a6774" target="_top" xlink:title=" ">
<polygon fill="white" stroke="#666666" points="275,-179 153,-179 153,-160 275,-160 275,-179"/>
<text text-anchor="middle" x="214" y="-167" font-family="Helvetica,sans-Serif" font-size="10.00">FontRenderer::OnTick</text>
</a>
</g>
</g>
<!-- Node1&#45;&gt;Node11 -->
<g id="edge10" class="edge">
<title>Node1&#45;&gt;Node11</title>
<path fill="none" stroke="#63b8ff" d="M367.77,-239.81C347.55,-224.78 315.08,-202.4 284,-188.5 275.72,-184.8 266.55,-181.66 257.67,-179.07"/>
<polygon fill="#63b8ff" stroke="#63b8ff" points="365.81,-242.71 375.9,-245.94 370.03,-237.12 365.81,-242.71"/>
</g>
<!-- Node12 -->
<g id="node12" class="node">
<title>Node12</title>
<g id="a_node12"><a xlink:href="../../d0/d0f/classRectangleRenderer.html#a74ae4a700b8af1eccc8c845cefc22d6e" target="_top" xlink:title=" ">
<polygon fill="white" stroke="#666666" points="272,-141.5 156,-141.5 156,-111.5 272,-111.5 272,-141.5"/>
<text text-anchor="start" x="164" y="-129.5" font-family="Helvetica,sans-Serif" font-size="10.00">RectangleRenderer::</text>
<text text-anchor="middle" x="214" y="-118.5" font-family="Helvetica,sans-Serif" font-size="10.00">OnTick</text>
</a>
</g>
</g>
<!-- Node1&#45;&gt;Node12 -->
<g id="edge11" class="edge">
<title>Node1&#45;&gt;Node12</title>
<path fill="none" stroke="#63b8ff" d="M374.34,-237.63C356.03,-214.78 321.47,-175.33 284,-151.5 278.09,-147.74 271.53,-144.44 264.88,-141.58"/>
<polygon fill="#63b8ff" stroke="#63b8ff" points="371.81,-240.08 380.74,-245.78 377.31,-235.75 371.81,-240.08"/>
</g>
<!-- Node13 -->
<g id="node13" class="node">
<title>Node13</title>
<g id="a_node13"><a xlink:href="../../d1/dff/classTextureRenderer.html#a90fb55b10b8b9e342b4ef226e92f42c3" target="_top" xlink:title=" ">
<polygon fill="white" stroke="#666666" points="282.5,-93 145.5,-93 145.5,-74 282.5,-74 282.5,-93"/>
<text text-anchor="middle" x="214" y="-81" font-family="Helvetica,sans-Serif" font-size="10.00">TextureRenderer::OnTick</text>
</a>
</g>
</g>
<!-- Node1&#45;&gt;Node13 -->
<g id="edge12" class="edge">
<title>Node1&#45;&gt;Node13</title>
<path fill="none" stroke="#63b8ff" d="M380.41,-236.59C366.38,-204.1 333.25,-137.76 284,-102.5 278.54,-98.59 272.32,-95.49 265.89,-93.03"/>
<polygon fill="#63b8ff" stroke="#63b8ff" points="377.2,-238 384.29,-245.87 383.66,-235.3 377.2,-238"/>
</g>
<!-- Node14 -->
<g id="node14" class="node">
<title>Node14</title>
<g id="a_node14"><a xlink:href="../../d1/d43/classCoffeeBehavior.html#a5281f75fb5ece45513090cbc74636eb9" target="_top" xlink:title=" ">
<polygon fill="white" stroke="#666666" points="279.5,-56 148.5,-56 148.5,-37 279.5,-37 279.5,-56"/>
<text text-anchor="middle" x="214" y="-44" font-family="Helvetica,sans-Serif" font-size="10.00">CoffeeBehavior::OnTick</text>
</a>
</g>
</g>
<!-- Node1&#45;&gt;Node14 -->
<g id="edge13" class="edge">
<title>Node1&#45;&gt;Node14</title>
<path fill="none" stroke="#63b8ff" d="M382.86,-235.89C371.68,-197.22 341.44,-110.95 284,-65.5 279.13,-61.65 273.53,-58.57 267.67,-56.12"/>
<polygon fill="#63b8ff" stroke="#63b8ff" points="379.58,-237.16 385.62,-245.87 386.32,-235.3 379.58,-237.16"/>
</g>
<!-- Node15 -->
<g id="node15" class="node">
<title>Node15</title>
<g id="a_node15"><a xlink:href="../../d9/ddc/classEnemyBehavior.html#aa2e0ea0a9d02dcda1df5c90ac552e654" target="_top" xlink:title=" ">
<polygon fill="white" stroke="#666666" points="281,-19 147,-19 147,0 281,0 281,-19"/>
<text text-anchor="middle" x="214" y="-7" font-family="Helvetica,sans-Serif" font-size="10.00">EnemyBehavior::OnTick</text>
</a>
</g>
</g>
<!-- Node1&#45;&gt;Node15 -->
<g id="edge14" class="edge">
<title>Node1&#45;&gt;Node15</title>
<path fill="none" stroke="#63b8ff" d="M384.68,-235.48C376.27,-191.23 349.91,-84.57 284,-28.5 279.46,-24.64 274.19,-21.55 268.64,-19.09"/>
<polygon fill="#63b8ff" stroke="#63b8ff" points="381.27,-236.32 386.48,-245.54 388.16,-235.08 381.27,-236.32"/>
</g>
<!-- Node4 -->
<g id="node4" class="node">
<title>Node4</title>
<g id="a_node4"><a xlink:href="../../d9/df0/classCollisionBehavior.html#a687307bfe48808fb9b86434874368af8" target="_top" xlink:title=" ">
<polygon fill="white" stroke="#666666" points="108,-495.5 0,-495.5 0,-465.5 108,-465.5 108,-495.5"/>
<text text-anchor="start" x="8" y="-483.5" font-family="Helvetica,sans-Serif" font-size="10.00">CollisionBehavior::</text>
<text text-anchor="middle" x="54" y="-472.5" font-family="Helvetica,sans-Serif" font-size="10.00">OnTick</text>
</a>
</g>
</g>
<!-- Node3&#45;&gt;Node4 -->
<g id="edge3" class="edge">
<title>Node3&#45;&gt;Node4</title>
<path fill="none" stroke="#63b8ff" d="M149.6,-480.5C135.87,-480.5 121.48,-480.5 108.18,-480.5"/>
<polygon fill="#63b8ff" stroke="#63b8ff" points="149.95,-484 159.95,-480.5 149.95,-477 149.95,-484"/>
</g>
</g>
</svg>
        <g id="navigator" transform="translate(0 0)" fill="#404254">
                <rect fill="#f2f5e9" fill-opacity="0.5" stroke="#606060" stroke-width=".5" x="0" y="0" width="60" height="60"/>
                <use id="zoomplus" xlink:href="#zoomPlus" x="17" y="9" onmousedown="handleZoom(evt,'in')"/>
                <use id="zoomminus" xlink:href="#zoomMin" x="42" y="9" onmousedown="handleZoom(evt,'out')"/>
                <use id="reset" xlink:href="#resetDef" x="30" y="36" onmousedown="handleReset()"/>
                <g id="arrowUp" xlink:href="#dirArrow" transform="translate(30 24)" onmousedown="handlePan(0,-1)">
                  <use xlink:href="#rim" fill="#404040">
                        <set attributeName="fill" to="#808080" begin="arrowUp.mouseover" end="arrowUp.mouseout"/>
                  </use>
                  <path fill="none" stroke="white" stroke-width="1.5" d="M0,-3.0v7 M-2.5,-0.5L0,-3.0L2.5,-0.5"/>
                </g>
                <g id="arrowRight" xlink:href="#dirArrow" transform="rotate(90) translate(36 -43)" onmousedown="handlePan(1,0)">
                  <use xlink:href="#rim" fill="#404040">
                        <set attributeName="fill" to="#808080" begin="arrowRight.mouseover" end="arrowRight.mouseout"/>
                  </use>
                  <path fill="none" stroke="white" stroke-width="1.5" d="M0,-3.0v7 M-2.5,-0.5L0,-3.0L2.5,-0.5"/>
                </g>
                <g id="arrowDown" xlink:href="#dirArrow" transform="rotate(180) translate(-30 -48)" onmousedown="handlePan(0,1)">
                  <use xlink:href="#rim" fill="#404040">
                        <set attributeName="fill" to="#808080" begin="arrowDown.mouseover" end="arrowDown.mouseout"/>
                  </use>
                  <path fill="none" stroke="white" stroke-width="1.5" d="M0,-3.0v7 M-2.5,-0.5L0,-3.0L2.5,-0.5"/>
                </g>
                <g id="arrowLeft" xlink:href="#dirArrow" transform="rotate(270) translate(-36 17)" onmousedown="handlePan(-1,0)">
                  <use xlink:href="#rim" fill="#404040">
                        <set attributeName="fill" to="#808080" begin="arrowLeft.mouseover" end="arrowLeft.mouseout"/>
                  </use>
                  <path fill="none" stroke="white" stroke-width="1.5" d="M0,-3.0v7 M-2.5,-0.5L0,-3.0L2.5,-0.5"/>
                </g>
        </g>
        <svg viewBox="0 0 15 15" width="100%" height="30px" preserveAspectRatio="xMaxYMin meet">
         <g id="arrow_out" transform="scale(0.3 0.3)">
          <a xlink:href="classGameObject_a42b10b3fba8be162e913bd8191a22adb_icgraph_org.svg" target="_base">
           <rect id="button" ry="5" rx="5" y="6" x="6" height="38" width="38"
                fill="#f2f5e9" fill-opacity="0.5" stroke="#606060" stroke-width="1.0"/>
           <path id="arrow"
             d="M 11.500037,31.436501 C 11.940474,20.09759 22.043105,11.32322 32.158766,21.979434 L 37.068811,17.246167 C 37.068811,17.246167 37.088388,32 37.088388,32 L 22.160133,31.978069 C 22.160133,31.978069 26.997745,27.140456 26.997745,27.140456 C 18.528582,18.264221 13.291696,25.230495 11.500037,31.436501 z"
             style="fill:#404040;"/>
          </a>
         </g>
        </svg>
</svg>
