<?xml version="1.0" encoding="UTF-8" standalone="no"?>
<!DOCTYPE svg PUBLIC "-//W3C//DTD SVG 1.1//EN"
 "http://www.w3.org/Graphics/SVG/1.1/DTD/svg11.dtd">
<!-- Generated by graphviz version 2.43.0 (0)
 -->
<!-- Title: PlayerBehavior Pages: 1 -->
<svg width="203pt" height="430pt"
 viewBox="0.00 0.00 203.00 430.00" xmlns="http://www.w3.org/2000/svg" xmlns:xlink="http://www.w3.org/1999/xlink">
<g id="graph0" class="graph" transform="scale(1 1) rotate(0) translate(4 426)">
<title>PlayerBehavior</title>
<!-- Node1 -->
<g id="node1" class="node">
<title>Node1</title>
<g id="a_node1"><a xlink:title="The players basic behavior.">
<polygon fill="#999999" stroke="#666666" points="17,-0.5 17,-145.5 178,-145.5 178,-0.5 17,-0.5"/>
<text text-anchor="middle" x="97.5" y="-133.5" font-family="Helvetica,sans-Serif" font-size="10.00">PlayerBehavior</text>
<polyline fill="none" stroke="#666666" points="17,-126.5 178,-126.5 "/>
<text text-anchor="start" x="25" y="-114.5" font-family="Helvetica,sans-Serif" font-size="10.00"># unsigned int jumpPoints</text>
<text text-anchor="start" x="25" y="-103.5" font-family="Helvetica,sans-Serif" font-size="10.00"># const unsigned int</text>
<text text-anchor="start" x="25" y="-92.5" font-family="Helvetica,sans-Serif" font-size="10.00"> defaultJumpPoints</text>
<polyline fill="none" stroke="#666666" points="17,-85.5 178,-85.5 "/>
<text text-anchor="start" x="25" y="-73.5" font-family="Helvetica,sans-Serif" font-size="10.00">+ unsigned int getJumpPoints</text>
<text text-anchor="start" x="25" y="-62.5" font-family="Helvetica,sans-Serif" font-size="10.00">() const</text>
<text text-anchor="start" x="25" y="-51.5" font-family="Helvetica,sans-Serif" font-size="10.00">+ void setJumpPoints</text>
<text text-anchor="start" x="25" y="-40.5" font-family="Helvetica,sans-Serif" font-size="10.00">(unsigned int value)</text>
<text text-anchor="start" x="25" y="-29.5" font-family="Helvetica,sans-Serif" font-size="10.00">+ void ResetJumpPoints()</text>
<text text-anchor="start" x="25" y="-18.5" font-family="Helvetica,sans-Serif" font-size="10.00">+ void OnTick() override</text>
<text text-anchor="start" x="25" y="-7.5" font-family="Helvetica,sans-Serif" font-size="10.00">+ void OnStart() override</text>
</a>
</g>
</g>
<!-- Node2 -->
<g id="node2" class="node">
<title>Node2</title>
<g id="a_node2"><a xlink:href="../../df/dc1/classBehavior.html" target="_top" xlink:title="An abstract gameobject behavior.">
<polygon fill="white" stroke="#666666" points="67.5,-182.5 67.5,-239.5 127.5,-239.5 127.5,-182.5 67.5,-182.5"/>
<text text-anchor="middle" x="97.5" y="-227.5" font-family="Helvetica,sans-Serif" font-size="10.00">Behavior</text>
<polyline fill="none" stroke="#666666" points="67.5,-220.5 127.5,-220.5 "/>
<text text-anchor="middle" x="97.5" y="-208.5" font-family="Helvetica,sans-Serif" font-size="10.00"> </text>
<polyline fill="none" stroke="#666666" points="67.5,-201.5 127.5,-201.5 "/>
<text text-anchor="middle" x="97.5" y="-189.5" font-family="Helvetica,sans-Serif" font-size="10.00"> </text>
</a>
</g>
</g>
<!-- Node2&#45;&gt;Node1 -->
<g id="edge1" class="edge">
<title>Node2&#45;&gt;Node1</title>
<path fill="none" stroke="#63b8ff" d="M97.5,-172.36C97.5,-164 97.5,-154.87 97.5,-145.66"/>
<polygon fill="none" stroke="#63b8ff" points="94,-172.48 97.5,-182.48 101,-172.48 94,-172.48"/>
</g>
<!-- Node3 -->
<g id="node3" class="node">
<title>Node3</title>
<g id="a_node3"><a xlink:href="../../d9/df7/classGameObjectComponent.html" target="_top" xlink:title="An abstract gameobject component.">
<polygon fill="white" stroke="#666666" points="0,-276.5 0,-421.5 195,-421.5 195,-276.5 0,-276.5"/>
<text text-anchor="middle" x="97.5" y="-409.5" font-family="Helvetica,sans-Serif" font-size="10.00">GameObjectComponent</text>
<polyline fill="none" stroke="#666666" points="0,-402.5 195,-402.5 "/>
<text text-anchor="start" x="8" y="-390.5" font-family="Helvetica,sans-Serif" font-size="10.00"># bool enabled</text>
<text text-anchor="start" x="8" y="-379.5" font-family="Helvetica,sans-Serif" font-size="10.00"># GameObject * parent</text>
<polyline fill="none" stroke="#666666" points="0,-372.5 195,-372.5 "/>
<text text-anchor="start" x="8" y="-360.5" font-family="Helvetica,sans-Serif" font-size="10.00">+ bool getEnabled() const</text>
<text text-anchor="start" x="8" y="-349.5" font-family="Helvetica,sans-Serif" font-size="10.00">+ void setEnabled(bool</text>
<text text-anchor="start" x="8" y="-338.5" font-family="Helvetica,sans-Serif" font-size="10.00"> value)</text>
<text text-anchor="start" x="8" y="-327.5" font-family="Helvetica,sans-Serif" font-size="10.00">+ void setParent(GameObject</text>
<text text-anchor="start" x="8" y="-316.5" font-family="Helvetica,sans-Serif" font-size="10.00"> *value)</text>
<text text-anchor="start" x="8" y="-305.5" font-family="Helvetica,sans-Serif" font-size="10.00">+ virtual ~GameObjectComponent()</text>
<text text-anchor="start" x="8" y="-294.5" font-family="Helvetica,sans-Serif" font-size="10.00">+ virtual void OnTick()=0</text>
<text text-anchor="start" x="8" y="-283.5" font-family="Helvetica,sans-Serif" font-size="10.00">+ virtual void OnStart()=0</text>
</a>
</g>
</g>
<!-- Node3&#45;&gt;Node2 -->
<g id="edge2" class="edge">
<title>Node3&#45;&gt;Node2</title>
<path fill="none" stroke="#63b8ff" d="M97.5,-266.39C97.5,-256.86 97.5,-247.71 97.5,-239.71"/>
<polygon fill="none" stroke="#63b8ff" points="94,-266.42 97.5,-276.42 101,-266.42 94,-266.42"/>
</g>
</g>
</svg>
