<?xml version="1.0" encoding="UTF-8" standalone="no"?>
<!DOCTYPE svg PUBLIC "-//W3C//DTD SVG 1.1//EN"
 "http://www.w3.org/Graphics/SVG/1.1/DTD/svg11.dtd">
<!-- Generated by graphviz version 2.43.0 (0)
 -->
<!-- Title: RunFrameActions Pages: 1 -->
<!--zoomable 399 -->

<svg id="main" version="1.1" xmlns="http://www.w3.org/2000/svg" xmlns:xlink="http://www.w3.org/1999/xlink" xml:space="preserve" onload="init(evt)">

<style type="text/css"><![CDATA[
.node, .edge {opacity: 0.7;}
.node.selected, .edge.selected {opacity: 1;}
.edge:hover path { stroke: red; }
.edge:hover polygon { stroke: red; fill: red; }
]]></style>

<defs>
  <circle id="rim" cx="0" cy="0" r="7"/>
  <circle id="rim2" cx="0" cy="0" r="3.5"/>
  <g id="zoomPlus">
    <use xlink:href="#rim" fill="#404040"><set attributeName="fill" to="#808080" begin="zoomplus.mouseover" end="zoomplus.mouseout"/></use>
    <path d="M-4,0h8M0,-4v8" fill="none" stroke="white" stroke-width="1.5" pointer-events="none"/>
  </g>
  <g id="zoomMin">
    <use xlink:href="#rim" fill="#404040"><set attributeName="fill" to="#808080" begin="zoomminus.mouseover" end="zoomminus.mouseout"/></use>
    <path d="M-4,0h8" fill="none" stroke="white" stroke-width="1.5" pointer-events="none"/>
  </g>
  <g id="arrowUp" transform="translate(30 24)">
    <use xlink:href="#rim"/>
    <path pointer-events="none" fill="none" stroke="white" stroke-width="1.5" d="M0,-3.0v7 M-2.5,-0.5L0,-3.0L2.5,-0.5"/>
  </g>
  <g id="arrowRight" transform="rotate(90) translate(36 -43)">
    <use xlink:href="#rim"/>
    <path pointer-events="none" fill="none" stroke="white" stroke-width="1.5" d="M0,-3.0v7 M-2.5,-0.5L0,-3.0L2.5,-0.5"/>
  </g>
  <g id="arrowDown" transform="rotate(180) translate(-30 -48)">
    <use xlink:href="#rim"/>
    <path pointer-events="none" fill="none" stroke="white" stroke-width="1.5" d="M0,-3.0v7 M-2.5,-0.5L0,-3.0L2.5,-0.5"/>
  </g>
  <g id="arrowLeft" transform="rotate(270) translate(-36 17)">
    <use xlink:href="#rim"/>
    <path pointer-events="none" fill="none" stroke="white" stroke-width="1.5" d="M0,-3.0v7 M-2.5,-0.5L0,-3.0L2.5,-0.5"/>
  </g>
  <g id="resetDef">
    <use xlink:href="#rim2" fill="#404040"><set attributeName="fill" to="#808080" begin="reset.mouseover" end="reset.mouseout"/></use>
  </g>
</defs>
<script type="application/ecmascript">
var viewWidth = 1005;
var viewHeight = 399;
var sectionId = 'dynsection-4';
</script>
<script type="application/ecmascript" xlink:href="../../svg.min.js"/>
<svg id="graph" class="graph">
<g id="viewport">
<title>RunFrameActions</title>
<!-- Node1 -->
<g id="Node000001" class="node">
<title>Node1</title>
<g id="a_Node000001"><a xlink:title="Run the actions that have to be run every frame.">
<polygon fill="#999999" stroke="#666666" points="102,-116 0,-116 0,-97 102,-97 102,-116"/>
<text text-anchor="middle" x="51" y="-104" font-family="Helvetica,sans-Serif" font-size="10.00">RunFrameActions</text>
</a>
</g>
</g>
<!-- Node2 -->
<g id="Node000002" class="node">
<title>Node2</title>
<g id="a_Node000002"><a xlink:href="../../de/dfd/GameManagement_8cpp.html#a2877bc3a946eb46940e5cdedcaf4e3f6" target="_top" xlink:title=" ">
<polygon fill="white" stroke="#666666" points="262,-144 138,-144 138,-125 262,-125 262,-144"/>
<text text-anchor="middle" x="200" y="-132" font-family="Helvetica,sans-Serif" font-size="10.00">ResetGameIfRequired</text>
</a>
</g>
</g>
<!-- Node1&#45;&gt;Node2 -->
<g id="edge1_Node000001_Node000002" class="edge">
<title>Node1&#45;&gt;Node2</title>
<g id="a_edge1_Node000001_Node000002"><a xlink:title=" ">
<path fill="none" stroke="#63b8ff" d="M102.18,-116.06C114,-118.31 126.73,-120.73 138.94,-123.06"/>
<polygon fill="#63b8ff" stroke="#63b8ff" points="138.57,-126.55 149.05,-124.99 139.88,-119.68 138.57,-126.55"/>
</a>
</g>
</g>
<!-- Node16 -->
<g id="Node000016" class="node">
<title>Node16</title>
<g id="a_Node000016"><a xlink:href="../../d2/d41/ObjectManagement_8cpp.html#a522912d67446895b0a03d01837b75a99" target="_top" xlink:title="Iterate over all objects, and update the appropriately, using OnTick() or Component specific methods.">
<polygon fill="white" stroke="#666666" points="244.5,-98 155.5,-98 155.5,-79 244.5,-79 244.5,-98"/>
<text text-anchor="middle" x="200" y="-86" font-family="Helvetica,sans-Serif" font-size="10.00">UpdateObjects</text>
</a>
</g>
</g>
<!-- Node1&#45;&gt;Node16 -->
<g id="edge22_Node000001_Node000016" class="edge">
<title>Node1&#45;&gt;Node16</title>
<g id="a_edge22_Node000001_Node000016"><a xlink:title=" ">
<path fill="none" stroke="#63b8ff" d="M102.18,-100.36C116.1,-98.65 131.27,-96.79 145.38,-95.07"/>
<polygon fill="#63b8ff" stroke="#63b8ff" points="145.93,-98.52 155.43,-93.84 145.08,-91.58 145.93,-98.52"/>
</a>
</g>
</g>
<!-- Node3 -->
<g id="Node000003" class="node">
<title>Node3</title>
<g id="a_Node000003"><a xlink:href="../../d1/d99/Lifecycle_8cpp.html#a7be4f604c1baeb7cac84122a7f2438cf" target="_top" xlink:title="Reset the game to the initial state.">
<polygon fill="white" stroke="#666666" points="406.5,-162 332.5,-162 332.5,-143 406.5,-143 406.5,-162"/>
<text text-anchor="middle" x="369.5" y="-150" font-family="Helvetica,sans-Serif" font-size="10.00">ResetGame</text>
</a>
</g>
</g>
<!-- Node2&#45;&gt;Node3 -->
<g id="edge2_Node000002_Node000003" class="edge">
<title>Node2&#45;&gt;Node3</title>
<g id="a_edge2_Node000002_Node000003"><a xlink:title=" ">
<path fill="none" stroke="#63b8ff" d="M262.42,-141.1C282.27,-143.23 303.93,-145.56 322.47,-147.55"/>
<polygon fill="#63b8ff" stroke="#63b8ff" points="322.1,-151.03 332.42,-148.62 322.85,-144.07 322.1,-151.03"/>
</a>
</g>
</g>
<!-- Node4 -->
<g id="Node000004" class="node">
<title>Node4</title>
<g id="a_Node000004"><a xlink:href="../../d9/dfa/Init_8cpp.html#aaa64e8fd06230fa14e507cef71a3217d" target="_top" xlink:title="Create the initial gameobjects required for the game.">
<polygon fill="white" stroke="#666666" points="622.5,-221 479.5,-221 479.5,-202 622.5,-202 622.5,-221"/>
<text text-anchor="middle" x="551" y="-209" font-family="Helvetica,sans-Serif" font-size="10.00">CreateInitialGameObjects</text>
</a>
</g>
</g>
<!-- Node3&#45;&gt;Node4 -->
<g id="edge3_Node000003_Node000004" class="edge">
<title>Node3&#45;&gt;Node4</title>
<g id="a_edge3_Node000003_Node000004"><a xlink:title=" ">
<path fill="none" stroke="#63b8ff" d="M394.83,-162.07C416.29,-170.35 448.49,-182.39 477,-191.5 485.37,-194.17 494.34,-196.81 503.04,-199.26"/>
<polygon fill="#63b8ff" stroke="#63b8ff" points="502.12,-202.63 512.69,-201.92 503.98,-195.89 502.12,-202.63"/>
</a>
</g>
</g>
<!-- Node14 -->
<g id="Node000014" class="node">
<title>Node14</title>
<g id="a_Node000014"><a xlink:href="../../d2/d41/ObjectManagement_8cpp.html#ae5ee3f705fc506491ca2b0c7cf059c75" target="_top" xlink:title="Initialize all gameobjects and call the OnStart() methods.">
<polygon fill="white" stroke="#666666" points="592.5,-182 509.5,-182 509.5,-163 592.5,-163 592.5,-182"/>
<text text-anchor="middle" x="551" y="-170" font-family="Helvetica,sans-Serif" font-size="10.00">OnGameStart</text>
</a>
</g>
</g>
<!-- Node3&#45;&gt;Node14 -->
<g id="edge20_Node000003_Node000014" class="edge">
<title>Node3&#45;&gt;Node14</title>
<g id="a_edge20_Node000003_Node000014"><a xlink:title=" ">
<path fill="none" stroke="#63b8ff" d="M406.82,-156.55C433.4,-159.51 469.8,-163.56 499.25,-166.85"/>
<polygon fill="#63b8ff" stroke="#63b8ff" points="499.02,-170.34 509.35,-167.97 499.79,-163.38 499.02,-170.34"/>
</a>
</g>
</g>
<!-- Node15 -->
<g id="Node000015" class="node">
<title>Node15</title>
<g id="a_Node000015"><a xlink:href="../../d8/d38/Time_8cpp.html#ae55fb718253dda2137a189d792bda7b9" target="_top" xlink:title="Reset the time since the game has started.">
<polygon fill="white" stroke="#666666" points="625,-145 477,-145 477,-126 625,-126 625,-145"/>
<text text-anchor="middle" x="551" y="-133" font-family="Helvetica,sans-Serif" font-size="10.00">ResetTimeSinceGameStart</text>
</a>
</g>
</g>
<!-- Node3&#45;&gt;Node15 -->
<g id="edge21_Node000003_Node000015" class="edge">
<title>Node3&#45;&gt;Node15</title>
<g id="a_edge21_Node000003_Node000015"><a xlink:title=" ">
<path fill="none" stroke="#63b8ff" d="M406.82,-149.06C424.08,-147.43 445.48,-145.4 466.42,-143.42"/>
<polygon fill="#63b8ff" stroke="#63b8ff" points="467.03,-146.87 476.65,-142.45 466.37,-139.91 467.03,-146.87"/>
</a>
</g>
</g>
<!-- Node5 -->
<g id="Node000005" class="node">
<title>Node5</title>
<g id="a_Node000005"><a xlink:href="../../d9/dfa/Init_8cpp.html#a3ff595c2af791c369e2318510062ce14" target="_top" xlink:title="Create the coffee meter bar.">
<polygon fill="white" stroke="#666666" points="785.5,-391 676.5,-391 676.5,-372 785.5,-372 785.5,-391"/>
<text text-anchor="middle" x="731" y="-379" font-family="Helvetica,sans-Serif" font-size="10.00">CreateCoffeeMeter</text>
</a>
</g>
</g>
<!-- Node4&#45;&gt;Node5 -->
<g id="edge4_Node000004_Node000005" class="edge">
<title>Node4&#45;&gt;Node5</title>
<g id="a_edge4_Node000004_Node000005"><a xlink:title=" ">
<path fill="none" stroke="#63b8ff" d="M556.65,-221.25C569.51,-247.23 608.17,-318.81 661,-357.5 666.84,-361.78 673.5,-365.34 680.33,-368.29"/>
<polygon fill="#63b8ff" stroke="#63b8ff" points="679.1,-371.57 689.69,-371.95 681.65,-365.05 679.1,-371.57"/>
</a>
</g>
</g>
<!-- Node6 -->
<g id="Node000006" class="node">
<title>Node6</title>
<g id="a_Node000006"><a xlink:href="../../d2/d41/ObjectManagement_8cpp.html#a9f8d0a459a7758c8b2d0b72cdd8adad0" target="_top" xlink:title="Enqueue an object to be registered on the next frame.">
<polygon fill="white" stroke="#666666" points="997,-259 837,-259 837,-240 997,-240 997,-259"/>
<text text-anchor="middle" x="917" y="-247" font-family="Helvetica,sans-Serif" font-size="10.00">EnqueueRegisterGameObject</text>
</a>
</g>
</g>
<!-- Node4&#45;&gt;Node6 -->
<g id="edge12_Node000004_Node000006" class="edge">
<title>Node4&#45;&gt;Node6</title>
<g id="a_edge12_Node000004_Node000006"><a xlink:title=" ">
<path fill="none" stroke="#63b8ff" d="M557.53,-221.24C571.37,-244.49 610.07,-302.87 661,-324.5 718.27,-348.83 741.36,-342.23 801,-324.5 839.53,-313.05 877.19,-284.14 898.42,-265.75"/>
<polygon fill="#63b8ff" stroke="#63b8ff" points="900.81,-268.3 905.96,-259.04 896.16,-263.07 900.81,-268.3"/>
</a>
</g>
</g>
<!-- Node7 -->
<g id="Node000007" class="node">
<title>Node7</title>
<g id="a_Node000007"><a xlink:href="../../d9/dfa/Init_8cpp.html#a1bfb628b6cd503e396bae0796f2051c1" target="_top" xlink:title="Create the icon next to the coffee meter.">
<polygon fill="white" stroke="#666666" points="795.5,-315 666.5,-315 666.5,-296 795.5,-296 795.5,-315"/>
<text text-anchor="middle" x="731" y="-303" font-family="Helvetica,sans-Serif" font-size="10.00">CreateCoffeeMeterIcon</text>
</a>
</g>
</g>
<!-- Node4&#45;&gt;Node7 -->
<g id="edge6_Node000004_Node000007" class="edge">
<title>Node4&#45;&gt;Node7</title>
<g id="a_edge6_Node000004_Node000007"><a xlink:title=" ">
<path fill="none" stroke="#63b8ff" d="M562.95,-221.15C581.72,-237.21 621.82,-269.44 661,-287.5 665.16,-289.42 669.56,-291.16 674.04,-292.73"/>
<polygon fill="#63b8ff" stroke="#63b8ff" points="673.33,-296.18 683.92,-295.91 675.48,-289.52 673.33,-296.18"/>
</a>
</g>
</g>
<!-- Node8 -->
<g id="Node000008" class="node">
<title>Node8</title>
<g id="a_Node000008"><a xlink:href="../../d9/dfa/Init_8cpp.html#a7577908172d93807ef67f163f851fe5e" target="_top" xlink:title="Create the floor and register it.">
<polygon fill="white" stroke="#666666" points="768,-278 694,-278 694,-259 768,-259 768,-278"/>
<text text-anchor="middle" x="731" y="-266" font-family="Helvetica,sans-Serif" font-size="10.00">CreateFloor</text>
</a>
</g>
</g>
<!-- Node4&#45;&gt;Node8 -->
<g id="edge8_Node000004_Node000008" class="edge">
<title>Node4&#45;&gt;Node8</title>
<g id="a_edge8_Node000004_Node000008"><a xlink:title=" ">
<path fill="none" stroke="#63b8ff" d="M576.9,-221.12C598.86,-229.43 631.81,-241.49 661,-250.5 668.32,-252.76 676.13,-254.98 683.77,-257.04"/>
<polygon fill="#63b8ff" stroke="#63b8ff" points="683.1,-260.49 693.66,-259.66 684.89,-253.72 683.1,-260.49"/>
</a>
</g>
</g>
<!-- Node9 -->
<g id="Node000009" class="node">
<title>Node9</title>
<g id="a_Node000009"><a xlink:href="../../d9/dfa/Init_8cpp.html#a8ad8206fa2846739c5e76ce97b6b2783" target="_top" xlink:title="Create the score counter and register it.">
<polygon fill="white" stroke="#666666" points="788,-241 674,-241 674,-222 788,-222 788,-241"/>
<text text-anchor="middle" x="731" y="-229" font-family="Helvetica,sans-Serif" font-size="10.00">CreateScoreCounter</text>
</a>
</g>
</g>
<!-- Node4&#45;&gt;Node9 -->
<g id="edge10_Node000004_Node000009" class="edge">
<title>Node4&#45;&gt;Node9</title>
<g id="a_edge10_Node000004_Node000009"><a xlink:title=" ">
<path fill="none" stroke="#63b8ff" d="M622.61,-219.43C636.14,-220.95 650.27,-222.54 663.67,-224.05"/>
<polygon fill="#63b8ff" stroke="#63b8ff" points="663.42,-227.54 673.75,-225.18 664.2,-220.58 663.42,-227.54"/>
</a>
</g>
</g>
<!-- Node10 -->
<g id="Node000010" class="node">
<title>Node10</title>
<g id="a_Node000010"><a xlink:href="../../d9/dfa/Init_8cpp.html#ac07b948048071cbf70f69aa9d691a93f" target="_top" xlink:title="Set the window background to white.">
<polygon fill="white" stroke="#666666" points="801,-204 661,-204 661,-185 801,-185 801,-204"/>
<text text-anchor="middle" x="731" y="-192" font-family="Helvetica,sans-Serif" font-size="10.00">SetupWindowbackground</text>
</a>
</g>
</g>
<!-- Node4&#45;&gt;Node10 -->
<g id="edge13_Node000004_Node000010" class="edge">
<title>Node4&#45;&gt;Node10</title>
<g id="a_edge13_Node000004_Node000010"><a xlink:title=" ">
<path fill="none" stroke="#63b8ff" d="M622.61,-204.76C631.87,-203.87 641.42,-202.96 650.81,-202.06"/>
<polygon fill="#63b8ff" stroke="#63b8ff" points="651.31,-205.53 660.93,-201.1 650.65,-198.56 651.31,-205.53"/>
</a>
</g>
</g>
<!-- Node11 -->
<g id="Node000011" class="node">
<title>Node11</title>
<g id="a_Node000011"><a xlink:href="../../d9/dfa/Init_8cpp.html#a374cb6f303f72b5af970063ff1318f24" target="_top" xlink:title="Create the left wall and register it.">
<polygon fill="white" stroke="#666666" points="775,-167 687,-167 687,-148 775,-148 775,-167"/>
<text text-anchor="middle" x="731" y="-155" font-family="Helvetica,sans-Serif" font-size="10.00">SpawnLeftWall</text>
</a>
</g>
</g>
<!-- Node4&#45;&gt;Node11 -->
<g id="edge14_Node000004_Node000011" class="edge">
<title>Node4&#45;&gt;Node11</title>
<g id="a_edge14_Node000004_Node000011"><a xlink:title=" ">
<path fill="none" stroke="#63b8ff" d="M590.55,-201.92C601.75,-198.88 613.94,-195.3 625,-191.5 641.39,-185.87 644.61,-182.15 661,-176.5 667.86,-174.14 675.19,-171.86 682.41,-169.76"/>
<polygon fill="#63b8ff" stroke="#63b8ff" points="683.47,-173.1 692.14,-167 681.56,-166.36 683.47,-173.1"/>
</a>
</g>
</g>
<!-- Node12 -->
<g id="Node000012" class="node">
<title>Node12</title>
<g id="a_Node000012"><a xlink:href="../../d9/dfa/Init_8cpp.html#aa021dfea28868af5fdc6eb97fdf11395" target="_top" xlink:title="Create the player and register it.">
<polygon fill="white" stroke="#666666" points="771,-130 691,-130 691,-111 771,-111 771,-130"/>
<text text-anchor="middle" x="731" y="-118" font-family="Helvetica,sans-Serif" font-size="10.00">SpawnPlayer</text>
</a>
</g>
</g>
<!-- Node4&#45;&gt;Node12 -->
<g id="edge16_Node000004_Node000012" class="edge">
<title>Node4&#45;&gt;Node12</title>
<g id="a_edge16_Node000004_Node000012"><a xlink:title=" ">
<path fill="none" stroke="#63b8ff" d="M604.67,-201.88C611.88,-199.22 618.89,-195.83 625,-191.5 647.94,-175.25 638.07,-155.76 661,-139.5 666.99,-135.25 673.9,-131.95 680.97,-129.39"/>
<polygon fill="#63b8ff" stroke="#63b8ff" points="682.18,-132.68 690.66,-126.33 680.07,-126 682.18,-132.68"/>
</a>
</g>
</g>
<!-- Node13 -->
<g id="Node000013" class="node">
<title>Node13</title>
<g id="a_Node000013"><a xlink:href="../../d9/dfa/Init_8cpp.html#a0e2d0321a787eb9a3b705489c8f2b86b" target="_top" xlink:title="Create the right wall and register it.">
<polygon fill="white" stroke="#666666" points="778.5,-93 683.5,-93 683.5,-74 778.5,-74 778.5,-93"/>
<text text-anchor="middle" x="731" y="-81" font-family="Helvetica,sans-Serif" font-size="10.00">SpawnRightWall</text>
</a>
</g>
</g>
<!-- Node4&#45;&gt;Node13 -->
<g id="edge18_Node000004_Node000013" class="edge">
<title>Node4&#45;&gt;Node13</title>
<g id="a_edge18_Node000004_Node000013"><a xlink:title=" ">
<path fill="none" stroke="#63b8ff" d="M608.2,-201.97C614.31,-199.29 620.09,-195.87 625,-191.5 656.88,-163.14 629.13,-130.88 661,-102.5 664.84,-99.08 669.25,-96.26 673.94,-93.95"/>
<polygon fill="#63b8ff" stroke="#63b8ff" points="675.33,-97.16 683.23,-90.1 672.65,-90.7 675.33,-97.16"/>
</a>
</g>
</g>
<!-- Node5&#45;&gt;Node6 -->
<g id="edge5_Node000005_Node000006" class="edge">
<title>Node5&#45;&gt;Node6</title>
<g id="a_edge5_Node000005_Node000006"><a xlink:title=" ">
<path fill="none" stroke="#63b8ff" d="M768.74,-371.89C779.55,-368.24 791.13,-363.48 801,-357.5 842.32,-332.49 881.28,-290.69 901.53,-267.1"/>
<polygon fill="#63b8ff" stroke="#63b8ff" points="904.34,-269.19 908.11,-259.29 898.99,-264.68 904.34,-269.19"/>
</a>
</g>
</g>
<!-- Node7&#45;&gt;Node6 -->
<g id="edge7_Node000007_Node000006" class="edge">
<title>Node7&#45;&gt;Node6</title>
<g id="a_edge7_Node000007_Node000006"><a xlink:title=" ">
<path fill="none" stroke="#63b8ff" d="M770.44,-295.94C780.43,-293.33 791.15,-290.41 801,-287.5 827.35,-279.72 856.76,-269.98 879.24,-262.31"/>
<polygon fill="#63b8ff" stroke="#63b8ff" points="880.41,-265.61 888.74,-259.06 878.14,-258.99 880.41,-265.61"/>
</a>
</g>
</g>
<!-- Node8&#45;&gt;Node6 -->
<g id="edge9_Node000008_Node000006" class="edge">
<title>Node8&#45;&gt;Node6</title>
<g id="a_edge9_Node000008_Node000006"><a xlink:title=" ">
<path fill="none" stroke="#63b8ff" d="M768.35,-264.75C785.18,-263.01 805.99,-260.86 826.63,-258.73"/>
<polygon fill="#63b8ff" stroke="#63b8ff" points="827.14,-262.19 836.73,-257.69 826.42,-255.23 827.14,-262.19"/>
</a>
</g>
</g>
<!-- Node9&#45;&gt;Node6 -->
<g id="edge11_Node000009_Node000006" class="edge">
<title>Node9&#45;&gt;Node6</title>
<g id="a_edge11_Node000009_Node000006"><a xlink:title=" ">
<path fill="none" stroke="#63b8ff" d="M788.21,-237C800.42,-238.19 813.63,-239.49 826.76,-240.77"/>
<polygon fill="#63b8ff" stroke="#63b8ff" points="826.48,-244.26 836.77,-241.75 827.16,-237.29 826.48,-244.26"/>
</a>
</g>
</g>
<!-- Node11&#45;&gt;Node6 -->
<g id="edge15_Node000011_Node000006" class="edge">
<title>Node11&#45;&gt;Node6</title>
<g id="a_edge15_Node000011_Node000006"><a xlink:title=" ">
<path fill="none" stroke="#63b8ff" d="M774.29,-167.01C783.28,-169.62 792.59,-172.77 801,-176.5 836.31,-192.15 873.37,-217.54 895.58,-233.88"/>
<polygon fill="#63b8ff" stroke="#63b8ff" points="893.49,-236.69 903.6,-239.86 897.68,-231.07 893.49,-236.69"/>
</a>
</g>
</g>
<!-- Node12&#45;&gt;Node6 -->
<g id="edge17_Node000012_Node000006" class="edge">
<title>Node12&#45;&gt;Node6</title>
<g id="a_edge17_Node000012_Node000006"><a xlink:title=" ">
<path fill="none" stroke="#63b8ff" d="M771.29,-127.73C781.37,-130.54 791.92,-134.35 801,-139.5 843.81,-163.78 882.72,-207.53 902.43,-231.9"/>
<polygon fill="#63b8ff" stroke="#63b8ff" points="899.84,-234.26 908.8,-239.93 905.33,-229.91 899.84,-234.26"/>
</a>
</g>
</g>
<!-- Node13&#45;&gt;Node6 -->
<g id="edge19_Node000013_Node000006" class="edge">
<title>Node13&#45;&gt;Node6</title>
<g id="a_edge19_Node000013_Node000006"><a xlink:title=" ">
<path fill="none" stroke="#63b8ff" d="M778.69,-91.97C786.52,-94.59 794.28,-98.02 801,-102.5 851.61,-136.23 889.82,-199.51 906.61,-230.89"/>
<polygon fill="#63b8ff" stroke="#63b8ff" points="903.57,-232.63 911.3,-239.88 909.78,-229.39 903.57,-232.63"/>
</a>
</g>
</g>
<!-- Node17 -->
<g id="Node000017" class="node">
<title>Node17</title>
<g id="a_Node000017"><a xlink:href="../../d2/d41/ObjectManagement_8cpp.html#abb664488d26ac602b11cc22de7243458" target="_top" xlink:title=" ">
<polygon fill="white" stroke="#666666" points="441,-98 298,-98 298,-79 441,-79 441,-98"/>
<text text-anchor="middle" x="369.5" y="-86" font-family="Helvetica,sans-Serif" font-size="10.00">HandleComponentUpdate</text>
</a>
</g>
</g>
<!-- Node16&#45;&gt;Node17 -->
<g id="edge23_Node000016_Node000017" class="edge">
<title>Node16&#45;&gt;Node17</title>
<g id="a_edge23_Node000016_Node000017"><a xlink:title=" ">
<path fill="none" stroke="#63b8ff" d="M244.57,-88.5C257.8,-88.5 272.79,-88.5 287.65,-88.5"/>
<polygon fill="#63b8ff" stroke="#63b8ff" points="287.9,-92 297.9,-88.5 287.9,-85 287.9,-92"/>
</a>
</g>
</g>
<!-- Node18 -->
<g id="Node000018" class="node">
<title>Node18</title>
<g id="a_Node000018"><a xlink:href="../../d2/d41/ObjectManagement_8cpp.html#a95ff1ee6a57e678376b2eae2ef499ab3" target="_top" xlink:title=" ">
<polygon fill="white" stroke="#666666" points="441,-56 298,-56 298,-37 441,-37 441,-56"/>
<text text-anchor="middle" x="369.5" y="-44" font-family="Helvetica,sans-Serif" font-size="10.00">WorkThroughFrameQueue</text>
</a>
</g>
</g>
<!-- Node16&#45;&gt;Node18 -->
<g id="edge24_Node000016_Node000018" class="edge">
<title>Node16&#45;&gt;Node18</title>
<g id="a_edge24_Node000016_Node000018"><a xlink:title=" ">
<path fill="none" stroke="#63b8ff" d="M239.01,-78.97C263.12,-72.92 294.54,-65.05 320.38,-58.56"/>
<polygon fill="#63b8ff" stroke="#63b8ff" points="321.5,-61.89 330.35,-56.07 319.8,-55.1 321.5,-61.89"/>
</a>
</g>
</g>
<!-- Node19 -->
<g id="Node000019" class="node">
<title>Node19</title>
<g id="a_Node000019"><a xlink:href="../../d2/d41/ObjectManagement_8cpp.html#ad487b4c14d5f4bf65d056f5c90ac4d72" target="_top" xlink:title=" ">
<polygon fill="white" stroke="#666666" points="621,-56 481,-56 481,-37 621,-37 621,-56"/>
<text text-anchor="middle" x="551" y="-44" font-family="Helvetica,sans-Serif" font-size="10.00">DestroyEnqueuedObjects</text>
</a>
</g>
</g>
<!-- Node18&#45;&gt;Node19 -->
<g id="edge25_Node000018_Node000019" class="edge">
<title>Node18&#45;&gt;Node19</title>
<g id="a_edge25_Node000018_Node000019"><a xlink:title=" ">
<path fill="none" stroke="#63b8ff" d="M441.19,-46.5C450.87,-46.5 460.86,-46.5 470.69,-46.5"/>
<polygon fill="#63b8ff" stroke="#63b8ff" points="470.85,-50 480.85,-46.5 470.85,-43 470.85,-50"/>
</a>
</g>
</g>
<!-- Node21 -->
<g id="Node000021" class="node">
<title>Node21</title>
<g id="a_Node000021"><a xlink:href="../../d2/d41/ObjectManagement_8cpp.html#a25053f13bc5fe6ea1caf5f343cbb30b8" target="_top" xlink:title=" ">
<polygon fill="white" stroke="#666666" points="622,-19 480,-19 480,0 622,0 622,-19"/>
<text text-anchor="middle" x="551" y="-7" font-family="Helvetica,sans-Serif" font-size="10.00">RegisterEnqueuedObjects</text>
</a>
</g>
</g>
<!-- Node18&#45;&gt;Node21 -->
<g id="edge27_Node000018_Node000021" class="edge">
<title>Node18&#45;&gt;Node21</title>
<g id="a_edge27_Node000018_Node000021"><a xlink:title=" ">
<path fill="none" stroke="#63b8ff" d="M416.73,-36.97C440.19,-32.14 468.89,-26.22 493.64,-21.12"/>
<polygon fill="#63b8ff" stroke="#63b8ff" points="494.53,-24.51 503.62,-19.06 493.12,-17.65 494.53,-24.51"/>
</a>
</g>
</g>
<!-- Node20 -->
<g id="Node000020" class="node">
<title>Node20</title>
<g id="a_Node000020"><a xlink:href="../../d2/d41/ObjectManagement_8cpp.html#ab91c7a16c0d19bae45779c2b3eb207f9" target="_top" xlink:title=" ">
<polygon fill="white" stroke="#666666" points="789,-56 673,-56 673,-37 789,-37 789,-56"/>
<text text-anchor="middle" x="731" y="-44" font-family="Helvetica,sans-Serif" font-size="10.00">DestroyGameObject</text>
</a>
</g>
</g>
<!-- Node19&#45;&gt;Node20 -->
<g id="edge26_Node000019_Node000020" class="edge">
<title>Node19&#45;&gt;Node20</title>
<g id="a_edge26_Node000019_Node000020"><a xlink:title=" ">
<path fill="none" stroke="#63b8ff" d="M621.07,-46.5C634.7,-46.5 648.99,-46.5 662.56,-46.5"/>
<polygon fill="#63b8ff" stroke="#63b8ff" points="662.78,-50 672.78,-46.5 662.78,-43 662.78,-50"/>
</a>
</g>
</g>
<!-- Node22 -->
<g id="Node000022" class="node">
<title>Node22</title>
<g id="a_Node000022"><a xlink:href="../../d2/d41/ObjectManagement_8cpp.html#a4eacad131651d21ffbebf4a2108a175c" target="_top" xlink:title=" ">
<polygon fill="white" stroke="#666666" points="790,-19 672,-19 672,0 790,0 790,-19"/>
<text text-anchor="middle" x="731" y="-7" font-family="Helvetica,sans-Serif" font-size="10.00">RegisterGameObject</text>
</a>
</g>
</g>
<!-- Node21&#45;&gt;Node22 -->
<g id="edge28_Node000021_Node000022" class="edge">
<title>Node21&#45;&gt;Node22</title>
<g id="a_edge28_Node000021_Node000022"><a xlink:title=" ">
<path fill="none" stroke="#63b8ff" d="M622.09,-9.5C635.07,-9.5 648.6,-9.5 661.53,-9.5"/>
<polygon fill="#63b8ff" stroke="#63b8ff" points="661.74,-13 671.74,-9.5 661.74,-6 661.74,-13"/>
</a>
</g>
</g>
</g>
</svg>

<g id="navigator" transform="translate(0 0)" fill="#404254">
  <rect fill="#f2f5e9" fill-opacity="0.5" stroke="#606060" stroke-width=".5" x="0" y="0" width="60" height="60"/>
  <use id="zoomplus" xlink:href="#zoomPlus" x="17" y="9" onmousedown="handleZoom(evt,'in')"/>
  <use id="zoomminus" xlink:href="#zoomMin" x="42" y="9" onmousedown="handleZoom(evt,'out')"/>
  <use id="reset" xlink:href="#resetDef" x="30" y="36" onmousedown="handleReset()"/>
   <use id="arrowup" xlink:href="#arrowUp" x="0" y="0" onmousedown="handlePan(0,-1)"/>
  <use id="arrowright" xlink:href="#arrowRight" x="0" y="0" onmousedown="handlePan(1,0)"/>
  <use id="arrowdown" xlink:href="#arrowDown" x="0" y="0" onmousedown="handlePan(0,1)"/>
  <use id="arrowleft" xlink:href="#arrowLeft" x="0" y="0" onmousedown="handlePan(-1,0)"/>
</g>
<svg viewBox="0 0 15 15" width="100%" height="30px" preserveAspectRatio="xMaxYMin meet">
 <g id="arrow_out" transform="scale(0.3 0.3)">
  <a xlink:href="GameManagement_8cpp_a96314a1ad91ef741694603ff58e7bee7_cgraph_org.svg" target="_base">
   <rect id="button" ry="5" rx="5" y="6" x="6" height="38" width="38"
        fill="#f2f5e9" fill-opacity="0.5" stroke="#606060" stroke-width="1.0"/>
   <path id="arrow"
     d="M 11.500037,31.436501 C 11.940474,20.09759 22.043105,11.32322 32.158766,21.979434 L 37.068811,17.246167 C 37.068811,17.246167 37.088388,32 37.088388,32 L 22.160133,31.978069 C 22.160133,31.978069 26.997745,27.140456 26.997745,27.140456 C 18.528582,18.264221 13.291696,25.230495 11.500037,31.436501 z"
     style="fill:#404040;"/>
  </a>
 </g>
</svg>

<style type='text/css'>
<![CDATA[
[data-mouse-over-selected='false'] { opacity: 0.7; }
[data-mouse-over-selected='true']  { opacity: 1.0; }
]]>
</style>
<script type="application/ecmascript"><![CDATA[
document.addEventListener('DOMContentLoaded', (event) => {
  highlightEdges();
  highlightAdjacentNodes();
});
]]></script>
</svg>
