<?xml version="1.0" encoding="UTF-8" standalone="no"?>
<!DOCTYPE svg PUBLIC "-//W3C//DTD SVG 1.1//EN"
 "http://www.w3.org/Graphics/SVG/1.1/DTD/svg11.dtd">
<!-- Generated by graphviz version 2.43.0 (0)
 -->
<!-- Title: ResetGameIfRequired Pages: 1 -->
<svg width="751pt" height="286pt"
 viewBox="0.00 0.00 751.00 286.00" xmlns="http://www.w3.org/2000/svg" xmlns:xlink="http://www.w3.org/1999/xlink">
<g id="graph0" class="graph" transform="scale(1 1) rotate(0) translate(4 282)">
<title>ResetGameIfRequired</title>
<!-- Node1 -->
<g id="node1" class="node">
<title>Node1</title>
<g id="a_node1"><a xlink:title=" ">
<polygon fill="#999999" stroke="#666666" points="124,-129 0,-129 0,-110 124,-110 124,-129"/>
<text text-anchor="middle" x="62" y="-117" font-family="Helvetica,sans-Serif" font-size="10.00">ResetGameIfRequired</text>
</a>
</g>
</g>
<!-- Node2 -->
<g id="node2" class="node">
<title>Node2</title>
<g id="a_node2"><a xlink:href="../../d1/d99/Lifecycle_8cpp.html#a7be4f604c1baeb7cac84122a7f2438cf" target="_top" xlink:title="Reset the game to the initial state.">
<polygon fill="white" stroke="#666666" points="234,-129 160,-129 160,-110 234,-110 234,-129"/>
<text text-anchor="middle" x="197" y="-117" font-family="Helvetica,sans-Serif" font-size="10.00">ResetGame</text>
</a>
</g>
</g>
<!-- Node1&#45;&gt;Node2 -->
<g id="edge1" class="edge">
<title>Node1&#45;&gt;Node2</title>
<path fill="none" stroke="#63b8ff" d="M124.05,-119.5C132.69,-119.5 141.46,-119.5 149.76,-119.5"/>
<polygon fill="#63b8ff" stroke="#63b8ff" points="149.98,-123 159.98,-119.5 149.98,-116 149.98,-123"/>
</g>
<!-- Node3 -->
<g id="node3" class="node">
<title>Node3</title>
<g id="a_node3"><a xlink:href="../../d9/dfa/Init_8cpp.html#aaa64e8fd06230fa14e507cef71a3217d" target="_top" xlink:title="Create the initial gameobjects required for the game.">
<polygon fill="white" stroke="#666666" points="413,-148 270,-148 270,-129 413,-129 413,-148"/>
<text text-anchor="middle" x="341.5" y="-136" font-family="Helvetica,sans-Serif" font-size="10.00">CreateInitialGameObjects</text>
</a>
</g>
</g>
<!-- Node2&#45;&gt;Node3 -->
<g id="edge2" class="edge">
<title>Node2&#45;&gt;Node3</title>
<path fill="none" stroke="#63b8ff" d="M234.33,-124.34C242.24,-125.4 250.91,-126.55 259.78,-127.74"/>
<polygon fill="#63b8ff" stroke="#63b8ff" points="259.47,-131.23 269.85,-129.08 260.4,-124.29 259.47,-131.23"/>
</g>
<!-- Node14 -->
<g id="node14" class="node">
<title>Node14</title>
<g id="a_node14"><a xlink:href="../../de/dfd/GameManagement_8cpp.html#ae5ee3f705fc506491ca2b0c7cf059c75" target="_top" xlink:title="Initialize all gameobjects and call the OnStart() methods.">
<polygon fill="white" stroke="#666666" points="383,-111 300,-111 300,-92 383,-92 383,-111"/>
<text text-anchor="middle" x="341.5" y="-99" font-family="Helvetica,sans-Serif" font-size="10.00">OnGameStart</text>
</a>
</g>
</g>
<!-- Node2&#45;&gt;Node14 -->
<g id="edge19" class="edge">
<title>Node2&#45;&gt;Node14</title>
<path fill="none" stroke="#63b8ff" d="M234.33,-114.91C251.23,-112.78 271.63,-110.2 290,-107.88"/>
<polygon fill="#63b8ff" stroke="#63b8ff" points="290.48,-111.35 299.97,-106.62 289.61,-104.4 290.48,-111.35"/>
</g>
<!-- Node4 -->
<g id="node4" class="node">
<title>Node4</title>
<g id="a_node4"><a xlink:href="../../d9/dfa/Init_8cpp.html#a3ff595c2af791c369e2318510062ce14" target="_top" xlink:title="Create the coffee meter bar.">
<polygon fill="white" stroke="#666666" points="573.5,-241 464.5,-241 464.5,-222 573.5,-222 573.5,-241"/>
<text text-anchor="middle" x="519" y="-229" font-family="Helvetica,sans-Serif" font-size="10.00">CreateCoffeeMeter</text>
</a>
</g>
</g>
<!-- Node3&#45;&gt;Node4 -->
<g id="edge3" class="edge">
<title>Node3&#45;&gt;Node4</title>
<path fill="none" stroke="#63b8ff" d="M353.18,-148.03C371.49,-163.89 410.64,-195.7 449,-213.5 453.16,-215.43 457.55,-217.17 462.03,-218.75"/>
<polygon fill="#63b8ff" stroke="#63b8ff" points="461.32,-222.2 471.91,-221.94 463.47,-215.54 461.32,-222.2"/>
</g>
<!-- Node6 -->
<g id="node6" class="node">
<title>Node6</title>
<g id="a_node6"><a xlink:href="../../d9/dfa/Init_8cpp.html#a1bfb628b6cd503e396bae0796f2051c1" target="_top" xlink:title="Create the icon next to the coffee meter.">
<polygon fill="white" stroke="#666666" points="583.5,-278 454.5,-278 454.5,-259 583.5,-259 583.5,-278"/>
<text text-anchor="middle" x="519" y="-266" font-family="Helvetica,sans-Serif" font-size="10.00">CreateCoffeeMeterIcon</text>
</a>
</g>
</g>
<!-- Node3&#45;&gt;Node6 -->
<g id="edge5" class="edge">
<title>Node3&#45;&gt;Node6</title>
<path fill="none" stroke="#63b8ff" d="M348.92,-148.32C363.77,-170.21 402.78,-223.24 449,-250.5 451.97,-252.25 455.11,-253.83 458.35,-255.27"/>
<polygon fill="#63b8ff" stroke="#63b8ff" points="457.08,-258.53 467.67,-258.91 459.63,-252.01 457.08,-258.53"/>
</g>
<!-- Node8 -->
<g id="node8" class="node">
<title>Node8</title>
<g id="a_node8"><a xlink:href="../../d9/dfa/Init_8cpp.html#a7577908172d93807ef67f163f851fe5e" target="_top" xlink:title="Create the floor and register it.">
<polygon fill="white" stroke="#666666" points="556,-204 482,-204 482,-185 556,-185 556,-204"/>
<text text-anchor="middle" x="519" y="-192" font-family="Helvetica,sans-Serif" font-size="10.00">CreateFloor</text>
</a>
</g>
</g>
<!-- Node3&#45;&gt;Node8 -->
<g id="edge8" class="edge">
<title>Node3&#45;&gt;Node8</title>
<path fill="none" stroke="#63b8ff" d="M367.26,-148.03C388.71,-156.12 420.67,-167.77 449,-176.5 456.32,-178.76 464.13,-180.97 471.78,-183.04"/>
<polygon fill="#63b8ff" stroke="#63b8ff" points="471.1,-186.48 481.66,-185.66 472.89,-179.71 471.1,-186.48"/>
</g>
<!-- Node9 -->
<g id="node9" class="node">
<title>Node9</title>
<g id="a_node9"><a xlink:href="../../d9/dfa/Init_8cpp.html#a8ad8206fa2846739c5e76ce97b6b2783" target="_top" xlink:title="Create the score counter and register it.">
<polygon fill="white" stroke="#666666" points="576,-167 462,-167 462,-148 576,-148 576,-167"/>
<text text-anchor="middle" x="519" y="-155" font-family="Helvetica,sans-Serif" font-size="10.00">CreateScoreCounter</text>
</a>
</g>
</g>
<!-- Node3&#45;&gt;Node9 -->
<g id="edge10" class="edge">
<title>Node3&#45;&gt;Node9</title>
<path fill="none" stroke="#63b8ff" d="M413.12,-146.15C425.9,-147.53 439.18,-148.97 451.82,-150.34"/>
<polygon fill="#63b8ff" stroke="#63b8ff" points="451.49,-153.82 461.81,-151.42 452.24,-146.86 451.49,-153.82"/>
</g>
<!-- Node10 -->
<g id="node10" class="node">
<title>Node10</title>
<g id="a_node10"><a xlink:href="../../d9/dfa/Init_8cpp.html#ac07b948048071cbf70f69aa9d691a93f" target="_top" xlink:title="Set the window background to white.">
<polygon fill="white" stroke="#666666" points="589,-130 449,-130 449,-111 589,-111 589,-130"/>
<text text-anchor="middle" x="519" y="-118" font-family="Helvetica,sans-Serif" font-size="10.00">SetupWindowbackground</text>
</a>
</g>
</g>
<!-- Node3&#45;&gt;Node10 -->
<g id="edge12" class="edge">
<title>Node3&#45;&gt;Node10</title>
<path fill="none" stroke="#63b8ff" d="M413.12,-131.26C421.61,-130.39 430.32,-129.49 438.92,-128.61"/>
<polygon fill="#63b8ff" stroke="#63b8ff" points="439.36,-132.08 448.95,-127.58 438.64,-125.12 439.36,-132.08"/>
</g>
<!-- Node11 -->
<g id="node11" class="node">
<title>Node11</title>
<g id="a_node11"><a xlink:href="../../d9/dfa/Init_8cpp.html#a374cb6f303f72b5af970063ff1318f24" target="_top" xlink:title="Create the left wall and register it.">
<polygon fill="white" stroke="#666666" points="563,-93 475,-93 475,-74 563,-74 563,-93"/>
<text text-anchor="middle" x="519" y="-81" font-family="Helvetica,sans-Serif" font-size="10.00">SpawnLeftWall</text>
</a>
</g>
</g>
<!-- Node3&#45;&gt;Node11 -->
<g id="edge13" class="edge">
<title>Node3&#45;&gt;Node11</title>
<path fill="none" stroke="#63b8ff" d="M385.83,-128.99C394.91,-126.57 404.36,-123.72 413,-120.5 429.76,-114.25 432.3,-108.9 449,-102.5 455.24,-100.11 461.89,-97.88 468.52,-95.86"/>
<polygon fill="#63b8ff" stroke="#63b8ff" points="469.55,-99.21 478.16,-93.05 467.58,-92.49 469.55,-99.21"/>
</g>
<!-- Node12 -->
<g id="node12" class="node">
<title>Node12</title>
<g id="a_node12"><a xlink:href="../../d9/dfa/Init_8cpp.html#aa021dfea28868af5fdc6eb97fdf11395" target="_top" xlink:title="Create the player and register it.">
<polygon fill="white" stroke="#666666" points="559,-56 479,-56 479,-37 559,-37 559,-56"/>
<text text-anchor="middle" x="519" y="-44" font-family="Helvetica,sans-Serif" font-size="10.00">SpawnPlayer</text>
</a>
</g>
</g>
<!-- Node3&#45;&gt;Node12 -->
<g id="edge15" class="edge">
<title>Node3&#45;&gt;Node12</title>
<path fill="none" stroke="#63b8ff" d="M397.45,-128.86C402.97,-126.63 408.27,-123.88 413,-120.5 436.77,-103.51 425.39,-82.71 449,-65.5 455.01,-61.12 461.97,-57.75 469.12,-55.16"/>
<polygon fill="#63b8ff" stroke="#63b8ff" points="470.42,-58.42 478.91,-52.08 468.32,-51.74 470.42,-58.42"/>
</g>
<!-- Node13 -->
<g id="node13" class="node">
<title>Node13</title>
<g id="a_node13"><a xlink:href="../../d9/dfa/Init_8cpp.html#a0e2d0321a787eb9a3b705489c8f2b86b" target="_top" xlink:title="Create the right wall and register it.">
<polygon fill="white" stroke="#666666" points="566.5,-19 471.5,-19 471.5,0 566.5,0 566.5,-19"/>
<text text-anchor="middle" x="519" y="-7" font-family="Helvetica,sans-Serif" font-size="10.00">SpawnRightWall</text>
</a>
</g>
</g>
<!-- Node3&#45;&gt;Node13 -->
<g id="edge17" class="edge">
<title>Node3&#45;&gt;Node13</title>
<path fill="none" stroke="#63b8ff" d="M399.94,-129C404.67,-126.72 409.12,-123.93 413,-120.5 445.9,-91.42 416.38,-57.89 449,-28.5 452.83,-25.05 457.22,-22.23 461.9,-19.91"/>
<polygon fill="#63b8ff" stroke="#63b8ff" points="463.29,-23.12 471.18,-16.04 460.6,-16.66 463.29,-23.12"/>
</g>
<!-- Node5 -->
<g id="node5" class="node">
<title>Node5</title>
<g id="a_node5"><a xlink:href="../../de/dfd/GameManagement_8cpp.html#a40f7d4339a01b155a82745c5bd8ead6a" target="_top" xlink:title="Directly register a gameobject. Will push the object into the GameObjects vector.">
<polygon fill="white" stroke="#666666" points="743,-167 625,-167 625,-148 743,-148 743,-167"/>
<text text-anchor="middle" x="684" y="-155" font-family="Helvetica,sans-Serif" font-size="10.00">RegisterGameObject</text>
</a>
</g>
</g>
<!-- Node4&#45;&gt;Node5 -->
<g id="edge4" class="edge">
<title>Node4&#45;&gt;Node5</title>
<path fill="none" stroke="#63b8ff" d="M564.05,-222C572.47,-219.62 581.12,-216.8 589,-213.5 615.2,-202.54 642.87,-185.28 661.34,-172.81"/>
<polygon fill="#63b8ff" stroke="#63b8ff" points="663.36,-175.67 669.63,-167.13 659.4,-169.9 663.36,-175.67"/>
</g>
<!-- Node6&#45;&gt;Node5 -->
<g id="edge7" class="edge">
<title>Node6&#45;&gt;Node5</title>
<path fill="none" stroke="#63b8ff" d="M569.51,-258.99C576.28,-256.72 582.98,-253.93 589,-250.5 623.04,-231.12 653.46,-196.26 669.97,-175.16"/>
<polygon fill="#63b8ff" stroke="#63b8ff" points="672.87,-177.12 676.16,-167.05 667.31,-172.88 672.87,-177.12"/>
</g>
<!-- Node7 -->
<g id="node7" class="node">
<title>Node7</title>
<g id="a_node7"><a xlink:href="../../d1/da9/AssetLoading_8cpp.html#a07739f40c13743b2dfceefb659d6d455" target="_top" xlink:title=" ">
<polygon fill="white" stroke="#666666" points="725,-278 643,-278 643,-259 725,-259 725,-278"/>
<text text-anchor="middle" x="684" y="-266" font-family="Helvetica,sans-Serif" font-size="10.00">GetAssetPath</text>
</a>
</g>
</g>
<!-- Node6&#45;&gt;Node7 -->
<g id="edge6" class="edge">
<title>Node6&#45;&gt;Node7</title>
<path fill="none" stroke="#63b8ff" d="M583.95,-268.5C600.04,-268.5 617.09,-268.5 632.42,-268.5"/>
<polygon fill="#63b8ff" stroke="#63b8ff" points="632.73,-272 642.73,-268.5 632.73,-265 632.73,-272"/>
</g>
<!-- Node8&#45;&gt;Node5 -->
<g id="edge9" class="edge">
<title>Node8&#45;&gt;Node5</title>
<path fill="none" stroke="#63b8ff" d="M556.17,-186.29C578.18,-181.29 606.66,-174.83 631.05,-169.29"/>
<polygon fill="#63b8ff" stroke="#63b8ff" points="631.9,-172.69 640.87,-167.06 630.35,-165.86 631.9,-172.69"/>
</g>
<!-- Node9&#45;&gt;Node5 -->
<g id="edge11" class="edge">
<title>Node9&#45;&gt;Node5</title>
<path fill="none" stroke="#63b8ff" d="M576.1,-157.5C588.52,-157.5 601.82,-157.5 614.67,-157.5"/>
<polygon fill="#63b8ff" stroke="#63b8ff" points="614.86,-161 624.86,-157.5 614.86,-154 614.86,-161"/>
</g>
<!-- Node11&#45;&gt;Node5 -->
<g id="edge14" class="edge">
<title>Node11&#45;&gt;Node5</title>
<path fill="none" stroke="#63b8ff" d="M561.46,-93.03C570.68,-95.67 580.3,-98.83 589,-102.5 614.9,-113.42 642.42,-130.21 660.95,-142.36"/>
<polygon fill="#63b8ff" stroke="#63b8ff" points="659.01,-145.28 669.27,-147.91 662.89,-139.45 659.01,-145.28"/>
</g>
<!-- Node12&#45;&gt;Node5 -->
<g id="edge16" class="edge">
<title>Node12&#45;&gt;Node5</title>
<path fill="none" stroke="#63b8ff" d="M559.33,-53.66C569.41,-56.47 579.95,-60.3 589,-65.5 622.61,-84.82 652.98,-118.97 669.62,-139.79"/>
<polygon fill="#63b8ff" stroke="#63b8ff" points="666.98,-142.08 675.89,-147.81 672.49,-137.77 666.98,-142.08"/>
</g>
<!-- Node13&#45;&gt;Node5 -->
<g id="edge18" class="edge">
<title>Node13&#45;&gt;Node5</title>
<path fill="none" stroke="#63b8ff" d="M566.82,-17.78C574.64,-20.42 582.36,-23.91 589,-28.5 630.41,-57.13 660.39,-110.1 674.31,-138.44"/>
<polygon fill="#63b8ff" stroke="#63b8ff" points="671.24,-140.15 678.7,-147.67 677.56,-137.14 671.24,-140.15"/>
</g>
</g>
</svg>
