<?xml version="1.0" encoding="UTF-8" standalone="no"?>
<!DOCTYPE svg PUBLIC "-//W3C//DTD SVG 1.1//EN"
 "http://www.w3.org/Graphics/SVG/1.1/DTD/svg11.dtd">
<!-- Generated by graphviz version 2.43.0 (0)
 -->
<!-- Title: engine/AssetLoading.hpp Pages: 1 -->
<svg width="670pt" height="93pt"
 viewBox="0.00 0.00 670.00 93.00" xmlns="http://www.w3.org/2000/svg" xmlns:xlink="http://www.w3.org/1999/xlink">
<g id="graph0" class="graph" transform="scale(1 1) rotate(0) translate(4 89)">
<title>engine/AssetLoading.hpp</title>
<!-- Node1 -->
<g id="Node000001" class="node">
<title>Node1</title>
<g id="a_Node000001"><a xlink:title=" ">
<polygon fill="#999999" stroke="#666666" points="396.5,-85 257.5,-85 257.5,-66 396.5,-66 396.5,-85"/>
<text text-anchor="middle" x="327" y="-73" font-family="Helvetica,sans-Serif" font-size="10.00">engine/AssetLoading.hpp</text>
</a>
</g>
</g>
<!-- Node2 -->
<g id="Node000002" class="node">
<title>Node2</title>
<g id="a_Node000002"><a xlink:href="../../d1/da9/AssetLoading_8cpp.html" target="_top" xlink:title=" ">
<polygon fill="white" stroke="#666666" points="138,-24.5 0,-24.5 0,-5.5 138,-5.5 138,-24.5"/>
<text text-anchor="middle" x="69" y="-12.5" font-family="Helvetica,sans-Serif" font-size="10.00">engine/AssetLoading.cpp</text>
</a>
</g>
</g>
<!-- Node1&#45;&gt;Node2 -->
<g id="edge1_Node000001_Node000002" class="edge">
<title>Node1&#45;&gt;Node2</title>
<g id="a_edge1_Node000001_Node000002"><a xlink:title=" ">
<path fill="none" stroke="#63b8ff" d="M279.6,-63.75C229.75,-52.45 152.34,-34.9 106.56,-24.52"/>
<polygon fill="#63b8ff" stroke="#63b8ff" points="278.96,-67.2 289.48,-65.99 280.51,-60.37 278.96,-67.2"/>
</a>
</g>
</g>
<!-- Node3 -->
<g id="Node000003" class="node">
<title>Node3</title>
<g id="a_Node000003"><a xlink:href="../../db/d06/FontRenderer_8cpp.html" target="_top" xlink:title=" ">
<polygon fill="white" stroke="#666666" points="318,-30 156,-30 156,0 318,0 318,-30"/>
<text text-anchor="start" x="164" y="-18" font-family="Helvetica,sans-Serif" font-size="10.00">engine/components/renderers</text>
<text text-anchor="middle" x="237" y="-7" font-family="Helvetica,sans-Serif" font-size="10.00">/FontRenderer.cpp</text>
</a>
</g>
</g>
<!-- Node1&#45;&gt;Node3 -->
<g id="edge2_Node000001_Node000003" class="edge">
<title>Node1&#45;&gt;Node3</title>
<g id="a_edge2_Node000001_Node000003"><a xlink:title=" ">
<path fill="none" stroke="#63b8ff" d="M305.14,-60.29C291.05,-51.13 272.78,-39.26 258.71,-30.11"/>
<polygon fill="#63b8ff" stroke="#63b8ff" points="303.43,-63.35 313.72,-65.87 307.24,-57.48 303.43,-63.35"/>
</a>
</g>
</g>
<!-- Node4 -->
<g id="Node000004" class="node">
<title>Node4</title>
<g id="a_Node000004"><a xlink:href="../../d7/ded/TextureRenderer_8cpp.html" target="_top" xlink:title=" ">
<polygon fill="white" stroke="#666666" points="498,-30 336,-30 336,0 498,0 498,-30"/>
<text text-anchor="start" x="344" y="-18" font-family="Helvetica,sans-Serif" font-size="10.00">engine/components/renderers</text>
<text text-anchor="middle" x="417" y="-7" font-family="Helvetica,sans-Serif" font-size="10.00">/TextureRenderer.cpp</text>
</a>
</g>
</g>
<!-- Node1&#45;&gt;Node4 -->
<g id="edge3_Node000001_Node000004" class="edge">
<title>Node1&#45;&gt;Node4</title>
<g id="a_edge3_Node000001_Node000004"><a xlink:title=" ">
<path fill="none" stroke="#63b8ff" d="M348.86,-60.29C362.95,-51.13 381.22,-39.26 395.29,-30.11"/>
<polygon fill="#63b8ff" stroke="#63b8ff" points="346.76,-57.48 340.28,-65.87 350.57,-63.35 346.76,-57.48"/>
</a>
</g>
</g>
<!-- Node5 -->
<g id="Node000005" class="node">
<title>Node5</title>
<g id="a_Node000005"><a xlink:href="../../d5/dda/ObjectSpawning_8cpp.html" target="_top" xlink:title=" ">
<polygon fill="white" stroke="#666666" points="662,-24.5 516,-24.5 516,-5.5 662,-5.5 662,-24.5"/>
<text text-anchor="middle" x="589" y="-12.5" font-family="Helvetica,sans-Serif" font-size="10.00">game/ObjectSpawning.cpp</text>
</a>
</g>
</g>
<!-- Node1&#45;&gt;Node5 -->
<g id="edge4_Node000001_Node000005" class="edge">
<title>Node1&#45;&gt;Node5</title>
<g id="a_edge4_Node000001_Node000005"><a xlink:title=" ">
<path fill="none" stroke="#63b8ff" d="M375.14,-63.75C425.75,-52.45 504.36,-34.9 550.86,-24.52"/>
<polygon fill="#63b8ff" stroke="#63b8ff" points="374.09,-60.4 365.1,-65.99 375.62,-67.23 374.09,-60.4"/>
</a>
</g>
</g>
</g>
</svg>
