<?xml version="1.0" encoding="UTF-8" standalone="no"?>
<!DOCTYPE svg PUBLIC "-//W3C//DTD SVG 1.1//EN"
 "http://www.w3.org/Graphics/SVG/1.1/DTD/svg11.dtd">
<!-- Generated by graphviz version 2.43.0 (0)
 -->
<!-- Title: GameManagerBehavior Pages: 1 -->
<svg width="197pt" height="436pt"
 viewBox="0.00 0.00 197.00 436.00" xmlns="http://www.w3.org/2000/svg" xmlns:xlink="http://www.w3.org/1999/xlink">
<g id="graph0" class="graph" transform="scale(1 1) rotate(0) translate(4 432)">
<title>GameManagerBehavior</title>
<!-- Node1 -->
<g id="Node000001" class="node">
<title>Node1</title>
<g id="a_Node000001"><a xlink:title="The base game manager behavior.">
<polygon fill="#999999" stroke="transparent" points="176.5,-146 12.5,-146 12.5,0 176.5,0 176.5,-146"/>
<text text-anchor="start" x="36.5" y="-134" font-family="Helvetica,sans-Serif" font-size="10.00">GameManagerBehavior</text>
<text text-anchor="start" x="16.5" y="-119" font-family="Helvetica,sans-Serif" font-size="10.00">#</text>
<text text-anchor="start" x="29.5" y="-119" font-family="Helvetica,sans-Serif" font-size="10.00">long long timeOfLastEnemy</text>
<text text-anchor="start" x="16.5" y="-104" font-family="Helvetica,sans-Serif" font-size="10.00">#</text>
<text text-anchor="start" x="29.5" y="-104" font-family="Helvetica,sans-Serif" font-size="10.00">long long enemySpawnDelay</text>
<text text-anchor="start" x="16.5" y="-89" font-family="Helvetica,sans-Serif" font-size="10.00">#</text>
<text text-anchor="start" x="29.5" y="-89" font-family="Helvetica,sans-Serif" font-size="10.00">long long timeOfLastCoffee</text>
<text text-anchor="start" x="16.5" y="-74" font-family="Helvetica,sans-Serif" font-size="10.00">#</text>
<text text-anchor="start" x="29.5" y="-74" font-family="Helvetica,sans-Serif" font-size="10.00">long long coffeeSpawnDelay</text>
<text text-anchor="start" x="16.5" y="-59" font-family="Helvetica,sans-Serif" font-size="10.00">+</text>
<text text-anchor="start" x="29.5" y="-59" font-family="Helvetica,sans-Serif" font-size="10.00">virtual void OnTick</text>
<text text-anchor="start" x="29.5" y="-48" font-family="Helvetica,sans-Serif" font-size="10.00">() override</text>
<text text-anchor="start" x="16.5" y="-33" font-family="Helvetica,sans-Serif" font-size="10.00">+</text>
<text text-anchor="start" x="29.5" y="-33" font-family="Helvetica,sans-Serif" font-size="10.00">virtual void OnStart</text>
<text text-anchor="start" x="29.5" y="-22" font-family="Helvetica,sans-Serif" font-size="10.00">() override</text>
<text text-anchor="start" x="16.5" y="-7" font-family="Helvetica,sans-Serif" font-size="10.00">#</text>
<text text-anchor="start" x="29.5" y="-7" font-family="Helvetica,sans-Serif" font-size="10.00">float GetObjectVelocity()</text>
<polygon fill="#666666" stroke="#666666" points="12.5,-129 12.5,-129 176.5,-129 176.5,-129 12.5,-129"/>
<polygon fill="#666666" stroke="#666666" points="12.5,-69 12.5,-69 27.5,-69 27.5,-69 12.5,-69"/>
<polygon fill="#666666" stroke="#666666" points="27.5,-69 27.5,-69 176.5,-69 176.5,-69 27.5,-69"/>
<polygon fill="none" stroke="#666666" points="12.5,0 12.5,-146 176.5,-146 176.5,0 12.5,0"/>
</a>
</g>
</g>
<!-- Node2 -->
<g id="Node000002" class="node">
<title>Node2</title>
<g id="a_Node000002"><a xlink:href="../../df/dc1/classBehavior.html" target="_top" xlink:title="An abstract gameobject behavior.">
<polygon fill="white" stroke="transparent" points="121.5,-231 67.5,-231 67.5,-182 121.5,-182 121.5,-231"/>
<text text-anchor="start" x="72.5" y="-218.5" font-family="Helvetica,sans-Serif" font-size="10.00">Behavior</text>
<text text-anchor="start" x="92.5" y="-203.5" font-family="Helvetica,sans-Serif" font-size="10.00"> </text>
<text text-anchor="start" x="92.5" y="-188.5" font-family="Helvetica,sans-Serif" font-size="10.00"> </text>
<polygon fill="#666666" stroke="#666666" points="67.5,-213.5 67.5,-213.5 121.5,-213.5 121.5,-213.5 67.5,-213.5"/>
<polygon fill="#666666" stroke="#666666" points="67.5,-198.5 67.5,-198.5 121.5,-198.5 121.5,-198.5 67.5,-198.5"/>
<polygon fill="none" stroke="#666666" points="67.5,-182 67.5,-231 121.5,-231 121.5,-182 67.5,-182"/>
</a>
</g>
</g>
<!-- Node2&#45;&gt;Node1 -->
<g id="edge1_Node000001_Node000002" class="edge">
<title>Node2&#45;&gt;Node1</title>
<g id="a_edge1_Node000001_Node000002"><a xlink:title=" ">
<path fill="none" stroke="#63b8ff" d="M94.5,-171.73C94.5,-163.78 94.5,-155.01 94.5,-146.08"/>
<polygon fill="none" stroke="#63b8ff" points="91,-171.99 94.5,-181.99 98,-171.99 91,-171.99"/>
</a>
</g>
</g>
<!-- Node3 -->
<g id="Node000003" class="node">
<title>Node3</title>
<g id="a_Node000003"><a xlink:href="../../d9/df7/classGameObjectComponent.html" target="_top" xlink:title="An abstract gameobject component.">
<polygon fill="white" stroke="transparent" points="189,-428 0,-428 0,-267 189,-267 189,-428"/>
<text text-anchor="start" x="36" y="-415.5" font-family="Helvetica,sans-Serif" font-size="10.00">GameObjectComponent</text>
<text text-anchor="start" x="4.5" y="-400.5" font-family="Helvetica,sans-Serif" font-size="10.00">#</text>
<text text-anchor="start" x="17.5" y="-400.5" font-family="Helvetica,sans-Serif" font-size="10.00">bool enabled</text>
<text text-anchor="start" x="4.5" y="-385.5" font-family="Helvetica,sans-Serif" font-size="10.00">#</text>
<text text-anchor="start" x="17.5" y="-385.5" font-family="Helvetica,sans-Serif" font-size="10.00">GameObject * parent</text>
<text text-anchor="start" x="4.5" y="-370.5" font-family="Helvetica,sans-Serif" font-size="10.00">+</text>
<text text-anchor="start" x="17.5" y="-370.5" font-family="Helvetica,sans-Serif" font-size="10.00">bool getEnabled() const</text>
<text text-anchor="start" x="4.5" y="-355.5" font-family="Helvetica,sans-Serif" font-size="10.00">+</text>
<text text-anchor="start" x="17.5" y="-355.5" font-family="Helvetica,sans-Serif" font-size="10.00">void setEnabled(bool</text>
<text text-anchor="start" x="17.5" y="-344.5" font-family="Helvetica,sans-Serif" font-size="10.00"> value)</text>
<text text-anchor="start" x="4.5" y="-329.5" font-family="Helvetica,sans-Serif" font-size="10.00">+</text>
<text text-anchor="start" x="17.5" y="-329.5" font-family="Helvetica,sans-Serif" font-size="10.00">void setParent(GameObject</text>
<text text-anchor="start" x="17.5" y="-318.5" font-family="Helvetica,sans-Serif" font-size="10.00"> *value)</text>
<text text-anchor="start" x="4.5" y="-303.5" font-family="Helvetica,sans-Serif" font-size="10.00">+</text>
<text text-anchor="start" x="17.5" y="-303.5" font-family="Helvetica,sans-Serif" font-size="10.00">virtual ~GameObjectComponent()</text>
<text text-anchor="start" x="4.5" y="-288.5" font-family="Helvetica,sans-Serif" font-size="10.00">+</text>
<text text-anchor="start" x="17.5" y="-288.5" font-family="Helvetica,sans-Serif" font-size="10.00">virtual void OnTick()=0</text>
<text text-anchor="start" x="4.5" y="-273.5" font-family="Helvetica,sans-Serif" font-size="10.00">+</text>
<text text-anchor="start" x="17.5" y="-273.5" font-family="Helvetica,sans-Serif" font-size="10.00">virtual void OnStart()=0</text>
<polygon fill="#666666" stroke="#666666" points="0.5,-410.5 0.5,-410.5 189.5,-410.5 189.5,-410.5 0.5,-410.5"/>
<polygon fill="#666666" stroke="#666666" points="0.5,-380.5 0.5,-380.5 15.5,-380.5 15.5,-380.5 0.5,-380.5"/>
<polygon fill="#666666" stroke="#666666" points="15.5,-380.5 15.5,-380.5 189.5,-380.5 189.5,-380.5 15.5,-380.5"/>
<polygon fill="none" stroke="#666666" points="0,-267 0,-428 189,-428 189,-267 0,-267"/>
</a>
</g>
</g>
<!-- Node3&#45;&gt;Node2 -->
<g id="edge2_Node000002_Node000003" class="edge">
<title>Node3&#45;&gt;Node2</title>
<g id="a_edge2_Node000002_Node000003"><a xlink:title=" ">
<path fill="none" stroke="#63b8ff" d="M94.5,-256.64C94.5,-247.4 94.5,-238.68 94.5,-231.22"/>
<polygon fill="none" stroke="#63b8ff" points="91,-256.85 94.5,-266.85 98,-256.85 91,-256.85"/>
</a>
</g>
</g>
</g>
</svg>
