<?xml version="1.0" encoding="UTF-8" standalone="no"?>
<!DOCTYPE svg PUBLIC "-//W3C//DTD SVG 1.1//EN"
 "http://www.w3.org/Graphics/SVG/1.1/DTD/svg11.dtd">
<!-- Generated by graphviz version 2.43.0 (0)
 -->
<!-- Title: GameManagerBehavior Pages: 1 -->
<svg width="197pt" height="451pt"
 viewBox="0.00 0.00 197.00 451.00" xmlns="http://www.w3.org/2000/svg" xmlns:xlink="http://www.w3.org/1999/xlink">
<g id="graph0" class="graph" transform="scale(1 1) rotate(0) translate(4 447)">
<title>GameManagerBehavior</title>
<!-- Node1 -->
<g id="Node000001" class="node">
<title>Node1</title>
<g id="a_Node000001"><a xlink:title="The base game manager behavior.">
<polygon fill="#999999" stroke="transparent" points="180,-161 9,-161 9,0 180,0 180,-161"/>
<text text-anchor="start" x="37" y="-148.5" font-family="Helvetica,sans-Serif" font-size="10.00">GameManagerBehavior</text>
<text text-anchor="start" x="13.5" y="-133.5" font-family="Helvetica,sans-Serif" font-size="10.00">#</text>
<text text-anchor="start" x="26.5" y="-133.5" font-family="Helvetica,sans-Serif" font-size="10.00">long long timeSinceGameStart</text>
<text text-anchor="start" x="13.5" y="-118.5" font-family="Helvetica,sans-Serif" font-size="10.00">#</text>
<text text-anchor="start" x="26.5" y="-118.5" font-family="Helvetica,sans-Serif" font-size="10.00">long long timeOfLastEnemy</text>
<text text-anchor="start" x="13.5" y="-103.5" font-family="Helvetica,sans-Serif" font-size="10.00">#</text>
<text text-anchor="start" x="26.5" y="-103.5" font-family="Helvetica,sans-Serif" font-size="10.00">long long enemySpawnDelay</text>
<text text-anchor="start" x="13.5" y="-88.5" font-family="Helvetica,sans-Serif" font-size="10.00">#</text>
<text text-anchor="start" x="26.5" y="-88.5" font-family="Helvetica,sans-Serif" font-size="10.00">long long timeOfLastCoffee</text>
<text text-anchor="start" x="13.5" y="-73.5" font-family="Helvetica,sans-Serif" font-size="10.00">#</text>
<text text-anchor="start" x="26.5" y="-73.5" font-family="Helvetica,sans-Serif" font-size="10.00">long long coffeeSpawnDelay</text>
<text text-anchor="start" x="13.5" y="-58.5" font-family="Helvetica,sans-Serif" font-size="10.00">+</text>
<text text-anchor="start" x="26.5" y="-58.5" font-family="Helvetica,sans-Serif" font-size="10.00">virtual void OnTick</text>
<text text-anchor="start" x="26.5" y="-47.5" font-family="Helvetica,sans-Serif" font-size="10.00">() override</text>
<text text-anchor="start" x="13.5" y="-32.5" font-family="Helvetica,sans-Serif" font-size="10.00">+</text>
<text text-anchor="start" x="26.5" y="-32.5" font-family="Helvetica,sans-Serif" font-size="10.00">virtual void OnStart</text>
<text text-anchor="start" x="26.5" y="-21.5" font-family="Helvetica,sans-Serif" font-size="10.00">() override</text>
<text text-anchor="start" x="13.5" y="-6.5" font-family="Helvetica,sans-Serif" font-size="10.00">#</text>
<text text-anchor="start" x="26.5" y="-6.5" font-family="Helvetica,sans-Serif" font-size="10.00">float GetObjectVelocity()</text>
<polygon fill="#666666" stroke="#666666" points="9.5,-143.5 9.5,-143.5 180.5,-143.5 180.5,-143.5 9.5,-143.5"/>
<polygon fill="#666666" stroke="#666666" points="9.5,-68.5 9.5,-68.5 24.5,-68.5 24.5,-68.5 9.5,-68.5"/>
<polygon fill="#666666" stroke="#666666" points="24.5,-68.5 24.5,-68.5 180.5,-68.5 180.5,-68.5 24.5,-68.5"/>
<polygon fill="none" stroke="#666666" points="9,0 9,-161 180,-161 180,0 9,0"/>
</a>
</g>
</g>
<!-- Node2 -->
<g id="Node000002" class="node">
<title>Node2</title>
<g id="a_Node000002"><a xlink:href="../../df/dc1/classBehavior.html" target="_top" xlink:title="An abstract gameobject behavior.">
<polygon fill="white" stroke="transparent" points="121.5,-246 67.5,-246 67.5,-197 121.5,-197 121.5,-246"/>
<text text-anchor="start" x="72.5" y="-233.5" font-family="Helvetica,sans-Serif" font-size="10.00">Behavior</text>
<text text-anchor="start" x="92.5" y="-218.5" font-family="Helvetica,sans-Serif" font-size="10.00"> </text>
<text text-anchor="start" x="92.5" y="-203.5" font-family="Helvetica,sans-Serif" font-size="10.00"> </text>
<polygon fill="#666666" stroke="#666666" points="67.5,-228.5 67.5,-228.5 121.5,-228.5 121.5,-228.5 67.5,-228.5"/>
<polygon fill="#666666" stroke="#666666" points="67.5,-213.5 67.5,-213.5 121.5,-213.5 121.5,-213.5 67.5,-213.5"/>
<polygon fill="none" stroke="#666666" points="67.5,-197 67.5,-246 121.5,-246 121.5,-197 67.5,-197"/>
</a>
</g>
</g>
<!-- Node2&#45;&gt;Node1 -->
<g id="edge1_Node000001_Node000002" class="edge">
<title>Node2&#45;&gt;Node1</title>
<g id="a_edge1_Node000001_Node000002"><a xlink:title=" ">
<path fill="none" stroke="#63b8ff" d="M94.5,-186.77C94.5,-178.91 94.5,-170.2 94.5,-161.26"/>
<polygon fill="none" stroke="#63b8ff" points="91,-186.92 94.5,-196.92 98,-186.92 91,-186.92"/>
</a>
</g>
</g>
<!-- Node3 -->
<g id="Node000003" class="node">
<title>Node3</title>
<g id="a_Node000003"><a xlink:href="../../d9/df7/classGameObjectComponent.html" target="_top" xlink:title="An abstract gameobject component.">
<polygon fill="white" stroke="transparent" points="189,-443 0,-443 0,-282 189,-282 189,-443"/>
<text text-anchor="start" x="36" y="-430.5" font-family="Helvetica,sans-Serif" font-size="10.00">GameObjectComponent</text>
<text text-anchor="start" x="4.5" y="-415.5" font-family="Helvetica,sans-Serif" font-size="10.00">#</text>
<text text-anchor="start" x="17.5" y="-415.5" font-family="Helvetica,sans-Serif" font-size="10.00">bool enabled</text>
<text text-anchor="start" x="4.5" y="-400.5" font-family="Helvetica,sans-Serif" font-size="10.00">#</text>
<text text-anchor="start" x="17.5" y="-400.5" font-family="Helvetica,sans-Serif" font-size="10.00">GameObject * parent</text>
<text text-anchor="start" x="4.5" y="-385.5" font-family="Helvetica,sans-Serif" font-size="10.00">+</text>
<text text-anchor="start" x="17.5" y="-385.5" font-family="Helvetica,sans-Serif" font-size="10.00">bool getEnabled() const</text>
<text text-anchor="start" x="4.5" y="-370.5" font-family="Helvetica,sans-Serif" font-size="10.00">+</text>
<text text-anchor="start" x="17.5" y="-370.5" font-family="Helvetica,sans-Serif" font-size="10.00">void setEnabled(bool</text>
<text text-anchor="start" x="17.5" y="-359.5" font-family="Helvetica,sans-Serif" font-size="10.00"> value)</text>
<text text-anchor="start" x="4.5" y="-344.5" font-family="Helvetica,sans-Serif" font-size="10.00">+</text>
<text text-anchor="start" x="17.5" y="-344.5" font-family="Helvetica,sans-Serif" font-size="10.00">void setParent(GameObject</text>
<text text-anchor="start" x="17.5" y="-333.5" font-family="Helvetica,sans-Serif" font-size="10.00"> *value)</text>
<text text-anchor="start" x="4.5" y="-318.5" font-family="Helvetica,sans-Serif" font-size="10.00">+</text>
<text text-anchor="start" x="17.5" y="-318.5" font-family="Helvetica,sans-Serif" font-size="10.00">virtual ~GameObjectComponent()</text>
<text text-anchor="start" x="4.5" y="-303.5" font-family="Helvetica,sans-Serif" font-size="10.00">+</text>
<text text-anchor="start" x="17.5" y="-303.5" font-family="Helvetica,sans-Serif" font-size="10.00">virtual void OnTick()=0</text>
<text text-anchor="start" x="4.5" y="-288.5" font-family="Helvetica,sans-Serif" font-size="10.00">+</text>
<text text-anchor="start" x="17.5" y="-288.5" font-family="Helvetica,sans-Serif" font-size="10.00">virtual void OnStart()=0</text>
<polygon fill="#666666" stroke="#666666" points="0.5,-425.5 0.5,-425.5 189.5,-425.5 189.5,-425.5 0.5,-425.5"/>
<polygon fill="#666666" stroke="#666666" points="0.5,-395.5 0.5,-395.5 15.5,-395.5 15.5,-395.5 0.5,-395.5"/>
<polygon fill="#666666" stroke="#666666" points="15.5,-395.5 15.5,-395.5 189.5,-395.5 189.5,-395.5 15.5,-395.5"/>
<polygon fill="none" stroke="#666666" points="0,-282 0,-443 189,-443 189,-282 0,-282"/>
</a>
</g>
</g>
<!-- Node3&#45;&gt;Node2 -->
<g id="edge2_Node000002_Node000003" class="edge">
<title>Node3&#45;&gt;Node2</title>
<g id="a_edge2_Node000002_Node000003"><a xlink:title=" ">
<path fill="none" stroke="#63b8ff" d="M94.5,-271.64C94.5,-262.4 94.5,-253.68 94.5,-246.22"/>
<polygon fill="none" stroke="#63b8ff" points="91,-271.85 94.5,-281.85 98,-271.85 91,-271.85"/>
</a>
</g>
</g>
</g>
</svg>
