<?xml version="1.0" encoding="UTF-8" standalone="no"?>
<!DOCTYPE svg PUBLIC "-//W3C//DTD SVG 1.1//EN"
 "http://www.w3.org/Graphics/SVG/1.1/DTD/svg11.dtd">
<!-- Generated by graphviz version 2.43.0 (0)
 -->
<!-- Title: engine/Events.cpp Pages: 1 -->
<svg width="671pt" height="258pt"
 viewBox="0.00 0.00 670.50 258.00" xmlns="http://www.w3.org/2000/svg" xmlns:xlink="http://www.w3.org/1999/xlink">
<g id="graph0" class="graph" transform="scale(1 1) rotate(0) translate(4 254)">
<title>engine/Events.cpp</title>
<!-- Node1 -->
<g id="node1" class="node">
<title>Node1</title>
<g id="a_node1"><a xlink:title=" ">
<polygon fill="#999999" stroke="#666666" points="251.5,-250 145.5,-250 145.5,-231 251.5,-231 251.5,-250"/>
<text text-anchor="middle" x="198.5" y="-238" font-family="Helvetica,sans-Serif" font-size="10.00">engine/Events.cpp</text>
</a>
</g>
</g>
<!-- Node2 -->
<g id="node2" class="node">
<title>Node2</title>
<g id="a_node2"><a xlink:href="../../d0/d4e/Events_8hpp.html" target="_top" xlink:title=" ">
<polygon fill="white" stroke="#666666" points="71,-195 0,-195 0,-176 71,-176 71,-195"/>
<text text-anchor="middle" x="35.5" y="-183" font-family="Helvetica,sans-Serif" font-size="10.00">Events.hpp</text>
</a>
</g>
</g>
<!-- Node1&#45;&gt;Node2 -->
<g id="edge1" class="edge">
<title>Node1&#45;&gt;Node2</title>
<path fill="none" stroke="#63b8ff" d="M172.31,-230.98C145.06,-222.13 102.2,-208.19 71.72,-198.28"/>
<polygon fill="#63b8ff" stroke="#63b8ff" points="72.49,-194.85 61.89,-195.08 70.32,-201.5 72.49,-194.85"/>
</g>
<!-- Node3 -->
<g id="node3" class="node">
<title>Node3</title>
<g id="a_node3"><a xlink:title=" ">
<polygon fill="#e0e0e0" stroke="#999999" points="186.5,-140 76.5,-140 76.5,-121 186.5,-121 186.5,-140"/>
<text text-anchor="middle" x="131.5" y="-128" font-family="Helvetica,sans-Serif" font-size="10.00">SDL3/SDL_events.h</text>
</a>
</g>
</g>
<!-- Node1&#45;&gt;Node3 -->
<g id="edge17" class="edge">
<title>Node1&#45;&gt;Node3</title>
<path fill="none" stroke="#63b8ff" d="M207.04,-230.83C218.43,-218.17 235.93,-194.14 224.5,-176 214.77,-160.56 198.03,-150.35 181.41,-143.67"/>
<polygon fill="#63b8ff" stroke="#63b8ff" points="182.29,-140.26 171.7,-140.13 179.89,-146.84 182.29,-140.26"/>
</g>
<!-- Node4 -->
<g id="node4" class="node">
<title>Node4</title>
<g id="a_node4"><a xlink:href="../../d7/dd0/GameManagement_8hpp.html" target="_top" xlink:title=" ">
<polygon fill="white" stroke="#666666" points="488.5,-195 312.5,-195 312.5,-176 488.5,-176 488.5,-195"/>
<text text-anchor="middle" x="400.5" y="-183" font-family="Helvetica,sans-Serif" font-size="10.00">../engine/GameManagement.hpp</text>
</a>
</g>
</g>
<!-- Node1&#45;&gt;Node4 -->
<g id="edge3" class="edge">
<title>Node1&#45;&gt;Node4</title>
<path fill="none" stroke="#63b8ff" d="M230.95,-230.98C265.46,-221.93 320.16,-207.58 358.06,-197.64"/>
<polygon fill="#63b8ff" stroke="#63b8ff" points="359.01,-201.01 367.79,-195.08 357.23,-194.23 359.01,-201.01"/>
</g>
<!-- Node14 -->
<g id="node14" class="node">
<title>Node14</title>
<g id="a_node14"><a xlink:href="../../d5/d07/KeyboardHandling_8hpp.html" target="_top" xlink:title=" ">
<polygon fill="white" stroke="#666666" points="216,-195 89,-195 89,-176 216,-176 216,-195"/>
<text text-anchor="middle" x="152.5" y="-183" font-family="Helvetica,sans-Serif" font-size="10.00">KeyboardHandling.hpp</text>
</a>
</g>
</g>
<!-- Node1&#45;&gt;Node14 -->
<g id="edge15" class="edge">
<title>Node1&#45;&gt;Node14</title>
<path fill="none" stroke="#63b8ff" d="M190.9,-230.75C184.34,-223.18 174.68,-212.05 166.69,-202.84"/>
<polygon fill="#63b8ff" stroke="#63b8ff" points="169.15,-200.35 159.95,-195.09 163.87,-204.94 169.15,-200.35"/>
</g>
<!-- Node2&#45;&gt;Node3 -->
<g id="edge2" class="edge">
<title>Node2&#45;&gt;Node3</title>
<path fill="none" stroke="#63b8ff" d="M50.92,-175.98C65.95,-167.69 89.04,-154.94 106.66,-145.22"/>
<polygon fill="#63b8ff" stroke="#63b8ff" points="108.73,-148.07 115.8,-140.17 105.35,-141.94 108.73,-148.07"/>
</g>
<!-- Node5 -->
<g id="node5" class="node">
<title>Node5</title>
<g id="a_node5"><a xlink:href="../../d4/db5/GameObject_8hpp.html" target="_top" xlink:title=" ">
<polygon fill="white" stroke="#666666" points="590.5,-140 492.5,-140 492.5,-121 590.5,-121 590.5,-140"/>
<text text-anchor="middle" x="541.5" y="-128" font-family="Helvetica,sans-Serif" font-size="10.00">GameObject.hpp</text>
</a>
</g>
</g>
<!-- Node4&#45;&gt;Node5 -->
<g id="edge4" class="edge">
<title>Node4&#45;&gt;Node5</title>
<path fill="none" stroke="#63b8ff" d="M423.15,-175.98C446.35,-167.27 482.62,-153.63 508.9,-143.75"/>
<polygon fill="#63b8ff" stroke="#63b8ff" points="510.3,-146.97 518.43,-140.17 507.84,-140.41 510.3,-146.97"/>
</g>
<!-- Node9 -->
<g id="node9" class="node">
<title>Node9</title>
<g id="a_node9"><a xlink:title=" ">
<polygon fill="#e0e0e0" stroke="#999999" points="662.5,-79.5 604.5,-79.5 604.5,-60.5 662.5,-60.5 662.5,-79.5"/>
<text text-anchor="middle" x="633.5" y="-67.5" font-family="Helvetica,sans-Serif" font-size="10.00">memory</text>
</a>
</g>
</g>
<!-- Node4&#45;&gt;Node9 -->
<g id="edge13" class="edge">
<title>Node4&#45;&gt;Node9</title>
<path fill="none" stroke="#63b8ff" d="M488.98,-181.37C526.35,-176.09 568.33,-164.51 599.5,-140 615.53,-127.39 624.54,-105.26 629.19,-89.46"/>
<polygon fill="#63b8ff" stroke="#63b8ff" points="632.59,-90.29 631.75,-79.73 625.82,-88.51 632.59,-90.29"/>
</g>
<!-- Node11 -->
<g id="node11" class="node">
<title>Node11</title>
<g id="a_node11"><a xlink:title=" ">
<polygon fill="#e0e0e0" stroke="#999999" points="238,-79.5 191,-79.5 191,-60.5 238,-60.5 238,-79.5"/>
<text text-anchor="middle" x="214.5" y="-67.5" font-family="Helvetica,sans-Serif" font-size="10.00">vector</text>
</a>
</g>
</g>
<!-- Node4&#45;&gt;Node11 -->
<g id="edge14" class="edge">
<title>Node4&#45;&gt;Node11</title>
<path fill="none" stroke="#63b8ff" d="M312.47,-178.33C284.04,-172.2 254.48,-160.81 233.5,-140 220.15,-126.76 215.95,-105.08 214.74,-89.55"/>
<polygon fill="#63b8ff" stroke="#63b8ff" points="218.23,-89.37 214.3,-79.54 211.24,-89.68 218.23,-89.37"/>
</g>
<!-- Node12 -->
<g id="node12" class="node">
<title>Node12</title>
<g id="a_node12"><a xlink:title=" ">
<polygon fill="#e0e0e0" stroke="#999999" points="348.5,-140 242.5,-140 242.5,-121 348.5,-121 348.5,-140"/>
<text text-anchor="middle" x="295.5" y="-128" font-family="Helvetica,sans-Serif" font-size="10.00">SDL3/SDL_pixels.h</text>
</a>
</g>
</g>
<!-- Node4&#45;&gt;Node12 -->
<g id="edge11" class="edge">
<title>Node4&#45;&gt;Node12</title>
<path fill="none" stroke="#63b8ff" d="M383.63,-175.98C366.89,-167.54 341,-154.47 321.61,-144.68"/>
<polygon fill="#63b8ff" stroke="#63b8ff" points="323.18,-141.55 312.68,-140.17 320.03,-147.8 323.18,-141.55"/>
</g>
<!-- Node13 -->
<g id="node13" class="node">
<title>Node13</title>
<g id="a_node13"><a xlink:title=" ">
<polygon fill="#e0e0e0" stroke="#999999" points="474.5,-140 366.5,-140 366.5,-121 474.5,-121 474.5,-140"/>
<text text-anchor="middle" x="420.5" y="-128" font-family="Helvetica,sans-Serif" font-size="10.00">SDL3/SDL_render.h</text>
</a>
</g>
</g>
<!-- Node4&#45;&gt;Node13 -->
<g id="edge12" class="edge">
<title>Node4&#45;&gt;Node13</title>
<path fill="none" stroke="#63b8ff" d="M403.8,-175.75C406.48,-168.65 410.35,-158.4 413.69,-149.56"/>
<polygon fill="#63b8ff" stroke="#63b8ff" points="417,-150.68 417.26,-140.09 410.45,-148.21 417,-150.68"/>
</g>
<!-- Node6 -->
<g id="node6" class="node">
<title>Node6</title>
<g id="a_node6"><a xlink:href="../../d9/d4a/Vector2_8hpp.html" target="_top" xlink:title=" ">
<polygon fill="white" stroke="#666666" points="330.5,-79.5 256.5,-79.5 256.5,-60.5 330.5,-60.5 330.5,-79.5"/>
<text text-anchor="middle" x="293.5" y="-67.5" font-family="Helvetica,sans-Serif" font-size="10.00">Vector2.hpp</text>
</a>
</g>
</g>
<!-- Node5&#45;&gt;Node6 -->
<g id="edge5" class="edge">
<title>Node5&#45;&gt;Node6</title>
<path fill="none" stroke="#63b8ff" d="M497.92,-120.93C456.85,-112.61 393.69,-99.19 339.5,-85 336.35,-84.18 333.09,-83.28 329.83,-82.35"/>
<polygon fill="#63b8ff" stroke="#63b8ff" points="330.74,-78.96 320.16,-79.5 328.76,-85.68 330.74,-78.96"/>
</g>
<!-- Node7 -->
<g id="node7" class="node">
<title>Node7</title>
<g id="a_node7"><a xlink:href="../../d4/d71/ComponentNotFoundException_8hpp.html" target="_top" xlink:title=" ">
<polygon fill="white" stroke="#666666" points="524.5,-85 348.5,-85 348.5,-55 524.5,-55 524.5,-85"/>
<text text-anchor="start" x="356.5" y="-73" font-family="Helvetica,sans-Serif" font-size="10.00">exceptions/ComponentNotFound</text>
<text text-anchor="middle" x="436.5" y="-62" font-family="Helvetica,sans-Serif" font-size="10.00">Exception.hpp</text>
</a>
</g>
</g>
<!-- Node5&#45;&gt;Node7 -->
<g id="edge6" class="edge">
<title>Node5&#45;&gt;Node7</title>
<path fill="none" stroke="#63b8ff" d="M526.01,-120.87C511.5,-112.78 489.31,-100.42 470.66,-90.03"/>
<polygon fill="#63b8ff" stroke="#63b8ff" points="472.27,-86.92 461.83,-85.11 468.87,-93.04 472.27,-86.92"/>
</g>
<!-- Node5&#45;&gt;Node9 -->
<g id="edge8" class="edge">
<title>Node5&#45;&gt;Node9</title>
<path fill="none" stroke="#63b8ff" d="M555.07,-120.87C569.89,-111.45 593.83,-96.23 611.36,-85.08"/>
<polygon fill="#63b8ff" stroke="#63b8ff" points="613.31,-87.99 619.87,-79.67 609.55,-82.08 613.31,-87.99"/>
</g>
<!-- Node10 -->
<g id="node10" class="node">
<title>Node10</title>
<g id="a_node10"><a xlink:title=" ">
<polygon fill="#e0e0e0" stroke="#999999" points="586.5,-79.5 542.5,-79.5 542.5,-60.5 586.5,-60.5 586.5,-79.5"/>
<text text-anchor="middle" x="564.5" y="-67.5" font-family="Helvetica,sans-Serif" font-size="10.00">string</text>
</a>
</g>
</g>
<!-- Node5&#45;&gt;Node10 -->
<g id="edge9" class="edge">
<title>Node5&#45;&gt;Node10</title>
<path fill="none" stroke="#63b8ff" d="M544.89,-120.87C548.16,-112.57 553.19,-99.78 557.34,-89.22"/>
<polygon fill="#63b8ff" stroke="#63b8ff" points="560.69,-90.25 561.09,-79.67 554.18,-87.69 560.69,-90.25"/>
</g>
<!-- Node5&#45;&gt;Node11 -->
<g id="edge10" class="edge">
<title>Node5&#45;&gt;Node11</title>
<path fill="none" stroke="#63b8ff" d="M492.18,-122.2C409.99,-110 253.35,-86.66 247.5,-85 245.61,-84.47 243.69,-83.85 241.77,-83.18"/>
<polygon fill="#63b8ff" stroke="#63b8ff" points="242.95,-79.89 232.36,-79.54 240.42,-86.42 242.95,-79.89"/>
</g>
<!-- Node8 -->
<g id="node8" class="node">
<title>Node8</title>
<g id="a_node8"><a xlink:title=" ">
<polygon fill="#e0e0e0" stroke="#999999" points="469,-19 404,-19 404,0 469,0 469,-19"/>
<text text-anchor="middle" x="436.5" y="-7" font-family="Helvetica,sans-Serif" font-size="10.00">exception</text>
</a>
</g>
</g>
<!-- Node7&#45;&gt;Node8 -->
<g id="edge7" class="edge">
<title>Node7&#45;&gt;Node8</title>
<path fill="none" stroke="#63b8ff" d="M436.5,-54.84C436.5,-47.21 436.5,-37.7 436.5,-29.45"/>
<polygon fill="#63b8ff" stroke="#63b8ff" points="440,-29.27 436.5,-19.27 433,-29.27 440,-29.27"/>
</g>
<!-- Node14&#45;&gt;Node3 -->
<g id="edge16" class="edge">
<title>Node14&#45;&gt;Node3</title>
<path fill="none" stroke="#63b8ff" d="M149.03,-175.75C146.22,-168.65 142.16,-158.4 138.65,-149.56"/>
<polygon fill="#63b8ff" stroke="#63b8ff" points="141.84,-148.1 134.9,-140.09 135.33,-150.68 141.84,-148.1"/>
</g>
</g>
</svg>
