<?xml version="1.0" encoding="UTF-8" standalone="no"?>
<!DOCTYPE svg PUBLIC "-//W3C//DTD SVG 1.1//EN"
 "http://www.w3.org/Graphics/SVG/1.1/DTD/svg11.dtd">
<!-- Generated by graphviz version 2.43.0 (0)
 -->
<!-- Title: GetAssetPath Pages: 1 -->
<svg width="1295pt" height="157pt"
 viewBox="0.00 0.00 1295.00 157.00" xmlns="http://www.w3.org/2000/svg" xmlns:xlink="http://www.w3.org/1999/xlink">
<g id="graph0" class="graph" transform="scale(1 1) rotate(0) translate(4 153)">
<title>GetAssetPath</title>
<!-- Node1 -->
<g id="node1" class="node">
<title>Node1</title>
<g id="a_node1"><a xlink:title=" ">
<polygon fill="#999999" stroke="#666666" points="1287,-74 1205,-74 1205,-55 1287,-55 1287,-74"/>
<text text-anchor="middle" x="1246" y="-62" font-family="Helvetica,sans-Serif" font-size="10.00">GetAssetPath</text>
</a>
</g>
</g>
<!-- Node2 -->
<g id="node2" class="node">
<title>Node2</title>
<g id="a_node2"><a xlink:href="../../d9/dfa/Init_8cpp.html#a1bfb628b6cd503e396bae0796f2051c1" target="_top" xlink:title="Create the icon next to the coffee meter.">
<polygon fill="white" stroke="#666666" points="1157,-130 1028,-130 1028,-111 1157,-111 1157,-130"/>
<text text-anchor="middle" x="1092.5" y="-118" font-family="Helvetica,sans-Serif" font-size="10.00">CreateCoffeeMeterIcon</text>
</a>
</g>
</g>
<!-- Node1&#45;&gt;Node2 -->
<g id="edge1" class="edge">
<title>Node1&#45;&gt;Node2</title>
<path fill="none" stroke="#63b8ff" d="M1219.74,-78.97C1205.25,-86.79 1186.51,-96.13 1169,-102.5 1160.14,-105.72 1150.47,-108.53 1141.11,-110.91"/>
<polygon fill="#63b8ff" stroke="#63b8ff" points="1221.52,-81.98 1228.59,-74.09 1218.14,-75.85 1221.52,-81.98"/>
</g>
<!-- Node12 -->
<g id="node12" class="node">
<title>Node12</title>
<g id="a_node12"><a xlink:href="../../dd/d7f/classFontRenderer.html#af02be3f7d05f546d88f34e4dac31761f" target="_top" xlink:title=" ">
<polygon fill="white" stroke="#666666" points="1169,-93 1016,-93 1016,-74 1169,-74 1169,-93"/>
<text text-anchor="middle" x="1092.5" y="-81" font-family="Helvetica,sans-Serif" font-size="10.00">FontRenderer::FontRenderer</text>
</a>
</g>
</g>
<!-- Node1&#45;&gt;Node12 -->
<g id="edge12" class="edge">
<title>Node1&#45;&gt;Node12</title>
<path fill="none" stroke="#63b8ff" d="M1194.65,-70.81C1186.42,-71.85 1177.74,-72.94 1169.06,-74.02"/>
<polygon fill="#63b8ff" stroke="#63b8ff" points="1195.31,-74.26 1204.8,-69.54 1194.44,-67.31 1195.31,-74.26"/>
</g>
<!-- Node13 -->
<g id="node13" class="node">
<title>Node13</title>
<g id="a_node13"><a xlink:href="../../df/d88/GameManagerBehavior_8cpp.html#a07e6c2b5429917c119a839acc53cbfa9" target="_top" xlink:title=" ">
<polygon fill="white" stroke="#666666" points="1132.5,-56 1052.5,-56 1052.5,-37 1132.5,-37 1132.5,-56"/>
<text text-anchor="middle" x="1092.5" y="-44" font-family="Helvetica,sans-Serif" font-size="10.00">SpawnCoffee</text>
</a>
</g>
</g>
<!-- Node1&#45;&gt;Node13 -->
<g id="edge13" class="edge">
<title>Node1&#45;&gt;Node13</title>
<path fill="none" stroke="#63b8ff" d="M1194.8,-58.54C1174.55,-56.13 1151.55,-53.4 1132.58,-51.14"/>
<polygon fill="#63b8ff" stroke="#63b8ff" points="1194.46,-62.02 1204.8,-59.72 1195.28,-55.07 1194.46,-62.02"/>
</g>
<!-- Node15 -->
<g id="node15" class="node">
<title>Node15</title>
<g id="a_node15"><a xlink:href="../../df/d88/GameManagerBehavior_8cpp.html#a2a12711db7d8e91b16655c1c98c6cdb2" target="_top" xlink:title=" ">
<polygon fill="white" stroke="#666666" points="1134,-19 1051,-19 1051,0 1134,0 1134,-19"/>
<text text-anchor="middle" x="1092.5" y="-7" font-family="Helvetica,sans-Serif" font-size="10.00">SpawnEnemy</text>
</a>
</g>
</g>
<!-- Node1&#45;&gt;Node15 -->
<g id="edge15" class="edge">
<title>Node1&#45;&gt;Node15</title>
<path fill="none" stroke="#63b8ff" d="M1218.07,-50.16C1203.77,-42.96 1185.75,-34.51 1169,-28.5 1157.93,-24.53 1145.67,-21.06 1134.3,-18.22"/>
<polygon fill="#63b8ff" stroke="#63b8ff" points="1216.81,-53.45 1227.3,-54.9 1220.01,-47.22 1216.81,-53.45"/>
</g>
<!-- Node3 -->
<g id="node3" class="node">
<title>Node3</title>
<g id="a_node3"><a xlink:href="../../d9/dfa/Init_8cpp.html#aaa64e8fd06230fa14e507cef71a3217d" target="_top" xlink:title="Create the initial gameobjects required for the game.">
<polygon fill="white" stroke="#666666" points="980,-130 837,-130 837,-111 980,-111 980,-130"/>
<text text-anchor="middle" x="908.5" y="-118" font-family="Helvetica,sans-Serif" font-size="10.00">CreateInitialGameObjects</text>
</a>
</g>
</g>
<!-- Node2&#45;&gt;Node3 -->
<g id="edge2" class="edge">
<title>Node2&#45;&gt;Node3</title>
<path fill="none" stroke="#63b8ff" d="M1017.61,-120.5C1005.28,-120.5 992.51,-120.5 980.26,-120.5"/>
<polygon fill="#63b8ff" stroke="#63b8ff" points="1017.85,-124 1027.85,-120.5 1017.85,-117 1017.85,-124"/>
</g>
<!-- Node4 -->
<g id="node4" class="node">
<title>Node4</title>
<g id="a_node4"><a xlink:href="../../d1/d99/Lifecycle_8cpp.html#af0000b43ed614b94179e358d523c9245" target="_top" xlink:title="Initialize the game to the default state.">
<polygon fill="white" stroke="#666666" points="673,-149 585,-149 585,-130 673,-130 673,-149"/>
<text text-anchor="middle" x="629" y="-137" font-family="Helvetica,sans-Serif" font-size="10.00">InitializeGame</text>
</a>
</g>
</g>
<!-- Node3&#45;&gt;Node4 -->
<g id="edge3" class="edge">
<title>Node3&#45;&gt;Node4</title>
<path fill="none" stroke="#63b8ff" d="M826.59,-126.04C776.52,-129.47 714.21,-133.73 673.33,-136.53"/>
<polygon fill="#63b8ff" stroke="#63b8ff" points="827.02,-129.52 836.76,-125.34 826.54,-122.54 827.02,-129.52"/>
</g>
<!-- Node6 -->
<g id="node6" class="node">
<title>Node6</title>
<g id="a_node6"><a xlink:href="../../d1/d99/Lifecycle_8cpp.html#a7be4f604c1baeb7cac84122a7f2438cf" target="_top" xlink:title="Reset the game to the initial state.">
<polygon fill="white" stroke="#666666" points="801,-111 727,-111 727,-92 801,-92 801,-111"/>
<text text-anchor="middle" x="764" y="-99" font-family="Helvetica,sans-Serif" font-size="10.00">ResetGame</text>
</a>
</g>
</g>
<!-- Node3&#45;&gt;Node6 -->
<g id="edge5" class="edge">
<title>Node3&#45;&gt;Node6</title>
<path fill="none" stroke="#63b8ff" d="M826.61,-109.71C817.75,-108.53 809.09,-107.38 801.2,-106.33"/>
<polygon fill="#63b8ff" stroke="#63b8ff" points="826.29,-113.2 836.67,-111.06 827.22,-106.26 826.29,-113.2"/>
</g>
<!-- Node5 -->
<g id="node5" class="node">
<title>Node5</title>
<g id="a_node5"><a xlink:href="../../df/d0a/main_8cpp.html#ae66f6b31b5ad750f1fe042a706a4e3d4" target="_top" xlink:title="Entry point of the program.">
<polygon fill="white" stroke="#666666" points="41,-130 0,-130 0,-111 41,-111 41,-130"/>
<text text-anchor="middle" x="20.5" y="-118" font-family="Helvetica,sans-Serif" font-size="10.00">main</text>
</a>
</g>
</g>
<!-- Node4&#45;&gt;Node5 -->
<g id="edge4" class="edge">
<title>Node4&#45;&gt;Node5</title>
<path fill="none" stroke="#63b8ff" d="M574.69,-139.5C511.26,-139.5 402.16,-139.5 308.5,-139.5 308.5,-139.5 308.5,-139.5 203,-139.5 143.75,-139.5 74.22,-129.36 41.04,-123.9"/>
<polygon fill="#63b8ff" stroke="#63b8ff" points="574.85,-143 584.85,-139.5 574.85,-136 574.85,-143"/>
</g>
<!-- Node7 -->
<g id="node7" class="node">
<title>Node7</title>
<g id="a_node7"><a xlink:href="../../de/dfd/GameManagement_8cpp.html#a2877bc3a946eb46940e5cdedcaf4e3f6" target="_top" xlink:title=" ">
<polygon fill="white" stroke="#666666" points="691,-111 567,-111 567,-92 691,-92 691,-111"/>
<text text-anchor="middle" x="629" y="-99" font-family="Helvetica,sans-Serif" font-size="10.00">ResetGameIfRequired</text>
</a>
</g>
</g>
<!-- Node6&#45;&gt;Node7 -->
<g id="edge6" class="edge">
<title>Node6&#45;&gt;Node7</title>
<path fill="none" stroke="#63b8ff" d="M716.54,-101.5C708.32,-101.5 699.66,-101.5 691.11,-101.5"/>
<polygon fill="#63b8ff" stroke="#63b8ff" points="716.66,-105 726.66,-101.5 716.66,-98 716.66,-105"/>
</g>
<!-- Node8 -->
<g id="node8" class="node">
<title>Node8</title>
<g id="a_node8"><a xlink:href="../../de/dfd/GameManagement_8cpp.html#a95ff1ee6a57e678376b2eae2ef499ab3" target="_top" xlink:title=" ">
<polygon fill="white" stroke="#666666" points="531,-111 388,-111 388,-92 531,-92 531,-111"/>
<text text-anchor="middle" x="459.5" y="-99" font-family="Helvetica,sans-Serif" font-size="10.00">WorkThroughFrameQueue</text>
</a>
</g>
</g>
<!-- Node7&#45;&gt;Node8 -->
<g id="edge7" class="edge">
<title>Node7&#45;&gt;Node8</title>
<path fill="none" stroke="#63b8ff" d="M556.49,-101.5C548.14,-101.5 539.61,-101.5 531.27,-101.5"/>
<polygon fill="#63b8ff" stroke="#63b8ff" points="556.58,-105 566.58,-101.5 556.58,-98 556.58,-105"/>
</g>
<!-- Node9 -->
<g id="node9" class="node">
<title>Node9</title>
<g id="a_node9"><a xlink:href="../../de/dfd/GameManagement_8cpp.html#a522912d67446895b0a03d01837b75a99" target="_top" xlink:title="Iterate over all objects, and update the appropriately, using OnTick() or Component specific methods.">
<polygon fill="white" stroke="#666666" points="352,-111 263,-111 263,-92 352,-92 352,-111"/>
<text text-anchor="middle" x="307.5" y="-99" font-family="Helvetica,sans-Serif" font-size="10.00">UpdateObjects</text>
</a>
</g>
</g>
<!-- Node8&#45;&gt;Node9 -->
<g id="edge8" class="edge">
<title>Node8&#45;&gt;Node9</title>
<path fill="none" stroke="#63b8ff" d="M377.63,-101.5C368.9,-101.5 360.28,-101.5 352.24,-101.5"/>
<polygon fill="#63b8ff" stroke="#63b8ff" points="377.89,-105 387.89,-101.5 377.89,-98 377.89,-105"/>
</g>
<!-- Node10 -->
<g id="node10" class="node">
<title>Node10</title>
<g id="a_node10"><a xlink:href="../../df/d0a/main_8cpp.html#ae8fa368bbea5177612cd2cf333448c66" target="_top" xlink:title="Executed every frame.">
<polygon fill="white" stroke="#666666" points="227,-111 181,-111 181,-92 227,-92 227,-111"/>
<text text-anchor="middle" x="204" y="-99" font-family="Helvetica,sans-Serif" font-size="10.00">frame</text>
</a>
</g>
</g>
<!-- Node9&#45;&gt;Node10 -->
<g id="edge9" class="edge">
<title>Node9&#45;&gt;Node10</title>
<path fill="none" stroke="#63b8ff" d="M252.66,-101.5C243.62,-101.5 234.71,-101.5 227.08,-101.5"/>
<polygon fill="#63b8ff" stroke="#63b8ff" points="252.87,-105 262.87,-101.5 252.87,-98 252.87,-105"/>
</g>
<!-- Node11 -->
<g id="node11" class="node">
<title>Node11</title>
<g id="a_node11"><a xlink:href="../../df/d0a/main_8cpp.html#abfbee20b241e7d5bbbef9ab36fb201a4" target="_top" xlink:title="The main game loop, runs until an exit event is sensed, and QuitGame is set to true.">
<polygon fill="white" stroke="#666666" points="145,-111 77,-111 77,-92 145,-92 145,-111"/>
<text text-anchor="middle" x="111" y="-99" font-family="Helvetica,sans-Serif" font-size="10.00">gameLoop</text>
</a>
</g>
</g>
<!-- Node10&#45;&gt;Node11 -->
<g id="edge10" class="edge">
<title>Node10&#45;&gt;Node11</title>
<path fill="none" stroke="#63b8ff" d="M170.87,-101.5C162.55,-101.5 153.58,-101.5 145.2,-101.5"/>
<polygon fill="#63b8ff" stroke="#63b8ff" points="170.97,-105 180.97,-101.5 170.97,-98 170.97,-105"/>
</g>
<!-- Node11&#45;&gt;Node5 -->
<g id="edge11" class="edge">
<title>Node11&#45;&gt;Node5</title>
<path fill="none" stroke="#63b8ff" d="M66.8,-110.78C57.85,-112.7 48.85,-114.63 41.25,-116.26"/>
<polygon fill="#63b8ff" stroke="#63b8ff" points="67.75,-114.15 76.79,-108.63 66.28,-107.31 67.75,-114.15"/>
</g>
<!-- Node14 -->
<g id="node14" class="node">
<title>Node14</title>
<g id="a_node14"><a xlink:href="../../d1/d21/classGameManagerBehavior.html#a432014bfe65aa92c7f74b7e6e88c475a" target="_top" xlink:title=" ">
<polygon fill="white" stroke="#666666" points="974.5,-43.5 842.5,-43.5 842.5,-13.5 974.5,-13.5 974.5,-43.5"/>
<text text-anchor="start" x="850.5" y="-31.5" font-family="Helvetica,sans-Serif" font-size="10.00">GameManagerBehavior</text>
<text text-anchor="middle" x="908.5" y="-20.5" font-family="Helvetica,sans-Serif" font-size="10.00">::OnTick</text>
</a>
</g>
</g>
<!-- Node13&#45;&gt;Node14 -->
<g id="edge14" class="edge">
<title>Node13&#45;&gt;Node14</title>
<path fill="none" stroke="#63b8ff" d="M1042.25,-41.63C1021.43,-39.57 996.89,-37.14 974.61,-34.94"/>
<polygon fill="#63b8ff" stroke="#63b8ff" points="1042.16,-45.14 1052.46,-42.64 1042.85,-38.17 1042.16,-45.14"/>
</g>
<!-- Node15&#45;&gt;Node14 -->
<g id="edge16" class="edge">
<title>Node15&#45;&gt;Node14</title>
<path fill="none" stroke="#63b8ff" d="M1040.64,-14.81C1020.25,-16.94 996.5,-19.42 974.85,-21.68"/>
<polygon fill="#63b8ff" stroke="#63b8ff" points="1041.07,-18.28 1050.66,-13.76 1040.35,-11.32 1041.07,-18.28"/>
</g>
</g>
</svg>
