<?xml version="1.0" encoding="UTF-8" standalone="no"?>
<!DOCTYPE svg PUBLIC "-//W3C//DTD SVG 1.1//EN"
 "http://www.w3.org/Graphics/SVG/1.1/DTD/svg11.dtd">
<!-- Generated by graphviz version 2.43.0 (0)
 -->
<!-- Title: CollisionBehavior::IsPointInsideCollider Pages: 1 -->
<svg width="298pt" height="138pt"
 viewBox="0.00 0.00 298.00 138.00" xmlns="http://www.w3.org/2000/svg" xmlns:xlink="http://www.w3.org/1999/xlink">
<g id="graph0" class="graph" transform="scale(1 1) rotate(0) translate(4 134)">
<title>CollisionBehavior::IsPointInsideCollider</title>
<!-- Node1 -->
<g id="node1" class="node">
<title>Node1</title>
<g id="a_node1"><a xlink:title="Check whether the point defined by the vector2 is inside the collider of this components parent.">
<polygon fill="#999999" stroke="#666666" points="116,-79.5 0,-79.5 0,-49.5 116,-49.5 116,-79.5"/>
<text text-anchor="start" x="8" y="-67.5" font-family="Helvetica,sans-Serif" font-size="10.00">CollisionBehavior::</text>
<text text-anchor="middle" x="58" y="-56.5" font-family="Helvetica,sans-Serif" font-size="10.00">IsPointInsideCollider</text>
</a>
</g>
</g>
<!-- Node2 -->
<g id="node2" class="node">
<title>Node2</title>
<g id="a_node2"><a xlink:href="../../de/d1c/classGameObject.html#a42b10b3fba8be162e913bd8191a22adb" target="_top" xlink:title=" ">
<polygon fill="white" stroke="#666666" points="290,-130 152,-130 152,-111 290,-111 290,-130"/>
<text text-anchor="middle" x="221" y="-118" font-family="Helvetica,sans-Serif" font-size="10.00">GameObject::getPosition</text>
</a>
</g>
</g>
<!-- Node1&#45;&gt;Node2 -->
<g id="edge1" class="edge">
<title>Node1&#45;&gt;Node2</title>
<path fill="none" stroke="#63b8ff" d="M93.05,-79.65C110.48,-87.08 132.15,-95.85 152,-102.5 158,-104.51 164.36,-106.45 170.69,-108.25"/>
<polygon fill="#63b8ff" stroke="#63b8ff" points="169.98,-111.69 180.55,-110.98 171.84,-104.94 169.98,-111.69"/>
</g>
<!-- Node3 -->
<g id="node3" class="node">
<title>Node3</title>
<g id="a_node3"><a xlink:href="../../de/d1c/classGameObject.html#ac5a8d55bc377ba17093f3070ad4cb1e7" target="_top" xlink:title=" ">
<polygon fill="white" stroke="#666666" points="283.5,-93 158.5,-93 158.5,-74 283.5,-74 283.5,-93"/>
<text text-anchor="middle" x="221" y="-81" font-family="Helvetica,sans-Serif" font-size="10.00">GameObject::getScale</text>
</a>
</g>
</g>
<!-- Node1&#45;&gt;Node3 -->
<g id="edge2" class="edge">
<title>Node1&#45;&gt;Node3</title>
<path fill="none" stroke="#63b8ff" d="M116.22,-71.25C126.56,-72.47 137.46,-73.76 148.16,-75.02"/>
<polygon fill="#63b8ff" stroke="#63b8ff" points="147.99,-78.53 158.33,-76.22 148.81,-71.57 147.99,-78.53"/>
</g>
<!-- Node4 -->
<g id="node4" class="node">
<title>Node4</title>
<g id="a_node4"><a xlink:href="../../d8/d0d/classVector2.html#a808d02062efcc0c016491c04845e3e34" target="_top" xlink:title=" ">
<polygon fill="white" stroke="#666666" points="262,-56 180,-56 180,-37 262,-37 262,-56"/>
<text text-anchor="middle" x="221" y="-44" font-family="Helvetica,sans-Serif" font-size="10.00">Vector2::getX</text>
</a>
</g>
</g>
<!-- Node1&#45;&gt;Node4 -->
<g id="edge3" class="edge">
<title>Node1&#45;&gt;Node4</title>
<path fill="none" stroke="#63b8ff" d="M116.22,-58.1C133.58,-56.16 152.53,-54.04 169.42,-52.15"/>
<polygon fill="#63b8ff" stroke="#63b8ff" points="170.1,-55.6 179.65,-51.01 169.32,-48.64 170.1,-55.6"/>
</g>
<!-- Node5 -->
<g id="node5" class="node">
<title>Node5</title>
<g id="a_node5"><a xlink:href="../../d8/d0d/classVector2.html#a59bf838c0fc50305975e1679509fda83" target="_top" xlink:title=" ">
<polygon fill="white" stroke="#666666" points="261.5,-19 180.5,-19 180.5,0 261.5,0 261.5,-19"/>
<text text-anchor="middle" x="221" y="-7" font-family="Helvetica,sans-Serif" font-size="10.00">Vector2::getY</text>
</a>
</g>
</g>
<!-- Node1&#45;&gt;Node5 -->
<g id="edge4" class="edge">
<title>Node1&#45;&gt;Node5</title>
<path fill="none" stroke="#63b8ff" d="M95.36,-49.48C112.42,-42.68 133.11,-34.78 152,-28.5 158.96,-26.19 166.38,-23.92 173.66,-21.8"/>
<polygon fill="#63b8ff" stroke="#63b8ff" points="174.79,-25.11 183.45,-19.01 172.88,-18.38 174.79,-25.11"/>
</g>
</g>
</svg>
