<?xml version="1.0" encoding="UTF-8" standalone="no"?>
<!DOCTYPE svg PUBLIC "-//W3C//DTD SVG 1.1//EN"
 "http://www.w3.org/Graphics/SVG/1.1/DTD/svg11.dtd">
<!-- Generated by graphviz version 2.43.0 (0)
 -->
<!-- Title: CollisionBehavior::IsPointInsideCollider Pages: 1 -->
<svg width="242pt" height="64pt"
 viewBox="0.00 0.00 242.00 64.00" xmlns="http://www.w3.org/2000/svg" xmlns:xlink="http://www.w3.org/1999/xlink">
<g id="graph0" class="graph" transform="scale(1 1) rotate(0) translate(4 60)">
<title>CollisionBehavior::IsPointInsideCollider</title>
<!-- Node1 -->
<g id="Node000001" class="node">
<title>Node1</title>
<g id="a_Node000001"><a xlink:title="Check whether the point defined by the vector2 is inside the collider of this components parent.">
<polygon fill="#999999" stroke="#666666" points="116,-42.5 0,-42.5 0,-12.5 116,-12.5 116,-42.5"/>
<text text-anchor="start" x="8" y="-30.5" font-family="Helvetica,sans-Serif" font-size="10.00">CollisionBehavior::</text>
<text text-anchor="middle" x="58" y="-19.5" font-family="Helvetica,sans-Serif" font-size="10.00">IsPointInsideCollider</text>
</a>
</g>
</g>
<!-- Node2 -->
<g id="Node000002" class="node">
<title>Node2</title>
<g id="a_Node000002"><a xlink:href="../../d8/d0d/classVector2.html#a808d02062efcc0c016491c04845e3e34" target="_top" xlink:title=" ">
<polygon fill="white" stroke="#666666" points="234,-56 152,-56 152,-37 234,-37 234,-56"/>
<text text-anchor="middle" x="193" y="-44" font-family="Helvetica,sans-Serif" font-size="10.00">Vector2::getX</text>
</a>
</g>
</g>
<!-- Node1&#45;&gt;Node2 -->
<g id="edge1_Node000001_Node000002" class="edge">
<title>Node1&#45;&gt;Node2</title>
<g id="a_edge1_Node000001_Node000002"><a xlink:title=" ">
<path fill="none" stroke="#63b8ff" d="M116.18,-35.67C124.68,-36.88 133.4,-38.13 141.75,-39.32"/>
<polygon fill="#63b8ff" stroke="#63b8ff" points="141.33,-42.8 151.72,-40.75 142.32,-35.87 141.33,-42.8"/>
</a>
</g>
</g>
<!-- Node3 -->
<g id="Node000003" class="node">
<title>Node3</title>
<g id="a_Node000003"><a xlink:href="../../d8/d0d/classVector2.html#a59bf838c0fc50305975e1679509fda83" target="_top" xlink:title=" ">
<polygon fill="white" stroke="#666666" points="233.5,-19 152.5,-19 152.5,0 233.5,0 233.5,-19"/>
<text text-anchor="middle" x="193" y="-7" font-family="Helvetica,sans-Serif" font-size="10.00">Vector2::getY</text>
</a>
</g>
</g>
<!-- Node1&#45;&gt;Node3 -->
<g id="edge2_Node000001_Node000003" class="edge">
<title>Node1&#45;&gt;Node3</title>
<g id="a_edge2_Node000001_Node000003"><a xlink:title=" ">
<path fill="none" stroke="#63b8ff" d="M116.18,-19.76C124.79,-18.6 133.61,-17.4 142.05,-16.26"/>
<polygon fill="#63b8ff" stroke="#63b8ff" points="142.68,-19.71 152.12,-14.9 141.74,-12.77 142.68,-19.71"/>
</a>
</g>
</g>
</g>
</svg>
