<?xml version="1.0" encoding="UTF-8" standalone="no"?>
<!DOCTYPE svg PUBLIC "-//W3C//DTD SVG 1.1//EN"
 "http://www.w3.org/Graphics/SVG/1.1/DTD/svg11.dtd">
<!-- Generated by graphviz version 2.43.0 (0)
 -->
<!-- Title: CollisionBehavior::OnTick Pages: 1 -->
<svg width="404pt" height="150pt"
 viewBox="0.00 0.00 404.00 149.50" xmlns="http://www.w3.org/2000/svg" xmlns:xlink="http://www.w3.org/1999/xlink">
<g id="graph0" class="graph" transform="scale(1 1) rotate(0) translate(4 145.5)">
<title>CollisionBehavior::OnTick</title>
<!-- Node1 -->
<g id="Node000001" class="node">
<title>Node1</title>
<g id="a_Node000001"><a xlink:title=" ">
<polygon fill="#999999" stroke="#666666" points="108,-103.5 0,-103.5 0,-73.5 108,-73.5 108,-103.5"/>
<text text-anchor="start" x="8" y="-91.5" font-family="Helvetica,sans-Serif" font-size="10.00">CollisionBehavior::</text>
<text text-anchor="middle" x="54" y="-80.5" font-family="Helvetica,sans-Serif" font-size="10.00">OnTick</text>
</a>
</g>
</g>
<!-- Node2 -->
<g id="Node000002" class="node">
<title>Node2</title>
<g id="a_Node000002"><a xlink:href="../../d9/df0/classCollisionBehavior.html#aac3a06dcd9da4d8f935ce6d59d0ace43" target="_top" xlink:title="The action to be taken when the object will collide next frame.">
<polygon fill="white" stroke="#666666" points="252,-127.5 144,-127.5 144,-97.5 252,-97.5 252,-127.5"/>
<text text-anchor="start" x="152" y="-115.5" font-family="Helvetica,sans-Serif" font-size="10.00">CollisionBehavior::</text>
<text text-anchor="middle" x="198" y="-104.5" font-family="Helvetica,sans-Serif" font-size="10.00">BeforeCollision</text>
</a>
</g>
</g>
<!-- Node1&#45;&gt;Node2 -->
<g id="edge1_Node000001_Node000002" class="edge">
<title>Node1&#45;&gt;Node2</title>
<g id="a_edge1_Node000001_Node000002"><a xlink:title=" ">
<path fill="none" stroke="#63b8ff" d="M108.28,-97.5C116.65,-98.92 125.37,-100.39 133.94,-101.84"/>
<polygon fill="#63b8ff" stroke="#63b8ff" points="133.45,-105.31 143.89,-103.52 134.62,-98.41 133.45,-105.31"/>
</a>
</g>
</g>
<!-- Node3 -->
<g id="Node000003" class="node">
<title>Node3</title>
<g id="a_Node000003"><a xlink:href="../../d9/df0/classCollisionBehavior.html#ac109e777e29c737c0454464e611a7449" target="_top" xlink:title="Check if this components parent will collide with the other object next frame.">
<polygon fill="white" stroke="#666666" points="252,-79.5 144,-79.5 144,-49.5 252,-49.5 252,-79.5"/>
<text text-anchor="start" x="152" y="-67.5" font-family="Helvetica,sans-Serif" font-size="10.00">CollisionBehavior::</text>
<text text-anchor="middle" x="198" y="-56.5" font-family="Helvetica,sans-Serif" font-size="10.00">CheckForCollision</text>
</a>
</g>
</g>
<!-- Node1&#45;&gt;Node3 -->
<g id="edge2_Node000001_Node000003" class="edge">
<title>Node1&#45;&gt;Node3</title>
<g id="a_edge2_Node000001_Node000003"><a xlink:title=" ">
<path fill="none" stroke="#63b8ff" d="M108.28,-79.5C116.65,-78.08 125.37,-76.61 133.94,-75.16"/>
<polygon fill="#63b8ff" stroke="#63b8ff" points="134.62,-78.59 143.89,-73.48 133.45,-71.69 134.62,-78.59"/>
</a>
</g>
</g>
<!-- Node4 -->
<g id="Node000004" class="node">
<title>Node4</title>
<g id="a_Node000004"><a xlink:href="../../d9/df0/classCollisionBehavior.html#a0c34702a6be76c4f927fc4d943534563" target="_top" xlink:title=" ">
<polygon fill="white" stroke="#666666" points="396,-141.5 288,-141.5 288,-111.5 396,-111.5 396,-141.5"/>
<text text-anchor="start" x="296" y="-129.5" font-family="Helvetica,sans-Serif" font-size="10.00">CollisionBehavior::</text>
<text text-anchor="middle" x="342" y="-118.5" font-family="Helvetica,sans-Serif" font-size="10.00">CollisionBehavior</text>
</a>
</g>
</g>
<!-- Node3&#45;&gt;Node4 -->
<g id="edge3_Node000003_Node000004" class="edge">
<title>Node3&#45;&gt;Node4</title>
<g id="a_edge3_Node000003_Node000004"><a xlink:title=" ">
<path fill="none" stroke="#63b8ff" d="M233.37,-79.51C252.51,-87.86 276.52,-98.35 297.01,-107.29"/>
<polygon fill="#63b8ff" stroke="#63b8ff" points="295.89,-110.62 306.45,-111.41 298.69,-104.21 295.89,-110.62"/>
</a>
</g>
</g>
<!-- Node5 -->
<g id="Node000005" class="node">
<title>Node5</title>
<g id="a_Node000005"><a xlink:href="../../d8/d38/Time_8cpp.html#a5da05cbf25fbfbc8a9c6b8481ad23664" target="_top" xlink:title="Return the time it took to render the last frame in milliseconds.">
<polygon fill="white" stroke="#666666" points="384.5,-93 299.5,-93 299.5,-74 384.5,-74 384.5,-93"/>
<text text-anchor="middle" x="342" y="-81" font-family="Helvetica,sans-Serif" font-size="10.00">GetDeltaTime</text>
</a>
</g>
</g>
<!-- Node3&#45;&gt;Node5 -->
<g id="edge4_Node000003_Node000005" class="edge">
<title>Node3&#45;&gt;Node5</title>
<g id="a_edge4_Node000003_Node000005"><a xlink:title=" ">
<path fill="none" stroke="#63b8ff" d="M252.28,-71.63C264.45,-73.26 277.37,-74.99 289.47,-76.6"/>
<polygon fill="#63b8ff" stroke="#63b8ff" points="289.03,-80.08 299.4,-77.93 289.96,-73.14 289.03,-80.08"/>
</a>
</g>
</g>
<!-- Node6 -->
<g id="Node000006" class="node">
<title>Node6</title>
<g id="a_Node000006"><a xlink:href="../../d8/d0d/classVector2.html#a808d02062efcc0c016491c04845e3e34" target="_top" xlink:title=" ">
<polygon fill="white" stroke="#666666" points="383,-56 301,-56 301,-37 383,-37 383,-56"/>
<text text-anchor="middle" x="342" y="-44" font-family="Helvetica,sans-Serif" font-size="10.00">Vector2::getX</text>
</a>
</g>
</g>
<!-- Node3&#45;&gt;Node6 -->
<g id="edge5_Node000003_Node000006" class="edge">
<title>Node3&#45;&gt;Node6</title>
<g id="a_edge5_Node000003_Node000006"><a xlink:title=" ">
<path fill="none" stroke="#63b8ff" d="M252.28,-57.75C264.82,-56.16 278.15,-54.47 290.57,-52.89"/>
<polygon fill="#63b8ff" stroke="#63b8ff" points="291.26,-56.33 300.74,-51.6 290.38,-49.39 291.26,-56.33"/>
</a>
</g>
</g>
<!-- Node7 -->
<g id="Node000007" class="node">
<title>Node7</title>
<g id="a_Node000007"><a xlink:href="../../d8/d0d/classVector2.html#a59bf838c0fc50305975e1679509fda83" target="_top" xlink:title=" ">
<polygon fill="white" stroke="#666666" points="382.5,-19 301.5,-19 301.5,0 382.5,0 382.5,-19"/>
<text text-anchor="middle" x="342" y="-7" font-family="Helvetica,sans-Serif" font-size="10.00">Vector2::getY</text>
</a>
</g>
</g>
<!-- Node3&#45;&gt;Node7 -->
<g id="edge6_Node000003_Node000007" class="edge">
<title>Node3&#45;&gt;Node7</title>
<g id="a_edge6_Node000003_Node000007"><a xlink:title=" ">
<path fill="none" stroke="#63b8ff" d="M235.24,-49.46C251.34,-42.87 270.56,-35.15 288,-28.5 293.19,-26.52 298.7,-24.48 304.11,-22.51"/>
<polygon fill="#63b8ff" stroke="#63b8ff" points="305.47,-25.74 313.69,-19.05 303.09,-19.16 305.47,-25.74"/>
</a>
</g>
</g>
</g>
</svg>
